<svg width="17" height="9" viewBox="0 0 17 9" fill="none" xmlns="http://www.w3.org/2000/svg">
<path d="M0.960755 0.29297C1.14828 0.105498 1.40259 0.000183105 1.66776 0.000183105C1.93292 0.000183105 2.18723 0.105498 2.37475 0.29297L8.66776 6.58597L14.9608 0.29297C15.1494 0.110811 15.402 0.0100174 15.6642 0.0122957C15.9264 0.0145741 16.1772 0.119743 16.3626 0.305151C16.548 0.490559 16.6532 0.741372 16.6554 1.00357C16.6577 1.26577 16.5569 1.51837 16.3748 1.70697L9.37475 8.70697C9.18723 8.89444 8.93292 8.99976 8.66776 8.99976C8.40259 8.99976 8.14828 8.89444 7.96076 8.70697L0.960755 1.70697C0.773284 1.51944 0.667969 1.26513 0.667969 0.999969C0.667969 0.734805 0.773284 0.480497 0.960755 0.29297Z" fill="#B0ACAC"/>
</svg>
