<svg width="24" height="24" viewBox="0 0 24 24" fill="none" xmlns="http://www.w3.org/2000/svg">
<path d="M11.6628 4.91252L13.5378 3.03752C14.0253 2.54999 14.6041 2.16326 15.2411 1.89941C15.8781 1.63556 16.5608 1.49976 17.2503 1.49976C17.9397 1.49976 18.6225 1.63556 19.2595 1.89941C19.8964 2.16326 20.4752 2.54999 20.9628 3.03752C21.4503 3.52506 21.837 4.10384 22.1009 4.74083C22.3647 5.37782 22.5005 6.06055 22.5005 6.75002C22.5005 7.4395 22.3647 8.12222 22.1009 8.75921C21.837 9.39621 21.4503 9.97499 20.9628 10.4625L17.2128 14.2125C16.7253 14.7001 16.1465 15.0868 15.5095 15.3507C14.8725 15.6146 14.1898 15.7504 13.5003 15.7504C12.8108 15.7504 12.128 15.6146 11.4911 15.3507C10.8541 15.0868 10.2753 14.7001 9.78777 14.2125C9.5888 13.9993 9.48041 13.7172 9.48545 13.4256C9.49049 13.134 9.60856 12.8557 9.81477 12.6495C10.021 12.4433 10.2992 12.3252 10.5908 12.3202C10.8824 12.3152 11.1645 12.4236 11.3778 12.6225C11.6564 12.9015 11.9873 13.1227 12.3514 13.2737C12.7156 13.4247 13.106 13.5024 13.5003 13.5024C13.8945 13.5024 14.2849 13.4247 14.6491 13.2737C15.0133 13.1227 15.3441 12.9015 15.6228 12.6225L19.3728 8.87252C19.9083 8.3041 20.2013 7.54941 20.1897 6.76854C20.1781 5.98766 19.8627 5.24204 19.3105 4.68981C18.7583 4.13759 18.0126 3.82222 17.2318 3.81059C16.4509 3.79896 15.6962 4.09199 15.1278 4.62752L13.2528 6.50252C13.0395 6.70149 12.7574 6.80988 12.4658 6.80484C12.1742 6.7998 11.896 6.68173 11.6898 6.47552C11.4836 6.2693 11.3655 5.99107 11.3605 5.69948C11.3554 5.40789 11.4638 5.12574 11.6628 4.91252ZM4.62777 19.3725C4.90639 19.6515 5.23725 19.8727 5.60145 20.0237C5.96564 20.1747 6.35602 20.2524 6.75027 20.2524C7.14451 20.2524 7.53489 20.1747 7.89909 20.0237C8.26328 19.8727 8.59415 19.6515 8.87277 19.3725L10.7478 17.4975C10.961 17.2986 11.2431 17.1902 11.5347 17.1952C11.8263 17.2002 12.1045 17.3183 12.3108 17.5245C12.517 17.7307 12.635 18.009 12.6401 18.3006C12.6451 18.5922 12.5367 18.8743 12.3378 19.0875L10.4628 20.9625C9.97523 21.4501 9.39645 21.8368 8.75946 22.1006C8.12247 22.3645 7.43974 22.5003 6.75027 22.5003C6.06079 22.5003 5.37807 22.3645 4.74108 22.1006C4.10409 21.8368 3.5253 21.4501 3.03777 20.9625C2.55024 20.475 2.1635 19.8962 1.89965 19.2592C1.6358 18.6222 1.5 17.9395 1.5 17.25C1.5 16.5605 1.6358 15.8778 1.89965 15.2408C2.1635 14.6038 2.55024 14.0251 3.03777 13.5375L6.78777 9.78752C7.27528 9.29996 7.85406 8.9132 8.49106 8.64933C9.12805 8.38546 9.81078 8.24964 10.5003 8.24964C11.1898 8.24964 11.8725 8.38546 12.5095 8.64933C13.1465 8.9132 13.7253 9.29996 14.2128 9.78752C14.4117 10.0007 14.5201 10.2829 14.5151 10.5745C14.51 10.8661 14.392 11.1443 14.1858 11.3505C13.9795 11.5567 13.7013 11.6748 13.4097 11.6798C13.1181 11.6849 12.836 11.5765 12.6228 11.3775C12.3441 11.0986 12.0133 10.8773 11.6491 10.7263C11.2849 10.5754 10.8945 10.4977 10.5003 10.4977C10.106 10.4977 9.71564 10.5754 9.35145 10.7263C8.98725 10.8773 8.65639 11.0986 8.37777 11.3775L4.62777 15.1275C4.34884 15.4061 4.12756 15.737 3.97659 16.1012C3.82562 16.4654 3.74791 16.8558 3.74791 17.25C3.74791 17.6443 3.82562 18.0346 3.97659 18.3988C4.12756 18.763 4.34884 19.0939 4.62777 19.3725Z" fill="black"/>
</svg>
