<svg width="19" height="19" viewBox="0 0 19 19" fill="none" xmlns="http://www.w3.org/2000/svg">
<path d="M18.5822 8.63951L2.08216 0.389512C1.95284 0.324837 1.80758 0.298923 1.66387 0.31489C1.52016 0.330858 1.38414 0.388026 1.27216 0.479512C1.16523 0.569131 1.08542 0.686801 1.0417 0.819294C0.997974 0.951787 0.992075 1.09385 1.02466 1.22951L3.24466 9.30701L0.994664 17.362C0.964084 17.4753 0.960515 17.5942 0.984243 17.7091C1.00797 17.824 1.05833 17.9318 1.13128 18.0237C1.20423 18.1156 1.29773 18.1891 1.40426 18.2383C1.5108 18.2875 1.62739 18.3111 1.74466 18.307C1.86207 18.3063 1.97767 18.278 2.08216 18.2245L18.5822 9.97451C18.705 9.91157 18.8081 9.81595 18.8801 9.69818C18.9521 9.5804 18.9902 9.44505 18.9902 9.30701C18.9902 9.16898 18.9521 9.03362 18.8801 8.91585C18.8081 8.79807 18.705 8.70245 18.5822 8.63951ZM2.90716 16.1395L4.56466 10.057H11.4947V8.55701H4.56466L2.90716 2.47451L16.5647 9.30701L2.90716 16.1395Z" fill="white"/>
</svg>
