<svg width="24" height="24" viewBox="0 0 24 24" fill="none" xmlns="http://www.w3.org/2000/svg">
<mask id="mask0_2884_36880" style="mask-type:luminance" maskUnits="userSpaceOnUse" x="2" y="2" width="20" height="20">
<path d="M2.5 2.5H21.5V21.5H2.5V2.5Z" fill="white"/>
</mask>
<g mask="url(#mask0_2884_36880)">
<path d="M13.79 2.64002L13.22 2.56002C11.5069 2.31268 9.75885 2.55737 8.17954 3.26558C6.60023 3.97379 5.25476 5.11634 4.3 6.56002C3.28416 7.94 2.67859 9.57876 2.55298 11.2877C2.42737 12.9967 2.78684 14.7063 3.59 16.22C3.6722 16.3717 3.72337 16.5383 3.74054 16.71C3.75771 16.8817 3.74053 17.055 3.69 17.22C3.28 18.63 2.9 20.05 2.5 21.54L3 21.39C4.35 21.03 5.7 20.67 7.05 20.34C7.33494 20.2808 7.63112 20.3087 7.9 20.42C9.1112 21.0111 10.4348 21.3363 11.782 21.3738C13.1293 21.4113 14.4689 21.1601 15.7111 20.6372C16.9533 20.1144 18.0692 19.3318 18.9841 18.3421C19.899 17.3525 20.5915 16.1785 21.0153 14.8992C21.4392 13.6198 21.5844 12.2646 21.4414 10.9244C21.2983 9.58429 20.8703 8.29026 20.1859 7.12917C19.5016 5.96809 18.5769 4.96681 17.4737 4.19254C16.3706 3.41827 15.1146 2.88892 13.79 2.64002ZM16.31 15.76C15.9466 16.0854 15.5034 16.3087 15.0256 16.407C14.5478 16.5054 14.0524 16.4754 13.59 16.32C11.4949 15.7292 9.67725 14.4146 8.46 12.61C7.99517 11.9716 7.62158 11.2715 7.35 10.53C7.20285 10.0998 7.17632 9.63749 7.27327 9.19325C7.37023 8.74902 7.58698 8.33981 7.9 8.01002C8.05239 7.81553 8.25981 7.67145 8.49526 7.59654C8.7307 7.52162 8.98325 7.51935 9.22 7.59002C9.42 7.64002 9.56 7.93002 9.74 8.15002C9.88667 8.56335 10.0567 8.96668 10.25 9.36002C10.3964 9.56053 10.4576 9.81082 10.4201 10.0563C10.3826 10.3017 10.2496 10.5223 10.05 10.67C9.6 11.07 9.67 11.4 9.99 11.85C10.6971 12.8695 11.6733 13.6727 12.81 14.17C13.13 14.31 13.37 14.34 13.58 14.01C13.67 13.88 13.79 13.77 13.89 13.65C14.47 12.92 14.29 12.93 15.21 13.33C15.5033 13.4534 15.7867 13.5967 16.06 13.76C16.33 13.92 16.74 14.09 16.8 14.33C16.8577 14.5904 16.8425 14.8616 16.7561 15.1139C16.6696 15.3662 16.5153 15.5898 16.31 15.76Z" fill="black"/>
</g>
</svg>
