<svg width="19" height="22" viewBox="0 0 19 22" fill="none" xmlns="http://www.w3.org/2000/svg">
<path fill-rule="evenodd" clip-rule="evenodd" d="M16.8221 0V1.62794H15.7368V2.71324L15.8246 2.71463C17.2824 2.76098 18.45 3.95737 18.45 5.42647C18.45 6.67342 17.5175 8.18919 15.6858 10.0427C15.3058 13.0763 12.839 15.461 9.76792 15.7145L9.76765 16.8221H10.8529V17.9074H11.9382V18.9926H13.5662V21.7059H4.88382V18.9926H6.51177V17.9074H7.59706V16.8221H8.68235L8.68245 15.7145C5.61115 15.4612 3.1442 13.0764 2.76409 10.0428L2.87217 10.1514C0.969136 8.24832 0 6.6977 0 5.42647C0 3.92799 1.21476 2.71324 2.71324 2.71324V1.62794H1.62794V0H16.8221ZM2.71324 3.79853C1.81415 3.79853 1.08529 4.52738 1.08529 5.42647C1.08529 6.14544 1.62193 7.14826 2.71319 8.39761L2.71324 3.79853ZM15.7371 3.79853L15.7372 8.3971C16.8282 7.14799 17.3647 6.14534 17.3647 5.42647C17.3647 4.5275 16.636 3.79873 15.7371 3.79853ZM10.3103 1.62794V8.13971L11.9382 6.51176L13.5662 8.13971V1.62794H10.3103Z" fill="black" fill-opacity="0.2"/>
</svg>
