<svg width="20" height="20" viewBox="0 0 20 20" fill="none" xmlns="http://www.w3.org/2000/svg">
<path fill-rule="evenodd" clip-rule="evenodd" d="M6.73074 6.05001L6.8099 6.11917L13.8816 13.19C13.9743 13.2826 14.0438 13.3957 14.0846 13.5202C14.1253 13.6447 14.1362 13.7771 14.1162 13.9066C14.0962 14.0361 14.046 14.159 13.9696 14.2654C13.8933 14.3719 13.7928 14.4588 13.6766 14.5192L13.5799 14.5608L4.92574 17.75C3.29907 18.35 1.7149 16.8208 2.20907 15.1967L2.25074 15.075L5.43907 6.42084C5.48122 6.3062 5.54806 6.20223 5.63485 6.11629C5.72164 6.03034 5.82626 5.96453 5.94131 5.9235C6.05635 5.88248 6.17901 5.86724 6.3006 5.87888C6.42219 5.89052 6.53973 5.92874 6.6449 5.99084L6.73074 6.05001ZM6.5524 8.21834L3.8149 15.6517C3.78945 15.7208 3.7828 15.7955 3.79562 15.8681C3.80844 15.9406 3.84028 16.0085 3.88789 16.0648C3.9355 16.121 3.99718 16.1636 4.06663 16.1883C4.13608 16.2129 4.21082 16.2187 4.28324 16.205L4.3499 16.1858L11.7816 13.4475L6.5524 8.21834ZM14.2566 9.67001C15.0157 9.71001 16.0566 9.87001 16.9616 10.4133C17.145 10.5221 17.2798 10.6971 17.3382 10.9022C17.3965 11.1074 17.3739 11.3271 17.2752 11.5161C17.1764 11.7052 17.0089 11.8491 16.8071 11.9184C16.6054 11.9876 16.3848 11.9769 16.1907 11.8883L16.1041 11.8425C15.5357 11.5008 14.8091 11.3675 14.1691 11.3342C13.9054 11.3196 13.641 11.3207 13.3774 11.3375L13.1141 11.3633C12.8967 11.3914 12.677 11.3327 12.5026 11.1999C12.3282 11.0671 12.2131 10.871 12.1824 10.654C12.1516 10.4369 12.2075 10.2165 12.3381 10.0405C12.4686 9.86441 12.6633 9.74688 12.8799 9.71334C13.3363 9.65445 13.7973 9.63966 14.2566 9.66917M15.9441 7.34751C16.1564 7.34795 16.3606 7.42943 16.5148 7.5753C16.6691 7.72118 16.7619 7.92044 16.7743 8.13242C16.7866 8.34439 16.7175 8.55307 16.5812 8.71586C16.4449 8.87865 16.2516 8.98326 16.0407 9.00834L15.9441 9.01417H15.3541C15.1417 9.01373 14.9376 8.93225 14.7833 8.78638C14.629 8.6405 14.5362 8.44123 14.5239 8.22926C14.5116 8.01729 14.5806 7.80861 14.7169 7.64582C14.8532 7.48303 15.0466 7.37842 15.2574 7.35334L15.3541 7.34751H15.9441ZM13.2924 6.70834C13.4359 6.85183 13.5221 7.04275 13.5348 7.24527C13.5475 7.44779 13.4859 7.648 13.3616 7.80834L13.2924 7.88667L12.4091 8.77084C12.2595 8.92188 12.0578 9.01003 11.8453 9.01724C11.6328 9.02445 11.4256 8.95017 11.2661 8.80962C11.1066 8.66906 11.0068 8.47285 10.9872 8.26115C10.9677 8.04945 11.0297 7.83827 11.1607 7.67084L11.2299 7.59251L12.1132 6.70917C12.1906 6.63169 12.2825 6.57023 12.3837 6.52829C12.4849 6.48635 12.5933 6.46477 12.7028 6.46477C12.8123 6.46477 12.9208 6.48635 13.0219 6.52829C13.1231 6.57023 13.215 6.63086 13.2924 6.70834ZM11.1366 2.32084C11.5099 3.44251 11.3099 4.67084 11.0766 5.52917C10.9369 6.06448 10.7443 6.58454 10.5016 7.08167C10.4029 7.27948 10.2297 7.42998 10.02 7.50008C9.81037 7.57017 9.58146 7.55411 9.38365 7.45542C9.18585 7.35674 9.03534 7.18352 8.96525 6.97387C8.89516 6.76422 8.91122 6.53531 9.0099 6.33751C9.2038 5.93824 9.35734 5.52062 9.46824 5.09084C9.6574 4.39751 9.75241 3.64501 9.60657 3.02834L9.55574 2.84834C9.51942 2.74412 9.50417 2.63373 9.51086 2.52357C9.51756 2.41341 9.54607 2.30567 9.59474 2.20662C9.64341 2.10757 9.71127 2.01917 9.79438 1.94656C9.87749 1.87394 9.9742 1.81856 10.0789 1.78363C10.1836 1.7487 10.2942 1.73491 10.4042 1.74306C10.5143 1.75121 10.6216 1.78115 10.72 1.83113C10.8184 1.8811 10.9059 1.95013 10.9774 2.0342C11.0489 2.11826 11.103 2.2157 11.1366 2.32084ZM15.6491 4.35251C15.8053 4.50878 15.8931 4.7207 15.8931 4.94167C15.8931 5.16264 15.8053 5.37457 15.6491 5.53084L15.0599 6.12001C14.983 6.1996 14.8911 6.26308 14.7894 6.30676C14.6877 6.35043 14.5784 6.37342 14.4677 6.37438C14.3571 6.37534 14.2474 6.35426 14.1449 6.31236C14.0425 6.27046 13.9495 6.20858 13.8712 6.13033C13.793 6.05209 13.7311 5.95905 13.6892 5.85663C13.6473 5.75422 13.6262 5.64449 13.6272 5.53384C13.6282 5.42319 13.6511 5.31384 13.6948 5.21217C13.7385 5.1105 13.802 5.01854 13.8816 4.94167L14.4707 4.35251C14.627 4.19628 14.8389 4.10852 15.0599 4.10852C15.2809 4.10852 15.4928 4.19628 15.6491 4.35251Z" fill="black"/>
</svg>
