<svg width="64" height="65" viewBox="0 0 64 65" fill="none" xmlns="http://www.w3.org/2000/svg">
<rect y="0.333496" width="64" height="64" rx="32" fill="#2956A8"/>
<path d="M25.8399 28.967L21.7996 32.3335L25.8399 35.7001C25.9739 35.8099 26.0849 35.9452 26.1663 36.0981C26.2478 36.2509 26.2982 36.4185 26.3146 36.5909C26.331 36.7634 26.3131 36.9374 26.2619 37.1029C26.2108 37.2684 26.1273 37.4222 26.0165 37.5553C25.9056 37.6884 25.7695 37.7982 25.6159 37.8785C25.4624 37.9587 25.2945 38.0078 25.1219 38.0228C24.9493 38.0378 24.7754 38.0185 24.6103 37.9661C24.4452 37.9136 24.2922 37.8289 24.1599 37.717L18.9099 33.342C18.7621 33.2188 18.6431 33.0646 18.5615 32.8903C18.4798 32.7161 18.4375 32.526 18.4375 32.3335C18.4375 32.1411 18.4798 31.951 18.5615 31.7767C18.6431 31.6025 18.7621 31.4483 18.9099 31.3251L24.1599 26.9501C24.4278 26.7306 24.7715 26.6258 25.1162 26.6587C25.4609 26.6915 25.7787 26.8592 26.0003 27.1252C26.222 27.3913 26.3295 27.7342 26.2994 28.0791C26.2694 28.4241 26.1042 28.7432 25.8399 28.967ZM45.0899 31.3251L39.8399 26.9501C39.7077 26.8382 39.5546 26.7535 39.3895 26.701C39.2244 26.6485 39.0506 26.6292 38.878 26.6443C38.7054 26.6593 38.5375 26.7084 38.384 26.7886C38.2304 26.8688 38.0943 26.9787 37.9834 27.1118C37.8725 27.2449 37.7891 27.3987 37.7379 27.5642C37.6868 27.7297 37.6689 27.9037 37.6853 28.0761C37.7017 28.2486 37.7521 28.4161 37.8335 28.569C37.915 28.7219 38.0259 28.8572 38.1599 28.967L42.2002 32.3335L38.1599 35.7001C38.0259 35.8099 37.915 35.9452 37.8335 36.0981C37.7521 36.2509 37.7017 36.4185 37.6853 36.5909C37.6689 36.7634 37.6868 36.9374 37.7379 37.1029C37.7891 37.2684 37.8725 37.4222 37.9834 37.5553C38.0943 37.6884 38.2304 37.7982 38.384 37.8785C38.5375 37.9587 38.7054 38.0078 38.878 38.0228C39.0506 38.0378 39.2244 38.0185 39.3895 37.9661C39.5546 37.9136 39.7077 37.8289 39.8399 37.717L45.0899 33.342C45.2378 33.2188 45.3568 33.0646 45.4384 32.8903C45.52 32.7161 45.5624 32.526 45.5624 32.3335C45.5624 32.1411 45.52 31.951 45.4384 31.7767C45.3568 31.6025 45.2378 31.4483 45.0899 31.3251ZM35.9484 21.4748C35.7864 21.4159 35.6143 21.3894 35.4421 21.397C35.2699 21.4046 35.1008 21.446 34.9446 21.519C34.7884 21.5919 34.6481 21.6949 34.5317 21.822C34.4153 21.9492 34.3251 22.0981 34.2662 22.2601L27.2662 41.5101C27.1475 41.8372 27.1636 42.198 27.3109 42.5132C27.4581 42.8284 27.7245 43.0723 28.0515 43.1912C28.1951 43.2442 28.3469 43.2712 28.4999 43.271C28.7694 43.2711 29.0324 43.1882 29.2531 43.0336C29.4738 42.879 29.6416 42.6602 29.7337 42.407L36.7337 23.157C36.7926 22.995 36.819 22.8229 36.8114 22.6507C36.8039 22.4785 36.7624 22.3094 36.6895 22.1532C36.6166 21.997 36.5136 21.8567 36.3864 21.7403C36.2593 21.6239 36.1104 21.5336 35.9484 21.4748Z" fill="white"/>
</svg>
