<svg width="64" height="65" viewBox="0 0 64 65" fill="none" xmlns="http://www.w3.org/2000/svg">
<rect y="0.333496" width="64" height="64" rx="32" fill="#2956A8"/>
<path d="M39.2088 27.7135L39.749 27.1721C40.1791 26.7419 40.7625 26.5001 41.3708 26.5C41.9792 26.4999 42.5627 26.7415 42.9929 27.1715C43.4232 27.6016 43.6649 28.185 43.665 28.7934C43.6652 29.4017 43.4236 29.9852 42.9935 30.4155L42.4533 30.9568M39.2088 27.7135C39.2088 27.7135 39.2765 28.8615 40.2903 29.8753C41.3042 30.8891 42.4533 30.9568 42.4533 30.9568M39.2088 27.7135L34.2388 32.6835C33.9005 33.0195 33.7325 33.1886 33.5878 33.3741C33.4167 33.5935 33.2713 33.8291 33.1515 34.0811C33.05 34.2935 32.9753 34.5186 32.8248 34.9701L32.343 36.4168L32.1867 36.8846M42.4533 30.9568L37.4833 35.9268C37.145 36.2651 36.977 36.4331 36.7915 36.5778C36.5722 36.7489 36.3365 36.8944 36.0845 37.0141C35.8722 37.1156 35.647 37.1903 35.1955 37.3408L33.7488 37.8226L33.281 37.979M32.1867 36.8846L32.0315 37.3536C31.9954 37.4625 31.9902 37.5793 32.0166 37.6909C32.043 37.8025 32.1 37.9046 32.1811 37.9857C32.2622 38.0668 32.3643 38.1237 32.4759 38.1502C32.5875 38.1766 32.7043 38.1714 32.8132 38.1353L33.281 37.979M32.1867 36.8846L33.281 37.979" stroke="white" stroke-width="1.5"/>
<path d="M27.3333 33.5001H30.25M27.3333 28.8334H34.9167M27.3333 38.1667H29.0833M41.1327 22.0341C39.7665 20.6667 37.5662 20.6667 33.1667 20.6667H30.8333C26.4338 20.6667 24.2335 20.6667 22.8673 22.0341C21.5012 23.4014 21.5 25.6006 21.5 30.0001V34.6667C21.5 39.0662 21.5 41.2666 22.8673 42.6327C24.2347 43.9989 26.4338 44.0001 30.8333 44.0001H33.1667C37.5662 44.0001 39.7665 44.0001 41.1327 42.6327C42.234 41.5326 42.4475 39.8934 42.4895 37.0001" stroke="white" stroke-width="1.5" stroke-linecap="round"/>
</svg>
