<svg width="64" height="65" viewBox="0 0 64 65" fill="none" xmlns="http://www.w3.org/2000/svg">
<rect y="0.333496" width="64" height="64" rx="32" fill="#2956A8"/>
<path d="M42.7767 24.5034L32.2767 21.0034C32.0971 20.9435 31.9029 20.9435 31.7233 21.0034L21.2233 24.5034C21.0491 24.5615 20.8975 24.6729 20.7901 24.8219C20.6828 24.9709 20.625 25.1499 20.625 25.3336V34.0836C20.625 34.3156 20.7172 34.5382 20.8813 34.7023C21.0454 34.8664 21.2679 34.9586 21.5 34.9586C21.7321 34.9586 21.9546 34.8664 22.1187 34.7023C22.2828 34.5382 22.375 34.3156 22.375 34.0836V26.5476L26.0489 27.7715C25.0728 29.3485 24.7624 31.2484 25.1859 33.054C25.6093 34.8597 26.7321 36.4234 28.3075 37.402C26.3387 38.1742 24.6369 39.5709 23.3922 41.4806C23.3275 41.5768 23.2825 41.6849 23.2599 41.7987C23.2373 41.9124 23.2376 42.0295 23.2607 42.1431C23.2837 42.2568 23.3292 42.3647 23.3943 42.4606C23.4595 42.5566 23.543 42.6386 23.6401 42.7019C23.7373 42.7653 23.846 42.8087 23.9601 42.8296C24.0741 42.8506 24.1912 42.8487 24.3045 42.824C24.4178 42.7993 24.5251 42.7523 24.6201 42.6858C24.715 42.6193 24.7959 42.5346 24.8578 42.4365C26.5061 39.9078 29.1092 38.4586 32 38.4586C34.8908 38.4586 37.4939 39.9078 39.1422 42.4365C39.2705 42.6273 39.4688 42.7598 39.6941 42.8056C39.9194 42.8513 40.1536 42.8066 40.3462 42.681C40.5387 42.5554 40.6741 42.359 40.7231 42.1344C40.772 41.9098 40.7306 41.6749 40.6078 41.4806C39.3631 39.5709 37.6547 38.1742 35.6925 37.402C37.2664 36.4235 38.3881 34.8607 38.8115 33.0564C39.2349 31.2521 38.9255 29.3535 37.9511 27.777L42.7767 26.1692C42.951 26.1111 43.1026 25.9997 43.21 25.8507C43.3174 25.7017 43.3752 25.5227 43.3752 25.339C43.3752 25.1554 43.3174 24.9763 43.21 24.8273C43.1026 24.6783 42.951 24.5669 42.7767 24.5089V24.5034ZM37.25 31.4586C37.2502 32.2886 37.0537 33.1068 36.6765 33.8461C36.2992 34.5854 35.7521 35.2248 35.0799 35.7117C34.4078 36.1986 33.6297 36.5192 32.8097 36.6472C31.9896 36.7752 31.1509 36.707 30.3623 36.4481C29.5737 36.1892 28.8577 35.747 28.2731 35.1578C27.6886 34.5686 27.252 33.8492 26.9993 33.0586C26.7466 32.268 26.6849 31.4287 26.8193 30.6097C26.9538 29.7907 27.2805 29.0152 27.7727 28.3468L31.7233 29.6593C31.9029 29.7192 32.0971 29.7192 32.2767 29.6593L36.2273 28.3468C36.892 29.2481 37.2505 30.3387 37.25 31.4586ZM32 27.9115L24.2672 25.3336L32 22.7556L39.7328 25.3336L32 27.9115Z" fill="white"/>
</svg>
