<svg width="16" height="16" viewBox="0 0 16 16" fill="none" xmlns="http://www.w3.org/2000/svg">
<path d="M8.0013 15.3332C7.03674 15.3388 6.08065 15.1529 5.18844 14.7863C4.29622 14.4198 3.4856 13.8798 2.80354 13.1978C2.12148 12.5157 1.58153 11.7051 1.21497 10.8129C0.848414 9.92067 0.66253 8.96458 0.66809 8.00002C0.66253 7.03546 0.848414 6.07937 1.21497 5.18716C1.58153 4.29494 2.12148 3.48432 2.80354 2.80226C3.4856 2.1202 4.29622 1.58025 5.18844 1.21369C6.08065 0.847132 7.03674 0.661249 8.0013 0.666808C8.96587 0.661249 9.92195 0.847132 10.8142 1.21369C11.7064 1.58025 12.517 2.1202 13.1991 2.80226C13.8811 3.48432 14.4211 4.29494 14.7876 5.18716C15.1542 6.07937 15.3401 7.03546 15.3345 8.00002C15.3401 8.96458 15.1542 9.92067 14.7876 10.8129C14.4211 11.7051 13.8811 12.5157 13.1991 13.1978C12.517 13.8798 11.7064 14.4198 10.8142 14.7863C9.92195 15.1529 8.96587 15.3388 8.0013 15.3332ZM8.0013 8.8381L10.829 11.6658L11.6671 10.8277L8.83938 8.00002L11.6679 5.17149L10.8298 4.33341L8.0013 7.16194L5.17278 4.33341L4.3347 5.17149L7.16322 8.00002L4.3347 10.8285L5.17278 11.6666L8.00046 8.8381H8.0013Z" fill="#2956A8"/>
</svg>
