<svg width="20" height="20" viewBox="0 0 20 20" fill="none" xmlns="http://www.w3.org/2000/svg">
<rect width="20" height="20" rx="10" fill="#28A87B"/>
<path fill-rule="evenodd" clip-rule="evenodd" d="M14.4912 6.66448C14.6023 6.77216 14.666 6.91955 14.6684 7.07423C14.6708 7.22892 14.6117 7.37822 14.504 7.48931L9.01776 13.15C8.94163 13.2285 8.85051 13.2909 8.7498 13.3335C8.6491 13.3761 8.54086 13.3981 8.43151 13.3981C8.32216 13.3981 8.21392 13.3761 8.11321 13.3335C8.01251 13.2909 7.92139 13.2285 7.84526 13.15L5.49968 10.7303C5.44567 10.6754 5.40305 10.6104 5.37428 10.539C5.34552 10.4676 5.33117 10.3912 5.33207 10.3142C5.33297 10.2373 5.3491 10.1612 5.37953 10.0905C5.40995 10.0198 5.45408 9.9558 5.50935 9.90222C5.56463 9.84864 5.62997 9.80652 5.70159 9.77831C5.77322 9.7501 5.84973 9.73635 5.9267 9.73784C6.00367 9.73934 6.07958 9.75605 6.15006 9.78703C6.22054 9.818 6.28419 9.86262 6.33734 9.91831L8.43151 12.0784L13.6663 6.67731C13.774 6.56623 13.9214 6.50248 14.0761 6.50007C14.2308 6.49766 14.3801 6.5568 14.4912 6.66448Z" fill="white"/>
</svg>
