<svg width="44" height="44" viewBox="0 0 44 44" fill="none" xmlns="http://www.w3.org/2000/svg">
<rect width="44" height="44" rx="22" fill="#F8D881"/>
<path d="M31 24.25V22.75C30.995 20.89 30.416 19.077 29.3421 17.5583C28.2683 16.0396 26.7519 14.8894 25 14.2647V13.75C25 13.3522 24.842 12.9706 24.5607 12.6893C24.2794 12.408 23.8978 12.25 23.5 12.25H20.5C20.1022 12.25 19.7206 12.408 19.4393 12.6893C19.158 12.9706 19 13.3522 19 13.75V14.2647C17.2481 14.8894 15.7317 16.0396 14.6579 17.5583C13.584 19.077 13.005 20.89 13 22.75V24.25C12.6022 24.25 12.2206 24.408 11.9393 24.6893C11.658 24.9706 11.5 25.3522 11.5 25.75V28C11.5 28.3978 11.658 28.7794 11.9393 29.0607C12.2206 29.342 12.6022 29.5 13 29.5H31C31.3978 29.5 31.7794 29.342 32.0607 29.0607C32.342 28.7794 32.5 28.3978 32.5 28V25.75C32.5 25.3522 32.342 24.9706 32.0607 24.6893C31.7794 24.408 31.3978 24.25 31 24.25ZM29.5 22.75V24.25H25V15.8753C26.335 16.4626 27.4709 17.4249 28.2697 18.6452C29.0685 19.8655 29.4959 21.2915 29.5 22.75ZM23.5 13.75V24.25H20.5V13.75H23.5ZM14.5 22.75C14.5041 21.2915 14.9315 19.8655 15.7303 18.6452C16.5291 17.4249 17.665 16.4626 19 15.8753V24.25H14.5V22.75ZM31 28H13V25.75H31V28Z" fill="#231F20"/>
</svg>
