<svg width="20" height="20" viewBox="0 0 20 20" fill="none" xmlns="http://www.w3.org/2000/svg">
<rect width="20" height="20" rx="10" fill="#2956A8"/>
<path d="M12.54 12.47H11.61V14H10.37V12.47H7.19V11.53L10.4 6.84H11.61V11.44H12.54V12.47ZM10.37 9.84C10.37 9.7 10.37 9.55667 10.37 9.41C10.3767 9.25667 10.3833 9.10667 10.39 8.96C10.3967 8.81333 10.4033 8.68 10.41 8.56C10.4167 8.44 10.4233 8.34667 10.43 8.28H10.39C10.33 8.40667 10.2633 8.54 10.19 8.68C10.1233 8.81333 10.0467 8.94 9.96 9.06L8.34 11.44H10.37V9.84Z" fill="white"/>
</svg>
