<svg width="44" height="44" viewBox="0 0 44 44" fill="none" xmlns="http://www.w3.org/2000/svg">
<rect width="44" height="44" rx="22" fill="#2956A8"/>
<path d="M15.7997 13.959C14.7677 14.624 12.8927 13.919 12.1277 15.036C11.8947 15.376 12.0097 15.826 12.2397 16.726L14.2297 26.499C14.6797 28.257 14.9037 29.136 15.6027 29.649C15.8877 29.859 16.1827 29.957 16.4997 30M15.7997 13.959C17.1837 13.066 15.9897 12 17.9997 12L20.1547 13.693C21.0137 14.367 21.4427 14.705 21.4747 15.181C21.5067 15.658 21.1277 16.056 20.3687 16.851L19.8147 17.431C19.4357 17.828 19.2457 18.027 19.0187 18.01C18.7917 17.993 18.6297 17.768 18.3087 17.319L15.7997 13.959ZM28.1997 13.959C29.2317 14.624 31.1067 13.919 31.8717 15.036C32.1047 15.376 31.9897 15.826 31.7597 16.726L29.7697 26.499C29.3197 28.257 29.0957 29.136 28.3977 29.649C28.1117 29.859 27.8157 29.957 27.4997 30M28.1997 13.959C26.8157 13.066 28.0097 12 25.9997 12L23.8447 13.693C22.9857 14.367 22.5567 14.705 22.5247 15.181C22.4927 15.658 22.8717 16.056 23.6307 16.851L24.1847 17.431C24.5637 17.828 24.7537 18.027 24.9807 18.01C25.2077 17.993 25.3697 17.768 25.6907 17.319L28.1997 13.959ZM20.2867 17L21.1567 18.452C21.3617 18.792 21.4637 18.964 21.4947 19.155C21.5247 19.347 21.4797 19.541 21.3907 19.928L19.5497 27.941C19.3027 29.327 20.0347 30.001 20.7457 30.891C21.3367 31.631 21.6327 32 22.0007 32C22.3687 32 22.6647 31.63 23.2557 30.89C23.9657 30.002 24.6987 29.327 24.4517 27.941L22.6097 19.928C22.5207 19.541 22.4767 19.347 22.5067 19.155C22.5367 18.964 22.6397 18.793 22.8437 18.452L23.7137 17" stroke="white" stroke-width="1.5" stroke-linecap="round" stroke-linejoin="round"/>
</svg>
