<svg width="24" height="24" viewBox="0 0 24 24" fill="none" xmlns="http://www.w3.org/2000/svg">
<path d="M5.1673 15.6269C4.86473 15.0641 4.63621 14.483 4.48172 13.8837C4.32724 13.2843 4.25 12.6731 4.25 12.05C4.25 9.8872 5.00256 8.0465 6.50768 6.52792C8.01281 5.00933 9.84358 4.25004 12 4.25004H12.7808L10.9308 2.40002L11.9846 1.34619L15.6384 5.00002L11.9846 8.65384L10.9308 7.60002L12.7808 5.74999H12C10.2628 5.74999 8.78683 6.36153 7.57207 7.58462C6.35732 8.8077 5.74995 10.2962 5.74995 12.05C5.74995 12.4641 5.79514 12.8779 5.88552 13.2914C5.97591 13.7048 6.11148 14.1083 6.29225 14.5019L5.1673 15.6269ZM12.0153 22.6538L8.36155 19L12.0153 15.3462L13.0692 16.4L11.2192 18.25H12C13.7372 18.25 15.2131 17.6385 16.4279 16.4154C17.6426 15.1923 18.25 13.7039 18.25 11.95C18.25 11.5359 18.2048 11.1221 18.1144 10.7087C18.024 10.2952 17.8885 9.89169 17.7077 9.49809L18.8327 8.37312C19.1352 8.93593 19.3637 9.51702 19.5182 10.1164C19.6727 10.7157 19.75 11.327 19.75 11.95C19.75 14.1128 18.9974 15.9535 17.4923 17.4721C15.9871 18.9907 14.1564 19.75 12 19.75H11.2192L13.0692 21.6L12.0153 22.6538Z" fill="#5B5B5B"/>
</svg>
