<svg width="16" height="16" viewBox="0 0 16 16" fill="none" xmlns="http://www.w3.org/2000/svg">
<path d="M8.0026 1.3335C4.31594 1.3335 1.33594 4.3335 1.33594 8.00016C1.33594 11.6668 4.33594 14.6668 8.0026 14.6668C11.6693 14.6668 14.6693 11.6668 14.6693 8.00016C14.6693 4.3335 11.6693 1.3335 8.0026 1.3335ZM8.0026 13.3335C5.05594 13.3335 2.66927 10.9468 2.66927 8.00016C2.66927 5.0535 5.05594 2.66683 8.0026 2.66683C10.9493 2.66683 13.3359 5.0535 13.3359 8.00016C13.3359 10.9468 10.9493 13.3335 8.0026 13.3335ZM5.33594 9.3335L4.66927 5.3335L6.66927 6.66683L8.0026 4.66683L9.33594 6.66683L11.3359 5.3335L10.6693 9.3335H5.33594ZM5.70927 10.6668C5.4826 10.6668 5.33594 10.5202 5.33594 10.2935V10.0002H10.6693V10.2935C10.6693 10.5202 10.5226 10.6668 10.2959 10.6668H5.70927Z" fill="#F3BE2E"/>
</svg>
