<svg width="1249" height="726" viewBox="0 0 1249 726" fill="none" xmlns="http://www.w3.org/2000/svg">
<path d="M482.381 358.783C482.381 362.233 481.929 365.23 481.023 367.774C480.118 370.318 478.845 372.517 477.207 374.371C475.611 376.182 473.671 377.67 471.386 378.834C469.143 379.955 466.642 380.861 463.882 381.551C461.166 382.198 458.255 382.651 455.15 382.909C452.046 383.168 448.833 383.297 445.513 383.297H381.026V294.425H444.349C446.893 294.425 449.437 294.533 451.981 294.749C454.568 294.964 457.026 295.374 459.355 295.978C461.683 296.538 463.839 297.336 465.823 298.371C467.85 299.406 469.596 300.764 471.062 302.446C472.571 304.127 473.736 306.154 474.555 308.526C475.417 310.897 475.849 313.7 475.849 316.934C475.849 322.712 474.426 327.305 471.58 330.711C468.734 334.075 464.249 336.317 458.126 337.438C462.438 337.74 466.125 338.408 469.186 339.443C472.291 340.435 474.814 341.815 476.754 343.583C478.695 345.308 480.118 347.442 481.023 349.986C481.929 352.487 482.381 355.42 482.381 358.783ZM452.434 320.75C452.434 319.629 452.261 318.573 451.916 317.581C451.571 316.546 450.946 315.641 450.041 314.864C449.135 314.088 447.906 313.463 446.354 312.989C444.801 312.514 442.818 312.277 440.403 312.277H405.022V328.965H440.403C442.818 328.965 444.801 328.749 446.354 328.318C447.906 327.887 449.135 327.305 450.041 326.572C450.946 325.839 451.571 324.976 451.916 323.985C452.261 322.95 452.434 321.872 452.434 320.75ZM457.996 356.002C457.996 353.975 457.652 352.358 456.962 351.151C456.272 349.9 455.194 348.952 453.727 348.305C452.261 347.615 450.364 347.162 448.036 346.946C445.707 346.731 442.926 346.623 439.692 346.623H405.022V365.445H439.692C442.926 365.445 445.707 365.338 448.036 365.122C450.364 364.906 452.261 364.454 453.727 363.764C455.194 363.074 456.272 362.125 456.962 360.918C457.652 359.667 457.996 358.029 457.996 356.002ZM528.305 345.265C528.305 348.973 528.65 352.013 529.34 354.385C530.03 356.713 531.151 358.568 532.703 359.947C534.256 361.327 536.261 362.276 538.719 362.793C541.22 363.311 544.281 363.57 547.904 363.57H593.439V383.297H542.988C536.002 383.297 530.052 382.737 525.136 381.616C520.263 380.451 516.274 378.683 513.17 376.312C510.065 373.897 507.801 370.857 506.378 367.192C504.998 363.526 504.308 359.171 504.308 354.126V294.425H528.305V345.265ZM636.323 294.425V344.489C636.323 347.809 636.603 350.827 637.164 353.544C637.724 356.217 638.759 358.524 640.269 360.465C641.778 362.362 643.891 363.85 646.607 364.928C649.324 365.963 652.86 366.48 657.215 366.48C660.492 366.48 663.92 366.027 667.499 365.122C671.122 364.216 674.701 363.009 678.237 361.5C681.772 359.991 685.136 358.266 688.327 356.325C691.561 354.342 694.45 352.293 696.994 350.181V294.425H720.926V383.297H696.994V371.137C693.976 372.862 690.763 374.608 687.357 376.376C683.95 378.101 680.328 379.675 676.49 381.098C672.652 382.478 668.577 383.599 664.265 384.462C659.953 385.367 655.404 385.82 650.618 385.82C644.624 385.82 639.255 385.087 634.512 383.621C629.769 382.198 625.758 380.171 622.481 377.541C619.204 374.867 616.681 371.655 614.913 367.903C613.189 364.109 612.326 359.883 612.326 355.226V294.425H636.323ZM847.896 378.899C840.608 381.314 833.321 383.039 826.033 384.074C818.789 385.152 811.372 385.691 803.783 385.691C794.081 385.691 785.435 384.656 777.846 382.586C770.3 380.473 763.939 377.433 758.765 373.466C753.59 369.499 749.645 364.648 746.928 358.912C744.212 353.177 742.853 346.688 742.853 339.443C742.853 332.717 744.212 326.486 746.928 320.75C749.688 314.972 753.569 309.97 758.571 305.744C763.616 301.475 769.696 298.155 776.811 295.783C783.926 293.369 791.86 292.161 800.614 292.161C808.677 292.161 816.051 293.261 822.735 295.46C829.462 297.616 835.218 300.829 840.005 305.098C844.834 309.367 848.564 314.627 851.195 320.88C853.868 327.132 855.205 334.334 855.205 342.483V348.434H767.626C768.402 351.237 769.674 353.803 771.442 356.131C773.253 358.46 775.69 360.443 778.751 362.082C781.813 363.72 785.565 364.993 790.006 365.898C794.491 366.804 799.838 367.256 806.047 367.256C810.445 367.256 814.757 366.998 818.983 366.48C823.209 365.92 827.155 365.208 830.82 364.346C834.485 363.44 837.784 362.448 840.716 361.37C843.692 360.292 846.085 359.214 847.896 358.136V378.899ZM831.337 330.841C831.122 328.642 830.453 326.378 829.332 324.049C828.254 321.678 826.529 319.543 824.158 317.646C821.786 315.748 818.681 314.196 814.844 312.989C811.006 311.738 806.219 311.113 800.484 311.113C795.094 311.113 790.437 311.781 786.513 313.118C782.589 314.455 779.29 316.115 776.617 318.099C773.987 320.082 771.938 322.217 770.472 324.502C769.006 326.787 768.057 328.9 767.626 330.841H831.337ZM976.87 324.761C976.87 329.202 976.224 333.299 974.93 337.05C973.636 340.759 971.545 343.971 968.656 346.688C965.81 349.361 962.102 351.453 957.531 352.962C952.96 354.471 947.397 355.226 940.843 355.226H900.999V383.297H877.002V294.425H940.843C947.397 294.425 952.96 295.18 957.531 296.689C962.102 298.155 965.81 300.246 968.656 302.963C971.545 305.637 973.636 308.828 974.93 312.536C976.224 316.244 976.87 320.319 976.87 324.761ZM952.615 325.149C952.615 323.079 952.313 321.311 951.709 319.845C951.149 318.336 950.2 317.107 948.863 316.158C947.527 315.209 945.78 314.52 943.624 314.088C941.468 313.614 938.816 313.377 935.668 313.377H900.999V336.274H935.668C938.816 336.274 941.468 336.102 943.624 335.757C945.78 335.368 947.527 334.743 948.863 333.881C950.2 332.975 951.149 331.811 951.709 330.388C952.313 328.965 952.615 327.219 952.615 325.149ZM1095.88 378.899C1088.6 381.314 1081.31 383.039 1074.02 384.074C1066.78 385.152 1059.36 385.691 1051.77 385.691C1042.07 385.691 1033.42 384.656 1025.83 382.586C1018.29 380.473 1011.93 377.433 1006.75 373.466C1001.58 369.499 997.633 364.648 994.917 358.912C992.2 353.177 990.842 346.688 990.842 339.443C990.842 332.717 992.2 326.486 994.917 320.75C997.676 314.972 1001.56 309.97 1006.56 305.744C1011.6 301.475 1017.68 298.155 1024.8 295.783C1031.91 293.369 1039.85 292.161 1048.6 292.161C1056.67 292.161 1064.04 293.261 1070.72 295.46C1077.45 297.616 1083.21 300.829 1087.99 305.098C1092.82 309.367 1096.55 314.627 1099.18 320.88C1101.86 327.132 1103.19 334.334 1103.19 342.483V348.434H1015.61C1016.39 351.237 1017.66 353.803 1019.43 356.131C1021.24 358.46 1023.68 360.443 1026.74 362.082C1029.8 363.72 1033.55 364.993 1037.99 365.898C1042.48 366.804 1047.83 367.256 1054.04 367.256C1058.43 367.256 1062.75 366.998 1066.97 366.48C1071.2 365.92 1075.14 365.208 1078.81 364.346C1082.47 363.44 1085.77 362.448 1088.7 361.37C1091.68 360.292 1094.07 359.214 1095.88 358.136V378.899ZM1079.33 330.841C1079.11 328.642 1078.44 326.378 1077.32 324.049C1076.24 321.678 1074.52 319.543 1072.15 317.646C1069.77 315.748 1066.67 314.196 1062.83 312.989C1058.99 311.738 1054.21 311.113 1048.47 311.113C1043.08 311.113 1038.43 311.781 1034.5 313.118C1030.58 314.455 1027.28 316.115 1024.61 318.099C1021.97 320.082 1019.93 322.217 1018.46 324.502C1016.99 326.787 1016.05 328.9 1015.61 330.841H1079.33ZM1209.66 383.297V333.493C1209.66 330.172 1209.38 327.175 1208.82 324.502C1208.26 321.785 1207.2 319.478 1205.65 317.581C1204.14 315.641 1202 314.153 1199.25 313.118C1196.53 312.04 1193.01 311.501 1188.7 311.501C1185.42 311.501 1181.98 311.954 1178.35 312.859C1174.77 313.722 1171.22 314.886 1167.68 316.352C1164.14 317.818 1160.76 319.522 1157.53 321.462C1154.33 323.402 1151.49 325.429 1148.99 327.542V383.297H1124.99V294.425H1148.99V306.585C1152.01 304.86 1155.22 303.157 1158.63 301.475C1162.03 299.751 1165.65 298.198 1169.49 296.818C1173.33 295.438 1177.4 294.317 1181.72 293.455C1186.03 292.593 1190.58 292.161 1195.36 292.161C1201.36 292.161 1206.7 292.894 1211.41 294.36C1216.15 295.783 1220.16 297.832 1223.44 300.505C1226.71 303.136 1229.21 306.348 1230.94 310.143C1232.71 313.894 1233.59 318.099 1233.59 322.756V383.297H1209.66Z" fill="#3551AB"/>
<path d="M369.013 242.498C368.867 242.644 368.573 242.791 368.427 242.938L162.067 361.684C159.587 363.111 156.547 363.098 154.08 361.671L19.9866 284.071C7.49326 276.871 0 263.644 0 249.404V17.1644C0 3.96441 14.28 -4.27569 25.7066 2.32431L368.427 200.191C368.573 200.191 368.573 200.338 368.72 200.338C384.733 209.738 384.733 232.804 369.013 242.498Z" fill="#3551AB"/>
<path d="M369.013 483.004C368.867 482.858 368.573 482.711 368.427 482.565L162.067 363.818C159.587 362.391 156.547 362.391 154.08 363.818L19.9866 441.431C7.49326 448.631 0 461.845 0 476.098V708.338C0 721.524 14.28 729.778 25.7066 723.178L368.427 525.311C368.573 525.311 368.573 525.165 368.72 525.165C384.733 515.765 384.733 492.698 369.013 483.004Z" fill="#7ED0F3"/>
</svg>
