<svg width="40" height="41" viewBox="0 0 40 41" fill="none" xmlns="http://www.w3.org/2000/svg">
<rect y="0.5" width="40" height="40" rx="20" fill="#01B6F6"/>
<path d="M24.5833 20.4999C25.7988 20.4999 26.9646 20.9828 27.8242 21.8424C28.6837 22.7019 29.1666 23.8677 29.1666 25.0833C29.1666 26.2989 28.6837 27.4646 27.8242 28.3242C26.9646 29.1837 25.7988 29.6666 24.5833 29.6666C23.3677 29.6666 22.2019 29.1837 21.3423 28.3242C20.4828 27.4646 19.9999 26.2989 19.9999 25.0833C19.9999 23.8677 20.4828 22.7019 21.3423 21.8424C22.2019 20.9828 23.3677 20.4999 24.5833 20.4999ZM20.0191 22.1666C19.7696 22.5563 19.571 22.9764 19.4283 23.4166H13.5441C13.3783 23.4166 13.2194 23.4825 13.1021 23.5997C12.9849 23.7169 12.9191 23.8758 12.9191 24.0416V24.5224C12.9191 24.9683 13.0791 25.3999 13.3691 25.7391C14.4133 26.9633 16.0524 27.5841 18.3333 27.5841C18.831 27.5841 19.2977 27.5547 19.7333 27.4958C19.9383 27.9083 20.1941 28.2908 20.4933 28.6349C19.8305 28.7683 19.1105 28.8349 18.3333 28.8349C15.7124 28.8349 13.7233 28.0799 12.4183 26.5516C11.9352 25.9858 11.6699 25.2663 11.6699 24.5224V24.0408C11.6701 23.5438 11.8677 23.0672 12.2191 22.7158C12.5705 22.3644 13.0471 22.1668 13.5441 22.1666H20.0191ZM24.5833 22.1666L24.5083 22.1733C24.425 22.1885 24.3484 22.2287 24.2885 22.2885C24.2287 22.3484 24.1885 22.425 24.1733 22.5083L24.1666 22.5833V24.6666H22.0866L22.0116 24.6733C21.9283 24.6885 21.8517 24.7287 21.7918 24.7885C21.732 24.8484 21.6918 24.925 21.6766 25.0083L21.6699 25.0833L21.6766 25.1583C21.6918 25.2415 21.732 25.3182 21.7918 25.378C21.8517 25.4379 21.9283 25.4781 22.0116 25.4933L22.0866 25.4999H24.1666V27.5833L24.1733 27.6583C24.1885 27.7415 24.2287 27.8182 24.2885 27.878C24.3484 27.9379 24.425 27.9781 24.5083 27.9933L24.5833 27.9999L24.6583 27.9933C24.7415 27.9781 24.8182 27.9379 24.878 27.878C24.9378 27.8182 24.978 27.7415 24.9933 27.6583L24.9999 27.5833V25.4999H27.0866L27.1616 25.4933C27.2448 25.4781 27.3215 25.4379 27.3813 25.378C27.4412 25.3182 27.4814 25.2415 27.4966 25.1583L27.5033 25.0833L27.4966 25.0083C27.4814 24.925 27.4412 24.8484 27.3813 24.7885C27.3215 24.7287 27.2448 24.6885 27.1616 24.6733L27.0866 24.6666H24.9999V22.5833L24.9933 22.5083C24.978 22.425 24.9378 22.3484 24.878 22.2885C24.8182 22.2287 24.7415 22.1885 24.6583 22.1733L24.5833 22.1666ZM18.3333 12.1708C18.8804 12.1708 19.4222 12.2786 19.9278 12.4879C20.4333 12.6973 20.8926 13.0043 21.2795 13.3912C21.6664 13.7781 21.9734 14.2374 22.1828 14.7429C22.3921 15.2485 22.4999 15.7903 22.4999 16.3374C22.4999 16.8846 22.3921 17.4264 22.1828 17.932C21.9734 18.4375 21.6664 18.8968 21.2795 19.2837C20.8926 19.6706 20.4333 19.9775 19.9278 20.1869C19.4222 20.3963 18.8804 20.5041 18.3333 20.5041C17.2282 20.5041 16.1684 20.0651 15.387 19.2837C14.6056 18.5023 14.1666 17.4425 14.1666 16.3374C14.1666 15.2324 14.6056 14.1726 15.387 13.3912C16.1684 12.6098 17.2282 12.1708 18.3333 12.1708ZM18.3333 13.4208C17.9502 13.4208 17.571 13.4962 17.2171 13.6428C16.8632 13.7894 16.5417 14.0042 16.2709 14.275C16 14.5459 15.7852 14.8674 15.6386 15.2213C15.492 15.5751 15.4166 15.9544 15.4166 16.3374C15.4166 16.7205 15.492 17.0997 15.6386 17.4536C15.7852 17.8075 16 18.129 16.2709 18.3998C16.5417 18.6707 16.8632 18.8855 17.2171 19.0321C17.571 19.1787 17.9502 19.2541 18.3333 19.2541C19.1068 19.2541 19.8487 18.9468 20.3956 18.3998C20.9426 17.8529 21.2499 17.111 21.2499 16.3374C21.2499 15.5639 20.9426 14.822 20.3956 14.275C19.8487 13.7281 19.1068 13.4208 18.3333 13.4208Z" fill="white"/>
</svg>
