<svg width="41" height="41" viewBox="0 0 41 41" fill="none" xmlns="http://www.w3.org/2000/svg">
<rect x="0.5" y="0.5" width="40" height="40" rx="20" fill="#FF9C78"/>
<path d="M25.0833 20.4999C26.2988 20.4999 27.4646 20.9828 28.3242 21.8424C29.1837 22.7019 29.6666 23.8677 29.6666 25.0833C29.6666 26.2989 29.1837 27.4646 28.3242 28.3242C27.4646 29.1837 26.2988 29.6666 25.0833 29.6666C23.8677 29.6666 22.7019 29.1837 21.8423 28.3242C20.9828 27.4646 20.4999 26.2989 20.4999 25.0833C20.4999 23.8677 20.9828 22.7019 21.8423 21.8424C22.7019 20.9828 23.8677 20.4999 25.0833 20.4999ZM20.5191 22.1666C20.2696 22.5563 20.071 22.9764 19.9283 23.4166H14.0441C13.8783 23.4166 13.7194 23.4825 13.6021 23.5997C13.4849 23.7169 13.4191 23.8758 13.4191 24.0416V24.5224C13.4191 24.9683 13.5791 25.3999 13.8691 25.7391C14.9133 26.9633 16.5524 27.5841 18.8333 27.5841C19.331 27.5841 19.7977 27.5547 20.2333 27.4958C20.4383 27.9083 20.6941 28.2908 20.9933 28.6349C20.3305 28.7683 19.6105 28.8349 18.8333 28.8349C16.2124 28.8349 14.2233 28.0799 12.9183 26.5516C12.4352 25.9858 12.1699 25.2663 12.1699 24.5224V24.0408C12.1701 23.5438 12.3677 23.0672 12.7191 22.7158C13.0705 22.3644 13.5471 22.1668 14.0441 22.1666H20.5191ZM25.0833 22.1666L25.0083 22.1733C24.925 22.1885 24.8484 22.2287 24.7885 22.2885C24.7287 22.3484 24.6885 22.425 24.6733 22.5083L24.6666 22.5833V24.6666H22.5866L22.5116 24.6733C22.4283 24.6885 22.3517 24.7287 22.2918 24.7885C22.232 24.8484 22.1918 24.925 22.1766 25.0083L22.1699 25.0833L22.1766 25.1583C22.1918 25.2415 22.232 25.3182 22.2918 25.378C22.3517 25.4379 22.4283 25.4781 22.5116 25.4933L22.5866 25.4999H24.6666V27.5833L24.6733 27.6583C24.6885 27.7415 24.7287 27.8182 24.7885 27.878C24.8484 27.9379 24.925 27.9781 25.0083 27.9933L25.0833 27.9999L25.1583 27.9933C25.2415 27.9781 25.3182 27.9379 25.378 27.878C25.4378 27.8182 25.478 27.7415 25.4933 27.6583L25.4999 27.5833V25.4999H27.5866L27.6616 25.4933C27.7448 25.4781 27.8215 25.4379 27.8813 25.378C27.9412 25.3182 27.9814 25.2415 27.9966 25.1583L28.0033 25.0833L27.9966 25.0083C27.9814 24.925 27.9412 24.8484 27.8813 24.7885C27.8215 24.7287 27.7448 24.6885 27.6616 24.6733L27.5866 24.6666H25.4999V22.5833L25.4933 22.5083C25.478 22.425 25.4378 22.3484 25.378 22.2885C25.3182 22.2287 25.2415 22.1885 25.1583 22.1733L25.0833 22.1666ZM18.8333 12.1708C19.3804 12.1708 19.9222 12.2786 20.4278 12.4879C20.9333 12.6973 21.3926 13.0043 21.7795 13.3912C22.1664 13.7781 22.4734 14.2374 22.6828 14.7429C22.8921 15.2485 22.9999 15.7903 22.9999 16.3374C22.9999 16.8846 22.8921 17.4264 22.6828 17.932C22.4734 18.4375 22.1664 18.8968 21.7795 19.2837C21.3926 19.6706 20.9333 19.9775 20.4278 20.1869C19.9222 20.3963 19.3804 20.5041 18.8333 20.5041C17.7282 20.5041 16.6684 20.0651 15.887 19.2837C15.1056 18.5023 14.6666 17.4425 14.6666 16.3374C14.6666 15.2324 15.1056 14.1726 15.887 13.3912C16.6684 12.6098 17.7282 12.1708 18.8333 12.1708ZM18.8333 13.4208C18.4502 13.4208 18.071 13.4962 17.7171 13.6428C17.3632 13.7894 17.0417 14.0042 16.7709 14.275C16.5 14.5459 16.2852 14.8674 16.1386 15.2213C15.992 15.5751 15.9166 15.9544 15.9166 16.3374C15.9166 16.7205 15.992 17.0997 16.1386 17.4536C16.2852 17.8075 16.5 18.129 16.7709 18.3998C17.0417 18.6707 17.3632 18.8855 17.7171 19.0321C18.071 19.1787 18.4502 19.2541 18.8333 19.2541C19.6068 19.2541 20.3487 18.9468 20.8956 18.3998C21.4426 17.8529 21.7499 17.111 21.7499 16.3374C21.7499 15.5639 21.4426 14.822 20.8956 14.275C20.3487 13.7281 19.6068 13.4208 18.8333 13.4208Z" fill="white"/>
</svg>
