<svg width="40" height="41" viewBox="0 0 40 41" fill="none" xmlns="http://www.w3.org/2000/svg">
<rect y="0.5" width="40" height="40" rx="20" fill="#28A87B"/>
<path d="M19.9993 28.8333C20.666 28.8333 21.3327 28.75 21.916 28.5833C21.5827 28.1666 21.2493 27.6666 21.0827 27.0833C20.7493 27.1666 20.3327 27.1666 19.9993 27.1666C16.3327 27.1666 13.3327 24.1666 13.3327 20.5C13.3327 16.8333 16.3327 13.8333 19.9993 13.8333C20.666 13.8333 21.2493 13.9166 21.8327 14.0833L23.166 12.75C22.166 12.4166 21.0827 12.1666 19.9993 12.1666C15.416 12.1666 11.666 15.9166 11.666 20.5C11.666 25.0833 15.416 28.8333 19.9993 28.8333ZM15.416 20.0833L16.5827 18.9166L19.166 21.5L26.3327 14.3333L27.4993 15.5L19.166 23.8333L15.416 20.0833ZM25.8327 22.1666L24.7827 24.4583L22.4993 25.5L24.7827 26.55L25.8327 28.8333L26.8743 26.55L29.166 25.5L26.8743 24.4583L25.8327 22.1666Z" fill="white"/>
</svg>
