<svg width="41" height="41" viewBox="0 0 41 41" fill="none" xmlns="http://www.w3.org/2000/svg">
<rect x="0.5" y="0.5" width="40" height="40" rx="20" fill="#F35A5C"/>
<path d="M11.998 19.0323H17.4124M14.7146 23.5051H19.0602M17.4312 27.9778H20.6892" stroke="white" stroke-width="1.69492" stroke-linecap="round" stroke-linejoin="round"/>
<path fill-rule="evenodd" clip-rule="evenodd" d="M24.2395 23.5051C24.9196 23.5051 25.593 23.3711 26.2214 23.1108C26.8497 22.8506 27.4206 22.4691 27.9015 21.9882C28.3824 21.5073 28.7639 20.9364 29.0242 20.308C29.2844 19.6797 29.4184 19.0062 29.4184 18.3261C29.4184 17.646 29.2844 16.9726 29.0242 16.3442C28.7639 15.7159 28.3824 15.145 27.9015 14.6641C27.4206 14.1832 26.8497 13.8017 26.2214 13.5414C25.593 13.2812 24.9196 13.1472 24.2395 13.1472C22.8659 13.1472 21.5487 13.6929 20.5774 14.6641C19.6062 15.6353 19.0605 16.9526 19.0605 18.3261C19.0605 19.6997 19.6062 21.017 20.5774 21.9882C21.5487 22.9594 22.8659 23.5051 24.2395 23.5051ZM22.0248 16.1114C22.1131 16.0232 22.2328 15.9736 22.3576 15.9736C22.4825 15.9736 22.6022 16.0232 22.6905 16.1114L24.2395 17.6604L25.7884 16.1114C25.8319 16.0665 25.8838 16.0306 25.9413 16.0059C25.9987 15.9813 26.0605 15.9683 26.123 15.9677C26.1855 15.9672 26.2475 15.9791 26.3054 16.0028C26.3632 16.0264 26.4158 16.0614 26.46 16.1056C26.5042 16.1498 26.5392 16.2024 26.5628 16.2602C26.5865 16.3181 26.5984 16.3801 26.5979 16.4426C26.5973 16.5051 26.5843 16.5669 26.5597 16.6243C26.535 16.6818 26.4991 16.7337 26.4542 16.7772L24.9052 18.3261L26.4542 19.8751C26.5399 19.9639 26.5874 20.0828 26.5863 20.2063C26.5852 20.3297 26.5357 20.4478 26.4484 20.5351C26.3611 20.6224 26.243 20.6719 26.1196 20.673C25.9962 20.674 25.8772 20.6266 25.7884 20.5408L24.2395 18.9919L22.6905 20.5408C22.6017 20.6266 22.4828 20.674 22.3593 20.673C22.2359 20.6719 22.1178 20.6224 22.0305 20.5351C21.9432 20.4478 21.8937 20.3297 21.8926 20.2063C21.8916 20.0828 21.939 19.9639 22.0248 19.8751L23.5737 18.3261L22.0248 16.7772C21.9365 16.6889 21.8869 16.5691 21.8869 16.4443C21.8869 16.3195 21.9365 16.1997 22.0248 16.1114Z" fill="white"/>
</svg>
