<svg width="41" height="41" viewBox="0 0 41 41" fill="none" xmlns="http://www.w3.org/2000/svg">
<rect x="0.5" y="0.5" width="40" height="40" rx="20" fill="#01CDAC"/>
<path d="M26.3457 12.1666C26.843 12.1666 27.3199 12.3642 27.6715 12.7158C28.0231 13.0674 28.2207 13.5443 28.2207 14.0416V18.5933C28.2206 19.3116 27.9353 20.0004 27.4273 20.5083L27.4057 20.53C27.0335 20.2897 26.6333 20.0961 26.214 19.9533L26.5432 19.6241C26.8167 19.3508 26.9705 18.98 26.9707 18.5933V14.0416C26.9707 13.8759 26.9048 13.7169 26.7876 13.5997C26.6704 13.4825 26.5114 13.4166 26.3457 13.4166H21.7907C21.404 13.4166 21.0323 13.5708 20.759 13.8441L13.6657 20.9466C13.3971 21.2213 13.2478 21.5909 13.2501 21.975C13.2525 22.3592 13.4063 22.7269 13.6782 22.9983L17.3957 26.71C17.6498 26.9629 17.9879 27.1136 18.3459 27.1336C18.7039 27.1536 19.0567 27.0414 19.3373 26.8183C19.4757 27.225 19.6573 27.6069 19.8823 27.9641C19.3622 28.2942 18.7453 28.4374 18.133 28.3703C17.5207 28.3032 16.9495 28.0298 16.5132 27.595L12.7948 23.8833C12.2865 23.3758 12.0006 22.6872 12 21.969C11.9994 21.2507 12.2841 20.5616 12.7915 20.0533L19.8748 12.9616C20.1264 12.7098 20.4252 12.51 20.7541 12.3737C21.083 12.2375 21.4355 12.1674 21.7915 12.1675L26.3457 12.1666ZM24.054 15.085C24.2182 15.085 24.3807 15.1173 24.5324 15.1801C24.684 15.2429 24.8218 15.335 24.9379 15.4511C25.054 15.5671 25.146 15.7049 25.2089 15.8566C25.2717 16.0083 25.304 16.1708 25.304 16.335C25.304 16.4991 25.2717 16.6617 25.2089 16.8133C25.146 16.965 25.054 17.1028 24.9379 17.2188C24.8218 17.3349 24.684 17.427 24.5324 17.4898C24.3807 17.5526 24.2182 17.585 24.054 17.585C23.7225 17.585 23.4045 17.4533 23.1701 17.2188C22.9357 16.9844 22.804 16.6665 22.804 16.335C22.804 16.0034 22.9357 15.6855 23.1701 15.4511C23.4045 15.2167 23.7225 15.085 24.054 15.085ZM29.054 25.0833C29.054 23.8677 28.5711 22.7019 27.7116 21.8424C26.852 20.9828 25.6862 20.5 24.4707 20.5C23.2551 20.5 22.0893 20.9828 21.2298 21.8424C20.3702 22.7019 19.8873 23.8677 19.8873 25.0833C19.8873 26.2989 20.3702 27.4647 21.2298 28.3242C22.0893 29.1837 23.2551 29.6666 24.4707 29.6666C25.6862 29.6666 26.852 29.1837 27.7116 28.3242C28.5711 27.4647 29.054 26.2989 29.054 25.0833ZM23.9498 27.5875C23.9498 27.4493 24.0047 27.3168 24.1024 27.2192C24.2001 27.1215 24.3325 27.0666 24.4707 27.0666C24.6088 27.0666 24.7413 27.1215 24.839 27.2192C24.9366 27.3168 24.9915 27.4493 24.9915 27.5875C24.9915 27.7256 24.9366 27.8581 24.839 27.9557C24.7413 28.0534 24.6088 28.1083 24.4707 28.1083C24.3325 28.1083 24.2001 28.0534 24.1024 27.9557C24.0047 27.8581 23.9498 27.7256 23.9498 27.5875ZM22.9257 23.7975C22.9173 22.85 23.5973 22.1691 24.4707 22.1691C25.329 22.1691 26.0148 22.8741 26.0148 23.7941C26.0148 24.2658 25.8607 24.555 25.4623 25L25.2407 25.2416L25.1573 25.3383C24.9507 25.5816 24.8873 25.7233 24.8873 25.9175C24.8873 26.028 24.8434 26.1339 24.7653 26.2121C24.6872 26.2902 24.5812 26.3341 24.4707 26.3341C24.3602 26.3341 24.2542 26.2902 24.176 26.2121C24.0979 26.1339 24.054 26.028 24.054 25.9175C24.054 25.4375 24.2098 25.1458 24.6123 24.6941L24.834 24.4525L24.9173 24.3583C25.119 24.12 25.1815 23.9808 25.1815 23.7941C25.1815 23.3291 24.8648 23.0025 24.4707 23.0025C24.059 23.0025 23.754 23.3075 23.759 23.79C23.7601 23.9005 23.7173 24.0069 23.6399 24.0858C23.5626 24.1647 23.457 24.2097 23.3465 24.2108C23.236 24.2119 23.1296 24.1691 23.0507 24.0917C22.9717 24.0143 22.9268 23.9088 22.9257 23.7983" fill="white"/>
</svg>
