<svg width="40" height="41" viewBox="0 0 40 41" fill="none" xmlns="http://www.w3.org/2000/svg">
<rect y="0.5" width="40" height="40" rx="20" fill="#32588D"/>
<path d="M23.4375 16.5938V15.6562C23.4375 15.5703 23.3672 15.5 23.2812 15.5H15.7812C15.6953 15.5 15.625 15.5703 15.625 15.6562V16.5938C15.625 16.6797 15.6953 16.75 15.7812 16.75H23.2812C23.3672 16.75 23.4375 16.6797 23.4375 16.5938ZM15.7812 18.3125C15.6953 18.3125 15.625 18.3828 15.625 18.4688V19.4062C15.625 19.4922 15.6953 19.5625 15.7812 19.5625H19.375C19.4609 19.5625 19.5312 19.4922 19.5312 19.4062V18.4688C19.5312 18.3828 19.4609 18.3125 19.375 18.3125H15.7812ZM23.125 20.5781C20.7949 20.5781 18.9062 22.4668 18.9062 24.7969C18.9062 27.127 20.7949 29.0156 23.125 29.0156C25.4551 29.0156 27.3438 27.127 27.3438 24.7969C27.3438 22.4668 25.4551 20.5781 23.125 20.5781ZM25.2246 26.8965C24.6641 27.457 23.918 27.7656 23.125 27.7656C22.332 27.7656 21.5859 27.457 21.0254 26.8965C20.4648 26.3359 20.1562 25.5898 20.1562 24.7969C20.1562 24.0039 20.4648 23.2578 21.0254 22.6973C21.5859 22.1367 22.332 21.8281 23.125 21.8281C23.918 21.8281 24.6641 22.1367 25.2246 22.6973C25.7852 23.2578 26.0938 24.0039 26.0938 24.7969C26.0938 25.5898 25.7852 26.3359 25.2246 26.8965ZM24.8633 23.3125H23.998C23.9473 23.3125 23.9004 23.3359 23.8711 23.377L22.6309 25.0918L22.1797 24.4688C22.1652 24.4486 22.1462 24.4323 22.1241 24.421C22.102 24.4098 22.0775 24.4041 22.0527 24.4043H21.1914C21.0645 24.4043 20.9902 24.5488 21.0645 24.6523L22.5059 26.6465C22.5684 26.7324 22.6953 26.7324 22.7578 26.6465L24.9883 23.5605C25.0645 23.457 24.9902 23.3125 24.8633 23.3125ZM18.5938 27.1406H14.0625V13.3906H25V20.1094C25 20.1953 25.0703 20.2656 25.1562 20.2656H26.25C26.3359 20.2656 26.4062 20.1953 26.4062 20.1094V12.6094C26.4062 12.2637 26.127 11.9844 25.7812 11.9844H13.2812C12.9355 11.9844 12.6562 12.2637 12.6562 12.6094V27.9219C12.6562 28.2676 12.9355 28.5469 13.2812 28.5469H18.5938C18.6797 28.5469 18.75 28.4766 18.75 28.3906V27.2969C18.75 27.2109 18.6797 27.1406 18.5938 27.1406Z" fill="white"/>
</svg>
