<svg width="40" height="41" viewBox="0 0 40 41" fill="none" xmlns="http://www.w3.org/2000/svg">
<rect y="0.5" width="40" height="40" rx="20" fill="#6F34FF"/>
<path d="M26.25 19.1426V26.75C26.25 27.2473 26.0525 27.7242 25.7008 28.0758C25.3492 28.4275 24.8723 28.625 24.375 28.625H15.625C15.1277 28.625 14.6508 28.4275 14.2992 28.0758C13.9475 27.7242 13.75 27.2473 13.75 26.75V14.25C13.75 13.7527 13.9475 13.2758 14.2992 12.9242C14.6508 12.5725 15.1277 12.375 15.625 12.375H19.4824C19.8138 12.3751 20.1316 12.5067 20.366 12.741L25.884 18.259C26.1183 18.4934 26.2499 18.8112 26.25 19.1426Z" stroke="white" stroke-width="1.2" stroke-linejoin="round"/>
<path d="M20 12.6875V17.375C20 17.7065 20.1317 18.0245 20.3661 18.2589C20.6005 18.4933 20.9185 18.625 21.25 18.625H25.9375M16.875 21.75H23.125M16.875 24.875H23.125" stroke="white" stroke-width="1.2" stroke-linecap="round" stroke-linejoin="round"/>
</svg>
