<svg width="41" height="41" viewBox="0 0 41 41" fill="none" xmlns="http://www.w3.org/2000/svg">
<rect x="0.5" y="0.5" width="40" height="40" rx="20" fill="#F3BE2E"/>
<path d="M24.6673 20.5C22.3673 20.5 20.5007 22.3667 20.5007 24.6667C20.5007 26.9667 22.3673 28.8334 24.6673 28.8334C26.9673 28.8334 28.834 26.9667 28.834 24.6667C28.834 22.3667 26.9673 20.5 24.6673 20.5ZM26.0423 26.625L24.2507 24.8334V22.1667H25.084V24.4917L26.6257 26.0334L26.0423 26.625ZM25.5007 13H22.8507C22.5007 12.0334 21.584 11.3334 20.5007 11.3334C19.4173 11.3334 18.5007 12.0334 18.1507 13H15.5007C14.584 13 13.834 13.75 13.834 14.6667V27.1667C13.834 28.0834 14.584 28.8334 15.5007 28.8334H20.5923C20.0987 28.3554 19.6975 27.7903 19.409 27.1667H15.5007V14.6667H17.1673V17.1667H23.834V14.6667H25.5007V18.9C26.0923 18.9834 26.6507 19.1584 27.1673 19.4V14.6667C27.1673 13.75 26.4173 13 25.5007 13ZM20.5007 14.6667C20.0423 14.6667 19.6673 14.2917 19.6673 13.8334C19.6673 13.375 20.0423 13 20.5007 13C20.959 13 21.334 13.375 21.334 13.8334C21.334 14.2917 20.959 14.6667 20.5007 14.6667Z" fill="white"/>
</svg>
