<svg width="18" height="18" viewBox="0 0 18 18" fill="none" xmlns="http://www.w3.org/2000/svg">
<path d="M14.1481 9.00025L15.4339 7.71358C16.1165 7.03098 16.5 6.10518 16.5 5.13983C16.5 4.17449 16.1165 3.24868 15.4339 2.56608C14.7513 1.88348 13.8255 1.5 12.8602 1.5C11.8948 1.5 10.969 1.88348 10.2864 2.56608L2.56559 10.2869C1.89378 10.9717 1.51949 11.8941 1.52409 12.8534C1.5287 13.8127 1.91183 14.7315 2.59018 15.4098C3.26853 16.0882 4.18725 16.4713 5.14657 16.4759C6.1059 16.4805 7.02825 16.1062 7.71309 15.4344L10.6081 12.5386C11.0204 12.1091 11.2479 11.5352 11.2418 10.9399C11.2358 10.3446 10.9966 9.77535 10.5756 9.35439C10.1546 8.93343 9.58545 8.69425 8.99014 8.68818C8.39484 8.6821 7.82088 8.90962 7.39142 9.32191L5.78309 10.9302" stroke="#4A4A4A" stroke-width="1.6" stroke-linecap="round" stroke-linejoin="round"/>
</svg>
