<svg width="16" height="16" viewBox="0 0 16 16" fill="none" xmlns="http://www.w3.org/2000/svg">
<g clip-path="url(#clip0_2242_619)">
<path fill-rule="evenodd" clip-rule="evenodd" d="M13.9916 4.40243C13.9972 4.45193 14 4.50194 14 4.55224V14C14 14.7363 13.403 15.3333 12.6667 15.3333H3.33333C2.59695 15.3333 2 14.7363 2 14V1.99996C2 1.26358 2.59695 0.666626 3.33333 0.666626H10.1144C10.1647 0.666626 10.2147 0.669469 10.2642 0.675065C10.2999 0.669509 10.3365 0.666626 10.3738 0.666626C10.5613 0.666626 10.7412 0.741125 10.8738 0.873733L11.0568 1.05681C11.0567 1.05669 11.057 1.05692 11.0568 1.05681L13.6095 3.60944C13.6097 3.60962 13.6098 3.60981 13.61 3.60999L13.7929 3.79285C13.9255 3.92546 14 4.10532 14 4.29285C14 4.33012 13.9971 4.36672 13.9916 4.40243ZM13.3333 4.99882V14C13.3333 14.3682 13.0349 14.6666 12.6667 14.6666H3.33333C2.96514 14.6666 2.66667 14.3682 2.66667 14V1.99996C2.66667 1.63177 2.96514 1.33329 3.33333 1.33329H9.6678C9.66705 1.34668 9.66667 1.36016 9.66667 1.37373V2.99996C9.66667 4.10453 10.5621 4.99996 11.6667 4.99996H13.2929C13.3065 4.99996 13.3199 4.99958 13.3333 4.99882ZM13.1381 4.08084C13.2098 4.15262 13.2636 4.23907 13.2963 4.33315C13.2952 4.33325 13.294 4.33329 13.2929 4.33329H11.6667C10.9303 4.33329 10.3333 3.73634 10.3333 2.99996V1.37373C10.3333 1.37258 10.3334 1.37145 10.3335 1.37032C10.4275 1.40303 10.5138 1.45667 10.5856 1.52834C10.5855 1.52827 10.5856 1.52841 10.5856 1.52834L13.1381 4.08084Z" fill="#5B5B5B"/>
<rect x="0.666992" y="6" width="14.6667" height="8" fill="#EC1C24"/>
<path d="M13.4365 10.7038H11.4053V12.6667H10.4873V7.92712H13.6904V8.67257H11.4053V9.96163H13.4365V10.7038Z" fill="white"/>
<path d="M6.40527 12.6667V7.92712H7.63249C7.85167 7.92712 8.05675 7.95425 8.24772 8.0085C8.43869 8.06059 8.6123 8.13546 8.76855 8.23311C8.90527 8.31341 9.0268 8.41215 9.13314 8.52934C9.24165 8.64435 9.33605 8.77022 9.41634 8.90694C9.50966 9.07404 9.58127 9.2585 9.63119 9.46033C9.68327 9.66215 9.70931 9.87699 9.70931 10.1049V10.4955C9.70931 10.7147 9.68544 10.9219 9.6377 11.1172C9.58995 11.3125 9.52268 11.4916 9.43587 11.6543C9.35341 11.7997 9.25684 11.9343 9.14616 12.058C9.03548 12.1795 8.91395 12.2815 8.78158 12.364C8.6275 12.4616 8.45714 12.5365 8.27051 12.5886C8.08605 12.6407 7.88856 12.6667 7.67806 12.6667H6.40527ZM7.3265 8.66931V11.931H7.67806C7.79091 11.931 7.89616 11.9169 7.99382 11.8887C8.09147 11.8605 8.18045 11.8193 8.26074 11.765C8.34321 11.7086 8.41699 11.637 8.4821 11.5502C8.54937 11.4612 8.60688 11.3581 8.65462 11.2409C8.69369 11.1389 8.72298 11.0261 8.74251 10.9024C8.76421 10.7765 8.77507 10.6409 8.77507 10.4955V10.0983C8.77507 9.96163 8.76421 9.83251 8.74251 9.71098C8.72298 9.58728 8.69369 9.47443 8.65462 9.37244C8.60688 9.25091 8.54395 9.1424 8.46582 9.04692C8.38987 8.95143 8.30089 8.8733 8.19889 8.81254C8.12077 8.76697 8.03396 8.73225 7.93848 8.70837C7.84516 8.68233 7.74316 8.66931 7.63249 8.66931H7.3265Z" fill="white"/>
<path d="M3.39421 10.9284V12.6667H2.47949V7.92712H4.10059C4.35883 7.92712 4.59212 7.9651 4.80046 8.04106C5.00879 8.11484 5.18674 8.21792 5.33431 8.3503C5.47971 8.48485 5.59147 8.64544 5.6696 8.83207C5.74989 9.0187 5.79004 9.22595 5.79004 9.45382C5.79004 9.66649 5.74989 9.86289 5.6696 10.043C5.59147 10.2231 5.47971 10.3783 5.33431 10.5085C5.18674 10.6409 5.00879 10.744 4.80046 10.8177C4.59212 10.8915 4.35883 10.9284 4.10059 10.9284H3.39421ZM3.39421 10.1862H4.10059C4.23079 10.1862 4.34364 10.1667 4.43913 10.1276C4.53461 10.0886 4.61491 10.0354 4.68001 9.96814C4.74295 9.90087 4.7896 9.82383 4.81999 9.73702C4.85254 9.64804 4.86881 9.55581 4.86881 9.46033C4.86881 9.34965 4.85254 9.24657 4.81999 9.15108C4.7896 9.0556 4.74295 8.97205 4.68001 8.90043C4.61491 8.82882 4.53461 8.77239 4.43913 8.73116C4.34364 8.68993 4.23079 8.66931 4.10059 8.66931H3.39421V10.1862Z" fill="white"/>
</g>
<defs>
<clipPath id="clip0_2242_619">
<rect width="16" height="16" fill="white"/>
</clipPath>
</defs>
</svg>
