<svg width="16" height="16" viewBox="0 0 16 16" fill="none" xmlns="http://www.w3.org/2000/svg">
<g clip-path="url(#clip0_2242_665)">
<path fill-rule="evenodd" clip-rule="evenodd" d="M13.9916 4.40243C13.9972 4.45193 14 4.50194 14 4.55224V14C14 14.7363 13.403 15.3333 12.6667 15.3333H3.33333C2.59695 15.3333 2 14.7363 2 14V1.99996C2 1.26358 2.59695 0.666626 3.33333 0.666626H10.1144C10.1647 0.666626 10.2147 0.669469 10.2642 0.675065C10.2999 0.669509 10.3365 0.666626 10.3738 0.666626C10.5613 0.666626 10.7412 0.741125 10.8738 0.873733L11.0568 1.05681C11.0567 1.05669 11.057 1.05692 11.0568 1.05681L13.6095 3.60944C13.6097 3.60962 13.6098 3.60981 13.61 3.60999L13.7929 3.79285C13.9255 3.92546 14 4.10532 14 4.29285C14 4.33012 13.9971 4.36672 13.9916 4.40243ZM13.3333 4.99882V14C13.3333 14.3682 13.0349 14.6666 12.6667 14.6666H3.33333C2.96514 14.6666 2.66667 14.3682 2.66667 14V1.99996C2.66667 1.63177 2.96514 1.33329 3.33333 1.33329H9.6678C9.66705 1.34668 9.66667 1.36016 9.66667 1.37373V2.99996C9.66667 4.10453 10.5621 4.99996 11.6667 4.99996H13.2929C13.3065 4.99996 13.3199 4.99958 13.3333 4.99882ZM13.1381 4.08084C13.2098 4.15262 13.2636 4.23907 13.2963 4.33315C13.2952 4.33325 13.294 4.33329 13.2929 4.33329H11.6667C10.9303 4.33329 10.3333 3.73634 10.3333 2.99996V1.37373C10.3333 1.37258 10.3334 1.37145 10.3335 1.37032C10.4275 1.40303 10.5138 1.45667 10.5856 1.52834C10.5855 1.52827 10.5856 1.52841 10.5856 1.52834L13.1381 4.08084Z" fill="#5B5B5B"/>
<rect x="0.666992" y="6" width="14.6667" height="8" fill="#D24726"/>
<path d="M12.8281 9.56775L13.5026 8.20837H14.362L13.2943 10.0886L14.388 12H13.5339L12.8385 10.6198L12.1458 12H11.2812L12.375 10.0886L11.3099 8.20837H12.1641L12.8281 9.56775Z" fill="white"/>
<path d="M11.1276 8.80473H9.95833V12H9.22396V8.80473H8.07031V8.20837H11.1276V8.80473Z" fill="white"/>
<path d="M5.91634 10.6094V12H5.18457V8.20837H6.48145C6.68804 8.20837 6.87467 8.23876 7.04134 8.29952C7.20801 8.35855 7.35037 8.44101 7.46842 8.54692C7.58474 8.65455 7.67415 8.78303 7.73665 8.93233C7.80089 9.08164 7.83301 9.24744 7.83301 9.42973C7.83301 9.59987 7.80089 9.75699 7.73665 9.90108C7.67415 10.0452 7.58474 10.1693 7.46842 10.2735C7.35037 10.3794 7.20801 10.4618 7.04134 10.5209C6.87467 10.5799 6.68804 10.6094 6.48145 10.6094H5.91634ZM5.91634 10.0157H6.48145C6.58561 10.0157 6.67589 10 6.75228 9.96879C6.82867 9.93754 6.8929 9.89501 6.94499 9.84119C6.99533 9.78737 7.03266 9.72574 7.05697 9.65629C7.08301 9.58511 7.09603 9.51133 7.09603 9.43494C7.09603 9.3464 7.08301 9.26393 7.05697 9.18754C7.03266 9.11115 6.99533 9.04431 6.94499 8.98702C6.8929 8.92973 6.82867 8.88459 6.75228 8.8516C6.67589 8.81862 6.58561 8.80212 6.48145 8.80212H5.91634V10.0157Z" fill="white"/>
<path d="M2.71322 10.6094V12H1.98145V8.20837H3.27832C3.48492 8.20837 3.67155 8.23876 3.83822 8.29952C4.00488 8.35855 4.14724 8.44101 4.2653 8.54692C4.38162 8.65455 4.47103 8.78303 4.53353 8.93233C4.59776 9.08164 4.62988 9.24744 4.62988 9.42973C4.62988 9.59987 4.59776 9.75699 4.53353 9.90108C4.47103 10.0452 4.38162 10.1693 4.2653 10.2735C4.14724 10.3794 4.00488 10.4618 3.83822 10.5209C3.67155 10.5799 3.48492 10.6094 3.27832 10.6094H2.71322ZM2.71322 10.0157H3.27832C3.38249 10.0157 3.47276 10 3.54915 9.96879C3.62554 9.93754 3.68978 9.89501 3.74186 9.84119C3.79221 9.78737 3.82954 9.72574 3.85384 9.65629C3.87988 9.58511 3.8929 9.51133 3.8929 9.43494C3.8929 9.3464 3.87988 9.26393 3.85384 9.18754C3.82954 9.11115 3.79221 9.04431 3.74186 8.98702C3.68978 8.92973 3.62554 8.88459 3.54915 8.8516C3.47276 8.81862 3.38249 8.80212 3.27832 8.80212H2.71322V10.0157Z" fill="white"/>
</g>
<defs>
<clipPath id="clip0_2242_665">
<rect width="16" height="16" fill="white"/>
</clipPath>
</defs>
</svg>
