<svg width="16" height="16" viewBox="0 0 16 16" fill="none" xmlns="http://www.w3.org/2000/svg">
<g clip-path="url(#clip0_2242_753)">
<path fill-rule="evenodd" clip-rule="evenodd" d="M13.9916 4.40243C13.9972 4.45193 14 4.50194 14 4.55224V14C14 14.7363 13.403 15.3333 12.6667 15.3333H3.33333C2.59695 15.3333 2 14.7363 2 14V1.99996C2 1.26358 2.59695 0.666626 3.33333 0.666626H10.1144C10.1647 0.666626 10.2147 0.669469 10.2642 0.675065C10.2999 0.669509 10.3365 0.666626 10.3738 0.666626C10.5613 0.666626 10.7412 0.741125 10.8738 0.873733L11.0568 1.05681C11.0567 1.05669 11.057 1.05692 11.0568 1.05681L13.6095 3.60944C13.6097 3.60962 13.6098 3.60981 13.61 3.60999L13.7929 3.79285C13.9255 3.92546 14 4.10532 14 4.29285C14 4.33012 13.9971 4.36672 13.9916 4.40243ZM13.3333 4.99882V14C13.3333 14.3682 13.0349 14.6666 12.6667 14.6666H3.33333C2.96514 14.6666 2.66667 14.3682 2.66667 14V1.99996C2.66667 1.63177 2.96514 1.33329 3.33333 1.33329H9.6678C9.66705 1.34668 9.66667 1.36016 9.66667 1.37373V2.99996C9.66667 4.10453 10.5621 4.99996 11.6667 4.99996H13.2929C13.3065 4.99996 13.3199 4.99958 13.3333 4.99882ZM13.1381 4.08084C13.2098 4.15262 13.2636 4.23907 13.2963 4.33315C13.2952 4.33325 13.294 4.33329 13.2929 4.33329H11.6667C10.9303 4.33329 10.3333 3.73634 10.3333 2.99996V1.37373C10.3333 1.37258 10.3334 1.37145 10.3335 1.37032C10.4275 1.40303 10.5138 1.45667 10.5856 1.52834C10.5855 1.52827 10.5856 1.52841 10.5856 1.52834L13.1381 4.08084Z" fill="#5B5B5B"/>
<rect x="0.666992" y="6" width="14.6667" height="8" fill="#2B579A"/>
<path d="M13.7201 11.1823C13.7049 11.421 13.6528 11.6359 13.5638 11.8269C13.477 12.0178 13.3598 12.1806 13.2122 12.3151C13.0647 12.4497 12.8889 12.5539 12.6849 12.6276C12.4809 12.6993 12.2552 12.7351 12.0078 12.7351C11.8125 12.7351 11.6313 12.7101 11.4642 12.6602C11.2993 12.6081 11.1506 12.5343 11.0182 12.4388C10.8967 12.3499 10.7882 12.2424 10.6927 12.1166C10.5994 11.9907 10.5202 11.8518 10.4551 11.6999C10.3921 11.548 10.3433 11.3809 10.3086 11.1986C10.276 11.0163 10.2598 10.8232 10.2598 10.6192V9.98116C10.2598 9.79019 10.275 9.60898 10.3053 9.43754C10.3357 9.26393 10.3813 9.10334 10.4421 8.95577C10.5115 8.77565 10.6026 8.61506 10.7155 8.474C10.8283 8.33294 10.9564 8.21358 11.0996 8.11593C11.2276 8.03346 11.3676 7.97053 11.5195 7.92712C11.6736 7.88155 11.8385 7.85876 12.0143 7.85876C12.2747 7.85876 12.5059 7.89566 12.7077 7.96944C12.9117 8.04323 13.0853 8.14848 13.2285 8.2852C13.3717 8.42192 13.4846 8.58902 13.5671 8.7865C13.6495 8.98398 13.7016 9.20642 13.7233 9.45382H12.8118C12.8032 9.31276 12.7815 9.18906 12.7467 9.08272C12.7142 8.97639 12.6665 8.88741 12.6035 8.8158C12.5384 8.74635 12.457 8.69427 12.3594 8.65955C12.2639 8.62265 12.1489 8.60421 12.0143 8.60421C11.9427 8.60421 11.8754 8.6118 11.8125 8.62699C11.7517 8.64218 11.6953 8.66497 11.6432 8.69535C11.5543 8.74744 11.4783 8.82231 11.4154 8.91996C11.3546 9.01545 11.3058 9.12721 11.2689 9.25525C11.2407 9.35508 11.2201 9.46575 11.207 9.58728C11.194 9.70664 11.1875 9.83576 11.1875 9.97465V10.6192C11.1875 10.808 11.1973 10.9773 11.2168 11.127C11.2385 11.2746 11.2711 11.4037 11.3145 11.5144C11.3448 11.5903 11.3806 11.6576 11.4219 11.7162C11.4653 11.7748 11.5141 11.8236 11.5684 11.8627C11.627 11.9061 11.6921 11.9386 11.7637 11.9603C11.8375 11.9799 11.9188 11.9896 12.0078 11.9896C12.1272 11.9896 12.2346 11.9744 12.3301 11.9441C12.4256 11.9137 12.5069 11.8659 12.5742 11.8008C12.6415 11.7357 12.6947 11.6522 12.7337 11.5502C12.7728 11.4482 12.7967 11.3256 12.8053 11.1823H13.7201Z" fill="white"/>
<path d="M9.7321 10.6453C9.7321 10.8493 9.71365 11.0435 9.67676 11.2279C9.63987 11.4102 9.5867 11.5795 9.51725 11.7358C9.44347 11.892 9.35232 12.0352 9.24381 12.1654C9.13531 12.2957 9.01161 12.4042 8.87272 12.491C8.74685 12.5669 8.60796 12.6255 8.45605 12.6667C8.30631 12.7102 8.14464 12.7319 7.97103 12.7319C7.78657 12.7319 7.61621 12.708 7.45996 12.6602C7.30371 12.6125 7.16157 12.5452 7.03353 12.4584C6.90766 12.3673 6.79481 12.2577 6.69499 12.1296C6.59516 11.9994 6.51161 11.8529 6.44434 11.6902C6.38357 11.5404 6.33691 11.3777 6.30436 11.2019C6.27398 11.0261 6.25879 10.8406 6.25879 10.6453V9.95516C6.25879 9.74683 6.27615 9.54934 6.31087 9.36271C6.34776 9.17608 6.40093 9.00355 6.47038 8.84513C6.53765 8.69539 6.61903 8.55976 6.71452 8.43823C6.81217 8.3167 6.92394 8.21254 7.0498 8.12573C7.1735 8.0411 7.31239 7.97599 7.46647 7.93042C7.62055 7.88485 7.78765 7.86206 7.96777 7.86206C8.15006 7.86206 8.32042 7.88593 8.47884 7.93368C8.63943 7.97925 8.78375 8.04544 8.91178 8.13224C9.03982 8.21471 9.15158 8.31453 9.24707 8.43172C9.34473 8.54891 9.42828 8.67803 9.49772 8.81909C9.57368 8.97968 9.63118 9.15546 9.67025 9.34644C9.71148 9.53741 9.7321 9.74032 9.7321 9.95516V10.6453ZM8.80436 9.94865C8.80436 9.82712 8.79785 9.7121 8.78483 9.6036C8.77398 9.49292 8.75553 9.39092 8.72949 9.29761C8.69694 9.18042 8.65354 9.07625 8.59928 8.98511C8.54503 8.89179 8.48101 8.81584 8.40723 8.75724C8.34863 8.71384 8.28244 8.6802 8.20866 8.65633C8.13704 8.63246 8.05675 8.62052 7.96777 8.62052C7.88314 8.62052 7.8061 8.63137 7.73665 8.65308C7.66938 8.67478 7.60862 8.70624 7.55436 8.74748C7.48058 8.80824 7.41764 8.8842 7.36556 8.97534C7.31565 9.06649 7.27658 9.17282 7.24837 9.29435C7.22667 9.38767 7.21039 9.48966 7.19954 9.60034C7.19086 9.71102 7.18652 9.82712 7.18652 9.94865V10.6453C7.18652 10.7603 7.19086 10.871 7.19954 10.9773C7.20822 11.0836 7.22342 11.1824 7.24512 11.2735C7.26899 11.3885 7.30371 11.4938 7.34928 11.5893C7.39703 11.6826 7.45237 11.7585 7.5153 11.8171C7.57389 11.8692 7.64008 11.9094 7.71387 11.9376C7.78982 11.9658 7.87554 11.9799 7.97103 11.9799C8.06217 11.9799 8.14572 11.9669 8.22168 11.9408C8.29763 11.9148 8.36491 11.8768 8.4235 11.8269C8.49729 11.7661 8.55914 11.6902 8.60905 11.599C8.66113 11.5057 8.70237 11.4005 8.73275 11.2833C8.75662 11.1921 8.77398 11.0923 8.78483 10.9838C8.79785 10.8753 8.80436 10.7625 8.80436 10.6453V9.94865Z" fill="white"/>
<path d="M2.40137 12.6667V7.92712H3.62858C3.84776 7.92712 4.05284 7.95425 4.24381 8.0085C4.43479 8.06059 4.6084 8.13546 4.76465 8.23311C4.90137 8.31341 5.02289 8.41215 5.12923 8.52934C5.23774 8.64435 5.33214 8.77022 5.41243 8.90694C5.50575 9.07404 5.57737 9.2585 5.62728 9.46033C5.67936 9.66215 5.7054 9.87699 5.7054 10.1049V10.4955C5.7054 10.7147 5.68153 10.9219 5.63379 11.1172C5.58605 11.3125 5.51877 11.4916 5.43197 11.6543C5.3495 11.7997 5.25293 11.9343 5.14225 12.058C5.03158 12.1795 4.91005 12.2815 4.77767 12.364C4.62359 12.4616 4.45323 12.5365 4.2666 12.5886C4.08214 12.6407 3.88466 12.6667 3.67415 12.6667H2.40137ZM3.32259 8.66931V11.931H3.67415C3.787 11.931 3.89225 11.9169 3.98991 11.8887C4.08756 11.8605 4.17654 11.8193 4.25684 11.765C4.3393 11.7086 4.41309 11.637 4.47819 11.5502C4.54546 11.4612 4.60297 11.3581 4.65072 11.2409C4.68978 11.1389 4.71908 11.0261 4.73861 10.9024C4.76031 10.7765 4.77116 10.6409 4.77116 10.4955V10.0983C4.77116 9.96163 4.76031 9.83251 4.73861 9.71098C4.71908 9.58728 4.68978 9.47443 4.65072 9.37244C4.60297 9.25091 4.54004 9.1424 4.46191 9.04692C4.38596 8.95143 4.29698 8.8733 4.19499 8.81254C4.11686 8.76697 4.03006 8.73225 3.93457 8.70837C3.84125 8.68233 3.73926 8.66931 3.62858 8.66931H3.32259Z" fill="white"/>
</g>
<defs>
<clipPath id="clip0_2242_753">
<rect width="16" height="16" fill="white"/>
</clipPath>
</defs>
</svg>
