<svg width="16" height="16" viewBox="0 0 16 16" fill="none" xmlns="http://www.w3.org/2000/svg">
<g clip-path="url(#clip0_2242_533)">
<path fill-rule="evenodd" clip-rule="evenodd" d="M13.9916 4.40243C13.9972 4.45193 14 4.50194 14 4.55224V14C14 14.7363 13.403 15.3333 12.6667 15.3333H3.33333C2.59695 15.3333 2 14.7363 2 14V1.99996C2 1.26358 2.59695 0.666626 3.33333 0.666626H10.1144C10.1647 0.666626 10.2147 0.669469 10.2642 0.675065C10.2999 0.669509 10.3365 0.666626 10.3738 0.666626C10.5613 0.666626 10.7412 0.741125 10.8738 0.873733L11.0568 1.05681C11.0567 1.05669 11.057 1.05692 11.0568 1.05681L13.6095 3.60944C13.6097 3.60962 13.6098 3.60981 13.61 3.60999L13.7929 3.79285C13.9255 3.92546 14 4.10532 14 4.29285C14 4.33012 13.9971 4.36672 13.9916 4.40243ZM13.3333 4.99882V14C13.3333 14.3682 13.0349 14.6666 12.6667 14.6666H3.33333C2.96514 14.6666 2.66667 14.3682 2.66667 14V1.99996C2.66667 1.63177 2.96514 1.33329 3.33333 1.33329H9.6678C9.66705 1.34668 9.66667 1.36016 9.66667 1.37373V2.99996C9.66667 4.10453 10.5621 4.99996 11.6667 4.99996H13.2929C13.3065 4.99996 13.3199 4.99958 13.3333 4.99882ZM13.1381 4.08084C13.2098 4.15262 13.2636 4.23907 13.2963 4.33315C13.2952 4.33325 13.294 4.33329 13.2929 4.33329H11.6667C10.9303 4.33329 10.3333 3.73634 10.3333 2.99996V1.37373C10.3333 1.37258 10.3334 1.37145 10.3335 1.37032C10.4275 1.40303 10.5138 1.45667 10.5856 1.52834C10.5855 1.52827 10.5856 1.52841 10.5856 1.52834L13.1381 4.08084Z" fill="#5B5B5B"/>
<rect x="0.666992" y="6" width="14.6667" height="8" fill="#217346"/>
<path d="M12.8896 11.4296C12.8896 11.345 12.8745 11.2658 12.8441 11.192C12.8159 11.1182 12.767 11.0488 12.6976 10.9837C12.626 10.9207 12.5327 10.8632 12.4176 10.8112C12.3048 10.7569 12.1637 10.707 11.9945 10.6614C11.7319 10.5898 11.5008 10.503 11.3011 10.401C11.1036 10.299 10.9419 10.1872 10.8161 10.0657C10.6902 9.94419 10.5947 9.80964 10.5296 9.66207C10.4667 9.5145 10.4352 9.35391 10.4352 9.1803C10.4352 8.98065 10.4775 8.79944 10.5622 8.63668C10.6468 8.47392 10.764 8.33503 10.9137 8.22001C11.0635 8.10499 11.2403 8.0171 11.4443 7.95634C11.6483 7.89341 11.8697 7.86194 12.1084 7.86194C12.3558 7.86194 12.5815 7.89775 12.7855 7.96936C12.9916 8.04097 13.1685 8.1408 13.3161 8.26884C13.4636 8.39905 13.5787 8.55313 13.6611 8.73108C13.7436 8.90903 13.7848 9.10434 13.7848 9.31702H12.8929C12.8886 9.21068 12.869 9.11302 12.8343 9.02405C12.8018 8.93507 12.7529 8.85803 12.6878 8.79293C12.6206 8.72999 12.537 8.68117 12.4372 8.64644C12.3395 8.60955 12.2245 8.59111 12.0921 8.59111C11.9706 8.59111 11.8621 8.6063 11.7666 8.63668C11.6733 8.66489 11.5941 8.70504 11.529 8.75712C11.4639 8.81137 11.414 8.87539 11.3792 8.94918C11.3467 9.02079 11.3304 9.09892 11.3304 9.18355C11.3304 9.27253 11.3521 9.35282 11.3955 9.42444C11.4411 9.49605 11.5062 9.56007 11.5908 9.6165C11.6755 9.67509 11.7775 9.72826 11.8968 9.776C12.0183 9.82374 12.1551 9.86823 12.307 9.90946C12.4697 9.95504 12.6249 10.0104 12.7725 10.0755C12.92 10.1406 13.0557 10.2155 13.1794 10.3001C13.366 10.439 13.5146 10.6007 13.6253 10.7851C13.736 10.9696 13.7913 11.1823 13.7913 11.4231C13.7913 11.6315 13.749 11.817 13.6644 11.9798C13.5819 12.1404 13.4669 12.276 13.3193 12.3867C13.1718 12.4995 12.996 12.5852 12.792 12.6438C12.588 12.7003 12.3656 12.7285 12.1247 12.7285C11.8881 12.7285 11.6538 12.6938 11.4215 12.6243C11.1915 12.5527 10.9908 12.4485 10.8193 12.3118C10.6566 12.1773 10.5275 12.0188 10.432 11.8365C10.3387 11.6543 10.292 11.4405 10.292 11.1953H11.1904C11.1948 11.3385 11.2197 11.4611 11.2653 11.5631C11.3109 11.6651 11.3749 11.7487 11.4574 11.8138C11.5377 11.8789 11.6342 11.9266 11.7471 11.957C11.8621 11.9874 11.988 12.0026 12.1247 12.0026C12.2462 12.0026 12.3536 11.9885 12.4469 11.9602C12.5424 11.932 12.6227 11.893 12.6878 11.8431C12.7529 11.7931 12.8028 11.7335 12.8376 11.664C12.8723 11.5924 12.8896 11.5143 12.8896 11.4296Z" fill="white"/>
<path d="M7.4043 11.9277H9.62435V12.6666H6.48633V7.927H7.4043V11.9277Z" fill="white"/>
<path d="M4.02539 9.62622L4.86849 7.927H5.94271L4.60807 10.2773L5.97526 12.6666H4.90755L4.03841 10.9413L3.17253 12.6666H2.0918L3.45898 10.2773L2.1276 7.927H3.19531L4.02539 9.62622Z" fill="white"/>
</g>
<defs>
<clipPath id="clip0_2242_533">
<rect width="16" height="16" fill="white"/>
</clipPath>
</defs>
</svg>
