<svg width="93" height="90" viewBox="0 0 93 90" fill="none" xmlns="http://www.w3.org/2000/svg">
<path d="M15.8649 23.9428L14.2617 23.0111L14.4401 85.8104L16.0433 86.7422L15.8649 23.9428Z" fill="#222229"/>
<path d="M55.7211 0.931702L54.1179 3.8147e-06L14.2617 23.011L15.8649 23.9427L55.7211 0.931702Z" fill="#191923"/>
<path d="M15.8633 23.9428L16.0417 86.7422L55.8978 63.7311L55.7195 0.93174L15.8633 23.9428Z" fill="#282837"/>
<path d="M18.1953 24.4683L54.2554 3.64869V63.6249L18.196 84.4424L18.1953 24.4683Z" fill="#F9F7FC"/>
<path d="M19.9336 28.0344L52.5123 9.22565V14.4053L19.9343 33.2134L19.9336 28.0344Z" fill="#285CD6"/>
<path d="M42.8401 7.22807L42.2681 6.89489C42.1089 6.80276 41.8878 6.81603 41.6445 6.95608L42.2165 7.28925C42.4605 7.14846 42.6809 7.13519 42.8401 7.22807Z" fill="#BEBECD"/>
<mask id="mask0_1477_13887" style="mask-type:luminance" maskUnits="userSpaceOnUse" x="41" y="6" width="2" height="2">
<path d="M42.8362 7.22813L42.2642 6.89496C42.1043 6.80282 41.8839 6.81535 41.6406 6.95614L42.2126 7.28931C42.4566 7.14852 42.677 7.13525 42.8362 7.22813Z" fill="white"/>
</mask>
<g mask="url(#mask0_1477_13887)">
<path d="M42.8372 7.22815L42.2652 6.89498C42.1237 6.81316 41.9342 6.8139 41.7227 6.91341L42.2954 7.24658C42.5062 7.14707 42.6964 7.1456 42.8372 7.22815Z" fill="#BEBECD"/>
<path d="M42.2944 7.24656L41.7217 6.91338L41.6406 6.95614L42.2126 7.28931L42.2944 7.24656Z" fill="#BEBECD"/>
</g>
<path d="M42.2138 7.2893L41.6418 6.95613L39.0781 8.43624L39.6509 8.76868L42.2138 7.2893Z" fill="#BEBECD"/>
<path d="M39.0095 7.8207L38.4375 7.48826C37.9938 7.23028 37.3805 7.26639 36.7031 7.65779L37.2751 7.99097C37.9532 7.59883 38.5665 7.56345 39.0095 7.8207Z" fill="#BEBECD"/>
<mask id="mask1_1477_13887" style="mask-type:luminance" maskUnits="userSpaceOnUse" x="36" y="7" width="4" height="1">
<path d="M39.0142 7.82082L38.4422 7.48839C37.9984 7.2304 37.3852 7.26651 36.707 7.65791L37.2798 7.99109C37.9579 7.59895 38.5712 7.56357 39.0142 7.82082Z" fill="white"/>
</mask>
<g mask="url(#mask1_1477_13887)">
<path d="M39.0091 7.82085L38.4371 7.48841C38.0434 7.25991 37.5164 7.26211 36.9297 7.53927L37.5017 7.8717C38.0891 7.59529 38.6162 7.59234 39.0091 7.82085Z" fill="#BEBECD"/>
<path d="M37.5021 7.87168L36.9302 7.53924C36.855 7.57462 36.779 7.61369 36.7031 7.65791L37.2751 7.99109C37.3518 7.94686 37.4277 7.90706 37.5021 7.87168Z" fill="#BEBECD"/>
</g>
<path d="M37.2719 7.99096L36.6999 7.65779L33.1758 9.69222L33.7485 10.0254L37.2719 7.99096Z" fill="#BEBECD"/>
<path d="M33.7514 10.0254L33.1786 9.69226C32.0273 10.3571 31.0675 11.8291 30.8125 13.2097L31.3852 13.5422C31.6403 12.1623 32.6 10.6896 33.7514 10.0254Z" fill="#BEBECD"/>
<mask id="mask2_1477_13887" style="mask-type:luminance" maskUnits="userSpaceOnUse" x="30" y="9" width="4" height="5">
<path d="M33.7475 10.0246L33.1747 9.6922C32.0234 10.3571 31.0636 11.8291 30.8086 13.2097L31.3813 13.5421C31.6364 12.1622 32.5961 10.6895 33.7475 10.0246Z" fill="white"/>
</mask>
<g mask="url(#mask2_1477_13887)">
<path d="M33.7465 10.0254L33.1738 9.69221C32.7919 9.9126 32.4308 10.2229 32.1094 10.5885L32.6821 10.921C33.0028 10.5554 33.3639 10.2458 33.7465 10.0254Z" fill="#BEBECD"/>
<path d="M32.6849 10.921L32.1122 10.5885C31.7304 11.0227 31.4053 11.5365 31.168 12.0738L31.7407 12.4062C31.9781 11.8689 32.3031 11.3551 32.6849 10.921Z" fill="#BEBECD"/>
<path d="M31.7388 12.4062L31.1661 12.0738C31.001 12.4468 30.8786 12.8315 30.8086 13.2097L31.3813 13.5421C31.4514 13.1647 31.5737 12.7799 31.7388 12.4062Z" fill="#BEBECD"/>
</g>
<path d="M27.947 16.5355L27.375 16.2024L27.3831 20.2432L27.9551 20.5756L27.947 16.5355Z" fill="#BEBECD"/>
<path d="M31.3857 13.5422L30.8129 13.2097L28.25 14.6898L28.8227 15.0223L31.3857 13.5422Z" fill="#BEBECD"/>
<path d="M33.7486 10.0254C32.5972 10.6895 31.6375 12.1623 31.3824 13.5421L28.8195 15.0223C28.3345 15.3016 27.9438 15.979 27.9453 16.5355L27.9534 20.5756L43.101 11.8298L43.0929 7.79048C43.0914 7.23323 42.6978 7.00915 42.2135 7.28925L39.6506 8.76863C39.3889 7.68655 38.4233 7.3261 37.2719 7.99098L33.7486 10.0254Z" fill="#CED4F1"/>
<path d="M28.8212 15.0222L28.2485 14.6898C27.7642 14.9692 27.3728 15.6458 27.375 16.2023L27.947 16.5355C27.9455 15.979 28.3362 15.3016 28.8212 15.0222Z" fill="#BEBECD"/>
<mask id="mask3_1477_13887" style="mask-type:luminance" maskUnits="userSpaceOnUse" x="27" y="14" width="2" height="3">
<path d="M28.8212 15.0222L28.2485 14.6898C27.7642 14.9692 27.3728 15.6458 27.375 16.2023L27.947 16.5355C27.9455 15.979 28.3362 15.3016 28.8212 15.0222Z" fill="white"/>
</mask>
<g mask="url(#mask3_1477_13887)">
<path d="M28.8193 15.0222L28.2466 14.6898C28.1087 14.7687 27.979 14.8807 27.8633 15.0119L28.436 15.3451C28.551 15.2132 28.6815 15.1018 28.8193 15.0222Z" fill="#BEBECD"/>
<path d="M28.4391 15.3451L27.8664 15.012C27.7293 15.1682 27.6128 15.3525 27.5273 15.5449L28.1001 15.8773C28.1856 15.6849 28.302 15.5007 28.4391 15.3451Z" fill="#BEBECD"/>
<path d="M28.0991 15.8773L27.5263 15.5449C27.446 15.7277 27.3936 15.9179 27.3789 16.0992L27.9516 16.4324C27.9656 16.251 28.0187 16.0601 28.0991 15.8773Z" fill="#BEBECD"/>
<path d="M27.9514 16.4323L27.3787 16.0992L27.375 16.2023L27.947 16.5355L27.9514 16.4323Z" fill="#BEBECD"/>
</g>
<path d="M51.7235 20.3177L20.9492 38.0855V35.2381L51.7235 17.471V20.3177Z" fill="#DADFF6"/>
<path d="M51.7235 25.5644L20.9492 43.3317V40.4849L51.7235 22.7177V25.5644Z" fill="#DADFF6"/>
<path d="M51.7235 30.8111L20.9492 48.5784V45.7316L51.7235 27.9644V30.8111Z" fill="#DADFF6"/>
<path d="M35.2373 45.5761L20.9492 53.8251V50.9783L35.2373 42.7287V45.5761Z" fill="#DADFF6"/>
<path d="M35.2373 66.5483L20.9492 74.7972V71.9508L35.2373 63.7009V66.5483Z" fill="#DADFF6"/>
<path d="M51.7235 41.3037L20.9492 59.0718V56.2244L51.7235 38.4572V41.3037Z" fill="#DADFF6"/>
<path d="M51.7235 46.5505L20.9492 64.3179V61.4711L51.7235 43.704V46.5505Z" fill="#DADFF6"/>
<path d="M46.2283 54.97L20.9492 69.5647V66.7179L46.2283 52.1232V54.97Z" fill="#DADFF6"/>
<path d="M49.007 59.971L49.4566 58.2771L48.4468 57.8778L48.2138 56.5118L46.9143 56.9932L46.0637 56.318L44.8224 57.555L43.5804 57.7525L42.7298 59.4095L41.4303 60.4288L41.1973 62.0637L40.1875 63.6287L40.6371 64.8028L40.1875 66.4968L41.1973 66.8955L41.4303 68.2621L42.7298 67.781L43.5804 68.4553L44.8224 67.2191L46.0637 67.0217L46.9143 65.3646L48.2138 64.345L48.4468 62.7102L49.4566 61.1446L49.007 59.971Z" fill="#FDDA4C"/>
<path d="M48.742 60.123C48.742 57.622 46.9862 56.6085 44.8206 57.8584C42.6542 59.1095 40.8984 62.1501 40.8984 64.6511C40.8984 67.152 42.6542 68.1655 44.8206 66.9153C46.9862 65.6646 48.742 62.624 48.742 60.123Z" fill="#FBC70E"/>
<path d="M30.7526 53.4174C30.4482 58.1121 30.1452 62.8097 29.8438 67.5059L30.7946 68.1302C31.0954 63.432 31.3983 58.7358 31.702 54.041C31.733 53.5685 31.8914 53.2118 32.1362 52.9864C31.8811 52.6267 31.6393 52.253 31.4285 51.849C31.0467 52.1727 30.799 52.7033 30.7526 53.4174Z" fill="#35353F"/>
<path d="M32.3168 52.8521L69.7199 31.1163C69.3727 31.3175 69.1449 31.726 69.1073 32.3053C68.8029 37 68.5 41.6954 68.1992 46.3935L30.7969 68.1302C31.0976 63.432 31.4006 58.7358 31.7043 54.041C31.7426 53.4617 31.9704 53.054 32.3168 52.8521Z" fill="#2E2E37"/>
<mask id="mask4_1477_13887" style="mask-type:luminance" maskUnits="userSpaceOnUse" x="32" y="31" width="44" height="25">
<path d="M32.2383 52.984L69.5153 31.3293C70.0173 31.0374 70.7124 31.0809 71.4753 31.5218C72.7955 32.2839 74.1164 33.0467 75.4372 33.8089L38.161 55.4628C36.8401 54.7007 35.5192 53.938 34.199 53.1758C33.4361 52.7349 32.741 52.6915 32.2383 52.984Z" fill="white"/>
</mask>
<g mask="url(#mask4_1477_13887)">
<path d="M32.2383 52.984L69.5153 31.3294C69.9605 31.0706 70.5583 31.0758 71.2195 31.3876L33.9432 53.0417C33.2813 52.7298 32.6842 52.7247 32.2383 52.984Z" fill="#25252E"/>
<path d="M33.9414 53.0417L71.2177 31.3876C71.3017 31.4266 71.3872 31.4717 71.4735 31.5218C72.7936 32.2839 74.1152 33.0467 75.4354 33.8089L38.1584 55.4628C36.8382 54.7007 35.5173 53.938 34.1972 53.1758C34.1109 53.1257 34.0254 53.0814 33.9414 53.0417Z" fill="#25252E"/>
</g>
<mask id="mask5_1477_13887" style="mask-type:luminance" maskUnits="userSpaceOnUse" x="38" y="33" width="42" height="57">
<path d="M79.2387 68.2297L41.9624 89.8843C42.2956 89.6906 42.4931 89.2607 42.4599 88.6468C41.9484 79.1013 41.428 69.55 40.9024 59.9969C40.8088 58.2802 39.611 56.2981 38.1641 55.4628L75.4404 33.8088C76.8873 34.6441 78.0851 36.6254 78.1787 38.3429C78.7043 47.895 79.2247 57.4463 79.7362 66.9928C79.7694 67.6061 79.5719 68.0365 79.2387 68.2297Z" fill="white"/>
</mask>
<g mask="url(#mask5_1477_13887)">
<path d="M38.1641 55.4628L75.4411 33.8088C75.8715 34.0573 76.2799 34.4074 76.6441 34.8224L39.3678 56.4763C39.0036 56.0614 38.5953 55.7113 38.1641 55.4628Z" fill="#25252E"/>
<path d="M39.3672 56.4763L76.6435 34.8224C77.0732 35.3113 77.441 35.8897 77.7093 36.4972L40.4323 58.1512C40.164 57.5445 39.7969 56.9652 39.3672 56.4763Z" fill="#BB9081"/>
<path d="M40.4336 58.1512L77.7106 36.4972C77.9635 37.0699 78.1278 37.6683 78.1735 38.2404L40.8965 59.8943C40.8516 59.3226 40.6872 58.7239 40.4336 58.1512Z" fill="#25252E"/>
<path d="M40.8945 59.8944L78.1715 38.2404L78.1782 38.3429C78.7037 47.895 79.2249 57.4472 79.7357 66.9928C79.7689 67.6061 79.5713 68.0365 79.2382 68.2297L41.9619 89.8843C42.295 89.6906 42.4926 89.2607 42.4594 88.6468C41.9479 79.1013 41.4274 69.55 40.9019 59.9969L40.8945 59.8944Z" fill="#25252E"/>
</g>
<path d="M38.1588 55.4628C39.6065 56.2987 40.8042 58.2803 40.8978 59.9969C41.4234 69.55 41.9438 79.1013 42.4554 88.6468C42.5195 89.8323 41.7234 90.3318 40.7489 89.7686L40.5676 89.6529C39.0669 88.6034 37.5772 87.6517 36.0867 86.7917C34.5963 85.9305 33.1052 85.1617 31.6029 84.4778L31.4216 84.3843C30.4471 83.8211 29.657 82.4059 29.727 81.2985C30.2909 72.3728 30.8636 63.4533 31.4422 54.5372C31.5447 52.934 32.7499 52.3399 34.1975 53.1758C35.5177 53.938 36.8386 54.7007 38.1588 55.4628Z" fill="#15151A"/>
<path d="M79.3096 51.72L41.8976 73.3207C41.7023 69.7121 41.4996 65.9784 41.2851 62.0764C41.0979 58.6796 38.7074 54.7237 35.8438 53.071L73.2483 31.3359C76.0552 32.956 78.4051 36.7904 78.6727 40.1394H78.6742L78.6874 40.3383C78.9034 44.2885 79.1105 48.0698 79.3096 51.72Z" fill="#2E2E37"/>
<mask id="mask6_1477_13887" style="mask-type:luminance" maskUnits="userSpaceOnUse" x="31" y="29" width="41" height="23">
<path d="M31.6445 51.6935L69.0476 29.9568C69.6078 29.631 70.3825 29.6774 71.228 30.1661L33.8256 51.902C32.9794 51.4133 32.2047 51.3676 31.6445 51.6935Z" fill="white"/>
</mask>
<g mask="url(#mask6_1477_13887)">
<path d="M31.6445 51.6935L69.0476 29.9568C69.5451 29.6679 70.2115 29.6716 70.9464 30.018L33.5441 51.7546C32.8084 51.4081 32.1421 51.4039 31.6445 51.6935Z" fill="#2E2E37"/>
<path d="M33.543 51.7546L70.9453 30.018C71.0382 30.0622 71.1325 30.1116 71.2269 30.1661L33.8245 51.902C33.7294 51.8475 33.6358 51.798 33.543 51.7546Z" fill="#35353F"/>
</g>
<path d="M33.8242 51.902L71.2266 30.1662L73.2514 31.3352L35.8483 53.071L33.8242 51.902Z" fill="#35353F"/>
<path d="M35.8477 53.071L73.2507 31.3352C76.0577 32.9555 78.4105 36.7889 78.6773 40.1394L41.2743 61.8757C41.0074 58.5256 38.6553 54.692 35.8477 53.071Z" fill="#35353F"/>
<path d="M41.8996 73.3207L40.9443 72.7696C40.7512 69.1834 40.5477 65.4743 40.3354 61.6024C40.1821 58.7968 38.2074 55.5314 35.8435 54.1648L33.8194 52.9973C33.139 52.6031 32.5272 52.6281 32.1366 52.9864C31.8823 52.6258 31.6398 52.2529 31.4297 51.849C31.9965 51.3676 32.8626 51.3483 33.8216 51.902L35.8457 53.071C38.7093 54.7237 41.0998 58.6796 41.287 62.0764C41.5015 65.9784 41.7042 69.7121 41.8996 73.3207Z" fill="#25252E"/>
<path d="M58.7617 35.2263L61.433 36.7789C61.9239 37.0639 62.3102 37.4811 62.5637 38.0288L59.8917 36.4756C59.6389 35.9289 59.2526 35.5117 58.7617 35.2263Z" fill="#25252E"/>
<mask id="mask7_1477_13887" style="mask-type:luminance" maskUnits="userSpaceOnUse" x="58" y="35" width="5" height="4">
<path d="M58.7578 35.2264L61.4291 36.779C61.92 37.064 62.3063 37.4812 62.5598 38.0289L59.8878 36.4757C59.635 35.9289 59.2487 35.5117 58.7578 35.2264Z" fill="white"/>
</mask>
<g mask="url(#mask7_1477_13887)">
<path d="M62.5598 38.0289L59.8878 36.4757C59.635 35.9289 59.2487 35.5117 58.7578 35.2264L61.4291 36.779C61.92 37.064 62.3063 37.4812 62.5598 38.0289Z" fill="#25252E"/>
</g>
<mask id="mask8_1477_13887" style="mask-type:luminance" maskUnits="userSpaceOnUse" x="52" y="34" width="10" height="4">
<path d="M59.1481 34.5034L61.8193 36.0556C60.2847 35.1639 57.8471 35.4754 55.1603 37.0265L52.4883 35.474C55.1758 33.9226 57.6134 33.6107 59.1481 34.5034Z" fill="white"/>
</mask>
<g mask="url(#mask8_1477_13887)">
<path d="M55.1603 37.0265L52.4883 35.474C53.6404 34.8091 54.746 34.372 55.7551 34.1598L58.4264 35.7121C57.4181 35.9246 56.3124 36.3617 55.1603 37.0265Z" fill="#35353F"/>
<path d="M58.4252 35.7121L55.7539 34.1598C57.0379 33.8892 58.1635 33.9836 59.0267 34.4362L61.698 35.9894C60.8355 35.5358 59.7092 35.4417 58.4252 35.7121Z" fill="#2E2E37"/>
<path d="M61.6986 35.9894L59.0273 34.4363L59.1475 34.5034L61.8195 36.0556L61.6986 35.9894Z" fill="#25252E"/>
</g>
<mask id="mask9_1477_13887" style="mask-type:luminance" maskUnits="userSpaceOnUse" x="44" y="35" width="12" height="12">
<path d="M47.2572 46.6118L44.5859 45.0587C45.6636 41.4322 48.8398 37.5808 52.4878 35.474L55.1598 37.0265C51.5111 39.133 48.3356 42.9844 47.2572 46.6118Z" fill="white"/>
</mask>
<g mask="url(#mask9_1477_13887)">
<path d="M47.2572 46.6109L44.5859 45.0587C44.7348 44.5568 44.9243 44.0503 45.1499 43.5448L47.8219 45.097C47.5963 45.6026 47.4069 46.1091 47.2572 46.6109Z" fill="#25252E"/>
<path d="M47.8205 45.0969L45.1484 43.5447C45.7315 42.2378 46.5541 40.9366 47.5418 39.7322L50.2138 41.2847C49.2254 42.4891 48.4028 43.79 47.8205 45.0969Z" fill="#2E2E37"/>
<path d="M50.215 41.2848L47.543 39.7322C48.9332 38.0386 50.6506 36.5347 52.4875 35.474L55.1595 37.0265C53.3219 38.0873 51.6044 39.5908 50.215 41.2848Z" fill="#35353F"/>
</g>
<path d="M55.1603 37.0265C58.8076 34.9212 61.9948 35.0988 63.0894 37.4708L62.5631 38.0288C61.571 35.8826 58.5289 35.7394 55.1618 37.6833C51.7954 39.6268 48.7622 43.2778 47.7863 46.5603L47.2578 46.6109C48.3362 42.9844 51.5117 39.133 55.1603 37.0265Z" fill="#15151A"/>
<path d="M52.717 64.5463L53.3848 64.9341C53.2602 64.8627 53.0885 64.8728 52.8983 64.9819L52.2305 64.5944C52.4206 64.4844 52.5924 64.474 52.717 64.5463Z" fill="#E7E6F1"/>
<mask id="mask10_1477_13887" style="mask-type:luminance" maskUnits="userSpaceOnUse" x="52" y="64" width="2" height="1">
<path d="M52.7162 64.5462L53.3848 64.934C53.2602 64.8617 53.0885 64.8726 52.8983 64.9818L52.2305 64.5942C52.4206 64.4843 52.5924 64.4739 52.7162 64.5462Z" fill="white"/>
</mask>
<g mask="url(#mask10_1477_13887)">
<path d="M52.8983 64.9818L52.2305 64.5942C52.3034 64.5522 52.3735 64.5249 52.4391 64.5107L53.1069 64.8986C53.0413 64.9127 52.9713 64.9398 52.8983 64.9818Z" fill="#E7E6F1"/>
<path d="M53.1053 64.8986L52.4375 64.5107C52.5377 64.4894 52.6284 64.5007 52.7029 64.5396L53.3707 64.9274C53.2962 64.8882 53.2063 64.8779 53.1053 64.8986Z" fill="#E7E6F1"/>
<path d="M53.3709 64.9274L52.7031 64.5395L52.7157 64.5462L53.3835 64.934L53.3709 64.9274Z" fill="#E7E6F1"/>
</g>
<path d="M49.0628 71.6107L48.395 71.2223C47.9505 70.9637 47.6741 70.4143 47.6719 69.6331L48.3397 70.0207C48.3419 70.8022 48.6183 71.3521 49.0628 71.6107Z" fill="#CED4F1"/>
<mask id="mask11_1477_13887" style="mask-type:luminance" maskUnits="userSpaceOnUse" x="47" y="69" width="3" height="3">
<path d="M49.0628 71.6108L48.395 71.2223C47.9498 70.9637 47.6741 70.4144 47.6719 69.6332L48.3397 70.0208C48.3419 70.8022 48.6183 71.3522 49.0628 71.6108Z" fill="white"/>
</mask>
<g mask="url(#mask11_1477_13887)">
<path d="M49.0628 71.6108L48.395 71.2223C47.9505 70.9637 47.6741 70.4144 47.6719 69.6332L48.3397 70.0208C48.3419 70.8022 48.6183 71.3522 49.0628 71.6108Z" fill="#CED4F1"/>
</g>
<path d="M48.3363 70.0207L47.6685 69.6331L47.6641 68.0158L48.3319 68.4037L48.3363 70.0207Z" fill="#CED4F1"/>
<path d="M49.0155 67.2258L48.3477 66.8374L52.233 64.5944L52.9008 64.9819L49.0155 67.2258Z" fill="#E7E6F1"/>
<path d="M48.3319 68.4037L47.6641 68.0159C47.6626 67.5817 47.967 67.0554 48.3444 66.8374L49.0122 67.2258C48.6348 67.444 48.3304 67.9701 48.3319 68.4037Z" fill="#E7E6F1"/>
<mask id="mask12_1477_13887" style="mask-type:luminance" maskUnits="userSpaceOnUse" x="47" y="66" width="3" height="3">
<path d="M48.3358 68.4037L47.668 68.0158C47.6665 67.5816 47.9709 67.0553 48.3483 66.8373L49.0161 67.2257C48.6387 67.444 48.3343 67.97 48.3358 68.4037Z" fill="white"/>
</mask>
<g mask="url(#mask12_1477_13887)">
<path d="M48.3358 68.4037L47.668 68.0158C47.6672 67.8494 47.7122 67.6695 47.7882 67.4984L48.4559 67.8868C48.38 68.0578 48.3351 68.2378 48.3358 68.4037Z" fill="#CED4F1"/>
<path d="M48.4569 67.8868L47.7891 67.4985C47.848 67.3657 47.9269 67.2381 48.0183 67.127L48.6861 67.5154C48.5947 67.6269 48.5158 67.7535 48.4569 67.8868Z" fill="#E7E6F1"/>
<path d="M48.6834 67.5154L48.0156 67.1269C48.1137 67.0074 48.2264 66.9073 48.3466 66.8373L49.0144 67.2257C48.8942 67.2951 48.7815 67.3959 48.6834 67.5154Z" fill="#E7E6F1"/>
</g>
<path d="M52.8977 64.9819C53.2758 64.7645 53.5817 64.9384 53.5825 65.3726L53.5876 66.9899C53.5921 68.562 52.4857 70.4779 51.1169 71.268L50.8227 71.4382C49.4547 72.2286 48.3409 71.5937 48.3365 70.0207L48.332 68.4037C48.3306 67.9701 48.635 67.444 49.0124 67.2257L52.8977 64.9819Z" fill="#DEDDEC"/>
<path d="M72.892 53.0762L73.5598 53.464C73.436 53.3923 73.2642 53.4027 73.0741 53.5127L72.4062 53.1243C72.5964 53.0143 72.7682 53.0039 72.892 53.0762Z" fill="#E7E6F1"/>
<mask id="mask13_1477_13887" style="mask-type:luminance" maskUnits="userSpaceOnUse" x="72" y="53" width="2" height="1">
<path d="M72.8881 53.0761L73.5559 53.464C73.4321 53.3923 73.2603 53.4027 73.0702 53.5118L72.4023 53.1243C72.5925 53.0143 72.7643 53.0039 72.8881 53.0761Z" fill="white"/>
</mask>
<g mask="url(#mask13_1477_13887)">
<path d="M73.0702 53.5126L72.4023 53.1243C72.4746 53.0822 72.5446 53.0548 72.611 53.0407L73.2788 53.4291C73.2132 53.4424 73.1431 53.4706 73.0702 53.5126Z" fill="#E7E6F1"/>
<path d="M73.2772 53.4291L72.6094 53.0407C72.7096 53.0194 72.8003 53.0303 72.8747 53.0695L73.5426 53.4573C73.4681 53.4182 73.3774 53.4078 73.2772 53.4291Z" fill="#E7E6F1"/>
<path d="M73.5428 53.4574L72.875 53.0696L72.8868 53.0761L73.5546 53.464L73.5428 53.4574Z" fill="#E7E6F1"/>
</g>
<path d="M69.2347 60.1406L68.5669 59.7522C68.1216 59.4943 67.846 58.9443 67.8438 58.1631L68.5116 58.5507C68.5138 59.3321 68.7895 59.882 69.2347 60.1406Z" fill="#CED4F1"/>
<mask id="mask14_1477_13887" style="mask-type:luminance" maskUnits="userSpaceOnUse" x="67" y="58" width="3" height="3">
<path d="M69.2386 60.1406L68.5708 59.7522C68.1256 59.4942 67.8499 58.9442 67.8477 58.1631L68.5155 58.5506C68.5177 59.332 68.7934 59.882 69.2386 60.1406Z" fill="white"/>
</mask>
<g mask="url(#mask14_1477_13887)">
<path d="M69.2386 60.1406L68.5708 59.7522C68.1256 59.4942 67.8499 58.9442 67.8477 58.1631L68.5155 58.5506C68.5177 59.332 68.7934 59.882 69.2386 60.1406Z" fill="#CED4F1"/>
</g>
<path d="M68.5121 58.5507L67.8443 58.1631L67.8398 56.5458L68.5077 56.9342L68.5121 58.5507Z" fill="#CED4F1"/>
<path d="M69.1881 55.7557L68.5195 55.3672L72.4056 53.1243L73.0734 53.5127L69.1881 55.7557Z" fill="#E7E6F1"/>
<path d="M68.5077 56.9341L67.8398 56.5458C67.8384 56.1115 68.142 55.5852 68.5194 55.3672L69.188 55.7557C68.8099 55.9736 68.5062 56.5 68.5077 56.9341Z" fill="#E7E6F1"/>
<mask id="mask15_1477_13887" style="mask-type:luminance" maskUnits="userSpaceOnUse" x="67" y="55" width="3" height="2">
<path d="M68.5045 56.9342L67.8359 56.5458C67.8352 56.1116 68.1389 55.5852 68.5163 55.3678L69.1849 55.7557C68.8067 55.9737 68.503 56.5 68.5045 56.9342Z" fill="white"/>
</mask>
<g mask="url(#mask15_1477_13887)">
<path d="M68.5038 56.9342L67.8359 56.5458C67.8352 56.3794 67.8794 56.1994 67.9561 56.0284L68.6239 56.4168C68.5473 56.5878 68.503 56.7678 68.5038 56.9342Z" fill="#CED4F1"/>
<path d="M68.6249 56.4169L67.957 56.0284C68.016 55.8957 68.0941 55.7681 68.1855 55.657L68.8534 56.0454C68.762 56.1565 68.6838 56.2841 68.6249 56.4169Z" fill="#E7E6F1"/>
<path d="M68.8514 56.0454L68.1836 55.657C68.2816 55.5375 68.3944 55.4373 68.5145 55.3673L69.1831 55.7557C69.0622 55.8248 68.9495 55.9259 68.8514 56.0454Z" fill="#E7E6F1"/>
</g>
<path d="M73.0735 53.5127C73.4509 53.2944 73.7568 53.4684 73.7582 53.9025L73.7627 55.5199C73.7671 57.092 72.6614 59.0076 71.2926 59.798L70.9985 59.9681C69.6297 60.7582 68.5167 60.1236 68.5122 58.5506L68.5078 56.9342C68.5063 56.5 68.81 55.9736 69.1882 55.7557L73.0735 53.5127Z" fill="#DEDDEC"/>
<path d="M4.22075 40.8483L2.45312 39.8215C3.72464 52.7955 8.68981 58.4902 12.9872 60.9877L14.754 62.0145C10.4567 59.5169 5.49152 53.8222 4.22075 40.8483Z" fill="#EFF1FA"/>
<path d="M36.9292 19.9167L2.45312 39.8215L4.22075 40.8483L38.696 20.9442L36.9292 19.9167Z" fill="#EFF1FA"/>
<path d="M38.6965 20.9434C36.5463 46.8882 22.3032 63.1023 21.5528 63.9574C20.8009 63.9698 6.51285 64.2295 4.22266 40.8482L4.22856 40.8445L38.695 20.9456L38.6965 20.9434Z" fill="#CED4F1"/>
<path d="M20.7434 62.1124C19.469 61.9952 16.8242 61.4962 14.1522 59.4272C9.89687 56.1315 7.14154 50.0606 6.15234 41.8263L36.5212 24.2929C33.847 45.038 23.5149 58.7542 20.7434 62.1124Z" fill="#4281EE"/>
<path d="M21.1599 54.5527L19.1078 53.3601C19.0311 53.3152 18.9611 53.259 18.8984 53.1905L20.9513 54.3831C21.0139 54.4517 21.084 54.5084 21.1599 54.5527Z" fill="#CFCDE2"/>
<mask id="mask16_1477_13887" style="mask-type:luminance" maskUnits="userSpaceOnUse" x="18" y="53" width="4" height="2">
<path d="M21.1521 54.5527L19.1 53.3591C19.0233 53.3151 18.9533 53.259 18.8906 53.1904L20.9435 54.3831C21.0061 54.4516 21.0762 54.5083 21.1521 54.5527Z" fill="white"/>
</mask>
<g mask="url(#mask16_1477_13887)">
<path d="M21.1521 54.5527L19.1 53.36C19.0233 53.3151 18.9533 53.259 18.8906 53.1904L20.9435 54.3831C21.0061 54.4516 21.0762 54.5083 21.1521 54.5527Z" fill="#CFCDE2"/>
</g>
<path d="M27.7204 35.2877L29.7733 36.4803C29.6929 36.4337 29.6037 36.3991 29.5064 36.3784C29.1888 36.3116 28.8276 36.4006 28.4701 36.6061L26.418 35.4135C26.7747 35.2073 27.1359 35.1187 27.4536 35.1857C27.5509 35.2065 27.6401 35.241 27.7204 35.2877Z" fill="#CFCDE2"/>
<mask id="mask17_1477_13887" style="mask-type:luminance" maskUnits="userSpaceOnUse" x="26" y="35" width="4" height="2">
<path d="M27.7204 35.2877L29.7733 36.4803C29.6929 36.4337 29.6037 36.3991 29.5064 36.3784C29.1888 36.3122 28.8276 36.4 28.4701 36.6061L26.418 35.4135C26.7747 35.2073 27.1359 35.1187 27.4536 35.1857C27.5509 35.2065 27.6401 35.241 27.7204 35.2877Z" fill="white"/>
</mask>
<g mask="url(#mask17_1477_13887)">
<path d="M28.4701 36.6061L26.418 35.4135C26.7747 35.2073 27.1359 35.1187 27.4536 35.1857C27.5509 35.2065 27.6401 35.241 27.7204 35.2877L29.7733 36.4803C29.6929 36.4337 29.6037 36.3991 29.5064 36.3784C29.1888 36.3116 28.8276 36.4006 28.4701 36.6061Z" fill="#CFCDE2"/>
</g>
<path d="M22.4427 48.6077L20.3906 47.4152L24.9091 37.1975L26.9612 38.3907L22.4427 48.6077Z" fill="#CFCDE2"/>
<path d="M26.9623 38.3907L24.9102 37.1975C25.2632 36.3991 25.8345 35.7498 26.4176 35.4135L28.4697 36.6061C27.8873 36.943 27.3154 37.5926 26.9623 38.3907Z" fill="#CFCDE2"/>
<mask id="mask18_1477_13887" style="mask-type:luminance" maskUnits="userSpaceOnUse" x="24" y="35" width="5" height="4">
<path d="M26.9623 38.3901L24.9102 37.1975C25.2632 36.3991 25.8345 35.7498 26.4176 35.4135L28.4697 36.6061C27.8873 36.943 27.3154 37.5926 26.9623 38.3901Z" fill="white"/>
</mask>
<g mask="url(#mask18_1477_13887)">
<path d="M26.9623 38.3907L24.9102 37.1975C25.2632 36.3991 25.8345 35.7498 26.4176 35.4135L28.4697 36.6061C27.8873 36.943 27.3154 37.5926 26.9623 38.3907Z" fill="#CFCDE2"/>
</g>
<path d="M20.9513 54.3831L18.8985 53.1905L15.1289 49.0797L17.181 50.2723L20.9513 54.3831Z" fill="#CFCDE2"/>
<path d="M17.9261 44.7865L19.9782 45.9792C19.6274 45.775 19.1549 45.8326 18.6765 46.109C18.319 46.3146 17.9586 46.6434 17.6424 47.0762C16.8116 48.2141 16.6038 49.6457 17.178 50.2722L15.1259 49.0796C14.5509 48.4531 14.7588 47.0209 15.5895 45.8835C15.9058 45.4499 16.2669 45.122 16.6237 44.9155C17.1021 44.6391 17.5745 44.5824 17.9261 44.7865Z" fill="#CFCDE2"/>
<mask id="mask19_1477_13887" style="mask-type:luminance" maskUnits="userSpaceOnUse" x="14" y="44" width="6" height="7">
<path d="M17.934 44.7866L19.9861 45.9793C19.6352 45.7752 19.1627 45.8327 18.6843 46.1083C18.3269 46.3147 17.9664 46.6436 17.6502 47.0763C16.8194 48.2137 16.6116 49.6458 17.1858 50.2723L15.1337 49.0798C14.5588 48.4532 14.7666 47.021 15.5973 45.8837C15.9136 45.45 16.274 45.1221 16.6315 44.9156C17.1099 44.6392 17.5824 44.5825 17.934 44.7866Z" fill="white"/>
</mask>
<g mask="url(#mask19_1477_13887)">
<path d="M17.1858 50.2723L15.1337 49.0798C14.5588 48.4532 14.7666 47.021 15.5973 45.8837C15.9136 45.45 16.2747 45.1221 16.6315 44.9156C17.1099 44.6392 17.5824 44.5825 17.934 44.7866L19.9861 45.9793C19.6352 45.7752 19.1627 45.8327 18.6843 46.1092C18.3269 46.3147 17.9664 46.6436 17.6502 47.0763C16.8194 48.2142 16.6116 49.6458 17.1858 50.2723Z" fill="#CFCDE2"/>
</g>
<path d="M28.4703 36.6061C28.8278 36.4005 29.189 36.3116 29.5067 36.3784C30.3411 36.5546 30.5563 37.742 29.9873 39.03L23.968 52.642C23.6275 53.4102 23.0643 54.0765 22.4614 54.4251C21.8584 54.773 21.2931 54.7574 20.9503 54.3831L17.18 50.2723C16.6058 49.6457 16.8137 48.2141 17.6444 47.0762C17.9606 46.6435 18.3211 46.3147 18.6786 46.1091C19.2609 45.7722 19.8344 45.7612 20.1911 46.1497L22.4444 48.6077L26.9629 38.3907C27.316 37.5926 27.888 36.943 28.4703 36.6061Z" fill="#F4F4FB"/>
<path d="M79.515 58.8795C79.4664 58.9561 79.428 59.041 79.3927 59.1242C79.1855 59.6157 78.8936 60.3191 79.3735 60.7548C79.6256 60.9831 80.0789 60.9883 80.286 60.7194C80.4121 60.5541 80.4276 60.3344 80.4865 60.1363C80.5661 59.8702 80.7342 59.6313 80.959 59.464C81.0814 59.3733 81.2199 59.3033 81.3357 59.2045C81.4521 59.1058 81.7544 58.7741 81.747 58.6229C81.7308 58.2809 81.1743 58.0007 80.8684 57.984C80.7254 57.9765 80.5507 58.1098 80.4386 58.1835L80.348 58.2454L80.2669 58.3413C80.1932 58.4197 80.0966 58.4726 80.0008 58.5184C79.8792 58.5765 79.7516 58.6281 79.6507 58.7165L79.515 58.8795Z" fill="#F3A984"/>
<path d="M81.2221 59.0335C81.6025 58.999 81.7322 58.8 81.9592 58.5095C82.4929 57.8305 84.514 55.4614 84.9622 53.9262C85.0698 53.5576 84.2686 53.5893 83.8816 53.405C83.6177 53.2789 83.2064 53.5562 82.941 53.75C82.6115 53.9918 80.2771 58.0436 80.2432 58.2374C80.1702 58.6532 80.9273 59.0609 81.2221 59.0335Z" fill="#CED4F1"/>
<path d="M86.6066 48.4068C86.5019 47.7321 86.0633 47.2818 85.3447 47.4557C85.0358 47.5303 84.8279 47.7165 84.6643 47.968C84.281 48.5577 82.7935 53.7079 82.8127 54.0117C82.8672 54.8749 83.6058 55.1429 84.166 54.969C84.4122 54.8924 84.5847 54.7965 84.7093 54.582C84.7926 54.4375 86.7304 49.2072 86.6066 48.4068Z" fill="#CED4F1"/>
<path d="M80.6269 59.153C80.5871 59.0727 80.4928 59.0136 80.4065 59.0402C80.2938 59.0755 80.265 59.214 80.2252 59.324C80.1707 59.4743 80.066 59.6004 79.9628 59.7234C79.735 59.9955 79.4667 60.0418 79.3149 60.1031C79.2132 60.0447 79.1829 59.8694 79.0819 59.9474C78.9647 60.0389 78.9264 60.1769 78.8461 60.3013C78.7296 60.4827 78.6308 60.6744 78.538 60.8674C78.4908 60.9661 78.3994 61.079 78.4112 61.1919C78.4252 61.326 78.5151 61.4711 78.594 61.5774C78.7576 61.7977 79.009 61.9635 79.2905 61.9791C79.3702 61.9834 79.4512 61.9762 79.525 61.9465L79.6768 61.8581C79.8891 61.7116 80.1014 61.5656 80.3136 61.4196L80.3852 61.3695L80.4029 61.3562L80.4117 61.3488C80.7906 61.0444 81.6714 60.2534 81.3338 59.91L81.2373 59.9379C81.2653 59.3859 80.9888 59.6439 80.9321 59.3203C80.9019 59.153 80.6704 58.9958 80.6269 59.153Z" fill="#FFBFA2"/>
<path d="M79.6044 59.2834C79.631 59.6122 79.6885 59.9394 79.7747 60.2578C79.7939 60.3286 79.8152 60.3995 79.858 60.4576C79.9022 60.5167 79.9722 60.5607 80.0452 60.5541C80.1241 60.5475 80.1875 60.4841 80.2177 60.4127C80.2722 60.2828 80.2361 60.1368 80.2118 59.9992C80.1882 59.8613 80.1816 59.7021 80.2781 59.5995L80.4403 59.4795C80.6349 59.324 80.6298 58.9981 80.4521 58.8242C80.2936 58.6678 79.9988 58.6295 79.7931 58.7145C79.5624 58.8086 79.5867 59.068 79.6044 59.2834Z" fill="#FFC7AD"/>
<path d="M67.9474 68.3343C67.9312 68.6617 67.915 68.9888 67.8988 69.3162C67.8892 69.5071 67.8796 69.7003 67.9231 69.886C67.9526 70.0083 68.0034 70.1241 68.0565 70.2384C68.139 70.4166 68.229 70.5957 68.3639 70.7388C68.4125 70.7904 68.47 70.8382 68.5393 70.8494L68.7346 70.8347L68.8813 70.8465L69.0796 70.8773L69.1909 70.8708L69.2455 70.8258C69.3125 70.7711 69.4076 70.7757 69.4902 70.7512C69.6752 70.6968 69.7813 70.5016 69.83 70.3142C69.9044 70.0282 69.8912 69.7245 69.8337 69.4342C69.7754 69.1437 69.6745 68.8644 69.5742 68.5857C69.4762 68.3154 69.3789 68.0447 69.2808 67.7743C69.115 67.9767 68.8511 68.1311 68.5968 68.0683C68.5076 68.047 68.4265 67.9997 68.3418 67.9657C68.2562 67.9312 68.1604 67.9091 68.0735 67.9378C67.884 68.0012 67.9548 68.1897 67.9474 68.3343Z" fill="#FFC7AD"/>
<path d="M68.8877 62.683C69.0138 61.4418 69.1796 55.5412 69.274 55.5492C68.8325 55.5095 68.3821 55.6339 68.0099 55.8743C67.6266 56.1213 67.3383 56.4522 67.157 56.8694C66.9823 57.2719 66.9344 57.7128 66.8688 58.1424C66.7317 59.0467 66.6292 61.2103 66.6211 62.0792C66.6189 62.3683 66.7685 63.9626 66.8423 64.3147C67.0656 65.3896 67.4747 67.3798 67.8558 68.349C67.8646 68.3711 68.5118 68.4529 68.7248 68.3772C68.9364 68.3018 69.1944 68.0616 69.1782 67.8131C69.176 67.7696 68.9998 63.1135 68.8877 62.683Z" fill="#CED4F1"/>
<path d="M69.4869 83.7951C69.5156 83.7044 69.5731 83.6558 69.7382 83.6425C69.9328 83.6264 70.1282 83.6175 70.3235 83.6051C70.5881 83.5881 70.852 83.5717 71.1159 83.5541C71.1026 83.3405 71.0967 83.1237 71.0731 82.9106C71.354 82.9711 71.5095 82.8885 71.7785 82.7891C72.0955 82.6725 72.4161 82.5665 72.7405 82.4721C72.879 82.4323 73.0242 82.3941 73.1658 82.4225C73.5225 82.4957 73.7179 83.0831 73.6692 83.3912C73.6361 83.6094 73.4879 83.7951 73.3147 83.9322C73.0545 84.1372 72.6889 84.3045 72.3609 84.3532C72.01 84.4061 71.6872 84.5153 71.4048 84.7364C71.0385 85.0232 70.7775 85.3255 70.2925 85.3601C69.806 85.3954 69.4021 85.0998 69.3837 84.5964C69.3771 84.4159 69.4087 84.2369 69.4397 84.0591C69.4596 83.9478 69.4655 83.8608 69.4869 83.7951Z" fill="#15151A"/>
<path d="M72.5306 84.8124L72.5276 84.6967C72.5018 84.3008 72.6544 83.9662 72.7989 83.6005C72.8519 83.4643 72.9109 83.3203 73.0259 83.2299C73.2868 83.0212 73.7011 83.204 73.8677 83.4945C73.9443 83.6287 73.9871 83.7796 74.0556 83.9189C74.1868 84.1821 74.4507 84.4963 74.7684 84.5109C75.1959 84.5293 75.6758 84.3825 76.1085 84.3569C76.2773 84.3465 76.4512 84.3408 76.6082 84.4041C76.9775 84.553 77.0837 85.1484 76.9517 85.481C76.8707 85.686 76.6856 85.8348 76.4859 85.9299C76.1873 86.0721 75.793 86.1539 75.4628 86.1297C75.1082 86.1029 74.7699 86.1383 74.4448 86.2918C73.8876 86.555 73.2397 86.9331 72.6765 86.42C72.5261 86.2829 72.4524 86.0779 72.4347 85.8752C72.4038 85.5164 72.5254 85.1683 72.5306 84.8124Z" fill="#15151A"/>
<path d="M70.4514 66.5194C70.7123 66.7976 71.7392 66.3257 71.7569 66.193C72.9871 65.2923 72.7431 69.0176 72.3568 70.4903C72.1497 71.2851 72.1468 73.1808 72.0141 73.9893C71.8659 74.8903 71.6507 76.1476 71.3713 77.0166C71.3116 77.2046 71.2438 77.3984 71.1045 77.5378C70.8178 77.8274 70.346 77.7863 69.9465 77.7097C69.5993 77.6431 69.2131 77.534 69.0502 77.2208C68.9499 77.0285 68.9588 76.8001 68.9669 76.5833C68.9853 76.0106 69.0052 75.0523 68.9064 74.4868C68.801 73.8839 68.7244 72.2174 68.619 71.6144C68.5268 71.0866 68.4347 70.5583 68.3964 70.0239C68.3271 69.0582 68.434 68.0881 68.6079 67.1388C68.7001 66.6404 68.5593 65.6977 69.2728 65.6159C69.9178 65.5422 70.2774 66.3338 70.4514 66.5194Z" fill="#15151A"/>
<path d="M71.2371 76.6968C71.0381 76.4056 70.5273 76.4071 70.3541 76.4779C70.2185 76.5341 69.2551 75.9464 68.9735 75.7224L68.9462 76.0106C68.9374 76.1094 68.9285 76.2089 68.9211 76.3083C68.9049 76.5038 68.8902 76.6999 68.8784 76.896C68.8533 77.2798 68.8364 77.6633 68.829 78.048C68.8135 78.7998 68.8349 79.8355 68.9027 80.585C68.972 81.3495 69.0899 82.1102 69.2558 82.8597C69.3184 83.1473 69.3885 83.4326 69.4651 83.7162C69.5263 83.9449 69.6044 84.1968 69.8145 84.3339C69.9192 84.4018 70.0445 84.4298 70.1676 84.4496C70.2885 84.468 70.4123 84.4798 70.5339 84.466C70.6629 84.4496 70.8037 84.4032 70.8922 84.3039C70.9931 84.191 71.0624 84.0413 71.1089 83.8976C71.1907 83.6434 71.2047 83.3728 71.2143 83.1053C71.2578 81.8499 71.2039 80.31 71.2364 79.0549C71.2614 78.0869 71.3396 77.1134 71.5482 76.1698L71.2371 76.6968Z" fill="#15151A"/>
<path d="M72.7908 67.0003C72.9058 66.9381 73.4925 66.63 73.4851 66.4694C73.4792 66.362 73.7697 66.2667 73.8448 66.2667C73.9805 66.2667 74.119 66.3516 74.2303 66.4282C74.5038 66.6162 74.708 66.9096 74.837 67.2249C75.0132 67.6577 75.0625 68.1359 75.0972 68.6064C75.2011 70.0089 75.2092 72.4843 75.0854 73.8839C75.0227 74.5917 74.9321 75.6628 74.8119 76.3613C74.7522 76.7108 74.6851 77.0587 74.6114 77.4051C74.5407 77.7376 74.4736 77.8425 74.1986 78.023C73.6082 78.4091 72.5321 78.3789 72.0927 77.7103C71.5908 76.9475 71.7478 75.5079 71.6822 74.6432C71.6077 73.6496 71.4603 72.6346 70.993 71.7411C70.6937 71.1699 70.2699 70.6614 70.0539 70.0533C69.8497 69.4777 69.8468 68.8466 69.9485 68.2445C70.0178 67.8325 70.1357 67.4308 70.2662 67.0348C70.3524 66.774 70.39 66.4858 70.6679 66.3714C71.1264 66.1835 71.7205 66.4083 72.0544 66.7274C72.4067 67.0651 72.3692 67.2272 72.7908 67.0003Z" fill="#292930"/>
<path d="M70.5195 68.8915L72.1773 69.0809L72.1965 70.3371L71.2876 70.7564L70.5475 70.1365L70.5195 68.8915Z" fill="#15151A"/>
<path d="M74.5799 77.9602C74.5379 78.5698 74.501 79.1802 74.4693 79.7898C74.4443 80.2726 74.4229 81.0376 74.4067 81.5211C74.3934 81.8928 74.3846 82.2651 74.3779 82.6366C74.344 84.6739 74.5681 85.1272 73.6128 85.4087C73.3991 85.4715 73.1706 85.4934 72.9531 85.4441C72.3258 85.3011 72.2079 84.7534 72.118 84.0739C72.0678 83.6921 72.0398 83.2314 72.0207 82.8444C72.0045 82.5179 71.9912 82.1905 71.9801 81.8631C71.9639 81.4208 71.9514 80.9781 71.9389 80.5358C71.9226 79.9513 71.9071 79.0852 71.8924 78.5012C71.874 77.7546 71.7959 76.993 71.7774 76.2464C71.7745 76.1381 71.8415 76.0247 71.9263 75.9662C72.0376 75.8897 74.3013 76.6711 74.5349 76.9225C74.5349 76.9225 74.63 77.2069 74.5799 77.9602Z" fill="#292930"/>
<path d="M75.2044 58.6532C75.2088 58.4637 75.1977 58.2728 75.1572 58.0701C75.0709 57.6382 74.88 57.227 74.4842 56.999C73.8864 56.6549 73.2731 56.3506 72.626 56.1102C71.8409 55.819 71.011 55.6201 70.181 55.5124C69.449 55.418 68.664 55.3598 68.207 56.0681C67.8576 56.61 67.9342 57.3307 67.9888 57.9457C68.0478 58.612 68.3183 60.9685 68.3448 61.2293C68.3986 61.7513 68.4436 62.274 68.4797 62.7971C68.5512 63.8314 68.5903 64.8685 68.5947 65.9047C68.5969 66.2941 68.5977 66.698 68.7679 67.0472C68.9736 67.4691 69.6576 67.7654 70.0704 67.9364C70.5879 68.1509 71.1414 68.2762 71.6994 68.3248C72.5169 68.3962 73.352 68.3101 74.126 68.0366C74.3582 67.9548 74.5911 67.8515 74.7562 67.6686C74.9604 67.4426 74.9508 67.1498 74.9294 66.8644C74.9007 66.4915 74.8299 66.1201 74.7938 65.7473C74.6766 64.5391 74.6567 63.322 74.7333 62.1104C74.7717 61.5052 74.8343 60.9008 74.9213 60.2998C74.9987 59.7617 75.1918 59.1905 75.2044 58.6532Z" fill="#DADFF6"/>
<path d="M72.5025 55.1173C72.5482 54.7923 72.7974 54.866 72.6691 54.5725C72.5607 54.324 72.3964 54.0949 72.1775 53.9313C71.9578 53.7669 71.6821 53.671 71.4072 53.6886C71.3128 53.6946 71.2494 53.7484 71.1558 53.749C70.8963 53.7522 70.6354 53.705 70.3767 53.7439C70.1194 53.783 69.8814 53.8037 69.8836 54.0896C69.8865 54.4715 69.9072 54.838 69.7863 55.2146C69.7214 55.415 69.6226 55.6088 69.6064 55.819C69.5747 56.2325 70.3686 56.2929 70.7489 56.4706C71.217 56.6888 72.5504 56.2201 72.5253 56.0274C72.4878 55.7363 72.4612 55.4099 72.5025 55.1173Z" fill="#FFC7AD"/>
<path d="M73.5742 50.9593C73.732 51.145 73.8558 51.3552 73.8956 51.6019C73.9833 52.1519 73.7629 52.7194 73.8882 53.265C74.0106 53.7934 73.7895 54.9972 72.731 55.314C72.1951 55.4741 71.1352 55.3001 70.7931 55.1415C70.3339 54.9302 70.0288 54.4959 69.7553 54.0764C67.5123 50.6313 72.0573 49.1709 73.5742 50.9593Z" fill="#FFC7AD"/>
<path d="M69.0773 50.3143C69.1842 50.2043 69.3154 50.1102 69.4753 50.035L69.6095 49.9501L69.6648 49.8461C69.7392 49.6854 69.8888 49.572 70.0444 49.4851C70.6326 49.1571 71.3498 49.1355 72.0198 49.2247C72.2461 49.255 72.4732 49.2971 72.684 49.3848C72.9243 49.4836 73.1373 49.6383 73.3297 49.8107C73.6031 50.0549 73.8626 50.3417 74.0056 50.6791C74.0727 50.8369 74.0867 51.0033 74.1339 51.1634C74.1773 51.3071 74.1272 51.4773 74.0063 51.5703L73.8383 51.6719C73.6142 51.8231 73.5751 52.168 73.48 52.4018C73.4196 52.5498 73.2987 52.631 73.2656 52.7894C73.2302 52.9547 73.2353 53.1271 73.183 53.2883C73.1587 53.3652 73.1071 53.4484 73.026 53.4542L72.9302 53.4271C72.8351 53.3705 72.7857 53.2619 72.7533 53.1574C72.7208 53.0525 72.7002 52.942 72.6397 52.8498L72.6051 52.8168L72.5653 52.8159C72.4518 52.8389 72.3773 52.923 72.3235 53.018C72.2586 53.1329 72.2248 53.2619 72.1908 53.3894C72.1378 53.5892 72.1326 53.7588 72.1083 53.957C72.084 54.1591 72.0279 54.3742 71.8857 54.5277C71.5672 54.8717 70.9473 54.8571 70.5286 54.7692C70.3768 54.7375 70.2242 54.7038 70.0834 54.6382C69.7591 54.4879 69.5365 54.1893 69.3287 53.9025C69.1385 53.6402 68.9461 53.3719 68.8444 53.0658C68.7869 52.8927 68.7596 52.7122 68.7331 52.5322C68.6247 51.8032 68.5392 50.8672 69.0773 50.3143Z" fill="#15151A"/>
<path d="M72.3892 52.4874C71.972 52.401 71.7921 52.9008 72.0243 53.3388C72.0921 53.466 72.227 53.5893 72.3243 53.697C72.9892 54.4333 73.2759 53.775 73.0666 53.5265C72.5808 52.9495 72.9147 52.5948 72.3892 52.4874Z" fill="#FFC7AD"/>
<path d="M72.5243 56.0275C72.6157 56.265 72.626 56.4102 72.5744 56.5274C72.4344 56.842 70.1832 56.9247 69.5117 55.9103L69.7027 55.4424C69.9334 55.6753 70.7265 56.0703 71.2941 56.1404C71.7032 56.1904 72.0887 56.1478 72.5243 56.0275Z" fill="#EDECF8"/>
<path d="M88.7953 74.9654C88.684 75.9648 88.6817 76.9717 88.6795 77.9772C88.6788 78.2823 88.5734 78.5692 88.6029 78.8778C88.622 79.0747 88.695 79.2738 88.8432 79.4079C88.9921 79.5426 89.2029 79.5982 89.4056 79.5959C89.8206 79.5922 90.2179 79.3607 90.4523 79.0247C90.798 78.5285 90.7162 77.8991 90.7751 77.3313C90.8171 76.9244 90.8474 76.5162 90.8651 76.1079C90.8879 75.5911 90.6999 75.3576 90.3181 75.033C90.0233 74.784 89.7424 74.3794 89.4056 74.2003C89.2442 74.114 89.0105 74.1914 88.88 74.3057C88.7348 74.4324 88.6581 74.6241 88.6441 74.8151L88.7953 74.9654Z" fill="#15151A"/>
<path d="M86.031 73.8148C85.714 73.8654 85.3794 74.0713 85.0941 74.2024C84.4153 74.5165 83.7533 74.8643 83.0914 75.2116C82.6234 75.4569 81.5796 75.8853 81.8155 76.5714C81.9246 76.8871 82.2482 77.0955 82.5821 77.1546C83.2462 77.2712 83.8241 77.0765 84.3519 76.7071C84.8738 76.3432 85.4642 76.0748 86.0848 75.9213C86.617 75.7903 86.9598 75.4998 86.9775 74.9366C86.9952 74.3867 86.6996 73.7071 86.031 73.8148Z" fill="#15151A"/>
<path d="M84.2142 62.0873C84.4457 63.7803 84.2267 68.7273 85.9029 68.2871C86.4285 68.1495 87.341 67.2381 87.4228 66.112C87.4663 65.5039 87.4331 64.6398 87.4663 64.0317C87.5356 62.7743 88.7761 58.7292 86.1719 57.9529C85.7805 57.8365 84.6602 57.153 84.6602 57.153C84.6602 57.153 84.5606 57.6661 84.3977 58.2425C84.3056 58.5713 84.2562 59.0727 84.195 59.514C84.0904 60.2696 84.086 61.1512 84.2142 62.0873Z" fill="#15151A"/>
<path d="M84.775 74.2799C84.935 75.1938 86.8912 75.359 87.0814 74.442C87.3645 73.074 87.0431 71.6484 87.1374 70.2655C87.2605 68.4657 87.4529 67.1875 87.3726 66.3574C87.3401 66.0139 86.9008 66.3804 86.704 66.0956C86.2278 65.4043 84.4801 65.829 84.5406 66.1731C84.8023 67.6539 84.7721 74.2651 84.775 74.2799Z" fill="#15151A"/>
<path d="M87.7344 66.9885C87.7454 67.3717 87.7852 67.7541 87.8206 68.1359C87.8774 68.7529 87.9407 69.37 88.0056 69.9862C88.3697 73.4431 88.4191 75.2116 88.7309 75.9274C88.9875 76.5176 89.7894 76.4491 90.3054 76.2657C90.531 76.1854 90.7433 76.0483 90.87 75.847C90.9931 75.6515 91.0255 75.4157 91.0521 75.1871C91.3064 72.9715 91.1405 70.7756 90.5464 68.6254C90.4071 68.1207 90.2346 67.6009 89.9273 67.169C89.8182 67.015 89.2115 68.0823 89.0442 67.9931C88.8629 67.8958 89.2631 67.5831 89.0575 67.6047C88.6705 67.6435 88.3019 67.8344 88.0491 68.1258L87.7344 66.9885Z" fill="#2E2E37"/>
<path d="M90.3208 58.0696L90.1571 57.8702C89.5955 58.1717 88.8915 58.1202 88.2193 58.2175C86.7701 58.4283 86.6648 58.6848 85.6888 58.0819C85.5259 59.0747 85.7972 59.9955 85.7957 60.2152C85.7846 61.3473 86.8542 61.4107 86.9139 62.0056C87.051 63.3848 87.3112 66.1098 87.5633 67.4742C87.662 68.0041 87.777 68.5474 88.08 68.9972C88.4331 69.5203 89.0279 69.791 89.6604 69.715C89.8233 69.6957 89.9869 69.6404 90.1056 69.5284C90.3805 69.2684 90.682 69.328 90.6341 68.9551C90.4948 67.8684 90.5928 66.3352 90.8006 65.2592C91.2215 63.0833 91.3469 60.7052 90.3208 58.0696Z" fill="#2E2E37"/>
<path d="M90.2828 56.929C90.3005 56.565 90.3322 56.2017 90.3787 55.8403L90.3735 55.8455C90.4339 55.3825 90.5202 54.9227 90.6256 54.4709C90.8136 53.6653 91.0296 53.0203 91.2536 52.2233C91.3782 51.7782 91.9259 50.716 91.9627 50.3984C92.0489 49.6656 91.2971 49.1217 90.3323 48.4787C89.6806 48.0449 88.6465 47.2761 87.3735 46.8839C85.5912 46.3345 85.1194 47.5375 84.6071 48.9365C84.1295 50.2392 84.2681 52.3872 84.4818 53.7727C84.5946 54.5078 84.6639 55.2477 84.6897 55.9901C84.7118 56.6298 84.7273 56.8642 84.6189 57.4908C86.1779 58.578 90.2563 58.2103 90.3565 58.1682C90.3204 57.7605 90.2681 57.339 90.2828 56.929Z" fill="#DADFF6"/>
<path d="M90.3219 57.7932C90.3551 57.9353 90.428 58.2236 90.4303 58.3635C90.3263 58.3989 86.113 58.9857 84.543 57.661C84.5857 57.4908 84.6241 57.3221 84.6594 57.1531C86.6025 57.9728 88.3111 57.9823 90.3219 57.7932Z" fill="#15151A"/>
<path d="M89.99 57.8196C89.976 58.0125 89.9606 58.2203 89.9458 58.4254C89.8087 58.4415 89.6392 58.4585 89.4453 58.4741C89.4601 58.2676 89.4755 58.0611 89.4903 57.855C89.6554 57.8438 89.8205 57.8342 89.99 57.8196Z" fill="#2E2E37"/>
<path d="M87.0098 57.796C86.9936 58.02 86.9774 58.2448 86.9612 58.4689C86.7953 58.4518 86.6317 58.4291 86.4688 58.4026C86.4872 58.1512 86.5041 57.9108 86.5189 57.7141C86.6825 57.745 86.8461 57.7738 87.0098 57.796Z" fill="#2E2E37"/>
<path d="M87.122 56.9733C86.9281 57.1349 86.6989 57.3287 86.508 57.4908C86.2323 57.0641 86.2249 57.0286 85.9692 56.6011C85.961 54.0641 86.0716 51.6861 86.6878 49.2565C86.9259 49.4232 87.0453 49.5064 87.2864 49.6731C86.9738 51.9979 86.78 54.4156 87.122 56.9733Z" fill="#15151A"/>
<path d="M86.4334 49.1983L86.4297 49.2343C86.4319 49.306 86.4768 49.3953 86.5012 49.462C86.555 49.6075 86.6221 49.7474 86.7017 49.8801C86.7459 49.9529 86.7982 50.0275 86.8778 50.0592C86.967 50.0952 87.0702 50.0687 87.1542 50.0224C87.2501 49.9694 87.4255 49.891 87.4041 49.7733C87.385 49.6699 87.3481 49.5669 87.3142 49.4681C87.2442 49.266 87.1491 49.0163 86.9597 48.8925C86.7466 48.7537 86.5955 48.9616 86.4835 49.1171L86.4334 49.1983Z" fill="#2E2E37"/>
<path d="M89.1242 48.1707C89.1699 49.5867 86.4699 49.6112 86.5082 48.2792C86.5628 46.4232 86.677 46.2101 87.566 45.9219C87.81 45.8429 88.0643 45.7825 88.3215 45.7782C89.2598 45.7612 88.8964 46.2291 88.8611 46.5565C88.7564 47.5265 89.1072 47.6607 89.1242 48.1707Z" fill="#F3A984"/>
<path d="M86.951 49.0442C86.9031 49.1954 86.6997 49.2484 86.5655 49.3362C86.5065 49.3751 86.4034 49.4502 86.3267 49.4341C86.2486 49.418 86.2021 49.3164 86.1756 49.2527C85.9847 48.7967 85.8763 48.2976 85.8712 47.803C85.8697 47.6466 85.8955 47.4713 86.02 47.3607C86.1321 47.2619 86.326 47.2406 86.4631 47.2994C86.6105 47.3636 86.6459 47.6489 86.5935 47.7817C86.4048 48.2556 86.62 48.8009 86.951 49.0442Z" fill="#EBEEFC"/>
<path d="M86.9297 49.05C86.9297 49.05 87.1641 49.4151 87.4501 49.6656C87.5216 49.7275 87.5784 49.8041 87.6735 49.7747L87.8356 49.7076C88.2521 49.5093 88.6368 49.2087 88.97 48.893C89.1233 48.7485 89.2877 48.5887 89.3909 48.403C89.4985 48.2089 89.4587 47.8266 89.3113 47.6599C89.2081 47.5441 89.0511 47.3607 88.8956 47.3664C88.9568 47.8206 88.5344 48.3595 88.1924 48.5959C88.0029 48.7267 87.7929 48.826 87.5754 48.9006C87.5083 48.9233 86.9658 49.1061 86.9297 49.05Z" fill="#EBEEFC"/>
<path d="M88.4882 46.6009C88.5354 46.558 89.0086 46.2839 88.6865 46.0964C88.5973 46.0449 88.4985 46.1218 88.4845 46.2145L88.4853 46.3604L88.4536 46.4399C88.4116 46.507 88.2686 46.5721 88.2966 46.67C88.3216 46.7569 88.461 46.626 88.4882 46.6009Z" fill="#F3A984"/>
<path d="M92.2587 49.8896C91.958 49.2729 91.0388 49.1171 90.4042 49.488C90.1314 49.6472 89.9884 49.8853 89.9073 50.1727C89.7172 50.8464 90.1977 56.0519 90.3068 56.3374C90.6172 57.1482 91.4029 57.1951 91.8865 56.8686C92.0988 56.7249 92.2344 56.5849 92.2889 56.3439C92.3258 56.1815 92.6162 50.621 92.2587 49.8896Z" fill="#EBEEFC"/>
<path d="M91.1152 62.5408C91.1469 63.0029 90.9007 63.5057 90.6066 63.861C90.3781 64.1365 90.0324 64.3421 89.6749 64.3099C89.5415 64.2981 89.386 64.2206 89.3867 64.0864L89.453 63.9145C89.5813 63.6891 89.9543 62.6004 89.6815 62.436C89.5518 62.5391 89.4936 62.7073 89.4243 62.8561C89.3631 62.9903 89.2872 63.117 89.1368 63.1636C89.0653 63.1858 88.954 63.2307 88.8906 63.1665L88.8921 62.952C88.9349 62.8892 88.9997 62.8423 89.0358 62.7752C89.0705 62.711 89.0941 62.6454 89.1118 62.5745C89.1435 62.4487 89.1611 62.3128 89.2054 62.1913C89.2503 62.0684 89.3284 61.9598 89.4228 61.8685L89.5275 61.774C89.6108 61.6989 89.6845 61.6142 89.7553 61.5273C89.955 61.2825 90.0236 60.9183 90.1791 60.639C90.3191 60.3877 90.5668 60.5446 90.7643 60.6779C90.9346 60.7922 91.2074 61.0554 91.1727 61.2227C91.1218 61.4645 91.0688 62.0675 91.0739 62.1095C91.0931 62.2526 91.1049 62.3963 91.1152 62.5408Z" fill="#FFC7AD"/>
<path d="M91.0214 61.5906C91.3523 61.4041 91.4002 60.9543 91.4835 60.5975C91.6781 59.7617 92.5059 56.781 92.2597 55.2C92.2007 54.8202 91.4865 55.1764 91.0575 55.166C90.7641 55.1585 90.5083 55.5786 90.3499 55.864C90.1538 56.2178 89.7616 60.9802 89.8132 61.1706C89.9245 61.5794 90.7656 61.7358 91.0214 61.5906Z" fill="#EBEEFC"/>
<path d="M72.6172 58.1164C72.6121 57.434 73.3698 56.8996 74.1069 56.9592C74.4239 56.9852 74.659 57.1369 74.8602 57.3603C75.3334 57.8829 77.2308 62.7602 77.2602 63.0634C77.3443 63.9243 76.919 63.5468 76.3374 63.4613C76.0823 63.4236 75.1411 63.2393 74.9833 63.047C74.8779 62.9174 72.6231 58.9258 72.6172 58.1164Z" fill="#EBEEFC"/>
<path d="M79.8701 61.4234C79.8155 61.3076 79.7065 61.2265 79.5996 61.1536C79.4131 61.026 79.2192 60.9074 79.0202 60.7983C78.8404 60.7001 78.704 60.6212 78.4976 60.703L78.3435 60.8107C78.2816 60.8631 77.4686 61.5795 77.3853 61.5921L77.2394 61.5708L77.1325 61.5066C77.0536 61.441 76.3106 60.2749 75.3759 58.4159L73.5391 58.8478C74.3904 60.9022 74.4671 61.441 74.616 61.9607C74.6624 62.1213 74.8312 62.8239 74.986 63.047C75.4578 63.726 75.9641 63.9877 76.357 64.0888C77.8113 64.4622 79.7853 62.1752 79.8686 61.8795C79.9106 61.73 79.9364 61.5648 79.8701 61.4234Z" fill="#EBEEFC"/>
<path d="M87.0131 44.2308C87.1495 44.2073 87.288 44.2101 87.4133 44.2654C87.6271 44.3593 87.7561 44.5891 87.7922 44.82C87.8541 45.217 87.7635 45.6144 87.7163 46.0088C87.7045 46.1068 87.6957 46.2055 87.692 46.3042L87.7244 46.5432C87.7966 46.5939 87.9934 46.564 88.076 46.5542C88.2109 46.5389 88.3591 46.5035 88.4733 46.5764C88.5883 46.6501 88.6193 46.807 88.6023 46.9426L88.6037 47.0952C88.6325 47.1684 88.6878 47.1551 88.7364 47.1263L88.9141 47.0187L89.0652 46.8462C89.161 46.7333 89.245 46.6109 89.3202 46.4843C89.6416 45.9403 89.8053 45.3086 89.8156 44.6791C89.8384 43.2654 88.8566 43.0109 88.8566 43.0109C88.8566 43.0109 88.418 42.2827 87.2807 42.3475C86.6821 42.3815 86.0976 42.5819 85.5949 42.9018L85.5352 42.9409C85.2912 43.1031 85.0605 43.2948 84.9035 43.5425C84.473 44.2219 85.0664 44.7572 85.7733 44.6377C86.1064 44.5819 86.4123 44.424 86.73 44.3092C86.8207 44.2766 86.9173 44.247 87.0131 44.2308Z" fill="#15151A"/>
<path d="M85.0398 46.3878C85.101 46.2092 85.2352 45.9956 85.2308 45.8061C85.2286 45.6446 85.1342 45.5047 85.0804 45.3573C84.9603 45.0299 84.9823 44.6481 85.0229 44.4883C85.2949 44.6282 85.53 44.6622 85.8654 44.6054C86.1838 44.5508 86.4757 44.4005 86.7794 44.2914C86.8664 44.2606 86.9578 44.2317 87.0507 44.2162C87.1804 44.194 87.3124 44.1964 87.4332 44.2493C87.6374 44.3391 87.7598 44.5583 87.7944 44.7794C87.8711 45.2637 87.7074 45.7514 87.6979 46.2337C87.6971 46.306 87.7015 46.3817 87.7377 46.4436C87.7915 46.5381 87.8711 46.5505 87.9485 46.5248C88.421 46.0552 88.1821 45.6956 88.673 45.6579C89.074 45.6277 89.1802 46.1246 88.9089 46.5116C88.8293 46.6242 87.9787 47.7065 87.176 48.1488C86.9062 48.2968 86.1691 48.4862 86.0077 48.4787C85.8779 48.4739 85.7497 48.4612 85.6406 48.3918C85.2013 48.1119 85.4312 47.5294 85.1784 47.1373C85.1246 47.0555 85.0583 46.9794 85.0214 46.8882C84.9565 46.7313 84.986 46.549 85.0398 46.3878Z" fill="#FFC7AD"/>
<path d="M8.345 68.049C5.7467 66.0389 3.74029 62.9491 2.21005 58.6031C-2.26051 45.9006 0.172678 30.7168 8.40986 19.9204L8.6428 20.098C0.464584 30.8178 -1.95239 45.894 2.48647 58.5058C3.9968 62.7971 5.97227 65.8429 8.52413 67.8178L8.345 68.049Z" fill="#35353F"/>
<path d="M9.00113 21.8693L8.22127 20.4142L6.63281 19.9653L10.0744 18.11L9.00113 21.8693Z" fill="#35353F"/>
<path d="M78.295 19.882C77.3913 19.882 76.495 20.1282 75.721 20.7002C75.1741 21.1049 74.7665 21.7484 74.6817 22.3403C74.6264 22.7272 74.706 23.0641 74.9175 23.342C75.3539 23.9147 76.2215 23.9722 76.8149 23.7349C77.3839 23.5078 77.8896 23.0479 78.4063 22.2865C78.8832 21.5862 79.2422 20.8211 79.4898 20.0206C79.097 19.9307 78.6952 19.882 78.295 19.882ZM82.565 35.9709L82.313 35.8207C83.6198 33.6344 84.3938 31.1745 84.5508 28.7081C84.657 27.0371 84.5258 23.9029 82.4501 21.6931C81.7624 20.9619 80.807 20.3855 79.7729 20.0928C79.5178 20.9258 79.1441 21.7226 78.6495 22.4516C78.0982 23.2631 77.5498 23.7577 76.924 24.0076C76.2112 24.2914 75.2139 24.2147 74.6846 23.5196C74.4274 23.182 74.3264 22.7597 74.392 22.299C74.4863 21.6326 74.9404 20.9132 75.547 20.4643C76.7419 19.582 78.2088 19.425 79.5709 19.742C80.5152 16.3004 79.4338 12.2869 76.6535 9.98781C75.0915 8.69713 73.0623 7.86346 70.4492 7.43962L70.4964 7.15068C73.1618 7.58263 75.2367 8.43693 76.8399 9.76225C79.7058 12.1313 80.8225 16.2658 79.8532 19.8142C80.9404 20.1216 81.9422 20.7253 82.6631 21.4926C84.8154 23.7828 84.9525 27.0084 84.8435 28.7273C84.6835 31.2394 83.8955 33.7441 82.565 35.9709Z" fill="#35353F"/>
<path d="M71.7944 5.95214L70.9711 7.38286L71.4288 8.96912L68.0352 7.02758L71.7944 5.95214Z" fill="#35353F"/>
</svg>
