<svg width="98" height="90" viewBox="0 0 98 90" fill="none" xmlns="http://www.w3.org/2000/svg">
<path d="M24.3924 18.656C24.1487 20.1478 24.2977 21.4493 25.0978 22.3061C26.0996 23.3784 27.3145 23.7088 28.4329 23.2148C29.4177 22.7782 30.0744 21.7611 29.9951 20.7965C29.9424 20.1535 29.5189 18.9889 27.278 18.4106C26.3369 18.1677 25.3521 18.2535 24.3924 18.656ZM16.7473 37.4846L16.4258 37.4619C16.4468 37.1631 16.4647 36.861 16.4833 36.5508C16.591 34.7367 16.7125 32.6813 17.5685 29.0134C18.7379 24.0028 20.8323 20.3649 23.4651 18.7694C23.6838 18.6374 23.9049 18.5208 24.1268 18.4204C24.8573 14.4148 28.1308 9.28506 29.4363 7.36001C31.1524 4.8308 32.7324 2.96974 34.4088 1.50145L34.621 1.74362C32.9657 3.19328 31.4027 5.03569 29.7036 7.54061C28.4288 9.4195 25.2412 14.4026 24.4605 18.2827C25.4242 17.9182 26.409 17.8543 27.3582 18.0988C29.1358 18.5572 30.2146 19.5307 30.3158 20.7698C30.4081 21.885 29.6873 23.0115 28.5624 23.5088C27.3306 24.0546 25.9474 23.6869 24.863 22.5264C24.0304 21.6355 23.849 20.3138 24.0644 18.8067C23.9195 18.8788 23.7753 18.9581 23.632 19.0448C21.1109 20.5722 19.0149 24.232 17.8819 29.0871C17.0324 32.7275 16.9117 34.7683 16.8048 36.5694C16.7862 36.8812 16.7684 37.1842 16.7473 37.4846Z" fill="#35353F"/>
<path d="M34.5654 3.74805L34.1006 1.99465L32.5156 1.11191L36.6646 -3.60012e-05L34.5654 3.74805Z" fill="#35353F"/>
<path d="M75.8721 32.6206L75.5781 32.4886C75.898 31.7735 76.9995 29.4071 77.713 28.9746C78.2045 28.6766 78.6451 29.0912 78.9666 29.3941C79.1983 29.6128 79.3967 29.7877 79.4833 29.7334C80.1685 29.2945 80.8188 27.6537 81.448 26.0663C82.1429 24.3146 82.7989 22.6609 83.6468 22.1102C84.1854 21.7611 84.6924 22.2171 85.0625 22.5507C85.4124 22.865 85.6132 23.0083 85.7314 22.9346C86.1396 22.6795 86.5194 21.5676 86.8855 20.4921C87.4783 18.7581 88.1489 16.7942 89.4633 16.2662C90.3485 15.9098 91.1211 16.058 91.8257 16.7189C92.3966 17.2542 92.8275 18.0398 93.2437 18.7994C94.0342 20.2426 94.4804 20.8864 95.1485 20.5763C95.6312 20.3535 96.2386 19.095 96.5083 18.3548L96.8104 18.465C96.8031 18.4852 96.0597 20.5107 95.2838 20.8686C94.2666 21.3392 93.6333 20.1819 92.9627 18.9574C92.557 18.2163 92.1391 17.4542 91.6054 16.9537C90.9931 16.3795 90.3501 16.2556 89.5832 16.565C88.4064 17.038 87.7601 18.9282 87.1908 20.5957C86.7705 21.8275 86.4077 22.8917 85.9023 23.2075C85.5549 23.4254 85.1953 23.1023 84.8478 22.7905C84.4275 22.4123 84.1295 22.1798 83.8226 22.3798C83.0605 22.8755 82.4231 24.4823 81.7485 26.1838C81.0998 27.8197 80.4292 29.5091 79.6574 30.0048C79.3513 30.1999 79.0436 29.9092 78.7455 29.6281C78.3932 29.2961 78.1438 29.0912 77.8798 29.2499C77.3752 29.5553 76.4827 31.2568 75.8721 32.6206Z" fill="#35353F"/>
<path d="M77.7247 32.2188V38.2442L80.8937 36.4148V30.3894L77.7247 32.2188ZM77.4023 38.8022V32.0334L81.216 29.8314V36.6002L77.4023 38.8022Z" fill="#35353F"/>
<path d="M82.9621 26.038V35.221L86.1319 33.3916L86.1312 24.2085L82.9621 26.038ZM82.6406 35.7791V25.8525L86.4535 23.6505L86.4543 33.577L82.6406 35.7791Z" fill="#35353F"/>
<path d="M93.4348 23.5922V29.1738L96.6046 27.3435V21.7627L93.4348 23.5922ZM93.1133 29.7318V23.406L96.9261 21.2047L96.9269 27.5298L93.1133 29.7318Z" fill="#35353F"/>
<path d="M88.2012 20.4272V32.197L91.371 30.3675L91.3702 18.5969L88.2012 20.4272ZM87.8789 32.755V20.241L91.6926 18.0389V30.5538L87.8789 32.755Z" fill="#35353F"/>
<path d="M30.4579 47.3148L30.4336 52.749C30.4441 49.55 32.5757 46.3591 36.8194 43.9449C45.2542 39.1456 58.8299 39.2307 67.1456 44.1336C71.2792 46.5705 73.3362 49.7379 73.3249 52.8964L73.35 47.4622C73.3605 44.3037 71.3043 41.1363 67.1708 38.7002C58.8542 33.7965 45.2792 33.7106 36.8437 38.5107C32.6008 40.9249 30.4693 44.1158 30.4579 47.3148Z" fill="#0749BB"/>
<mask id="mask0_1478_14925" style="mask-type:luminance" maskUnits="userSpaceOnUse" x="30" y="34" width="44" height="19">
<path d="M30.4548 47.3149L30.4297 52.7491C30.441 49.5501 32.5726 46.3592 36.8155 43.945C45.251 39.1458 58.8268 39.2308 67.1425 44.1337C71.2761 46.5706 73.3323 49.738 73.3218 52.8965L73.3469 47.4623C73.3574 44.3038 71.3012 41.1364 67.1676 38.7003C58.8511 33.7966 45.2761 33.7107 36.8406 38.5108C32.5977 40.925 30.4661 44.1159 30.4548 47.3149Z" fill="white"/>
</mask>
<g mask="url(#mask0_1478_14925)">
<path d="M30.4579 47.3149L30.4336 52.7491C30.4441 49.5501 32.5757 46.3592 36.8194 43.945C45.2542 39.1458 58.8299 39.2308 67.1456 44.1337C71.2792 46.5706 73.3362 49.738 73.3249 52.8965L73.35 47.4623C73.3605 44.3038 71.3043 41.1364 67.1708 38.7003C58.8542 33.7966 45.2792 33.7107 36.8437 38.5108C32.6008 40.925 30.4693 44.1159 30.4579 47.3149Z" fill="#1A1835"/>
</g>
<path d="M69.5309 57.7832C59.6587 63.4013 43.7642 63.2984 34.0272 57.5581C29.1915 54.7065 26.7845 50.9998 26.7967 47.3019L26.7813 53.1184C26.7683 56.8162 29.1753 60.523 34.011 63.3745C43.748 69.1149 59.6425 69.2169 69.5147 63.5997C74.4824 60.7732 76.9784 57.0373 76.9914 53.2909L77.0076 47.4752C76.9946 51.2209 74.4978 54.9568 69.5309 57.7832Z" fill="#D5D6E0"/>
<path d="M36.8434 38.5107C45.279 33.7106 58.8539 33.7965 67.1705 38.7002C71.3777 41.18 73.4299 44.4163 73.3432 47.6306H77.0031C77.0857 43.8809 74.682 40.1086 69.7774 37.2173C60.0436 31.4778 44.1451 31.3782 34.2737 36.9954C29.1602 39.9045 26.6739 43.7765 26.81 47.6306H30.4698C30.3361 44.3264 32.4604 41.0043 36.8434 38.5107Z" fill="#F4F4FB"/>
<path d="M33.8652 58.7979C34.1543 58.6319 34.5527 58.6562 34.9925 58.9121C35.8639 59.4199 36.5669 60.646 36.5604 61.6503C36.5572 62.1491 36.3798 62.5006 36.0947 62.6642L23.9249 69.6809C24.2099 69.5157 24.3873 69.165 24.3905 68.6661C24.397 67.6619 23.6949 66.4358 22.8226 65.928C22.3829 65.6721 21.9844 65.647 21.6953 65.8138L33.8652 58.7979Z" fill="white"/>
<path d="M22.8227 65.9279C23.6949 66.4357 24.3971 67.6619 24.3906 68.6661C24.3841 69.6711 23.6715 70.0736 22.7992 69.5666C21.9262 69.058 21.224 67.8319 21.2305 66.8269C21.237 65.8226 21.9497 65.4201 22.8227 65.9279Z" fill="#0871F7"/>
<path d="M24.9133 62.3742C25.3879 62.1021 26.0439 62.1451 26.7647 62.567C28.1966 63.406 29.3449 65.4242 29.3303 67.0763C29.3222 67.8967 29.0291 68.4725 28.5602 68.7406L5.29839 82.9432C5.86125 82.6209 6.21275 81.9309 6.22246 80.9461C6.24028 78.9635 4.86189 76.542 3.14335 75.5354C2.27841 75.0284 1.49202 74.9766 0.921875 75.3038L24.9133 62.3742Z" fill="#133AA5"/>
<path d="M3.1449 75.5354C4.86344 76.5421 6.24183 78.9636 6.22402 80.9461C6.20539 82.9287 4.79783 83.7183 3.0793 82.7116C1.36076 81.705 -0.0184404 79.2835 0.000186475 77.3009C0.0180035 75.3184 1.42637 74.5279 3.1449 75.5354Z" fill="#185BCC"/>
<path d="M33.0781 12.4622L33.1283 41.585L52.0541 47.4015L52.0039 18.2787L33.0781 12.4622Z" fill="#E7E6F1"/>
<path d="M52.0039 18.2787L52.0541 47.4015L73.4807 46.7317L73.4297 17.609L52.0039 18.2787Z" fill="#CED4F1"/>
<path d="M36.9541 9.42358C35.4405 10.2974 34.1326 11.3162 33.0781 12.4622L52.0039 18.2787L73.4297 17.6089C72.8296 10.7558 62.75 5.50062 50.9162 5.87073C45.4974 6.03999 40.6212 7.30659 36.9541 9.42358Z" fill="#F4F4FB"/>
<path d="M33.079 27.4334C29.1455 31.7087 29.6298 36.4342 34.4096 40.3937L52.0048 33.2498L33.079 27.4334Z" fill="#4281EE"/>
<path d="M30.4414 33.3592L30.4925 47.5108C30.4989 49.9525 31.8287 52.3651 34.4608 54.5453L34.4098 40.3937C31.7785 38.2135 30.4487 35.8009 30.4414 33.3592Z" fill="#185BCC"/>
<path d="M34.4102 40.3937L34.4612 54.5453L52.0555 47.4015L52.0053 33.2499L34.4102 40.3937Z" fill="#133AA5"/>
<path d="M52.0039 23.9527L68.6531 31.7573C72.1647 29.2475 73.7116 26.5037 73.4297 23.2821L52.0039 23.9527Z" fill="#FFE042"/>
<path d="M52.0039 23.9526L52.0541 47.4014L68.7042 55.2069L68.6531 31.7572L52.0039 23.9526Z" fill="#FFCC00"/>
<path d="M73.5123 47.3625L73.4613 23.9137C73.4702 26.8308 71.9031 29.3543 68.6523 31.6778L68.7034 55.1267C71.9533 52.8032 73.5204 50.2797 73.5123 47.3625Z" fill="#FCAA2D"/>
<path d="M34.4102 47.9141L34.4612 54.5453C41.2414 60.1609 54.6147 61.515 64.3315 57.5693C65.3787 57.1442 66.2906 56.706 67.1417 56.2144C67.6811 55.9035 68.1954 55.5714 68.7056 55.207L68.6546 48.575C68.1452 48.9394 67.6301 49.2723 67.0915 49.5833C66.2395 50.0748 65.3284 50.513 64.2805 50.9373C54.5645 54.883 41.1904 53.5289 34.4102 47.9141Z" fill="#E93C3C"/>
<path d="M34.4102 47.9141C41.1904 53.5289 54.5645 54.883 64.2805 50.9373C65.3284 50.513 66.2395 50.0748 67.0915 49.5832C67.6301 49.2723 68.1452 48.9394 68.6546 48.575L52.0053 40.7695L34.4102 47.9141Z" fill="#F65150"/>
<path d="M73.4982 47.535C73.4795 48.221 73.29 48.8705 72.9953 49.678C72.1238 52.0638 70.2198 54.4132 66.9601 56.2678C58.5278 61.0655 44.9528 60.9804 36.6331 56.0751C32.6396 53.72 30.5907 50.683 30.4684 47.6306H26.8086C26.9357 51.2183 29.3346 54.7914 34.0269 57.5579C43.7639 63.2983 59.6584 63.4011 69.5307 57.7831C74.4295 54.9963 76.9215 51.3244 77.0017 47.6306L73.4982 47.535Z" fill="#F4F4FB"/>
<path d="M6.91016 46.036L6.979 63.9033L11.6892 66.6406L11.6204 48.7733L6.91016 46.036Z" fill="#D22C2B"/>
<path d="M11.6211 48.7733L11.6899 66.6406L16.4309 63.9033L16.3621 46.036L11.6211 48.7733Z" fill="#E93C3C"/>
<path d="M6.91016 46.0361L11.6204 48.7734L16.3613 46.0361L11.6511 43.2988L6.91016 46.0361Z" fill="#F65150"/>
<path d="M0.855469 59.9665L0.925106 67.4011L5.63447 70.1384L5.56562 62.703L0.855469 59.9665Z" fill="#CED4F1"/>
<path d="M5.56641 62.703L5.63525 70.1384L10.3754 67.4011L10.3066 59.9665L5.56641 62.703Z" fill="#E7E6F1"/>
<path d="M0.855469 59.9665L5.56562 62.703L10.3058 59.9665L5.59643 57.2291L0.855469 59.9665Z" fill="#F4F4FB"/>
<path d="M83.6865 63.2092C83.493 63.2667 83.2079 63.1137 83.3529 62.9865C83.2476 62.9881 83.1366 62.9233 83.1212 62.8213C83.101 62.6885 83.2338 62.5864 83.3294 62.4885C83.4614 62.354 83.5415 62.1815 83.6201 62.0122C83.7853 61.6559 83.7772 61.2048 83.71 61.2218C83.5432 61.2672 83.3771 61.3741 83.3302 61.5385C83.3026 61.6332 83.3188 61.7377 83.2832 61.83C83.2532 61.9061 83.1917 61.9669 83.1309 62.0228L83.0589 62.0689L82.9261 61.9726C82.8896 61.8867 82.888 61.792 82.8872 61.6988C82.8848 61.4713 82.8872 61.2283 83.0135 61.0356L83.156 60.8566L83.3091 60.6581C83.3844 60.5804 83.8566 60.1398 84.0769 60.0143C84.8017 59.1972 85.3897 59.4523 85.6326 60.0815C85.7492 60.3836 85.6634 61.1611 85.5792 61.5822L85.5743 61.6203L85.5557 61.6956L85.5549 61.6996L85.5533 61.7037C85.4067 62.286 85.0285 63.4676 84.5166 63.3105L84.4972 63.1979C83.9254 63.5146 84.0583 63.0991 83.6865 63.2092Z" fill="#FFC7AD"/>
<path d="M89.7498 80.7064L89.7538 80.5355C89.7919 79.9499 89.5668 79.4559 89.3538 78.9157C89.2744 78.7141 89.1877 78.5027 89.0176 78.3675C88.6313 78.0597 88.0191 78.3294 87.7737 78.7586C87.6603 78.957 87.598 79.1806 87.4959 79.3863C87.3024 79.775 86.912 80.2391 86.4423 80.2601C85.8114 80.2885 85.102 80.0714 84.463 80.0333C84.2143 80.018 83.956 80.0091 83.7244 80.103C83.1793 80.3233 83.0222 81.2028 83.2166 81.6944C83.3372 81.9973 83.6102 82.2167 83.905 82.3569C84.3463 82.5674 84.9286 82.6889 85.417 82.6525C85.9402 82.6136 86.4407 82.6654 86.9201 82.8922C87.7445 83.2809 88.7018 83.8397 89.5335 83.0817C89.7562 82.8792 89.8648 82.5763 89.8907 82.2767C89.9369 81.7462 89.7562 81.2328 89.7498 80.7064Z" fill="#262028"/>
<path d="M94.2713 79.5013C94.2073 79.3005 94.064 79.3556 93.9069 79.311C93.7117 79.2543 93.5287 79.1158 93.3788 78.9838C93.1853 78.8129 93.0184 78.6137 92.8394 78.4283C92.3746 77.9488 91.8215 77.5536 91.2157 77.271C91.0302 77.1843 90.8359 77.1074 90.6318 77.0879C90.2438 77.0515 89.8705 77.2264 89.5198 77.3965C89.1804 77.5617 89.1813 77.7796 89.1634 78.1181C89.1553 78.2792 89.1602 78.4428 89.2007 78.5991C89.2825 78.9134 89.5012 79.1733 89.7239 79.409C89.9814 79.6827 90.2592 79.9451 90.5921 80.1176C90.865 80.2577 91.1695 80.3347 91.4246 80.5047C91.5963 80.6189 91.738 80.7712 91.8627 80.934C91.9607 81.0636 92.0344 81.2296 92.1729 81.3203C92.4604 81.5082 92.8014 81.6604 93.1464 81.6847C93.8259 81.7333 94.3887 81.3211 94.4154 80.6197C94.4243 80.3679 94.3806 80.1176 94.3361 79.8706C94.3085 79.7151 94.3005 79.5928 94.2713 79.5013Z" fill="#262028"/>
<path d="M89.0211 60.1447C89.1636 59.9568 89.4236 59.9131 89.656 59.8718C90.678 59.6896 91.6766 59.2838 92.6825 59.04C93.1344 58.9307 93.5871 58.8554 94.0447 58.8457L95.0408 57.9475C95.1639 58.8133 95.2368 59.6936 95.1372 60.5626C94.9201 62.4553 94.4342 68.0101 94.3054 70.0923C94.2455 71.0601 94.2989 72.0344 94.3451 73.0013C94.388 73.9092 94.3508 74.8324 94.418 75.7354C94.4885 76.6846 94.5986 77.624 94.5929 78.5773C94.5913 78.9061 94.6812 80.0869 94.3678 80.2901C93.9839 80.5396 93.5231 80.61 93.0914 80.6246C92.5675 80.6424 91.9949 80.4894 91.658 80.065C91.3203 79.6406 91.2393 76.3955 91.2045 75.9071C91.1267 74.8122 91.0506 73.7205 90.9745 72.6296C90.9372 72.0846 90.8935 71.5403 90.8465 70.9969C90.8198 70.6965 90.7922 70.3968 90.7631 70.0971C90.7388 69.8412 90.7866 69.3432 90.6651 69.1213C90.1443 68.1648 89.6973 67.1371 89.6204 66.5726C89.511 65.7708 89.5054 63.7729 89.4228 62.9679C89.3474 62.2317 89.0786 61.5523 88.9474 60.8258C88.9052 60.5942 88.8793 60.3326 89.0211 60.1447Z" fill="#15151A"/>
<path d="M87.0174 71.4043L87.0198 71.5112C87.0368 72.4628 87.0733 73.4144 87.1 74.3659C87.1146 74.8713 87.0012 78.5748 86.9972 79.2365C86.9939 79.7256 86.9146 80.2472 86.9672 80.7347C87.0012 81.0457 87.1656 81.3259 87.441 81.4515C88.9166 82.1253 89.7661 81.3049 89.9605 80.9672C90.9728 79.2025 90.7007 72.7818 90.7712 71.0439C90.7882 70.6057 90.7412 70.7669 90.7671 70.3288C90.7881 69.9789 90.9291 69.4792 90.8303 69.1407C90.64 68.4912 89.7807 68.8597 89.3595 69.0046C88.7481 69.2152 87.9836 69.3189 87.4588 69.7246C86.934 70.1303 86.9996 70.8058 87.0174 71.4043Z" fill="#2E2E37"/>
<path d="M86.8848 58.8279C87.4379 58.3282 89.1427 58.9404 89.7841 58.9777C90.3753 59.0125 90.9689 59.019 91.561 59.0133C91.8242 59.0109 92.1611 59.0603 92.4154 58.9988C92.6365 58.9445 92.8114 58.772 93.043 58.7169C93.2244 58.674 93.7338 58.2974 93.8772 58.4165C94.0967 58.5987 93.793 59.33 93.7322 59.6086C93.1904 62.0811 91.5658 65.3505 91.0815 67.8271C90.8774 68.8678 90.9195 69.9401 90.8118 70.9961C90.7989 71.1265 90.7827 71.2585 90.7308 71.3792C90.6409 71.5881 90.4547 71.7388 90.2652 71.8635C89.7995 72.172 89.269 72.3794 88.7191 72.4773C88.4252 72.53 88.1247 72.5502 87.8258 72.5381C87.5999 72.5292 87.31 72.4215 87.1034 72.5357C86.9747 71.6529 87.0686 70.7418 86.8848 69.8736C86.6912 68.9617 86.7325 67.9753 86.7018 67.0391C86.6329 64.9829 86.5868 61.7385 86.641 59.6815C86.6483 59.4255 86.6596 59.1567 86.7933 58.938L86.8848 58.8279Z" fill="#2E2E37"/>
<path d="M86.1536 47.6704L86.1544 47.6056C86.1633 47.2363 86.1633 46.807 86.3779 46.4847C86.565 46.2029 86.9294 46.0571 87.2056 45.8814C88.1313 45.2893 89.1225 44.801 90.1567 44.4285C91.7303 43.8616 93.3363 42.7075 95.0151 43.655C95.186 43.7522 95.348 43.8656 95.4889 44.0025C96.353 44.8447 96.255 46.2029 96.119 47.2921C95.9449 48.6948 95.5286 50.053 95.284 51.4427C95.233 51.7334 95.19 52.0242 95.1528 52.3165C95.0264 53.3256 95.1172 54.3631 94.9803 55.3633C94.8604 56.2331 94.952 57.2519 95.0661 58.1257C95.1139 58.4893 95.0572 59.0255 95.0572 59.0255C95.0572 59.0255 92.8852 59.5908 91.2404 59.6758C89.1817 59.7827 88.4309 59.6547 88.2236 59.5203C87.6437 59.1445 86.6662 59.0554 86.6978 58.4942C86.833 56.1229 86.6192 53.0325 86.3836 50.6749C86.2832 49.6756 86.1374 48.6762 86.1536 47.6704Z" fill="#CED4F1"/>
<path d="M86.6989 58.4942C86.6722 58.8854 86.6406 59.7301 86.6406 59.7301C86.6406 59.7301 89.122 60.2719 91.1815 60.165C92.8264 60.08 95.175 59.2636 95.175 59.2636L95.0446 57.9306C92.185 59.0352 89.0532 59.0927 86.6989 58.4942Z" fill="#15151A"/>
<path d="M87.6708 46.3016C87.3776 46.2222 87.0601 46.223 86.7394 46.3243C85.77 46.6288 85.8405 47.4119 85.8607 48.2331C85.8899 49.3726 85.9571 50.5283 85.7635 51.6581C85.6007 52.6056 85.1553 53.4948 84.9115 54.4238C84.5593 55.7633 84.045 57.2316 83.9551 58.6181C83.9041 59.4012 84.1802 60.3747 85.0023 60.6694C86.1272 61.072 86.6212 59.4887 86.8917 58.6958C87.265 57.6065 87.5225 56.4954 87.9421 55.4223C88.5195 53.9459 88.9018 52.4031 89.0751 50.828C89.1828 49.8569 89.5156 48.2072 89.0046 47.2985C88.7503 46.8458 88.134 46.4271 87.6708 46.3016Z" fill="#EDECF8"/>
<path d="M89.7371 43.0613C89.6764 42.6451 89.3621 42.7423 89.5209 42.3649C89.6561 42.0441 89.861 41.7494 90.1355 41.5372C90.4109 41.325 90.7583 41.1987 91.105 41.2181C91.2248 41.2246 91.3042 41.2934 91.4224 41.2934C91.7504 41.295 92.0792 41.2318 92.4064 41.2796C92.7312 41.3266 93.0324 41.3501 93.0324 41.7169C93.0316 42.2061 93.0097 42.6775 93.1661 43.1585C93.2495 43.4153 93.3766 43.6631 93.3985 43.9327C93.443 44.4616 92.4421 44.5474 91.9634 44.7783C91.3747 45.0633 89.6877 44.4762 89.7177 44.2292C89.7622 43.8558 89.7922 43.4363 89.7371 43.0613Z" fill="#FFC7AD"/>
<path d="M88.3408 37.7397C88.1432 37.9803 87.9893 38.2508 87.9423 38.5674C87.8362 39.2736 88.1205 39.9992 87.9674 40.6998C87.8192 41.3784 88.11 42.9204 89.4487 43.3157C90.1265 43.5157 91.4628 43.2817 91.8928 43.0751C92.4695 42.799 92.8509 42.2401 93.1919 41.6983C95.9883 37.2578 90.2375 35.4316 88.3408 37.7397Z" fill="#FFC7AD"/>
<path d="M94.0088 36.8667C93.8728 36.7274 93.7068 36.6075 93.5035 36.5136L93.3334 36.4067L93.263 36.2731C93.1674 36.0682 92.9771 35.9232 92.7803 35.8139C92.0344 35.3984 91.129 35.379 90.2843 35.5005C89.9992 35.541 89.7133 35.5976 89.4477 35.7118C89.1456 35.8414 88.8783 36.0423 88.637 36.265C88.2952 36.58 87.9705 36.9509 87.7931 37.3858C87.7105 37.5883 87.6943 37.8021 87.6352 38.0078C87.5826 38.1925 87.6474 38.4103 87.8012 38.5277L88.0142 38.6573C88.2985 38.8485 88.3511 39.2906 88.4734 39.5895C88.5511 39.7782 88.7042 39.881 88.748 40.0843C88.7941 40.2957 88.7901 40.5168 88.8565 40.7233C88.8889 40.8221 88.9545 40.9274 89.0573 40.9339L89.178 40.8982C89.2971 40.8245 89.3586 40.6852 89.3983 40.5508C89.4379 40.4163 89.4631 40.2738 89.5384 40.1548L89.5821 40.1118L89.6323 40.1111C89.7757 40.1394 89.8704 40.2463 89.9385 40.3678C90.0219 40.5144 90.0664 40.6796 90.1101 40.8423C90.179 41.0983 90.1879 41.3153 90.2195 41.5696C90.2527 41.828 90.3256 42.1041 90.5062 42.2993C90.9119 42.7366 91.6942 42.7123 92.2223 42.5949C92.4134 42.5528 92.6054 42.5082 92.7819 42.4232C93.1901 42.2264 93.4679 41.8417 93.7278 41.4716C93.9651 41.1331 94.2057 40.7873 94.3304 40.3937C94.4008 40.171 94.4332 39.9393 94.4656 39.7085C94.5952 38.7715 94.6932 37.5713 94.0088 36.8667Z" fill="#15151A"/>
<path d="M89.8534 39.6874C90.3798 39.5724 90.6114 40.2123 90.3223 40.7759C90.2381 40.9395 90.0696 41.0999 89.9481 41.2384C89.1164 42.1891 88.7471 41.3485 89.0087 41.0278C89.6161 40.2827 89.1917 39.8316 89.8534 39.6874Z" fill="#FFC7AD"/>
<path d="M89.8551 44.1912C90.2334 44.0641 90.6431 44.073 91.0416 44.1054C91.3315 44.1288 91.6223 44.1645 91.9138 44.158C92.2046 44.1507 92.501 44.0989 92.7545 43.958C93.0079 43.817 93.2039 43.5854 93.2574 43.3036C93.4501 43.438 93.6113 43.6259 93.6793 43.8486C93.7482 44.0713 93.7312 44.32 93.6226 44.5265C93.4582 44.8375 93.1788 45.0124 92.8646 45.1582C92.5325 45.3121 92.1754 45.4133 91.811 45.4554C91.2352 45.521 90.6423 45.4384 90.1078 45.2181C89.9434 45.1501 89.7831 45.0691 89.6138 45.0148C89.5142 44.9824 89.4097 44.9606 89.3052 44.9565L89.0672 44.9468C89.0088 44.8674 89.1716 44.6877 89.2162 44.6302C89.2907 44.533 89.3822 44.4487 89.4826 44.3783C89.5968 44.2989 89.7231 44.2349 89.8551 44.1912Z" fill="#F4F4FB"/>
<path d="M77.3665 51.4775C77.2548 51.3731 77.1722 51.2411 77.0685 51.1285C76.9284 50.977 76.7535 50.8645 76.5802 50.7527C76.0861 50.436 75.5913 50.1186 75.0973 49.8011C75.0163 49.7493 74.9062 49.6975 74.8308 49.7582L74.775 49.8691C74.7555 49.9979 74.8179 50.1283 74.9062 50.2247C74.9944 50.3219 75.107 50.3923 75.2139 50.4684C75.3913 50.5956 75.5549 50.7422 75.7007 50.905L75.7282 50.9552L75.6521 51.0224C75.4917 51.0686 75.324 51.0823 75.158 51.0742C75.0714 51.071 74.9855 51.0613 74.8997 51.0483C74.8219 51.0362 74.7442 51.0475 74.6689 51.0297C74.2591 50.9325 73.8631 50.7624 73.4428 50.7349C73.3026 50.7252 73.0645 50.8086 73.2257 50.9754C73.3585 51.1131 73.5521 51.1706 73.7343 51.2281C73.9562 51.2994 74.1749 51.3787 74.3911 51.467L74.5441 51.5302L74.6357 51.5577C74.7361 51.6784 74.3506 51.6784 74.3036 51.6824C74.1166 51.7003 73.9295 51.7164 73.7424 51.7343C73.5326 51.7529 73.301 51.7829 73.1593 51.9392L73.1172 52.0955L73.2637 52.1959C73.3698 52.2331 73.4865 52.2145 73.5974 52.1983C73.8695 52.1603 74.1457 52.1432 74.4202 52.1497C74.549 52.1521 74.6964 52.1489 74.8219 52.1748C74.9863 52.208 74.8568 52.3101 74.758 52.3311C74.5417 52.3773 74.319 52.4162 74.1173 52.5109C74.0331 52.5498 73.9141 52.6081 73.8525 52.6778C73.7756 52.7644 73.8623 52.8592 73.9546 52.881C74.0461 52.9021 74.1417 52.8818 74.234 52.8616C74.4567 52.813 74.6786 52.7636 74.9013 52.7142C74.9928 52.694 75.1086 52.6462 75.2026 52.6519L75.2771 52.7668C75.2034 52.8584 75.0859 52.9005 74.9912 52.9701L74.8268 53.1499L74.8155 53.2552L74.8997 53.2787C75.0641 53.2722 75.239 53.2487 75.384 53.1669C75.5395 53.0786 75.7363 53.0284 75.9064 52.9742C76.2554 52.86 76.6231 52.7814 76.9924 52.8154C77.2143 52.8365 77.4321 52.8972 77.6549 52.9045L77.8095 52.8746L77.9035 52.7191C77.9602 52.5247 77.9723 52.3174 77.9423 52.1165C77.9205 51.9699 77.8808 51.6743 77.7099 51.6379C77.5763 51.6087 77.4694 51.5739 77.3665 51.4775Z" fill="#FFC7AD"/>
<path d="M76.7766 51.9942C76.7337 52.2097 76.72 52.6381 76.9151 52.8049C77.0763 52.941 77.4634 52.9402 77.6594 52.9798C78.2765 53.107 78.8945 53.2155 79.5132 53.3248C79.7942 53.3743 80.0744 53.4237 80.3563 53.4642C81.1807 53.5816 82.0116 53.618 82.8345 53.5727C83.1536 53.5549 83.6824 53.537 83.9561 53.3556C84.2274 53.1758 84.2906 52.8438 84.2882 52.5053C84.2849 51.9019 84.0598 51.2856 83.522 50.9957C82.9827 50.7049 82.4101 50.7406 81.8399 50.7511C80.5215 50.7746 79.2087 50.8823 77.9113 51.0751C77.6805 51.1091 77.4456 51.1479 77.2423 51.2621C77.0099 51.3941 76.8382 51.6816 76.7766 51.9942Z" fill="#BFBEED"/>
<path d="M65.0276 44.9954L65.2341 44.9566L65.4261 45.0529C65.9946 45.4295 66.6247 45.9341 67.1308 46.3779L67.0912 46.3617L67.3009 46.5536L67.3374 46.5941C67.5471 46.62 67.7601 46.6613 67.9156 46.7893C68.0233 46.8784 68.0913 47.0023 68.1448 47.1262C68.2347 47.3343 68.3861 47.9741 68.4088 48.1976C68.4145 48.2576 68.3027 48.4438 68.2152 48.473L68.1869 48.4568L68.1836 48.4762C68.046 48.6163 67.9366 48.7791 67.8629 48.9557C67.8022 49.1006 67.6451 49.0917 67.4936 49.1614C66.8028 48.5216 66.0059 48.2438 65.456 47.4963C65.3872 47.404 65.3224 47.2987 65.3297 47.1869C65.3362 47.0744 65.4471 46.9618 65.567 46.9853C65.4998 46.8889 65.5062 46.7544 65.5816 46.6637C65.6569 46.573 65.7962 46.5317 65.9152 46.5649C65.8731 46.4686 65.9185 46.352 66.0076 46.2888L66.1509 46.2313C65.8367 46.0013 65.5483 45.7737 65.2309 45.47C65.1272 45.3704 64.9604 45.2497 64.9734 45.112L65.0276 44.9954Z" fill="#FFC7AD"/>
<path d="M82.5175 86.5035C82.477 86.3747 82.3944 86.3051 82.1612 86.2864C81.885 86.2637 81.6072 86.2508 81.3302 86.2338C80.9553 86.2095 80.5811 86.186 80.2062 86.1617C80.2256 85.858 80.2337 85.5503 80.2669 85.249C79.8693 85.334 79.6481 85.2174 79.2667 85.0765C78.8172 84.9105 78.3613 84.7606 77.9021 84.6262C77.7053 84.5695 77.4996 84.5153 77.2987 84.5558C76.7926 84.6594 76.5164 85.4928 76.5844 85.9301C76.6322 86.2395 76.8411 86.5035 77.0873 86.697C77.4566 86.9878 77.9758 87.2251 78.4407 87.2947C78.9387 87.3692 79.3955 87.5247 79.7972 87.839C80.3163 88.2447 80.6864 88.6739 81.374 88.7225C82.0648 88.7727 82.6374 88.3532 82.6641 87.6397C82.6738 87.3838 82.6285 87.1295 82.5839 86.8776C82.5556 86.7197 82.5475 86.5958 82.5175 86.5035Z" fill="#B4A4F5"/>
<path d="M80.4181 87.3586L80.423 87.1942C80.4594 86.633 80.2432 86.1584 80.0383 85.6393C79.9622 85.4457 79.8788 85.2424 79.716 85.1137C79.3459 84.8181 78.7579 85.0764 78.5222 85.4887C78.4137 85.679 78.353 85.8944 78.255 86.0912C78.0687 86.4645 77.6954 86.91 77.2443 86.9302C76.6385 86.9578 75.9574 86.7488 75.3435 86.7124C75.1046 86.6978 74.8568 86.6897 74.6341 86.7796C74.1109 86.991 73.9602 87.8357 74.1473 88.307C74.2623 88.5977 74.5247 88.8083 74.8073 88.9435C75.2317 89.1452 75.7905 89.2618 76.2594 89.227C76.7616 89.1889 77.2418 89.2391 77.7026 89.457C78.4939 89.8303 79.413 90.3665 80.2116 89.6392C80.4254 89.4449 80.5299 89.1533 80.5541 88.8658C80.5987 88.3564 80.4254 87.864 80.4181 87.3586Z" fill="#BFBEED"/>
<path d="M82.084 64.1074C81.7026 64.4921 80.2651 63.7835 80.2456 63.5948C78.536 62.269 78.7385 67.5623 79.2301 69.6647C79.4933 70.7986 79.4244 71.9785 79.5815 73.1302C79.7565 74.413 80.0269 75.6837 80.3906 76.9268C80.4683 77.1957 80.5566 77.4727 80.7486 77.6768C81.1446 78.0971 81.8151 78.0566 82.3845 77.9634C82.8785 77.8824 83.4308 77.7432 83.6738 77.3058C83.8236 77.0361 83.8196 76.7122 83.8171 76.4037C83.805 74.5644 83.6422 72.6896 84.1119 70.8836C84.3322 70.0389 84.657 69.2209 84.81 68.3617C84.9987 67.3056 84.917 66.2261 84.7404 65.174C84.6278 64.5035 84.6327 62.9915 83.7904 62.8716C82.8777 62.742 82.3375 63.8507 82.084 64.1074Z" fill="#15151A"/>
<path d="M80.1741 75.7184L79.8906 74.5303C80.004 74.9223 80.0963 75.3191 80.1741 75.7184Z" fill="#6E4CB3"/>
<path d="M80.593 76.478C80.8862 76.0731 81.611 76.0941 81.8531 76.2019C82.0443 76.2869 83.3846 75.4349 83.7928 75.128C83.762 75.1507 83.9596 77.9415 83.9555 78.4865C83.9483 79.5531 83.8892 80.6197 83.7636 81.6798C83.6365 82.7618 83.4397 83.8349 83.1765 84.8925C83.0761 85.2967 82.9659 85.6992 82.8461 86.0984C82.7505 86.42 82.6298 86.7747 82.3269 86.9609C82.1763 87.0533 81.9973 87.0881 81.8224 87.1108C81.6499 87.1326 81.4741 87.1456 81.3024 87.1197C81.1194 87.0929 80.9218 87.0209 80.8003 86.8767C80.661 86.7123 80.5687 86.4977 80.5088 86.2928C80.4027 85.9284 80.393 85.5445 80.3897 85.1647C80.376 83.3838 80.4999 81.6037 80.5031 79.8212C80.5039 78.4476 80.431 77.0652 80.1719 75.7184L80.593 76.478Z" fill="#15151A"/>
<path d="M79.4423 64.4774C79.2779 64.3924 78.4381 63.9713 78.4445 63.7429C78.4494 63.5898 78.0356 63.4619 77.9295 63.4643C77.7367 63.4675 77.5424 63.5914 77.3869 63.7024C77.0038 63.9769 76.7211 64.3973 76.547 64.8484C76.3073 65.4671 76.2498 66.1466 76.2126 66.8147C76.1024 68.8062 76.1542 70.8082 76.3648 72.7907C76.4717 73.7917 76.6191 74.7887 76.807 75.7759C76.9001 76.2699 77.1107 78.1245 77.2249 78.6136C77.3342 79.0834 77.3253 77.8678 77.7197 78.1156C78.5668 78.6485 80.0926 78.578 80.6984 77.6199C81.2362 76.7696 80.7267 72.9746 82.106 71.371C82.7547 70.6178 83.1661 69.6743 83.4836 68.7317C83.9533 67.3346 83.8123 65.7522 83.1402 64.445C82.8923 63.9624 82.6834 63.5299 82.1148 63.4708C81.5123 63.4084 80.9057 63.6481 80.4797 64.0717C79.989 64.5592 80.0465 64.7884 79.4423 64.4774Z" fill="#2E2E37"/>
<path d="M76.6055 64.5965C76.6104 64.3916 76.7051 64.156 76.7221 63.981C76.7699 63.4781 76.8047 62.9744 76.825 62.4698C76.8663 61.4607 76.8517 60.4492 76.7821 59.4417C76.6954 58.1986 76.5253 56.9465 76.6873 55.7115C76.8031 54.8352 77.1076 53.9557 77.6672 53.2624C78.2965 52.485 79.2092 52.1327 80.1268 51.8015C81.2452 51.399 82.3199 50.7098 83.5347 50.6514C83.7826 50.6401 84.0571 50.6126 84.2636 50.7575C84.4701 50.9033 84.637 51.1123 84.7682 51.3261C85.0451 51.7772 85.1812 52.306 85.2589 52.8251C85.8129 56.5019 84.2822 60.1196 84.6791 63.8037C84.7034 64.0248 84.773 64.3106 84.6288 64.5066C84.4717 64.7204 84.0822 64.799 83.8482 64.8832C83.1719 65.1246 82.4722 65.2995 81.7628 65.4064C80.3439 65.6202 78.8821 65.5611 77.4875 65.2201C77.2364 65.1586 76.7699 65.063 76.6436 64.8006C76.6144 64.7391 76.6047 64.6702 76.6055 64.5965Z" fill="#CED4F1"/>
<path d="M76.7359 63.8061C79.2416 64.7731 82.4058 64.6063 84.6596 63.5437C84.6669 63.6304 84.6702 63.717 84.6791 63.8037C84.7034 64.0248 84.773 64.3106 84.6288 64.5066C84.4717 64.7204 84.0822 64.799 83.8482 64.8832C83.1719 65.1246 82.4722 65.2995 81.7628 65.4064C80.3439 65.6202 78.8821 65.5611 77.4875 65.2201C77.2364 65.1586 76.7699 65.063 76.6436 64.8006C76.6144 64.7391 76.6047 64.6702 76.6055 64.5965C76.6104 64.3916 76.7051 64.156 76.7221 63.981L76.7359 63.8061Z" fill="#15151A"/>
<path d="M77.1774 78.0371C77.2519 78.9012 77.3199 79.7645 77.3798 80.6295C77.4284 81.313 77.4714 81.9973 77.507 82.6817C77.5346 83.2089 77.558 83.7361 77.5758 84.2633C77.6762 87.1513 77.371 87.8008 78.7323 88.175C79.0377 88.2584 79.3616 88.2835 79.6685 88.2074C80.5553 87.9887 80.7084 87.2096 80.8177 86.2435C80.8793 85.7009 80.9068 85.0465 80.9246 84.4974C80.9392 84.0333 80.9497 83.5693 80.957 83.1052C80.9684 82.4768 80.9749 81.8491 80.9813 81.2207C80.9894 80.3922 80.9959 79.5637 81.0016 78.7352C81.0097 77.6759 81.038 75.3961 81.038 75.3961C81.038 75.3961 77.5386 76.2027 77.2146 76.5639C77.2146 76.5639 77.0859 76.9705 77.1774 78.0371Z" fill="#2E2E37"/>
<path d="M77.5421 52.8859C78.1414 53.0673 78.6889 53.3241 78.9302 53.9193C79.1538 54.47 79.2145 55.045 78.9553 55.6006C78.6848 56.178 78.1106 56.6024 77.4797 56.6907C76.891 56.7733 76.3014 56.5822 75.7377 56.3927C74.1568 55.8622 72.5825 55.4362 71.1069 54.6336C70.4922 54.2959 69.8638 53.844 69.6815 53.1669C69.5584 52.7094 69.6726 52.1959 69.978 51.8347C70.7182 50.9576 71.4479 51.4492 71.588 51.4849C75.9896 52.5887 77.6385 52.9159 77.5421 52.8859Z" fill="#CED4F1"/>
<path d="M67.5887 48.0696C67.3944 48.1724 67.0534 48.4324 67.0469 48.6883C67.0429 48.8997 67.2882 49.1993 67.3806 49.3767C67.6713 49.9355 67.9774 50.4838 68.2828 51.0321C68.4221 51.2815 68.5605 51.5301 68.7063 51.7739C69.1364 52.4882 69.5032 53.2382 70.058 53.848C70.2726 54.0845 70.7496 54.4003 71.0622 54.4983C71.3732 54.5955 71.6704 54.4351 71.9312 54.2197C72.3977 53.8358 72.7338 53.273 72.6196 52.6721C72.5038 52.0703 72.1159 51.6492 71.7482 51.2135C70.8978 50.2052 69.9859 49.2552 69.0173 48.37C68.8448 48.2129 68.6674 48.0542 68.4504 47.9692C68.201 47.872 67.8706 47.9198 67.5887 48.0696Z" fill="#CED4F1"/>
<path d="M79.6983 50.4118C79.6368 49.9882 79.3169 50.087 79.4789 49.7031C79.6157 49.3776 79.8239 49.0779 80.1041 48.8617C80.3827 48.6455 80.7366 48.5175 81.0889 48.5369C81.2104 48.5434 81.2922 48.6131 81.4128 48.6139C81.7449 48.6155 82.0801 48.5515 82.4122 48.5993C82.7434 48.6471 83.0488 48.6714 83.0488 49.0447C83.0488 49.542 83.0253 50.0214 83.1848 50.5098C83.2553 50.7268 83.333 50.8604 83.2699 51.0848C83.2164 51.2759 83.1168 51.4395 82.9702 51.5739C82.7872 51.7408 82.5604 51.8509 82.332 51.9465C81.6931 52.2137 80.9901 52.3903 80.309 52.2664C80.1138 52.2315 79.9105 52.1643 79.7591 52.0315C79.5842 51.8776 79.6441 51.7586 79.6692 51.5488C79.7154 51.169 79.7542 50.7932 79.6983 50.4118Z" fill="#FFC7AD"/>
<path d="M79.8325 51.5229C80.2099 51.3966 80.6205 51.4055 81.0182 51.4379C81.3089 51.4614 81.5996 51.497 81.8904 51.4905C82.1819 51.4832 82.4784 51.4314 82.7318 51.2905C82.9853 51.1496 83.1813 50.9179 83.2348 50.6361C83.4275 50.7697 83.5887 50.9584 83.6567 51.1811C83.7247 51.4039 83.7077 51.6525 83.5992 51.8582C83.4356 52.17 83.1554 52.3449 82.842 52.4907C82.5099 52.6446 82.1528 52.7458 81.7883 52.7879C81.2125 52.8535 80.6197 52.7709 80.0852 52.5498C79.92 52.4818 79.7604 52.4016 79.5904 52.3466C79.4908 52.315 79.3871 52.2923 79.2826 52.2891L79.0437 52.2793C78.9854 52.2 79.1482 52.0194 79.1935 51.9619C79.268 51.8655 79.3595 51.7813 79.46 51.7108C79.5733 51.6306 79.6997 51.5675 79.8325 51.5229Z" fill="#F4F4FB"/>
<path d="M78.2226 44.8342C77.9303 45.3533 77.8169 45.9275 77.8777 46.5705C77.8906 46.7017 77.9092 46.8289 77.9295 46.9593C77.9813 47.2864 77.9611 47.6306 77.8914 47.9538C77.74 48.6624 78.0347 50.27 79.3986 50.6806C80.0878 50.8887 81.4491 50.6433 81.8873 50.4287C82.0565 50.3453 82.2404 50.3178 82.4089 50.2182C82.5984 50.1072 82.7684 49.9647 82.9385 49.8245C83.1863 49.6205 83.4106 49.4131 83.6082 49.158C83.9038 48.7742 84.1873 48.3085 84.3363 47.8412C84.6012 47.0111 84.4756 46.1178 84.1468 45.3282C84.0132 45.0067 83.8642 44.7532 83.6568 44.4802C83.2487 43.9441 82.5077 43.5983 81.8776 43.4363C80.9908 43.2088 80.1226 43.1699 79.3087 43.6534C78.9807 43.8485 78.741 44.1199 78.5037 44.4187C78.3968 44.5531 78.3028 44.6916 78.2226 44.8342Z" fill="#FFC7AD"/>
<path d="M78.6138 46.935C78.4972 47.0095 78.3935 47.1027 78.3093 47.2112C78.1449 47.425 78.059 47.7012 78.0874 47.9692C78.1076 48.1587 78.1862 48.3393 78.4057 48.3304C78.5701 48.3239 78.7021 48.2106 78.8422 48.1409C79.9938 47.5643 80.8474 49.0925 82.7222 49.0714C83.0826 49.0674 83.4584 49.0026 83.7694 48.8115C84.4878 48.3709 84.6101 46.8467 84.4035 46.0369L84.3323 45.8045C84.2116 46.1252 83.8285 46.322 83.537 46.4523L83.5216 46.4588C83.0276 46.6783 82.4931 46.7771 81.9667 46.8767C81.4257 46.9796 80.8693 46.9966 80.3234 46.9269C79.7889 46.8589 79.1029 46.6232 78.6138 46.935Z" fill="#CFCDE2"/>
<path d="M79.2256 47.1641C79.7715 47.118 79.9221 47.7942 79.5561 48.3246C79.4484 48.4793 79.2572 48.6186 79.1163 48.7425C78.1509 49.5937 77.8893 48.6956 78.1955 48.4064C78.9073 47.7343 78.5389 47.2224 79.2256 47.1641Z" fill="#FFC7AD"/>
<path d="M92.3383 35.0446L92.0703 34.8664L94.7914 30.7595L95.0603 30.9377L92.3383 35.0446Z" fill="#35353F"/>
<path d="M93.2448 35.3271L93.0391 35.0793L95.9586 32.6546L96.1643 32.9024L93.2448 35.3271Z" fill="#35353F"/>
<path d="M93.943 36.1953L93.832 35.8932L97.3452 34.6063L97.4554 34.9092L93.943 36.1953Z" fill="#35353F"/>
</svg>
