<svg width="91" height="90" viewBox="0 0 91 90" fill="none" xmlns="http://www.w3.org/2000/svg">
<path d="M74.5863 56.5823L74.5836 57.5989L72.9961 58.5216L72.9987 57.505L74.5863 56.5823Z" fill="#383840"/>
<path d="M72.9995 57.505L72.9968 58.5216L55.5742 48.4622L55.5777 47.4465L72.9995 57.505Z" fill="#27272D"/>
<path d="M74.5874 56.5822L72.9999 57.5049L55.5781 47.4464L57.1657 46.5237L74.5874 56.5822Z" fill="#3E3E48"/>
<path d="M65.6823 53.1143L63.6658 51.9424L63.5781 18.1375L65.5946 19.3102L65.6823 53.1143Z" fill="#26262C"/>
<path d="M65.5946 19.3102L63.5781 18.1375L64.478 17.6183L66.4945 18.79L65.5946 19.3102Z" fill="#3E3E47"/>
<path d="M66.4937 18.79L66.5814 52.595L65.6815 53.1143L65.5938 19.3102L66.4937 18.79Z" fill="#383840"/>
<path d="M22.6655 63.8157L21.3218 63.035L21.2227 24.5367L22.5672 25.3173L22.6655 63.8157Z" fill="#CED4F1"/>
<path d="M22.5672 25.3174L21.2227 24.5368L63.7205 4.95911e-05L65.0651 0.781555L22.5672 25.3174Z" fill="#F4F4FB"/>
<path d="M65.0643 0.781509L65.1625 39.2798L22.6646 63.8157L22.5664 25.3173L65.0643 0.781509Z" fill="#F4F4FB"/>
<path d="M31.1223 81.6733L31.1188 82.6898L29.5312 83.6125L29.5348 82.596L31.1223 81.6733Z" fill="#383840"/>
<path d="M29.5346 82.596L29.5311 83.6125L12.1094 73.554L12.112 72.5375L29.5346 82.596Z" fill="#27272D"/>
<path d="M31.1234 81.6734L29.5359 82.5961L12.1133 72.5376L13.7008 71.6148L31.1234 81.6734Z" fill="#3E3E48"/>
<path d="M22.2174 78.2062L20.201 77.0335L20.1133 43.2294L22.1297 44.4012L22.2174 78.2062Z" fill="#26262C"/>
<path d="M22.1297 44.4012L20.1133 43.2294L21.0132 42.7093L23.0296 43.8811L22.1297 44.4012Z" fill="#3E3E47"/>
<path d="M23.0288 43.8811L23.1165 77.6869L22.2166 78.2062L22.1289 44.4012L23.0288 43.8811Z" fill="#383840"/>
<path d="M30.6669 41.048L26.1455 43.6582C25.3754 44.1029 24.75 43.7433 24.75 42.8531C24.75 41.9637 25.3754 40.8813 26.1455 40.4367L30.6669 37.8264C31.437 37.3818 32.0615 37.7422 32.0615 38.6325C32.0615 39.5219 31.437 40.6033 30.6669 41.048Z" fill="#185BCC"/>
<path d="M30.6669 48.0359L26.1455 50.6461C25.3754 51.0908 24.75 50.7303 24.75 49.8401C24.75 48.9507 25.3754 47.8683 26.1455 47.4237L30.6669 44.8134C31.437 44.3687 32.0615 44.7301 32.0615 45.6195C32.0615 46.5088 31.437 47.5912 30.6669 48.0359Z" fill="#185BCC"/>
<path d="M30.6669 31.5895L26.1455 34.1997C25.3754 34.6444 24.75 34.2839 24.75 33.3945C24.75 32.5042 25.3754 31.4228 26.1455 30.9781L30.6669 28.3679C31.437 27.9232 32.0615 28.2837 32.0615 29.173C32.0615 30.0624 31.437 31.1448 30.6669 31.5895Z" fill="#185BCC"/>
<path d="M42.4902 28.1609L37.9697 30.7711C37.1987 31.2167 36.5742 30.8562 36.5742 29.966C36.5742 29.0766 37.1987 27.9943 37.9697 27.5496L42.4902 24.9393C43.2612 24.4946 43.8857 24.8551 43.8857 25.7454C43.8857 26.6347 43.2612 27.7162 42.4902 28.1609Z" fill="#185BCC"/>
<path d="M42.4902 34.2225L37.9697 36.8327C37.1987 37.2774 36.5742 36.9169 36.5742 36.0275C36.5742 35.1382 37.1987 34.0558 37.9697 33.6112L42.4902 31.0009C43.2612 30.5563 43.8857 30.9167 43.8857 31.8061C43.8857 32.6963 43.2612 33.7778 42.4902 34.2225Z" fill="#185BCC"/>
<path d="M56.0058 17.6822L51.4853 20.2924C50.7143 20.7371 50.0898 20.3767 50.0898 19.4873C50.0898 18.597 50.7143 17.5156 51.4853 17.0709L56.0058 14.4607C56.7768 14.016 57.4013 14.3764 57.4013 15.2658C57.4013 16.1552 56.7768 17.2375 56.0058 17.6822Z" fill="#185BCC"/>
<path d="M62.3535 20.0794L57.8321 22.6896C57.062 23.1343 56.4375 22.7747 56.4375 21.8844C56.4375 20.9951 57.062 19.9127 57.8321 19.4681L62.3535 16.8578C63.1236 16.4132 63.749 16.7736 63.749 17.663C63.749 18.5532 63.1236 19.6347 62.3535 20.0794Z" fill="#185BCC"/>
<path d="M42.4902 40.2841L37.9697 42.8944C37.1987 43.3391 36.5742 42.9786 36.5742 42.0892C36.5742 41.1989 37.1987 40.1175 37.9697 39.6728L42.4902 37.0626C43.2612 36.617 43.8857 36.9783 43.8857 37.8677C43.8857 38.7571 43.2612 39.8394 42.4902 40.2841Z" fill="#185BCC"/>
<path d="M52.5644 25.3761L48.043 27.9864C47.2729 28.432 46.6484 28.0706 46.6484 27.1812C46.6484 26.2918 47.2729 25.2095 48.043 24.7648L52.5644 22.1546C53.3345 21.7099 53.959 22.0704 53.959 22.9598C53.959 23.85 53.3345 24.9314 52.5644 25.3761Z" fill="#185BCC"/>
<path d="M52.5644 39.3834L48.043 41.9936C47.2729 42.4383 46.6484 42.0778 46.6484 41.1884C46.6484 40.2982 47.2729 39.2167 48.043 38.772L52.5644 36.1609C53.3354 35.7162 53.9599 36.0776 53.9599 36.967C53.9599 37.8563 53.3354 38.9387 52.5644 39.3834Z" fill="#185BCC"/>
<path d="M57.2051 30.3308L52.6845 32.941C51.9135 33.3857 51.2891 33.0252 51.2891 32.135C51.2891 31.2456 51.9135 30.1642 52.6845 29.7186L57.2051 27.1083C57.976 26.6637 58.6005 27.0241 58.6005 27.9144C58.6005 28.8038 57.976 29.8852 57.2051 30.3308Z" fill="#185BCC"/>
<path d="M30.4909 39.6832L30.3672 39.4692L33.6975 37.5457V35.6846C33.6975 33.334 35.3535 30.465 37.3901 29.2897L37.5138 29.5037C35.5456 30.6395 33.9449 33.412 33.9449 35.6846V37.6887L30.4909 39.6832Z" fill="#185BCC"/>
<path d="M42.7135 32.6252L42.5898 32.4112L45.0922 30.9667C45.1247 29.2695 46.3166 27.2285 47.7779 26.3847L47.8963 26.3172L48.0199 26.5303L47.9015 26.5987C46.4885 27.4153 45.3386 29.4063 45.3386 31.0377V31.1096L42.7135 32.6252Z" fill="#185BCC"/>
<path d="M46.5052 41.1849C46.2807 41.1849 46.0728 41.1323 45.8886 41.0253C45.4457 40.7701 45.2019 40.2421 45.2019 39.5386C45.2019 38.9001 45.0028 38.4484 44.6397 38.2387C44.2774 38.0291 43.7854 38.0826 43.2565 38.3879L43.1328 38.1739C43.7424 37.8221 44.3213 37.7695 44.7633 38.0247C45.2054 38.28 45.4492 38.808 45.4492 39.5114C45.4492 40.15 45.6492 40.6025 46.0114 40.8113C46.3746 41.0209 46.8657 40.9674 47.3955 40.6622L47.5446 40.5762L47.6683 40.7902L47.5192 40.8762C47.1639 41.0814 46.8184 41.1849 46.5052 41.1849Z" fill="#185BCC"/>
<path d="M35.8284 42.2672C35.4609 42.2672 35.1215 42.1813 34.8206 42.0076C34.0953 41.5883 33.6953 40.7156 33.6953 39.55V37.6178H33.9427V39.55C33.9427 40.6235 34.2988 41.4208 34.9443 41.7936C35.5898 42.1664 36.4582 42.076 37.3879 41.5392L37.5116 41.7532C36.9204 42.0944 36.3468 42.2672 35.8284 42.2672Z" fill="#185BCC"/>
<path d="M33.0768 38.1887L32.9531 37.9747L38.2964 34.89L38.4201 35.104L33.0768 38.1887Z" fill="#185BCC"/>
<path d="M45.276 31.1448L45.1523 30.9317L54.1119 25.7586C54.7162 25.4095 55.2082 24.5569 55.2082 23.8588C55.2082 23.0817 55.7564 22.1335 56.4292 21.745L57.9711 20.8547L58.0948 21.0687L56.5528 21.959C55.9476 22.3089 55.4556 23.1606 55.4556 23.8588C55.4556 24.6359 54.9083 25.584 54.2355 25.9726L45.276 31.1448Z" fill="#185BCC"/>
<path d="M43.2565 26.1874L43.1328 25.9734L46.2711 24.1622C46.8613 23.821 47.3411 22.9904 47.3411 22.3097C47.3411 21.5502 47.8761 20.6231 48.534 20.2433L52.6896 17.8436L52.8133 18.0576L48.6576 20.4573C48.0673 20.7976 47.5885 21.6282 47.5885 22.3097C47.5885 23.0693 47.0525 23.9955 46.3947 24.3753L43.2565 26.1874Z" fill="#185BCC"/>
<path d="M50.1655 32.4253C49.7647 32.4253 49.3936 32.3314 49.0656 32.142C48.2727 31.685 47.8359 30.7299 47.8359 29.4546H48.0833C48.0833 30.6378 48.4762 31.5166 49.1893 31.928C49.9024 32.3402 50.8593 32.2411 51.8846 31.6491L54.3983 30.1983L54.522 30.4115L52.0083 31.8631C51.361 32.2367 50.7338 32.4253 50.1655 32.4253Z" fill="#185BCC"/>
<path d="M37.6543 51.1417L33.1337 53.7528C32.3628 54.1975 31.7383 53.837 31.7383 52.9467C31.7383 52.0574 32.3628 50.975 33.1337 50.5303L37.6543 47.9201C38.4252 47.4754 39.0497 47.8359 39.0497 48.7253C39.0497 49.6155 38.4252 50.697 37.6543 51.1417Z" fill="#185BCC"/>
<path d="M30.6108 53.2379C30.2109 53.2379 29.839 53.1432 29.5109 52.9546C28.718 52.4968 28.2812 51.5416 28.2812 50.2663V47.7298H28.5286V50.2663C28.5286 51.4495 28.9215 52.3284 29.6346 52.7397C30.3477 53.152 31.3046 53.0528 32.3299 52.4608L34.8437 51.0092L34.9673 51.2232L32.4536 52.6748C31.8063 53.0485 31.1792 53.2379 30.6108 53.2379Z" fill="#185BCC"/>
<path d="M28.5286 46.3579H28.2812V32.5182H28.5286V46.3579Z" fill="#185BCC"/>
<path d="M75.1964 72.7963C75.1569 72.6709 75.0762 72.6034 74.8482 72.5849C74.5789 72.5621 74.3088 72.5498 74.0378 72.5332C73.6729 72.5095 73.3071 72.4867 72.9414 72.463C72.9607 72.1674 72.9686 71.8666 73.001 71.5728C72.6125 71.6552 72.3967 71.5421 72.0248 71.4044C71.5863 71.2421 71.1425 71.0956 70.6934 70.9658C70.5022 70.9097 70.3013 70.8571 70.1049 70.8965C69.6119 70.9974 69.3418 71.8104 69.4084 72.2376C69.4549 72.5393 69.6593 72.7963 69.8996 72.9858C70.2592 73.2691 70.7662 73.5006 71.2196 73.5682C71.7047 73.641 72.1511 73.7927 72.5423 74.0988C73.0493 74.4953 73.4098 74.9136 74.0816 74.9619C74.7552 75.0101 75.3139 74.6014 75.3394 73.905C75.349 73.655 75.3052 73.4076 75.2613 73.1621C75.2341 73.0068 75.2253 72.8867 75.1964 72.7963Z" fill="#19121B"/>
<path d="M73.1459 73.6304L73.1502 73.4707C73.1853 72.9226 72.9748 72.4603 72.7749 71.9534C72.7003 71.7648 72.6196 71.5666 72.4608 71.4403C72.0995 71.1526 71.5259 71.4043 71.2961 71.8069C71.19 71.9928 71.1303 72.2016 71.0356 72.3945C70.854 72.7585 70.4891 73.1936 70.0488 73.2129C69.4577 73.2392 68.7937 73.0357 68.1947 72.9998C67.9614 72.9857 67.7202 72.9778 67.5035 73.0655C66.9931 73.2725 66.8457 74.0952 67.0281 74.5557C67.1404 74.8399 67.3965 75.0451 67.6719 75.1767C68.0859 75.374 68.6315 75.4881 69.0884 75.453C69.5787 75.417 70.0471 75.4653 70.4962 75.6775C71.268 76.0424 72.1644 76.5651 72.9441 75.8556C73.1529 75.6661 73.2546 75.3819 73.2783 75.1013C73.3213 74.604 73.1529 74.1233 73.1459 73.6304Z" fill="#19121B"/>
<path d="M74.7669 50.9478C74.3959 51.3232 72.9926 50.6312 72.9733 50.447C71.3059 49.1541 71.5042 54.3176 71.983 56.3691C72.24 57.4751 72.1725 58.6268 72.326 59.7503C72.497 61.0019 72.761 62.2413 73.1154 63.4543C73.1908 63.7157 73.2777 63.9867 73.4645 64.1849C73.8513 64.5954 74.5047 64.5559 75.0608 64.4647C75.5423 64.3858 76.0817 64.2498 76.3185 63.8235C76.465 63.5604 76.4606 63.2446 76.458 62.9438C76.4527 62.1518 76.4483 61.3335 76.6062 60.5555C76.7737 59.7249 76.943 58.8943 77.1114 58.0637C77.2579 57.3365 77.4053 56.6094 77.4789 55.8718C77.6114 54.5386 77.4991 53.194 77.2939 51.8731C77.1851 51.1802 77.4158 49.8821 76.4325 49.7418C75.5423 49.6155 75.0143 50.6969 74.7669 50.9478Z" fill="#15151A"/>
<path d="M72.9052 62.2755L72.6289 61.116C72.7394 61.4984 72.8306 61.8852 72.9052 62.2755Z" fill="#F4F4FB"/>
<path d="M73.3176 63.0157C73.6035 62.621 74.3105 62.6412 74.5473 62.7465C74.7332 62.8289 76.0866 62.0527 76.4848 61.7527L76.5111 62.1527C76.5199 62.2904 76.5287 62.4281 76.5357 62.5649C76.5506 62.8368 76.5629 63.1078 76.5734 63.3806C76.5927 63.9112 76.6015 64.4436 76.5979 64.9752C76.5909 66.0163 76.533 67.0565 76.4111 68.0906C76.2866 69.1458 76.0945 70.193 75.8375 71.2245C75.7402 71.6192 75.6323 72.0121 75.5156 72.4015C75.4226 72.7146 75.3051 73.0611 75.0095 73.2427C74.8622 73.3321 74.6876 73.3672 74.5166 73.3891C74.3482 73.4111 74.1772 73.4225 74.0096 73.3979C73.8307 73.3716 73.6386 73.3014 73.5193 73.1602C73.3843 72.9997 73.2939 72.7909 73.2352 72.591C73.1317 72.2357 73.122 71.8604 73.1194 71.4902C73.1062 69.7527 73.2273 68.016 73.2299 66.2785C73.2316 64.9374 73.1597 63.5885 72.9062 62.2755L73.3176 63.0157Z" fill="#15151A"/>
<path d="M72.194 51.3083C72.0343 51.2258 71.2143 50.8145 71.2213 50.5926C71.2257 50.4426 70.8222 50.318 70.7178 50.3198C70.5301 50.3233 70.3407 50.4452 70.1889 50.5531C69.8144 50.8206 69.539 51.2311 69.3688 51.6705C69.1355 52.2748 69.0794 52.9371 69.0434 53.5887C68.9356 55.5324 68.9864 57.4848 69.1917 59.4188C69.2961 60.3959 69.4399 61.3677 69.6232 62.3307C69.7144 62.8131 69.8153 63.2929 69.9267 63.7701C70.0337 64.2279 70.1284 64.3717 70.5134 64.6138C71.3397 65.1339 72.8281 65.0646 73.4193 64.1297C74.056 63.1236 73.7912 61.5563 73.9938 60.4248C74.2894 58.7803 75.384 57.5734 75.8874 56.0113C76.2567 54.8649 76.2067 53.7826 76.0128 52.6125C75.9216 52.0599 75.7506 50.7391 75.1875 50.4154C75.0384 50.3295 74.0253 50.0988 73.2061 50.9136C72.7272 51.3881 72.7834 51.6118 72.194 51.3083Z" fill="#2E2E37"/>
<path d="M77.8169 46.7685C77.8529 46.4781 77.8959 46.1896 77.9468 45.9019C78.1888 44.5231 78.6019 43.1759 78.7756 41.7839C78.9098 40.7033 79.0072 39.3561 78.1502 38.5211C78.0099 38.3843 77.8494 38.272 77.6801 38.1756C76.0145 37.2353 74.4217 38.3799 72.8596 38.943C71.8343 39.3123 70.8511 39.7973 69.9319 40.3841C69.6126 40.5885 69.2846 40.7288 69.0697 41.0472C68.8416 41.384 68.7197 41.7488 68.696 42.1567C68.6706 42.6189 68.7548 43.0794 68.832 43.5364C69.2811 46.1975 69.4793 48.9191 69.1583 51.5977C69.0197 52.7511 68.8829 55.9034 68.8829 55.9034C69.2662 56.07 69.5126 56.2279 71.3729 56.2604C75.2164 56.3297 77.3416 55.3605 77.5635 55.1587C77.7845 54.9561 77.7073 54.4895 77.7152 54.2106C77.7389 53.3739 77.7231 52.538 77.7038 51.7021C77.6643 50.0567 77.6108 48.4042 77.8169 46.7685Z" fill="#BFC7ED"/>
<path d="M69.9816 64.5376C70.0535 65.3796 70.1201 66.2225 70.1789 67.0654C70.2263 67.7328 70.2675 68.4003 70.3026 69.0678C70.3298 69.5826 70.3526 70.0966 70.3701 70.6115C70.4675 73.4278 70.1701 74.062 71.4981 74.4277C71.7963 74.5093 72.112 74.5338 72.4111 74.4593C73.2759 74.2453 73.4259 73.4848 73.5321 72.5428C73.5926 72.0131 73.6198 71.3745 73.6364 70.8395C73.6513 70.3869 73.661 69.9335 73.668 69.4809C73.6794 68.8687 73.6864 68.2556 73.6925 67.6425C73.7004 66.8347 73.7066 66.026 73.7118 65.2182C73.7197 64.1841 73.8083 63.1299 73.8154 62.0966C73.8162 61.9458 73.7215 61.7905 73.6013 61.7116C73.4461 61.609 70.3342 62.7474 70.0167 63.1C70.0167 63.1 69.8921 63.4965 69.9816 64.5376Z" fill="#2E2E37"/>
<path d="M72.4456 37.5871C72.386 37.174 72.0737 37.2696 72.2316 36.8959C72.3658 36.5775 72.5684 36.2854 72.8421 36.0749C73.114 35.8636 73.4586 35.739 73.8025 35.7583C73.9209 35.7645 74.0007 35.832 74.1182 35.8329C74.4428 35.8338 74.7699 35.7724 75.0935 35.8188C75.4163 35.8653 75.7145 35.889 75.7145 36.253C75.7145 36.7389 75.6917 37.2055 75.8479 37.6827C75.9303 37.9379 76.0557 38.1835 76.0785 38.451C76.1224 38.9764 75.7382 39.4658 75.2637 39.6956C74.6805 39.978 74.0209 39.9517 73.3999 39.8623C73.0885 39.8166 72.65 39.7544 72.4667 39.4579C72.3298 39.2343 72.3886 38.9413 72.4184 38.6957C72.4623 38.3256 72.5 37.959 72.4456 37.5871Z" fill="#F9D5C3"/>
<path d="M71.0534 32.3113C70.8569 32.5499 70.7034 32.8182 70.6569 33.1331C70.5517 33.8348 70.8341 34.5558 70.6824 35.2522C70.5342 35.9258 70.8236 37.4581 72.1541 37.851C72.8269 38.0492 74.1548 37.8168 74.5819 37.6116C75.1556 37.337 75.5336 36.7818 75.873 36.2442C78.6508 31.8324 72.9374 30.0186 71.0534 32.3113Z" fill="#F9D5C3"/>
<path d="M77.1377 34.2664C77.1201 34.3971 77.1017 34.5278 77.0772 34.6576C77.0579 34.7549 77.0351 34.8523 77.0035 34.947C76.9781 35.0294 76.9474 35.1093 76.9114 35.1873C76.779 35.4829 76.5921 35.7531 76.4044 36.0188C76.1466 36.3863 75.8703 36.7687 75.4651 36.9635C75.2896 37.0485 75.0984 37.0933 74.909 37.1354C74.3845 37.2511 73.6083 37.2757 73.2048 36.8406C73.025 36.6468 72.9522 36.3723 72.9198 36.1162C72.8873 35.8636 72.8794 35.6478 72.8101 35.3934L72.7584 35.2075C72.7277 35.1084 72.6926 35.011 72.6408 34.9216C72.5584 34.776 72.4321 34.647 72.2716 34.5988C71.9962 34.5146 71.6664 34.6707 71.4269 34.512C71.3033 34.4295 71.241 34.2848 71.1849 34.148C71.1296 34.0129 71.0805 33.862 71.0243 33.7138C70.9507 33.5173 70.8665 33.3244 70.7446 33.17C70.6796 33.0885 70.6042 33.0139 70.5533 32.9236C70.4823 32.799 70.4007 32.6841 70.3955 32.542C70.3692 31.8956 70.9015 31.2571 71.3471 30.8457C71.5874 30.6247 71.8532 30.4247 72.1532 30.2958C72.4163 30.1826 72.7005 30.1265 72.9838 30.0861C73.8232 29.9651 74.7231 29.9853 75.4642 30.3975C75.6598 30.5071 75.8484 30.6492 75.944 30.8536L76.0132 30.986L76.1825 31.093C76.3843 31.1869 76.55 31.3053 76.6842 31.4439C77.364 32.1438 77.2666 33.3358 77.1377 34.2664Z" fill="#15151A"/>
<path d="M72.5725 34.297C73.1049 34.2522 73.2514 34.9109 72.8944 35.4293C72.7892 35.5802 72.6032 35.7161 72.4655 35.8371C71.5235 36.6669 71.2692 35.7907 71.5674 35.5091C72.2612 34.8531 71.9016 34.3531 72.5725 34.297Z" fill="#F9D5C3"/>
<path d="M72.4258 35.3057C72.4863 35.2487 73.088 34.8794 72.6705 34.6417C72.5538 34.576 72.4284 34.6786 72.4126 34.8005L72.417 34.9908L72.3775 35.0961C72.3258 35.1847 72.1425 35.2724 72.1811 35.4004C72.2153 35.5136 72.3916 35.3381 72.4258 35.3057Z" fill="#FFBFA2"/>
<path d="M70.0518 40.2298C70.6526 40.3377 71.2122 40.5245 71.5131 41.0744C71.7911 41.5832 71.9156 42.1331 71.7262 42.7014C71.5297 43.2908 71.021 43.7671 70.4193 43.9232C69.858 44.0706 69.2651 43.9504 68.6976 43.8303C67.1056 43.4935 65.5321 43.2584 64.0121 42.6471C63.3789 42.3883 62.7193 42.0208 62.4658 41.3858C62.2957 40.956 62.3483 40.4456 62.6035 40.0614C63.2227 39.1273 63.985 39.522 64.1244 39.5413C68.5143 40.1158 70.1483 40.2473 70.0518 40.2298Z" fill="#F4F4FA"/>
<path d="M44.2248 35.0785C43.8942 34.925 43.6293 34.6557 43.4986 34.2952C43.2118 33.5085 43.5424 32.6007 44.395 32.2524L39.8139 32.9235C39.5578 33.0287 39.4201 33.3041 39.506 33.5409C39.5631 33.6953 39.7025 33.7953 39.8639 33.8155L43.8678 35.1118L44.2248 35.1548V35.0785Z" fill="#3A3A4D"/>
<path d="M41.1831 32.7008L46.9167 31.6614C45.7887 32.2868 45.6774 33.7515 46.0572 35.1663C46.137 35.4654 46.2571 35.7285 46.4036 35.9531V36.5723C45.6896 36.2662 42.4286 34.8637 41.2498 34.3033C41.2498 34.3033 40.8516 34.0884 40.7762 33.8086C40.6621 33.384 40.8446 32.8885 41.1831 32.7008Z" fill="#171729"/>
<path d="M47.3782 31.664L73.4919 36.0468C73.1639 35.9916 72.8122 36.0494 72.4692 36.2389L46.3555 31.8569C46.6975 31.6675 47.0492 31.6087 47.3782 31.664Z" fill="#313143"/>
<mask id="mask0_1477_13590" style="mask-type:luminance" maskUnits="userSpaceOnUse" x="46" y="31" width="28" height="6">
<path d="M47.3742 31.664L73.4889 36.0468C73.16 35.9916 72.8083 36.0494 72.4653 36.2389L46.3516 31.8569C46.6936 31.6675 47.0453 31.6087 47.3742 31.664Z" fill="white"/>
</mask>
<g mask="url(#mask0_1477_13590)">
<path d="M72.4653 36.2389L46.3516 31.8569L46.3524 31.8561L72.4671 36.2389H72.4653Z" fill="#232338"/>
<path d="M72.4662 36.2389L46.3516 31.8561C46.6936 31.6675 47.0453 31.6087 47.3734 31.664L73.4871 36.0468C73.1591 35.9916 72.8083 36.0494 72.4662 36.2389Z" fill="#232338"/>
</g>
<path d="M72.6659 40.9805L46.5522 36.5976C45.9189 36.4915 45.3725 35.9635 45.1515 35.1373C44.8138 33.8804 45.3532 32.4121 46.3548 31.8569L72.4686 36.2389C71.4669 36.795 70.9284 38.2632 71.2652 39.5192C71.4871 40.3463 72.0327 40.8743 72.6659 40.9805Z" fill="#232338"/>
<mask id="mask1_1477_13590" style="mask-type:luminance" maskUnits="userSpaceOnUse" x="45" y="31" width="28" height="10">
<path d="M72.6621 40.9806L46.5484 36.5977C45.9151 36.4916 45.3687 35.9636 45.1476 35.1374C44.81 33.8805 45.3485 32.4123 46.351 31.857L72.4648 36.239C71.4631 36.7951 70.9246 38.2633 71.2614 39.5193C71.4833 40.3464 72.0288 40.8745 72.6621 40.9806Z" fill="white"/>
</mask>
<g mask="url(#mask1_1477_13590)">
<path d="M72.6623 40.9806L46.5486 36.5977C46.0241 36.51 45.5592 36.132 45.2891 35.5356L71.4037 39.9184C71.673 40.5149 72.1378 40.8929 72.6623 40.9806Z" fill="#313143"/>
<path d="M71.4031 39.9185L45.2885 35.5356C45.2323 35.4119 45.185 35.2795 45.1473 35.1374C45.0938 34.9383 45.0622 34.7348 45.0508 34.5304L71.1654 38.9124C71.1768 39.1177 71.2075 39.3211 71.261 39.5194C71.2996 39.6614 71.347 39.7948 71.4031 39.9185Z" fill="#313143"/>
<path d="M71.166 38.9125L45.0514 34.5305C45.0119 33.7938 45.2329 33.0465 45.6417 32.4948L71.7554 36.8776C71.3476 37.4293 71.1257 38.1766 71.166 38.9125Z" fill="#444454"/>
<path d="M71.7544 36.8776L45.6406 32.4947C45.8362 32.2289 46.0757 32.0088 46.3502 31.8571L72.4639 36.239C72.1903 36.3916 71.9508 36.6118 71.7544 36.8776Z" fill="#313143"/>
</g>
<path d="M72.4678 36.2389C73.4703 35.6846 74.5553 36.252 74.8921 37.5089C75.2289 38.764 74.6903 40.2314 73.6887 40.7875C72.6862 41.3427 71.6012 40.7743 71.2644 39.5192C70.9276 38.2632 71.4661 36.795 72.4678 36.2389Z" fill="#262028"/>
<path d="M73.4914 36.0705L86.6882 38.2676C86.3593 38.2123 86.0076 38.2702 85.6655 38.4606L72.4688 36.2643C72.8117 36.074 73.1634 36.0152 73.4914 36.0705Z" fill="#BFBEED"/>
<mask id="mask2_1477_13590" style="mask-type:luminance" maskUnits="userSpaceOnUse" x="72" y="36" width="15" height="3">
<path d="M73.4884 36.0705L86.6843 38.2676C86.3554 38.2123 86.0037 38.2702 85.6616 38.4606L72.4648 36.2643C72.8078 36.074 73.1595 36.0152 73.4884 36.0705Z" fill="white"/>
</mask>
<g mask="url(#mask2_1477_13590)">
<path d="M85.6616 38.4606L72.4648 36.2643L72.4666 36.2635L85.6625 38.4597L85.6616 38.4606Z" fill="#BFBEED"/>
<path d="M85.6607 38.4597L72.4648 36.2635C72.8069 36.0741 73.1577 36.0153 73.4858 36.0705L86.6826 38.2676C86.3545 38.2124 86.0028 38.2703 85.6607 38.4597Z" fill="#BFBEED"/>
</g>
<path d="M85.8619 43.2031L72.666 41.0069C72.0327 40.9007 71.4863 40.371 71.2644 39.5439C70.9276 38.2879 71.4661 36.8196 72.4678 36.2644L85.6645 38.4607C84.662 39.0159 84.1235 40.4841 84.4603 41.741C84.6831 42.5681 85.2286 43.097 85.8619 43.2031Z" fill="#BFBEED"/>
<mask id="mask3_1477_13590" style="mask-type:luminance" maskUnits="userSpaceOnUse" x="71" y="36" width="15" height="8">
<path d="M85.8619 43.2031L72.666 41.0069C72.0327 40.9007 71.4863 40.371 71.2644 39.5439C70.9276 38.2879 71.4661 36.8196 72.4678 36.2644L85.6645 38.4607C84.662 39.0159 84.1235 40.4841 84.4603 41.741C84.6831 42.5681 85.2286 43.097 85.8619 43.2031Z" fill="white"/>
</mask>
<g mask="url(#mask3_1477_13590)">
<path d="M85.8616 43.2031L72.6657 41.0069C72.1412 40.9183 71.6764 40.5403 71.4062 39.9438L84.6021 42.1401C84.8732 42.7374 85.3371 43.1154 85.8616 43.2031Z" fill="#BFBEED"/>
<path d="M84.6016 42.1401L71.4057 39.9439C71.3495 39.8194 71.3022 39.686 71.2636 39.5439C71.2101 39.3457 71.1794 39.1414 71.168 38.937L84.3639 41.1341C84.3753 41.3385 84.4068 41.542 84.4595 41.7411C84.4981 41.8823 84.5454 42.0156 84.6016 42.1401Z" fill="#BFBEED"/>
<path d="M84.3647 41.134L71.1688 38.9369C71.1284 38.201 71.3503 37.4537 71.7582 36.9021L84.9549 39.0983C84.5462 39.65 84.3252 40.3973 84.3647 41.134Z" fill="#EBEEFC"/>
<path d="M84.9546 39.0983L71.7578 36.902C71.9543 36.6363 72.1937 36.4161 72.4674 36.2644L85.6642 38.4606C85.3896 38.6124 85.1502 38.8325 84.9546 39.0983Z" fill="#BFBEED"/>
</g>
<path d="M89.1127 39.0491L73.2539 36.3941H73.2548L89.1144 39.0482L89.1127 39.0491Z" fill="#262028"/>
<path d="M88.4535 38.9369L73.2578 36.3942C73.5999 36.2047 73.9516 36.1468 74.2796 36.2012L88.4535 38.5738V38.9369Z" fill="#232338"/>
<path d="M89.3142 43.7916L73.4545 41.1375C72.8221 41.0305 72.2757 40.5025 72.0538 39.6745C71.7161 38.4185 72.2555 36.9503 73.2572 36.3942L89.1159 39.0492C88.1143 39.6044 87.5758 41.0726 87.9126 42.3286C88.1345 43.1557 88.6809 43.6855 89.3142 43.7916Z" fill="#262028"/>
<mask id="mask4_1477_13590" style="mask-type:luminance" maskUnits="userSpaceOnUse" x="71" y="36" width="19" height="8">
<path d="M89.3064 43.7915L73.4477 41.1365C72.8144 41.0304 72.268 40.5024 72.0461 39.6744C71.7084 38.4184 72.2469 36.9502 73.2495 36.3941L89.1082 39.049C88.1066 39.6042 87.568 41.0725 87.9048 42.3285C88.1267 43.1556 88.6732 43.6854 89.3064 43.7915Z" fill="white"/>
</mask>
<g mask="url(#mask4_1477_13590)">
<path d="M89.3058 43.7915L73.447 41.1374C72.9225 41.0488 72.4576 40.6717 72.1875 40.0744L88.0462 42.7285C88.3164 43.3258 88.7812 43.7029 89.3058 43.7915Z" fill="#313143"/>
<path d="M88.0465 42.7284L72.1878 40.0743C72.1317 39.9498 72.0834 39.8164 72.0457 39.6743C71.9922 39.4761 71.9606 39.2726 71.9492 39.0674L87.8089 41.7215C87.8203 41.9267 87.8518 42.1302 87.9045 42.3284C87.9431 42.4714 87.9904 42.6047 88.0465 42.7284Z" fill="#313143"/>
<path d="M87.8094 41.7216L71.9498 39.0675C71.9103 38.3316 72.1323 37.5843 72.5401 37.0317L88.3989 39.6867C87.991 40.2384 87.7691 40.9857 87.8094 41.7216Z" fill="#444454"/>
<path d="M88.3978 39.6866L72.5391 37.0317C72.7355 36.7668 72.9741 36.5466 73.2486 36.394L89.1074 39.049C88.8337 39.2007 88.5943 39.4209 88.3978 39.6866Z" fill="#313143"/>
</g>
<path d="M87.0406 39.3228C87.5406 38.2914 88.7624 38.2835 89.771 39.307C90.7797 40.3297 91.1919 41.9953 90.692 43.0268C90.192 44.0591 88.9702 44.0661 87.9616 43.0435C86.9529 42.0199 86.5407 40.3552 87.0406 39.3228Z" fill="#262028"/>
<path d="M85.0801 38.166L85.6344 39.2281L84.1328 38.9826L84.3503 38.3572L85.0801 38.166Z" fill="#BFC7ED"/>
<path d="M86.5591 37.2582L87.1134 38.3212L85.6364 39.2281L85.082 38.166L86.5591 37.2582Z" fill="#BFBEED"/>
<path d="M85.0811 38.1659L85.1697 38.4974L74.1385 36.6634L74.0508 36.3319L85.0811 38.1659Z" fill="#BFC7ED"/>
<path d="M86.5582 37.2581L85.0811 38.1659L74.0508 36.3319L75.3927 35.5065L86.5582 37.2581Z" fill="#F4F4FA"/>
<path d="M58.686 35.103C58.7772 35.1635 58.957 35.21 58.9763 35.0565C59.0061 34.8004 58.8702 34.5382 58.9334 34.2882C58.9562 34.1988 59.0211 34.1058 59.114 34.1058C59.2228 34.1067 59.2833 34.2303 59.3158 34.3347C59.3956 34.5838 59.4693 34.8399 59.6043 35.0644C59.7043 35.2328 59.8376 35.3793 59.9604 35.5319C60.0832 35.6854 60.1972 35.8512 60.2516 36.0389C60.3034 36.2213 60.2657 36.3582 60.2192 36.5327C60.1815 36.6765 60.2385 36.8388 60.2262 36.9879C60.2078 37.2072 60.1788 37.4291 60.1174 37.6414C60.0762 37.7852 60.0139 37.9878 59.8718 38.0659C59.7113 38.1536 59.55 38.0211 59.4438 37.908C59.2772 37.7317 59.2228 37.5019 59.0921 37.3063C59.0307 37.2142 59.007 37.1142 58.9492 37.0256C58.8816 36.9213 58.7571 36.8546 58.6562 36.7862C58.4238 36.6292 58.2185 36.4327 58.0519 36.2073C57.8887 35.988 57.7326 35.7986 57.7563 35.517C57.78 35.253 57.8598 34.9969 57.9808 34.761C58.0887 34.5522 58.1975 34.3312 58.4378 34.2601L58.6123 34.2917L58.5904 34.4768C58.5018 34.6829 58.4825 34.9609 58.686 35.103Z" fill="#F9D5C3"/>
<path d="M59.4557 36.5337C59.2794 36.6556 58.9776 36.9459 59.0013 37.195C59.0206 37.3994 59.2916 37.6634 59.4013 37.8239C59.746 38.3326 60.1038 38.8299 60.4617 39.3272C60.624 39.5526 60.7871 39.778 60.9564 39.9982C61.4528 40.642 62.008 41.2323 62.6141 41.7603C62.8491 41.9655 63.2307 42.3128 63.5455 42.3734C63.8578 42.4321 64.1271 42.2427 64.356 42.005C64.7647 41.5814 65.027 40.9972 64.8489 40.4289C64.6691 39.8587 64.2455 39.4939 63.8403 39.1124C62.9026 38.2317 61.9115 37.4134 60.8748 36.6644C60.6897 36.531 60.4994 36.3977 60.2792 36.3398C60.0275 36.274 59.7118 36.3574 59.4557 36.5337Z" fill="#F4F4FA"/>
<path d="M65.0792 5.60109L22.5804 30.1378L22.5664 25.3182L65.0652 0.781479L65.0792 5.60109Z" fill="#185BCC"/>
<mask id="mask5_1477_13590" style="mask-type:luminance" maskUnits="userSpaceOnUse" x="44" y="65" width="1" height="3">
<path d="M44.3597 65.2225L44.3535 67.5653L44.3281 67.6714L44.3351 65.3287L44.3597 65.2225Z" fill="white"/>
</mask>
<g mask="url(#mask5_1477_13590)">
<path d="M44.3597 65.2225L44.3535 67.5653L44.3281 67.6714L44.3351 65.3287L44.3597 65.2225Z" fill="#FFB700"/>
</g>
<path d="M44.3339 65.3286L44.3269 67.6713L43.0586 70.3315L43.0656 67.9888L44.3339 65.3286Z" fill="#FFA200"/>
<mask id="mask6_1477_13590" style="mask-type:luminance" maskUnits="userSpaceOnUse" x="43" y="67" width="1" height="4">
<path d="M43.0352 70.4368L43.0422 68.094L43.0667 67.9888L43.0597 70.3315L43.0352 70.4368Z" fill="white"/>
</mask>
<g mask="url(#mask6_1477_13590)">
<path d="M43.0667 67.9888L43.0597 70.3315L43.0352 70.4368L43.0422 68.094L43.0667 67.9888Z" fill="#FFB700"/>
</g>
<mask id="mask7_1477_13590" style="mask-type:luminance" maskUnits="userSpaceOnUse" x="28" y="69" width="2" height="4">
<path d="M28.8633 71.735L28.8703 69.3931C28.8703 69.4966 28.9396 69.6001 29.0711 69.6764C29.1378 69.715 29.2203 69.7457 29.3185 69.7677L29.3115 72.1095C29.2141 72.0884 29.1308 72.0569 29.065 72.0183C28.9326 71.9428 28.8633 71.8394 28.8633 71.735Z" fill="white"/>
</mask>
<g mask="url(#mask7_1477_13590)">
<path d="M29.3185 69.7677L29.3115 72.1095C29.2141 72.0884 29.1308 72.0569 29.065 72.0183C28.9326 71.9428 28.8633 71.8394 28.8633 71.735L28.8703 69.3931C28.8703 69.4966 28.9396 69.6001 29.0711 69.6764C29.1378 69.715 29.2203 69.7457 29.3185 69.7677Z" fill="#FFB700"/>
</g>
<path d="M33.7936 70.7298L33.7874 73.0717L29.3125 72.1095L29.3195 69.7676L33.7936 70.7298Z" fill="#FFB700"/>
<mask id="mask8_1477_13590" style="mask-type:luminance" maskUnits="userSpaceOnUse" x="33" y="70" width="2" height="4">
<path d="M34.1965 70.9631L34.1895 73.3058L34.0316 73.1637C33.9623 73.1233 33.879 73.0926 33.7852 73.0716L33.7922 70.7297C33.886 70.7499 33.9694 70.7815 34.0378 70.821L34.1965 70.9631Z" fill="white"/>
</mask>
<g mask="url(#mask8_1477_13590)">
<path d="M34.1995 70.9631L34.1925 73.3058L34.0347 73.1637C33.9654 73.1233 33.882 73.0926 33.7891 73.0716L33.7952 70.7297C33.8891 70.7499 33.9724 70.7815 34.0408 70.821L34.1995 70.9631Z" fill="#FFB700"/>
</g>
<mask id="mask9_1477_13590" style="mask-type:luminance" maskUnits="userSpaceOnUse" x="45" y="70" width="1" height="4">
<path d="M45.9261 70.8351L45.9191 73.1778C45.9191 73.3769 45.6542 73.5629 45.2656 73.5725L45.2726 71.2298C45.6603 71.221 45.9252 71.0351 45.9261 70.8351Z" fill="white"/>
</mask>
<g mask="url(#mask9_1477_13590)">
<path d="M45.9261 70.8351L45.9191 73.1778C45.9191 73.3769 45.6542 73.5629 45.2656 73.5725L45.2726 71.2298C45.6603 71.221 45.9252 71.0351 45.9261 70.8351Z" fill="#FFB700"/>
</g>
<path d="M45.2705 71.2297L45.2635 73.5725L40.5 73.6882L40.5061 71.3455L45.2705 71.2297Z" fill="#FFA200"/>
<mask id="mask10_1477_13590" style="mask-type:luminance" maskUnits="userSpaceOnUse" x="39" y="71" width="2" height="3">
<path d="M40.5053 71.3456L40.4992 73.6883C40.3009 73.6927 40.115 73.7479 39.9922 73.8374L39.9992 71.4956C40.122 71.4052 40.3071 71.35 40.5053 71.3456Z" fill="white"/>
</mask>
<g mask="url(#mask10_1477_13590)">
<path d="M40.5053 71.3456L40.4992 73.6883C40.3009 73.6927 40.115 73.7471 39.9922 73.8374L39.9992 71.4956C40.122 71.4052 40.3071 71.35 40.5053 71.3456Z" fill="#FFB700"/>
</g>
<path d="M35.8745 73.5514L35.8675 75.8942L34.1914 73.3059L34.1984 70.9631L35.8745 73.5514Z" fill="#FFA200"/>
<path d="M39.9997 71.4956L39.9926 73.8374L37.043 76.0021L37.05 73.6602L39.9997 71.4956Z" fill="#FFB700"/>
<path d="M44.1554 64.9419C44.3203 65.0375 44.4036 65.1804 44.3335 65.3287L43.0652 67.9889C43.0117 68.1003 43.045 68.2187 43.1555 68.3152L45.8079 70.6149C46.1043 70.8719 45.8026 71.2166 45.2711 71.2298L40.5067 71.3455C40.3085 71.3499 40.1234 71.4052 40.0006 71.4955L37.051 73.6602C36.7861 73.854 36.3063 73.8531 36.0318 73.6944L35.8739 73.5514L34.1978 70.9631L34.039 70.821C33.9706 70.7816 33.8873 70.75 33.7934 70.7298L29.3194 69.7676C29.2211 69.7457 29.1387 69.715 29.072 69.6764C28.7975 69.5177 28.7931 69.2405 29.1282 69.0861L32.8558 67.3705C33.0119 67.2986 33.1058 67.1916 33.1128 67.0767L33.297 64.3174C33.3172 64.0086 33.9118 63.8332 34.3565 64.0043L38.3368 65.5321C38.5017 65.5962 38.7078 65.6146 38.899 65.5839L43.488 64.841C43.7441 64.7998 43.9905 64.8471 44.1554 64.9419Z" fill="#FBC70E"/>
<mask id="mask11_1477_13590" style="mask-type:luminance" maskUnits="userSpaceOnUse" x="35" y="73" width="3" height="4">
<path d="M37.0435 73.6601L37.0365 76.0019C36.7716 76.1967 36.2927 76.1958 36.0173 76.037L35.8594 75.8941L35.8664 73.5513L36.0243 73.6943C36.2988 73.8531 36.7786 73.8539 37.0435 73.6601Z" fill="white"/>
</mask>
<g mask="url(#mask11_1477_13590)">
<path d="M37.0435 73.6601L37.0365 76.0019C36.7716 76.1967 36.2927 76.1958 36.0173 76.037L35.8594 75.8941L35.8664 73.5513L36.0243 73.6943C36.2988 73.8531 36.7786 73.8539 37.0435 73.6601Z" fill="#FFB700"/>
</g>
<mask id="mask12_1477_13590" style="mask-type:luminance" maskUnits="userSpaceOnUse" x="46" y="63" width="1" height="3">
<path d="M46.1331 63.0816L46.1261 65.4234L46.1016 65.5295L46.1077 63.1877L46.1331 63.0816Z" fill="white"/>
</mask>
<g mask="url(#mask12_1477_13590)">
<path d="M46.1331 63.0816L46.127 65.4234L46.1016 65.5295L46.1077 63.1877L46.1331 63.0816Z" fill="#FFB700"/>
</g>
<path d="M46.1104 63.1877L46.1042 65.5296L44.8359 68.1907L44.8421 65.848L46.1104 63.1877Z" fill="#FFA200"/>
<mask id="mask13_1477_13590" style="mask-type:luminance" maskUnits="userSpaceOnUse" x="44" y="65" width="1" height="4">
<path d="M44.8086 68.2949L44.8147 65.9522L44.8393 65.8478L44.8332 68.1906L44.8086 68.2949Z" fill="white"/>
</mask>
<g mask="url(#mask13_1477_13590)">
<path d="M44.8393 65.8478L44.8332 68.1906L44.8086 68.2949L44.8147 65.9522L44.8393 65.8478Z" fill="#FFB700"/>
</g>
<mask id="mask14_1477_13590" style="mask-type:luminance" maskUnits="userSpaceOnUse" x="30" y="67" width="2" height="3">
<path d="M30.6367 69.594L30.6429 67.2513C30.6429 67.3556 30.7121 67.4591 30.8437 67.5354C30.9104 67.574 30.9928 67.6047 31.0902 67.6258L31.0832 69.9685C30.9858 69.9475 30.9033 69.9159 30.8367 69.8773C30.7051 69.8019 30.6358 69.6984 30.6367 69.594Z" fill="white"/>
</mask>
<g mask="url(#mask14_1477_13590)">
<path d="M31.091 67.6258L31.084 69.9685C30.9867 69.9475 30.9042 69.9159 30.8376 69.8773C30.706 69.8019 30.6367 69.6984 30.6367 69.594L30.6437 67.2513C30.6437 67.3556 30.713 67.4591 30.8446 67.5354C30.9112 67.5732 30.9937 67.6047 31.091 67.6258Z" fill="#FFB700"/>
</g>
<path d="M35.5718 68.5888L35.5657 70.9315L31.0898 69.9685L31.0969 67.6258L35.5718 68.5888Z" fill="#FFB700"/>
<mask id="mask15_1477_13590" style="mask-type:luminance" maskUnits="userSpaceOnUse" x="35" y="68" width="1" height="4">
<path d="M35.9682 68.8221L35.9621 71.1639L35.8042 71.0227C35.7349 70.9824 35.6516 70.9508 35.5586 70.9315L35.5647 68.5888C35.6577 68.609 35.741 68.6397 35.8103 68.68L35.9682 68.8221Z" fill="white"/>
</mask>
<g mask="url(#mask15_1477_13590)">
<path d="M35.9682 68.8221L35.9621 71.1639L35.8042 71.0227C35.7349 70.9824 35.6516 70.9517 35.5586 70.9315L35.5647 68.5888C35.6577 68.609 35.741 68.6397 35.8103 68.68L35.9682 68.8221Z" fill="#FFB700"/>
</g>
<mask id="mask16_1477_13590" style="mask-type:luminance" maskUnits="userSpaceOnUse" x="47" y="68" width="1" height="4">
<path d="M47.6995 68.6941L47.6925 71.0368C47.6916 71.2359 47.4267 71.4219 47.0391 71.4315L47.0452 69.0888C47.4337 69.0792 47.6986 68.8941 47.6995 68.6941Z" fill="white"/>
</mask>
<g mask="url(#mask16_1477_13590)">
<path d="M47.6995 68.6941L47.6925 71.0368C47.6916 71.2359 47.4267 71.4219 47.0391 71.4315L47.0452 69.0888C47.4337 69.0792 47.6986 68.8941 47.6995 68.6941Z" fill="#FFB700"/>
</g>
<path d="M47.047 69.0888L47.0409 71.4315L42.2773 71.5464L42.2835 69.2037L47.047 69.0888Z" fill="#FFA200"/>
<mask id="mask17_1477_13590" style="mask-type:luminance" maskUnits="userSpaceOnUse" x="41" y="69" width="2" height="3">
<path d="M42.2905 69.2036L42.2843 71.5463C42.0852 71.5516 41.901 71.6059 41.7773 71.6963L41.7835 69.3544C41.908 69.2632 42.0922 69.2089 42.2905 69.2036Z" fill="white"/>
</mask>
<g mask="url(#mask17_1477_13590)">
<path d="M42.2905 69.2036L42.2843 71.5463C42.0852 71.5516 41.901 71.6059 41.7773 71.6963L41.7835 69.3544C41.908 69.2632 42.0922 69.2089 42.2905 69.2036Z" fill="#FFB700"/>
</g>
<path d="M37.651 71.4105L37.6449 73.7532L35.9688 71.164L35.9749 68.8221L37.651 71.4105Z" fill="#FFA200"/>
<path d="M41.7791 69.3546L41.773 71.6964L38.8242 73.8611L38.8312 71.5192L41.7791 69.3546Z" fill="#FFB700"/>
<path d="M45.9327 62.8009C46.0976 62.8965 46.1809 63.0394 46.1098 63.1877L44.8416 65.8479C44.7889 65.9584 44.8223 66.0777 44.9328 66.1733L47.5851 68.4739C47.8816 68.7309 47.5799 69.0756 47.0475 69.0888L42.284 69.2037C42.0857 69.2089 41.9016 69.2633 41.777 69.3545L38.8291 71.5192C38.5633 71.713 38.0836 71.7122 37.8082 71.5534L37.6503 71.4104L35.9741 68.8221L35.8163 68.6801C35.747 68.6397 35.6637 68.609 35.5707 68.5888L31.0957 67.6258C30.9984 67.6047 30.9159 67.5732 30.8493 67.5354C30.5747 67.3767 30.5704 67.0986 30.9063 66.9443L34.6331 65.2296C34.7892 65.1576 34.883 65.0506 34.8909 64.9357L35.0742 62.1755C35.0944 61.8676 35.6891 61.6922 36.1338 61.8624L40.114 63.3912C40.2798 63.4552 40.485 63.4736 40.6762 63.4429L45.2652 62.6991C45.5205 62.6579 45.7678 62.7062 45.9327 62.8009Z" fill="#FBC70E"/>
<mask id="mask18_1477_13590" style="mask-type:luminance" maskUnits="userSpaceOnUse" x="37" y="71" width="2" height="4">
<path d="M38.8295 71.5192L38.8225 73.861C38.5576 74.0558 38.0769 74.054 37.8024 73.8953L37.6445 73.7532L37.6507 71.4104L37.8086 71.5534C38.084 71.7122 38.5637 71.713 38.8295 71.5192Z" fill="white"/>
</mask>
<g mask="url(#mask18_1477_13590)">
<path d="M38.8295 71.5192L38.8225 73.8611C38.5576 74.0558 38.0769 74.0549 37.8024 73.8953L37.6445 73.7532L37.6507 71.4105L37.8086 71.5534C38.084 71.7122 38.5637 71.7131 38.8295 71.5192Z" fill="#FFB700"/>
</g>
<mask id="mask19_1477_13590" style="mask-type:luminance" maskUnits="userSpaceOnUse" x="44" y="60" width="1" height="3">
<path d="M44.805 60.3679L44.798 62.7106L44.7734 62.8168L44.7796 60.4741L44.805 60.3679Z" fill="white"/>
</mask>
<g mask="url(#mask19_1477_13590)">
<path d="M44.802 60.3679L44.795 62.7106L44.7695 62.8168L44.7766 60.4741L44.802 60.3679Z" fill="#FFB700"/>
</g>
<path d="M44.7783 60.474L44.7713 62.8167L43.5039 65.4769L43.5101 63.1351L44.7783 60.474Z" fill="#FFA200"/>
<mask id="mask20_1477_13590" style="mask-type:luminance" maskUnits="userSpaceOnUse" x="43" y="63" width="1" height="3">
<path d="M43.4805 65.5813L43.4866 63.2386L43.5112 63.1351L43.505 65.4769L43.4805 65.5813Z" fill="white"/>
</mask>
<g mask="url(#mask20_1477_13590)">
<path d="M43.5112 63.1351L43.505 65.4769L43.4805 65.5813L43.4866 63.2386L43.5112 63.1351Z" fill="#FFB700"/>
</g>
<mask id="mask21_1477_13590" style="mask-type:luminance" maskUnits="userSpaceOnUse" x="29" y="64" width="1" height="4">
<path d="M29.3086 66.8802L29.3156 64.5384C29.3156 64.6428 29.3849 64.7463 29.5165 64.8217C29.5831 64.8603 29.6656 64.8919 29.7629 64.9129L29.7559 67.2548C29.6586 67.2337 29.5761 67.2021 29.5095 67.1644C29.3779 67.0881 29.3086 66.9846 29.3086 66.8802Z" fill="white"/>
</mask>
<g mask="url(#mask21_1477_13590)">
<path d="M29.7629 64.9129L29.7559 67.2548C29.6586 67.2337 29.5761 67.203 29.5095 67.1644C29.3779 67.0881 29.3086 66.9846 29.3086 66.8811L29.3156 64.5384C29.3156 64.6428 29.3849 64.7463 29.5165 64.8217C29.5831 64.8603 29.6656 64.8919 29.7629 64.9129Z" fill="#FFB700"/>
</g>
<path d="M34.2398 65.8759L34.2336 68.2178L29.7578 67.2547L29.7648 64.9129L34.2398 65.8759Z" fill="#FFB700"/>
<mask id="mask22_1477_13590" style="mask-type:luminance" maskUnits="userSpaceOnUse" x="34" y="65" width="1" height="4">
<path d="M34.644 66.1085L34.6378 68.4512L34.48 68.3091C34.4107 68.2687 34.3273 68.238 34.2344 68.2179L34.2405 65.876C34.3335 65.8953 34.4177 65.9269 34.4861 65.9664L34.644 66.1085Z" fill="white"/>
</mask>
<g mask="url(#mask22_1477_13590)">
<path d="M34.644 66.1085L34.6378 68.4512L34.48 68.3091C34.4107 68.2687 34.3273 68.238 34.2344 68.2179L34.2405 65.876C34.3335 65.8953 34.4177 65.9269 34.4861 65.9664L34.644 66.1085Z" fill="#FFB700"/>
</g>
<mask id="mask23_1477_13590" style="mask-type:luminance" maskUnits="userSpaceOnUse" x="45" y="65" width="2" height="4">
<path d="M46.3714 65.9804L46.3644 68.3231C46.3635 68.5231 46.0986 68.7081 45.7109 68.7178L45.7171 66.3751C46.1048 66.3663 46.3705 66.1803 46.3714 65.9804Z" fill="white"/>
</mask>
<g mask="url(#mask23_1477_13590)">
<path d="M46.3714 65.9804L46.3644 68.3231C46.3635 68.5231 46.0986 68.7081 45.7109 68.7178L45.7171 66.3751C46.1048 66.3663 46.3705 66.1803 46.3714 65.9804Z" fill="#FFB700"/>
</g>
<path d="M45.7189 66.375L45.7127 68.7177L40.9492 68.8326L40.9553 66.4908L45.7189 66.375Z" fill="#FFA200"/>
<mask id="mask24_1477_13590" style="mask-type:luminance" maskUnits="userSpaceOnUse" x="40" y="66" width="1" height="3">
<path d="M40.9506 66.4908L40.9445 68.8327C40.7454 68.8379 40.5612 68.8923 40.4375 68.9835L40.4436 66.6408C40.5673 66.5505 40.7524 66.4952 40.9506 66.4908Z" fill="white"/>
</mask>
<g mask="url(#mask24_1477_13590)">
<path d="M40.9506 66.4908L40.9445 68.8327C40.7454 68.8379 40.5612 68.8923 40.4375 68.9835L40.4436 66.6408C40.5673 66.5505 40.7524 66.4952 40.9506 66.4908Z" fill="#FFB700"/>
</g>
<path d="M36.319 68.6976L36.3129 71.0394L34.6367 68.4511L34.6429 66.1084L36.319 68.6976Z" fill="#FFA200"/>
<path d="M40.4471 66.6408L40.441 68.9836L37.4922 71.1473L37.4992 68.8055L40.4471 66.6408Z" fill="#FFB700"/>
<path d="M44.6007 60.0881C44.7656 60.1828 44.849 60.3258 44.7779 60.474L43.5096 63.1351C43.457 63.2456 43.4904 63.364 43.6009 63.4605L46.2532 65.7611C46.5497 66.0181 46.2479 66.3628 45.7155 66.3751L40.952 66.4909C40.7538 66.4953 40.5687 66.5505 40.4451 66.6409L37.4972 68.8055C37.2314 69.0002 36.7516 68.9985 36.4762 68.8397L36.3183 68.6976L34.6422 66.1084L34.4843 65.9663C34.4159 65.9269 34.3317 65.8953 34.2387 65.876L29.7638 64.913C29.6665 64.8919 29.584 64.8604 29.5173 64.8218C29.2428 64.6639 29.2384 64.385 29.5735 64.2315L33.3011 62.5159C33.4572 62.444 33.5511 62.3369 33.559 62.222L33.7423 59.4627C33.7625 59.154 34.3572 58.9785 34.801 59.1496L38.7821 60.6784C38.9479 60.7415 39.1531 60.7608 39.3443 60.7292L43.9324 59.9863C44.1885 59.9442 44.4359 59.9925 44.6007 60.0881Z" fill="#FDDA4C"/>
<mask id="mask25_1477_13590" style="mask-type:luminance" maskUnits="userSpaceOnUse" x="36" y="68" width="2" height="4">
<path d="M37.5053 68.8055L37.4982 71.1473C37.2334 71.342 36.7527 71.3412 36.4782 71.1824L36.3203 71.0394L36.3265 68.6976L36.4843 68.8397C36.7597 68.9984 37.2395 69.0002 37.5053 68.8055Z" fill="white"/>
</mask>
<g mask="url(#mask25_1477_13590)">
<path d="M37.5053 68.8055L37.4982 71.1473C37.2334 71.342 36.7527 71.3412 36.4782 71.1824L36.3203 71.0394L36.3265 68.6976L36.4843 68.8397C36.7597 68.9984 37.2395 69.0002 37.5053 68.8055Z" fill="#FFB700"/>
</g>
<path d="M18.91 59.0216C18.2496 58.9768 17.5067 58.4628 16.9909 58.1874C16.1393 57.7305 14.2062 56.1886 13.972 55.8561C13.7352 55.5211 13.6501 55.1264 13.6062 54.6615C13.5869 54.4501 13.5896 54.2011 13.7299 54.0134C13.858 53.8423 15.1429 53.309 15.8551 53.9616C16.4261 54.4861 18.1882 55.6886 18.8039 56.1605C19.6538 56.813 19.9941 57.0113 19.9985 57.934C20.0038 58.5927 19.5907 59.0707 18.91 59.0216Z" fill="#B4BCE2"/>
<path d="M20.5006 58.2075C20.7988 58.4618 21.112 58.6864 21.2532 59.0785C21.3865 59.4477 21.3505 59.8968 21.083 60.1836C20.8155 60.4704 20.2989 60.5169 20.0393 60.223C19.8796 60.0432 19.8428 59.7889 19.7577 59.5643C19.6428 59.2626 19.4297 59.0004 19.1578 58.8267C19.0104 58.732 18.8464 58.6627 18.7043 58.5583C18.5631 58.4539 18.4429 58.3005 18.4377 58.125C18.4254 57.7268 19.0367 57.3523 19.3832 57.3067C19.5244 57.2883 19.6744 57.3067 19.7911 57.3892C19.9033 57.4681 19.9708 57.5935 20.0428 57.7102C20.1682 57.9093 20.3313 58.0628 20.5006 58.2075Z" fill="#FFC7AD"/>
<path d="M13.9364 55.6587C13.3549 54.6957 11.6279 51.7855 10.8306 50.1769C10.6148 49.7445 10.8692 49.4401 10.8122 48.9507C10.7552 48.456 10.878 48.0096 11.0797 47.521C11.1709 47.2991 11.3034 47.0562 11.5411 46.9684C11.7577 46.8895 11.9813 46.9702 12.1673 47.0649C13.2891 47.635 13.9908 48.7796 14.3512 49.9164C14.6854 50.9741 15.4976 52.6354 15.823 53.701C15.8853 53.9036 15.966 54.1159 15.9818 54.3317C16.0598 55.3587 15.4125 56.1043 14.6503 55.9157C14.2767 55.8236 14.2521 56.1832 13.9364 55.6587Z" fill="#B4BCE2"/>
<path d="M6.90456 85.6851L6.83702 87.8367C6.69756 87.9217 6.49934 87.8875 6.40374 87.8147L6.22656 85.2589L6.90456 85.6851Z" fill="#171729"/>
<path d="M8.7831 89.4733C8.75064 89.5593 8.70417 89.6391 8.63751 89.7049C8.48051 89.8637 8.29895 89.9733 8.07091 89.997C7.92882 90.0119 7.79287 89.9689 7.66043 89.9233C7.41046 89.8374 7.25697 89.6523 7.13418 89.4295C6.98419 89.1602 6.86489 88.9103 6.81314 88.6068C6.79034 88.4691 6.62194 87.3411 6.55441 87.1464C6.49038 86.9649 6.15269 85.5343 6.24128 85.0019C6.2632 84.866 6.31672 84.7546 6.42987 84.6695C6.52985 84.5958 6.69298 84.5379 6.8149 84.5239C6.94734 84.5081 7.08593 84.5397 7.21574 84.5607C7.29906 84.5748 7.36046 84.5757 7.43677 84.6195C7.62885 84.7283 7.81041 84.4748 7.94022 84.6511C8.08494 84.8467 8.21037 85.3203 8.32001 85.6755C8.37702 85.8606 8.61384 87.0684 8.69277 87.4938C8.75066 87.8034 8.8182 88.1121 8.84627 88.427C8.87784 88.7752 8.91028 89.14 8.7831 89.4733Z" fill="#171729"/>
<path d="M9.2113 86.5053L9.00781 84.3275L9.62353 84.2125L9.67354 86.4834C9.53846 86.5991 9.36304 86.6465 9.2113 86.5053Z" fill="#171729"/>
<path d="M13.3044 86.7622C13.4079 86.9561 13.5483 87.1482 13.5588 87.3736C13.5641 87.4744 13.5421 87.5297 13.4623 87.5972C13.0334 87.9621 12.3966 87.9218 11.9011 87.7306C11.5853 87.6078 11.2994 87.3999 11.1064 87.1236C10.9196 86.8561 10.8249 86.5386 10.703 86.2369C10.5802 85.9351 10.4153 85.6326 10.139 85.458L9.97235 85.3703C9.66975 85.2352 9.35048 85.1528 9.17769 84.8458C9.00315 84.5362 8.95228 84.1581 9.04701 83.8152C9.09875 83.6266 9.19436 83.4477 9.33382 83.3109C9.47415 83.174 9.66185 83.0811 9.85832 83.0688C10.4012 83.0337 10.995 82.9846 11.2275 83.3924C11.9546 84.666 13.1746 86.5202 13.3044 86.7622Z" fill="#171729"/>
<path d="M13.1808 67.2329C12.9983 67.1522 12.7904 67.1372 12.5887 67.1355C11.8616 67.1285 11.1433 67.2741 10.4469 67.4732C10.1732 67.5512 9.9013 67.6389 9.63028 67.7284C9.5338 67.7609 9.27856 67.7968 9.21102 67.8696C9.14524 67.9416 9.18208 68.0907 9.18558 68.1906C9.204 68.7836 9.22156 69.3756 9.23997 69.9676C9.27594 71.1394 9.31189 72.3121 9.34786 73.4848C9.36452 74.0339 9.47065 74.5794 9.45574 75.1302C9.4496 75.3688 9.47152 75.6293 9.40661 75.8626C9.33031 76.1362 9.18734 76.3871 9.1198 76.6669C8.98473 77.2361 8.96982 77.8282 9.01543 78.4088C9.06192 78.9982 9.13297 80.9787 9.30576 81.54C9.41627 81.8996 9.46802 82.2768 9.45837 82.6522C9.45398 82.8434 9.43906 83.0407 9.39696 83.2275C9.361 83.3881 9.29434 83.5407 9.29259 83.7082C9.29171 83.9038 9.37241 84.0476 9.44871 84.2178C9.53116 84.402 9.63466 84.5379 9.80745 84.6502C9.99427 84.7721 10.2056 84.8502 10.3942 84.9695C10.6354 85.1212 10.8301 85.3335 11.0257 85.5387C11.2213 85.7448 11.4266 85.9501 11.6783 86.0816C11.8774 86.186 12.1133 86.2413 12.3379 86.2C12.5405 86.1623 12.5782 86.0772 12.5334 85.8843C12.4659 85.5948 12.2782 85.3405 12.123 85.0923C11.6967 84.4081 11.2748 83.795 11.2397 82.9688C11.2011 82.0356 11.3231 80.1349 11.5292 79.2245C11.7134 78.4149 11.9642 77.2072 12.2317 76.4213C12.3458 76.088 12.4598 75.8003 12.4668 75.4504C12.4756 75.0679 12.5984 74.6636 12.6747 74.2891C12.8141 73.6006 12.9141 72.9033 13.0185 72.2095C13.1474 71.3482 13.2667 70.4869 13.3693 69.6221C13.4202 69.1923 13.4676 68.7608 13.507 68.3292C13.5439 67.9345 13.6649 67.4872 13.2351 67.2592L13.1808 67.2329Z" fill="#F4BDA2"/>
<path d="M9.35903 68.3748C9.22221 68.2924 9.07837 68.2283 8.92839 68.1792C8.5872 68.0687 8.21706 68.038 7.8478 68.0441V70.0641L4.84375 69.0107C4.99022 70.1632 6.02783 74.5899 5.91819 75.4486C5.81119 76.295 5.42527 77.0914 5.41562 77.9527C5.40597 78.8412 5.63489 80.6752 5.85329 81.5295C5.89539 81.6953 6.25588 83.46 6.3471 83.8871C6.49007 84.5598 6.38305 84.7616 6.37252 85.2036C6.36287 85.6334 6.46814 86.0474 6.56286 86.4666C6.62251 86.7333 6.74705 86.9903 6.86107 87.2411C6.98825 87.5191 7.06982 87.706 7.27593 87.934C7.46889 88.148 7.79693 88.3542 8.06707 88.2384C8.29863 88.1393 8.38458 87.9138 8.41879 87.6656C8.45826 87.3815 8.41265 87.0157 8.35389 86.7403C8.30214 86.5008 8.26794 86.257 8.23022 86.0149C8.20917 85.8799 8.16355 85.7579 8.14688 85.6229C8.12671 85.4597 8.11094 85.2966 8.09778 85.1326C8.01007 83.9766 8.15303 82.8162 8.24776 81.6646C8.32494 80.7155 8.40387 78.3825 8.52228 77.4378C8.62139 76.6449 9.19853 73.5584 9.30379 72.8015C9.41255 72.0148 9.61428 71.2394 9.78443 70.4649C9.83267 70.2465 9.88002 70.0281 9.92475 69.8097C9.95984 69.6361 10.0441 69.4159 10.0458 69.2414C10.0484 68.9002 9.62742 68.5371 9.35903 68.3748Z" fill="#F9D5C3"/>
<path d="M6.57217 56.2086C6.65812 56.8129 6.72129 57.5918 6.4757 58.1637C6.33273 58.4908 6.18275 58.8154 6.03452 59.1399C5.91348 59.4048 5.72842 59.6995 5.68983 59.988C5.61352 60.5555 5.98539 61.0914 6.37658 61.4607C6.9923 62.0413 7.77993 62.4386 8.61317 62.5877C9.44641 62.7377 10.3226 62.6395 11.1024 62.3079C11.8225 62.0027 12.447 61.5107 13.0513 61.0116C13.3635 60.7546 13.2091 60.4722 13.1548 60.1029C13.1048 59.7617 13.0539 59.4206 13.0171 59.0776C12.9004 57.9979 13.0258 56.8524 13.2109 55.7657C13.2758 55.3885 13.5109 55.0079 13.6793 54.6553C13.8398 54.3229 14.0249 54.0036 14.1503 53.6572C14.3494 53.1002 14.3801 52.4862 14.2362 51.9126C14.1248 51.467 13.9135 51.0539 13.667 50.668C13.2127 49.9549 12.6329 49.3208 12.2426 48.5683C11.9698 48.042 11.733 47.1219 11.212 46.7649C11.0234 46.636 10.0911 46.6465 10.0911 46.6465L5.88454 47.3877C5.14427 47.5964 4.49258 48.0025 4.42943 48.8445C4.39698 49.2576 4.30928 50.1128 4.37594 50.5207C4.46014 51.0382 4.73115 51.5355 4.95569 52.0021C5.09778 52.3003 5.24339 52.5985 5.3846 52.8967C5.45301 53.037 5.51965 53.1791 5.58631 53.3203C5.6977 53.5598 5.8056 53.7984 5.90734 54.0413C6.20029 54.7369 6.46604 55.4605 6.57217 56.2086Z" fill="#DADFF6"/>
<path d="M11.588 54.265C11.3232 52.2933 10.8627 50.1821 9.80842 48.4665C9.76193 48.3911 9.6216 48.4402 9.65844 48.5297C10.4312 50.4224 11.0416 52.2871 11.3117 54.322C11.5977 56.4823 11.6117 58.675 11.4109 60.8432C11.3942 61.0265 11.6801 61.0256 11.6968 60.8432C11.8985 58.6566 11.8801 56.4437 11.588 54.265Z" fill="#F4F4FA"/>
<path d="M10.7099 46.6702C10.5941 46.5921 10.4573 46.5483 10.2967 46.5571L10.0994 46.6158C9.99502 46.6877 9.95732 46.8281 9.96522 46.9553C9.97399 47.0824 10.0196 47.2035 10.0494 47.3271C10.1441 47.728 9.71875 48.4279 9.71875 48.4279C9.71875 48.4279 9.80119 48.5884 9.90732 48.6752C9.99064 48.7445 10.074 48.813 10.1573 48.8814C10.4581 49.1296 10.759 49.3769 11.0598 49.6243C11.0598 49.6243 11.5142 48.5875 11.344 47.9016C11.2484 47.5157 11.0818 46.9175 10.7099 46.6702Z" fill="#F4F4FA"/>
<path d="M6.59377 47.1527C6.73586 47.0553 6.89374 46.9825 7.06126 46.9413L7.11651 46.9395L7.14985 47.0808C7.14634 47.1658 7.19722 47.243 7.24546 47.3123C7.44456 47.6009 7.66121 47.978 7.96819 48.1613C8.81546 48.6674 9.64431 48.442 9.71887 48.4113C9.75044 48.8095 9.58378 50.2023 9.53028 50.3892C9.49607 50.3541 7.71645 49.5164 7.10073 49.2007C6.76393 49.0279 6.46835 48.7332 6.29381 48.3982C6.15084 48.1228 6.00349 47.8657 6.18768 47.5728C6.29206 47.407 6.4315 47.2632 6.59377 47.1527Z" fill="#F4F4FA"/>
<path d="M13.1835 60.3021C14.6482 64.9243 13.3808 75.8801 11.9941 76.4774C9.52246 77.5422 6.86048 77.2572 5.96847 76.7028C5.27118 76.2678 5.07296 75.4503 4.94227 74.6996C4.32743 71.1578 4.20025 65.5444 4.4967 63.6561C4.7379 62.1176 5.29749 60.7915 5.83515 59.5828C7.94281 60.9748 10.8241 61.6466 13.1835 60.3021Z" fill="#171729"/>
<path d="M5.10984 59.5513L5.24316 59.7583C5.3335 59.8495 5.45367 59.9118 5.57997 59.9109C5.74311 59.9109 5.89045 59.8118 6.03079 59.7205C6.25796 59.5732 6.49126 59.4372 6.72983 59.3127L6.92718 59.2776L7.00786 59.4407L6.93069 59.6846L7.16399 59.6802C7.25521 59.6802 7.34731 59.6837 7.43853 59.6899C7.62623 59.703 7.81304 59.7293 7.99635 59.7688C8.35859 59.8477 8.71032 59.9775 9.03835 60.1556L9.11816 60.2152L9.13308 60.3135L9.04011 60.3678C8.76382 60.424 8.48752 60.3512 8.21299 60.3284C8.09546 60.3179 7.98232 60.3433 7.86303 60.3389C7.70954 60.3328 7.55517 60.3406 7.40256 60.3617C7.86215 60.4082 8.31738 60.5055 8.75593 60.652C8.84627 60.6818 9.05413 60.7634 9.07869 60.8748C9.11115 61.0257 8.89186 61.0388 8.80503 61.0414C8.53752 61.0502 8.27089 61.0581 8.00425 61.066C8.2972 61.0572 8.59717 61.1327 8.8603 61.2607C8.98923 61.3239 9.08571 61.3607 8.99274 61.5212C8.93222 61.6265 8.81556 61.6931 8.70066 61.6747C8.52524 61.6475 8.35333 61.6151 8.17704 61.5958C7.93057 61.5686 7.68148 61.5563 7.43326 61.5826C7.61307 61.6615 7.79462 61.7414 7.94986 61.865C8.07704 61.9668 8.21476 62.122 8.24897 62.2948C8.27177 62.4097 8.22003 62.6035 8.07969 62.5667C7.93059 62.529 7.78323 62.4799 7.63939 62.422C7.33767 62.2983 7.0447 62.1422 6.72193 62.0826C6.25444 61.9966 5.76414 62.1255 5.29753 62.0317C4.8774 61.9466 4.5143 61.6852 4.21872 61.3695C3.94243 61.0748 3.79946 60.6757 3.55475 60.3547C3.40652 60.16 2.91009 59.2741 2.81625 59.0119C2.77151 58.8856 2.72765 58.7479 2.76273 58.6163C2.81097 58.433 2.99166 58.3268 3.16269 58.2707C3.38986 58.1961 3.63019 58.1742 3.86437 58.2032C4.08277 58.2303 4.32571 58.2646 4.48797 58.4321C4.70198 58.6531 4.83707 59.0083 4.98881 59.2802C5.03881 59.3688 5.06949 59.4618 5.10984 59.5513Z" fill="#FFC7AD"/>
<path d="M4.83869 47.9114C4.98867 47.7474 5.19129 47.6123 5.37987 47.693C5.52547 47.7552 5.62195 47.9315 5.69037 48.1078C5.86929 48.5674 5.92454 49.0876 5.96401 49.5971C6.00435 50.1164 6.0298 50.6409 5.97103 51.1566C5.91841 51.6189 5.79035 52.2398 5.49126 52.5433C5.2027 52.8363 4.9264 53.1547 4.64661 53.466C4.08264 54.0931 3.50991 54.7071 2.92576 55.3044C2.65562 55.5807 2.35651 55.9754 2.03374 56.1543C1.11893 56.6613 0.202373 56.0719 0.0225682 55.2027C-0.0449681 54.8737 0.0506378 54.5063 0.156766 54.2089C0.312889 53.7748 0.589164 53.4406 0.825979 53.0836C1.10226 52.667 1.38294 52.2547 1.66624 51.8451C2.41616 50.761 3.17836 49.6603 4.03528 48.7078C4.24929 48.4701 4.79308 47.9614 4.83869 47.9114Z" fill="#F4F4FA"/>
<path d="M3.97375 61.2054C3.97375 61.2054 0.444322 57.0436 0.00840609 55.1324C-0.0959682 54.6737 0.797773 54.4027 1.23895 54.029C1.54067 53.7738 1.99063 54.0106 2.2792 54.1834C2.63793 54.4001 5.15608 59.4837 5.35869 59.7644C5.64549 60.1634 3.97375 61.2054 3.97375 61.2054Z" fill="#F4F4FA"/>
<path d="M7.09841 47.7218C7.48959 48.434 10.3928 49.6742 10.3445 47.8692C10.277 45.3519 10.1349 45.0634 9.03153 44.6731C8.72981 44.5661 8.41406 44.4836 8.09392 44.4774C6.93002 44.4546 7.38083 45.0897 7.42469 45.5335C7.5545 46.8491 6.76511 47.1157 7.09841 47.7218Z" fill="#FFBFA2"/>
<path d="M7.23038 51.0197C7.56016 51.6249 7.60489 52.3503 7.31457 52.9598C7.90311 52.5029 8.118 51.7486 8.02327 51.0495C7.92767 50.3514 7.56106 49.6988 7.13654 49.0971C6.64976 48.4077 6.31381 47.8665 6.4866 47.057C6.60589 46.5 6.94181 46.0843 7.1453 45.5703C7.30932 45.1554 7.32774 44.6836 7.47421 44.2538C7.75137 43.4399 8.04697 42.6145 7.79436 41.7514C7.71543 41.4822 7.56807 41.2541 7.37511 41.0822C7.09707 40.834 6.72517 40.7033 6.3296 40.7358C5.76826 40.7814 5.42182 41.1331 5.22886 41.6392C5.09116 41.9979 5.08853 42.3786 5.05256 42.7548C4.95433 43.7854 4.45964 44.8818 4.49823 45.9089C4.51841 46.4676 4.66489 46.9851 4.69997 47.5411C4.73856 48.1665 4.87188 48.8147 5.33762 49.319C5.73758 49.7514 6.32611 50.0163 6.76378 50.4198C6.95498 50.5969 7.11197 50.8004 7.23038 51.0197Z" fill="#15151A"/>
<path d="M10.4447 40.4393C11.1332 40.6542 11.9006 41.0269 12.1304 41.7856C12.2909 42.3198 12.1602 42.8881 12.0752 43.4267C12.0032 43.8766 12.0138 44.2617 12.1313 44.7037C12.1743 44.8677 12.1734 45.0265 12.1515 45.1967C12.1331 45.3326 12.0997 45.4633 12.0646 45.5957C11.9831 45.9018 11.8708 46.2009 11.777 46.5044C11.6638 46.871 11.5226 47.3315 11.1884 47.5552C10.7648 47.8393 10.2377 47.5306 9.85262 47.3411C9.48161 47.1578 9.11586 46.964 8.75625 46.7579C8.43435 46.5746 8.06859 46.4237 7.81949 46.1343C7.56163 45.8352 7.46516 45.4352 7.28009 45.0914C7.19238 44.9282 7.12659 44.7441 7.05028 44.5722C6.96169 44.3739 6.88541 44.1678 6.85032 43.9512C6.78893 43.581 6.78365 43.1837 6.83979 42.8092C6.96083 42.0032 7.38886 41.2418 8.05369 40.7735C8.76063 40.2744 9.64299 40.1884 10.4447 40.4393Z" fill="#F8D1BF"/>
<path d="M11.1895 42.1436C11.0334 42.4067 10.8782 42.6698 10.7229 42.933C10.5826 43.1707 10.4414 43.4101 10.2677 43.625C10.08 43.8557 9.85811 44.0548 9.63358 44.2495C9.29502 44.5433 8.94419 44.831 8.5416 45.0292C8.13989 45.2274 7.67677 45.3318 7.23735 45.2397C6.79179 45.1468 6.70496 44.638 6.52165 44.2889C6.35588 43.9714 6.15238 43.6232 6.0901 43.2654C5.92082 42.2857 6.18308 41.6629 6.33218 41.4252C6.64969 40.9165 7.09964 40.4894 7.62765 40.2052C8.36967 39.8061 9.11608 39.7772 9.93178 39.857C10.28 39.8921 10.5466 39.9771 10.8571 40.1569C11.1773 40.3429 11.4676 40.5797 11.7035 40.8648C12.2149 41.4849 12.442 42.3681 12.1236 43.1417C12.1552 43.0654 11.5693 42.3006 11.1895 42.1436Z" fill="#2E2E37"/>
<path d="M7.12892 44.1442C6.6088 44.11 6.47635 44.7555 6.83333 45.2546C6.9377 45.4002 7.12278 45.5291 7.25873 45.6449C8.19108 46.4387 8.42526 45.58 8.1288 45.3098C7.44116 44.6818 7.78323 44.1889 7.12892 44.1442Z" fill="#F8D1BF"/>
<path d="M10.4141 61.0923L17.0063 57.2857L25.5983 62.2456L19.0052 66.0531L10.4141 61.0923Z" fill="#F4F4FA"/>
<path d="M20.2666 58.3918C20.2648 58.776 20.2288 59.1601 20.1587 59.5373C20.1429 59.6206 20.1253 59.7048 20.0815 59.7767C20.0367 59.8478 19.9604 59.9057 19.8762 59.9048C19.7859 59.9039 19.7078 59.8355 19.6666 59.7548C19.5929 59.6101 19.621 59.4373 19.6368 59.275C19.6517 59.1128 19.6447 58.9286 19.5254 58.818L19.3298 58.6926C19.0939 58.5304 19.0702 58.1515 19.257 57.9331C19.4245 57.7392 19.757 57.6682 19.9999 57.7489C20.2709 57.8375 20.2674 58.1409 20.2666 58.3918Z" fill="#FFC7AD"/>
<path d="M73.564 17.8831C72.2703 18.6295 71.4204 20.1504 71.1537 21.3266C70.9871 22.0572 71.0327 22.6808 71.2757 23.036C71.3178 23.0939 72.3167 24.478 72.4641 26.1445L72.486 26.2058L72.5527 26.1866L74.3279 25.1621C74.4341 25.1007 74.5288 24.9402 74.5402 24.8051C74.684 23.0229 75.6225 20.6047 75.7295 20.3346C76.1163 19.2952 75.9988 18.2418 75.4445 17.7726C75.2436 17.6024 74.9954 17.5182 74.713 17.5182C74.3735 17.5182 73.9841 17.6402 73.564 17.8831ZM72.3711 26.4269C72.2826 26.3804 72.2273 26.2883 72.2168 26.1664C72.0747 24.5674 71.1151 23.2386 71.0713 23.179C70.7836 22.7589 70.7266 22.0809 70.9108 21.2713C71.1897 20.0425 72.0799 18.4514 73.4394 17.6664C74.6112 16.9911 75.2998 17.3235 75.605 17.5831C76.2488 18.1269 76.3926 19.2672 75.9602 20.4267C75.8558 20.6924 74.9287 23.0781 74.7875 24.8244C74.77 25.0428 74.6288 25.2753 74.4516 25.377L72.6764 26.4023L72.4939 26.4558L72.3711 26.4269Z" fill="#35353F"/>
<path d="M73.5074 17.1648L73.6319 17.0402V15.201L73.5074 15.0764L73.3828 15.201V17.0402L73.5074 17.1648Z" fill="#35353F"/>
<path d="M75.2143 16.6271L75.3301 16.5473L76.0844 14.6019L76.0133 14.4414L75.8528 14.5124L75.0977 16.4578L75.1687 16.6183L75.2143 16.6271Z" fill="#35353F"/>
<path d="M76.5183 17.2893L76.6157 17.2437L77.9954 15.5263L77.9761 15.3518L77.8015 15.3711L76.4219 17.0875L76.4403 17.2621L76.5183 17.2893Z" fill="#35353F"/>
<path d="M77.0727 18.9917L77.135 18.9742L78.7278 18.055L78.7734 17.8848L78.6041 17.8392L77.0105 18.7593L76.9648 18.9294L77.0727 18.9917Z" fill="#35353F"/>
<path d="M77.9925 21.4747L78.1162 21.3616L78.0039 21.2265L76.6242 21.1029L76.4883 21.216L76.6014 21.3511L77.9811 21.4739L77.9925 21.4747Z" fill="#35353F"/>
<path d="M71.7983 18.5988L71.8694 18.5768L71.9001 18.4032L71.1449 17.3296L70.9721 17.2989L70.9414 17.4726L71.6957 18.5462L71.7983 18.5988Z" fill="#35353F"/>
<path d="M70.4925 20.7695L70.6162 20.6564L70.5039 20.5213L69.1234 20.3977L68.9883 20.5108L69.1014 20.6459L70.4811 20.7695H70.4925Z" fill="#35353F"/>
<path d="M68.3423 24.0323L68.4045 24.0148L69.9973 23.0956L70.043 22.9254L69.8728 22.8798L68.28 23.7999L68.2344 23.9692L68.3423 24.0323Z" fill="#35353F"/>
<path d="M69.0183 26.6541L69.1157 26.6075L70.4954 24.8911L70.4761 24.7165L70.3015 24.7349L68.9219 26.4514L68.9403 26.6269L69.0183 26.6541Z" fill="#35353F"/>
<path d="M74.4865 26.0418L72.6499 27.1031C72.5753 27.146 72.5069 27.2645 72.5069 27.3504V28.5064L72.5078 28.5257L72.5253 28.5169L74.362 27.4574C74.4374 27.4136 74.5049 27.296 74.5049 27.2101V26.0532V26.0339L74.4865 26.0418ZM72.3806 28.7476C72.3025 28.702 72.2578 28.6152 72.2578 28.5064V27.3504C72.2578 27.1741 72.3727 26.975 72.5253 26.8873L74.362 25.8269C74.4558 25.7725 74.554 25.7681 74.6312 25.8129C74.7093 25.8576 74.754 25.9453 74.754 26.0532V27.2101C74.754 27.3855 74.6391 27.5846 74.4865 27.6723L72.6499 28.7327L72.4955 28.7775L72.3806 28.7476Z" fill="#35353F"/>
<path d="M73.1459 26.1111L73.1573 26.1102L73.2704 25.976L73.0626 23.5535C73.0494 23.4079 73.1652 23.1974 73.2994 23.1202L73.8344 22.8105L73.923 22.7904L73.9476 22.9L73.7397 25.5629L73.8537 25.6971L73.987 25.5822L74.1949 22.9202C74.2072 22.7667 74.1563 22.643 74.0554 22.5799C73.959 22.5185 73.8327 22.5246 73.7107 22.5957L73.1748 22.9044C72.9547 23.0316 72.7933 23.3324 72.8143 23.5745L73.0222 25.997L73.1459 26.1111Z" fill="#35353F"/>
<path d="M12.1999 25.6497C11.9368 26.6742 11.8394 27.8135 12.2753 28.8266C12.6235 29.6344 13.476 30.2738 14.3979 30.4185C15.0794 30.5246 15.6697 30.3369 16.0609 29.8878C16.8204 29.0169 16.502 27.61 15.7276 26.8417C15.0189 26.1391 13.9339 25.7427 12.5016 25.662C12.4016 25.6568 12.3008 25.6532 12.1999 25.6497ZM0.934468 37.7256C0.531882 34.5102 1.6116 31.1763 3.82276 28.8073C5.89796 26.5847 8.8906 25.2971 11.9253 25.2971H11.935C12.0762 24.8068 12.249 24.3481 12.4121 23.9464C15.7074 15.8754 23.0873 9.54099 31.6723 7.41579L31.7565 7.75438C23.2776 9.85327 15.9889 16.1087 12.7358 24.0788C12.5858 24.4446 12.4288 24.8603 12.2964 25.3042L12.5209 25.3147C14.0409 25.3989 15.2022 25.8295 15.9732 26.5944C16.8599 27.4732 17.2125 29.0985 16.324 30.1168C15.8504 30.6597 15.1478 30.8886 14.3435 30.7632C13.3085 30.6009 12.3481 29.8782 11.9552 28.9643C11.4938 27.8925 11.5789 26.7102 11.8412 25.6471C8.93095 25.6699 6.06899 26.9136 4.07798 29.0459C1.93612 31.3403 0.890631 34.568 1.28094 37.6826L0.934468 37.7256Z" fill="#35353F"/>
<path d="M30.7309 9.65857L31.1282 7.73423L30.0195 6.11246L34.5778 7.04305L30.7309 9.65857Z" fill="#35353F"/>
<path d="M8.78167 39.0754L8.32031 35.4794L8.66676 35.4355L9.12724 39.0307L8.78167 39.0754Z" fill="#35353F"/>
<path d="M7.9764 39.3079L6.85547 36.9467L7.17035 36.7967L8.29128 39.1587L7.9764 39.3079Z" fill="#35353F"/>
<path d="M7.26582 39.8307L4.80469 37.0371L5.06606 36.8065L7.52719 39.6L7.26582 39.8307Z" fill="#35353F"/>
</svg>
