<svg width="74" height="90" viewBox="0 0 74 90" fill="none" xmlns="http://www.w3.org/2000/svg">
<path d="M12.9552 21.5503L10.8867 20.3484L11.0521 78.496L13.1199 79.6978L12.9552 21.5503Z" fill="#BFC7ED"/>
<path d="M15.8525 18.5622C14.9594 19.0775 14.235 20.3318 14.2383 21.3584L14.403 79.5061C14.4056 80.5332 15.1347 80.9487 16.0278 80.4323L39.5085 66.8755C40.4023 66.3601 41.1267 65.1058 41.1234 64.0794L40.9587 5.93174C40.9561 4.90449 40.227 4.4888 39.3332 5.00542L15.8525 18.5622Z" fill="#F4F4FA"/>
<path d="M29.5136 12.2227L25.1941 14.7162C25.0274 14.8124 24.8906 14.7341 24.8906 14.5409C24.8906 14.3476 25.0274 14.1112 25.1941 14.015L29.5136 11.5209C29.6809 11.4246 29.8177 11.5036 29.8177 11.6962C29.8177 11.8894 29.6809 12.1265 29.5136 12.2227Z" fill="#2A1A30"/>
<path d="M31.2999 10.8117C31.2999 11.0939 31.102 11.4378 30.857 11.5786C30.6126 11.72 30.4141 11.6052 30.4141 11.323C30.4141 11.0407 30.6126 10.6974 30.857 10.556C31.1013 10.4146 31.2999 10.5294 31.2999 10.8117Z" fill="#2A1A30"/>
<path d="M36.7888 2.59768L13.3082 16.1545C13.101 16.274 12.8998 16.4201 12.7079 16.5874C12.3121 16.9314 11.9549 17.3657 11.6641 17.8424L13.7325 19.0443C14.0233 18.5675 14.3793 18.1333 14.7757 17.7886C14.9676 17.622 15.1688 17.4759 15.376 17.3564L38.8566 3.79958L36.7888 2.59768Z" fill="#F4F4FA"/>
<path d="M15.3762 17.3563L13.3085 16.1544C11.9665 16.9287 10.8827 18.8065 10.8867 20.3484L12.9552 21.5503C12.9506 20.0084 14.0342 18.1312 15.3762 17.3563Z" fill="#EBEEFC"/>
<path d="M11.7599 80.0544L13.8277 81.2563C13.3915 81.0027 13.1212 80.4642 13.1192 79.6977L11.0508 78.4965C11.0528 79.2622 11.3237 79.8015 11.7599 80.0544Z" fill="#BFC7ED"/>
<path d="M11.7593 80.0544L13.8277 81.2563C13.3915 81.0027 13.1212 80.4642 13.1192 79.6977L11.0508 78.496C11.0528 79.2622 11.3237 79.8015 11.7593 80.0544Z" fill="#BFC7ED"/>
<mask id="mask0_1478_14493" style="mask-type:luminance" maskUnits="userSpaceOnUse" x="11" y="78" width="3" height="4">
<path d="M11.7632 80.0545L13.8316 81.2565C13.3954 81.0028 13.1251 80.4644 13.1231 79.6979L11.0547 78.4961C11.0567 79.2623 11.3276 79.8016 11.7632 80.0545Z" fill="white"/>
</mask>
<g mask="url(#mask0_1478_14493)">
<path d="M13.8316 81.2565L11.7638 80.0545C11.4551 79.8752 11.23 79.5539 11.1231 79.1095C11.0792 78.9257 11.0554 78.7213 11.0547 78.4966L13.1231 79.6979C13.1251 80.4644 13.3954 81.0028 13.8316 81.2565Z" fill="#B5BEEA"/>
</g>
<path d="M40.5853 3.63023L38.5175 2.42834C38.076 2.17203 37.4644 2.20788 36.7891 2.59767L38.8569 3.79956C39.5322 3.40978 40.1437 3.37325 40.5853 3.63023Z" fill="#F4F4FA"/>
<mask id="mask1_1478_14493" style="mask-type:luminance" maskUnits="userSpaceOnUse" x="36" y="2" width="5" height="2">
<path d="M36.7891 2.59766L38.8569 3.79956C39.5322 3.40978 40.1437 3.37325 40.5853 3.63023L38.5175 2.42834C38.3323 2.32077 38.1164 2.26432 37.8794 2.26432C37.5507 2.26432 37.1808 2.3719 36.7891 2.59766Z" fill="white"/>
</mask>
<g mask="url(#mask1_1478_14493)">
<path d="M40.586 3.63025L38.5183 2.42836C38.2507 2.27298 37.92 2.22516 37.5508 2.29821L39.6193 3.49944C39.9878 3.42639 40.3184 3.4742 40.586 3.63025Z" fill="#F4F4FA"/>
<path d="M39.6185 3.49942L37.55 2.29819C37.311 2.34533 37.0547 2.44427 36.7891 2.59767L38.8569 3.79956C39.1225 3.64617 39.3788 3.54723 39.6185 3.49942Z" fill="#F4F4FA"/>
</g>
<path d="M41.1251 64.0794C41.1291 65.1058 40.4046 66.3602 39.5115 66.8756L16.0302 80.4324C15.5574 80.7058 15.1304 80.7177 14.8336 80.5167H14.8329C14.6291 80.3785 14.4856 80.1395 14.4305 79.8153C14.4146 79.7199 14.406 79.6169 14.4053 79.5061L14.2406 21.3585C14.24 21.1367 14.2732 20.9036 14.3349 20.6692C14.5587 19.8239 15.155 18.966 15.8548 18.5623L39.3355 5.00548C39.4624 4.93243 39.5859 4.87799 39.7041 4.84147C39.9836 4.75514 40.2359 4.7671 40.4398 4.8667C40.6623 4.97626 40.8276 5.18942 40.9073 5.49155C40.9418 5.62237 40.9604 5.76912 40.9611 5.9318L41.1251 64.0794ZM41.2957 5.18875C41.2957 4.94505 41.2672 4.72394 41.216 4.52872V4.52805C41.0965 4.07518 40.8488 3.75512 40.5148 3.59177V3.59111C40.2094 3.4417 39.8309 3.4231 39.4119 3.55325C39.2339 3.60837 39.0487 3.69005 38.8588 3.79961L15.3781 17.3564C14.3269 17.9633 13.4338 19.2475 13.0985 20.5165C13.0055 20.8671 12.9557 21.2164 12.9571 21.5504L13.1217 79.6978C13.1217 79.8633 13.135 80.0187 13.1589 80.1621H13.1596C13.2426 80.6487 13.457 81.0074 13.7632 81.2144C14.2087 81.5161 14.8488 81.4966 15.5587 81.087L39.0394 67.5303C40.3814 66.756 41.4651 64.8781 41.4611 63.3363L41.2957 5.18875Z" fill="#EBEEFC"/>
<path d="M14.1875 23.6619L14.3516 79.5359C14.3516 79.8441 14.4186 80.0975 14.5368 80.2876C14.8078 80.7283 15.3516 80.8227 15.9764 80.4614L39.4564 66.9054C39.5779 66.8356 39.6961 66.7513 39.8104 66.6556C40.5335 66.0533 41.0746 64.9963 41.0713 64.1092L40.906 8.23724C40.9033 7.20934 40.1756 6.79431 39.2811 7.31093L15.8011 20.867C15.1132 21.2641 14.5255 22.0982 14.2944 22.9302C14.2247 23.1785 14.1862 23.4269 14.1875 23.6619Z" fill="#2E2E37"/>
<path d="M3.78647 62.0661C4.08064 62.8102 4.52819 63.5513 5.246 63.9777C5.81839 64.3171 6.62519 64.3297 7.25468 64.0076C7.71884 63.7705 7.99705 63.3921 8.03689 62.9431C8.11459 62.0713 7.2932 61.3515 6.47711 61.2259C5.73141 61.111 4.88941 61.351 3.97637 61.9392C3.91263 61.9802 3.84889 62.0228 3.78647 62.0661ZM2.26054 74.4753C0.583206 72.6851 -0.238852 70.1631 0.0606247 67.7282C0.342836 65.4407 1.60514 63.3184 3.46707 61.9678C3.33493 61.6044 3.23666 61.2467 3.15831 60.9279C1.5839 54.5187 3.28514 47.3545 7.59733 42.2314L7.79917 42.402C3.5401 47.4606 1.86012 54.5359 3.41461 60.8648C3.48633 61.1556 3.57464 61.4804 3.6915 61.8111L3.83362 61.7175C4.80243 61.0931 5.70618 60.8402 6.51696 60.965C7.45125 61.1084 8.39082 61.947 8.29985 62.9664C8.25137 63.5091 7.9227 63.9625 7.37488 64.2433C6.66835 64.6047 5.75861 64.5894 5.11119 64.2047C4.35154 63.7534 3.87677 62.9916 3.56535 62.2232C1.79306 63.5329 0.593155 65.5681 0.322896 67.7606C0.0327161 70.1187 0.828874 72.5616 2.45375 74.2948L2.26054 74.4753Z" fill="#35353F"/>
<path d="M8.01791 44.0237L7.40501 42.6684L6.00391 42.1683L9.20981 40.7095L8.01791 44.0237Z" fill="#35353F"/>
<path d="M67.8475 8.4896C67.6191 8.4896 67.3913 8.50354 67.1643 8.53143C66.3362 8.63435 65.6742 8.9013 65.1987 9.32495C64.6343 9.82762 64.37 10.562 64.5254 11.1962C64.7757 12.2214 66.0294 12.7195 67.0427 12.5953C68.6822 12.3928 70.1198 10.9 70.4213 9.10449C69.6431 8.70673 68.7493 8.4896 67.8475 8.4896ZM69.2599 17.519L69.2573 17.2548C70.8503 17.2388 72.3616 16.0748 72.8516 14.4858C73.3165 12.9771 72.839 11.1743 71.663 10.0003C71.3695 9.70676 71.0322 9.45111 70.6657 9.23796C70.3131 11.1039 68.7991 12.6444 67.0753 12.8569C65.9205 12.9983 64.5579 12.4399 64.2691 11.2593C64.0911 10.5308 64.3866 9.69415 65.0234 9.1284C65.54 8.66756 66.2492 8.37871 67.1317 8.26981C68.2785 8.12704 69.4551 8.33621 70.4585 8.82892C70.6245 7.24256 69.9957 5.49284 68.7533 4.10968C67.141 2.31547 64.5978 1.30018 62.1104 1.45623L62.0938 1.19261C64.6582 1.03258 67.2851 2.08107 68.9498 3.93371C70.2686 5.40121 70.922 7.2731 70.7095 8.95973C71.1305 9.19347 71.5163 9.47966 71.8496 9.813C73.0934 11.0554 73.5967 12.9638 73.104 14.5635C72.5807 16.2594 70.9645 17.5024 69.2599 17.519Z" fill="#35353F"/>
<path d="M62.2755 5.05447e-05L60.2383 1.66875L62.7018 2.59839L62.2755 5.05447e-05Z" fill="#35353F"/>
<path d="M19.7144 73.3784L18.2256 72.5131C17.7428 72.233 17.4441 71.6366 17.4414 70.7892L18.9301 71.6545C18.9328 72.5019 19.2316 73.098 19.7144 73.3784Z" fill="#CED4F1"/>
<mask id="mask2_1478_14493" style="mask-type:luminance" maskUnits="userSpaceOnUse" x="17" y="70" width="3" height="4">
<path d="M19.7144 73.3784L18.2256 72.5131C17.7428 72.233 17.4441 71.6366 17.4414 70.7892L18.9301 71.6545C18.9328 72.5019 19.2323 73.0975 19.7144 73.3784Z" fill="white"/>
</mask>
<g mask="url(#mask2_1478_14493)">
<path d="M19.7144 73.3784L18.2256 72.5131C17.7428 72.233 17.4441 71.6366 17.4414 70.7892L18.9301 71.6545C18.9328 72.5019 19.2316 73.098 19.7144 73.3784Z" fill="#CED4F1"/>
</g>
<path d="M18.9316 71.6545L17.4428 70.7892L17.3711 45.3087L18.8598 46.1738L18.9316 71.6545Z" fill="#CED4F1"/>
<path d="M18.8598 46.1737L17.3711 45.3087L62.2547 19.3949L63.7434 20.2601L18.8598 46.1737Z" fill="#848484"/>
<path d="M63.743 20.2601L63.8153 45.7403C63.82 47.4473 62.6208 49.5232 61.1367 50.3797L21.6277 73.1903C20.1436 74.0471 18.9364 73.361 18.9311 71.6545L18.8594 46.1737L63.743 20.2601Z" fill="#F4F4FB"/>
<path d="M61.4593 13.4299L62.948 14.2951C62.4593 14.0116 61.7826 14.0514 61.0356 14.483L59.5469 13.6178C60.2939 13.1862 60.9705 13.1463 61.4593 13.4299Z" fill="#4281EE"/>
<mask id="mask3_1478_14493" style="mask-type:luminance" maskUnits="userSpaceOnUse" x="59" y="13" width="4" height="2">
<path d="M61.4514 13.4301L62.9402 14.2954C62.4515 14.0118 61.7748 14.0517 61.0278 14.4833L59.5391 13.6181C60.2854 13.1864 60.9627 13.1466 61.4514 13.4301Z" fill="white"/>
</mask>
<g mask="url(#mask3_1478_14493)">
<path d="M61.0278 14.4833L59.5391 13.6181C60.2861 13.1864 60.9627 13.1466 61.4514 13.4301L62.9402 14.2954C62.4515 14.0118 61.7748 14.0517 61.0278 14.4833Z" fill="#4281EE"/>
</g>
<path d="M18.8568 46.1737L17.3681 45.3087L17.3555 41.068L18.8449 41.9333L18.8568 46.1737Z" fill="#4281EE"/>
<path d="M21.5239 37.2937L20.0352 36.4286L59.5448 13.6179L61.0335 14.4831L21.5239 37.2937Z" fill="#4281EE"/>
<path d="M18.8449 41.9333L17.3555 41.0681C17.3508 39.361 18.5507 37.2852 20.0342 36.4286L21.5229 37.2937C20.0395 38.1505 18.8396 40.2261 18.8449 41.9333Z" fill="#4281EE"/>
<mask id="mask4_1478_14493" style="mask-type:luminance" maskUnits="userSpaceOnUse" x="17" y="36" width="5" height="6">
<path d="M18.852 41.9331L17.3633 41.0678C17.3586 39.3608 18.5585 37.2849 20.042 36.4284L21.5307 37.2935C20.0473 38.1502 18.8474 40.2258 18.852 41.9331Z" fill="white"/>
</mask>
<g mask="url(#mask4_1478_14493)">
<path d="M18.8527 41.9331L17.3633 41.0678C17.3586 39.3608 18.5585 37.2849 20.042 36.4284L21.5307 37.2935C20.0473 38.1502 18.8474 40.2258 18.8527 41.9331Z" fill="#4281EE"/>
</g>
<path d="M61.0353 14.4831C62.5187 13.6265 63.7266 14.3124 63.7313 16.019L63.7432 20.2601L18.8596 46.1737L18.8477 41.9333C18.8424 40.226 20.0423 38.1504 21.5257 37.2937L61.0353 14.4831Z" fill="#296BDC"/>
<path d="M60.6912 23.1101L20.25 46.4585L20.2686 58.7332L60.6912 35.3952V23.1101Z" fill="white"/>
<path d="M25.7766 47.2089C25.7766 45.8191 24.7872 45.264 23.566 45.9685C22.3449 46.6738 21.3555 48.3717 21.3555 49.7615C21.3555 51.1518 22.3455 51.7071 23.566 51.0019C24.7872 50.2974 25.7766 48.5994 25.7766 47.2089Z" fill="#CED4F1"/>
<path d="M24.2533 46.6998C24.2533 47.1306 23.9466 47.6572 23.5681 47.8756C23.1896 48.0942 22.8828 47.9222 22.8828 47.4911C22.8828 47.0603 23.1896 46.5338 23.5681 46.3151C23.9466 46.0975 24.2533 46.2695 24.2533 46.6998Z" fill="white"/>
<path d="M24.6409 49.6918V48.4042C24.6409 47.8411 24.2365 47.6141 23.7425 47.8996L23.3945 48.1002C22.9005 48.3858 22.4961 49.0796 22.4961 49.6427V50.9301L24.6409 49.6918Z" fill="white"/>
<path d="M24.4306 52.8718L21.3555 54.6473V53.7172L24.4306 51.9422V52.8718Z" fill="#CED4F1"/>
<path d="M26.0608 53.2384L21.3555 55.9557V55.0253L26.0608 52.3087V53.2384Z" fill="#CED4F1"/>
<path d="M27.883 52.1873L26.4062 53.0399V52.1095L27.883 51.2569V52.1873Z" fill="#CED4F1"/>
<path d="M30.1718 50.8665L28.5117 51.8247V50.8951L30.1718 49.9361V50.8665Z" fill="#CED4F1"/>
<path d="M32.8557 49.3159L30.582 50.6287V49.6985L32.8557 48.3858V49.3159Z" fill="#CED4F1"/>
<path d="M38.1519 46.2587L33.2461 49.0916V48.1611L38.1519 45.3291V46.2587Z" fill="#CED4F1"/>
<path d="M40.4611 44.9248L38.5234 46.043V45.1133L40.4611 43.9944V44.9248Z" fill="#CED4F1"/>
<path d="M42.7657 43.5954L40.8281 44.7136L40.8288 43.7832L42.7657 42.665V43.5954Z" fill="#CED4F1"/>
<path d="M48.8068 38.7992L44.1016 41.5157V40.5861L48.8068 37.8688V38.7992Z" fill="#CED4F1"/>
<path d="M50.6292 37.7479L49.1523 38.6005V37.6704L50.6292 36.8178V37.7479Z" fill="#CED4F1"/>
<path d="M52.914 36.4273L51.2539 37.3855V36.4551L52.914 35.4969V36.4273Z" fill="#CED4F1"/>
<path d="M55.6018 34.8767L53.3281 36.1887V35.2591L55.6018 33.9464V34.8767Z" fill="#CED4F1"/>
<path d="M59.5833 32.5765L55.9883 34.6516V33.722L59.5833 31.6461V32.5765Z" fill="#CED4F1"/>
<path d="M27.6721 51.0011L24.7656 52.6791V51.7489L27.6721 50.071V51.0011Z" fill="#CED4F1"/>
<path d="M31.063 44.2037L26.8125 46.6577V44.7136L31.063 42.2593V44.2037Z" fill="#CED4F1"/>
<path d="M40.0663 39.0043L31.582 43.9028V41.9585L40.0663 37.06V39.0043Z" fill="#CED4F1"/>
<path d="M29.5835 46.9055L26.8125 48.5059V47.2481L29.5835 45.6485V46.9055Z" fill="#CED4F1"/>
<path d="M35.4526 43.5163L29.9219 46.7096V45.4526L35.4526 42.2585V43.5163Z" fill="#CED4F1"/>
<path d="M30.5847 49.3207L28.0508 50.7836V49.8539L30.5847 48.3902V49.3207Z" fill="#CED4F1"/>
<path d="M32.0694 48.462L30.9492 49.1086V48.1785L32.0694 47.5316V48.462Z" fill="#CED4F1"/>
<path d="M43.6977 41.7481L42.5781 42.3948V41.4646L43.6977 40.8185V41.7481Z" fill="#CED4F1"/>
<path d="M34.8897 46.8339L32.4102 48.2654V47.3357L34.8897 45.9034V46.8339Z" fill="#CED4F1"/>
<path d="M42.0993 42.6723L35.5586 46.4487V45.5191L42.0993 41.7427V42.6723Z" fill="#CED4F1"/>
<path d="M53.6901 37.1051C53.815 37.0314 53.9391 37.0101 54.0254 37.0433C54.3103 37.1531 54.3143 37.8588 53.3329 39.1376C52.3335 39.0302 52.3182 38.3301 52.5958 37.8879C52.6801 37.7545 52.803 37.629 52.9278 37.5559C53.0752 37.4689 53.224 37.4537 53.3123 37.5813C53.3953 37.3527 53.5427 37.1922 53.6901 37.1051Z" fill="#E7E6F1"/>
<path d="M54.4648 37.1211L54.6236 36.9245L54.7789 36.8343V37.7631L54.6222 37.8541V37.1011L54.4648 37.2373V37.1211Z" fill="#2E2E37"/>
<path d="M54.8828 36.7957C54.9844 36.7168 55.078 36.6504 55.2228 36.5667C55.3921 36.4692 55.4658 36.5581 55.4658 36.714C55.4658 36.9225 55.2308 37.2732 55.1564 37.3835L55.4658 37.2048V37.3682L54.8908 37.7002V37.544C54.9957 37.404 55.3085 36.9532 55.3085 36.8058C55.3085 36.7215 55.2693 36.7049 55.173 36.7607L54.8828 36.9285V36.7957Z" fill="#2E2E37"/>
<path d="M58.9609 34.455C59.0592 34.3587 59.192 34.2838 59.3235 34.2101C59.4463 34.1416 59.5254 34.1808 59.5254 34.317V34.3834C59.5254 34.4762 59.4988 34.5546 59.441 34.6124C59.5001 34.6064 59.5254 34.6562 59.5254 34.7532V34.807C59.5254 34.9537 59.4516 35.0764 59.3155 35.1556C59.1874 35.2292 59.0659 35.3029 58.9676 35.321L58.9689 35.1908L59.2531 35.0261C59.3281 34.9828 59.368 34.9542 59.368 34.8734V34.8334C59.368 34.7566 59.3262 34.7644 59.2597 34.7996L59.0373 34.9192V34.7758L59.2597 34.635C59.3374 34.5859 59.37 34.5473 59.37 34.4804V34.4344C59.37 34.3621 59.3182 34.3766 59.2597 34.4106L58.9609 34.583V34.455Z" fill="#2E2E37"/>
<path d="M58.4175 34.5208L57.0775 35.2943C56.9845 35.3475 56.9102 35.4756 56.9102 35.5804V36.6683C56.9102 36.7731 56.9845 36.8151 57.0775 36.7611L57.9647 36.2491L58.454 36.364L58.4467 35.9669C58.5251 35.9059 58.5848 35.7944 58.5848 35.7013V34.6136C58.5848 34.5089 58.5098 34.4668 58.4175 34.5208Z" fill="#2E2E37"/>
<path d="M60.6912 36.7259L20.25 60.074L20.2686 72.3484L60.6912 49.0104V36.7259Z" fill="white"/>
<path d="M25.7766 60.8248C25.7766 59.4342 24.7872 58.8792 23.566 59.5836C22.3449 60.289 21.3555 61.9869 21.3555 63.3774C21.3555 64.7672 22.3455 65.3223 23.566 64.6178C24.7872 63.9133 25.7766 62.2146 25.7766 60.8248Z" fill="#CED4F1"/>
<path d="M24.2533 60.3155C24.2533 60.7466 23.9466 61.2724 23.5681 61.4915C23.1896 61.7094 22.8828 61.5374 22.8828 61.1063C22.8828 60.6763 23.1896 60.1495 23.5681 59.9311C23.9466 59.7127 24.2533 59.8847 24.2533 60.3155Z" fill="white"/>
<path d="M24.6409 63.307V62.0194C24.6409 61.457 24.2365 61.23 23.7425 61.5154L23.3945 61.7162C22.9005 62.0015 22.4961 62.6948 22.4961 63.2579V64.5455L24.6409 63.307Z" fill="white"/>
<path d="M24.4306 66.4878L21.3555 68.2628V67.3332L24.4306 65.5574V66.4878Z" fill="#CED4F1"/>
<path d="M26.0608 66.8543L21.3555 69.5708V68.6412L26.0608 65.9238V66.8543Z" fill="#CED4F1"/>
<path d="M27.883 65.8025L26.4062 66.6552V65.7255L27.883 64.8729V65.8025Z" fill="#CED4F1"/>
<path d="M30.1718 64.4817L28.5117 65.4407V64.5102L30.1718 63.552V64.4817Z" fill="#CED4F1"/>
<path d="M32.8557 62.9311L30.582 64.2438V63.3136L32.8557 62.0009V62.9311Z" fill="#CED4F1"/>
<path d="M38.1519 59.8748L33.2461 62.7068V61.7764L38.1519 58.9444V59.8748Z" fill="#CED4F1"/>
<path d="M40.4611 58.54L38.5234 59.6589V58.7286L40.4611 57.6103V58.54Z" fill="#CED4F1"/>
<path d="M42.7657 57.2106L40.8281 58.3296L40.8288 57.3992L42.7657 56.2801V57.2106Z" fill="#CED4F1"/>
<path d="M48.8068 52.4143L44.1016 55.1316V54.2012L48.8068 51.4846V52.4143Z" fill="#CED4F1"/>
<path d="M50.6292 51.3633L49.1523 52.2158V51.2855L50.6292 50.4336V51.3633Z" fill="#CED4F1"/>
<path d="M52.914 50.0425L51.2539 51.0007V50.0711L52.914 49.1121V50.0425Z" fill="#CED4F1"/>
<path d="M55.6018 48.4918L53.3281 49.8046V48.8744L55.6018 47.5617V48.4918Z" fill="#CED4F1"/>
<path d="M59.5833 46.1916L55.9883 48.2675V47.3371L59.5833 45.262V46.1916Z" fill="#CED4F1"/>
<path d="M27.6721 64.6166L24.7656 66.2946V65.3641L27.6721 63.6862V64.6166Z" fill="#CED4F1"/>
<path d="M31.063 57.8188L26.8125 60.2737V58.3288L31.063 55.8745V57.8188Z" fill="#CED4F1"/>
<path d="M40.0663 52.6195L31.582 57.5188V55.5745L40.0663 50.6751V52.6195Z" fill="#CED4F1"/>
<path d="M29.5835 60.5214L26.8125 62.121V60.864L29.5835 59.2636V60.5214Z" fill="#CED4F1"/>
<path d="M35.4526 57.1315L29.9219 60.3248V59.0678L35.4526 55.8745V57.1315Z" fill="#CED4F1"/>
<path d="M30.5847 62.9357L28.0508 64.3994V63.469L30.5847 62.0061V62.9357Z" fill="#CED4F1"/>
<path d="M32.0694 62.0772L30.9492 62.7241V61.7938L32.0694 61.1476V62.0772Z" fill="#CED4F1"/>
<path d="M43.6977 55.3641L42.5781 56.0099V55.0802L43.6977 54.4336V55.3641Z" fill="#CED4F1"/>
<path d="M34.8897 60.449L32.4102 61.8813V60.9509L34.8897 59.5194V60.449Z" fill="#CED4F1"/>
<path d="M42.0993 56.2883L35.5586 60.0647V59.1343L42.0993 55.3581V56.2883Z" fill="#CED4F1"/>
<path d="M53.6901 50.7205C53.815 50.6473 53.9391 50.6253 54.0254 50.6585C54.3103 50.7687 54.3143 51.4748 53.3329 52.7535C52.3335 52.6454 52.3182 51.9461 52.5958 51.5038C52.6801 51.3697 52.803 51.2449 52.9278 51.1713C53.0752 51.0841 53.224 51.0688 53.3123 51.1965C53.3953 50.9679 53.5427 50.8079 53.6901 50.7205Z" fill="#E7E6F1"/>
<path d="M54.4648 50.7363L54.6236 50.5397L54.7789 50.4503V51.3791L54.6222 51.4694V50.7172L54.4648 50.8525V50.7363Z" fill="#2E2E37"/>
<path d="M54.8828 50.411C54.9844 50.3324 55.078 50.2655 55.2228 50.1818C55.3921 50.085 55.4658 50.1739 55.4658 50.3293C55.4658 50.5379 55.2308 50.8883 55.1564 50.9985L55.4658 50.8198V50.984L54.8908 51.316V51.1593C54.9957 51.019 55.3085 50.5682 55.3085 50.4209C55.3085 50.3371 55.2693 50.3205 55.173 50.3757L54.8828 50.5438V50.411Z" fill="#2E2E37"/>
<path d="M58.9609 48.071C59.0592 47.9747 59.192 47.899 59.3235 47.8258C59.4463 47.7576 59.5254 47.7968 59.5254 47.9322V47.9993C59.5254 48.0914 59.4988 48.1701 59.441 48.2276C59.5001 48.2217 59.5254 48.2715 59.5254 48.3685V48.4222C59.5254 48.569 59.4516 48.6924 59.3155 48.7708C59.1874 48.8444 59.0659 48.9189 58.9676 48.9363L58.9689 48.8061L59.2531 48.6421C59.3281 48.5988 59.368 48.5697 59.368 48.4886V48.4489C59.368 48.3724 59.3262 48.3799 59.2597 48.4157L59.0373 48.5353V48.3918L59.2597 48.2502C59.3374 48.2017 59.37 48.1625 59.37 48.0956V48.0505C59.37 47.9773 59.3182 47.9926 59.2597 48.0258L58.9609 48.1985V48.071Z" fill="#2E2E37"/>
<path d="M58.4175 48.1359L57.0775 48.9094C56.9845 48.9634 56.9102 49.0915 56.9102 49.1958V50.2842C56.9102 50.3885 56.9845 50.4302 57.0775 50.377L57.9647 49.8645L58.454 49.9799L58.4467 49.5828C58.5251 49.5218 58.5848 49.4103 58.5848 49.3172V48.2288C58.5848 48.1245 58.5098 48.0828 58.4175 48.1359Z" fill="#2E2E37"/>
<path d="M32.0361 18.2329L30.5985 17.3976C30.5527 17.371 30.4936 17.3664 30.4219 17.3909L31.8602 18.2263C31.9312 18.2017 31.991 18.2063 32.0361 18.2329Z" fill="#FCAA2D"/>
<mask id="mask5_1478_14493" style="mask-type:luminance" maskUnits="userSpaceOnUse" x="30" y="17" width="3" height="2">
<path d="M32.0283 18.2327L30.5907 17.3967C30.5449 17.3708 30.4858 17.3661 30.4141 17.3907L31.8524 18.226C31.9234 18.2015 31.9832 18.2061 32.0283 18.2327Z" fill="white"/>
</mask>
<g mask="url(#mask5_1478_14493)">
<path d="M32.0283 18.2327L30.5907 17.3973C30.5449 17.3708 30.4858 17.3661 30.4141 17.3907L31.8524 18.226C31.9234 18.2015 31.9832 18.2061 32.0283 18.2327Z" fill="#FCAA2D"/>
</g>
<path d="M23.6546 27.3705L25.0922 28.2065C25.0232 28.166 24.982 28.0751 24.9946 27.9389L23.557 27.1029C23.5444 27.2391 23.5849 27.3307 23.6546 27.3705Z" fill="#FCAA2D"/>
<mask id="mask6_1478_14493" style="mask-type:luminance" maskUnits="userSpaceOnUse" x="23" y="27" width="3" height="2">
<path d="M23.6585 27.3705L25.0961 28.2065C25.0271 28.166 24.9859 28.0744 24.9985 27.9389L23.5609 27.1029C23.5483 27.2391 23.5888 27.3307 23.6585 27.3705Z" fill="white"/>
</mask>
<g mask="url(#mask6_1478_14493)">
<path d="M24.9985 27.9389L23.5609 27.1029C23.5483 27.2391 23.5888 27.3307 23.6585 27.3705L25.0961 28.2065C25.0271 28.166 24.9859 28.0751 24.9985 27.9389Z" fill="#FCAA2D"/>
</g>
<path d="M31.8568 18.2262L30.4185 17.3908L28.0625 18.2049L29.5001 19.0403L31.8568 18.2262Z" fill="#FCAA2D"/>
<path d="M27.8867 18.197L29.3244 19.033C29.3722 19.0609 29.4332 19.0636 29.501 19.0403L28.0634 18.205C27.9956 18.2282 27.9339 18.2249 27.8867 18.197Z" fill="#FCAA2D"/>
<mask id="mask7_1478_14493" style="mask-type:luminance" maskUnits="userSpaceOnUse" x="27" y="18" width="3" height="2">
<path d="M27.8906 18.197L29.3283 19.033C29.3761 19.0609 29.4371 19.0636 29.5049 19.0403L28.0673 18.205C27.9995 18.2282 27.9378 18.2249 27.8906 18.197Z" fill="white"/>
</mask>
<g mask="url(#mask7_1478_14493)">
<path d="M29.5049 19.0403L28.0673 18.205C27.9995 18.2282 27.9378 18.2249 27.8906 18.197L29.3283 19.033C29.3761 19.0609 29.4371 19.0636 29.5049 19.0403Z" fill="#FCAA2D"/>
</g>
<path d="M25.2645 25.0385L23.8269 24.2025L23.5586 27.103L24.9962 27.939L25.2645 25.0385Z" fill="#FCAA2D"/>
<path d="M25.1766 24.7755L23.7383 23.9401C23.8067 23.986 23.8392 24.0809 23.8279 24.2024L25.2655 25.0385C25.2775 24.9169 25.2443 24.8213 25.1766 24.7755Z" fill="#FCAA2D"/>
<mask id="mask8_1478_14493" style="mask-type:luminance" maskUnits="userSpaceOnUse" x="23" y="23" width="3" height="3">
<path d="M25.1727 24.7755L23.7344 23.9401C23.8028 23.986 23.8353 24.0809 23.824 24.2024L25.2616 25.0385C25.2736 24.9169 25.2404 24.8213 25.1727 24.7755Z" fill="white"/>
</mask>
<g mask="url(#mask8_1478_14493)">
<path d="M25.1727 24.7755L23.7344 23.9401C23.8028 23.986 23.8353 24.0809 23.824 24.2024L25.2616 25.0385C25.2736 24.9169 25.2404 24.8213 25.1727 24.7755Z" fill="#FCAA2D"/>
</g>
<path d="M26.31 20.6884L24.8724 19.853C24.8232 19.9819 24.7389 20.1007 24.6406 20.1804L26.0782 21.0157C26.1765 20.9361 26.2608 20.8172 26.31 20.6884Z" fill="#FCAA2D"/>
<mask id="mask9_1478_14493" style="mask-type:luminance" maskUnits="userSpaceOnUse" x="24" y="19" width="3" height="3">
<path d="M26.3178 20.6886L24.8802 19.8526C24.831 19.9821 24.746 20.101 24.6484 20.1806L26.086 21.016C26.1843 20.9363 26.2686 20.8175 26.3178 20.6886Z" fill="white"/>
</mask>
<g mask="url(#mask9_1478_14493)">
<path d="M26.3178 20.6886L24.8802 19.8533C24.831 19.9821 24.7467 20.101 24.6484 20.1806L26.086 21.016C26.1843 20.9363 26.2686 20.8175 26.3178 20.6886Z" fill="#FCAA2D"/>
</g>
<path d="M28.0257 17.2036L26.5881 16.3676C26.5211 16.3291 26.4321 16.3417 26.3438 16.3928L27.7814 17.2281C27.8703 17.177 27.9593 17.1644 28.0257 17.2036Z" fill="#FCAA2D"/>
<mask id="mask10_1478_14493" style="mask-type:luminance" maskUnits="userSpaceOnUse" x="26" y="16" width="3" height="2">
<path d="M28.0335 17.203L26.5959 16.3677C26.5289 16.3292 26.4399 16.3418 26.3516 16.3929L27.7892 17.2283C27.8782 17.1771 27.9671 17.1645 28.0335 17.203Z" fill="white"/>
</mask>
<g mask="url(#mask10_1478_14493)">
<path d="M28.0335 17.2037L26.5959 16.3677C26.5289 16.3292 26.4399 16.3418 26.3516 16.3929L27.7892 17.2283C27.8782 17.1771 27.9671 17.1645 28.0335 17.2037Z" fill="#FCAA2D"/>
</g>
<path d="M27.4846 17.6027L26.047 16.7674L24.875 19.8531L26.3126 20.6885L27.4846 17.6027Z" fill="#FCAA2D"/>
<path d="M27.784 17.2281L26.3464 16.3928C26.2288 16.4605 26.1126 16.5953 26.0469 16.7673L27.4845 17.6027C27.5503 17.4307 27.6671 17.2959 27.784 17.2281Z" fill="#FCAA2D"/>
<mask id="mask11_1478_14493" style="mask-type:luminance" maskUnits="userSpaceOnUse" x="26" y="16" width="2" height="2">
<path d="M27.7801 17.2283L26.3425 16.3929C26.2249 16.4607 26.1087 16.5954 26.043 16.7674L27.4806 17.6028C27.5464 17.4308 27.6632 17.296 27.7801 17.2283Z" fill="white"/>
</mask>
<g mask="url(#mask11_1478_14493)">
<path d="M27.7801 17.2283L26.3425 16.3929C26.2249 16.4607 26.1087 16.5954 26.043 16.7674L27.4806 17.6028C27.5464 17.4308 27.6632 17.296 27.7801 17.2283Z" fill="#FCAA2D"/>
</g>
<path d="M23.5438 23.6832L22.1055 22.8478L23.737 23.9402L25.1753 24.7755L23.5438 23.6832Z" fill="#FCAA2D"/>
<path d="M26.0793 21.0159L24.6417 20.1805L22.2891 22.0849L23.7267 22.9203L26.0793 21.0159Z" fill="#FCAA2D"/>
<path d="M27.7845 17.2281C27.6676 17.2959 27.5507 17.4307 27.485 17.6026L26.313 20.6884C26.2638 20.8172 26.1795 20.9361 26.0812 21.0157L23.7286 22.9202C23.4656 23.1333 23.3627 23.561 23.5453 23.6831L25.1768 24.7755C25.2446 24.8213 25.2778 24.9169 25.2658 25.0384L24.9976 27.9389C24.9737 28.1999 25.1456 28.2961 25.3409 28.1833L25.4843 28.0644L27.6643 25.6546L27.8077 25.5351L27.9518 25.4886L30.1385 25.3771L30.2819 25.3306C30.4771 25.2184 30.6484 24.9235 30.6225 24.6911L30.339 22.1094C30.3264 22.0018 30.3589 21.8684 30.4266 21.7448L32.0469 18.7746C32.2275 18.4426 32.1226 18.1352 31.8596 18.2262L29.503 19.0403C29.4053 19.0741 29.3204 19.0529 29.2712 18.9805L28.0853 17.2567C28.0189 17.1604 27.9013 17.1611 27.7845 17.2281Z" fill="#FFE042"/>
<path d="M23.7289 22.9203L22.2913 22.0849C22.0283 22.2974 21.9254 22.7257 22.1073 22.8479L23.5456 23.6832C23.363 23.561 23.4659 23.1334 23.7289 22.9203Z" fill="#FCAA2D"/>
<mask id="mask12_1478_14493" style="mask-type:luminance" maskUnits="userSpaceOnUse" x="22" y="22" width="2" height="2">
<path d="M23.7211 22.9201L22.2835 22.0848C22.0205 22.2973 21.9176 22.7256 22.0995 22.8471L23.5378 23.6831C23.3552 23.5609 23.4581 23.1333 23.7211 22.9201Z" fill="white"/>
</mask>
<g mask="url(#mask12_1478_14493)">
<path d="M23.7211 22.9201L22.2835 22.0848C22.0205 22.2973 21.9176 22.7256 22.0995 22.8478L23.5378 23.6831C23.3552 23.5609 23.4581 23.1333 23.7211 22.9201Z" fill="#FCAA2D"/>
</g>
<path d="M23.3986 27.6647L22.3547 27.0584L22.2266 27.0538L23.2704 27.66L23.3986 27.6647Z" fill="#FCAA2D"/>
<mask id="mask13_1478_14493" style="mask-type:luminance" maskUnits="userSpaceOnUse" x="22" y="27" width="2" height="1">
<path d="M23.3986 27.6654L22.3547 27.0585L22.2266 27.0538L23.2704 27.6601L23.3986 27.6654Z" fill="white"/>
</mask>
<g mask="url(#mask13_1478_14493)">
<path d="M23.3986 27.6647L22.3547 27.0584L22.2266 27.0538L23.2704 27.66L23.3986 27.6647Z" fill="#FCAA2D"/>
</g>
<path d="M17.3182 34.2982L18.3621 34.9044C18.3116 34.8754 18.2824 34.809 18.291 34.7107L17.2478 34.1037C17.2385 34.2028 17.2677 34.2684 17.3182 34.2982Z" fill="#FCAA2D"/>
<mask id="mask14_1478_14493" style="mask-type:luminance" maskUnits="userSpaceOnUse" x="17" y="34" width="2" height="1">
<path d="M17.3104 34.2984L18.3543 34.9045C18.3038 34.8755 18.2746 34.8091 18.2832 34.7101L17.24 34.1039C17.2307 34.2029 17.2599 34.2685 17.3104 34.2984Z" fill="white"/>
</mask>
<g mask="url(#mask14_1478_14493)">
<path d="M18.2832 34.7108L17.24 34.1039C17.2307 34.2029 17.2599 34.2685 17.3104 34.2984L18.3543 34.9045C18.3038 34.8755 18.2746 34.8091 18.2832 34.7108Z" fill="#FCAA2D"/>
</g>
<path d="M23.2694 27.6601L22.2255 27.0539L20.5156 27.6448L21.5595 28.2511L23.2694 27.6601Z" fill="#FCAA2D"/>
<path d="M20.3867 27.6395L21.4306 28.2458L21.5594 28.2511L20.5155 27.6448L20.3867 27.6395Z" fill="#FCAA2D"/>
<mask id="mask15_1478_14493" style="mask-type:luminance" maskUnits="userSpaceOnUse" x="20" y="27" width="2" height="2">
<path d="M20.3906 27.6393L21.4345 28.2455L21.5633 28.2509L20.5194 27.6446L20.3906 27.6393Z" fill="white"/>
</mask>
<g mask="url(#mask15_1478_14493)">
<path d="M21.5633 28.2509L20.5194 27.6446L20.3906 27.6393L21.4345 28.2455L21.5633 28.2509Z" fill="#FCAA2D"/>
</g>
<path d="M18.4845 32.605L17.4407 31.9988L17.2461 34.1038L18.2893 34.7107L18.4845 32.605Z" fill="#FCAA2D"/>
<path d="M18.4189 32.4143L17.375 31.8077C17.4241 31.8409 17.448 31.9103 17.4401 31.9988L18.4839 32.605C18.4919 32.5168 18.468 32.4475 18.4189 32.4143Z" fill="#FCAA2D"/>
<mask id="mask16_1478_14493" style="mask-type:luminance" maskUnits="userSpaceOnUse" x="17" y="31" width="2" height="2">
<path d="M18.4228 32.4143L17.3789 31.8077C17.428 31.8409 17.4519 31.9103 17.444 31.9981L18.4878 32.605C18.4958 32.5168 18.4719 32.4475 18.4228 32.4143Z" fill="white"/>
</mask>
<g mask="url(#mask16_1478_14493)">
<path d="M18.4228 32.4143L17.3789 31.8077C17.428 31.8409 17.4519 31.9103 17.444 31.9988L18.4878 32.605C18.4958 32.5168 18.4719 32.4475 18.4228 32.4143Z" fill="#FCAA2D"/>
</g>
<path d="M19.2431 29.4476L18.1999 28.8407C18.1641 28.9343 18.1023 29.0213 18.0312 29.0784L19.0751 29.6853C19.1461 29.6275 19.2072 29.5412 19.2431 29.4476Z" fill="#FCAA2D"/>
<mask id="mask17_1478_14493" style="mask-type:luminance" maskUnits="userSpaceOnUse" x="18" y="28" width="2" height="2">
<path d="M19.247 29.4477L18.2038 28.8408C18.168 28.9344 18.1062 29.0214 18.0352 29.0792L19.079 29.6854C19.15 29.6277 19.2111 29.5413 19.247 29.4477Z" fill="white"/>
</mask>
<g mask="url(#mask17_1478_14493)">
<path d="M19.247 29.4477L18.2038 28.8408C18.168 28.9344 18.1062 29.0214 18.0352 29.0785L19.079 29.6854C19.15 29.6277 19.2111 29.5413 19.247 29.4477Z" fill="#FCAA2D"/>
</g>
<path d="M20.4907 26.9177L19.4468 26.3114C19.3983 26.2829 19.3339 26.2922 19.2695 26.3294L20.3134 26.9363C20.3778 26.8991 20.4422 26.8898 20.4907 26.9177Z" fill="#FCAA2D"/>
<mask id="mask18_1478_14493" style="mask-type:luminance" maskUnits="userSpaceOnUse" x="19" y="26" width="2" height="1">
<path d="M20.4867 26.9176L19.4429 26.3113C19.3944 26.2828 19.33 26.292 19.2656 26.3292L20.3095 26.9362C20.3739 26.899 20.4383 26.8897 20.4867 26.9176Z" fill="white"/>
</mask>
<g mask="url(#mask18_1478_14493)">
<path d="M20.4867 26.9176L19.4429 26.3113C19.3944 26.2828 19.33 26.292 19.2656 26.3292L20.3095 26.9362C20.3739 26.899 20.4383 26.8897 20.4867 26.9176Z" fill="#FCAA2D"/>
</g>
<path d="M20.0937 27.2079L19.0498 26.6009L18.1992 28.8407L19.2424 29.4476L20.0937 27.2079Z" fill="#FCAA2D"/>
<path d="M20.3118 26.9363L19.2679 26.3294C19.1829 26.3785 19.0979 26.4761 19.0508 26.601L20.0946 27.2079C20.1418 27.083 20.2268 26.9854 20.3118 26.9363Z" fill="#FCAA2D"/>
<mask id="mask19_1478_14493" style="mask-type:luminance" maskUnits="userSpaceOnUse" x="19" y="26" width="2" height="2">
<path d="M20.3157 26.9362L19.2718 26.3293C19.1868 26.3784 19.1018 26.476 19.0547 26.6008L20.0979 27.2078C20.1457 27.0829 20.2307 26.9853 20.3157 26.9362Z" fill="white"/>
</mask>
<g mask="url(#mask19_1478_14493)">
<path d="M20.3157 26.9362L19.2718 26.3293C19.1868 26.3784 19.1018 26.476 19.0547 26.6008L20.0985 27.2078C20.1457 27.0829 20.2307 26.9853 20.3157 26.9362Z" fill="#FCAA2D"/>
</g>
<path d="M17.2353 31.6217L16.1914 31.0147L17.3754 31.8077L18.4192 32.4143L17.2353 31.6217Z" fill="#FCAA2D"/>
<path d="M19.0759 29.6853L18.0321 29.0784L16.3242 30.4609L17.3681 31.0679L19.0759 29.6853Z" fill="#FCAA2D"/>
<path d="M20.3121 26.9363C20.2271 26.9854 20.1421 27.0831 20.095 27.2079L19.2437 29.4477C19.2078 29.5413 19.1467 29.6276 19.0757 29.6854L17.3678 31.068C17.1772 31.222 17.1022 31.5328 17.235 31.6218L18.419 32.4144C18.4681 32.4476 18.492 32.5169 18.484 32.605L18.2888 34.7107C18.2716 34.8999 18.3964 34.9696 18.5378 34.8879L18.6421 34.8018L20.2251 33.052L20.3287 32.9656L20.4329 32.9319L22.0206 32.8507L22.1249 32.8175C22.2663 32.7353 22.3905 32.5216 22.3719 32.3534L22.166 30.4789C22.1574 30.4005 22.1807 30.3043 22.2298 30.2145L23.4058 28.0585C23.5373 27.8175 23.4609 27.5944 23.2697 27.6601L21.5598 28.2511C21.4881 28.2757 21.4263 28.2604 21.3911 28.2079L20.5299 26.9562C20.4821 26.8865 20.3971 26.8872 20.3121 26.9363Z" fill="#FFE042"/>
<path d="M17.3687 31.0679L16.3248 30.4609C16.1343 30.6155 16.0592 30.9263 16.192 31.0147L17.2359 31.6217C17.1031 31.5327 17.1781 31.222 17.3687 31.0679Z" fill="#FCAA2D"/>
<mask id="mask20_1478_14493" style="mask-type:luminance" maskUnits="userSpaceOnUse" x="16" y="30" width="2" height="2">
<path d="M17.3687 31.0679L16.3248 30.4609C16.1343 30.6155 16.0592 30.9263 16.192 31.0147L17.2359 31.6217C17.1031 31.5327 17.1781 31.222 17.3687 31.0679Z" fill="white"/>
</mask>
<g mask="url(#mask20_1478_14493)">
<path d="M17.3687 31.0679L16.3248 30.4609C16.1343 30.6155 16.0592 30.9263 16.192 31.0147L17.2359 31.6217C17.1031 31.5327 17.1781 31.222 17.3687 31.0679Z" fill="#FCAA2D"/>
</g>
<path d="M38.4025 18.9839L37.3586 18.3776L37.2305 18.373L38.2743 18.9792L38.4025 18.9839Z" fill="#FCAA2D"/>
<mask id="mask21_1478_14493" style="mask-type:luminance" maskUnits="userSpaceOnUse" x="37" y="18" width="2" height="1">
<path d="M38.4025 18.9838L37.3586 18.3775L37.2305 18.3729L38.2743 18.9791L38.4025 18.9838Z" fill="white"/>
</mask>
<g mask="url(#mask21_1478_14493)">
<path d="M38.4025 18.9838L37.3586 18.3775L37.2305 18.3729L38.2743 18.9791L38.4025 18.9838Z" fill="#FCAA2D"/>
</g>
<path d="M32.3227 25.6168L33.3666 26.2238C33.3161 26.1945 33.2863 26.1281 33.2956 26.0292L32.2517 25.4229C32.2424 25.5212 32.2723 25.5876 32.3227 25.6168Z" fill="#FCAA2D"/>
<mask id="mask22_1478_14493" style="mask-type:luminance" maskUnits="userSpaceOnUse" x="32" y="25" width="2" height="2">
<path d="M32.3149 25.6168L33.3588 26.2238C33.3083 26.1945 33.2784 26.1281 33.2877 26.0292L32.2439 25.4229C32.2346 25.5212 32.2644 25.5876 32.3149 25.6168Z" fill="white"/>
</mask>
<g mask="url(#mask22_1478_14493)">
<path d="M33.2877 26.0292L32.2439 25.4229C32.2346 25.5212 32.2644 25.5876 32.3149 25.6168L33.3588 26.2238C33.3083 26.1945 33.2784 26.1281 33.2877 26.0292Z" fill="#FCAA2D"/>
</g>
<path d="M38.2739 18.9792L37.2301 18.3729L35.5195 18.9639L36.5634 19.5702L38.2739 18.9792Z" fill="#FCAA2D"/>
<path d="M35.3906 18.958L36.4345 19.5649L36.5627 19.5702L35.5188 18.9639L35.3906 18.958Z" fill="#FCAA2D"/>
<mask id="mask23_1478_14493" style="mask-type:luminance" maskUnits="userSpaceOnUse" x="35" y="18" width="2" height="2">
<path d="M35.3984 18.9581L36.4423 19.565L36.5705 19.5703L35.5266 18.9641L35.3984 18.9581Z" fill="white"/>
</mask>
<g mask="url(#mask23_1478_14493)">
<path d="M36.5705 19.5703L35.5266 18.9641L35.3984 18.9581L36.4423 19.565L36.5705 19.5703Z" fill="#FCAA2D"/>
</g>
<path d="M33.4884 23.9242L32.4446 23.3173L32.25 25.4229L33.2939 26.0292L33.4884 23.9242Z" fill="#FCAA2D"/>
<path d="M33.4221 23.733L32.3789 23.1267C32.428 23.1599 32.452 23.229 32.4433 23.3173L33.4872 23.9242C33.4958 23.8359 33.4719 23.7662 33.4221 23.733Z" fill="#FCAA2D"/>
<mask id="mask24_1478_14493" style="mask-type:luminance" maskUnits="userSpaceOnUse" x="32" y="23" width="2" height="1">
<path d="M33.4267 23.7331L32.3828 23.1268C32.432 23.16 32.4559 23.2291 32.4472 23.3174L33.4911 23.9243C33.4997 23.836 33.4758 23.7663 33.4267 23.7331Z" fill="white"/>
</mask>
<g mask="url(#mask24_1478_14493)">
<path d="M33.426 23.7331L32.3828 23.1268C32.432 23.16 32.4559 23.2291 32.4472 23.3174L33.4911 23.9243C33.4997 23.836 33.4758 23.7663 33.426 23.7331Z" fill="#FCAA2D"/>
</g>
<path d="M34.247 20.7661L33.2031 20.1599C33.1673 20.2535 33.1062 20.3398 33.0352 20.3976L34.079 21.0045C34.15 20.9467 34.2111 20.8598 34.247 20.7661Z" fill="#FCAA2D"/>
<mask id="mask25_1478_14493" style="mask-type:luminance" maskUnits="userSpaceOnUse" x="33" y="20" width="2" height="2">
<path d="M34.2548 20.7661L33.211 20.1599C33.1751 20.2535 33.114 20.3398 33.043 20.3976L34.0868 21.0045C34.1579 20.9467 34.219 20.8598 34.2548 20.7661Z" fill="white"/>
</mask>
<g mask="url(#mask25_1478_14493)">
<path d="M34.2548 20.7661L33.211 20.1599C33.1751 20.2535 33.114 20.3398 33.043 20.3976L34.0868 21.0045C34.1579 20.9467 34.219 20.8598 34.2548 20.7661Z" fill="#FCAA2D"/>
</g>
<path d="M35.4946 18.2368L34.4514 17.6299C34.4029 17.602 34.3378 17.6113 34.2734 17.6485L35.3173 18.2548C35.3817 18.2176 35.4468 18.2083 35.4946 18.2368Z" fill="#FCAA2D"/>
<mask id="mask26_1478_14493" style="mask-type:luminance" maskUnits="userSpaceOnUse" x="34" y="17" width="2" height="2">
<path d="M35.4907 18.2368L34.4475 17.6299C34.399 17.602 34.3339 17.6113 34.2695 17.6485L35.3134 18.2548C35.3778 18.2176 35.4429 18.2083 35.4907 18.2368Z" fill="white"/>
</mask>
<g mask="url(#mask26_1478_14493)">
<path d="M35.4907 18.2368L34.4475 17.6299C34.399 17.602 34.3339 17.6113 34.2695 17.6485L35.3134 18.2548C35.3778 18.2176 35.4429 18.2083 35.4907 18.2368Z" fill="#FCAA2D"/>
</g>
<path d="M35.0976 18.527L34.0537 17.9201L33.2031 20.1599L34.247 20.7661L35.0976 18.527Z" fill="#FCAA2D"/>
<path d="M35.3157 18.2547L34.2718 17.6485C34.1868 17.6976 34.1025 17.7952 34.0547 17.9201L35.0986 18.527C35.1464 18.4015 35.2307 18.3039 35.3157 18.2547Z" fill="#FCAA2D"/>
<mask id="mask27_1478_14493" style="mask-type:luminance" maskUnits="userSpaceOnUse" x="34" y="17" width="2" height="2">
<path d="M35.3196 18.2549L34.2757 17.6486C34.1907 17.6977 34.1064 17.7953 34.0586 17.9202L35.1025 18.5271C35.1503 18.4016 35.2346 18.304 35.3196 18.2549Z" fill="white"/>
</mask>
<g mask="url(#mask27_1478_14493)">
<path d="M35.3196 18.2549L34.2757 17.6486C34.1907 17.6977 34.1064 17.7953 34.0586 17.9202L35.1025 18.5271C35.1503 18.4016 35.2346 18.304 35.3196 18.2549Z" fill="#FCAA2D"/>
</g>
<path d="M32.2391 22.9402L31.1953 22.3339L32.3799 23.1268L33.4231 23.733L32.2391 22.9402Z" fill="#FCAA2D"/>
<path d="M34.0798 21.0045L33.036 20.3976L31.3281 21.7801L32.372 22.3864L34.0798 21.0045Z" fill="#FCAA2D"/>
<path d="M35.3157 18.2548C35.2307 18.3039 35.1464 18.4015 35.0986 18.527L34.2479 20.7661C34.2121 20.8597 34.151 20.9467 34.0799 21.0045L32.3721 22.3863C32.1808 22.5411 32.1064 22.8518 32.2386 22.9401L33.4225 23.733C33.4723 23.7662 33.4962 23.8359 33.4876 23.9242L33.2931 26.0292C33.2758 26.2184 33.4006 26.2888 33.5421 26.2071L33.6463 26.1202L35.2287 24.3711L35.333 24.2848L35.4372 24.2509L37.0242 24.1699L37.1285 24.136C37.2706 24.0544 37.3948 23.8406 37.3762 23.6719L37.1697 21.798C37.161 21.7197 37.1843 21.6234 37.2334 21.5331L38.4094 19.3776C38.5409 19.1366 38.4645 18.9135 38.2739 18.9792L36.5634 19.5702C36.4924 19.5948 36.4306 19.5788 36.3947 19.527L35.5342 18.2753C35.4857 18.2056 35.4007 18.2056 35.3157 18.2548Z" fill="#FFE042"/>
<path d="M32.3729 22.3864L31.3291 21.7801C31.1378 21.9348 31.0635 22.2449 31.1956 22.3339L32.2395 22.9402C32.1073 22.8519 32.1817 22.5411 32.3729 22.3864Z" fill="#FCAA2D"/>
<mask id="mask28_1478_14493" style="mask-type:luminance" maskUnits="userSpaceOnUse" x="31" y="21" width="2" height="2">
<path d="M32.3729 22.3864L31.3291 21.7801C31.1378 21.9348 31.0635 22.2449 31.1956 22.3339L32.2395 22.9402C32.1073 22.8519 32.1824 22.5411 32.3729 22.3864Z" fill="white"/>
</mask>
<g mask="url(#mask28_1478_14493)">
<path d="M32.3729 22.3864L31.3291 21.7801C31.1378 21.9348 31.0635 22.2449 31.1956 22.3339L32.2395 22.9402C32.1073 22.8519 32.1817 22.5411 32.3729 22.3864Z" fill="#FCAA2D"/>
</g>
<path d="M49.5949 33.2958L53.8134 35.7473C55.8035 36.9033 57.0373 39.3628 57.0472 42.859C57.0671 49.8923 52.1215 58.4596 46.0004 61.9937L41.7812 59.542C47.9023 56.0081 52.8486 47.4408 52.8286 40.4073C52.8187 36.9114 51.5849 34.4519 49.5949 33.2958Z" fill="#EBEEFC"/>
<mask id="mask29_1478_14493" style="mask-type:luminance" maskUnits="userSpaceOnUse" x="41" y="33" width="17" height="29">
<path d="M49.587 33.2957L53.8056 35.7471C55.7957 36.9032 57.0295 39.3627 57.0394 42.8589C57.0593 49.8922 52.1137 58.4594 45.992 61.9935L41.7734 59.5419C47.8944 56.008 52.8408 47.4407 52.8208 40.4072C52.8109 36.9112 51.5771 34.4517 49.587 33.2957Z" fill="white"/>
</mask>
<g mask="url(#mask29_1478_14493)">
<path d="M45.9926 61.9935L41.7734 59.5419C42.5337 59.1022 43.2761 58.5863 43.9926 58.0047L48.2118 60.4562C47.4947 61.038 46.7529 61.5544 45.9926 61.9935Z" fill="#EBEEFC"/>
<path d="M48.2114 60.4562L43.9922 58.0047C46.4325 56.0246 48.578 53.2901 50.1431 50.2986L54.3616 52.7501C52.7965 55.7424 50.6511 58.476 48.2114 60.4562Z" fill="#EBEEFC"/>
<path d="M54.3609 52.7501L50.1424 50.2987C51.8184 47.0935 52.829 43.5933 52.8197 40.4073C52.8098 36.9113 51.576 34.4518 49.5859 33.2957L53.8045 35.7472C55.7946 36.9032 57.0284 39.3627 57.0383 42.859C57.0476 46.045 56.0376 49.5457 54.3609 52.7501Z" fill="#EBEEFC"/>
</g>
<path d="M38.1099 62.7663L33.8906 60.3149C35.9066 61.4863 38.6982 61.3208 41.7799 59.5419L45.9991 61.9936C42.9174 63.7724 40.1252 63.9377 38.1099 62.7663Z" fill="#EBEEFC"/>
<mask id="mask30_1478_14493" style="mask-type:luminance" maskUnits="userSpaceOnUse" x="33" y="59" width="13" height="5">
<path d="M38.1099 62.7666L33.8906 60.3151C35.9066 61.4865 38.6982 61.321 41.7799 59.5422L45.9985 61.9938C42.9174 63.7727 40.1252 63.938 38.1099 62.7666Z" fill="white"/>
</mask>
<g mask="url(#mask30_1478_14493)">
<path d="M38.1099 62.7666L33.8906 60.3151C35.9066 61.4865 38.6982 61.321 41.7799 59.5422L45.9991 61.9938C42.9174 63.7727 40.1252 63.938 38.1099 62.7666Z" fill="#EBEEFC"/>
</g>
<path d="M51.22 30.4941L55.4393 32.9456C53.0056 31.5319 49.637 31.7311 45.9184 33.8773L41.6992 31.4259C45.4178 29.2789 48.787 29.0804 51.22 30.4941Z" fill="#EBEEFC"/>
<path d="M36.4812 65.5687L32.2626 63.117C29.8602 61.7213 28.3714 58.7524 28.3595 54.534C28.3349 46.0417 34.3072 35.6948 41.7004 31.4258L45.9197 33.8773C38.5257 38.1463 32.5541 48.4931 32.578 56.9862C32.59 61.2041 34.0794 64.173 36.4812 65.5687Z" fill="#EBEEFC"/>
<path d="M45.9995 61.9936C52.1205 58.4595 57.0662 49.8922 57.0463 42.859C57.0263 35.8221 52.0475 32.9855 45.9271 36.5194C39.8035 40.0548 34.8571 48.622 34.877 55.6581C34.897 62.6913 39.8758 65.5288 45.9995 61.9936ZM45.9198 33.8773C53.3104 29.6102 59.3212 33.0391 59.3451 41.5315C59.3697 50.0245 53.3974 60.368 46.0068 64.6349C38.6129 68.9042 32.6021 65.4785 32.5782 56.9862C32.5543 48.4931 38.5259 38.1462 45.9198 33.8773Z" fill="#B4BCE2"/>
<path d="M45.9184 33.8773L41.6992 31.4259C45.4178 29.2789 48.787 29.0804 51.22 30.4941L55.4393 32.9456C53.0056 31.5319 49.637 31.7311 45.9184 33.8773Z" fill="#EBEEFC"/>
<path d="M36.4812 65.5687L32.2626 63.117C29.8602 61.7213 28.3714 58.7524 28.3595 54.534C28.3482 50.6865 29.568 46.4593 31.5926 42.5879L35.8118 45.0397C33.7865 48.9102 32.5674 53.1387 32.578 56.9862C32.59 61.2041 34.0794 64.173 36.4812 65.5687Z" fill="#EBEEFC"/>
<path d="M35.8091 45.0397L31.5898 42.588C33.4797 38.9758 36.0714 35.6735 39.0177 33.2823L43.2362 35.7339C40.2899 38.1258 37.6989 41.4272 35.8091 45.0397Z" fill="#EBEEFC"/>
<path d="M43.2381 35.7339L39.0195 33.2822C39.8854 32.5798 40.7812 31.9562 41.6995 31.4258L45.9188 33.8773C45.0004 34.408 44.104 35.0312 43.2381 35.7339Z" fill="#EBEEFC"/>
<path d="M26.1094 65.2313L30.5644 60.5865C30.7483 60.3941 31.061 60.3235 31.4561 60.4218L27.0019 65.0674C26.6068 64.9691 26.294 65.0389 26.1094 65.2313Z" fill="#CED4F1"/>
<mask id="mask31_1478_14493" style="mask-type:luminance" maskUnits="userSpaceOnUse" x="26" y="60" width="6" height="6">
<path d="M26.1133 65.2312L30.5676 60.5864C30.7515 60.394 31.0643 60.3234 31.4593 60.4217L27.0051 65.0673C26.61 64.969 26.2972 65.0388 26.1133 65.2312Z" fill="white"/>
</mask>
<g mask="url(#mask31_1478_14493)">
<path d="M26.1133 65.2312L30.5683 60.5864C30.7522 60.394 31.0649 60.3234 31.46 60.4217L27.0058 65.0673C26.6107 64.969 26.2979 65.0388 26.1133 65.2312Z" fill="#CED4F1"/>
</g>
<path d="M33.1428 63.0575L28.6885 67.7023C28.8711 67.5124 28.9289 67.2035 28.8193 66.8178C28.6002 66.0461 27.7861 65.262 27.0039 65.0674L31.4582 60.4219C32.2411 60.6164 33.0545 61.4013 33.2736 62.173C33.3832 62.5581 33.3254 62.8676 33.1428 63.0575Z" fill="#CED4F1"/>
<mask id="mask32_1478_14493" style="mask-type:luminance" maskUnits="userSpaceOnUse" x="26" y="60" width="8" height="8">
<path d="M33.135 63.0572L28.6807 67.702C28.8633 67.5122 28.9211 67.2027 28.8115 66.8175C28.5924 66.0459 27.7783 65.2617 26.9961 65.0672L31.4504 60.4216C32.2332 60.6161 33.0467 61.4011 33.2658 62.1727C33.3754 62.5579 33.3176 62.8674 33.135 63.0572Z" fill="white"/>
</mask>
<g mask="url(#mask32_1478_14493)">
<path d="M26.9961 65.0672L31.4504 60.4217L31.5905 60.4629L27.1362 65.1085L26.9961 65.0672Z" fill="#CED4F1"/>
<path d="M27.1367 65.1084L31.591 60.4628C32.2916 60.6978 32.9875 61.3751 33.2318 62.0643L28.7775 66.7094C28.5332 66.0199 27.8373 65.3426 27.1367 65.1084Z" fill="#E7E6F1"/>
<path d="M28.776 66.7094L33.2303 62.0643L33.2648 62.1727C33.3744 62.5579 33.3166 62.8674 33.134 63.0572L28.6797 67.702C28.8623 67.5122 28.9201 67.2032 28.8105 66.8175L28.776 66.7094Z" fill="#CED4F1"/>
</g>
<path d="M27.0035 65.0673C27.7858 65.2619 28.5999 66.046 28.819 66.8177C29.0394 67.5927 28.5819 68.0614 27.7997 67.8661C27.0148 67.6715 26.2007 66.8867 25.9809 66.1124C25.7611 65.341 26.218 64.872 27.0035 65.0673Z" fill="#CED4F1"/>
<path d="M10.1406 79.8398L27.3124 63.1821C27.562 62.9217 27.9844 62.8267 28.5189 62.9603L11.8784 79.5198C11.1081 79.3286 10.4999 79.4648 10.1406 79.8398Z" fill="#133AA5"/>
<mask id="mask33_1478_14493" style="mask-type:luminance" maskUnits="userSpaceOnUse" x="10" y="62" width="19" height="18">
<path d="M10.1484 79.8401L27.3202 63.1824C27.5699 62.9219 27.9922 62.827 28.5267 62.9606L11.8862 79.52C11.116 79.3289 10.5077 79.465 10.1484 79.8401Z" fill="white"/>
</mask>
<g mask="url(#mask33_1478_14493)">
<path d="M10.1484 79.8401L27.3202 63.1824C27.5699 62.9219 27.9922 62.827 28.5267 62.9606L11.8862 79.52C11.116 79.3289 10.5077 79.465 10.1484 79.8401Z" fill="#133AA5"/>
</g>
<path d="M30.7984 66.5241L15.1598 84.6528C15.5144 84.2824 15.628 83.6801 15.4149 82.9302C14.9872 81.4271 13.4022 79.8991 11.8789 79.5198L28.5194 62.9604C29.5772 63.2234 30.6775 64.2845 30.9743 65.3283C31.1231 65.8489 31.0447 66.2678 30.7984 66.5241Z" fill="#133AA5"/>
<mask id="mask34_1478_14493" style="mask-type:luminance" maskUnits="userSpaceOnUse" x="11" y="62" width="21" height="23">
<path d="M30.8023 66.524L15.1637 84.6527C15.5183 84.2823 15.6319 83.68 15.4188 82.9301C14.9911 81.427 13.4061 79.8989 11.8828 79.5197L28.5233 62.9603C29.5811 63.2233 30.6814 64.2844 30.9782 65.3282C31.127 65.8488 31.0486 66.2677 30.8023 66.524Z" fill="white"/>
</mask>
<g mask="url(#mask34_1478_14493)">
<path d="M11.8828 79.5197L28.5233 62.9603C28.5864 62.9756 28.6495 62.9943 28.7126 63.0153L12.1557 79.5994C12.0647 79.5696 11.9738 79.5423 11.8828 79.5197Z" fill="#133AA5"/>
<path d="M12.1562 79.5994L28.7131 63.0153C29.6607 63.3328 30.6016 64.2492 30.9323 65.1814L15.3516 82.7185C14.8754 81.3756 13.5202 80.057 12.1562 79.5994Z" fill="#296BDC"/>
<path d="M15.3513 82.7185L30.932 65.1814L30.9785 65.3282C31.1273 65.8488 31.0489 66.2677 30.8026 66.524L15.1641 84.6527C15.5187 84.2823 15.6322 83.68 15.4191 82.9301C15.3985 82.859 15.3759 82.7887 15.3513 82.7185Z" fill="#133AA5"/>
</g>
<path d="M11.8805 79.5198C13.4038 79.899 14.9888 81.4271 15.4164 82.9302C15.8454 84.4382 14.9542 85.3513 13.431 84.9721C11.9017 84.5918 10.3167 83.0638 9.8884 81.5552C9.46077 80.0523 10.3512 79.1392 11.8805 79.5198Z" fill="#185BCC"/>
<path d="M49.6966 40.1464L51.1329 40.9811C51.0678 40.9432 51.0008 40.91 50.931 40.8823C50.2591 40.6061 49.2829 40.758 48.3035 41.3237L46.8672 40.4891C47.8466 39.9238 48.8228 39.7706 49.4948 40.0468C49.5645 40.0753 49.6316 40.1085 49.6966 40.1464Z" fill="#E43727"/>
<mask id="mask35_1478_14493" style="mask-type:luminance" maskUnits="userSpaceOnUse" x="46" y="39" width="6" height="3">
<path d="M49.6966 40.1464L51.1329 40.9811C51.0678 40.9432 51.0008 40.91 50.931 40.8823C50.2591 40.6061 49.2829 40.758 48.3035 41.3237L46.8672 40.4891C47.8466 39.9238 48.8228 39.7706 49.4948 40.0468C49.5645 40.0753 49.6316 40.1085 49.6966 40.1464Z" fill="white"/>
</mask>
<g mask="url(#mask35_1478_14493)">
<path d="M48.3035 41.3237L46.8672 40.4891C47.8466 39.9238 48.8228 39.7706 49.4948 40.0468C49.5645 40.0753 49.6316 40.1085 49.6966 40.1464L51.1329 40.9811C51.0678 40.9432 51.0008 40.91 50.931 40.8823C50.2591 40.6061 49.2829 40.758 48.3035 41.3237Z" fill="#E43727"/>
</g>
<path d="M45.3074 45.0436L43.8711 44.2088C44.5411 42.4074 45.7058 41.159 46.8659 40.489L48.3022 41.3237C47.1421 41.9937 45.9774 43.2427 45.3074 45.0436Z" fill="#E43727"/>
<mask id="mask36_1478_14493" style="mask-type:luminance" maskUnits="userSpaceOnUse" x="43" y="40" width="6" height="6">
<path d="M45.3152 45.0437L43.8789 44.209C44.5489 42.4075 45.7136 41.1591 46.8737 40.4891L48.31 41.3238C47.1499 41.9938 45.9852 43.2428 45.3152 45.0437Z" fill="white"/>
</mask>
<g mask="url(#mask36_1478_14493)">
<path d="M45.3152 45.0437L43.8789 44.209C44.5489 42.4075 45.7136 41.1591 46.8737 40.4891L48.31 41.3238C47.1499 41.9938 45.9852 43.2428 45.3152 45.0437Z" fill="#E43727"/>
</g>
<path d="M41.2272 56.1256L39.7909 55.2909C36.1846 53.1953 36.5285 49.2397 38.2457 46.5424C38.9144 45.4919 39.8879 44.5191 40.8673 43.954C41.7478 43.4453 42.633 43.2666 43.305 43.6572L44.7412 44.4919C44.0692 44.1013 43.1841 44.2808 42.3036 44.7887C41.3242 45.3539 40.3507 46.3266 39.682 47.3771C37.9648 50.0744 37.6209 54.0301 41.2272 56.1256Z" fill="#E43727"/>
<mask id="mask37_1478_14493" style="mask-type:luminance" maskUnits="userSpaceOnUse" x="36" y="43" width="9" height="14">
<path d="M41.2233 56.1254L39.787 55.2907C36.1807 53.1951 36.5246 49.2395 38.2418 46.5421C38.9105 45.4916 39.884 44.5189 40.8634 43.9538C41.7432 43.445 42.629 43.2664 43.3004 43.657L44.7373 44.4917C44.0653 44.101 43.1802 44.2805 42.2997 44.7884C41.3203 45.3537 40.3468 46.3263 39.6781 47.3768C37.9609 50.0742 37.617 54.0298 41.2233 56.1254Z" fill="white"/>
</mask>
<g mask="url(#mask37_1478_14493)">
<path d="M41.2233 56.1254L39.787 55.2907C36.1807 53.1951 36.5246 49.2395 38.2418 46.5421C38.9105 45.4916 39.884 44.5189 40.8634 43.9538C41.7439 43.445 42.6291 43.2664 43.3011 43.657L44.7373 44.4917C44.0653 44.101 43.1802 44.2805 42.2997 44.7884C41.3203 45.3537 40.3468 46.3263 39.6781 47.3768C37.9609 50.0742 37.617 54.0298 41.2233 56.1254Z" fill="#E43727"/>
</g>
<path d="M48.3054 41.3237C49.2848 40.758 50.2609 40.606 50.9329 40.8822C53.1528 41.7932 53.1229 47.3936 45.3458 57.3937C37.5375 56.3925 37.4757 50.8444 39.683 47.377C40.3516 46.3265 41.3251 45.3538 42.3045 44.7886C43.4646 44.1186 44.6326 44.0203 45.3106 45.0436C45.9806 43.2427 47.1453 41.9937 48.3054 41.3237Z" fill="#F74E3E"/>
<path d="M50.3579 58.9332C50.4329 58.8281 50.5611 58.7126 50.672 58.7783C50.7762 58.8395 50.7683 59.0154 50.7815 59.117C50.8028 59.2758 50.7749 59.4057 50.7098 59.5526C50.6481 59.6934 50.5737 59.8348 50.5724 59.988L50.5956 60.1097C50.3121 60.32 50.0558 60.5605 49.8034 60.8142C49.7603 60.7206 49.7304 60.6256 49.7251 60.5374C49.6906 59.951 50.0299 59.3891 50.3579 58.9332Z" fill="#FFBFA2"/>
<path d="M57.6322 59.127L57.6574 59.121C57.7066 58.9536 57.6501 58.7757 57.6269 58.6024C57.5658 58.1573 57.7285 57.7019 57.6548 57.2591C57.6335 57.1281 57.5897 56.9981 57.5054 56.8965C57.4297 56.8049 57.3261 56.7419 57.2252 56.6807L56.7371 56.3673C56.423 56.9292 56.3732 57.6329 56.6063 58.2331L57.6322 59.127Z" fill="#FFBF99"/>
<path d="M58.5474 58.9345C59.5833 59.1376 60.6086 59.4058 61.6166 59.7386C62.0701 59.888 62.5316 60.0175 62.8795 60.3959C63.2262 60.7731 63.2381 61.323 63.0788 61.801C62.9898 62.0687 62.8503 62.3143 62.588 62.3815C62.3231 62.4492 61.9001 62.3177 61.6438 62.2432C60.9818 62.0521 60.3357 61.7945 59.7155 61.4736C59.5043 61.3642 59.2958 61.248 59.0879 61.131C58.7752 60.9564 58.4631 60.7818 58.1523 60.6023C58.4824 60.1124 58.6357 59.5189 58.5474 58.9345Z" fill="#CED4F1"/>
<path d="M50.9985 62.4479L50.8199 62.3436C50.7502 62.3036 50.7077 62.2181 50.707 62.0964L50.8863 62.2007C50.8863 62.3216 50.9295 62.4074 50.9985 62.4479Z" fill="#EFF6FE"/>
<mask id="mask38_1478_14493" style="mask-type:luminance" maskUnits="userSpaceOnUse" x="50" y="62" width="1" height="1">
<path d="M50.9985 62.4476L50.8199 62.3434C50.7502 62.3034 50.7077 62.2178 50.707 62.0962L50.8863 62.2005C50.8863 62.3213 50.9295 62.4072 50.9985 62.4476Z" fill="white"/>
</mask>
<g mask="url(#mask38_1478_14493)">
<path d="M50.9985 62.4476L50.8199 62.3434C50.7502 62.3034 50.7077 62.2178 50.707 62.0962L50.8863 62.2005C50.8863 62.3213 50.9295 62.4072 50.9985 62.4476Z" fill="#EFF6FE"/>
</g>
<path d="M50.8846 62.2007L50.7053 62.0964L50.6953 58.479L50.874 58.583L50.8846 62.2007Z" fill="#EFF6FE"/>
<path d="M51.2574 57.9185L51.0781 57.815L56.2575 54.8248L56.4362 54.9283L51.2574 57.9185Z" fill="#EFF6FE"/>
<path d="M50.874 58.583L50.6953 58.479C50.6947 58.2344 50.866 57.9376 51.0785 57.815L51.2578 57.9184C51.0453 58.0412 50.8733 58.3386 50.874 58.583Z" fill="#EFF6FE"/>
<mask id="mask39_1478_14493" style="mask-type:luminance" maskUnits="userSpaceOnUse" x="50" y="57" width="2" height="2">
<path d="M50.8779 58.5829L50.6992 58.4789C50.6986 58.2343 50.8699 57.9375 51.0824 57.8149L51.261 57.9183C51.0492 58.041 50.8772 58.3385 50.8779 58.5829Z" fill="white"/>
</mask>
<g mask="url(#mask39_1478_14493)">
<path d="M50.8779 58.5829L50.6992 58.4789C50.6992 58.3853 50.7238 58.2835 50.767 58.1873L50.9456 58.2916C50.9031 58.3879 50.8779 58.4893 50.8779 58.5829Z" fill="#EFF6FE"/>
<path d="M50.9443 58.2916L50.7656 58.1874C50.7988 58.1121 50.8433 58.0406 50.8951 57.9775L51.0737 58.0811C51.0226 58.1441 50.9781 58.2165 50.9443 58.2916Z" fill="#EFF6FE"/>
<path d="M51.0771 58.0811L50.8984 57.9775C50.9536 57.9103 51.0173 57.8541 51.0844 57.8149L51.2637 57.9184C51.1959 57.9575 51.1322 58.0147 51.0771 58.0811Z" fill="#EFF6FE"/>
</g>
<path d="M56.4376 54.9282C56.65 54.806 56.8227 54.9044 56.8233 55.1486L56.834 58.7663C56.8346 59.0107 56.6627 59.3082 56.4502 59.4304L51.2714 62.4205C51.0589 62.5433 50.8863 62.4444 50.8856 62.2006L50.875 58.5829C50.8743 58.3386 51.0463 58.0411 51.2588 57.9184L56.4376 54.9282Z" fill="#CDDCFB"/>
<path d="M56.6213 58.7672C56.6219 58.9345 56.4898 59.1635 56.343 59.2478L51.165 62.238L51.1052 62.2611L51.0959 62.2002V62.167L51.0859 58.5825C51.0853 58.4152 51.2174 58.1862 51.3635 58.1016L56.4938 55.1394L56.5422 55.1117L56.602 55.0878L56.6113 55.1495L56.6213 58.7672Z" fill="#98A4E0"/>
<path d="M56.5037 58.7239C56.5044 58.8912 56.3722 59.1202 56.2262 59.2048L51.0959 62.167L51.0859 58.5825C51.0853 58.4152 51.2174 58.1862 51.3635 58.1016L56.4938 55.1395L56.5037 58.7239Z" fill="#2E2E37"/>
<path d="M56.5314 54.798L56.71 54.9018C56.6403 54.8613 56.5434 54.8673 56.4365 54.9282L56.2578 54.8247C56.3641 54.763 56.461 54.7576 56.5314 54.798Z" fill="#EFF6FE"/>
<path d="M50.6128 60.1382L50.7091 60.2158C50.8366 60.2876 51.085 60.3958 51.1414 60.1834C51.1587 60.119 51.1474 60.0506 51.1367 59.9849C51.1142 59.8474 51.0916 59.7105 51.069 59.5738C51.0564 59.498 51.0597 59.3958 51.1341 59.3767L51.2676 59.4397C51.3698 59.5492 51.4442 59.6802 51.5106 59.8156L51.5856 59.9774C51.7809 60.4052 51.9747 60.809 52.0823 61.2671C52.1447 61.5319 52.1885 61.7571 52.1633 62.0273C52.1441 62.2379 52.1149 62.4504 52.0544 62.6535C52.0139 62.7909 51.9535 62.985 51.816 63.0586C51.6613 63.1416 51.5079 63.0135 51.407 62.9046C51.2483 62.7339 51.1978 62.5134 51.0737 62.3249C51.0159 62.2367 50.9933 62.1401 50.9389 62.0545C50.8744 61.9545 50.7556 61.8893 50.6593 61.8235C50.4375 61.6715 50.243 61.4808 50.0836 61.2637C49.9953 61.1428 49.8804 60.9794 49.8047 60.8142C50.057 60.5605 50.3133 60.32 50.5969 60.1097L50.6128 60.1382Z" fill="#FFBFA2"/>
<path d="M62.4177 87.2046C62.3858 87.1064 62.3227 87.0532 62.1441 87.0386C61.933 87.0216 61.7205 87.0114 61.508 86.9982C61.2211 86.9803 60.9343 86.9616 60.6474 86.9437C60.662 86.7113 60.6686 86.475 60.6945 86.2444C60.3898 86.3095 60.2198 86.2206 59.9283 86.1124C59.5843 85.9856 59.2357 85.8707 58.8837 85.7684C58.733 85.7246 58.5756 85.6828 58.4222 85.714C58.0344 85.7931 57.8226 86.4317 57.8751 86.7666C57.9116 87.0028 58.0716 87.2046 58.2602 87.3536C58.5424 87.5758 58.9402 87.7579 59.2961 87.8108C59.6772 87.8682 60.0272 87.987 60.3346 88.2274C60.7317 88.5381 61.0146 88.8668 61.5418 88.9047C62.0704 88.9418 62.5093 88.6211 62.5292 88.0752C62.5365 87.8794 62.5027 87.6848 62.4682 87.4916C62.4462 87.3707 62.4402 87.2758 62.4177 87.2046Z" fill="#15151A"/>
<path d="M60.8094 87.9776L60.8121 87.8521C60.8406 87.4218 60.6753 87.0594 60.5186 86.6622C60.4595 86.5134 60.3964 86.358 60.2716 86.2584C59.9874 86.0328 59.5378 86.2312 59.3572 86.546C59.2742 86.6921 59.2277 86.8568 59.1527 87.0075C59.0106 87.2936 58.7237 87.6342 58.3791 87.6503C57.9149 87.6708 57.3937 87.5115 56.9242 87.483C56.7409 87.4716 56.551 87.4656 56.381 87.5341C55.9806 87.6962 55.8651 88.3428 56.0078 88.7041C56.0962 88.9264 56.2974 89.0878 56.5138 89.1908C56.8386 89.3456 57.2662 89.4346 57.6254 89.4079C58.0092 89.3793 58.3771 89.418 58.7297 89.584C59.3359 89.8701 60.0398 90.2804 60.6507 89.7241C60.8141 89.5747 60.8944 89.3521 60.913 89.1316C60.9469 88.742 60.8147 88.3646 60.8094 87.9776Z" fill="#15151A"/>
<path d="M60.6227 79.0669L60.4062 78.1572C60.4926 78.4573 60.5636 78.7608 60.6227 79.0669Z" fill="#6E4CB3"/>
<path d="M64.1575 71.8259C64.2438 71.871 64.2923 71.9647 64.3494 72.1571C64.4689 72.5595 64.5373 72.9773 64.5559 73.3967C64.5924 74.2203 64.4364 75.0524 64.0964 75.8033C63.9629 76.0975 63.7956 76.3319 63.7425 76.6491C63.6913 76.9587 63.615 77.265 63.5552 77.5723C63.5307 77.6971 63.4855 78.6234 63.4204 78.6633C63.4802 78.6268 63.8587 83.0246 62.6681 87.0134C62.595 87.2591 62.5034 87.5307 62.271 87.6733C62.1555 87.7444 62.0187 87.7711 61.8845 87.7882C61.7524 87.8048 61.6183 87.8142 61.4868 87.795C61.3467 87.7745 61.1953 87.7192 61.1017 87.6084C60.9954 87.4829 60.925 87.3182 60.8792 87.1621C60.7975 86.8833 60.7902 86.5883 60.7875 86.2983C60.7776 84.9342 60.8726 83.5716 60.8739 82.2078C60.8752 81.4169 60.844 80.6227 60.7437 79.8393C60.4881 78.9362 60.2949 78.0146 60.168 77.0849C60.0472 76.2031 60.1003 75.2998 59.8984 74.432C59.747 73.7819 59.6315 72.7356 59.6328 71.7839C60.0292 71.7839 60.4257 71.7839 60.8221 71.7839C61.8221 71.7839 62.8222 71.7867 63.8228 71.7839C63.9822 71.7834 64.0838 71.7867 64.1575 71.8259Z" fill="#15151A"/>
<path d="M60.0628 70.4605C59.9373 70.3954 59.2938 70.0727 59.2991 69.8981C59.3031 69.7806 58.9864 69.6828 58.9041 69.6849C58.7566 69.6875 58.6079 69.7824 58.489 69.8676C58.1955 70.0774 57.9797 70.3995 57.8462 70.7447C57.663 71.2181 57.6185 71.7382 57.5899 72.25C57.5056 73.7746 57.5454 75.3073 57.7068 76.8253C57.7885 77.5915 57.9014 78.3544 58.0448 79.1107C58.1172 79.4886 58.1962 79.865 58.2838 80.2391C58.3675 80.5988 58.4419 80.7117 58.744 80.9018C59.3921 81.3101 60.5608 81.2556 61.0243 80.5218C61.5236 79.7322 61.3165 78.502 61.4758 77.6141C61.5954 76.9475 61.8205 76.341 62.2574 75.8404C62.7521 75.2741 63.114 74.614 63.276 73.8764C63.446 73.1034 63.3895 72.2946 63.1352 71.5468C62.9592 71.0283 62.944 70.0646 62.4121 69.7594C62.2952 69.6922 61.5004 69.5116 60.8569 70.1498C60.4818 70.523 60.5249 70.6983 60.0628 70.4605Z" fill="#2E2E37"/>
<path d="M64.4771 66.8974C64.5057 66.6696 64.5396 66.4432 64.5794 66.2176C64.7693 65.1351 65.0934 64.0779 65.2295 62.9856C65.3351 62.1376 65.4121 61.0806 64.7388 60.4252C64.6292 60.3183 64.503 60.2299 64.3702 60.1541C63.0628 59.4165 61.8124 60.315 60.5873 60.7565C59.7825 61.0467 59.0102 61.4264 58.2897 61.8874C58.0387 62.0482 57.7817 62.1576 57.6131 62.4074C57.4345 62.6723 57.3382 62.9584 57.3202 63.2779C57.2996 63.6411 57.3661 64.0029 57.4265 64.3617C57.6781 65.8536 57.8309 67.3669 57.803 68.8817C57.793 69.4552 57.8568 70.0123 57.7439 70.5788C57.639 71.108 57.4212 71.6911 57.6875 72.2096C58.0015 72.8212 58.807 72.9548 59.4949 72.9727C60.402 72.9953 61.311 72.946 62.2101 72.8246C62.8549 72.7374 63.5249 72.6 64.0249 72.1844C64.7587 71.5754 64.517 70.9599 64.3742 70.2004C64.1849 69.1909 64.3503 67.9088 64.4771 66.8974Z" fill="#E7E6F1"/>
<path d="M58.33 80.842C58.3871 81.5026 58.4395 82.164 58.4853 82.8263C58.5219 83.3495 58.5551 83.8734 58.5823 84.3971C58.6035 84.801 58.6215 85.2046 58.6354 85.6084C58.7125 87.8189 58.4787 88.3165 59.5206 88.6025C59.7543 88.6669 60.002 88.6861 60.2371 88.6277C60.9164 88.4596 61.0332 87.8635 61.1169 87.1243C61.164 86.7088 61.1853 86.2082 61.1992 85.7877C61.2105 85.4323 61.2178 85.0765 61.2238 84.7213C61.2318 84.2405 61.2377 83.7598 61.2424 83.2789C61.249 82.6449 61.2537 82.01 61.2583 81.3758C61.2636 80.5652 61.3334 79.737 61.3387 78.9264C61.3393 78.8086 61.265 78.6865 61.1713 78.6242C61.0492 78.5438 58.6069 79.4369 58.3585 79.7139C58.3585 79.7139 58.2596 80.0246 58.33 80.842Z" fill="#2E2E37"/>
<path d="M58.9114 61.7226C58.5754 61.6716 58.1086 61.9618 57.8517 62.1372C57.4579 62.4054 55.9253 63.6284 55.4824 63.8216C55.333 63.8867 55.1272 64.0083 54.9665 64.0203C54.7799 64.034 54.5979 63.8769 54.4751 63.7559C54.3596 63.6431 52.3183 61.414 52.2141 61.3349C52.0427 61.2047 51.0361 61.752 50.9146 62.1265C50.8077 62.4544 52.6656 65.5906 53.6198 66.2282C54.0043 66.485 54.493 66.5348 54.9545 66.5594C55.5402 66.5905 56.1305 66.5138 56.6903 66.3384C57.4433 66.1019 58.4639 65.6537 58.9068 64.9704C59.355 64.2791 59.7289 61.8474 58.9114 61.7226Z" fill="#E7E6F1"/>
<path d="M56.201 57.8108C56.3172 58.1241 56.3875 58.4556 56.4134 58.7928C56.4247 58.9332 56.4247 59.0758 56.4626 59.2112C56.5336 59.4636 56.7302 59.662 56.942 59.8174C57.0396 59.8892 57.1691 59.9722 57.2946 59.9437C57.2667 59.8547 57.2508 59.7658 57.2627 59.6695C57.276 59.544 57.3258 59.4317 57.4135 59.3422C57.4759 59.2784 57.5821 59.2426 57.6213 59.1588C57.7016 58.9882 57.5901 58.8348 57.537 58.6813C57.4799 58.516 57.4892 58.3322 57.4247 58.1628L57.3437 58.026L57.1963 57.9887C57.114 58.0214 57.1027 58.1296 57.0901 58.2165L57.0735 58.2585L56.9772 58.2146C56.8663 58.0474 56.7654 57.8733 56.6565 57.7052C56.5675 57.5698 56.4984 57.4059 56.361 57.3102L56.2913 57.2803L56.276 57.2837C56.2129 57.291 56.1744 57.3545 56.1598 57.4183C56.1253 57.546 56.1538 57.6847 56.201 57.8108Z" fill="#FFBF99"/>
<path d="M57.2833 59.3235C57.4161 59.0938 57.6292 58.9137 57.8477 58.874C58.0396 58.8395 58.2355 58.874 58.4268 58.9106L58.5469 58.9345C58.6352 59.5189 58.4819 60.1123 58.1518 60.6023C58.0064 60.5188 57.861 60.4337 57.7162 60.3473C57.5721 60.2617 57.2654 60.1557 57.1751 60.0029C57.0662 59.8174 57.1916 59.4828 57.2833 59.3235Z" fill="#CED4F1"/>
<path d="M60.2617 59.6921C60.2145 59.3678 59.9695 59.4436 60.093 59.1494C60.1979 58.9004 60.358 58.6706 60.5718 58.5054C60.7856 58.3402 61.0558 58.2418 61.3261 58.2572C61.4197 58.2624 61.4815 58.3155 61.5738 58.3161C61.8288 58.3168 62.0851 58.2675 62.3394 58.3049C62.5924 58.3414 62.8268 58.3599 62.8268 58.6455C62.8261 59.0268 62.8089 59.3933 62.931 59.7678C62.9961 59.9676 63.0944 60.16 63.1124 60.3706C63.1462 60.7823 62.8454 61.1667 62.4729 61.3467C62.0154 61.5685 61.4974 61.548 61.01 61.4774C60.7657 61.4424 60.4217 61.3931 60.2783 61.1602C60.17 60.9849 60.2165 60.7545 60.2398 60.5626C60.2743 60.2718 60.3042 59.9842 60.2617 59.6921Z" fill="#FFBFA2"/>
<path d="M59.1731 55.5492C59.0191 55.7365 58.8995 55.9469 58.8623 56.1933C58.7807 56.7432 59.0018 57.3081 58.8822 57.8541C58.7667 58.3825 58.9931 59.5824 60.0357 59.8906C60.5629 60.0459 61.6034 59.8633 61.9381 59.7033C62.3877 59.4882 62.6838 59.0525 62.9494 58.631C65.1268 55.1739 60.6499 53.7522 59.1731 55.5492Z" fill="#FFBFA2"/>
<path d="M63.5886 54.8699C63.4831 54.7618 63.3536 54.6681 63.1955 54.5945L63.0627 54.5115L63.0083 54.4072C62.9339 54.2477 62.7858 54.1357 62.6324 54.0498C62.0514 53.7271 61.3469 53.7113 60.6895 53.8062C60.467 53.8381 60.2446 53.8819 60.0381 53.9701C59.803 54.0718 59.5945 54.2277 59.4066 54.4013C59.0566 54.7239 58.6403 55.2237 58.6609 55.7306C58.6649 55.8413 58.7293 55.9316 58.7844 56.0294C58.8242 56.1004 58.8833 56.1581 58.9338 56.2226C59.1025 56.4343 59.1782 56.742 59.2798 56.9894C59.3236 57.0965 59.3727 57.2094 59.469 57.2736C59.6563 57.3984 59.9152 57.2762 60.1304 57.3422C60.2565 57.38 60.3555 57.4809 60.4199 57.595C60.485 57.7092 60.5195 57.8376 60.554 57.9644C60.6071 58.1642 60.6138 58.3328 60.639 58.5314C60.6643 58.7319 60.7214 58.9465 60.8621 59.0985C61.1782 59.4398 61.7865 59.4206 62.1982 59.3295C62.3469 59.2963 62.4963 59.2611 62.6337 59.1955C62.9511 59.0427 63.1676 58.7425 63.3695 58.4544C63.5547 58.1914 63.7414 57.9219 63.839 57.615C63.8941 57.4422 63.9193 57.2612 63.9445 57.0817C64.0455 56.3526 64.1218 55.4178 63.5886 54.8699Z" fill="#15151A"/>
<path d="M60.3642 57.1056C60.7819 57.0706 60.8968 57.587 60.6165 57.9929C60.5349 58.111 60.3888 58.2173 60.2805 58.3131C59.5428 58.9631 59.3429 58.2765 59.5773 58.0552C60.1212 57.5414 59.839 57.1502 60.3642 57.1056Z" fill="#FFBFA2"/>
<path d="M60.2507 57.8958C60.2985 57.8508 60.7693 57.5618 60.4419 57.3758C60.3516 57.3242 60.2526 57.4043 60.2407 57.5001L60.244 57.649L60.2135 57.732C60.1723 57.8015 60.0289 57.8699 60.0587 57.9703C60.0853 58.0585 60.2241 57.921 60.2507 57.8958Z" fill="#F3A984"/>
<path d="M46.2236 10.7632L48.4023 11.9572C48.4554 11.9864 48.4853 12.0448 48.4773 12.1052L47.9846 15.7063L50.5969 12.6119L50.7124 12.5601L53.4728 12.6424L52.9402 9.36546L52.9582 9.26785L55.1169 5.59246L52.2317 6.77509C52.1647 6.80365 52.0857 6.77576 52.0498 6.71201L50.741 4.40452L49.3777 8.3827L49.3273 8.45243L46.2236 10.7632ZM47.7715 16.3304L47.7124 16.3185C47.6533 16.2919 47.6181 16.2295 47.6267 16.1651L48.1745 12.1657L45.8843 10.91L45.8086 10.7925L45.867 10.665L49.1161 8.24525L50.5697 4.00278L50.6945 3.90517L50.8353 3.97821L52.2404 6.45636L55.4064 5.15819L55.5725 5.19736L55.5877 5.36669L53.2364 9.37077L53.7889 12.7706L53.755 12.8901L53.6408 12.9399L50.7742 12.8543L47.883 16.2793L47.7715 16.3304Z" fill="#35353F"/>
<path d="M54.3857 7.5328H54.3897L56.2782 7.5899L55.913 5.33354L55.9316 5.23592L57.3838 2.76242L55.4734 3.54531C55.4057 3.5732 55.3273 3.54664 55.2908 3.48223L54.4182 1.94235L53.4913 4.65025L53.4401 4.71998L51.9029 5.86343L52.2389 6.4564L55.405 5.15824L55.571 5.19741L55.5863 5.36674L54.2974 7.56268L54.3857 7.5328ZM53.3146 9.09326L53.2303 9.0667C53.1685 9.02287 53.1506 8.93854 53.1891 8.87346L55.1155 5.59251L52.2303 6.77514C52.1632 6.80369 52.0842 6.77581 52.0483 6.71206L51.5855 5.89531C51.549 5.83089 51.5662 5.74988 51.6253 5.70606L53.2296 4.5128L54.2476 1.54128L54.3718 1.443L54.5125 1.51672L55.4813 3.22658L57.6733 2.32815L57.8393 2.36799L57.8546 2.53732L56.2098 5.33885L56.5949 7.7174L56.5604 7.83692L56.4462 7.88672L54.4515 7.82696L53.4262 9.04147L53.3146 9.09326Z" fill="#35353F"/>
<path d="M43.9541 10.5527L45.4269 11.3595C45.4793 11.3887 45.5092 11.4478 45.5012 11.5076L45.1759 13.8947L46.9169 11.8323L47.0325 11.7805L47.496 11.7944L45.8831 10.9099L45.8074 10.7924L45.8658 10.6649L49.1149 8.24519L49.4589 7.24185L48.1182 7.79167C48.0498 7.81956 47.9728 7.79299 47.9362 7.72924L47.061 6.18937L46.1341 8.89793L46.0829 8.96766L43.9541 10.5527ZM44.9634 14.5189L44.9036 14.5063C44.8445 14.4797 44.81 14.4173 44.8186 14.3536L45.1984 11.5673L43.6147 10.6994L43.5391 10.5819L43.5975 10.4544L45.8724 8.76048L46.8897 5.78896L47.0146 5.69068C47.0757 5.68604 47.1268 5.71392 47.1547 5.76373L48.1261 7.47293L49.6461 6.84941L49.8015 6.87863L49.8393 7.03202L49.3765 8.38264L49.3261 8.45237L46.2224 10.7632L48.1693 11.8309C48.2284 11.8635 48.2576 11.9319 48.2397 11.9969C48.2218 12.062 48.164 12.1019 48.0943 12.1045L47.0942 12.0746L45.0749 14.4671L44.9634 14.5189Z" fill="#35353F"/>
</svg>
