<svg width="118" height="90" viewBox="0 0 118 90" fill="none" xmlns="http://www.w3.org/2000/svg">
<path d="M20.3398 10.933L20.5513 63.5106L34.9841 71.8987L34.7735 19.3211L20.3398 10.933Z" fill="#133AA5"/>
<path d="M34.7734 19.3211L34.984 71.8987L49.5121 63.5106L49.3006 10.933L34.7734 19.3211Z" fill="#185BCC"/>
<path d="M20.3398 10.933L34.7735 19.3212L49.3006 10.933L34.8679 2.54589L20.3398 10.933Z" fill="#4281EE"/>
<path d="M1.9375 50.61L2.14898 74.1351L16.5826 82.5223L16.3712 58.998L1.9375 50.61Z" fill="#CFCDE2"/>
<path d="M16.3711 58.998L16.5826 82.5223L31.1106 74.1351L30.8982 50.61L16.3711 58.998Z" fill="#E7E6F1"/>
<path d="M1.9375 50.61L16.3712 58.998L30.8983 50.61L16.4655 42.2228L1.9375 50.61Z" fill="#F4F4FB"/>
<path d="M3.84081 19.8874C3.31894 19.8874 2.79979 19.9936 2.2997 20.2305C1.27773 20.7143 0.587966 21.7353 0.406445 23.0332C0.195881 24.538 0.725002 26.0936 1.75513 26.9976C3.67926 28.6849 6.92305 28.6504 9.30098 26.9169C9.76386 26.5792 10.1786 26.1989 10.5508 25.7905C10.1224 24.7649 9.57054 23.7902 8.89528 22.8971C7.67818 21.2879 5.73861 19.8874 3.84081 19.8874ZM9.60501 39.5235L9.30641 39.3202C11.8958 35.5128 12.3424 30.4311 10.6996 26.1617C10.3429 26.5384 9.94899 26.8905 9.51334 27.2082C7.002 29.0388 3.56491 29.0652 1.51735 27.269C0.398276 26.287 -0.17807 24.6052 0.0488318 22.9824C0.247597 21.5629 1.01181 20.4411 2.14541 19.9038C4.64405 18.7212 7.54567 20.5137 9.18299 22.6801C9.84009 23.5496 10.3847 24.4945 10.8139 25.4892C12.2516 23.7629 12.9886 21.6092 13.3652 19.9256C14.5787 14.4926 13.1547 8.56869 9.73752 4.83298L10.0035 4.58978C13.4987 8.40898 14.9563 14.459 13.7174 20.0036C13.3208 21.7771 12.533 24.0597 10.9691 25.8631C12.7299 30.2759 12.2933 35.57 9.60501 39.5235Z" fill="#35353F"/>
<path d="M12.14 4.31476L10.2966 5.17065L9.63223 7.09204L7.59375 2.73101L12.14 4.31476Z" fill="#35353F"/>
<path d="M76.6421 2.53678L72.1095 0.779666C67.4626 -1.02102 61.624 0.258697 55.7109 5.04178L60.2444 6.79889C66.1566 2.01581 71.9961 0.736088 76.6421 2.53678Z" fill="#F4F4FB"/>
<path d="M72.1095 0.779666L76.6421 2.53678C71.9961 0.736089 66.1566 2.01581 60.2444 6.79889L55.7109 5.04178C59.9286 1.63009 64.109 3.33786e-06 67.8456 3.33786e-06C69.3468 3.33786e-06 70.7772 0.264146 72.1095 0.779666Z" fill="#F4F4FB"/>
<mask id="mask0_1475_12864" style="mask-type:luminance" maskUnits="userSpaceOnUse" x="55" y="0" width="22" height="7">
<path d="M72.1095 0.779666L76.6421 2.53678C71.9961 0.736089 66.1566 2.01581 60.2444 6.79889L55.7109 5.04178C59.9286 1.63009 64.109 3.33786e-06 67.8456 3.33786e-06C69.3468 3.33786e-06 70.7772 0.264146 72.1095 0.779666Z" fill="white"/>
</mask>
<g mask="url(#mask0_1475_12864)">
<path d="M76.6421 2.53678L72.1095 0.779666C67.4626 -1.02102 61.624 0.258697 55.7109 5.04178L60.2444 6.79889C66.1566 2.01581 71.9961 0.736088 76.6421 2.53678Z" fill="#CFCDE2"/>
</g>
<path d="M47.963 63.0731L52.4964 64.8303C47.9094 63.0523 44.4832 58.2719 43.2969 50.8949C40.9081 36.0465 48.4957 16.3051 60.2447 6.79889L55.7112 5.04177C43.9631 14.548 36.3756 34.2893 38.7635 49.1387C39.9506 56.5148 43.3759 61.2952 47.963 63.0731Z" fill="#F4F4FB"/>
<path d="M60.2441 6.79889C48.4951 16.3042 40.9075 36.0465 43.2963 50.8949C44.4826 58.2719 47.9088 63.0523 52.4958 64.8303L47.9623 63.0731C43.3753 61.2952 39.95 56.5148 38.7638 49.1387C36.3749 34.2893 43.9625 14.548 55.7106 5.04177L60.2441 6.79889Z" fill="#F4F4FB"/>
<mask id="mask1_1475_12864" style="mask-type:luminance" maskUnits="userSpaceOnUse" x="38" y="5" width="23" height="60">
<path d="M60.2408 6.79895C48.4918 16.3043 40.9042 36.0465 43.293 50.895C44.4793 58.272 47.9055 63.0523 52.4925 64.8303L47.9591 63.0732C43.372 61.2952 39.9467 56.5149 38.7596 49.1387C36.3716 34.2894 43.9592 14.5481 55.7073 5.04184L60.2408 6.79895Z" fill="white"/>
</mask>
<g mask="url(#mask1_1475_12864)">
<path d="M60.2408 6.79895L55.7073 5.04184C43.9592 14.5481 36.3716 34.2894 38.7596 49.1387C39.9467 56.5149 43.372 61.2952 47.9591 63.0732L52.4925 64.8303C47.9055 63.0523 44.4793 58.272 43.293 50.8959C40.9042 36.0465 48.4918 16.3043 60.2408 6.79895Z" fill="#CFCDE2"/>
</g>
<path d="M60.2427 6.79895C48.4938 16.3043 40.9062 36.0465 43.295 50.8959C45.6838 65.7434 57.1433 70.0745 68.8922 60.5682C80.6412 51.0629 88.2288 31.3206 85.8399 16.4731C83.452 1.62377 71.9917 -2.7064 60.2427 6.79895Z" fill="#185BCC"/>
<path d="M61.4327 14.1886C52.913 21.0819 47.4111 35.3976 49.1428 46.1645C50.8754 56.9314 59.1854 60.0717 67.7042 53.1794C76.2239 46.2861 81.7258 31.9705 79.9941 21.2035C78.2624 10.4357 69.9524 7.29538 61.4327 14.1886Z" fill="#F4F4FB"/>
<path d="M62.4695 20.6362C56.767 25.2496 53.0848 34.8303 54.2448 42.0366C55.4038 49.2421 60.9647 51.3441 66.6672 46.7317C72.3687 42.1174 76.0509 32.5367 74.8919 25.3313C73.7328 18.1249 68.1711 16.0229 62.4695 20.6362Z" fill="#185BCC"/>
<path d="M63.4094 26.4794C60.2609 29.0262 58.2278 34.3166 58.8677 38.2965C59.5076 42.2754 62.5789 43.4362 65.7274 40.8886C68.8759 38.3409 70.9098 33.0505 70.27 29.0715C69.6292 25.0917 66.5578 23.9318 63.4094 26.4794Z" fill="#F4F4FB"/>
<path d="M64.1166 30.8758C62.8895 31.8679 62.0971 33.9308 62.3467 35.4819C62.5963 37.0321 63.7934 37.4851 65.0205 36.4921C66.2476 35.4992 67.0399 33.4371 66.7904 31.886C66.5417 30.3349 65.3445 29.8829 64.1166 30.8758Z" fill="#185BCC"/>
<path d="M99.7271 39.823C100.755 38.5487 100.921 38.5097 102.409 36.3642C102.81 35.786 103.131 35.1389 103.338 34.4645C103.545 33.7838 103.502 33.1476 103.366 32.4442C103.304 32.1256 103.192 31.7716 102.901 31.6228C102.635 31.4876 102.316 31.5747 102.044 31.6845C100.404 32.3498 99.1662 33.861 98.3847 35.4012C97.6578 36.8352 95.6174 40.1353 95.5376 40.4339C95.16 41.8552 95.1292 43.4444 96.9834 42.8281C97.6977 42.5903 99.1671 40.5164 99.7271 39.823Z" fill="#CFD2FA"/>
<path d="M107.232 74.1378C107.064 75.6717 107.06 77.2173 107.057 78.7603C107.056 79.2286 106.897 79.6697 106.941 80.1426C106.97 80.4457 107.08 80.7507 107.304 80.9567C107.53 81.1636 107.847 81.248 108.154 81.2453C108.78 81.2389 109.38 80.8841 109.735 80.3677C110.257 79.6071 110.133 78.6405 110.222 77.7692C110.286 77.1447 110.331 76.5176 110.358 75.8904C110.392 75.0981 110.11 74.7396 109.532 74.2422C109.087 73.8592 108.663 73.2384 108.154 72.9634C107.91 72.8318 107.557 72.9498 107.36 73.125C107.14 73.3201 107.025 73.6141 107.003 73.9073L107.232 74.1378Z" fill="#15151A"/>
<path d="M102.806 71.9831C102.327 72.0621 101.822 72.3761 101.391 72.5794C100.367 73.0605 99.3656 73.5941 98.3663 74.1269C97.6593 74.5045 96.0818 75.1616 96.4385 76.2144C96.6028 76.6991 97.092 77.0194 97.5966 77.1093C98.5995 77.289 99.4726 76.9895 100.27 76.4231C101.058 75.864 101.95 75.452 102.888 75.2178C103.691 75.0164 104.209 74.5707 104.237 73.7058C104.262 72.8608 103.816 71.8188 102.806 71.9831Z" fill="#15151A"/>
<path d="M100.154 53.9154C100.504 56.5148 100.173 64.1069 102.705 63.4317C103.5 63.2202 104.877 61.8216 105 60.0926C105.067 59.1605 105.016 57.8336 105.067 56.9006C105.17 54.971 107.045 48.7611 103.111 47.5704C102.52 47.3916 101.607 46.2235 101.105 46.6373C100.035 47.5204 99.8973 52.004 100.154 53.9154Z" fill="#15151A"/>
<path d="M101.227 72.751C101.321 73.3001 101.661 73.9027 103.529 73.8274C104.036 73.8065 104.322 72.3298 104.405 71.9341C104.758 70.2296 104.456 68.2075 104.573 66.4676C104.759 63.7058 105.05 61.7435 104.928 60.4693C104.878 59.9428 104.216 60.5055 103.919 60.0681C103.199 59.0071 100.56 59.6588 100.651 60.187C101.046 62.4605 101.223 72.7283 101.227 72.751Z" fill="#15151A"/>
<path d="M105.473 61.4386C105.488 62.0267 105.55 62.6148 105.602 63.2002C105.689 64.1469 105.784 65.0935 105.882 66.0392C106.432 71.346 106.507 74.0607 106.977 75.1579C107.365 76.0646 108.578 75.9594 109.355 75.678C109.697 75.5546 110.017 75.3431 110.209 75.0354C110.395 74.7359 110.445 74.3729 110.484 74.0225C110.867 70.6217 110.617 67.2509 109.72 63.9508C109.51 63.1757 109.249 62.3789 108.785 61.7154C108.62 61.4785 107.704 63.1177 107.451 62.9797C107.177 62.8309 107.782 62.3516 107.471 62.3834C106.887 62.4442 106.329 62.7374 105.947 63.1848L105.473 61.4386Z" fill="#47464E"/>
<path d="M109.381 47.7491L109.134 47.4433C108.286 47.9053 107.222 47.8263 106.208 47.976C104.018 48.3 103.859 48.6939 102.384 47.7673C102 48.1476 102.43 50.7188 102.497 51.0492C102.893 53.0051 104.145 52.8771 104.235 53.7902C104.443 55.9076 104.836 60.0898 105.216 62.1837C105.365 62.9969 105.539 63.8319 105.997 64.5208C106.53 65.3249 107.429 65.7397 108.384 65.6235C108.63 65.5936 108.877 65.5082 109.056 65.3367C109.472 64.9374 109.926 65.029 109.855 64.4563C109.644 62.7882 109.791 60.4356 110.106 58.7838C110.742 55.4438 110.931 51.7952 109.381 47.7491Z" fill="#47464E"/>
<path d="M109.469 44.3284L109.462 44.3356C109.391 44.8875 109.344 45.4429 109.324 45.9984C109.351 45.4402 109.399 44.882 109.469 44.3284Z" fill="#F3A984"/>
<path d="M109.325 45.9983C109.309 46.3378 109.301 46.6772 109.301 47.0167L109.321 47.0076C109.312 46.6709 109.313 46.3351 109.325 45.9983Z" fill="#F3A984"/>
<path d="M109.469 44.3284L109.463 44.3356C110.379 37.1864 113.405 36.257 109.469 33.5896C108.485 32.9234 106.519 32.0466 104.596 31.4449C101.904 30.6026 101.527 31.5838 100.752 33.7321C100.031 35.7306 100.24 39.027 100.562 41.1545C101.05 44.3728 100.629 45.7742 100.471 47.7328C102.825 49.4019 106.204 48.6785 108.893 48.0269C109.06 47.996 109.219 47.9461 109.371 47.8825C109.265 46.6618 109.316 45.5436 109.469 44.3284Z" fill="#E7E8FC"/>
<path d="M104.551 46.0664C104.258 46.3142 103.912 46.6128 103.624 46.8597C103.207 46.2062 103.196 46.1518 102.809 45.4947C102.797 41.6001 102.964 37.9506 103.895 34.2222C104.254 34.4772 104.436 34.6052 104.8 34.8621C104.328 38.429 104.035 42.1419 104.551 46.0664Z" fill="#47464E"/>
<path d="M103.505 34.1333L103.5 34.1878C103.503 34.2976 103.571 34.4355 103.608 34.5381C103.688 34.7614 103.79 34.9765 103.91 35.1798C103.976 35.2914 104.055 35.4058 104.175 35.4548C104.31 35.5102 104.467 35.4693 104.594 35.3976C104.738 35.3168 105.004 35.1961 104.971 35.0155C104.943 34.8576 104.887 34.6988 104.835 34.5472C104.729 34.2377 104.585 33.8538 104.3 33.6641C103.978 33.4517 103.75 33.7703 103.581 34.0081L103.505 34.1333Z" fill="#15151A"/>
<path d="M107.573 32.5559C107.642 34.7305 103.564 34.7668 103.622 32.7219C103.703 29.873 103.877 29.5462 105.22 29.1042C105.588 28.9835 105.972 28.89 106.361 28.8828C107.778 28.8573 107.229 29.5762 107.176 30.079C107.018 31.5675 107.548 31.7735 107.573 32.5559Z" fill="#F3A984"/>
<path d="M106.901 31.9923C105.751 31.2535 104.753 32.4987 103.625 32.6067L103.622 32.722C103.566 34.6715 107.273 34.7287 107.556 32.8445C107.414 32.5178 107.207 32.2219 106.901 31.9923Z" fill="#F3A984"/>
<path d="M104.291 33.8964C104.219 34.1287 103.912 34.2095 103.709 34.3447C103.62 34.4046 103.464 34.5199 103.348 34.4954C103.23 34.4709 103.16 34.3139 103.12 34.2167C102.832 33.5161 102.668 32.751 102.66 31.9913C102.658 31.7517 102.697 31.4821 102.885 31.3124C103.054 31.1599 103.346 31.1282 103.554 31.2189C103.777 31.317 103.831 31.7553 103.751 31.9586C103.467 32.6856 103.791 33.5234 104.291 33.8964Z" fill="#F2F2FC"/>
<path d="M104.258 33.9063C104.258 33.9063 104.613 34.4663 105.045 34.8502C105.152 34.9455 105.238 35.0626 105.381 35.0173C106.081 34.7922 107.556 33.5551 107.849 32.7718C107.954 32.4887 107.75 32.1374 107.589 31.9159L107.292 31.5402C107.263 31.5847 107.11 32.1456 106.864 32.5086C106.298 33.3445 105.263 33.7693 104.258 33.9063Z" fill="#F2F2FC"/>
<path d="M102.053 25.9794C101.78 26.4359 101.625 26.9596 101.642 27.5123C101.649 27.751 101.693 27.987 101.777 28.2103C101.856 28.4218 101.994 28.6196 102.001 28.852C102.01 29.1242 101.819 29.4319 101.735 29.6906C101.66 29.9239 101.62 30.1843 101.716 30.4103C101.772 30.5401 101.867 30.6472 101.945 30.7643C102.315 31.3233 101.993 32.1638 102.628 32.5586C102.786 32.6566 102.972 32.6721 103.158 32.6784C103.39 32.6866 104.429 32.3726 104.83 32.1856C105.274 31.9796 105.7 31.4622 106.015 31.0892C106.263 30.7969 106.679 30.4194 106.833 30.0709C106.881 29.9647 106.761 29.9474 106.868 29.8921L107.076 29.4328C107.162 29.4219 107.276 29.3239 107.349 29.274C107.487 29.1778 107.561 29.5163 107.604 29.353C107.786 28.6614 108.021 27.9534 107.978 27.2282C107.938 26.5639 107.941 25.9921 107.501 25.4357C107.172 25.0164 106.706 24.7169 106.204 24.5372C105.438 24.2622 104.575 24.264 103.81 24.5417C103.085 24.8049 102.447 25.3223 102.053 25.9794Z" fill="#FFC7AD"/>
<path d="M104.428 27.0439C104.662 27.0158 105.107 26.925 105.289 27.1256C105.54 27.4024 105.402 27.8326 105.37 28.1612C105.325 28.6168 105.306 29.076 105.275 29.5326C105.268 29.6297 105.263 29.7322 105.313 29.8157C105.383 29.9319 105.544 29.9673 105.674 29.931C105.805 29.8947 105.913 29.803 106.012 29.7096C106.183 29.5498 106.342 29.3783 106.495 29.2004C106.622 29.0515 106.76 28.8963 106.953 29.0543C107.163 29.2249 107.186 29.6424 107.143 29.8875C107.135 29.9301 107.072 30.2559 107.202 30.2459C107.333 30.2359 108.381 28.9499 108.256 26.9314C108.137 24.9954 106.765 24.7522 106.765 24.7522C106.765 24.7522 106.087 23.8028 104.538 24.0134C103.602 24.1405 102.597 24.4518 101.963 25.1951C101.641 25.5727 101.429 26.0492 101.384 26.5456C101.368 26.7181 101.331 26.9822 101.468 27.1129C101.596 27.2354 101.851 27.269 102.015 27.299C102.512 27.3906 103.024 27.3071 103.52 27.2073C103.821 27.1465 104.123 27.0802 104.428 27.0439Z" fill="#15151A"/>
<path d="M106.943 28.5869C107.518 28.537 107.679 29.2485 107.294 29.8085C107.182 29.9719 106.98 30.1189 106.832 30.2505C105.817 31.15 105.539 30.2042 105.862 29.8983C106.609 29.1886 106.219 28.6495 106.943 28.5869Z" fill="#FFC7AD"/>
<path d="M106.622 29.9583C106.687 29.8957 107.336 29.4954 106.884 29.2404C106.758 29.1696 106.622 29.2812 106.606 29.4128L106.611 29.6189L106.57 29.7323C106.513 29.8276 106.316 29.9229 106.357 30.0608C106.395 30.1834 106.585 29.9928 106.622 29.9583Z" fill="#F3A984"/>
<path d="M110.44 46.0801C110.382 46.14 110.319 46.1944 110.237 46.2334C110.116 46.2906 109.973 46.3106 109.846 46.2688C109.681 46.2162 109.563 46.0755 109.45 45.9439C109.268 45.7315 109.076 45.5273 108.874 45.334L108.686 45.2369L108.55 45.3649V45.6199L108.315 45.5409C108.222 45.5119 108.129 45.4856 108.034 45.462C107.839 45.4139 107.641 45.3785 107.442 45.3567C107.05 45.314 106.651 45.3231 106.261 45.3857L106.161 45.4166L106.114 45.5046L106.19 45.5854C106.453 45.7288 106.757 45.7488 107.042 45.815C107.164 45.8432 107.271 45.9031 107.393 45.9376C107.551 45.982 107.704 46.0392 107.852 46.1082C107.371 46.0038 106.879 45.9494 106.386 45.9466C106.286 45.9457 106.049 45.9557 105.988 46.0528C105.905 46.1853 106.123 46.2679 106.211 46.2988C106.479 46.3923 106.747 46.4858 107.014 46.5792C106.72 46.4767 106.392 46.4513 106.083 46.4876C105.932 46.5057 105.823 46.5094 105.864 46.6909C105.893 46.8098 105.989 46.9114 106.111 46.9314C106.298 46.9613 106.482 46.9858 106.668 47.024C106.926 47.0775 107.183 47.1465 107.426 47.2518C107.218 47.2681 107.008 47.2854 106.81 47.3525C106.649 47.4079 106.459 47.5095 106.368 47.6611C106.308 47.7628 106.297 47.9615 106.452 47.9733C106.616 47.9851 106.781 47.986 106.945 47.9779C107.291 47.9588 107.639 47.9052 107.985 47.9524C108.486 48.0214 108.942 48.3019 109.445 48.3636C109.899 48.419 110.352 48.2892 110.754 48.0849C111.129 47.8962 111.403 47.5649 111.755 47.3407C111.969 47.2046 112.2 47.1274 112.376 46.9441C112.571 46.739 112.759 46.5275 112.939 46.3097C113.025 46.2053 113.114 46.0882 113.122 45.953C113.132 45.7642 112.983 45.6063 112.828 45.4983C112.622 45.3549 112.385 45.2569 112.139 45.2078C111.908 45.1634 111.651 45.118 111.432 45.2233C111.143 45.363 110.892 45.6553 110.649 45.8631L110.44 46.0801Z" fill="#FFC7AD"/>
<path d="M110.259 34.165C110.259 34.165 109.819 34.4273 109.673 36.4604C109.635 36.9968 109.721 37.5404 109.818 38.0696C109.905 38.5433 110.097 39.1777 110.502 39.4782C110.891 39.7668 111.265 40.0835 111.644 40.3921C112.408 41.0138 113.184 41.621 113.973 42.21C114.337 42.4832 114.745 42.8771 115.175 43.0469C116.394 43.5288 117.572 42.8799 117.775 41.9759C117.851 41.6328 117.712 41.2589 117.559 40.9557C117.339 40.5165 115.966 39.0416 115.577 38.6341C111.66 34.5281 110.259 34.165 110.259 34.165Z" fill="#E7E8FC"/>
<path d="M111.336 47.7147C111.88 47.8618 112.63 47.1547 112.983 46.8707C113.812 46.2063 116.926 44.0271 117.725 42.1375C117.917 41.6837 116.786 41.2644 116.256 40.8115C115.895 40.502 115.281 40.6726 114.884 40.8042C114.39 40.9685 110.189 45.7852 110.121 46.0348C109.973 46.5721 110.914 47.6004 111.336 47.7147Z" fill="#E7E8FC"/>
<path d="M102.02 32.9616L101.976 32.7592C101.895 32.6748 101.745 32.692 101.665 32.7165C101.53 32.7574 101.433 32.8518 101.362 32.9543C101.266 33.0896 101.204 33.2465 101.094 33.37L100.975 33.4462L100.819 33.3891C100.753 33.3038 100.829 33.1694 100.851 33.0986C100.884 32.9834 100.93 32.8736 100.984 32.7692C101.068 32.6103 101.176 32.4161 101.328 32.3072C101.497 32.1883 101.733 32.1257 101.912 32.0122L102.004 31.9305L102.014 31.7281C101.983 31.5648 101.975 31.4368 101.795 31.4132C101.672 31.3969 101.547 31.4159 101.424 31.4232C101.244 31.4332 101.064 31.4559 100.883 31.4704C100.571 31.4967 100.229 31.4713 99.9811 31.6855C99.776 31.8634 99.658 32.1157 99.5419 32.3562C99.3667 32.7183 99.2877 33.1195 99.2206 33.5125C99.1598 33.8592 99.0935 34.2095 99.049 34.5599C99.0136 34.8431 99.4257 35.158 99.7252 35.236L99.923 35.2687C100.174 35.2842 100.364 35.1816 100.508 35.04C100.58 34.9692 100.871 34.5962 100.971 34.4936C101.382 34.0707 101.758 33.6123 101.985 33.0678L102.02 32.9616Z" fill="#F3A984"/>
<path d="M99.1924 34.2631C98.6288 34.2939 98.1405 35.2006 97.8936 35.5809C97.1331 36.7517 96.4142 37.8971 95.7853 39.1487C95.4304 39.8566 95.0193 40.6081 94.8359 41.3787C94.6499 42.1629 95.1345 42.8908 96.1674 42.9035C96.9951 42.9144 98.4799 40.7824 98.7559 40.1561C99.3041 38.9118 100.032 37.7047 100.532 36.4404C100.635 36.1808 100.889 35.7651 100.873 35.4756C100.845 34.9192 99.6281 34.2395 99.1924 34.2631Z" fill="#F2F2FC"/>
<path d="M105.908 19.4927C105.809 19.4927 105.729 19.4119 105.729 19.3121C105.729 18.3246 105.941 17.6947 106.378 17.3889L107.247 16.8969C108.038 16.3968 108.426 15.6662 108.426 14.6688C108.426 13.6395 108.156 12.6621 107.624 11.7654C107.091 10.8659 106.336 10.1307 105.38 9.5789C104.485 9.06248 103.76 8.91817 103.224 9.15142C102.698 9.38014 102.438 9.93015 102.428 10.8323C102.427 10.9312 102.346 11.0111 102.247 11.0111H102.245C102.145 11.0093 102.066 10.9285 102.066 10.8287C102.078 9.78402 102.419 9.10787 103.081 8.82016C103.726 8.5388 104.56 8.68948 105.56 9.26581C106.57 9.8494 107.369 10.6281 107.934 11.5811C108.5 12.535 108.786 13.5733 108.786 14.6688C108.786 15.7842 108.331 16.6383 107.432 17.2064L106.57 17.6938C106.256 17.9153 106.089 18.4626 106.089 19.3121C106.089 19.4119 106.008 19.4927 105.908 19.4927Z" fill="#35353F"/>
<path d="M105.387 21.1953C105.387 21.0183 105.433 20.8958 105.526 20.8295C105.619 20.7632 105.756 20.7823 105.939 20.8876C106.122 20.9929 106.26 21.1335 106.354 21.3078C106.449 21.483 106.497 21.6591 106.497 21.8361C106.497 22.014 106.449 22.1328 106.354 22.1945C106.26 22.2563 106.122 22.2345 105.939 22.1292C105.756 22.0239 105.619 21.886 105.526 21.7153C105.433 21.5456 105.387 21.3723 105.387 21.1953Z" fill="#35353F"/>
<path d="M52.1142 74.9292L52.1096 76.6637C52.106 77.8417 51.3318 79.0189 49.7844 79.9174C46.6667 81.7299 41.5996 81.7299 38.462 79.9174C36.8828 79.0062 36.094 77.81 36.0977 76.6156L36.1022 74.882C36.0986 76.0764 36.8873 77.2718 38.4665 78.1839C41.6041 79.9955 46.6722 79.9955 49.7889 78.1839C51.3363 77.2845 52.1115 76.1073 52.1142 74.9292Z" fill="#CFD2FA"/>
<mask id="mask2_1475_12864" style="mask-type:luminance" maskUnits="userSpaceOnUse" x="36" y="74" width="17" height="8">
<path d="M52.1142 74.9292L52.1096 76.6637C52.106 77.8417 51.3318 79.0189 49.7844 79.9174C46.6667 81.7299 41.5996 81.7299 38.4611 79.9174C36.8828 79.0062 36.094 77.81 36.0977 76.6156L36.1022 74.882C36.0986 76.0764 36.8873 77.2718 38.4665 78.1839C41.6041 79.9955 46.6722 79.9955 49.7889 78.1839C51.3363 77.2845 52.1115 76.1073 52.1142 74.9292Z" fill="white"/>
</mask>
<g mask="url(#mask2_1475_12864)">
<path d="M49.7891 78.1839C51.3365 77.2845 52.1116 76.1073 52.1144 74.9292L49.7891 78.1839Z" fill="#CFD2FA"/>
<path d="M49.7822 79.9174C47.8499 81.0411 45.1679 81.4676 42.6602 81.1981L42.6656 79.4646C45.1724 79.7332 47.8544 79.3066 49.7867 78.1839L49.7822 79.9174Z" fill="#CFD2FA"/>
<path d="M52.115 74.9292L52.1104 76.6637C52.1068 77.8417 51.3326 79.0189 49.7852 79.9174L49.8451 77.3916L52.115 74.9292Z" fill="#B5B8FD"/>
<path d="M42.6657 79.4645L42.6602 81.1981C41.1237 81.0329 39.6515 80.6063 38.4599 79.9174C38.1231 79.7241 37.8227 79.5172 37.5586 79.2994L37.5631 77.5658C37.8272 77.7827 38.1277 77.9897 38.4644 78.1839C39.657 78.8719 41.1282 79.2993 42.6657 79.4645Z" fill="#DCDDF8"/>
<path d="M37.5653 77.5658L37.5607 79.2994C36.5823 78.4971 36.0949 77.5559 36.0977 76.6156L36.1022 74.882C36.0995 75.8214 36.5878 76.7626 37.5653 77.5658Z" fill="#CFD2FA"/>
</g>
<path d="M49.7489 71.6264C52.8865 73.438 52.9038 76.3732 49.788 78.1839C46.6712 79.9954 41.6032 79.9954 38.4656 78.1839C35.328 76.3723 35.3117 73.4362 38.4284 71.6246C41.5433 69.8148 46.6113 69.8148 49.7489 71.6264Z" fill="#F2F2FC"/>
<path d="M37.0637 73.0259C37.2099 71.9831 37.6392 71.061 38.3707 70.2977C39.1077 69.5289 40.0543 68.9789 41.0627 68.644C42.8588 68.0486 44.8229 68.0051 46.649 68.4943C48.6412 69.0279 50.5961 70.4138 51.0672 72.5249C51.2079 73.1584 51.2369 73.8219 50.9909 74.4327C50.6933 75.1688 50.0943 75.746 49.4435 76.1781C48.1656 77.0258 46.6054 77.4187 45.0906 77.5386C43.5322 77.6611 41.924 77.4995 40.4464 76.9777C39.0814 76.4948 37.5139 75.589 37.1209 74.0851C37.0293 73.733 37.0392 73.3863 37.0637 73.0259Z" fill="#E7E8FC"/>
<path d="M49.2082 76.326C49.9461 75.8822 50.6413 75.2696 50.9789 74.4591C51.2431 73.8238 51.2122 73.1167 51.0516 72.4578C50.7747 71.3179 50.0486 70.3794 49.1301 69.6751C47.462 68.3963 45.1213 67.9842 43.0674 68.2111C41.8512 68.3463 40.6676 68.6858 39.6094 69.3102C40.8265 68.5778 42.3676 68.2574 43.7744 68.2293C45.0623 68.203 46.4019 68.4299 47.5473 69.0416C48.5048 69.5535 49.3244 70.3848 49.5259 71.4839C49.7691 72.8036 49.1211 74.1977 48.2834 75.1843C47.1071 76.5702 45.3581 77.3516 43.5747 77.5631C45.4907 77.6502 47.5446 77.3271 49.2082 76.326Z" fill="#DCDDF8"/>
<path d="M49.2054 76.326C50.3227 75.6535 51.2367 74.617 51.165 73.2483C51.115 72.3035 50.7411 71.4304 50.1711 70.6834C49.1337 69.3229 47.3784 68.5515 45.7238 68.2928C44.7981 68.1476 43.8687 68.124 42.9375 68.2247C45.0958 68.0169 47.7278 68.3926 49.2308 70.1252C49.7936 70.7742 50.123 71.5965 50.1149 72.4587C50.1049 73.4416 49.6792 74.3683 49.0965 75.1416C48.3133 76.1799 47.2541 76.9196 46.0633 77.4197C47.1597 77.24 48.2497 76.9014 49.2054 76.326Z" fill="#CFD2FA"/>
<path d="M38.4849 72.4632C37.3785 73.7566 39.8744 76.709 43.15 76.3115C44.7927 76.1118 45.8319 75.1742 45.3246 74.6651C45.0959 74.4364 44.3507 74.3038 44.3434 74.302C42.6408 74.0107 42.0872 73.8301 41.7214 73.7103C40.6749 73.369 39.8517 72.8499 39.5468 72.6429C39.2464 72.4387 39.0467 72.3634 39.0449 72.3634C38.7381 72.2644 38.5711 72.3634 38.4849 72.4632Z" fill="#E7E8FC"/>
<path d="M39.0462 73.6213C38.5715 74.7132 41.562 77.0911 44.2059 75.855C44.8094 75.5727 45.3831 74.9918 44.3566 74.6324C43.5724 74.3583 42.741 74.2794 41.9432 74.0606C41.2398 73.8682 40.5727 73.5578 39.853 73.4208C39.4519 73.3445 39.1787 73.3173 39.0462 73.6213Z" fill="#F2F2FC"/>
<path d="M40.0462 74.4782C39.95 74.9728 40.8548 75.5809 41.3812 75.7225C43.1611 76.2008 43.9198 75.5555 43.9516 75.5273C44.9273 74.6678 40.6415 74.1968 40.5916 74.1977C40.2295 74.2059 40.077 74.2848 40.0462 74.4782Z" fill="#F2F2FC"/>
<path d="M51.1732 74.8067L51.1768 73.5024C51.1741 74.5189 50.5216 75.5364 49.2092 76.326C48.3143 76.8642 47.2251 77.23 46.0661 77.4197L46.0625 78.7248C47.2215 78.5342 48.3106 78.1684 49.2055 77.6302C50.517 76.8406 51.1705 75.8241 51.1732 74.8067Z" fill="#B5B8FD"/>
<path d="M46.0629 78.7248L46.0665 77.4197C45.2569 77.5531 44.4128 77.6012 43.5779 77.5631L43.5742 78.8683C44.4092 78.9064 45.2533 78.8574 46.0629 78.7248Z" fill="#B5B8FD"/>
<path d="M43.5735 78.8682L43.5771 77.5631C41.997 77.4914 40.4477 77.1138 39.2152 76.4268C38.3548 75.9466 37.7485 75.3721 37.3981 74.7586L37.3945 76.0628C37.7449 76.6763 38.3511 77.2518 39.2116 77.731C40.4441 78.4181 41.9934 78.7965 43.5735 78.8682Z" fill="#DCDDF8"/>
<path d="M37.3928 76.0628L37.3964 74.7586C37.1568 74.3375 37.037 73.8991 37.0388 73.4607L37.0352 74.7649C37.0334 75.2042 37.1532 75.6426 37.3928 76.0628Z" fill="#B5B8FD"/>
<path d="M49.1889 70.2351L49.1862 71.0655C49.1844 71.8098 48.6943 72.554 47.715 73.1231C45.7473 74.2667 42.5425 74.2685 40.5594 73.1231C39.562 72.5477 39.0637 71.7916 39.0664 71.0365L39.0682 70.206C39.0664 70.9611 39.5647 71.7172 40.5612 72.2926C42.5453 73.438 45.7491 73.4362 47.7177 72.2926C48.697 71.7235 49.1871 70.9793 49.1889 70.2351Z" fill="#CFD2FA"/>
<mask id="mask3_1475_12864" style="mask-type:luminance" maskUnits="userSpaceOnUse" x="39" y="70" width="11" height="4">
<path d="M49.1929 70.2342L49.1901 71.0646C49.1883 71.8098 48.6982 72.554 47.7189 73.1231C45.7512 74.2667 42.5464 74.2685 40.5633 73.1231C39.5659 72.5477 39.0676 71.7916 39.0703 71.0365L39.0721 70.206C39.0703 70.9611 39.5686 71.7172 40.5651 72.2926C42.5492 73.438 45.753 73.4371 47.7216 72.2926C48.7009 71.7235 49.191 70.9793 49.1929 70.2342Z" fill="white"/>
</mask>
<g mask="url(#mask3_1475_12864)">
<path d="M49.1944 70.2351L49.1917 71.0655C49.1899 71.8098 48.6998 72.554 47.7205 73.1231C46.5007 73.8328 44.8043 74.1024 43.2188 73.9326L43.2215 73.1022C44.8071 73.2719 46.5025 73.0023 47.7232 72.2926C48.7025 71.7235 49.1926 70.9793 49.1944 70.2351Z" fill="#CFD2FA"/>
<path d="M43.2217 73.1022L43.219 73.9327C42.2479 73.8274 41.3185 73.5578 40.5652 73.1231C40.3528 73.0006 40.1631 72.8699 39.9961 72.7328L39.9988 71.9033C40.1658 72.0394 40.3555 72.1701 40.567 72.2926C41.3203 72.7283 42.2506 72.9969 43.2217 73.1022Z" fill="#CFD2FA"/>
<path d="M39.997 71.9032L39.9943 72.7328C39.3771 72.2254 39.0685 71.631 39.0703 71.0365L39.0721 70.206C39.0703 70.8005 39.3789 71.3959 39.997 71.9032Z" fill="#CFD2FA"/>
</g>
<path d="M47.6958 68.1476C49.6798 69.293 49.6898 71.1481 47.7194 72.2926C45.7508 73.4362 42.5469 73.438 40.5629 72.2926C38.5816 71.149 38.5716 69.2912 40.5402 68.1476C42.5106 67.0022 45.7145 67.004 47.6958 68.1476Z" fill="#F2F2FC"/>
<path d="M41.3773 54.7849C42.1561 60.2115 42.0871 64.6052 40.8491 69.9546C40.7393 70.3513 40.7629 70.746 40.9826 71.0973C42.2741 65.737 42.4701 61.1817 41.9192 55.7034C41.6442 55.4184 41.4545 55.1007 41.3773 54.7849Z" fill="#CFD2FA"/>
<path d="M42.9542 56.4068C43.2074 61.7308 43.0295 66.6873 42.2227 71.9586C42.8598 72.1765 43.6503 72.2709 44.4227 72.2418C44.3056 67.0403 44.2738 61.8434 44.2866 56.6401C43.8364 56.6637 43.3826 56.5856 42.9542 56.4068Z" fill="#F2F2FC"/>
<path d="M44.2839 56.6401C44.2712 61.8434 44.3029 67.0403 44.42 72.2418C45.1343 72.2155 45.8286 72.0839 46.3741 71.8452C45.4383 66.5611 45.2359 61.6691 45.5037 56.3133C45.1152 56.5094 44.7014 56.6183 44.2839 56.6401Z" fill="#DCDDF8"/>
<path d="M45.5034 56.3134C45.2357 61.6692 45.4381 66.5611 46.3738 71.8452C46.5517 71.7672 46.7142 71.6782 46.8576 71.5775C47.5011 71.1273 47.6399 70.531 47.4711 69.932C46.2241 64.5935 46.1478 60.1888 46.8884 54.7659C46.7768 55.2442 46.4111 55.7261 45.8738 56.0946C45.7539 56.1772 45.6305 56.2498 45.5034 56.3134Z" fill="#CFD2FA"/>
<path d="M41.9422 53.4716C40.8739 54.1868 41.315 55.3622 42.3806 56.0946C43.4452 56.8261 44.8066 56.8261 45.8739 56.0946C46.9413 55.3622 47.3878 54.1868 46.3232 53.4716C45.2586 52.7555 43.0104 52.7555 41.9422 53.4716Z" fill="#F4F4FB"/>
<path d="M41.9171 55.7034C42.468 61.1817 42.272 65.737 40.9805 71.0973C41.0876 71.2697 41.2419 71.4313 41.4497 71.5774C41.6666 71.7317 41.9271 71.8579 42.2202 71.9586C43.0271 66.6872 43.205 61.7308 42.9518 56.4068C42.7548 56.3233 42.5633 56.2198 42.3809 56.0946C42.2066 55.9748 42.0514 55.8432 41.9171 55.7034Z" fill="#DCDDF8"/>
<path d="M48.6038 56.2779L48.6011 57.0122C48.5993 57.6711 48.1663 58.3291 47.2996 58.8328C45.5588 59.8448 42.7243 59.8457 40.969 58.8328C40.0868 58.3237 39.6466 57.6548 39.6484 56.9859L39.6512 56.2516C39.6484 56.9196 40.0895 57.5885 40.9708 58.0977C42.7261 59.1115 45.5606 59.1096 47.3023 58.0977C48.1681 57.5949 48.602 56.9368 48.6038 56.2779Z" fill="#DCDDF8"/>
<mask id="mask4_1475_12864" style="mask-type:luminance" maskUnits="userSpaceOnUse" x="39" y="56" width="10" height="4">
<path d="M48.6116 56.2769L48.6089 57.0121C48.6071 57.671 48.1741 58.329 47.3074 58.8327C45.5666 59.8447 42.7312 59.8456 40.9768 58.8327C40.0946 58.3235 39.6544 57.6537 39.6563 56.9857L39.659 56.2515C39.6563 56.9195 40.0974 57.5884 40.9796 58.0975C42.734 59.1104 45.5684 59.1095 47.3101 58.0975C48.176 57.5947 48.6089 56.9367 48.6116 56.2769Z" fill="white"/>
</mask>
<g mask="url(#mask4_1475_12864)">
<path d="M48.6101 56.2778L48.6074 57.0121C48.6056 57.671 48.1727 58.329 47.3059 58.8328C46.2268 59.4599 44.7265 59.6986 43.3242 59.5479L43.326 58.8137C44.7283 58.9644 46.2286 58.7257 47.3086 58.0976C48.1745 57.5948 48.6083 56.9368 48.6101 56.2778Z" fill="#DCDDF8"/>
<path d="M43.3262 58.8137L43.3243 59.548C42.4648 59.4563 41.6426 59.2176 40.9755 58.8328C40.7885 58.7248 40.6206 58.6086 40.4727 58.4879L40.4754 57.7527C40.6224 57.8743 40.7903 57.9896 40.9773 58.0976C41.6444 58.4834 42.4667 58.7212 43.3262 58.8137Z" fill="#DCDDF8"/>
<path d="M40.4767 57.7527L40.474 58.4879C39.9276 58.0386 39.6553 57.5122 39.6563 56.9858L39.659 56.2515C39.6572 56.7779 39.9294 57.3043 40.4767 57.7527Z" fill="#DCDDF8"/>
</g>
<path d="M47.2833 54.431C49.0377 55.4439 49.0468 57.0848 47.3042 58.0977C45.5625 59.1097 42.728 59.1115 40.9727 58.0977C39.2201 57.0866 39.211 55.443 40.9527 54.431C42.6962 53.4181 45.5307 53.419 47.2833 54.431Z" fill="#F2F2FC"/>
<path d="M48.6818 53.3754C48.6818 55.8904 46.6424 57.9307 44.1274 57.9307C42.687 57.9307 41.4037 57.2627 40.5696 56.2198C39.9433 55.4402 39.5703 54.4527 39.5703 53.3754C39.5703 50.8604 41.6097 48.821 44.1274 48.821C45.0259 48.821 45.8645 49.0815 46.5716 49.5344C47.8404 50.3422 48.6818 51.759 48.6818 53.3754Z" fill="#E7E8FC"/>
<path d="M44.3414 51.8615C44.3414 52.839 43.549 53.6313 42.5715 53.6313C42.0115 53.6313 41.5133 53.3727 41.1892 52.967C40.9451 52.6638 40.8008 52.2808 40.8008 51.8615C40.8008 50.8849 41.5931 50.0917 42.5715 50.0917C42.9209 50.0917 43.2468 50.1933 43.5209 50.3694C44.0146 50.6835 44.3414 51.2335 44.3414 51.8615Z" fill="#F2F2FC"/>
<path d="M46.7225 49.6352C47.4259 50.4974 47.8089 51.5756 47.6356 52.7864C47.219 56.1236 43.5677 57.1755 40.5 56.12L40.5735 56.2198C41.4076 57.2627 42.691 57.9307 44.1313 57.9307C46.6463 57.9307 48.6857 55.8904 48.6857 53.3754C48.6857 51.8234 47.9079 50.4565 46.7225 49.6352Z" fill="#CFD2FA"/>
<path d="M46.7228 49.6351L46.5758 49.5344C46.4333 49.4436 46.2844 49.3628 46.1329 49.2875C47.4171 51.1889 46.6647 53.9227 44.8931 55.3013C43.4164 56.1445 41.9406 56.0156 40.2852 55.8114C40.3523 55.9167 40.424 56.0201 40.5003 56.12C43.568 57.1755 47.2193 56.1236 47.6359 52.7863C47.8092 51.5756 47.4262 50.4974 46.7228 49.6351Z" fill="#DCDDF8"/>
<path d="M38.3338 83.6531L38.3284 85.3866C38.3257 86.5656 37.5506 87.7428 36.004 88.6413C32.8864 90.4529 27.8183 90.4529 24.6807 88.6413C23.1024 87.7301 22.3137 86.5338 22.3164 85.3394L22.3219 83.605C22.3182 84.7994 23.1069 85.9956 24.6862 86.9078C27.8238 88.7194 32.8909 88.7194 36.0086 86.9078C37.556 86.0083 38.3302 84.8312 38.3338 83.6531Z" fill="#292930"/>
<mask id="mask5_1475_12864" style="mask-type:luminance" maskUnits="userSpaceOnUse" x="22" y="83" width="17" height="7">
<path d="M38.3338 83.6531L38.3293 85.3866C38.3257 86.5656 37.5506 87.7428 36.004 88.6413C32.8864 90.4529 27.8183 90.4529 24.6807 88.6413C23.1024 87.7301 22.3137 86.5338 22.3164 85.3394L22.3219 83.605C22.3182 84.7994 23.1069 85.9956 24.6862 86.9078C27.8238 88.7194 32.8909 88.7194 36.0086 86.9078C37.556 86.0083 38.3302 84.8312 38.3338 83.6531Z" fill="white"/>
</mask>
<g mask="url(#mask5_1475_12864)">
<path d="M36.0078 86.9078C37.5553 86.0083 38.3295 84.8312 38.3331 83.6531L36.0078 86.9078Z" fill="#292930"/>
<path d="M36.0048 88.6413C34.0716 89.7649 31.3896 90.1915 28.8828 89.922L28.8874 88.1875C31.3951 88.4571 34.077 88.0305 36.0093 86.9078L36.0048 88.6413Z" fill="#15151A"/>
<path d="M38.3337 83.6531L38.3283 85.3866C38.3255 86.5656 37.5505 87.7428 36.0039 88.6413L36.0638 86.1154L38.3337 83.6531Z" fill="#15151A"/>
<path d="M28.8883 88.1876L28.8838 89.922C27.3463 89.7568 25.8751 89.3302 24.6825 88.6414C24.3467 88.4471 24.0463 88.2402 23.7812 88.0233L23.7867 86.2888C24.0508 86.5067 24.3512 86.7136 24.6879 86.9078C25.8796 87.5958 27.3518 88.0224 28.8883 88.1876Z" fill="#292930"/>
<path d="M23.7849 86.2888L23.7795 88.0232C22.802 87.2209 22.3146 86.2797 22.3164 85.3394L22.3219 83.605C22.3191 84.5453 22.8065 85.4864 23.7849 86.2888Z" fill="#15151A"/>
</g>
<path d="M35.968 80.3503C39.1056 82.1619 39.122 85.0971 36.0071 86.9078C32.8894 88.7194 27.8223 88.7194 24.6847 86.9078C21.5471 85.0962 21.5298 82.1601 24.6475 80.3485C27.7624 78.5388 32.8304 78.5388 35.968 80.3503Z" fill="#47464E"/>
<path d="M23.2828 81.7499C23.4289 80.7071 23.8582 79.7849 24.5897 79.0216C25.3267 78.2529 26.2733 77.7029 27.2817 77.368C29.0769 76.7726 31.041 76.729 32.868 77.2182C34.8593 77.751 36.8151 79.1378 37.2862 81.2489C37.4269 81.8824 37.4559 82.5459 37.2091 83.1558C36.9123 83.8928 36.3132 84.4691 35.6625 84.9011C34.3837 85.7497 32.8235 86.1427 31.3087 86.2616C29.7513 86.385 28.143 86.2235 26.6654 85.7016C25.2994 85.2188 23.7329 84.3121 23.3399 82.8091C23.2474 82.4569 23.2583 82.1102 23.2828 81.7499Z" fill="#333337"/>
<path d="M35.4279 85.049C36.1658 84.6052 36.8601 83.9925 37.1977 83.182C37.4627 82.5476 37.4319 81.8397 37.2712 81.1817C36.9935 80.0417 36.2683 79.1042 35.3489 78.399C33.6816 77.1201 31.34 76.7072 29.287 76.935C28.0699 77.0702 26.8864 77.4088 25.8281 78.0341C27.0461 77.3007 28.5873 76.9813 29.9931 76.9531C31.2819 76.9277 32.6215 77.1528 33.7669 77.7654C34.7236 78.2773 35.5431 79.1078 35.7455 80.2078C35.9888 81.5266 35.3407 82.9216 34.503 83.9081C33.3259 85.294 31.5778 86.0755 29.7935 86.287C31.7103 86.3741 33.7642 86.051 35.4279 85.049Z" fill="#292930"/>
<path d="M35.429 85.049C36.5462 84.3773 37.4602 83.3409 37.3885 81.9722C37.3386 81.0265 36.9647 80.1543 36.3947 79.4073C35.3564 78.0468 33.602 77.2753 31.9474 77.0167C31.0217 76.8715 30.0923 76.8479 29.1602 76.9486C31.3193 76.7408 33.9514 77.1156 35.4544 78.8491C36.0171 79.4981 36.3466 80.3204 36.3384 81.1835C36.3284 82.1646 35.9018 83.0922 35.3192 83.8655C34.5368 84.9038 33.4767 85.6435 32.2869 86.1436C33.3832 85.9629 34.4733 85.6244 35.429 85.049Z" fill="#292930"/>
<path d="M24.7036 81.1871C23.5973 82.4796 26.0932 85.4329 29.3687 85.0354C31.0115 84.8357 32.0507 83.8982 31.5433 83.389C31.3146 83.1603 30.5695 83.0269 30.5622 83.026C28.8596 82.7346 28.3059 82.554 27.9401 82.4342C26.8937 82.093 26.0705 81.5738 25.7655 81.3669C25.4642 81.1627 25.2645 81.0873 25.2636 81.0873C24.9559 80.9884 24.7889 81.0873 24.7036 81.1871Z" fill="#47464E"/>
<path d="M25.2647 82.3453C24.791 83.4371 27.7815 85.815 30.4254 84.5789C31.028 84.2966 31.6025 83.7158 30.576 83.3563C29.791 83.0813 28.9605 83.0033 28.1618 82.7846C27.4593 82.5921 26.7922 82.2817 26.0725 82.1447C25.6704 82.0684 25.3972 82.0412 25.2647 82.3453Z" fill="#47464E"/>
<path d="M26.265 83.202C26.1679 83.6967 27.0737 84.3048 27.6001 84.4464C29.3799 84.9247 30.1387 84.2793 30.1705 84.2512C31.1461 83.3917 26.8595 82.9207 26.8096 82.9216C26.4484 82.9297 26.2959 83.0087 26.265 83.202Z" fill="#5F5D68"/>
<path d="M37.392 83.5306L37.3956 82.2264C37.3929 83.2429 36.7394 84.2603 35.4279 85.049C34.533 85.5881 33.4439 85.953 32.2849 86.1436L32.2812 87.4487C33.4403 87.2581 34.5294 86.8924 35.4243 86.3542C36.7358 85.5645 37.3893 84.548 37.392 83.5306Z" fill="#15151A"/>
<path d="M32.2825 87.4488L32.2862 86.1436C31.4766 86.277 30.6325 86.3251 29.7966 86.287L29.793 87.5921C30.6289 87.6294 31.472 87.5822 32.2825 87.4488Z" fill="#15151A"/>
<path d="M29.7914 87.5922L29.795 86.287C28.2158 86.2153 26.6656 85.8378 25.4339 85.1507C24.5735 84.6706 23.9673 84.0961 23.6169 83.4816L23.6133 84.7868C23.9636 85.4003 24.569 85.9757 25.4303 86.4549C26.6619 87.142 28.2121 87.5205 29.7914 87.5922Z" fill="#292930"/>
<path d="M23.6124 84.7867L23.616 83.4816C23.3764 83.0614 23.2566 82.623 23.2575 82.1846L23.2539 83.4898C23.253 83.9281 23.3728 84.3665 23.6124 84.7867Z" fill="#15151A"/>
<path d="M35.4086 78.9581L35.4059 79.7885C35.4041 80.5337 34.914 81.2779 33.9346 81.847C31.966 82.9905 28.7622 82.9924 26.7782 81.847C25.7816 81.2706 25.2833 80.5146 25.2852 79.7595L25.2879 78.929C25.2861 79.6841 25.7834 80.4411 26.7809 81.0165C28.764 82.1619 31.9688 82.1601 33.9374 81.0165C34.9158 80.4474 35.4059 79.7041 35.4086 78.9581Z" fill="#292930"/>
<mask id="mask6_1475_12864" style="mask-type:luminance" maskUnits="userSpaceOnUse" x="25" y="78" width="11" height="5">
<path d="M35.4125 78.9581L35.4098 79.7886C35.408 80.5337 34.9179 81.2779 33.9386 81.847C31.97 82.9906 28.7661 82.9924 26.7821 81.847C25.7855 81.2707 25.2873 80.5147 25.2891 79.7595L25.2918 78.9291C25.29 79.6842 25.7873 80.4411 26.7848 81.0166C28.7679 82.162 31.9727 82.1601 33.9413 81.0166C34.9197 80.4475 35.4098 79.7042 35.4125 78.9581Z" fill="white"/>
</mask>
<g mask="url(#mask6_1475_12864)">
<path d="M35.4132 78.9582L35.4105 79.7886C35.4086 80.5337 34.9185 81.278 33.9392 81.847C32.7185 82.5559 31.0231 82.8264 29.4375 82.6557L29.4402 81.8253C31.0249 81.9959 32.7212 81.7263 33.942 81.0166C34.9204 80.4475 35.4105 79.7042 35.4132 78.9582Z" fill="#292930"/>
<path d="M29.4405 81.8253L29.4378 82.6558C28.4666 82.5514 27.5372 82.2818 26.783 81.8471C26.5715 81.7245 26.3818 81.5939 26.2148 81.4568L26.2176 80.6263C26.3837 80.7634 26.5734 80.8941 26.7857 81.0166C27.539 81.4514 28.4684 81.7218 29.4405 81.8253Z" fill="#292930"/>
<path d="M26.2166 80.6263L26.2139 81.4568C25.5958 80.9494 25.2882 80.354 25.2891 79.7595L25.2918 78.9291C25.29 79.5245 25.5986 80.119 26.2166 80.6263Z" fill="#292930"/>
</g>
<path d="M33.915 76.8715C35.8981 78.0169 35.909 79.8711 33.9386 81.0165C31.97 82.1601 28.7652 82.1619 26.7821 81.0165C24.8008 79.8729 24.7899 78.0151 26.7585 76.8715C28.7289 75.7261 31.9337 75.727 33.915 76.8715Z" fill="#47464E"/>
<path d="M27.5956 63.5088C28.3743 68.9354 28.3063 73.3282 27.0683 78.6785C26.9576 79.0752 26.9821 79.47 27.2008 79.8212C28.4933 74.4609 28.6893 69.9056 28.1375 64.4273C27.8634 64.1423 27.6728 63.8247 27.5956 63.5088Z" fill="#292930"/>
<path d="M29.1729 65.1297C29.4253 70.4538 29.2483 75.4102 28.4414 80.6825C29.0776 80.9003 29.8682 80.9947 30.6405 80.9656C30.5235 75.7632 30.4926 70.5672 30.5053 65.3639C30.0551 65.3875 29.6004 65.3094 29.1729 65.1297Z" fill="#47464E"/>
<path d="M30.5027 65.364C30.49 70.5673 30.5208 75.7642 30.6379 80.9657C31.3531 80.9394 32.0474 80.8078 32.592 80.5691C31.6571 75.285 31.4547 70.393 31.7225 65.0372C31.334 65.2333 30.9193 65.3422 30.5027 65.364Z" fill="#333337"/>
<path d="M31.7222 65.0372C31.4545 70.393 31.6569 75.285 32.5917 80.5691C32.7705 80.491 32.9321 80.4021 33.0764 80.3014C33.7199 79.8503 33.8587 79.2549 33.6899 78.6549C32.442 73.3164 32.3666 68.9127 33.1072 63.4898C32.9956 63.9681 32.6298 64.45 32.0925 64.8185C31.9727 64.9002 31.8484 64.9737 31.7222 65.0372Z" fill="#292930"/>
<path d="M28.1648 62.1955C27.0966 62.9107 27.5377 64.086 28.6032 64.8185C29.6678 65.55 31.0292 65.55 32.0966 64.8185C33.1639 64.086 33.6096 62.9107 32.5458 62.1955C31.4812 61.4794 29.2331 61.4794 28.1648 62.1955Z" fill="#F4F4FB"/>
<path d="M28.1359 64.4273C28.6877 69.9056 28.4916 74.4609 27.1992 79.8212C27.3072 79.9937 27.4615 80.1552 27.6684 80.3014C27.8854 80.4547 28.1468 80.5818 28.4399 80.6816C29.2468 75.4103 29.4238 70.4538 29.1714 65.1298C28.9736 65.0472 28.7821 64.9438 28.6006 64.8185C28.4263 64.6987 28.2711 64.5671 28.1359 64.4273Z" fill="#333337"/>
<path d="M34.8255 65.0009L34.8237 65.7361C34.8219 66.395 34.3881 67.053 33.5222 67.5567C31.7805 68.5687 28.9461 68.5696 27.1917 67.5567C26.3095 67.0475 25.8693 66.3777 25.8711 65.7107L25.8729 64.9755C25.8711 65.6435 26.3113 66.3124 27.1935 66.8216C28.9479 67.8354 31.7832 67.8335 33.524 66.8216C34.3908 66.3188 34.8237 65.6598 34.8255 65.0009Z" fill="#333337"/>
<mask id="mask7_1475_12864" style="mask-type:luminance" maskUnits="userSpaceOnUse" x="25" y="64" width="10" height="5">
<path d="M34.8216 65.0008L34.8198 65.736C34.818 66.3949 34.3842 67.0529 33.5183 67.5567C31.7775 68.5686 28.9422 68.5695 27.1878 67.5567C26.3056 67.0475 25.8654 66.3777 25.8672 65.7106L25.869 64.9754C25.8672 65.6434 26.3074 66.3123 27.1896 66.8215C28.944 67.8353 31.7793 67.8335 33.5201 66.8215C34.3869 66.3187 34.8198 65.6598 34.8216 65.0008Z" fill="white"/>
</mask>
<g mask="url(#mask7_1475_12864)">
<path d="M34.821 65.0009L34.8192 65.736C34.8174 66.3949 34.3836 67.053 33.5177 67.5567C32.4377 68.1838 30.9374 68.4225 29.5352 68.2719L29.5379 67.5376C30.9401 67.6883 32.4404 67.4496 33.5195 66.8215C34.3863 66.3187 34.8192 65.6598 34.821 65.0009Z" fill="#15151A"/>
<path d="M29.5371 67.5377L29.5344 68.2719C28.6758 68.1802 27.8526 67.9415 27.1864 67.5567C26.9985 67.4478 26.8315 67.3325 26.6836 67.2109L26.6854 66.4767C26.8334 66.5983 27.0013 66.7136 27.1882 66.8216C27.8553 67.2064 28.6776 67.4451 29.5371 67.5377Z" fill="#292930"/>
<path d="M26.6868 66.4766L26.6849 67.2109C26.1386 66.7625 25.8654 66.2361 25.8672 65.7106L25.869 64.9755C25.8681 65.501 26.1404 66.0283 26.6868 66.4766Z" fill="#15151A"/>
</g>
<path d="M33.5022 63.1548C35.2566 64.1677 35.2656 65.8087 33.5221 66.8216C31.7813 67.8336 28.946 67.8354 27.1916 66.8216C25.439 65.8096 25.4299 64.1668 27.1707 63.1548C28.9142 62.1419 31.7487 62.1429 33.5022 63.1548Z" fill="#47464E"/>
<path d="M34.9044 62.0993C34.9044 64.6143 32.8641 66.6537 30.3491 66.6537C28.9088 66.6537 27.6263 65.9866 26.7913 64.9437C26.1651 64.1641 25.793 63.1767 25.793 62.0993C25.793 59.5844 27.8324 57.5449 30.3491 57.5449C31.2477 57.5449 32.0872 57.8063 32.7933 58.2583C34.0622 59.0652 34.9044 60.4829 34.9044 62.0993Z" fill="#47464E"/>
<path d="M30.5601 60.5854C30.5601 61.5629 29.7678 62.3552 28.7912 62.3552C28.2312 62.3552 27.7329 62.0966 27.408 61.6909C27.1648 61.3877 27.0195 61.0038 27.0195 60.5854C27.0195 59.6079 27.8128 58.8156 28.7912 58.8156C29.1397 58.8156 29.4655 58.9172 29.7405 59.0933C30.2334 59.4064 30.5601 59.9573 30.5601 60.5854Z" fill="#5F5D68"/>
<path d="M32.9422 58.3591C33.6456 59.2213 34.0277 60.2995 33.8553 61.5094C33.4378 64.8467 29.7865 65.8995 26.7188 64.8439L26.7923 64.9437C27.6273 65.9866 28.9097 66.6537 30.3501 66.6537C32.8651 66.6537 34.9053 64.6143 34.9053 62.0993C34.9053 60.5473 34.1275 59.1796 32.9422 58.3591Z" fill="#15151A"/>
<path d="M32.9415 58.3591L32.7936 58.2583C32.652 58.1676 32.5032 58.0868 32.3507 58.0115C33.6359 59.9129 32.8835 62.6466 31.1109 64.0253C29.6351 64.8684 28.1585 64.7395 26.5039 64.5344C26.5711 64.6406 26.6428 64.7441 26.7181 64.8439C29.7858 65.8995 33.4371 64.8467 33.8546 61.5094C34.027 60.2995 33.6449 59.2213 32.9415 58.3591Z" fill="#333337"/>
<path d="M108.977 26.8597L108.926 26.503L112.637 25.9593L112.69 26.316L108.977 26.8597Z" fill="#35353F"/>
<path d="M108.833 25.9993L108.672 25.6762L111.094 24.4727L111.255 24.7958L108.833 25.9993Z" fill="#35353F"/>
<path d="M108.36 25.217L108.117 24.951L110.962 22.3526L111.205 22.6185L108.36 25.217Z" fill="#35353F"/>
<path d="M87.9178 45.3657L88.8889 45.393L89.192 48.1793L83.6992 45.1479L87.9178 45.3657Z" fill="#D22C2B"/>
<path d="M89.112 45.8504L91.1124 46.306L89.1855 48.1857L83.6836 45.1016L89.112 45.8504Z" fill="#E93C3C"/>
<path d="M87.1367 48.8973L88.9175 50.5563L89.1308 48.1957L83.6406 45.069L87.1367 48.8973Z" fill="#D22C2B"/>
<path d="M89.0648 48.3473L65.2773 35.0962L65.4525 34.7804L89.2409 48.0314L89.0648 48.3473Z" fill="#35353F"/>
<path d="M63.793 34.5299L66.2626 36.7381L67.3689 34.7223L64.3221 33.8655C64.1433 34.0852 63.9663 34.3057 63.793 34.5299Z" fill="#CFCDE2"/>
<path d="M88.1235 49.0489L89.9887 50.6526L89.1591 48.2247L84.0938 45.4438L88.1235 49.0489Z" fill="#F65150"/>
<path d="M91.0105 27.8789L91.8328 27.3616L93.6335 29.509L87.3828 30.0417L91.0105 27.8789Z" fill="#D22C2B"/>
<path d="M92.273 27.6184L94.1889 26.8851L93.6326 29.518L87.3438 30.0127L92.273 27.6184Z" fill="#E93C3C"/>
<path d="M92.3235 31.2471L94.7269 31.6365L93.5915 29.5562L87.2891 30.0082L92.3235 31.2471Z" fill="#D22C2B"/>
<path d="M66.4822 31.9232L66.4531 31.5629L93.5933 29.3583L93.6223 29.7186L66.4822 31.9232Z" fill="#35353F"/>
<path d="M68.0122 30.4502L64.8047 31.4967C64.8047 31.7508 64.8047 32.0058 64.8047 32.2599L68.2127 32.7419L68.0122 30.4502Z" fill="#CFCDE2"/>
<path d="M93.2289 30.8242L95.6704 31.1218L93.632 29.5644L87.875 30.0672L93.2289 30.8242Z" fill="#F65150"/>
<path d="M78.4787 58.2102L79.0024 57.3924L81.5455 58.5687L76.1172 61.7126L78.4787 58.2102Z" fill="#D22C2B"/>
<path d="M79.508 57.4378L80.9293 55.9584L81.5465 58.5778L76.0664 61.7026L79.508 57.4378Z" fill="#E93C3C"/>
<path d="M81.1021 60.6989L83.4428 60.0281L81.5296 58.6286L76.0195 61.7208L81.1021 60.6989Z" fill="#D22C2B"/>
<path d="M58.0039 72.3126L57.8242 71.9995L81.4428 58.4499L81.6225 58.763L58.0039 72.3126Z" fill="#35353F"/>
<path d="M55.0547 73.8182L58.7632 70.3285L59.9204 72.3161L55.0547 73.8182Z" fill="#CFCDE2"/>
<path d="M81.7412 59.931L84.0774 59.1596L81.5688 58.6195L76.5742 61.5248L81.7412 59.931Z" fill="#F65150"/>
</svg>
