<svg width="100" height="90" viewBox="0 0 100 90" fill="none" xmlns="http://www.w3.org/2000/svg">
<path d="M30.4727 10.2361L30.576 47.0462L37.5994 51.1849L37.4961 14.3755L30.4727 10.2361Z" fill="#FFB700"/>
<path d="M37.4961 14.3755L37.5994 51.1849L44.6685 47.0462L44.5659 10.2368L37.4961 14.3755Z" fill="#FCAA2D"/>
<path d="M30.4727 10.2361L37.4961 14.3755L44.5659 10.2368L37.5417 6.0975L30.4727 10.2361Z" fill="#FFDE38"/>
<path d="M20.457 24.4185L20.5597 53.0204L27.5831 57.1591L27.4805 28.5578L20.457 24.4185Z" fill="#B5B5CA"/>
<path d="M27.4805 28.5578L27.5831 57.1591L34.6529 53.0204L34.5502 24.4185L27.4805 28.5578Z" fill="#E0DDE1"/>
<path d="M20.457 24.4185L27.4805 28.5578L34.5502 24.4185L27.5261 20.2791L20.457 24.4185Z" fill="#F9F7FC"/>
<path d="M10.5273 39.6414L10.63 58.862L17.6534 63.0013L17.5508 43.7808L10.5273 39.6414Z" fill="#D22C2B"/>
<path d="M17.5508 43.7808L17.6534 63.0013L24.7232 58.862L24.6205 39.6422L17.5508 43.7808Z" fill="#F65150"/>
<path d="M10.5273 39.6414L17.5508 43.7808L24.6205 39.6421L17.5964 35.5028L10.5273 39.6414Z" fill="#FF8070"/>
<path d="M0 53.2578L0.102642 64.8668L7.12608 69.0054L7.02343 57.3971L0 53.2578Z" fill="#11499C"/>
<path d="M7.02344 57.3971L7.12608 69.0054L14.1958 64.8668L14.0932 53.2578L7.02344 57.3971Z" fill="#3857CC"/>
<path d="M0 53.2578L7.02344 57.3972L14.0932 53.2578L7.06976 49.1192L0 53.2578Z" fill="#3574E0"/>
<path d="M88.9336 29.766C88.9379 28.9171 89.3577 28.4188 89.8895 28.093V27.5834L90.3058 27.3424V27.8606C90.6394 27.691 90.9445 27.5826 91.1747 27.5228V28.17C90.8931 28.3097 90.263 28.6398 90.0855 28.7424C89.7876 28.9064 89.6158 29.0468 89.6158 29.4374V29.6491C89.6158 29.9642 89.7505 29.9898 90.0043 29.843L90.4612 29.5793C91.1704 29.1694 91.3059 29.7625 91.3059 30.2422V30.5309C91.3059 31.4896 90.8005 32.0014 90.3058 32.2773V32.7634L89.8895 33.0037V32.504C89.5153 32.6979 89.3114 32.7663 89.0455 32.8269V32.1875C89.2408 32.0884 89.7305 31.8446 90.1832 31.583C90.3885 31.464 90.6244 31.2736 90.6244 30.9543V30.7205C90.6244 30.4739 90.5602 30.352 90.3001 30.5024L89.8546 30.7597C89.0234 31.2394 88.9336 30.5052 88.9336 30.141V29.766Z" fill="#35353F"/>
<path d="M91.899 25.1505C91.3779 25.1505 90.7963 25.3272 90.1896 25.6772C88.0291 26.9247 86.2713 29.9684 86.272 32.4633C86.272 33.6409 86.6612 34.5141 87.369 34.9225C88.0761 35.3317 89.0277 35.2319 90.0478 34.6431C92.2076 33.3964 93.9654 30.3519 93.9654 27.8578C93.9654 26.6802 93.5756 25.8063 92.8684 25.3978C92.5812 25.2324 92.2547 25.1505 91.899 25.1505ZM88.337 35.4543C87.9328 35.4543 87.5586 35.3595 87.2272 35.1684C86.4281 34.7065 85.9883 33.7464 85.9883 32.4633C85.9876 29.8786 87.8088 26.7244 90.0478 25.432C91.1591 24.7905 92.2112 24.6914 93.0096 25.1526C93.8086 25.6138 94.2491 26.5747 94.2491 27.8578C94.2491 30.4424 92.4279 33.5967 90.1896 34.889C89.5388 35.2647 88.908 35.4543 88.337 35.4543Z" fill="#35353F"/>
<path d="M92.2975 23.9957C91.6546 23.9957 90.936 24.2131 90.189 24.6451C87.5352 26.1769 85.3767 29.9157 85.3767 32.9794C85.3767 34.4321 85.8593 35.5113 86.7361 36.0174C87.6129 36.5235 88.7883 36.4016 90.0471 35.6753C92.7003 34.1441 94.8587 30.4054 94.8587 27.341C94.8587 25.8882 94.3761 24.809 93.4993 24.3029C93.1436 24.0976 92.7381 23.9957 92.2975 23.9957ZM87.9372 36.6091C87.4475 36.6091 86.9948 36.4943 86.5942 36.2626C85.6262 35.7038 85.0938 34.5383 85.0938 32.9794C85.0938 29.8251 87.3156 25.9766 90.0471 24.3991C91.3972 23.62 92.6739 23.4988 93.6412 24.0577C94.6092 24.6166 95.1424 25.7827 95.1424 27.341C95.1424 30.4952 92.9198 34.3444 90.189 35.9212C89.3971 36.3781 88.6308 36.6091 87.9372 36.6091Z" fill="#35353F"/>
<mask id="mask0_1475_13047" style="mask-type:luminance" maskUnits="userSpaceOnUse" x="63" y="41" width="7" height="1">
<path d="M64.462 41.8619L63.5781 41.8313C65.301 40.8298 68.1309 40.8291 69.8652 41.8313L68.9899 41.8619C67.746 41.142 65.6973 41.142 64.462 41.8619Z" fill="white"/>
</mask>
<g mask="url(#mask0_1475_13047)">
<path d="M64.462 41.8619L63.5781 41.8313C65.301 40.8298 68.1309 40.8298 69.8652 41.8313L68.9899 41.8619C67.746 41.142 65.6973 41.142 64.462 41.8619Z" fill="#DADFF6"/>
</g>
<path d="M68.9922 41.8619L69.8675 41.8312L92.0092 54.6143L91.1338 54.6456L68.9922 41.8619Z" fill="#DADFF6"/>
<path d="M93.3158 56.4484L93.3094 58.5334C93.3079 59.1892 92.8795 59.8442 92.0234 60.3418L92.0291 58.2561C92.8852 57.7585 93.3136 57.1042 93.3158 56.4484Z" fill="#B4BCE2"/>
<mask id="mask1_1475_13047" style="mask-type:luminance" maskUnits="userSpaceOnUse" x="92" y="56" width="2" height="5">
<path d="M93.3197 56.4484L93.314 58.5334C93.3118 59.1899 92.8834 59.8442 92.0273 60.3418L92.0331 58.2561C92.8892 57.7585 93.3175 57.1042 93.3197 56.4484Z" fill="white"/>
</mask>
<g mask="url(#mask1_1475_13047)">
<path d="M93.3197 56.4484L93.3133 58.5334C93.3119 59.1892 92.8834 59.8442 92.0273 60.3418L92.0331 58.2561C92.8892 57.7585 93.3175 57.1042 93.3197 56.4484Z" fill="#B4BCE2"/>
</g>
<mask id="mask2_1475_13047" style="mask-type:luminance" maskUnits="userSpaceOnUse" x="91" y="54" width="3" height="5">
<path d="M91.1406 54.6455L92.016 54.6142C93.751 55.6157 93.7603 57.2545 92.0367 58.256L91.1556 57.2687C92.3945 56.5502 92.3874 55.3633 91.1406 54.6455Z" fill="white"/>
</mask>
<g mask="url(#mask2_1475_13047)">
<path d="M91.1406 54.6455L92.016 54.6142C92.8778 55.1117 93.314 55.7668 93.3233 56.4226L92.0801 55.9479C92.0737 55.4745 91.7601 55.0019 91.1406 54.6455Z" fill="#DADFF6"/>
<path d="M92.0808 55.9479L93.324 56.4226C93.3332 57.087 92.9048 57.752 92.0373 58.256L91.1562 57.2687C91.7793 56.9073 92.0872 56.4269 92.0808 55.9479Z" fill="#F4F5FA"/>
</g>
<path d="M14.7238 70.7697L13.8398 70.7383L63.5827 41.8312L64.4666 41.8619L14.7238 70.7697Z" fill="#DADFF6"/>
<mask id="mask3_1475_13047" style="mask-type:luminance" maskUnits="userSpaceOnUse" x="12" y="70" width="3" height="5">
<path d="M14.7402 73.3921L13.862 74.3801C12.127 73.3786 12.1178 71.7398 13.8414 70.7383L14.7253 70.7697C13.4864 71.4875 13.4928 72.6743 14.7402 73.3921Z" fill="white"/>
</mask>
<g mask="url(#mask3_1475_13047)">
<path d="M14.74 73.3921L13.8618 74.3801C12.7106 73.7151 12.3193 72.7699 12.6899 71.9159L13.8975 71.6172C13.6309 72.2324 13.9124 72.916 14.74 73.3921Z" fill="#F4F5FA"/>
<path d="M13.8989 71.6172L12.6914 71.9159C12.8796 71.4839 13.2631 71.0748 13.8426 70.7383L14.7265 70.7697C14.3102 71.0106 14.0344 71.305 13.8989 71.6172Z" fill="#DADFF6"/>
</g>
<path d="M12.5469 74.6317L12.5526 72.546C12.5511 73.2104 12.9867 73.8761 13.8599 74.3801L13.8542 76.4658C12.981 75.9619 12.5447 75.2961 12.5469 74.6317Z" fill="#CED4F1"/>
<mask id="mask4_1475_13047" style="mask-type:luminance" maskUnits="userSpaceOnUse" x="12" y="72" width="2" height="5">
<path d="M12.543 74.6317L12.5487 72.546C12.5472 73.2104 12.9828 73.8761 13.856 74.3801L13.8503 76.4658C12.9771 75.9619 12.5408 75.2961 12.543 74.6317Z" fill="white"/>
</mask>
<g mask="url(#mask4_1475_13047)">
<path d="M13.856 74.3801L13.8503 76.4658C12.9771 75.9619 12.5408 75.2961 12.543 74.6317L12.5487 72.546C12.5472 73.2104 12.9828 73.8761 13.856 74.3801Z" fill="#CED4F1"/>
</g>
<path d="M91.1491 57.2688L92.0302 58.2561L42.2873 87.1638L41.4062 86.1758L91.1491 57.2688Z" fill="#DADFF6"/>
<path d="M92.0298 58.2561L92.0241 60.3418L42.2812 89.2488L42.287 87.1638L92.0298 58.2561Z" fill="#B4BCE2"/>
<path d="M35.9989 87.1638L35.9932 89.2488L13.8516 76.4658L13.8573 74.3801L35.9989 87.1638Z" fill="#CED4F1"/>
<path d="M36.8792 86.1758L36.0011 87.1638L13.8594 74.3801L14.7376 73.3921L36.8792 86.1758Z" fill="#DADFF6"/>
<path d="M42.2889 87.1639L42.2832 89.2489C40.5596 90.2504 37.7304 90.2504 35.9961 89.2489L36.0018 87.1639C37.7361 88.1654 40.566 88.1654 42.2889 87.1639Z" fill="#BFC7ED"/>
<mask id="mask5_1475_13047" style="mask-type:luminance" maskUnits="userSpaceOnUse" x="35" y="87" width="8" height="3">
<path d="M42.2811 87.1639L42.2754 89.2489C40.5518 90.2504 37.7226 90.2504 35.9883 89.2489L35.994 87.1639C37.7283 88.1654 40.5582 88.1647 42.2811 87.1639Z" fill="white"/>
</mask>
<g mask="url(#mask5_1475_13047)">
<path d="M42.2811 87.1639L42.2754 89.2489C40.5518 90.2504 37.7226 90.2504 35.9883 89.2489L35.994 87.1639C37.7283 88.1654 40.5582 88.1654 42.2811 87.1639Z" fill="#BFC7ED"/>
</g>
<mask id="mask6_1475_13047" style="mask-type:luminance" maskUnits="userSpaceOnUse" x="36" y="86" width="7" height="2">
<path d="M41.4099 86.1759L42.291 87.1639C40.5681 88.1647 37.7382 88.1654 36.0039 87.1639L36.8821 86.1759C38.1253 86.8958 40.1746 86.8958 41.4099 86.1759Z" fill="white"/>
</mask>
<g mask="url(#mask6_1475_13047)">
<path d="M41.4113 86.1759L42.2924 87.1639C41.8405 87.4262 41.313 87.6201 40.7484 87.7448L40.3008 86.5936C40.7078 86.5038 41.0877 86.3648 41.4113 86.1759Z" fill="#F4F5FA"/>
<path d="M40.3007 86.5936L40.7483 87.7448C39.5052 88.02 38.0859 87.9608 36.9141 87.5681L37.5364 86.466C38.3796 86.749 39.4054 86.7911 40.3007 86.5936Z" fill="#F4F5FA"/>
<path d="M37.535 86.466L36.9128 87.5681C36.5877 87.459 36.2819 87.3243 36.0039 87.1639L36.8821 86.1759C37.081 86.2914 37.3012 86.3876 37.535 86.466Z" fill="#F4F5FA"/>
</g>
<path d="M91.1341 54.6456L68.9925 41.8619C67.7486 41.1419 65.6999 41.1419 64.4646 41.8619L63.4118 42.4735L14.7218 70.7696C13.4829 71.4875 13.4893 72.6743 14.7367 73.3921L36.8784 86.1759C38.1223 86.8958 40.1709 86.8958 41.4063 86.1759L90.0962 57.8804L91.1491 57.2688C92.388 56.5503 92.3808 55.3634 91.1341 54.6456Z" fill="#35353F"/>
<path d="M91.1497 57.2688C92.3886 56.5503 92.3814 55.3634 91.1347 54.6456L68.993 41.8619C67.7492 41.1419 65.7005 41.1419 64.4652 41.8619L64.4609 41.8647L91.1447 57.2709L91.1497 57.2688Z" fill="#F4F5FA"/>
<path d="M71.7006 59.2882L70.8531 58.7957L68.7695 54.5715L69.6178 55.0647L71.7006 59.2882Z" fill="#E93C3C"/>
<path d="M66.6288 45.5422L65.7812 45.0496L72.2565 48.5688L73.1048 49.0614L66.6288 45.5422Z" fill="#E93C3C"/>
<path d="M65.5553 54.5573L64.707 54.064L65.7791 45.0496L66.6267 45.5422L65.5553 54.5573Z" fill="#E93C3C"/>
<path d="M66.6261 45.5421L73.1021 49.0614L73.1284 58.4635L71.6992 59.2882L69.6163 55.0647L65.5547 54.5572L66.6261 45.5421Z" fill="#D22C2B"/>
<path d="M39.3789 59.2882L40.2272 58.7957L42.3107 54.5715L41.4625 55.0647L39.3789 59.2882Z" fill="#E93C3C"/>
<path d="M44.4518 45.5422L45.3001 45.0496L38.8248 48.5688L37.9766 49.0614L44.4518 45.5422Z" fill="#E93C3C"/>
<path d="M45.5252 54.5573L46.3735 54.064L45.3014 45.0496L44.4531 45.5422L45.5252 54.5573Z" fill="#E93C3C"/>
<path d="M44.4509 45.5421L37.9756 49.0614L37.9492 58.4635L39.3777 59.2882L41.4613 55.0647L45.5229 54.5572L44.4509 45.5421Z" fill="#D22C2B"/>
<path d="M62.3718 54.193L63.7212 59.3623C63.7177 60.5684 62.9243 61.7731 61.3404 62.6934C58.1527 64.546 52.9669 64.546 49.7577 62.6934C48.1432 61.761 47.3363 60.5378 47.3399 59.3153L48.7213 54.1538C48.7185 55.1717 49.3899 56.1917 50.7357 56.9687C53.4103 58.5134 57.7321 58.5134 60.3881 56.9694C61.7082 56.2017 62.369 55.198 62.3718 54.193Z" fill="#15151A"/>
<path d="M60.3583 51.3773C63.0328 52.922 63.047 55.4247 60.3896 56.9694C57.7337 58.5134 53.4118 58.5134 50.7373 56.9687C48.0635 55.4247 48.0492 52.922 50.7059 51.3781C53.3633 49.8341 57.6845 49.8334 60.3583 51.3773Z" fill="#1E1A6F"/>
<path d="M55.5394 0.000713348V0H55.5387V0.000713348C48.4041 4.20208 39.8089 19.388 40.31 30.9814C40.6486 38.8024 43.2055 47.9444 47.1467 54.8374C47.5515 55.6229 48.2915 56.3628 49.3657 56.983C52.7979 58.9646 58.3451 58.966 61.7545 56.9844C62.8879 56.3257 63.6399 55.5317 64.017 54.692H64.0191C67.9603 47.799 70.4296 38.8032 70.7682 30.9814C71.2693 19.388 62.6741 4.20208 55.5394 0.000713348Z" fill="#E7E6F1"/>
<path d="M44.4335 27.1535L43.1661 27.8898C42.583 28.2284 42.2216 28.9491 42.2188 29.9727C42.2124 32.0342 43.6622 34.5454 45.4564 35.5812L46.7238 34.8441C44.9296 33.8084 43.4798 31.2978 43.4862 29.2363C43.489 28.212 43.8504 27.4914 44.4335 27.1535Z" fill="#CED4F1"/>
<path d="M47.768 35.8072L49.0354 35.0709C48.4445 35.4144 47.6269 35.366 46.7244 34.8442L45.457 35.5812C46.3595 36.1023 47.1771 36.1508 47.768 35.8072Z" fill="#CED4F1"/>
<path d="M43.5994 25.7207L42.332 26.4571C43.1368 25.9895 44.2502 26.0558 45.4799 26.765L46.7472 26.0287C45.5176 25.3194 44.4035 25.2531 43.5994 25.7207Z" fill="#CED4F1"/>
<mask id="mask7_1475_13047" style="mask-type:luminance" maskUnits="userSpaceOnUse" x="42" y="25" width="5" height="2">
<path d="M43.5994 25.7209L42.332 26.4572C43.1368 25.9896 44.2502 26.0559 45.4799 26.7651L46.7472 26.0288C45.5176 25.3195 44.4035 25.2532 43.5994 25.7209Z" fill="white"/>
</mask>
<g mask="url(#mask7_1475_13047)">
<path d="M45.4799 26.7651L46.7472 26.0288C45.5176 25.3195 44.4035 25.2532 43.5994 25.7209L42.332 26.4572C43.1368 25.9896 44.2502 26.0559 45.4799 26.7651Z" fill="#CED4F1"/>
</g>
<path d="M48.5991 37.2393L49.8664 36.5029C50.6605 36.0417 51.1531 35.0602 51.1567 33.6659C51.1645 30.8588 49.1907 27.4394 46.7479 26.0287L45.4805 26.7651C47.9233 28.1757 49.8971 31.5951 49.8893 34.4022C49.8857 35.7965 49.3931 36.7781 48.5991 37.2393Z" fill="#CED4F1"/>
<mask id="mask8_1475_13047" style="mask-type:luminance" maskUnits="userSpaceOnUse" x="45" y="26" width="7" height="12">
<path d="M48.5991 37.2393L49.8664 36.5029C50.6605 36.0417 51.1531 35.0602 51.1567 33.6659C51.1645 30.8588 49.1907 27.4394 46.7479 26.0287L45.4805 26.7651C47.9233 28.1757 49.8971 31.5951 49.8893 34.4022C49.8857 35.7965 49.3931 36.7781 48.5991 37.2393Z" fill="white"/>
</mask>
<g mask="url(#mask8_1475_13047)">
<path d="M48.5977 37.2393L49.865 36.5029C50.2578 36.2748 50.5764 35.9198 50.7988 35.4501L49.5314 36.1864C49.309 36.6562 48.9904 37.0112 48.5977 37.2393Z" fill="#CED4F1"/>
<path d="M49.5334 36.1864L50.8008 35.4501C51.0282 34.9703 51.155 34.3709 51.1572 33.6659C51.1629 31.7348 50.2305 29.5144 48.8533 27.8578L47.5859 28.5941C48.9631 30.2514 49.8955 32.4719 49.8898 34.4022C49.8876 35.1072 49.7615 35.7067 49.5334 36.1864Z" fill="#CED4F1"/>
<path d="M47.5854 28.5941L48.8528 27.8578C48.227 27.105 47.5106 26.4692 46.7479 26.0287L45.4805 26.765C46.2432 27.2055 46.9603 27.8421 47.5854 28.5941Z" fill="#CED4F1"/>
</g>
<path d="M46.0931 35.2269C44.2989 34.1905 42.8498 31.6799 42.8555 29.6184C42.8612 27.5569 44.3203 26.7258 46.1145 27.7615C47.9087 28.7972 49.3578 31.3078 49.3521 33.3693C49.3464 35.4308 47.8873 36.2626 46.0931 35.2269Z" fill="#2E2E37"/>
<path d="M45.4561 35.5812C47.2502 36.617 48.7087 35.7851 48.7151 33.7236C48.7208 31.6622 47.2709 29.1516 45.4775 28.1159C43.6833 27.0801 42.2241 27.912 42.2184 29.9728C42.212 32.0343 43.6619 34.5455 45.4561 35.5812ZM49.8898 34.4022C49.882 37.2093 47.8946 38.342 45.4525 36.9313C43.0089 35.5207 41.0352 32.1013 41.043 29.2942C41.0508 26.4871 43.0382 25.3551 45.481 26.7651C47.9239 28.1757 49.8977 31.5951 49.8898 34.4022Z" fill="white"/>
<path d="M40.9332 67.5342L40.085 67.0409L40.0586 57.6395L40.9068 58.1321L40.9332 67.5342Z" fill="#D22C2B"/>
<path d="M40.9068 58.132L40.0586 57.6394L46.4925 46.6663L47.3408 47.1596L40.9068 58.132Z" fill="#F65150"/>
<path d="M47.3402 47.1596L48.4593 54.9094L44.414 60.0973L42.3626 66.7087L40.9326 67.5342L40.9062 58.1321L47.3402 47.1596Z" fill="#E93C3C"/>
<path d="M70.1484 67.5342L70.9967 67.0409L71.0231 57.6395L70.1748 58.1321L70.1484 67.5342Z" fill="#D22C2B"/>
<path d="M70.1768 58.132L71.0251 57.6394L64.5904 46.6663L63.7422 47.1596L70.1768 58.132Z" fill="#F65150"/>
<path d="M63.7402 47.1596L62.6211 54.9094L66.6664 60.0973L68.7186 66.7087L70.1485 67.5342L70.1749 58.1321L63.7402 47.1596Z" fill="#E93C3C"/>
<path d="M66.669 14.0255C66.4858 14.1453 66.2962 14.2615 66.0995 14.3762C60.3071 17.7415 50.8843 17.7393 45.0541 14.3734C44.8374 14.2486 44.6293 14.121 44.4297 13.9899C47.4677 7.66644 51.714 2.25398 55.5404 3.8147e-05C59.3747 2.25754 63.6303 7.68711 66.669 14.0255Z" fill="#E93C3C"/>
<path d="M34.4352 69.9777C34.436 71.8232 33.0324 73.2531 31.4321 74.1755C27.4475 76.4765 21.0043 76.4765 17.0445 74.1755C15.857 73.4848 15.0258 72.6657 14.5554 71.7947L14.5497 71.7868C14.3194 71.3606 14.1769 70.9222 14.1191 70.4802C14.0678 70.1402 14.0792 67.306 14.0792 67.3673C14.0856 68.865 15.0693 70.3605 17.0367 71.5053C20.9964 73.8062 27.4389 73.8062 31.4264 71.5053C33.428 70.3491 34.4288 67.3146 34.4288 67.3146L34.4352 69.9777Z" fill="#FFCC00"/>
<path d="M17.0817 63.1703C13.0956 65.472 13.0742 69.2029 17.0346 71.5046C20.9951 73.8063 27.4368 73.8063 31.4236 71.5046C35.4097 69.2029 35.4304 65.472 31.47 63.1703C27.5095 60.8686 21.0678 60.8686 17.0817 63.1703Z" fill="#FFE042"/>
<path d="M32.7575 67.7908C32.5771 68.9021 31.7481 69.9849 30.2761 70.8381C26.928 72.7699 21.5184 72.7699 18.1938 70.836C16.7418 69.9927 15.9284 68.9221 15.7495 67.8208C15.5157 66.3987 16.3447 64.9267 18.2316 63.8375C21.5797 61.9058 26.9893 61.9058 30.316 63.8375C32.1765 64.921 32.9898 66.3787 32.7575 67.7908Z" fill="#FCAA2D"/>
<path d="M32.7579 67.7908C32.5776 68.9021 31.7486 69.9849 30.2766 70.8381C26.9285 72.7699 21.5189 72.7699 18.1943 70.836C16.7423 69.9927 15.9289 68.9221 15.75 67.8208C15.9311 66.7102 16.7601 65.6267 18.2321 64.7756C21.5802 62.8417 26.9898 62.8417 30.3165 64.7756C31.7664 65.6189 32.5797 66.6902 32.7579 67.7908Z" fill="#FCAA2D"/>
<path d="M29.6529 64.8704L29.6508 65.559L28.5117 66.2205L28.5139 65.5319L29.6529 64.8704Z" fill="#FCAA2D"/>
<path d="M29.7727 66.7044L29.7713 67.393L28.1133 67.9597L28.1154 67.2711L29.7727 66.7044Z" fill="#FCAA2D"/>
<path d="M24.75 66.8071L24.7521 66.1185L24.7799 65.9973C24.8149 65.9203 24.8918 65.8484 25.0087 65.7806C25.1984 65.6709 25.4293 65.6259 25.7002 65.6473C25.9711 65.6687 26.2833 65.7806 26.6376 65.9852C26.9897 66.1884 27.2898 66.4043 27.5371 66.631C27.7831 66.8584 27.9777 67.0715 28.1174 67.2711L28.1152 67.9597C27.9755 67.7601 27.7809 67.547 27.5357 67.3196C27.2884 67.0922 26.9883 66.8769 26.6354 66.6738C26.2811 66.4692 25.9689 66.3573 25.6981 66.3359C25.4272 66.3145 25.1962 66.3587 25.0066 66.4692C24.8897 66.5369 24.8127 66.6096 24.7778 66.6859L24.75 66.8071Z" fill="#FCAA2D"/>
<mask id="mask9_1475_13047" style="mask-type:luminance" maskUnits="userSpaceOnUse" x="24" y="65" width="5" height="3">
<path d="M24.7461 66.8071L24.7482 66.1185L24.776 65.9973C24.811 65.9203 24.8879 65.8484 25.0048 65.7806C25.1945 65.6709 25.4254 65.6259 25.6963 65.6473C25.9672 65.6687 26.2794 65.7806 26.6336 65.9852C26.9858 66.1884 27.2859 66.4036 27.5332 66.631C27.7792 66.8584 27.9737 67.0715 28.1135 67.2711L28.1113 67.9597C27.9716 67.7601 27.777 67.547 27.5318 67.3196C27.2845 67.0922 26.9844 66.8769 26.6315 66.6738C26.2772 66.4692 25.965 66.3573 25.6942 66.3359C25.4233 66.3145 25.1923 66.3587 25.0027 66.4692C24.8858 66.5369 24.8088 66.6096 24.7739 66.6859L24.7461 66.8071Z" fill="white"/>
</mask>
<g mask="url(#mask9_1475_13047)">
<path d="M28.1135 67.2711L28.1113 67.9597C27.9716 67.7601 27.777 67.547 27.5318 67.3196C27.2845 67.0922 26.9844 66.8769 26.6315 66.6738C26.2772 66.4692 25.965 66.3573 25.6942 66.3359C25.4233 66.3145 25.1923 66.3587 25.0027 66.4692C24.8858 66.5369 24.8088 66.6096 24.7739 66.6859L24.7461 66.8071L24.7482 66.1185L24.776 65.9973C24.811 65.9203 24.8879 65.8484 25.0048 65.7806C25.1945 65.6709 25.4254 65.6259 25.6963 65.6473C25.9672 65.6687 26.2794 65.7806 26.6336 65.9852C26.9858 66.1884 27.2859 66.4043 27.5332 66.631C27.7792 66.8584 27.9737 67.0715 28.1135 67.2711Z" fill="#FCAA2D"/>
</g>
<path d="M23.7937 68.3411L23.7916 69.0297C23.7916 68.9684 23.778 68.9021 23.7524 68.8322C23.7074 68.7132 23.629 68.5763 23.5143 68.4223C23.3995 68.2662 23.2619 68.0916 23.0994 67.8956C22.944 67.7052 22.8036 67.5114 22.6781 67.316C22.552 67.1214 22.4714 66.9247 22.4386 66.7272L22.4258 66.5833L22.4279 65.8947L22.44 66.0387C22.4735 66.2368 22.5541 66.4336 22.6803 66.6275C22.8057 66.8228 22.9454 67.0167 23.1015 67.207C23.2641 67.403 23.4016 67.5777 23.5164 67.7338C23.6312 67.8877 23.7096 68.0246 23.7538 68.1436C23.7802 68.2135 23.7937 68.2798 23.7937 68.3411Z" fill="#FCAA2D"/>
<mask id="mask10_1475_13047" style="mask-type:luminance" maskUnits="userSpaceOnUse" x="22" y="65" width="2" height="5">
<path d="M23.8008 68.3411L23.7994 69.0297C23.7994 68.9684 23.7858 68.9021 23.7602 68.8322C23.7153 68.7132 23.6368 68.5763 23.5221 68.4216C23.4073 68.2662 23.2697 68.0916 23.1072 67.8956C22.9518 67.7052 22.8114 67.5114 22.6859 67.316C22.5598 67.1214 22.4792 66.9247 22.4464 66.7272L22.4336 66.5833L22.4357 65.8947L22.4478 66.0387C22.4813 66.2368 22.5619 66.4336 22.6881 66.6275C22.8135 66.8228 22.9532 67.0167 23.1093 67.207C23.2719 67.403 23.4095 67.5777 23.5242 67.7338C23.639 67.8877 23.7174 68.0246 23.7616 68.1436C23.788 68.2135 23.8015 68.2798 23.8008 68.3411Z" fill="white"/>
</mask>
<g mask="url(#mask10_1475_13047)">
<path d="M23.8015 68.3411L23.7994 69.0297C23.7994 68.9684 23.7858 68.9021 23.7602 68.8322C23.7153 68.7132 23.6368 68.5763 23.5221 68.4223C23.4073 68.2662 23.2697 68.0916 23.1072 67.8956C22.9518 67.7052 22.8114 67.5114 22.6859 67.316C22.5598 67.1214 22.4792 66.9247 22.4464 66.7272L22.4336 66.5833L22.4357 65.8947L22.4478 66.0387C22.4813 66.2368 22.5619 66.4336 22.6881 66.6275C22.8135 66.8228 22.9532 67.0167 23.1093 67.207C23.2719 67.403 23.4095 67.5777 23.5242 67.7338C23.639 67.8877 23.7174 68.0246 23.7616 68.1436C23.788 68.2135 23.8015 68.2798 23.8015 68.3411Z" fill="#FCAA2D"/>
</g>
<path d="M19.8688 68.9456L19.8666 69.6342C19.3748 69.2998 19.0219 68.9998 18.8059 68.7367C18.5928 68.473 18.4445 68.272 18.3633 68.1315L18.3654 67.4429C18.4467 67.5834 18.5949 67.7844 18.8081 68.0481C19.0234 68.3112 19.3769 68.6113 19.8688 68.9456Z" fill="#FCAA2D"/>
<mask id="mask11_1475_13047" style="mask-type:luminance" maskUnits="userSpaceOnUse" x="18" y="67" width="2" height="3">
<path d="M19.8688 68.9462L19.8666 69.634C19.3748 69.2997 19.0219 68.9996 18.8059 68.7366C18.5928 68.4729 18.4445 68.2718 18.3633 68.1314L18.3654 67.4428C18.4467 67.5832 18.5949 67.7843 18.8081 68.048C19.0234 68.311 19.3769 68.6111 19.8688 68.9462Z" fill="white"/>
</mask>
<g mask="url(#mask11_1475_13047)">
<path d="M19.8688 68.9455L19.8666 69.634C19.3748 69.2997 19.0219 68.9996 18.8059 68.7366C18.5928 68.4729 18.4445 68.2718 18.3633 68.1314L18.3654 67.4428C18.4467 67.5832 18.5949 67.7843 18.8081 68.048C19.0234 68.311 19.3769 68.6111 19.8688 68.9455Z" fill="#FCAA2D"/>
</g>
<path d="M26.07 68.5606L26.0678 69.2492C26.0678 69.4331 26.0144 69.612 25.9074 69.7859C25.7798 69.9912 25.556 70.1873 25.2345 70.374C25.0157 70.5009 24.7648 70.6085 24.4839 70.6955C24.2024 70.7825 23.8923 70.8345 23.5558 70.8509C23.2194 70.868 22.8615 70.8438 22.4838 70.7782C22.106 70.7119 21.7075 70.5921 21.2891 70.4175L21.2912 69.7296C21.7096 69.9036 22.1081 70.0233 22.4852 70.0896C22.863 70.1552 23.2215 70.1794 23.558 70.1623C23.8944 70.1459 24.2045 70.0939 24.4854 70.0069C24.7669 69.9199 25.0178 69.8123 25.2367 69.6854C25.5574 69.4987 25.7813 69.3026 25.9096 69.0973C26.0158 68.9234 26.0693 68.7445 26.07 68.5606Z" fill="#FCAA2D"/>
<mask id="mask12_1475_13047" style="mask-type:luminance" maskUnits="userSpaceOnUse" x="21" y="68" width="6" height="3">
<path d="M26.0739 68.5606L26.0717 69.2492C26.0717 69.4331 26.0183 69.612 25.9113 69.7859C25.783 69.9912 25.5599 70.1873 25.2384 70.374C25.0196 70.5009 24.7687 70.6085 24.4878 70.6955C24.2063 70.7825 23.8962 70.8345 23.5597 70.8509C23.2233 70.868 22.8655 70.8438 22.4877 70.7782C22.1099 70.7119 21.7114 70.5921 21.293 70.4175L21.2951 69.7296C21.7128 69.9036 22.112 70.0233 22.4891 70.0896C22.8669 70.1552 23.2254 70.1794 23.5619 70.1623C23.8983 70.1459 24.2084 70.0939 24.4893 70.0069C24.7708 69.9199 25.0217 69.8123 25.2399 69.6854C25.5614 69.4987 25.7852 69.3026 25.9135 69.0973C26.0197 68.9234 26.0732 68.7445 26.0739 68.5606Z" fill="white"/>
</mask>
<g mask="url(#mask12_1475_13047)">
<path d="M26.0739 68.5606L26.0717 69.2492C26.0717 69.4331 26.0183 69.612 25.9113 69.7859C25.7837 69.9912 25.5599 70.1873 25.2384 70.374C25.0196 70.5009 24.7687 70.6085 24.4878 70.6955C24.2063 70.7825 23.8962 70.8345 23.5597 70.8509C23.2233 70.868 22.8655 70.8438 22.4877 70.7782C22.1099 70.7119 21.7114 70.5921 21.293 70.4175L21.2951 69.7296C21.7135 69.9036 22.112 70.0233 22.4891 70.0896C22.8669 70.1552 23.2254 70.1794 23.5619 70.1623C23.8983 70.1459 24.2084 70.0939 24.4893 70.0069C24.7708 69.9199 25.0217 69.8123 25.2406 69.6854C25.5614 69.4987 25.7852 69.3026 25.9135 69.0973C26.0197 68.9234 26.0732 68.7445 26.0739 68.5606Z" fill="#FCAA2D"/>
</g>
<path d="M21.2925 69.7296L21.2904 70.4175L19.9531 71.1952L19.9553 70.5066L21.2925 69.7296Z" fill="#FCAA2D"/>
<path d="M29.6515 64.8703L28.5124 65.5318C28.8575 65.7749 29.1319 65.9966 29.3343 66.1983C29.5375 66.3993 29.6836 66.5683 29.772 66.7044L28.1147 67.2711C27.975 67.0715 27.7804 66.8584 27.5345 66.631C27.2871 66.4043 26.987 66.1883 26.6349 65.9852C26.2806 65.7806 25.9684 65.6687 25.6975 65.6473C25.4266 65.6259 25.1957 65.6708 25.0061 65.7806C24.8892 65.8483 24.8122 65.9203 24.7773 65.9973C24.7402 66.0736 24.7402 66.1612 24.7773 66.2582C24.8143 66.3566 24.8778 66.4663 24.9662 66.5896C25.0553 66.713 25.1686 66.8577 25.3097 67.0238C25.515 67.2775 25.6868 67.5256 25.823 67.7658C25.9598 68.006 26.0397 68.2355 26.0639 68.4572C26.0867 68.6775 26.0347 68.8913 25.9085 69.0973C25.7802 69.3026 25.5564 69.4987 25.2356 69.6854C25.0168 69.8123 24.7659 69.9199 24.4843 70.0069C24.2034 70.0939 23.8934 70.1459 23.5569 70.1623C23.2205 70.1794 22.8619 70.1552 22.4841 70.0896C22.107 70.0233 21.7086 69.9036 21.2901 69.7296L19.9529 70.5066L18.5629 69.704L19.8666 68.9455C19.3748 68.6112 19.0212 68.3111 18.8059 68.0481C18.5928 67.7843 18.4445 67.5833 18.3633 67.4429L20.0976 66.9845C20.2309 67.2062 20.4248 67.4479 20.6792 67.7145C20.9344 67.9796 21.2595 68.227 21.6565 68.4558C22.1049 68.7153 22.472 68.8571 22.7586 68.8821C23.0444 68.9085 23.2967 68.8564 23.5163 68.7288C23.6546 68.649 23.7408 68.5613 23.7729 68.4651C23.8057 68.3696 23.7986 68.2626 23.7536 68.1436C23.7095 68.0246 23.631 67.8877 23.5163 67.7337C23.4015 67.5776 23.2639 67.403 23.1014 67.207C22.9453 67.0166 22.8056 66.8227 22.6801 66.6274C22.554 66.4335 22.4734 66.2368 22.4399 66.0386C22.4057 65.8412 22.4435 65.6459 22.5518 65.4498C22.6602 65.2545 22.8719 65.0649 23.1862 64.8824C23.4272 64.7427 23.6945 64.6287 23.9875 64.5396C24.279 64.4497 24.5919 64.3942 24.9205 64.3735C25.2506 64.3528 25.597 64.3728 25.9605 64.4334C26.3234 64.4954 26.6955 64.6023 27.0782 64.7548L28.2608 64.0677L29.6515 64.8703Z" fill="#FFE042"/>
<path d="M19.9546 70.5066L19.9525 71.1952L18.5625 70.3926L18.5646 69.704L19.9546 70.5066Z" fill="#FCAA2D"/>
<path d="M33.7712 66.0158C33.7719 67.8606 32.3676 69.2912 30.7681 70.2129C26.7827 72.5139 20.3402 72.5139 16.3805 70.2129C15.1922 69.5222 14.3611 68.7032 13.8913 67.8328L13.8849 67.825C13.6554 67.398 13.5121 66.9596 13.4551 66.5176C13.4037 66.1776 13.4151 63.3435 13.4151 63.4048C13.4208 64.9024 14.4052 66.3986 16.3726 67.5427C20.3324 69.8444 26.7749 69.8444 30.7624 67.5427C32.7633 66.3865 33.7648 63.352 33.7648 63.352L33.7712 66.0158Z" fill="#FFCC00"/>
<path d="M16.4176 59.2077C12.4315 61.5094 12.4101 65.241 16.3705 67.542C20.331 69.8437 26.7728 69.8437 30.7589 67.542C34.7457 65.241 34.7663 61.5094 30.8059 59.2077C26.8455 56.9067 20.4037 56.9067 16.4176 59.2077Z" fill="#FFE042"/>
<path d="M32.0934 63.829C31.913 64.9395 31.0833 66.0223 29.6121 66.8756C26.2632 68.8073 20.8543 68.8073 17.5297 66.8734C16.0777 66.0301 15.2637 64.9595 15.0855 63.8582C14.8517 62.4361 15.6807 60.9641 17.5668 59.8749C20.9156 57.9432 26.3252 57.9432 29.6513 59.8749C31.5124 60.9584 32.3251 62.4161 32.0934 63.829Z" fill="#FCAA2D"/>
<path d="M32.0939 63.829C31.9135 64.9395 31.0838 66.0223 29.6125 66.8756C26.2637 68.8073 20.8548 68.8073 17.5302 66.8734C16.0782 66.0301 15.2641 64.9595 15.0859 63.8582C15.2663 62.7476 16.096 61.6641 17.5673 60.8137C20.9161 58.8798 26.3257 58.8798 29.6517 60.8137C31.1016 61.6563 31.915 62.7276 32.0939 63.829Z" fill="#FCAA2D"/>
<path d="M28.9882 60.9078L28.9867 61.5963L27.8477 62.2585L27.8491 61.57L28.9882 60.9078Z" fill="#FCAA2D"/>
<path d="M29.1087 62.7418L29.1072 63.4304L27.4492 63.9971L27.4514 63.3092L29.1087 62.7418Z" fill="#FCAA2D"/>
<path d="M24.0859 62.8445L24.0874 62.1559L24.1152 62.0347C24.1501 61.9585 24.2271 61.8865 24.344 61.818C24.5336 61.7083 24.7645 61.6633 25.0361 61.6847C25.307 61.7061 25.6192 61.818 25.9728 62.0226C26.3256 62.2258 26.6257 62.4417 26.8731 62.6691C27.1183 62.8958 27.3129 63.1089 27.4533 63.3092L27.4512 63.9971C27.3115 63.7975 27.1169 63.5844 26.8709 63.357C26.6236 63.1296 26.3235 62.9144 25.9706 62.7112C25.6171 62.5066 25.3049 62.3947 25.034 62.3733C24.7631 62.3526 24.5322 62.3961 24.3426 62.5066C24.2257 62.5743 24.1487 62.647 24.1137 62.7233L24.0859 62.8445Z" fill="#FCAA2D"/>
<mask id="mask13_1475_13047" style="mask-type:luminance" maskUnits="userSpaceOnUse" x="24" y="61" width="4" height="3">
<path d="M24.082 62.8445L24.0835 62.156L24.1113 62.0348C24.1462 61.9585 24.2232 61.8865 24.3401 61.8181C24.5297 61.7083 24.7606 61.6641 25.0322 61.6848C25.3031 61.7062 25.6153 61.8181 25.9689 62.0227C26.3217 62.2258 26.6218 62.4418 26.8692 62.6685C27.1144 62.8959 27.309 63.109 27.4487 63.3093L27.4473 63.9972C27.3075 63.7976 27.113 63.5845 26.867 63.3571C26.6197 63.1297 26.3196 62.9144 25.9667 62.7113C25.6132 62.5067 25.301 62.3948 25.0301 62.3734C24.7592 62.3527 24.5283 62.3962 24.3387 62.5067C24.2218 62.5744 24.1448 62.6471 24.1091 62.7234L24.082 62.8445Z" fill="white"/>
</mask>
<g mask="url(#mask13_1475_13047)">
<path d="M27.4494 63.3093L27.4473 63.9972C27.3075 63.7976 27.113 63.5845 26.867 63.3571C26.6197 63.1297 26.3196 62.9144 25.9667 62.7113C25.6132 62.5067 25.301 62.3948 25.0301 62.3734C24.7592 62.3527 24.5283 62.3962 24.3387 62.5067C24.2218 62.5744 24.1448 62.6471 24.1098 62.7234L24.082 62.8445L24.0835 62.156L24.1113 62.0348C24.1462 61.9585 24.2232 61.8865 24.3401 61.8181C24.5297 61.7083 24.7606 61.6634 25.0322 61.6848C25.3031 61.7062 25.6153 61.8181 25.9689 62.0227C26.3217 62.2258 26.6218 62.4418 26.8692 62.6692C27.1144 62.8959 27.309 63.109 27.4494 63.3093Z" fill="#FCAA2D"/>
</g>
<path d="M23.1289 64.3785L23.1275 65.0671C23.1275 65.0058 23.1139 64.9402 23.0876 64.8696C23.0427 64.7513 22.965 64.6137 22.8502 64.4598C22.7354 64.3036 22.5979 64.129 22.4353 63.933C22.2792 63.7426 22.1395 63.5488 22.0141 63.3535C21.8879 63.1596 21.8074 62.9628 21.7738 62.7647L21.7617 62.6207L21.7639 61.9321L21.776 62.0761C21.8095 62.2742 21.89 62.471 22.0155 62.6649C22.1417 62.8609 22.2814 63.0541 22.4375 63.2444C22.5993 63.4404 22.7369 63.615 22.8516 63.7712C22.9671 63.9251 23.0448 64.0627 23.0897 64.181C23.1161 64.2509 23.1296 64.3172 23.1289 64.3785Z" fill="#FCAA2D"/>
<mask id="mask14_1475_13047" style="mask-type:luminance" maskUnits="userSpaceOnUse" x="21" y="61" width="3" height="5">
<path d="M23.1367 64.3785L23.1353 65.0671C23.1353 65.0058 23.1218 64.9403 23.0954 64.8697C23.0505 64.7514 22.9728 64.6138 22.858 64.4598C22.7432 64.3037 22.6057 64.1291 22.4432 63.9337C22.2871 63.7427 22.1473 63.5495 22.0219 63.3535C21.8957 63.1596 21.8152 62.9629 21.7817 62.7647L21.7695 62.6207L21.7717 61.9322L21.7838 62.0761C21.8173 62.2743 21.8978 62.471 22.0233 62.6649C22.1495 62.8609 22.2892 63.0541 22.4453 63.2452C22.6071 63.4405 22.7454 63.6151 22.8602 63.7712C22.9749 63.9252 23.0526 64.0628 23.0975 64.1811C23.1239 64.2509 23.1367 64.3172 23.1367 64.3785Z" fill="white"/>
</mask>
<g mask="url(#mask14_1475_13047)">
<path d="M23.1367 64.3785L23.1353 65.0671C23.1353 65.0058 23.1218 64.9403 23.0954 64.8697C23.0505 64.7514 22.9728 64.6138 22.858 64.4598C22.7432 64.3037 22.6057 64.1291 22.4432 63.933C22.2871 63.7427 22.1473 63.5488 22.0219 63.3535C21.8957 63.1596 21.8152 62.9629 21.7817 62.7647L21.7695 62.6207L21.7717 61.9322L21.7838 62.0761C21.8173 62.2743 21.8978 62.471 22.0233 62.6649C22.1495 62.8609 22.2892 63.0541 22.4453 63.2444C22.6071 63.4405 22.7447 63.6151 22.8594 63.7712C22.9749 63.9252 23.0526 64.0628 23.0975 64.1811C23.1239 64.2509 23.1374 64.3172 23.1367 64.3785Z" fill="#FCAA2D"/>
</g>
<path d="M19.2054 64.9837L19.2033 65.6723C18.7114 65.3373 18.3579 65.0372 18.1426 64.7741C17.9295 64.5104 17.7812 64.3094 17.6992 64.1697L17.7013 63.4811C17.7826 63.6208 17.9316 63.8218 18.1447 64.0856C18.36 64.3486 18.7128 64.6487 19.2054 64.9837Z" fill="#FCAA2D"/>
<mask id="mask15_1475_13047" style="mask-type:luminance" maskUnits="userSpaceOnUse" x="17" y="63" width="3" height="3">
<path d="M19.2015 64.9836L19.1994 65.6722C18.7075 65.3372 18.354 65.0371 18.1387 64.7741C17.9256 64.5103 17.7773 64.3093 17.6953 64.1696L17.6974 63.481C17.7787 63.6207 17.9277 63.8218 18.1408 64.0855C18.3561 64.3485 18.7089 64.6486 19.2015 64.9836Z" fill="white"/>
</mask>
<g mask="url(#mask15_1475_13047)">
<path d="M19.2015 64.9836L19.1994 65.6722C18.7075 65.3372 18.354 65.0371 18.1387 64.7741C17.9256 64.5103 17.7773 64.3093 17.6953 64.1696L17.6974 63.481C17.7787 63.6207 17.9277 63.8218 18.1408 64.0855C18.3561 64.3485 18.7089 64.6486 19.2015 64.9836Z" fill="#FCAA2D"/>
</g>
<path d="M25.4059 64.598L25.4038 65.2866C25.403 65.4705 25.3496 65.6494 25.2434 65.8234C25.1151 66.0287 24.892 66.2247 24.5705 66.4114C24.3516 66.539 24.1007 66.646 23.8192 66.7329C23.5383 66.8199 23.2275 66.8719 22.8918 66.889C22.5553 66.9054 22.1968 66.8812 21.819 66.8156C21.4412 66.7493 21.0434 66.6296 20.625 66.4549L20.6271 65.767C21.0449 65.941 21.4433 66.0607 21.8211 66.127C22.1989 66.1926 22.5575 66.2168 22.8932 66.2004C23.2297 66.1833 23.5404 66.1313 23.8213 66.0443C24.1029 65.9574 24.3538 65.8505 24.5719 65.7229C24.8934 65.5361 25.1172 65.3401 25.2448 65.1348C25.3517 64.9609 25.4052 64.7819 25.4059 64.598Z" fill="#FCAA2D"/>
<mask id="mask16_1475_13047" style="mask-type:luminance" maskUnits="userSpaceOnUse" x="20" y="64" width="6" height="3">
<path d="M25.4098 64.5981L25.4077 65.2867C25.407 65.4706 25.3535 65.6496 25.2473 65.8235C25.119 66.0288 24.8952 66.2248 24.5744 66.4116C24.3555 66.5392 24.1046 66.6461 23.8231 66.733C23.5422 66.82 23.2314 66.872 22.895 66.8891C22.5585 66.9055 22.2007 66.8813 21.8229 66.8157C21.4458 66.7494 21.0473 66.6297 20.6289 66.455L20.631 65.7672C21.0488 65.9411 21.4472 66.0609 21.825 66.1271C22.2028 66.1927 22.5614 66.217 22.8971 66.2006C23.2336 66.1835 23.5444 66.1314 23.8252 66.0445C24.1068 65.9575 24.3577 65.8506 24.5758 65.723C24.8973 65.5362 25.1211 65.3402 25.2487 65.1349C25.3556 64.961 25.4091 64.7821 25.4098 64.5981Z" fill="white"/>
</mask>
<g mask="url(#mask16_1475_13047)">
<path d="M25.4098 64.5981L25.4077 65.2867C25.407 65.4706 25.3535 65.6496 25.2473 65.8235C25.119 66.0288 24.8959 66.2248 24.5744 66.4116C24.3555 66.5392 24.1046 66.6461 23.8231 66.733C23.5422 66.82 23.2314 66.872 22.8957 66.8891C22.5592 66.9055 22.2007 66.8813 21.8229 66.8157C21.4451 66.7494 21.0473 66.6297 20.6289 66.455L20.631 65.7672C21.0488 65.9411 21.4472 66.0609 21.825 66.1271C22.2028 66.1927 22.5614 66.217 22.8971 66.2006C23.2336 66.1835 23.5444 66.1314 23.8252 66.0445C24.1068 65.9575 24.3577 65.8506 24.5758 65.723C24.8973 65.5362 25.1211 65.3402 25.2487 65.1349C25.3556 64.961 25.4091 64.7821 25.4098 64.5981Z" fill="#FCAA2D"/>
</g>
<path d="M20.6285 65.7671L20.6263 66.455L19.2891 67.2327L19.2912 66.5441L20.6285 65.7671Z" fill="#FCAA2D"/>
<path d="M28.9875 60.9077L27.8484 61.5699C28.1941 61.8123 28.4685 62.034 28.6703 62.2357C28.8741 62.4367 29.0203 62.6057 29.1086 62.7418L27.4513 63.3092C27.3109 63.1089 27.1163 62.8958 26.8711 62.6691C26.6238 62.4417 26.3237 62.2257 25.9708 62.0226C25.6172 61.818 25.305 61.7061 25.0342 61.6847C24.7626 61.6633 24.5316 61.7082 24.342 61.818C24.2251 61.8864 24.1481 61.9584 24.1132 62.0347C24.0761 62.1117 24.0769 62.1986 24.1139 62.2956C24.151 62.394 24.2137 62.5037 24.3028 62.6271C24.3919 62.7504 24.5053 62.8951 24.6464 63.0612C24.8517 63.3149 25.0228 63.563 25.1596 63.8032C25.2965 64.0434 25.3763 64.2737 25.3998 64.4946C25.4226 64.7149 25.3713 64.9288 25.2444 65.1348C25.1168 65.34 24.893 65.5361 24.5715 65.7228C24.3534 65.8504 24.1025 65.9574 23.8209 66.0443C23.5401 66.1313 23.2293 66.1833 22.8928 66.2004C22.5571 66.2168 22.1986 66.1926 21.8208 66.127C21.443 66.0607 21.0445 65.9409 20.6268 65.767L19.2895 66.544L17.8988 65.7414L19.2033 64.9836C18.7107 64.6486 18.3579 64.3485 18.1426 64.0855C17.9295 63.8217 17.7805 63.6207 17.6992 63.481L19.4342 63.0227C19.5675 63.2436 19.7614 63.486 20.0152 63.7519C20.2704 64.017 20.5954 64.2644 20.9925 64.4932C21.4415 64.7527 21.8086 64.8952 22.0945 64.9202C22.381 64.9459 22.6327 64.8945 22.8529 64.7669C22.9912 64.6864 23.0775 64.5987 23.1095 64.5025C23.1423 64.4077 23.1352 64.3 23.0903 64.181C23.0454 64.0627 22.9677 63.9251 22.8522 63.7711C22.7374 63.615 22.5999 63.4404 22.4381 63.2444C22.282 63.054 22.1422 62.8608 22.0161 62.6648C21.8906 62.4709 21.8101 62.2742 21.7766 62.076C21.7424 61.8786 21.7794 61.6833 21.8885 61.4873C21.9968 61.2919 22.2085 61.103 22.5229 60.9205C22.7638 60.7801 23.0304 60.6661 23.3234 60.577C23.6157 60.4872 23.9279 60.4323 24.2572 60.4109C24.5872 60.3902 24.9329 60.4102 25.2972 60.4715C25.6593 60.5328 26.0321 60.6397 26.4149 60.7923L27.5975 60.1051L28.9875 60.9077Z" fill="#FFE042"/>
<path d="M19.2906 66.5441L19.2884 67.2327L17.8984 66.43L17.8999 65.7414L19.2906 66.5441Z" fill="#FCAA2D"/>
<path d="M35.9473 62.729C35.948 64.5738 34.5438 66.0044 32.9442 66.9261C28.9588 69.2271 22.5163 69.2271 18.5566 66.9261C17.3683 66.2361 16.5372 65.4164 16.0667 64.546L16.061 64.5382C15.8308 64.1112 15.6882 63.6728 15.6305 63.2309C15.5799 62.8908 15.5905 60.0567 15.5913 60.1187C15.597 61.6163 16.5807 63.1118 18.5488 64.2566C22.5078 66.5576 28.951 66.5576 32.9378 64.2566C34.9394 63.0997 35.9402 60.0652 35.9402 60.0652L35.9473 62.729Z" fill="#FFCC00"/>
<path d="M35.943 60.1187C35.9274 60.9805 35.5952 61.843 34.9301 62.6328C34.4418 63.2194 33.7768 63.7705 32.9349 64.2538C28.951 66.5547 22.5092 66.5547 18.5509 64.2538C17.7141 63.7655 17.0547 63.2194 16.5714 62.6328C15.922 61.838 15.5948 60.9805 15.5898 60.1187C15.5898 59.3595 15.8336 58.6068 16.3326 57.8947C16.8316 57.1726 17.5893 56.5025 18.5972 55.9209C22.5819 53.6192 29.0237 53.6192 32.982 55.9209C33.9849 56.5025 34.7327 57.1783 35.2267 57.8947C35.7149 58.6068 35.9537 59.3652 35.943 60.1187Z" fill="#FFE042"/>
<path d="M34.2692 60.5421C34.0881 61.6527 33.2591 62.7362 31.7871 63.5887C28.439 65.5212 23.0294 65.5212 19.7048 63.5866C18.2528 62.744 17.4394 61.6726 17.2612 60.5713C17.0274 59.1492 17.8564 57.6773 19.7426 56.5888C23.0907 54.6563 28.5003 54.6563 31.827 56.5888C33.6875 57.6716 34.5008 59.1293 34.2692 60.5421Z" fill="#FCAA2D"/>
<path d="M34.2697 60.5421C34.0886 61.6527 33.2596 62.7362 31.7876 63.5887C28.4395 65.5212 23.0299 65.5212 19.7053 63.5866C18.2533 62.744 17.4399 61.6726 17.2617 60.5713C17.4421 59.4607 18.2711 58.378 19.7431 57.5269C23.0912 55.593 28.5008 55.593 31.8275 57.5269C33.2774 58.3694 34.0907 59.4408 34.2697 60.5421Z" fill="#FFCC00"/>
<path d="M21.8916 58.6274L21.8901 59.2583L20.6562 58.5462L20.6577 57.9146L21.8916 58.6274Z" fill="#FCAA2D"/>
<path d="M23.2266 60.1116L23.2287 59.4807L23.238 59.4094C23.2786 59.2576 23.5017 59.0623 23.9095 58.8249C24.2723 58.6146 24.6622 58.4429 25.0813 58.3081C25.5005 58.1741 25.8847 58.0715 26.2347 58.0023L26.2333 58.6332C25.8825 58.703 25.4983 58.8057 25.0799 58.939C24.6608 59.0737 24.2701 59.2455 23.908 59.4565C23.5003 59.6931 23.2765 59.8885 23.2358 60.0403L23.2266 60.1116Z" fill="#FCAA2D"/>
<mask id="mask17_1475_13047" style="mask-type:luminance" maskUnits="userSpaceOnUse" x="23" y="58" width="4" height="3">
<path d="M23.2266 60.1116L23.2287 59.4807L23.238 59.4094C23.2786 59.2576 23.5017 59.0623 23.9095 58.8249C24.2723 58.6146 24.6622 58.4429 25.0813 58.3081C25.5005 58.1741 25.8847 58.0715 26.2347 58.0023L26.2333 58.6332C25.8825 58.703 25.4983 58.8057 25.0799 58.939C24.6608 59.0737 24.2701 59.2455 23.908 59.4565C23.5003 59.6931 23.2765 59.8885 23.2358 60.0403L23.2266 60.1116Z" fill="white"/>
</mask>
<g mask="url(#mask17_1475_13047)">
<path d="M26.2347 58.0023L26.2333 58.6332C25.8825 58.703 25.4983 58.8057 25.0799 58.939C24.6608 59.0737 24.2701 59.2455 23.908 59.4565C23.5003 59.6931 23.2765 59.8885 23.2358 60.0403L23.2266 60.1116L23.2287 59.4807L23.238 59.4094C23.2786 59.2576 23.5017 59.0623 23.9095 58.8249C24.2723 58.6146 24.6622 58.4429 25.0813 58.3081C25.5005 58.1741 25.8847 58.0715 26.2347 58.0023Z" fill="#FCAA2D"/>
</g>
<path d="M28.3748 60.9135L28.3727 61.5451C28.3734 61.4289 28.2993 61.3284 28.151 61.2428C28.0434 61.1808 27.9286 61.1395 27.8088 61.1202C27.6869 61.1003 27.5494 61.1003 27.3947 61.1202C27.2407 61.1395 27.0661 61.173 26.8708 61.22C26.6769 61.2657 26.4488 61.3262 26.1865 61.4004C25.7837 61.5094 25.3917 61.5992 25.0132 61.6705C24.6339 61.7432 24.2682 61.7846 23.9197 61.796C23.5697 61.8081 23.2325 61.7796 22.9068 61.7126C22.5803 61.6442 22.2681 61.5244 21.9715 61.3533C21.7698 61.2371 21.5994 61.1031 21.4619 60.9534C21.3229 60.8037 21.2395 60.6391 21.2117 60.4609L21.2031 60.344L21.2053 59.7131L21.2138 59.8293C21.2409 60.0082 21.325 60.1722 21.464 60.3219C21.6016 60.4723 21.772 60.6056 21.9737 60.7225C22.2702 60.8936 22.5824 61.0133 22.9089 61.081C23.2347 61.1487 23.5718 61.1773 23.9211 61.1652C24.2704 61.1537 24.6354 61.1124 25.0146 61.0397C25.3938 60.9684 25.7851 60.8779 26.1879 60.7688C26.4509 60.6954 26.679 60.6348 26.8729 60.5885C27.0675 60.5414 27.2429 60.5086 27.3961 60.4894C27.5508 60.4694 27.6891 60.4694 27.8103 60.4894C27.9307 60.5086 28.0455 60.5493 28.1531 60.612C28.3007 60.6975 28.3748 60.798 28.3748 60.9135Z" fill="#FCAA2D"/>
<mask id="mask18_1475_13047" style="mask-type:luminance" maskUnits="userSpaceOnUse" x="21" y="59" width="8" height="3">
<path d="M28.3748 60.9134L28.3727 61.545C28.3734 61.4288 28.2993 61.3283 28.151 61.2434C28.0434 61.1807 27.9293 61.1394 27.8088 61.1201C27.6877 61.1002 27.5494 61.1002 27.3947 61.1201C27.2407 61.1394 27.0661 61.1729 26.8708 61.2199C26.6769 61.2655 26.4488 61.3261 26.1865 61.4002C25.7837 61.5086 25.3917 61.5991 25.0132 61.6704C24.6339 61.7431 24.2682 61.7845 23.9197 61.7959C23.5697 61.808 23.2325 61.7795 22.9068 61.7125C22.5803 61.644 22.2681 61.5243 21.9715 61.3532C21.7698 61.237 21.5994 61.103 21.4619 60.9533C21.3229 60.8036 21.2395 60.639 21.2117 60.4608L21.2031 60.3439L21.2053 59.713L21.2138 59.8292C21.2409 60.0081 21.325 60.1721 21.464 60.3218C21.6016 60.4722 21.772 60.6054 21.9737 60.7224C22.2702 60.8934 22.5824 61.0132 22.9089 61.0809C23.2347 61.1486 23.5711 61.1771 23.9211 61.165C24.2704 61.1536 24.6354 61.1116 25.0146 61.0396C25.3938 60.9683 25.7851 60.8778 26.1879 60.7687C26.4509 60.6953 26.679 60.6347 26.8729 60.5883C27.0675 60.5413 27.2429 60.5085 27.3961 60.4893C27.5508 60.4693 27.6891 60.4693 27.8103 60.4893C27.9307 60.5085 28.0455 60.5492 28.1531 60.6119C28.3007 60.6974 28.3748 60.7979 28.3748 60.9134Z" fill="white"/>
</mask>
<g mask="url(#mask18_1475_13047)">
<path d="M28.3748 60.9134L28.3727 61.545C28.3734 61.4288 28.2993 61.3283 28.151 61.2427C28.0434 61.1807 27.9286 61.1394 27.8088 61.1201C27.6869 61.1002 27.5494 61.1002 27.3947 61.1201C27.2407 61.1394 27.0661 61.1729 26.8708 61.2199C26.6769 61.2655 26.4488 61.3261 26.1865 61.4002C25.7837 61.5093 25.3917 61.5991 25.0132 61.6704C24.6339 61.7431 24.2682 61.7845 23.9197 61.7959C23.5697 61.808 23.2325 61.7795 22.9068 61.7125C22.5803 61.644 22.2681 61.5243 21.9715 61.3532C21.7698 61.237 21.5994 61.103 21.4619 60.9533C21.3229 60.8036 21.2395 60.639 21.2117 60.4608L21.2031 60.3439L21.2053 59.713L21.2138 59.8292C21.2409 60.0081 21.325 60.1721 21.464 60.3218C21.6016 60.4722 21.772 60.6054 21.9737 60.7224C22.2702 60.8934 22.5824 61.0132 22.9089 61.0809C23.2347 61.1486 23.5718 61.1771 23.9211 61.165C24.2704 61.1536 24.6354 61.1123 25.0146 61.0396C25.3938 60.9683 25.7851 60.8778 26.1879 60.7687C26.4509 60.6953 26.679 60.6347 26.8729 60.5883C27.0675 60.5413 27.2429 60.5085 27.3961 60.4893C27.5508 60.4693 27.6891 60.4693 27.8103 60.4893C27.9307 60.5085 28.0455 60.5492 28.1531 60.6119C28.3007 60.6974 28.3748 60.7979 28.3748 60.9134Z" fill="#FCAA2D"/>
</g>
<path d="M30.395 60.7146L30.3936 61.3454C30.3928 61.4773 30.3572 61.6128 30.2866 61.7539C30.1897 61.9464 30.0215 62.1438 29.7812 62.3463L29.7834 61.7154C30.0236 61.513 30.1918 61.3155 30.2888 61.1231C30.3586 60.9812 30.3943 60.8458 30.395 60.7146Z" fill="#FCAA2D"/>
<mask id="mask19_1475_13047" style="mask-type:luminance" maskUnits="userSpaceOnUse" x="29" y="60" width="2" height="3">
<path d="M30.395 60.7147L30.3936 61.3455C30.3928 61.4774 30.3572 61.6128 30.2866 61.754C30.1897 61.9464 30.0215 62.1439 29.7812 62.3463L29.7834 61.7155C30.0236 61.513 30.1918 61.3156 30.2888 61.1231C30.3586 60.9813 30.3943 60.8458 30.395 60.7147Z" fill="white"/>
</mask>
<g mask="url(#mask19_1475_13047)">
<path d="M30.395 60.7147L30.3936 61.3455C30.3928 61.4774 30.3572 61.6128 30.2866 61.754C30.1897 61.9464 30.0215 62.1439 29.7812 62.3463L29.7834 61.7155C30.0236 61.513 30.1918 61.3156 30.2888 61.1231C30.3586 60.9813 30.3943 60.8458 30.395 60.7147Z" fill="#FCAA2D"/>
</g>
<path d="M29.6075 63.0812L29.6054 63.7128L28.5547 63.1062L28.5561 62.4746L29.6075 63.0812Z" fill="#FCAA2D"/>
<path d="M30.8736 62.3456L30.8714 62.9771L29.6055 63.7128L29.6076 63.0812L30.8736 62.3456Z" fill="#FCAA2D"/>
<path d="M28.5589 62.4746L28.5575 63.1061C28.1747 63.2879 27.8247 63.4326 27.5061 63.5402C27.1875 63.6471 26.9216 63.7241 26.707 63.7712L26.7092 63.1396C26.9237 63.0926 27.1896 63.0163 27.5082 62.9087C27.8269 62.8018 28.1769 62.657 28.5589 62.4746Z" fill="#FCAA2D"/>
<mask id="mask20_1475_13047" style="mask-type:luminance" maskUnits="userSpaceOnUse" x="26" y="62" width="3" height="2">
<path d="M28.5511 62.4746L28.5497 63.1061C28.1669 63.2879 27.8169 63.4326 27.4983 63.5402C27.1797 63.6471 26.9138 63.7241 26.6992 63.7712L26.7014 63.1396C26.9159 63.0926 27.1818 63.0163 27.5004 62.9087C27.8191 62.8018 28.1691 62.657 28.5511 62.4746Z" fill="white"/>
</mask>
<g mask="url(#mask20_1475_13047)">
<path d="M28.5511 62.4746L28.5497 63.1061C28.1669 63.2879 27.8169 63.4326 27.4983 63.5402C27.1797 63.6471 26.9138 63.7241 26.6992 63.7712L26.7014 63.1396C26.9159 63.0926 27.1818 63.0163 27.5004 62.9087C27.8191 62.8018 28.1691 62.657 28.5511 62.4746Z" fill="#FCAA2D"/>
</g>
<path d="M25.5038 57.0792L26.2359 58.0023C25.8859 58.0714 25.5016 58.1741 25.0825 58.3081C24.6634 58.4428 24.2735 58.6146 23.9106 58.8249C23.5029 59.0622 23.2798 59.2576 23.2392 59.4094C23.2007 59.5612 23.2812 59.6952 23.4837 59.8121C23.6112 59.8856 23.7517 59.9312 23.9021 59.949C24.0546 59.9661 24.2228 59.9632 24.4117 59.9404C24.5999 59.9169 24.8166 59.8749 25.0604 59.8143C25.3056 59.7544 25.5829 59.6817 25.8923 59.5954C26.1931 59.5135 26.4996 59.44 26.8075 59.3745C27.1155 59.3075 27.4256 59.2661 27.7392 59.249C28.0514 59.2312 28.3622 59.2511 28.6716 59.3089C28.9802 59.368 29.2803 59.4814 29.5704 59.6482C29.7928 59.7765 29.976 59.9191 30.1179 60.0745C30.2583 60.2298 30.3481 60.3952 30.3816 60.5706C30.4173 60.7459 30.3859 60.9291 30.2897 61.123C30.1927 61.3155 30.0245 61.5129 29.7843 61.7154L30.8756 62.3455L29.6096 63.0811L28.5582 62.4745C28.1762 62.657 27.8262 62.8017 27.5075 62.9086C27.1889 63.0163 26.923 63.0925 26.7085 63.1396L25.8053 62.2578C26.1218 62.1837 26.4583 62.0825 26.8168 61.9513C27.1761 61.8209 27.5161 61.6626 27.8376 61.4759C28.1583 61.2891 28.3351 61.123 28.3686 60.979C28.4014 60.835 28.3294 60.7131 28.1548 60.6119C28.0471 60.5492 27.9324 60.5086 27.8119 60.4893C27.6907 60.4694 27.5524 60.4694 27.3977 60.4893C27.2445 60.5086 27.0691 60.5413 26.8745 60.5884C26.6807 60.6347 26.4526 60.6953 26.1895 60.7687C25.7868 60.8778 25.3954 60.9683 25.0162 61.0396C24.637 61.1123 24.272 61.1537 23.9227 61.1651C23.5735 61.1772 23.2363 61.1487 22.9105 61.0809C22.5841 61.0132 22.2719 60.8935 21.9753 60.7224C21.7736 60.6055 21.6032 60.4722 21.4656 60.3218C21.3266 60.1721 21.2425 60.0082 21.2154 59.8292C21.1884 59.6503 21.2247 59.4607 21.3281 59.2597C21.4314 59.0594 21.6196 58.8484 21.8941 58.6274L20.6602 57.9146L21.9268 57.179L23.1301 57.874C23.6597 57.6124 24.1323 57.4263 24.5479 57.313C24.9642 57.2004 25.2828 57.1219 25.5038 57.0792Z" fill="#FFE042"/>
<path d="M26.7093 63.1396L26.7071 63.7712L25.8047 62.8887L25.8061 62.2579L26.7093 63.1396Z" fill="#FCAA2D"/>
<path d="M83.9609 45.6299C84.2803 44.8757 85.1307 43.7345 85.7394 43.6169C86.4401 43.4822 86.5185 43.3667 86.7089 43.4694C87.1964 43.7324 86.7331 43.9241 86.7516 44.0574C86.773 44.2071 86.8885 44.1458 87.1173 44.4466C87.3033 44.6918 87.061 44.7054 87.0653 44.8166C87.0695 44.9078 87.185 44.9228 87.1622 45.0254L87.1109 45.1274C87.1016 45.2279 87.205 45.2008 87.1387 45.4817C87.0759 45.749 86.5128 45.3619 86.0595 45.7739C85.9461 45.8766 85.8527 45.9992 85.7487 46.1111C85.6225 46.2472 85.4792 46.367 85.3231 46.4689C85.1913 46.5552 84.9161 46.7106 84.8555 46.7612L83.9609 45.6299Z" fill="#FFBFA2"/>
<path d="M89.9391 76.3062C89.1101 76.0303 88.2597 75.9754 87.4086 75.82C87.2361 75.7887 87.0558 75.7602 86.8875 75.8122C86.4648 75.9448 86.3016 76.6804 86.3979 77.0475C86.4663 77.3077 86.6673 77.5144 86.8947 77.6584C87.2347 77.8744 87.6988 78.0312 88.1015 78.0505C88.5335 78.0704 88.9369 78.1631 89.3069 78.3962C89.7852 78.6977 90.1387 79.0313 90.7304 79.0135C91.3242 78.9949 91.7768 78.5872 91.7369 77.9763C91.7226 77.7568 91.662 77.5436 91.6022 77.3326C91.4646 76.8551 91.6442 76.8736 89.9391 76.3062Z" fill="#15151A"/>
<path d="M93.7759 76.855L93.6904 76.7438C93.3397 76.2462 92.3531 75.733 92.0972 75.7351C91.6902 75.738 91.4378 76.2277 91.5027 76.629C91.5326 76.8151 91.6075 76.9911 91.6488 77.1758C91.9283 78.4417 90.9667 78.4988 90.04 79.1595C89.8725 79.2786 89.7028 79.4069 89.603 79.5865C89.3678 80.0099 89.7221 80.655 90.1006 80.8689C90.3344 81.0015 90.6238 81.0008 90.8847 80.938C91.2767 80.8439 91.713 80.6208 92.0074 80.3443C92.3217 80.0484 92.6696 79.8232 93.0944 79.7198C93.8237 79.543 94.7261 79.4055 94.8672 78.4895C94.9057 78.2443 94.8181 77.9934 94.6798 77.7888C94.4346 77.4245 94.0532 77.1886 93.7759 76.855Z" fill="#292930"/>
<path d="M90.7501 58.2311C90.4237 58.5612 89.1897 57.9531 89.1726 57.7913C87.7064 56.6537 87.8803 61.195 88.3016 62.9992C88.5275 63.9722 88.4684 64.9844 88.6031 65.9731C88.7535 67.0737 88.9859 68.1643 89.2974 69.2307C89.3644 69.4609 89.4399 69.699 89.6046 69.8736C89.9446 70.2351 90.5199 70.2001 91.0089 70.1196C91.4323 70.0504 91.9063 69.9314 92.1144 69.5557C92.2435 69.3248 92.2392 69.0461 92.2378 68.7823C92.2328 68.0852 92.2292 67.3652 92.3675 66.6809C93.0632 63.2515 93.4574 62.1545 92.9727 59.0452C92.8772 58.4357 93.0803 57.2938 92.215 57.1705C91.4316 57.0593 90.9675 58.0102 90.7501 58.2311Z" fill="#15151A"/>
<path d="M89.0048 67.2811L88.7617 66.2611C88.8594 66.5975 88.9392 66.9383 89.0048 67.2811Z" fill="#E93C3C"/>
<path d="M89.4754 68.8458C89.727 68.4979 90.3486 68.5164 90.5567 68.6084C90.72 68.6811 91.9111 67.9982 92.2611 67.7345L92.2846 68.0866C92.2924 68.2071 92.2996 68.3282 92.306 68.4494C92.3709 69.617 92.3851 70.8181 92.3124 71.9993C92.2868 72.4248 92.2148 72.854 92.2504 73.2767C92.2668 73.4762 92.2426 73.4691 92.0922 74.6695C91.8227 76.8244 91.8298 77.2856 91.5376 77.5693C91.0557 78.0376 90.0799 78.0633 89.5146 77.3918C89.0947 76.8928 89.3934 75.0366 89.3977 71.7142C89.3991 70.5359 89.3364 69.349 89.1133 68.1942L89.4754 68.8458Z" fill="#15151A"/>
<path d="M88.4871 58.5483C88.3474 58.4756 87.626 58.1142 87.6317 57.9182C87.636 57.787 87.281 57.6772 87.1891 57.6794C87.0237 57.6822 86.8569 57.7884 86.7236 57.884C85.9103 58.4649 85.772 59.5577 85.7164 60.5542C85.5567 63.4347 85.7862 66.472 86.4934 69.5086C86.5875 69.9121 86.6708 70.0376 87.0094 70.2507C87.7365 70.7083 89.046 70.6477 89.5649 69.8251C90.1252 68.9398 89.8921 67.5619 90.071 66.5661C90.5144 64.0926 92.4696 63.4611 91.8466 59.6959C91.7661 59.2098 91.6157 58.0472 91.121 57.7628C90.9891 57.6879 90.0981 57.4848 89.3781 58.2004C88.9569 58.6189 89.006 58.8156 88.4871 58.5483Z" fill="#35353F"/>
<path d="M91.6703 78.0126C92.0517 78.1759 92.6248 77.9086 92.9285 77.6954C93.168 77.5272 93.6192 77.1993 93.7268 76.9178C93.8359 76.6348 93.6677 76.1985 93.5722 75.9334C93.0447 74.4657 91.6425 71.9102 90.8534 70.5587C90.2468 69.5201 89.7636 68.4444 89.2161 67.3745C89.1555 67.2569 89.0186 67.1742 88.8932 67.1614C88.7307 67.1443 86.7291 69.4958 86.625 69.8993C91.5948 77.7753 91.0673 77.7546 91.6703 78.0126Z" fill="#35353F"/>
<path d="M93.5154 52.0096C93.948 49.5447 95.0329 46.3156 93.1019 45.2235C91.6371 44.396 90.4146 45.3946 89.041 45.8893C88.1393 46.2144 87.2739 46.6406 86.4663 47.1567C86.1847 47.3371 85.8967 47.4597 85.7078 47.7398C85.5075 48.0363 85.3999 48.3571 85.3792 48.7157C85.3564 49.1227 85.4305 49.5283 85.499 49.9296C85.7805 51.6004 85.9594 53.2934 85.9587 54.9892C85.958 56.4099 85.7998 57.8205 85.7556 59.2398C85.7456 59.5563 85.7292 59.8849 85.7941 60.1971C85.8611 60.5171 86.0407 60.6069 86.3323 60.7424C86.8961 61.004 87.5269 61.0796 88.1385 61.1416C89.6989 61.2984 91.3712 61.3661 92.7305 60.5834C92.9266 60.4708 93.196 60.3026 93.2908 60.0837C93.3892 59.8563 93.3036 59.5677 93.3115 59.3175C93.3842 56.8019 93.0642 54.5679 93.5154 52.0096Z" fill="#E7E6F1"/>
<path d="M88.1255 44.6775C88.0713 44.3011 87.7869 44.3888 87.9309 44.0481C88.0528 43.7587 88.2374 43.4928 88.4862 43.3011C88.7342 43.1086 89.0479 42.9952 89.3608 43.0124C89.4692 43.0188 89.5412 43.0801 89.6481 43.0808C89.9439 43.0815 90.2412 43.0252 90.5363 43.068C90.8299 43.1107 91.1015 43.1321 91.1015 43.4636C91.1015 43.9055 91.0809 44.3304 91.2227 44.7652C91.2983 44.9969 91.4123 45.2207 91.433 45.4638C91.4729 45.9421 91.1229 46.3883 90.6909 46.5971C90.1599 46.8545 89.559 46.831 88.9944 46.749C88.7107 46.7076 88.3115 46.6506 88.1447 46.3804C88.02 46.1773 88.0734 45.91 88.1005 45.6869C88.1412 45.3497 88.1754 45.0161 88.1255 44.6775Z" fill="#F9D5C3"/>
<path d="M86.9259 40.1647C86.747 40.3814 86.6073 40.6259 86.5645 40.9124C86.4697 41.5518 86.7264 42.2083 86.5881 42.842C86.4534 43.4558 86.7171 44.8508 87.9282 45.2079C88.5405 45.3882 89.7494 45.1772 90.1379 44.9905C90.6604 44.7403 91.0047 44.2349 91.3134 43.7452C93.8432 39.7284 88.641 38.0768 86.9259 40.1647Z" fill="#F9D5C3"/>
<path d="M92.4671 41.9446C92.4507 42.0636 92.4343 42.1827 92.4115 42.3003C92.3944 42.3894 92.373 42.4778 92.3452 42.5648C92.3217 42.6396 92.2932 42.7123 92.2611 42.7829C92.1406 43.0516 91.9703 43.2976 91.7999 43.5399C91.5518 43.8935 91.2888 44.2235 90.9032 44.4317C90.3621 44.7232 89.7413 44.8636 89.1275 44.833C88.8103 44.8173 88.4917 44.7553 88.2066 44.6141C87.9221 44.473 87.6727 44.2485 87.5365 43.9619C87.4239 43.7245 87.3904 43.4529 87.2614 43.2241C87.0547 42.8584 86.6248 42.6346 86.4965 42.234C86.4374 42.0494 86.4523 41.8505 86.4559 41.6566C86.4644 41.2197 86.3468 40.8041 86.329 40.375C86.3048 39.7862 86.7895 39.2052 87.1958 38.8303C87.4139 38.6293 87.6563 38.4475 87.9293 38.3292C88.1688 38.2272 88.4276 38.1759 88.6856 38.1396C89.4497 38.0291 90.2688 38.0469 90.9431 38.4226C91.1213 38.5216 91.2931 38.6521 91.38 38.8381L91.4435 38.9586L91.5974 39.0555C91.7813 39.1411 91.9318 39.2487 92.0544 39.3749C92.6731 40.0121 92.5847 41.0978 92.4671 41.9446Z" fill="#15151A"/>
<path d="M87.8272 42.5712C88.3119 42.5298 88.4452 43.13 88.1201 43.6019C88.0246 43.7388 87.855 43.8628 87.7295 43.9733C86.8727 44.7289 86.6403 43.9312 86.9126 43.6739C87.5442 43.0773 87.217 42.6225 87.8272 42.5712Z" fill="#F9D5C3"/>
<path d="M87.9897 46.5794C88.2242 46.8388 89.7041 47.119 90.6927 46.7533C91.3015 46.528 91.6936 45.925 91.5845 45.3141C91.5353 45.0404 91.2309 44.7845 91.2309 44.7845C91.2309 44.7845 91.2552 44.9377 91.273 45.0568C91.3364 45.4838 89.6984 46.8239 88.0966 45.714C87.9976 45.8566 87.7552 46.3185 87.9897 46.5794Z" fill="#F4F4FB"/>
<path d="M83.868 45.4609C83.7233 45.5351 80.4757 50.0308 80.9447 51.4608C81.0374 51.7438 81.2512 51.6696 81.5378 51.7865C82.0482 51.9954 82.6469 52.021 83.0796 51.6689C83.5144 51.3153 83.8217 50.9261 84.0127 50.4414C84.4547 49.3209 85.047 47.9986 85.34 46.836C85.6572 45.5636 84.141 45.3219 83.868 45.4609Z" fill="#E7E6F1"/>
<path d="M87.0631 46.8167C87.5364 46.5565 89.0733 48.9366 88.4524 49.7535C88.0176 50.3259 81.3833 54.4339 80.9343 51.388C80.6598 49.529 87.1394 46.7754 87.0631 46.8167Z" fill="#F4F4FB"/>
<path d="M74.7881 18.8449C74.6085 18.8449 74.4239 18.8606 74.2343 18.8912C72.9711 19.0972 71.9582 20.3062 71.9746 21.5857C71.9825 22.1403 72.1657 22.6499 72.49 23.0199C72.9526 23.5467 73.6619 23.7477 74.1744 23.8233C75.6998 24.0478 77.0649 23.5488 78.1904 22.8096C77.9616 21.6812 77.4705 20.1872 76.4248 19.3888C75.9507 19.0274 75.4019 18.8449 74.7881 18.8449ZM76.6857 38.5829L76.4248 38.4717C78.2417 34.2098 78.9075 29.1544 78.3508 23.8532C78.3301 23.6557 78.2974 23.3998 78.2467 23.1097C77.0913 23.8461 75.697 24.3343 74.133 24.1034C73.5728 24.0207 72.7965 23.7983 72.2769 23.2067C71.9076 22.7861 71.6995 22.2116 71.6916 21.5893C71.6731 20.175 72.7929 18.8392 74.1887 18.6118C75.1082 18.4614 75.9201 18.6468 76.5966 19.1635C77.6744 19.9861 78.1947 21.4781 78.4435 22.6371C79.8763 21.6206 80.8856 20.2542 81.2976 19.6397C83.5159 16.3279 84.6329 12.2827 84.4426 8.24953L84.7256 8.23599C84.9195 12.3297 83.7854 16.4356 81.5329 19.798C81.1016 20.4423 80.0309 21.888 78.5041 22.9394C78.5689 23.2879 78.6088 23.5937 78.6331 23.8233C79.1948 29.173 78.5212 34.2761 76.6857 38.5829Z" fill="#35353F"/>
<path d="M86.1058 9.21825L84.5847 8.73353L83.1797 9.49268L84.3173 5.88652L86.1058 9.21825Z" fill="#35353F"/>
<path d="M0.477212 43.3139L0.394531 43.043C6.82989 41.0835 11.1802 35.2412 13.6958 30.6848C17.2663 24.2196 19.4026 16.8925 19.8745 9.49622L20.1575 9.51404C19.6835 16.9516 17.535 24.3201 13.9438 30.8224C11.4026 35.4244 7.00381 41.3273 0.477212 43.3139Z" fill="#35353F"/>
<path d="M21.4127 10.6866L19.9742 9.99378L18.4766 10.5484L20.1089 7.1375L21.4127 10.6866Z" fill="#35353F"/>
<path d="M96.5476 38.1859L96.3438 37.9891L99.4289 34.7964L99.6327 34.9938L96.5476 38.1859Z" fill="#35353F"/>
<path d="M96.9394 38.7526L96.8125 38.4988L99.1805 37.3148L99.3067 37.5686L96.9394 38.7526Z" fill="#35353F"/>
<path d="M98.7774 39.5566H97.1992V39.2729H98.7774V39.5566Z" fill="#35353F"/>
</svg>
