<svg width="85" height="90" viewBox="0 0 85 90" fill="none" xmlns="http://www.w3.org/2000/svg">
<path d="M6.40394 40.3676C6.63051 41.3902 7.05414 42.4389 7.89272 43.1386C8.56116 43.6951 9.60028 43.8782 10.4788 43.5935C11.1273 43.3825 11.5639 42.9519 11.7089 42.3807C11.9902 41.2721 11.0787 40.1723 10.0517 39.8407C9.11242 39.5386 7.97606 39.6731 6.67564 40.2435C6.58449 40.2843 6.49422 40.325 6.40394 40.3676ZM1.86463 56.0698C0.0693935 53.4117 -0.469686 49.9862 0.422723 46.9053C1.26044 44.011 3.32914 41.5334 6.01244 40.1757C5.91695 39.6783 5.86397 39.1965 5.82924 38.7694C5.12521 30.1691 8.80513 21.2737 15.4314 15.5555L15.657 15.8168C9.1124 21.4647 5.47853 30.249 6.17301 38.7408C6.20513 39.1314 6.2529 39.5681 6.33451 40.0195L6.53678 39.9275C7.91793 39.3224 9.13585 39.1835 10.1567 39.5125C11.3339 39.8919 12.3722 41.1689 12.044 42.4658C11.8687 43.156 11.3504 43.6733 10.5847 43.9216C9.5977 44.2419 8.42749 44.0336 7.67138 43.4034C6.78417 42.6637 6.33014 41.5812 6.0862 40.5256C3.52703 41.8486 1.55732 44.2272 0.754323 47.0008C-0.109439 49.9844 0.412297 53.3023 2.15024 55.8771L1.86463 56.0698Z" fill="#35353F"/>
<path d="M15.6051 17.9558L15.0955 16.0799L13.3906 15.1432L17.831 13.9243L15.6051 17.9558Z" fill="#35353F"/>
<path d="M14.3008 84.3066L53.7352 61.5398V5.34058e-05L14.3008 22.7669V84.3066Z" fill="#E7E6F8"/>
<path d="M15.6055 30.2489L52.1326 9.16097L52.1317 3.77874L15.6055 24.8667V30.2489Z" fill="#4281EE"/>
<path d="M26.1942 32.6614C24.1264 33.855 22.4492 36.7588 22.4492 39.147C22.4492 41.5351 24.1264 42.5022 26.1942 41.3086C28.262 40.115 29.9392 37.2112 29.9392 34.823C29.9392 32.4349 28.262 31.4669 26.1942 32.6614Z" fill="#CFCDE2"/>
<path d="M32.4313 32.2247L36.3195 29.9798C35.8239 24.424 31.6222 22.2658 26.4648 25.0872V29.5406C29.4902 27.9415 31.9643 29.1161 32.4313 32.2247Z" fill="#4281EE"/>
<path d="M32.4938 32.8143C32.5051 32.9844 32.5121 33.158 32.5121 33.3369C32.5121 37.2616 29.8287 42.0101 26.4648 44.1161V48.5695C31.9591 45.2316 36.369 37.4942 36.369 31.1102C36.369 30.9314 36.3647 30.7569 36.3577 30.5832L32.4938 32.8143Z" fill="#CFCDE2"/>
<path d="M19.9577 39.4266C20.4256 35.7797 22.8997 31.7474 25.925 29.8532V25.3998C20.7676 28.5337 16.566 35.5436 16.0703 41.6715L19.9577 39.4266Z" fill="#F65150"/>
<path d="M19.8765 40.6323C19.8765 40.4526 19.8835 40.2712 19.8948 40.0889L16.0308 42.319C16.0239 42.5004 16.0195 42.6802 16.0195 42.859C16.0195 49.243 20.4295 51.8881 25.9237 48.8827V44.4294C22.5598 46.2072 19.8765 44.557 19.8765 40.6323Z" fill="#FFCC00"/>
<path d="M40.0166 25.8555L37.7344 27.1733V24.5378L40.0166 23.22V25.8555Z" fill="#4281EE"/>
<path d="M52.3387 16.1162L41.3945 22.4742V25.1106L52.3387 18.7517V16.1162Z" fill="#CFCDE2"/>
<path d="M40.0166 30.1604L37.7344 31.4781V28.8417L40.0166 27.524V30.1604Z" fill="#F65150"/>
<path d="M52.3387 20.4212L41.3945 26.7792V29.4148L52.3387 23.0568V20.4212Z" fill="#CFCDE2"/>
<path d="M40.0166 34.4644L37.7344 35.7822V33.1467L40.0166 31.8289V34.4644Z" fill="#FFCC00"/>
<path d="M52.3387 24.7262L41.3945 31.0833V33.7197L52.3387 27.3617V24.7262Z" fill="#CFCDE2"/>
<path d="M40.0175 38.7694L37.7344 40.0872V37.4516L40.0175 36.1338V38.7694Z" fill="#CFCDE2"/>
<path d="M52.3387 29.0301L41.3945 35.3881V38.0245L52.3387 31.6665V29.0301Z" fill="#CFCDE2"/>
<path d="M15.7022 77.3088L15.6484 77.2159L52.8492 55.7391L52.9039 55.832L15.7022 77.3088Z" fill="#CED4F1"/>
<path d="M15.6984 73.4041L15.6445 73.3112L52.8462 51.8335L52.9 51.9263L15.6984 73.4041Z" fill="#CED4F1"/>
<path d="M15.6984 69.4985L15.6445 69.4057L52.8462 47.9279L52.9 48.0208L15.6984 69.4985Z" fill="#CED4F1"/>
<path d="M15.6984 65.5938L15.6445 65.5009L52.8462 44.0232L52.9 44.116L15.6984 65.5938Z" fill="#CED4F1"/>
<path d="M15.6984 61.6891L15.6445 61.5962L52.8462 40.1185L52.9 40.2114L15.6984 61.6891Z" fill="#CED4F1"/>
<path d="M49.4375 61.6448H49.5443V38.2117H49.4375V61.6448Z" fill="#CED4F1"/>
<path d="M46.1662 63.5972H46.0586V40.1645H46.1654L46.1662 63.5972Z" fill="#CED4F1"/>
<path d="M42.7834 65.5504H42.6758V42.1169H42.7826L42.7834 65.5504Z" fill="#CED4F1"/>
<path d="M39.4006 67.5018H39.2939L39.293 44.0692H39.4006V67.5018Z" fill="#CED4F1"/>
<path d="M36.0178 69.4551H35.911L35.9102 46.0215H36.0178V69.4551Z" fill="#CED4F1"/>
<path d="M32.635 71.4075H32.5282L32.5273 47.9748H32.635V71.4075Z" fill="#CED4F1"/>
<path d="M29.2561 73.3599H29.1484V49.9272H29.2561V73.3599Z" fill="#CED4F1"/>
<path d="M25.8732 75.3121H25.7656V51.8794H25.8732V75.3121Z" fill="#CED4F1"/>
<path d="M22.4904 77.2654H22.3837L22.3828 53.8327H22.4904V77.2654Z" fill="#CED4F1"/>
<path d="M19.1068 79.2178H19V55.7842H19.1068V79.2178Z" fill="#CED4F1"/>
<path d="M15.7279 57.7687L15.7287 81.0695L52.8227 59.6534L52.8218 36.3526L15.7279 57.7687ZM15.6211 81.2552V57.7062L15.6471 57.6906L52.9295 36.1669V59.7159L52.9034 59.7307L15.6211 81.2552Z" fill="#CED4F1"/>
<path d="M25.7819 75.3053L21.1523 77.9781V64.6406L25.781 61.9686L25.7819 75.3053Z" fill="#F65150"/>
<path d="M23.0467 76.8852L18.418 79.5581V70.0923L23.0467 67.4194V76.8852Z" fill="#4281EE"/>
<path d="M34.9382 70.0202L30.3086 72.6931V53.3162L34.9373 50.6433L34.9382 70.0202Z" fill="#4281EE"/>
<path d="M37.6765 68.4403L33.0469 71.1123V57.7757L37.6765 55.1028V68.4403Z" fill="#F65150"/>
<path d="M46.8288 63.1544L42.1992 65.8273V52.6573L46.8288 49.9853V63.1544Z" fill="#4281EE"/>
<path d="M49.5662 61.5745L44.9375 64.2465V55.1826L49.5662 52.5097V61.5745Z" fill="#F65150"/>
<path d="M32.0469 46.4286L32.1606 86.5627L78.3619 59.8886L78.2481 19.7545L32.0469 46.4286Z" fill="#F7F7FC"/>
<path d="M44.707 58.5526L46.4033 57.5734V55.6149L44.707 56.5942V58.5526Z" fill="#4281EE"/>
<path d="M44.707 61.2299L46.4033 60.2507V58.2913L44.707 59.2706V61.2299Z" fill="#CFCDE2"/>
<path d="M44.707 63.9061L46.4033 62.9269V60.9685L44.707 61.9477V63.9061Z" fill="#F65150"/>
<path d="M33.1602 65.2205L43.8951 59.0231V57.0646L33.1602 63.262V65.2205Z" fill="#4281EE"/>
<path d="M33.1602 67.8977L43.8951 61.7003V59.7419L33.1602 65.9393V67.8977Z" fill="#CFCDE2"/>
<path d="M33.1602 70.575L43.8951 64.3767V62.4183L33.1602 68.6156V70.575Z" fill="#F65150"/>
<path d="M47.8164 76.788V55.2234L47.8407 55.2095L77.0324 38.3562L77.1062 38.3137V44.4425V53.7485V59.8773L47.8164 76.788ZM50.4702 72.1913L47.9145 73.6663V76.6169L50.4702 75.142V72.1913ZM53.124 70.6592L50.5683 72.1341V75.0847L53.124 73.6098V70.6592ZM55.7778 69.127L53.2221 70.6019V73.5525L55.7778 72.0776V69.127ZM50.4702 69.127L47.9145 70.6019V73.5525L50.4702 72.0776V69.127ZM58.4315 67.5948L55.8759 69.0705V72.0212L58.4315 70.5454V67.5948ZM53.124 67.5948L50.5683 69.0697V72.0212L53.124 70.5454V67.5948ZM61.0853 66.0626L58.5296 67.5375V70.4881L61.0853 69.0132V66.0626ZM55.7778 66.0626L53.2221 67.5375V70.4881L55.7778 69.0132V66.0626ZM50.4702 66.0626L47.9145 67.5375V70.4881L50.4702 69.0132V66.0626ZM63.7391 64.5303L61.1834 66.0061V68.9568L63.7391 67.481V64.5303ZM58.4315 64.5303L55.8759 66.0061V68.9559L58.4315 67.481V64.5303ZM53.124 64.5303L50.5683 66.0061V68.9559L53.124 67.4802V64.5303ZM66.3929 62.999L63.8372 64.4739V67.4246L66.3929 65.9488V62.999ZM61.0853 62.9982L58.5296 64.4739V67.4246L61.0853 65.9488V62.9982ZM55.7778 62.9982L53.2221 64.4731V67.4237L55.7778 65.9488V62.9982ZM50.4702 62.9982L47.9145 64.4731V67.4237L50.4702 65.9488V62.9982ZM69.0467 61.466L66.491 62.9417V65.8924L69.0467 64.4175V61.466ZM63.7391 61.466L61.1834 62.9417V65.8924L63.7391 64.4166V61.466ZM58.4315 61.466L55.8759 62.9417V65.8915L58.4315 64.4166V61.466ZM53.124 61.466L50.5683 62.9417V65.8915L53.124 64.4166V61.466ZM71.7005 59.9337L69.1448 61.4095V64.3602L71.7005 62.8853V59.9337ZM66.3929 59.9337L63.8372 61.4095V64.3602L66.3929 62.8844V59.9337ZM61.0853 59.9337L58.5296 61.4095V64.3602L61.0853 62.8844V59.9337ZM55.7778 59.9337L53.2221 61.4095V64.3593L55.7778 62.8844V59.9337ZM50.4702 59.9337L47.9145 61.4095V64.3593L50.4702 62.8844V59.9337ZM74.3543 58.4024L71.7986 59.8773V62.828L74.3543 61.3522V58.4024ZM69.0467 58.4024L66.491 59.8773V62.828L69.0467 61.3522V58.4024ZM63.7391 58.4016L61.1834 59.8773V62.828L63.7391 61.3522V58.4016ZM58.4315 58.4016L55.8759 59.8773V62.8271L58.4315 61.3522V58.4016ZM53.124 58.4016L50.5683 59.8773V62.8271L53.124 61.3522V58.4016ZM77.0081 56.8702L74.4523 58.3451V61.2958L77.0081 59.8209V56.8702ZM71.7005 56.8702L69.1448 58.3451V61.2958L71.7005 59.8209V56.8702ZM66.3929 56.8693L63.8372 58.3451V61.2958L66.3929 59.82V56.8693ZM61.0853 56.8693L58.5296 58.3451V61.2949L61.0853 59.82V56.8693ZM55.7778 56.8693L53.2221 58.3451V61.2949L55.7778 59.82V56.8693ZM50.4702 56.8693L47.9145 58.3442V61.2949L50.4702 59.82V56.8693ZM74.3543 55.338L71.7986 56.8129V59.7636L74.3543 58.2887V55.338ZM69.0467 55.338L66.491 56.8129V59.7636L69.0467 58.2878V55.338ZM63.7391 55.338L61.1834 56.8129V59.7636L63.7391 58.2878V55.338ZM58.4315 55.338L55.8759 56.8129V59.7636L58.4315 58.2878V55.338ZM53.124 55.3372L50.5683 56.8121V59.7627L53.124 58.2878V55.3372ZM77.0081 53.8058L74.4523 55.2807V58.2314L77.0081 56.7565V53.8058ZM71.7005 53.8058L69.1448 55.2807V58.2314L71.7005 56.7565V53.8058ZM66.3929 53.8058L63.8372 55.2807V58.2305L66.3929 56.7565V53.8058ZM61.0853 53.8058L58.5296 55.2807V58.2305L61.0853 56.7556V53.8058ZM55.7778 53.805L53.2221 55.2807V58.2305L55.7778 56.7556V53.805ZM50.4702 53.805L47.9145 55.2807V58.2305L50.4702 56.7556V53.805ZM74.3543 52.2736L71.7986 53.7485V56.6992L74.3543 55.2234V52.2736ZM69.0467 52.2727L66.491 53.7485V56.6992L69.0467 55.2234V52.2727ZM63.7391 52.2727L61.1834 53.7485V56.6992L63.7391 55.2234V52.2727ZM58.4315 52.2727L55.8759 53.7485V56.6992L58.4315 55.2234V52.2727ZM53.124 52.2727L50.5683 53.7485V56.6992L53.124 55.2234V52.2727ZM77.0081 50.7414L74.4523 52.2163V55.167L77.0081 53.6921V50.7414ZM71.7005 50.7414L69.1448 52.2163V55.167L71.7005 53.6912V50.7414ZM66.3929 50.7414L63.8372 52.2163V55.167L66.3929 53.6912V50.7414ZM61.0853 50.7406L58.5296 52.2163V55.167L61.0853 53.6912V50.7406ZM55.7778 50.7406L53.2221 52.2163V55.1661L55.7778 53.6912V50.7406ZM74.3543 49.2092L71.7986 50.6841V53.6348L74.3543 52.1599V49.2092ZM69.0467 49.2092L66.491 50.6841V53.6348L69.0467 52.159V49.2092ZM63.7391 49.2083L61.1834 50.6841V53.6348L63.7391 52.159V49.2083ZM58.4315 49.2083L55.8759 50.6841V53.6348L58.4315 52.159V49.2083ZM77.0081 47.677L74.4523 49.1528V52.1026L77.0081 50.6277V47.677ZM71.7005 47.677L69.1448 49.1528V52.1026L71.7005 50.6268V47.677ZM66.3929 47.677L63.8372 49.1519V52.1026L66.3929 50.6268V47.677ZM61.0853 47.677L58.5296 49.1519V52.1026L61.0853 50.6268V47.677ZM74.3543 46.1448L71.7986 47.6206V50.5704L74.3543 49.0955V46.1448ZM69.0467 46.144L66.491 47.6197V50.5704L69.0467 49.0955V46.144ZM63.7391 46.144L61.1834 47.6197V50.5704L63.7391 49.0946V46.144ZM77.0081 44.6126L74.4523 46.0884V49.0382L77.0081 47.5633V44.6126ZM71.7005 44.6126L69.1448 46.0875V49.0382L71.7005 47.5633V44.6126ZM66.3929 44.6126L63.8372 46.0875V49.0382L66.3929 47.5633V44.6126ZM74.3543 43.0804L71.7986 44.5553V47.506L74.3543 46.0311V43.0804ZM69.0467 43.0804L66.491 44.5553V47.506L69.0467 46.0302V43.0804ZM77.0081 41.5482L74.4523 43.0231V45.9738L77.0081 44.4989V41.5482ZM71.7005 41.5482L69.1448 43.0231V45.9738L71.7005 44.4989V41.5482ZM74.3543 40.016L71.7986 41.4918V44.4416L74.3543 42.9667V40.016ZM77.0081 38.4838L74.4523 39.9596V42.9094L77.0081 41.4345V38.4838Z" fill="#ECEDF9"/>
<path d="M48.33 67.3082L48.2502 67.2909C48.1503 67.2466 48.106 67.1303 48.1494 67.0313C48.3361 66.6103 50.0029 62.9009 50.9795 62.3097C51.5029 61.9929 51.9856 62.4477 52.4118 62.8497C52.845 63.2577 53.1263 63.4938 53.3772 63.3323C54.3625 62.7012 55.2549 60.4494 56.1187 58.2722C57.0441 55.9387 57.9173 53.7355 59.0059 53.0288C59.5928 52.6469 60.157 53.1547 60.6553 53.6035C61.158 54.0558 61.5113 54.3388 61.8195 54.1452C62.4367 53.7598 62.9385 52.2875 63.4706 50.7292C64.2562 48.4313 65.1452 45.8262 66.8293 45.1491C67.9387 44.7037 68.9084 44.8895 69.7921 45.7185C70.5387 46.4191 71.1125 47.4669 71.6681 48.48C72.7046 50.3724 73.4138 51.4836 74.5233 50.9706C75.3271 50.5999 76.2039 48.5885 76.4739 47.8445C76.5112 47.7429 76.6241 47.69 76.7265 47.7273C76.8281 47.7638 76.881 47.8766 76.8437 47.9791C76.802 48.0945 75.8037 50.8126 74.6891 51.3282C73.992 51.6503 73.3557 51.4984 72.7437 50.862C72.2323 50.3299 71.7905 49.5234 71.3226 48.6692C70.241 46.6943 69.1219 44.6525 66.976 45.5145C65.4594 46.1248 64.6009 48.6388 63.8439 50.8568C63.264 52.554 62.764 54.0193 62.0287 54.4786C61.4453 54.844 60.8854 54.3405 60.3914 53.8961C59.8706 53.4264 59.5312 53.1564 59.2204 53.3587C58.2377 53.9968 57.3461 56.2443 56.485 58.4171C55.5578 60.7549 54.682 62.9634 53.5899 63.6639C53.0612 64.0034 52.5725 63.5424 52.1419 63.1361C51.7243 62.7429 51.4326 62.4963 51.1835 62.6465C50.4465 63.0936 49.0037 66.0781 48.5097 67.191L48.33 67.3082Z" fill="#4281EE"/>
<path d="M55.3831 72.3051L50.6641 75.0292V66.3829L55.3831 63.6588V72.3051Z" fill="#4281EE"/>
<path d="M62.4612 68.218L57.7422 70.943V58.0291L62.4612 55.305V68.218Z" fill="#CFCDE2"/>
<path d="M76.6175 60.0457L71.8984 62.7698V54.7233L76.6175 51.9992V60.0457Z" fill="#CFCDE2"/>
<path d="M69.5393 64.1319L64.8203 66.856V50.4454L69.5385 47.7213L69.5393 64.1319Z" fill="#4281EE"/>
<path d="M69.7749 36.0956L71.2698 36.5244C70.1612 38.8709 68.3955 40.9961 66.4102 42.1428V39.9856C67.7844 39.1921 69.0075 37.7198 69.7749 36.0956Z" fill="#CFCDE2"/>
<path d="M62.5244 39.2217C63.1546 40.6211 64.6591 40.997 66.4109 39.9856V42.1429C63.8804 43.6039 61.7066 43.0605 60.7969 41.0395L62.5244 39.2217Z" fill="#CFCDE2"/>
<path d="M66.4102 30.2786V28.1213C68.9407 26.6603 71.1135 27.2037 72.0242 29.2247L70.2967 31.0425C69.6664 29.6431 68.162 29.2672 66.4102 30.2786Z" fill="#F65150"/>
<path d="M70.6159 32.7049C70.6159 32.0521 70.5031 31.4939 70.2991 31.0425L72.0266 29.2247C72.3209 29.8775 72.4841 30.6831 72.4841 31.6267C72.4841 33.1997 72.0326 34.9142 71.2722 36.5245L69.7773 36.0957C70.3034 34.9811 70.6159 33.7944 70.6159 32.7049Z" fill="#F65150"/>
<path d="M63.0457 34.1676L61.5508 33.7397C62.6593 31.3932 64.4251 29.2672 66.4104 28.1213V30.2785C65.0353 31.072 63.8131 32.5434 63.0457 34.1676Z" fill="#4281EE"/>
<path d="M62.208 37.5583C62.208 38.212 62.3208 38.7693 62.5249 39.2216L60.7973 41.0394C60.503 40.3866 60.3398 39.581 60.3398 38.6374C60.3398 37.0644 60.7913 35.3499 61.5517 33.7396L63.0466 34.1675C62.5205 35.283 62.208 36.4697 62.208 37.5583Z" fill="#4281EE"/>
<path d="M33.3945 60.1221V47.94L58.6407 33.3637L58.6685 33.3481V45.531L33.4214 60.1065L33.3945 60.1221ZM33.431 58.0777V60.0596L35.9181 58.6229V58.6333H35.9546V58.602L38.4417 57.1662V57.1766H38.4781V57.1454L40.9661 55.7087V55.7199H41.0017V55.6878L43.4897 54.252V54.2624H43.5261V54.2311L46.0133 52.7953V52.8057H46.0497V52.7736L48.5369 51.3378V51.3482H48.5733V51.3169L51.0613 49.8811V49.8915H51.0969V49.8594L53.5849 48.4235V48.4348H53.6213V48.4027L56.1085 46.9669V46.9773H56.1449V46.946L58.632 45.5093V43.5283L58.6598 43.5127L58.6416 43.4814L58.632 43.4866V41.5048L58.6598 41.4892L58.6416 41.4579L58.632 41.4631V39.4812L58.6589 39.4656L58.6416 39.4343L58.632 39.4395V37.4577L58.6589 37.4421L58.6416 37.4108L58.632 37.416V35.435L58.6589 35.4194L58.6416 35.3873L58.632 35.3933V33.4114L56.1449 34.8473V34.8369H56.1085V34.8681L53.6205 36.3048V36.2936H53.5849V36.3256L51.0969 37.7615V37.7511H51.0604V37.7823L48.5733 39.219V39.2078H48.5369V39.2399L46.0497 40.6757V40.6653H46.0133V40.6966L43.5253 42.1324V42.122H43.4897V42.1532L41.0017 43.5899V43.5795H40.9652V43.6108L38.4781 45.0466V45.0362H38.4417V45.0675L35.9546 46.5042V46.4937H35.9181V46.525L33.4301 47.9608V49.9427L33.4032 49.9583L33.4214 49.9896L33.431 49.9844V51.9663L33.4032 51.9819L33.4214 52.0131L33.431 52.0079V53.9889L33.4032 54.0046L33.4214 54.0367L33.431 54.0306V56.0125L33.4032 56.0281L33.4214 56.0602L33.431 56.0542V58.036L33.4032 58.0517L33.4214 58.0829L33.431 58.0777Z" fill="#E1E4F6"/>
<path d="M33.4206 49.9896L33.4023 49.9584L33.4293 49.9428L35.9173 48.5061V48.5486L33.4301 49.9844L33.4206 49.9896ZM35.9537 48.5278V48.4852L38.4408 47.0494V47.091L35.9537 48.5278ZM38.4773 47.0702V47.0285L40.9644 45.5918V45.6344L38.4773 47.0702ZM41.0009 45.6135V45.571L43.4888 44.1352V44.1768L41.0009 45.6135ZM43.5244 44.156V44.1143L46.0124 42.6785V42.7201L43.5244 44.156ZM46.0489 42.6993V42.6577L48.536 41.2209V41.2635L46.0489 42.6993ZM48.5724 41.2418V41.2001L51.0595 39.7643V39.8059L48.5724 41.2418ZM51.096 39.7851V39.7426L53.584 38.3067V38.3492L51.096 39.7851ZM53.6196 38.3275V38.2859L56.1076 36.85V36.8917L53.6196 38.3275ZM56.144 36.8709V36.8292L58.6311 35.3934L58.6407 35.3873L58.6581 35.4194L58.6311 35.435L56.144 36.8709Z" fill="#E1E4F6"/>
<path d="M33.4206 52.0132L33.4023 51.9819L33.4301 51.9663L35.9173 50.5296V50.5713L33.4301 52.008L33.4206 52.0132ZM35.9537 50.5504V50.5088L38.4408 49.0729V49.1146L35.9537 50.5504ZM38.4773 49.0938V49.0521L40.9644 47.6154V47.6579L38.4773 49.0938ZM41.0009 47.6362V47.5946L43.4888 46.1587V46.2004L41.0009 47.6362ZM43.5253 46.1795V46.1379L46.0124 44.702V44.7437L43.5253 46.1795ZM46.0489 44.722V44.6803L48.536 43.2445V43.2862L46.0489 44.722ZM48.5724 43.2653V43.2237L51.0595 41.7878V41.8295L48.5724 43.2653ZM51.096 41.8086V41.7661L53.584 40.3303V40.3719L51.096 41.8086ZM53.6196 40.3511V40.3094L56.1076 38.8736V38.9152L53.6196 40.3511ZM56.144 38.8944V38.8519L58.6311 37.416L58.6407 37.4108L58.6581 37.4421L58.6311 37.4577L56.144 38.8944Z" fill="#E1E4F6"/>
<path d="M33.4206 54.0367L33.4023 54.0046L33.4301 53.989L35.9173 52.5531V52.5948L33.4301 54.0307L33.4206 54.0367ZM35.9537 52.574V52.5323L38.4408 51.0965V51.1381L35.9537 52.574ZM38.4773 51.1173V51.0748L40.9644 49.6389V49.6815L38.4773 51.1173ZM41.0009 49.6598V49.6181L43.4888 48.1823V48.2239L41.0009 49.6598ZM43.5253 48.2031V48.1614L46.0124 46.7247V46.7673L43.5253 48.2031ZM46.0489 46.7456V46.7039L48.536 45.268V45.3097L46.0489 46.7456ZM48.5724 45.2889V45.2472L51.0595 43.8105V43.8531L48.5724 45.2889ZM51.096 43.8322V43.7897L53.584 42.3538V42.3955L51.096 43.8322ZM53.6196 42.3747V42.333L56.1076 40.8963V40.9388L53.6196 42.3747ZM56.144 40.918V40.8754L58.6311 39.4396L58.6407 39.4344L58.6581 39.4657L58.6311 39.4813L56.144 40.918Z" fill="#E1E4F6"/>
<path d="M33.4206 56.0603L33.4023 56.0282L33.4301 56.0126L35.9173 54.5767V54.6184L33.4301 56.0542L33.4206 56.0603ZM35.9537 54.5975V54.5559L38.4408 53.1192V53.1617L35.9537 54.5975ZM38.4773 53.1409V53.0983L40.9653 51.6625V51.7042L38.4773 53.1409ZM41.0009 51.6833V51.6417L43.4888 50.2049V50.2475L41.0009 51.6833ZM43.5253 50.2266V50.1841L46.0124 48.7483V48.7899L43.5253 50.2266ZM46.0489 48.7691V48.7274L48.536 47.2916V47.3333L46.0489 48.7691ZM48.5724 47.3124V47.2708L51.0595 45.8341V45.8766L48.5724 47.3124ZM51.096 45.8558V45.8132L53.584 44.3774V44.4191L51.096 45.8558ZM53.6204 44.3982V44.3565L56.1076 42.9199V42.9624L53.6204 44.3982ZM56.144 42.9407V42.899L58.6311 41.4632L58.6407 41.4579L58.6589 41.4892L58.6311 41.5048L56.144 42.9407Z" fill="#E1E4F6"/>
<path d="M33.4206 58.0829L33.4023 58.0516L33.4301 58.036L35.9173 56.5993V56.6418L33.4301 58.0777L33.4206 58.0829ZM35.9537 56.621V56.5785L38.4408 55.1426V55.1843L35.9537 56.621ZM38.4773 55.1643V55.1218L40.9653 53.686V53.7276L38.4773 55.1643ZM41.0009 53.7068V53.6651L43.4888 52.2284V52.2709L41.0009 53.7068ZM43.5253 52.2501V52.2076L46.0124 50.7717V50.8134L43.5253 52.2501ZM46.0489 50.7926V50.7509L48.536 49.3151V49.3567L46.0489 50.7926ZM48.5724 49.335V49.2934L51.0595 47.8575V47.8992L48.5724 49.335ZM51.096 47.8784V47.8367L53.584 46.4009V46.4425L51.096 47.8784ZM53.6204 46.4217V46.3791L56.1076 44.9433V44.9858L53.6204 46.4217ZM56.144 44.9641V44.9225L58.6311 43.4866L58.6407 43.4814L58.6589 43.5127L58.6311 43.5283L56.144 44.9641Z" fill="#E1E4F6"/>
<path d="M35.9544 58.6333H35.918V46.4938H35.9544V46.5042V48.4852V48.5277V50.5087V50.5504V52.5323V52.5739V54.5558V54.5975V56.5785V56.621V58.6021V58.6333Z" fill="#E1E4F6"/>
<path d="M38.4779 57.1766H38.4414V45.0362H38.4779V45.0467V47.0285V47.0702V49.0521V49.0937V51.0747V51.1173V53.0983V53.1408V55.1218V55.1644V57.1454V57.1766Z" fill="#E1E4F6"/>
<path d="M41.0013 55.72H40.9657V51.6625L40.9648 49.6815V49.6389V47.6579V47.6154V45.6344V45.5918V43.6108V43.5796H41.0013V43.59V45.571V45.6135V47.5945V47.6362V49.6181V49.6598V51.6416V51.6833V53.6652V53.7068V55.6879V55.72Z" fill="#E1E4F6"/>
<path d="M43.5247 54.2625H43.4883V42.122H43.5239V42.1325V44.1143V44.156L43.5247 46.1379V46.1796V48.1614V48.2031V50.1841V50.2266V52.2077V52.2502V54.2312V54.2625Z" fill="#E1E4F6"/>
<path d="M46.0521 52.8058H46.0156V40.6654H46.0521V40.6758V42.6577V42.6993V44.6803V44.722V46.7039V46.7456V48.7274V48.7691V50.751V50.7926V52.7737V52.8058Z" fill="#E1E4F6"/>
<path d="M48.5716 51.3481H48.5352V39.2077H48.5716V39.219V41.2V41.2417V43.2236V43.2653V45.2471V45.2888V47.2707V47.3123V49.2933V49.335V51.3169V51.3481Z" fill="#E1E4F6"/>
<path d="M51.095 49.8915H51.0595V49.8811L51.0586 47.8992V47.8575V45.8765V45.834V43.853V43.8104V41.8294V41.7878V39.8059V39.7642V37.7823V37.7511H51.095V37.7615V39.7425V39.785V41.7661V41.8086V43.7896V43.8321V45.8131V45.8557V47.8367V47.8784V49.8593V49.8915Z" fill="#E1E4F6"/>
<path d="M53.6224 48.4348H53.5859V36.2935H53.6215V36.3048V38.2858V38.3275V40.3094V40.351V42.3329V42.3746L53.6224 44.3565V44.3981V46.3792V46.4217V48.4027V48.4348Z" fill="#E1E4F6"/>
<path d="M56.1458 46.9773H56.1094V34.8369H56.1458V34.8473V36.8292V36.8709V38.8519V38.8944V40.8754V40.918V42.899V42.9406V44.9225V44.9642V46.9461V46.9773Z" fill="#E1E4F6"/>
<path d="M55.0195 47.6223L57.8261 46.0016V39.2104L55.0195 40.8312V47.6223Z" fill="#4281EE"/>
<path d="M38.1758 57.3459L40.9823 55.7252V48.934L38.1758 50.5548V57.3459Z" fill="#4281EE"/>
<path d="M46.5977 52.4836L49.4051 50.8638V48.4053L46.5977 50.0252V52.4836Z" fill="#4281EE"/>
<path d="M33.9648 59.7766L36.7723 58.1559V52.5306L33.9648 54.1505V59.7766Z" fill="#F65150"/>
<path d="M50.8086 50.053L53.6152 48.4331V39.4222L50.8086 41.043V50.053Z" fill="#F65150"/>
<path d="M42.3867 54.9152L45.1941 53.2944L45.1933 41.2946L42.3867 42.9154V54.9152Z" fill="#F65150"/>
<path d="M40.1445 74.6177L42.978 78.6492C45.6891 75.2775 46.6171 70.739 45.0528 68.5123C44.0102 67.0296 42.2288 66.8708 40.1445 68.0739V74.6177Z" fill="#CFCDE2"/>
<path d="M40.146 74.6177L37.3125 81.921C39.1182 82.0825 41.1747 80.8949 42.9795 78.6491L40.146 74.6177Z" fill="#CFCDE2"/>
<path d="M40.1443 74.6177L37.3108 70.5871C34.6006 73.9588 33.6717 78.4972 35.2369 80.723C35.7578 81.4644 36.408 81.8403 37.3108 81.921L40.1443 74.6177Z" fill="#4281EE"/>
<path d="M40.146 74.6177V68.0739C39.1034 68.6755 38.2153 69.4637 37.3125 70.5871L40.146 74.6177Z" fill="#F65150"/>
<path d="M66.9288 49.9184C66.8116 50.1754 66.7179 50.4436 66.6493 50.7197C66.5651 51.0591 66.4974 51.4211 66.559 51.7709C66.6189 52.1103 66.7882 52.4376 67.0694 52.6277C67.4662 52.8943 68.0816 52.7883 68.2961 52.3482C68.4271 52.0782 68.3942 51.757 68.4254 51.4558C68.4688 51.0521 68.6381 50.665 68.902 50.3681C69.0452 50.2049 69.2162 50.0703 69.3491 49.8984C69.4819 49.7257 69.8109 49.1718 69.764 48.9557C69.7033 48.6735 69.4298 48.4973 69.1928 48.3949C68.9654 48.295 68.6858 48.2178 68.4376 48.2516L68.2179 48.3359L68.0634 48.4035C67.9037 48.5095 67.7639 48.6744 67.6363 48.8194C67.3498 49.1466 67.1111 49.5182 66.9288 49.9184Z" fill="#F3A984"/>
<path d="M67.9234 48.2742C67.9616 48.9071 68.6856 49.4167 69.2126 49.5703C69.8142 49.7448 70.2473 49.4948 70.6119 49.0304C71.0729 48.4427 71.5894 47.894 72.0643 47.3176C72.2474 47.0962 72.4393 46.8749 72.6329 46.65C72.9975 46.2247 73.3603 45.7906 73.6503 45.3253C73.942 44.86 74.0036 44.2124 74.2085 43.6976C74.2832 43.5092 74.3587 43.3191 74.4333 43.1299C74.6547 42.5665 74.8752 42.0013 75.1061 41.4431C75.291 40.9943 75.0314 40.7009 75.061 40.2026C75.0913 39.7009 74.9516 39.2564 74.7319 38.7729C74.6547 38.6019 74.5531 38.4187 74.4003 38.3102L74.37 38.2902L74.2597 38.2381C74.0488 38.1704 73.8369 38.2633 73.6625 38.3683C73.1103 38.7017 72.6407 39.3467 72.3976 39.9578C71.8716 41.2791 71.5478 42.6733 70.9054 43.9459C70.6597 44.4303 70.3784 44.8869 70.0737 45.3253C69.6735 45.9 69.2325 46.4417 68.7794 46.9695C68.466 47.3341 67.8879 47.716 67.9234 48.2742Z" fill="#BFBDD4"/>
<path d="M79.5731 77.827C79.4316 79.2256 79.3092 82.869 79.3526 83.3004C79.3813 83.5756 79.4837 83.8534 79.6894 84.0383C79.8961 84.2258 80.1869 84.3005 80.4655 84.2953C81.0367 84.2857 81.5802 83.9576 81.8996 83.4845C82.3701 82.7874 82.4144 79.973 82.4344 79.4009C82.4596 78.6786 82.1991 78.354 81.6696 77.9052C81.2616 77.5597 80.8701 76.9971 80.4048 76.7506C80.1808 76.6317 79.8605 76.7428 79.6825 76.9034C79.4837 77.0831 79.3813 77.3522 79.3631 77.6187L79.5731 77.827Z" fill="#15151A"/>
<path d="M75.6784 76.0649C75.2426 76.1404 74.7843 76.4303 74.3936 76.6178C73.463 77.064 72.5558 77.558 71.6496 78.0511C71.008 78.3992 69.5756 79.0103 69.909 79.967C70.0618 80.4071 70.5097 80.6953 70.9698 80.7734C71.8848 80.9297 72.6782 80.6502 73.4005 80.1284C74.1141 79.6137 74.924 79.2308 75.7765 79.0103C76.5074 78.8211 76.9762 78.4113 76.9936 77.6231C77.0109 76.8531 76.5977 75.9069 75.6784 76.0649Z" fill="#15151A"/>
<path d="M72.8754 55.5498C72.9535 54.9325 73.016 54.2311 73.1401 53.7702C73.3572 52.9628 73.6497 52.5887 73.7435 52.5105C74.1975 52.1294 75.0378 53.1868 75.5778 53.3457C79.17 54.4013 77.5084 60.0717 77.4286 61.8314C77.3895 62.6812 77.5128 68.1928 77.3669 70.6573C77.2523 72.5923 77.3947 75.1984 77.0197 77.1143C76.7688 78.4 74.076 78.1899 73.845 76.9138L73.4327 64.8801L73.4292 64.8584V64.8558C73.1245 62.8609 73.1072 60.3833 72.9301 59.148C72.7443 57.8407 72.74 56.608 72.8754 55.5498Z" fill="#22241E"/>
<path d="M74.9141 53.5306C76.2649 54.364 76.4063 54.0038 78.3986 53.693C79.3214 53.5489 80.917 52.0844 81.4075 53.4751C82.8494 57.1498 82.5855 60.4624 82.0299 63.5103C81.7556 65.0165 82.2252 68.8084 82.2252 68.8101C82.7886 71.7026 82.7982 75.1716 82.49 78.1127C82.457 78.4322 82.4145 78.7629 82.2469 79.0372C82.0751 79.3194 81.7851 79.5138 81.4752 79.6293C80.7677 79.8914 79.6643 79.9965 79.3041 79.1727C78.8683 78.1769 78.778 74.9806 78.2372 70.1505C78.1651 69.5029 77.7016 67.1737 77.6009 66.6433C77.238 64.7387 76.8491 60.9312 76.6442 59.004C76.5557 58.1724 75.2127 58.1698 74.9723 56.6046C74.8733 55.9596 74.7014 54.9213 74.9141 53.5306Z" fill="#35353F"/>
<path d="M72.9321 44.4824C72.9972 45.8019 73.0719 47.1145 73.177 48.4375C73.2499 49.3403 73.2985 52.5757 73.5381 53.1599C73.7534 53.6851 74.2031 54.0975 74.7109 54.338C75.3793 54.6522 76.1406 54.7078 76.8803 54.6956C77.5999 54.6861 78.3179 54.6175 79.028 54.4934C79.5106 54.4074 80.0089 54.2885 80.4274 54.0185C80.7772 53.7928 81.2086 53.3813 81.1913 52.9334C81.1887 52.8388 81.1948 52.5453 81.2104 52.172C81.2382 51.4211 81.2928 50.3447 81.3432 49.9185L81.3362 49.9263C81.4152 49.2769 81.5281 48.6337 81.6679 48.0008C81.9162 46.8714 82.2061 45.9686 82.5064 44.8505C82.6393 44.3522 82.9005 43.6481 83.0238 43.1577C83.0559 43.0344 83.0776 42.925 83.0872 42.8365C83.1974 41.8104 82.5976 41.0239 81.2633 40.1358C80.3622 39.5359 78.5644 38.752 76.8082 38.219C74.3498 37.4707 74.0112 38.3666 73.3219 40.3294C73.2638 40.4978 73.2134 40.6688 73.1717 40.8424C72.8801 42.0231 72.8722 43.2749 72.9321 44.4824Z" fill="#CED4F1"/>
<path d="M75.0703 50.7735C75.4184 51.4211 75.4262 51.475 75.8021 52.1226C76.0868 51.8925 76.4263 51.6156 76.7153 51.3855C76.5903 50.0808 76.553 48.7682 76.5886 47.4574C76.6225 46.1934 77.007 43.1785 76.9775 42.9024C76.9497 42.6429 76.8421 42.3903 76.6667 42.1984C76.5738 42.0969 76.461 42.01 76.3299 41.9753C76.198 41.9406 76.046 41.9658 75.9497 42.063C75.8533 42.1594 75.6137 43.9685 75.5686 44.2845C75.4783 44.9173 75.4037 45.5528 75.342 46.1899C75.2161 47.4825 75.1432 48.7804 75.0938 50.0782C75.0851 50.31 75.0773 50.5417 75.0703 50.7735Z" fill="#15151A"/>
<path d="M75.6133 41.3841C75.6176 41.5152 76.0639 42.4823 76.1151 42.5674C76.1941 42.6993 76.2896 42.8347 76.4354 42.8938C76.5951 42.958 76.9537 42.8104 76.9649 42.8026C77.142 42.7054 77.4198 42.5639 77.3825 42.3607C77.3469 42.1724 77.2783 41.9823 77.2149 41.8008C77.1906 41.734 76.6906 40.8303 76.5647 40.7496C76.1784 40.4978 75.6133 41.3589 75.6133 41.3841Z" fill="#35353F"/>
<path d="M79.4831 39.4283C79.5665 41.5083 75.5541 41.8451 75.594 39.8884C75.6505 37.1608 75.923 36.5766 77.2044 36.1434C77.5551 36.0245 77.9223 35.9325 78.2947 35.9229C79.6507 35.8864 79.1307 36.5792 79.0838 37.0601C78.9441 38.4864 79.4527 38.6791 79.4831 39.4283Z" fill="#F3A984"/>
<path d="M76.355 41.0169C76.25 41.3823 75.6423 41.5846 75.5286 41.5612C75.4149 41.5386 75.3445 41.3876 75.3055 41.2938C75.0199 40.6141 74.8532 39.8718 74.8402 39.1339C74.8358 38.9004 74.8723 38.6392 75.0546 38.4725C75.217 38.3232 75.5008 38.2893 75.7031 38.3761C75.9201 38.469 75.9765 38.8952 75.901 39.0932C75.6302 39.8024 75.8663 40.6583 76.355 41.0169Z" fill="#E7E6F1"/>
<path d="M76.3555 41.0187C76.3555 41.0187 76.7079 41.5535 77.1341 41.9198C77.24 42.0101 77.326 42.1229 77.4658 42.0769C78.1498 41.8555 79.5857 40.655 79.8669 39.9006C79.9685 39.628 79.7654 39.2921 79.6056 39.0802L79.3113 38.7226C79.2836 38.7651 79.1386 39.3059 78.8998 39.6558C78.3512 40.4631 77.3399 40.8789 76.3555 41.0187Z" fill="#E7E6F1"/>
<path d="M71.8277 53.4439C71.7851 53.3397 71.7851 53.2251 71.8372 53.1053C71.918 52.923 72.0638 52.745 72.2678 52.7025C72.4171 52.6713 72.5664 52.6435 72.7131 52.6044C72.8451 52.5706 72.977 52.5827 73.1099 52.5463C73.3825 52.4716 73.6125 52.2928 73.866 52.1738C74.0735 52.0766 74.4172 51.9768 74.6455 52.0237C74.9129 52.0766 75.1699 52.2172 75.3713 52.3987C75.5284 52.541 75.656 52.7147 75.7463 52.9057C75.8331 53.0888 75.9355 53.2572 75.7211 53.3675C75.3765 53.5446 74.9954 53.6453 74.6412 53.8154C74.2888 53.9856 73.9233 54.1644 73.5248 54.174C73.1246 54.1844 72.7427 54.0238 72.3755 53.8658C72.2357 53.8059 72.095 53.7451 71.9804 53.6461L71.8277 53.4439Z" fill="#FFC7AD"/>
<path d="M62.957 51.7015L68.5233 54.8553L76.0376 52.403L70.4722 49.25L62.957 51.7015Z" fill="white"/>
<path d="M70.4514 49.4679L63.4536 51.7519L68.5468 54.6375L75.5445 52.3535L70.4514 49.4679ZM62.4648 51.6521L70.4957 49.0313L76.5333 52.4533L68.5034 55.0732L62.4648 51.6521Z" fill="#35353F"/>
<path d="M72.1453 53.2008L72.0541 53.1331C71.7798 52.824 72.3441 52.6105 72.562 52.5827C72.7929 52.5523 73.0038 52.607 73.2191 52.5106C73.4422 52.4108 73.6463 52.278 73.8676 52.1738C74.1202 52.0549 74.3468 52.0497 74.6125 52.0254C74.9328 51.9976 75.2731 51.9802 75.425 52.3336C75.5231 52.5601 75.4692 52.8336 75.3208 53.0298C75.1724 53.226 74.9415 53.3484 74.701 53.3996C74.4605 53.4499 74.2105 53.4352 73.9674 53.3952C73.7383 53.357 73.5099 53.3024 73.2877 53.2399C73.0655 53.1774 72.8094 53.1878 72.5811 53.2164C72.4891 53.2277 72.397 53.2451 72.3041 53.2399L72.1453 53.2008Z" fill="#FFC7AD"/>
<path d="M76.0213 51.211C76.6507 50.9167 77.2775 50.6155 77.893 50.2908C78.7246 49.8524 79.6908 49.4028 80.2412 48.6076C80.7221 47.9122 80.8749 47.0181 80.8176 46.1873C80.7673 45.459 80.578 44.7524 80.3809 44.0527C80.1986 43.4025 79.9538 42.7809 80.0788 42.0977C80.1552 41.6793 80.321 41.2496 80.6813 40.9874C81.223 40.5933 81.8828 40.4787 82.4149 40.8928C83.2075 41.51 83.4523 42.4423 83.658 43.3747C83.9141 44.5319 84.1016 45.7177 84.0304 46.907C83.9046 49.0139 82.8021 50.5339 81.144 51.7614C80.2646 52.4125 79.2776 52.9186 78.2341 53.2502C77.7124 53.4151 75.7227 54.0358 75.3451 53.1643C75.2348 52.9082 75.0959 52.5957 75.076 52.3144C75.0352 51.7119 75.7201 51.3525 76.0213 51.211Z" fill="#E7E6F1"/>
<path d="M67.2892 49.7457C67.3378 50.1337 67.4229 50.5183 67.5418 50.8907C67.5678 50.9723 67.5974 51.0556 67.6512 51.1216C67.7059 51.1885 67.7918 51.2362 67.8778 51.2232C67.9706 51.2093 68.0427 51.1303 68.0748 51.0435C68.133 50.8855 68.0826 50.7153 68.047 50.553C68.0105 50.3915 67.9949 50.2032 68.1043 50.0747L68.2901 49.921C68.5123 49.7231 68.4898 49.3368 68.2701 49.1423C68.0739 48.9687 67.7232 48.9427 67.4836 49.0581C67.2154 49.1857 67.257 49.4922 67.2892 49.7457Z" fill="#FFC7AD"/>
<path d="M76.107 34.5191C76.4985 34.6268 76.8458 34.8933 77.0446 35.2474C77.1922 35.5096 77.259 35.8039 77.3684 36.0817C77.4222 36.2163 77.483 36.3482 77.568 36.4671L77.7556 36.7293C77.8658 36.7901 78.1401 36.7154 78.2556 36.6876C78.444 36.6425 78.648 36.5678 78.8225 36.6529C78.9978 36.7388 79.0673 36.9559 79.0655 37.1512L79.0924 37.3682C79.1463 37.4672 79.2227 37.4385 79.2869 37.3899L79.5213 37.2076C79.5951 37.1269 79.6463 37.0279 79.7071 36.9376C79.8243 36.7623 79.9223 36.5748 80.0074 36.3821C80.3746 35.5582 80.5022 34.6354 80.4128 33.7404C80.2123 31.7325 78.7764 31.5337 78.7764 31.5337C78.7764 31.5337 78.0351 30.5736 76.4326 30.8531C75.5896 31.0007 74.7945 31.3809 74.1338 31.9183L74.0549 31.9834C73.7363 32.2525 73.4402 32.5633 73.2588 32.94C72.9541 33.5711 73.317 34.4393 73.6677 34.9948C74.0184 34.7639 74.4394 34.6719 74.8492 34.5833C75.206 34.507 75.5714 34.4297 75.9326 34.4826L76.107 34.5191Z" fill="#15151A"/>
<path d="M73.9201 36.9525C73.9774 36.6895 74.132 36.3648 74.0955 36.0966C74.0651 35.8674 73.9088 35.685 73.8073 35.4845C73.6024 35.0791 73.5746 34.6928 73.6311 34.2623C73.8507 34.4098 74.0764 34.5235 74.3446 34.5548C74.7552 34.6017 75.1624 34.4654 75.5617 34.3577C75.961 34.2501 76.3959 34.1702 76.7805 34.3239C77.1008 34.4506 77.3457 34.7302 77.4872 35.0444C77.6044 35.3031 77.6929 35.6321 77.686 35.9186C77.6807 36.1417 77.6052 36.3856 77.7554 36.587C77.8474 36.712 77.962 36.7164 78.0679 36.6678C78.66 35.9229 78.2624 35.4524 78.9525 35.3187C79.5159 35.2085 79.7486 35.8951 79.4274 36.4898C79.3336 36.6625 78.3058 38.338 77.2406 39.0967C76.883 39.3519 75.8682 39.7417 75.6381 39.7582C75.4532 39.7721 75.27 39.7764 75.1034 39.6957C74.434 39.3719 74.6641 38.5073 74.2405 37.9934C74.1502 37.8857 74.0443 37.7894 73.9766 37.6661C73.8585 37.4534 73.8707 37.1912 73.9201 36.9525Z" fill="#FFC7AD"/>
<path d="M63.8516 14.0754C63.8568 13.0415 64.3672 12.4347 65.0148 12.0379V11.4173L65.5227 11.1239V11.755C65.9289 11.5484 66.3005 11.4164 66.5809 11.3435V12.1317C66.238 12.3019 65.4697 12.7038 65.2544 12.8288C64.8916 13.0284 64.6823 13.1995 64.6823 13.6752V13.933C64.6823 14.3167 64.8455 14.3479 65.1555 14.1691L65.711 13.8479C66.5757 13.3488 66.7406 14.0702 66.7406 14.6544V15.0069C66.7406 16.1745 66.1243 16.7969 65.5227 17.1337V17.7257L65.0148 18.0183V17.4097C64.5599 17.6459 64.3116 17.7292 63.9878 17.803V17.0243C64.2248 16.9028 64.8213 16.6068 65.3734 16.2873C65.6234 16.1432 65.9098 15.9114 65.9098 15.5225V15.2378C65.9098 14.9374 65.8326 14.7889 65.5157 14.9721L64.9723 15.2855C63.9601 15.8698 63.8516 14.9756 63.8516 14.532V14.0754Z" fill="#35353F"/>
<path d="M67.4639 8.45441C66.8293 8.45441 66.1201 8.66967 65.3813 9.09591C62.7501 10.6151 60.6102 14.3219 60.6102 17.3603C60.6102 18.7935 61.0851 19.8578 61.9471 20.3552C62.8091 20.8526 63.9672 20.732 65.2094 20.0149C67.8398 18.4957 69.9805 14.7889 69.9805 11.7515C69.9805 10.3174 69.5057 9.25304 68.6437 8.75562C68.2947 8.55422 67.8962 8.45441 67.4639 8.45441ZM63.126 21.0028C62.6338 21.0028 62.1772 20.8873 61.7744 20.6538C60.8012 20.093 60.2656 18.9228 60.2656 17.3603C60.2648 14.2125 62.4827 10.3712 65.2094 8.79644C66.5628 8.01514 67.8442 7.89446 68.8164 8.457C69.7896 9.01866 70.3252 10.1889 70.3252 11.7515C70.3252 14.8992 68.108 18.7405 65.3813 20.3144C64.5887 20.7719 63.8213 21.0028 63.126 21.0028Z" fill="#35353F"/>
<path d="M67.9497 7.0481C67.1658 7.0481 66.2916 7.31286 65.381 7.83893C62.1499 9.70448 59.5213 14.2577 59.5213 17.9888C59.5213 19.758 60.109 21.0723 61.1768 21.6886C62.2445 22.305 63.676 22.1574 65.2091 21.2728C68.4402 19.4064 71.0688 14.8532 71.0688 11.1221C71.0688 9.35292 70.4811 8.03861 69.4133 7.42225C68.9801 7.17224 68.4862 7.0481 67.9497 7.0481ZM62.6387 22.4092C62.0431 22.4092 61.491 22.2694 61.004 21.9873C59.8251 21.3067 59.1758 19.8864 59.1758 17.9888C59.1758 14.1474 61.8825 9.46057 65.2091 7.53946C66.8533 6.59062 68.408 6.44304 69.5861 7.12363C70.7649 7.80422 71.4143 9.22444 71.4143 11.1221C71.4143 14.9635 68.7075 19.6512 65.381 21.5714C64.4174 22.1279 63.4833 22.4092 62.6387 22.4092Z" fill="#35353F"/>
<path d="M28.5626 84.9976C28.5626 86.5558 27.3768 87.7633 26.0251 88.5429C22.6595 90.4857 17.2174 90.4857 13.8734 88.5429C12.8699 87.9595 12.1676 87.2677 11.77 86.5324L11.7657 86.5254C11.5712 86.1643 11.4506 85.7945 11.4019 85.4212C11.3585 85.1339 11.3681 82.7405 11.3681 82.7917C11.3733 84.0574 12.2041 85.3205 13.8665 86.2876C17.2104 88.2304 22.6525 88.2304 26.0208 86.2876C27.711 85.3101 28.5565 82.7474 28.5565 82.7474L28.5626 84.9976Z" fill="#FFCC00"/>
<path d="M13.9038 79.2473C10.5373 81.191 10.5191 84.3422 13.8648 86.2867C17.2096 88.2304 22.6508 88.2304 26.0182 86.2867C29.3856 84.3431 29.4029 81.191 26.0572 79.2473C22.7124 77.3027 17.2712 77.3027 13.9038 79.2473Z" fill="#FFE042"/>
<path d="M27.145 83.1494C26.9922 84.0878 26.2917 85.0028 25.0485 85.7233C22.2203 87.3554 17.6514 87.3554 14.8431 85.7216C13.6165 85.0098 12.9299 84.1043 12.7788 83.1746C12.5809 81.974 13.2814 80.73 14.8753 79.8107C17.7027 78.1787 22.2724 78.1787 25.0824 79.8107C26.6537 80.7248 27.3403 81.9566 27.145 83.1494Z" fill="#FCAA2D"/>
<path d="M27.1435 83.1494C26.9908 84.0878 26.2902 85.0028 25.0471 85.7233C22.2188 87.3554 17.65 87.3554 14.8417 85.7216C13.615 85.0098 12.9284 84.1043 12.7773 83.1746C12.9301 82.2362 13.6307 81.3221 14.8738 80.6033C17.7012 78.9695 22.2709 78.9695 25.081 80.6033C26.305 81.3151 26.9925 82.2197 27.1435 83.1494Z" fill="#FCAA2D"/>
<path d="M24.5222 80.6832L24.5205 81.2648L23.5586 81.823L23.5603 81.2414L24.5222 80.6832Z" fill="#FCAA2D"/>
<path d="M24.6246 82.2318L24.6229 82.8134L23.2227 83.2926L23.2244 82.711L24.6246 82.2318Z" fill="#FCAA2D"/>
<path d="M20.3789 82.3186L20.3806 81.737L20.4041 81.6345C20.4336 81.5703 20.4987 81.5095 20.5968 81.4514C20.7574 81.3585 20.9527 81.3211 21.1811 81.3394C21.4102 81.3567 21.6741 81.4514 21.9727 81.6241C22.2705 81.796 22.524 81.9783 22.7332 82.1702C22.9407 82.362 23.1048 82.5417 23.2228 82.711L23.2211 83.2926C23.103 83.1233 22.9389 82.9436 22.7315 82.7518C22.5223 82.5599 22.2688 82.3776 21.971 82.2057C21.6724 82.033 21.4085 81.9384 21.1793 81.9201C20.951 81.9028 20.7557 81.9401 20.5951 82.033C20.497 82.0911 20.4319 82.1519 20.4023 82.2161L20.3789 82.3186Z" fill="#FCAA2D"/>
<mask id="mask0_1478_15001" style="mask-type:luminance" maskUnits="userSpaceOnUse" x="20" y="81" width="4" height="3">
<path d="M20.3867 82.3187L20.3885 81.7371L20.4119 81.6346C20.4414 81.5704 20.5065 81.5088 20.6046 81.4515C20.7652 81.3586 20.9606 81.3213 21.1889 81.3395C21.418 81.3569 21.6819 81.4515 21.9805 81.6242C22.2783 81.7961 22.5318 81.9784 22.741 82.1703C22.9485 82.3621 23.1126 82.5418 23.2306 82.7111L23.2289 83.2927C23.1108 83.1234 22.9468 82.9437 22.7393 82.7519C22.5301 82.56 22.2766 82.3777 21.9788 82.2059C21.6802 82.0331 21.4163 81.9393 21.1871 81.9203C20.9588 81.9029 20.7635 81.9402 20.6029 82.0331C20.5048 82.0913 20.4397 82.152 20.4102 82.2163L20.3867 82.3187Z" fill="white"/>
</mask>
<g mask="url(#mask0_1478_15001)">
<path d="M23.2306 82.7111L23.2289 83.2927C23.1108 83.1234 22.9468 82.9437 22.7393 82.7519C22.5301 82.56 22.2766 82.3777 21.9788 82.2059C21.6802 82.0331 21.4163 81.9385 21.1871 81.9203C20.9588 81.9029 20.7635 81.9402 20.6029 82.0331C20.5048 82.0913 20.4397 82.152 20.4102 82.2163L20.3867 82.3187L20.3885 81.7371L20.4119 81.6346C20.4414 81.5704 20.5065 81.5096 20.6046 81.4515C20.7652 81.3586 20.9606 81.3213 21.1889 81.3395C21.418 81.3569 21.6819 81.4515 21.9805 81.6242C22.2783 81.7961 22.5318 81.9784 22.741 82.1703C22.9485 82.3621 23.1126 82.5418 23.2306 82.7111Z" fill="#FCAA2D"/>
</g>
<path d="M19.5725 83.6147L19.5717 84.1963L19.5378 84.0296C19.5005 83.9289 19.4345 83.8135 19.3373 83.6832C19.24 83.5513 19.1237 83.4037 18.9866 83.2379C18.8555 83.0773 18.7374 82.9141 18.6306 82.7483C18.5247 82.5842 18.4562 82.4184 18.4284 82.2509L18.418 82.1293L18.4197 81.5477L18.4301 81.6693C18.4579 81.8368 18.5265 82.0026 18.6324 82.1667C18.7391 82.3325 18.8572 82.4957 18.9883 82.6563C19.1255 82.8221 19.2418 82.9697 19.339 83.1016C19.4354 83.2318 19.5022 83.3473 19.5395 83.448L19.5725 83.6147Z" fill="#FCAA2D"/>
<mask id="mask1_1478_15001" style="mask-type:luminance" maskUnits="userSpaceOnUse" x="18" y="81" width="2" height="4">
<path d="M19.5773 83.6148L19.5756 84.1964L19.5417 84.0297C19.5044 83.929 19.4384 83.8136 19.3412 83.6825C19.244 83.5514 19.1276 83.4038 18.9905 83.238C18.8594 83.0774 18.7413 82.9142 18.6354 82.7484C18.5286 82.5844 18.4601 82.4185 18.4323 82.251L18.4219 82.1295L18.4236 81.5478L18.434 81.6694C18.4618 81.8369 18.5304 82.0027 18.6363 82.1668C18.743 82.3326 18.8611 82.4958 18.9922 82.6564C19.1294 82.8222 19.2457 82.9698 19.3429 83.1017C19.4393 83.232 19.5061 83.3474 19.5435 83.4481L19.5773 83.6148Z" fill="white"/>
</mask>
<g mask="url(#mask1_1478_15001)">
<path d="M19.5764 83.6148L19.5756 84.1964L19.5417 84.0297C19.5044 83.929 19.4384 83.8136 19.3412 83.6834C19.244 83.5514 19.1276 83.4038 18.9905 83.238C18.8594 83.0774 18.7413 82.9142 18.6345 82.7484C18.5286 82.5844 18.4601 82.4185 18.4323 82.251L18.4219 82.1295L18.4236 81.5478L18.434 81.6694C18.4618 81.8369 18.5304 82.0027 18.6363 82.1668C18.743 82.3326 18.8611 82.4958 18.9922 82.6564C19.1294 82.8222 19.2457 82.9698 19.3429 83.1017C19.4393 83.232 19.5061 83.3474 19.5435 83.4481L19.5764 83.6148Z" fill="#FCAA2D"/>
</g>
<path d="M16.2562 84.1251L16.2544 84.7068C15.8386 84.4238 15.5408 84.1712 15.3585 83.9481C15.1788 83.7258 15.053 83.5557 14.9844 83.4376L14.9861 82.856C15.0547 82.974 15.1806 83.1442 15.3603 83.3664C15.5426 83.5895 15.8404 83.8421 16.2562 84.1251Z" fill="#FCAA2D"/>
<mask id="mask2_1478_15001" style="mask-type:luminance" maskUnits="userSpaceOnUse" x="14" y="82" width="3" height="3">
<path d="M16.264 84.125L16.2623 84.7067C15.8464 84.4237 15.5486 84.171 15.3663 83.9479C15.1858 83.7257 15.0608 83.5556 14.9922 83.4375L14.9939 82.8559C15.0625 82.9739 15.1884 83.1441 15.3681 83.3663C15.5504 83.5894 15.8482 83.842 16.264 84.125Z" fill="white"/>
</mask>
<g mask="url(#mask2_1478_15001)">
<path d="M16.264 84.125L16.2623 84.7067C15.8464 84.4237 15.5486 84.171 15.3663 83.9479C15.1866 83.7257 15.0608 83.5556 14.9922 83.4375L14.9939 82.8559C15.0625 82.9739 15.1884 83.1441 15.3681 83.3663C15.5504 83.5894 15.8482 83.842 16.264 84.125Z" fill="#FCAA2D"/>
</g>
<path d="M21.4954 83.7996L21.4937 84.3813C21.4928 84.5367 21.4477 84.6877 21.3574 84.8344C21.2498 85.008 21.0614 85.1738 20.7897 85.3318C20.6048 85.4395 20.393 85.5289 20.1551 85.6035C19.9181 85.6765 19.656 85.7207 19.3712 85.7346C19.0874 85.7485 18.7852 85.7286 18.4658 85.673C18.1463 85.6166 17.8103 85.5159 17.457 85.3683L17.4588 84.7867C17.8121 84.9342 18.1489 85.0349 18.4675 85.0914C18.787 85.1469 19.0891 85.1669 19.373 85.153C19.6577 85.1391 19.9198 85.0948 20.1568 85.0219C20.3947 84.9481 20.6065 84.857 20.7914 84.7502C21.0623 84.5922 21.2515 84.4273 21.3592 84.2537C21.4495 84.1061 21.4946 83.955 21.4954 83.7996Z" fill="#FCAA2D"/>
<mask id="mask3_1478_15001" style="mask-type:luminance" maskUnits="userSpaceOnUse" x="17" y="83" width="5" height="3">
<path d="M21.4994 83.7995L21.4976 84.3812C21.4967 84.5365 21.4516 84.6876 21.3613 84.8343C21.2537 85.0079 21.0653 85.1737 20.7936 85.3317C20.6087 85.4394 20.3969 85.5288 20.159 85.6026C19.922 85.6763 19.6599 85.7198 19.3751 85.7345C19.0913 85.7484 18.7891 85.7284 18.4697 85.6729C18.1502 85.6165 17.8143 85.5158 17.4609 85.3682L17.4627 84.7865C17.816 84.9341 18.152 85.0348 18.4714 85.0913C18.7909 85.1468 19.093 85.1668 19.3769 85.1529C19.6616 85.139 19.9229 85.0947 20.1607 85.0218C20.3986 84.948 20.6104 84.8577 20.7953 84.7501C21.0662 84.5921 21.2554 84.4272 21.3631 84.2535C21.4534 84.106 21.4985 83.9549 21.4994 83.7995Z" fill="white"/>
</mask>
<g mask="url(#mask3_1478_15001)">
<path d="M21.4994 83.7995L21.4976 84.3812C21.4967 84.5365 21.4516 84.6876 21.3613 84.8343C21.2537 85.0079 21.0653 85.1737 20.7936 85.3317C20.6087 85.4394 20.3969 85.5288 20.159 85.6034C19.922 85.6763 19.6599 85.7206 19.3751 85.7345C19.0913 85.7484 18.7891 85.7284 18.4697 85.6729C18.1502 85.6165 17.8143 85.5158 17.4609 85.3682L17.4627 84.7865C17.816 84.9341 18.1528 85.0348 18.4714 85.0913C18.7909 85.1468 19.093 85.1668 19.3769 85.1529C19.6616 85.139 19.9238 85.0947 20.1607 85.0218C20.3986 84.948 20.6104 84.8569 20.7953 84.7501C21.0662 84.5921 21.2554 84.4272 21.3631 84.2535C21.4534 84.106 21.4985 83.9549 21.4994 83.7995Z" fill="#FCAA2D"/>
</g>
<path d="M17.4592 84.7866L17.4575 85.3682L16.3281 86.0254L16.3299 85.4438L17.4592 84.7866Z" fill="#FCAA2D"/>
<path d="M24.5227 80.6832L23.5608 81.2414C23.8525 81.4471 24.0843 81.6346 24.2553 81.8039C24.4272 81.9749 24.5504 82.1173 24.6251 82.2319L23.2249 82.7111C23.1068 82.5418 22.9427 82.3621 22.7352 82.1702C22.526 81.9784 22.2725 81.7961 21.9748 81.6242C21.6761 81.4514 21.4123 81.3568 21.1831 81.3395C20.9548 81.3212 20.7595 81.3586 20.5989 81.4514C20.5008 81.5096 20.4356 81.5704 20.4061 81.6346C20.3749 81.6997 20.3749 81.7735 20.4061 81.8551C20.4374 81.9384 20.4903 82.0305 20.5658 82.1346C20.6405 82.2397 20.7369 82.3621 20.8558 82.5018C21.0294 82.7163 21.1744 82.9255 21.2899 83.1286C21.4053 83.3317 21.4722 83.5253 21.493 83.712C21.5121 83.8986 21.4687 84.0792 21.361 84.2537C21.2534 84.4273 21.0641 84.5922 20.7933 84.7502C20.6084 84.857 20.3966 84.9482 20.1587 85.0219C19.9217 85.0949 19.6596 85.1391 19.3748 85.153C19.091 85.1669 18.7888 85.147 18.4694 85.0914C18.1508 85.035 17.814 84.9343 17.4606 84.7867L16.3313 85.4438L15.1567 84.765L16.2583 84.1252C15.8425 83.8422 15.5447 83.5896 15.3624 83.3665C15.1827 83.1442 15.0569 82.9741 14.9883 82.856L16.4537 82.4689C16.5665 82.6555 16.7297 82.8604 16.9441 83.0852C17.1603 83.3092 17.4346 83.5175 17.7697 83.7111C18.149 83.9307 18.459 84.0505 18.7003 84.0714C18.9425 84.0939 19.1552 84.0505 19.341 83.942C19.4582 83.8743 19.5311 83.8005 19.558 83.7189C19.5858 83.6391 19.5797 83.5479 19.5415 83.4481C19.5042 83.3474 19.4373 83.2319 19.341 83.1017C19.2437 82.9698 19.1274 82.8222 18.9902 82.6564C18.8592 82.4958 18.7411 82.3326 18.6343 82.1668C18.5284 82.0027 18.4599 81.8369 18.4321 81.6693C18.4026 81.5027 18.4347 81.3377 18.5267 81.1728C18.6178 81.007 18.7967 80.8472 19.0623 80.6936C19.2654 80.5747 19.4911 80.4783 19.7386 80.4036C19.9851 80.3281 20.249 80.2812 20.5268 80.263C20.8055 80.2456 21.098 80.263 21.4053 80.3142C21.7118 80.3663 22.026 80.4566 22.3498 80.586L23.349 80.0043L24.5227 80.6832Z" fill="#FFE042"/>
<path d="M16.3286 85.4438L16.3269 86.0254L15.1523 85.3465L15.1541 84.7649L16.3286 85.4438Z" fill="#FCAA2D"/>
<path d="M27.9996 81.6501C28.0005 83.2084 26.8138 84.4168 25.4631 85.1954C22.0966 87.1391 16.6553 87.1391 13.3105 85.1954C12.3069 84.6121 11.6046 83.9202 11.2079 83.1849L11.2027 83.178C11.0083 82.8177 10.8876 82.447 10.839 82.0737C10.7964 81.7873 10.8051 79.393 10.806 79.4451C10.8103 80.71 11.642 81.973 13.3035 82.9401C16.6483 84.8838 22.0905 84.8838 25.4578 82.9401C27.148 81.9635 27.9944 79.4 27.9944 79.4L27.9996 81.6501Z" fill="#FFCC00"/>
<path d="M13.3418 75.8998C9.97439 77.8435 9.95703 80.9956 13.3018 82.9393C16.6466 84.8838 22.0888 84.8838 25.4553 82.9393C28.8226 80.9956 28.84 77.8435 25.4952 75.8998C22.1495 73.9562 16.7091 73.9562 13.3418 75.8998Z" fill="#FFE042"/>
<path d="M26.5823 79.8029C26.4295 80.7413 25.729 81.6563 24.4858 82.3768C21.6576 84.0088 17.0887 84.0088 14.2804 82.375C13.0538 81.6632 12.3671 80.7578 12.216 79.828C12.019 78.6266 12.7195 77.3835 14.3125 76.4633C17.1408 74.8312 21.7096 74.8312 24.5197 76.4633C26.0909 77.3783 26.7785 78.6101 26.5823 79.8029Z" fill="#FCAA2D"/>
<path d="M26.5811 79.8029C26.4283 80.7413 25.7277 81.6563 24.4846 82.3768C21.6564 84.0088 17.0875 84.0088 14.2792 82.375C13.0526 81.6632 12.3659 80.7578 12.2148 79.828C12.3676 78.8896 13.0682 77.9746 14.3113 77.2558C17.1396 75.6229 21.7084 75.6229 24.5185 77.2558C25.7433 77.9677 26.43 78.8731 26.5811 79.8029Z" fill="#FCAA2D"/>
<path d="M23.9597 77.3357L23.958 77.9174L22.9961 78.4764L22.997 77.8948L23.9597 77.3357Z" fill="#FCAA2D"/>
<path d="M24.0612 78.8852L24.0604 79.466L22.6602 79.9452L22.6619 79.3644L24.0612 78.8852Z" fill="#FCAA2D"/>
<path d="M19.8203 78.9721L19.8221 78.3904L19.8455 78.288C19.875 78.2229 19.9401 78.1621 20.0391 78.1048C20.1988 78.0119 20.3941 77.9746 20.6233 77.992C20.8516 78.0102 21.1155 78.1048 21.415 78.2776C21.7127 78.4495 21.9662 78.6318 22.1746 78.8227C22.382 79.0155 22.547 79.1952 22.6651 79.3644L22.6633 79.9452C22.5453 79.7768 22.3803 79.5971 22.1728 79.4044C21.9645 79.2125 21.711 79.0311 21.4132 78.8583C21.1138 78.6864 20.8499 78.5918 20.6216 78.5736C20.3924 78.5562 20.1971 78.5936 20.0373 78.6864C19.9384 78.7437 19.8733 78.8045 19.8438 78.8696L19.8203 78.9721Z" fill="#FCAA2D"/>
<mask id="mask4_1478_15001" style="mask-type:luminance" maskUnits="userSpaceOnUse" x="19" y="77" width="4" height="3">
<path d="M19.8125 78.9722L19.8142 78.3905L19.8377 78.2881C19.8672 78.223 19.9323 78.1622 20.0313 78.1049C20.191 78.0121 20.3863 77.9747 20.6155 77.9921C20.8438 78.0103 21.1077 78.1049 21.4072 78.2777C21.7049 78.4496 21.9584 78.6319 22.1668 78.8237C22.3742 79.0156 22.5383 79.1953 22.6564 79.3646L22.6555 79.9453C22.5375 79.7769 22.3725 79.5972 22.165 79.4045C21.9567 79.2126 21.7032 79.0312 21.4054 78.8593C21.1059 78.6866 20.8421 78.5919 20.6138 78.5737C20.3846 78.5563 20.1893 78.5937 20.0295 78.6866C19.9306 78.7439 19.8655 78.8046 19.8359 78.8697L19.8125 78.9722Z" fill="white"/>
</mask>
<g mask="url(#mask4_1478_15001)">
<path d="M22.6573 79.3646L22.6555 79.9453C22.5375 79.7769 22.3725 79.5972 22.165 79.4045C21.9567 79.2126 21.7032 79.0312 21.4054 78.8584C21.1059 78.6866 20.8421 78.5919 20.6138 78.5737C20.3846 78.5563 20.1893 78.5937 20.0295 78.6866C19.9306 78.7439 19.8655 78.8046 19.8359 78.8697L19.8125 78.9722L19.8142 78.3905L19.8377 78.2881C19.8672 78.223 19.9323 78.1622 20.0313 78.1049C20.191 78.0121 20.3863 77.9747 20.6155 77.9921C20.8438 78.0103 21.1077 78.1049 21.4072 78.2777C21.7049 78.4496 21.9584 78.6319 22.1668 78.8229C22.3742 79.0156 22.5392 79.1953 22.6573 79.3646Z" fill="#FCAA2D"/>
</g>
<path d="M19.0148 80.2673L19.0131 80.8489L18.9801 80.6822C18.9419 80.5824 18.876 80.4661 18.7787 80.3358C18.6824 80.2039 18.566 80.0563 18.4289 79.8914C18.2969 79.7299 18.1788 79.5667 18.0729 79.4018C17.9661 79.2377 17.8984 79.071 17.8698 78.9043L17.8594 78.7828L17.8611 78.2012L17.8715 78.3227C17.9002 78.4894 17.9679 78.6561 18.0747 78.8201C18.1806 78.9851 18.2986 79.1491 18.4306 79.3097C18.5678 79.4747 18.6841 79.6231 18.7805 79.7542C18.8777 79.8844 18.9436 80.0008 18.981 80.1006L19.0148 80.2673Z" fill="#FCAA2D"/>
<mask id="mask5_1478_15001" style="mask-type:luminance" maskUnits="userSpaceOnUse" x="17" y="78" width="3" height="3">
<path d="M19.007 80.2681L19.0053 80.8489L18.9723 80.6822C18.9341 80.5824 18.8681 80.4661 18.7709 80.3358C18.6746 80.2039 18.5582 80.0563 18.421 79.8914C18.2891 79.7308 18.171 79.5667 18.0651 79.4018C17.9583 79.2377 17.8906 79.071 17.862 78.9043L17.8516 78.7828L17.8533 78.2012L17.8637 78.3227C17.8924 78.4894 17.9601 78.6561 18.0669 78.8201C18.1728 78.9851 18.2908 79.1483 18.4228 79.3097C18.5599 79.4747 18.6754 79.6231 18.7726 79.7542C18.8699 79.8844 18.9358 79.9999 18.9731 80.1006L19.007 80.2681Z" fill="white"/>
</mask>
<g mask="url(#mask5_1478_15001)">
<path d="M19.007 80.2673L19.0053 80.8489L18.9723 80.6822C18.9341 80.5824 18.8681 80.4661 18.7709 80.3358C18.6746 80.2039 18.5582 80.0563 18.421 79.8914C18.2891 79.7299 18.171 79.5667 18.0651 79.4018C17.9583 79.2377 17.8906 79.071 17.862 78.9043L17.8516 78.7828L17.8533 78.2012L17.8637 78.3227C17.8924 78.4894 17.9601 78.6561 18.0669 78.8201C18.1728 78.9851 18.2908 79.1491 18.4228 79.3097C18.5599 79.4747 18.6763 79.6231 18.7726 79.7542C18.8699 79.8844 18.9358 80.0008 18.9731 80.1006L19.007 80.2673Z" fill="#FCAA2D"/>
</g>
<path d="M15.6975 80.7786L15.6958 81.3602C15.2809 81.0772 14.9822 80.8237 14.7999 80.6015C14.6202 80.3793 14.4952 80.2091 14.4258 80.0911L14.4275 79.5094C14.4961 79.6275 14.622 79.7977 14.8017 80.0199C14.984 80.2421 15.2826 80.4956 15.6975 80.7786Z" fill="#FCAA2D"/>
<mask id="mask6_1478_15001" style="mask-type:luminance" maskUnits="userSpaceOnUse" x="14" y="79" width="2" height="3">
<path d="M15.6936 80.7786L15.6928 81.3602C15.277 81.0772 14.9783 80.8237 14.796 80.6015C14.6163 80.3793 14.4905 80.2091 14.4219 80.0911L14.4236 79.5094C14.4922 79.6275 14.6181 79.7977 14.7978 80.0199C14.9801 80.2421 15.2787 80.4956 15.6936 80.7786Z" fill="white"/>
</mask>
<g mask="url(#mask6_1478_15001)">
<path d="M15.6936 80.7786L15.6919 81.3602C15.2769 81.0772 14.9783 80.8237 14.796 80.6015C14.6163 80.3793 14.4913 80.2091 14.4219 80.0911L14.4236 79.5094C14.4922 79.6275 14.6181 79.7977 14.7978 80.0199C14.9801 80.2421 15.2787 80.4956 15.6936 80.7786Z" fill="#FCAA2D"/>
</g>
<path d="M20.9369 80.4531L20.9351 81.0347C20.9351 81.1901 20.89 81.3412 20.7997 81.4879C20.6912 81.6615 20.5028 81.8273 20.2311 81.9844C20.0462 82.0921 19.8343 82.1824 19.5974 82.2562C19.3595 82.3299 19.0973 82.3734 18.8135 82.3872C18.5287 82.402 18.2266 82.3811 17.908 82.3265C17.5886 82.27 17.2518 82.1685 16.8984 82.0218L16.901 81.4401C17.2535 81.5868 17.5903 81.6884 17.9089 81.7448C18.2284 81.7995 18.5305 81.8204 18.8152 81.8056C19.0991 81.7917 19.3612 81.7483 19.5991 81.6745C19.8361 81.6007 20.0479 81.5105 20.2328 81.4028C20.5045 81.2457 20.6929 81.0799 20.8014 80.9063C20.8917 80.7595 20.9369 80.6085 20.9369 80.4531Z" fill="#FCAA2D"/>
<mask id="mask7_1478_15001" style="mask-type:luminance" maskUnits="userSpaceOnUse" x="16" y="80" width="5" height="3">
<path d="M20.929 80.453L20.9273 81.0346C20.9273 81.19 20.8822 81.341 20.7919 81.4878C20.6834 81.6614 20.495 81.8272 20.2233 81.9843C20.0384 82.092 19.8265 82.1822 19.5895 82.256C19.3517 82.3298 19.0895 82.3732 18.8057 82.3871C18.5209 82.4019 18.2188 82.381 17.9002 82.3263C17.5808 82.2699 17.2439 82.1683 16.8906 82.0216L16.8924 81.44C17.2457 81.5876 17.5825 81.6883 17.9011 81.7447C18.2206 81.7994 18.5227 81.8202 18.8074 81.8055C19.0913 81.7916 19.3534 81.7482 19.5913 81.6744C19.8283 81.6006 20.0401 81.5103 20.225 81.4036C20.4967 81.2456 20.6851 81.0798 20.7936 80.9061C20.8839 80.7594 20.929 80.6084 20.929 80.453Z" fill="white"/>
</mask>
<g mask="url(#mask7_1478_15001)">
<path d="M20.929 80.453L20.9273 81.0346C20.9273 81.19 20.8822 81.341 20.7919 81.4878C20.6834 81.6614 20.495 81.8272 20.2233 81.9843C20.0384 82.092 19.8265 82.1822 19.5895 82.256C19.3517 82.3298 19.0895 82.3732 18.8057 82.3871C18.5209 82.4019 18.2188 82.381 17.9002 82.3263C17.5808 82.2699 17.2439 82.1683 16.8906 82.0216L16.8932 81.44C17.2457 81.5867 17.5825 81.6883 17.9011 81.7447C18.2206 81.7994 18.5227 81.8202 18.8074 81.8055C19.0913 81.7916 19.3534 81.7482 19.5913 81.6744C19.8283 81.6006 20.0401 81.5103 20.225 81.4027C20.4967 81.2456 20.6851 81.0798 20.7936 80.9061C20.8839 80.7594 20.929 80.6084 20.929 80.453Z" fill="#FCAA2D"/>
</g>
<path d="M16.9006 81.4401L16.8981 82.0217L15.7695 82.678L15.7704 82.0964L16.9006 81.4401Z" fill="#FCAA2D"/>
<path d="M23.961 77.3358L22.9983 77.8948C23.2908 78.1006 23.5218 78.2872 23.6928 78.4574C23.8647 78.6275 23.9879 78.7707 24.0626 78.8853L22.6632 79.3645C22.5452 79.1952 22.3802 79.0155 22.1727 78.8228C21.9644 78.6318 21.7109 78.4495 21.4131 78.2777C21.1136 78.1049 20.8497 78.0103 20.6214 77.992C20.3923 77.9747 20.1969 78.012 20.0372 78.1049C19.9382 78.1622 19.8731 78.223 19.8436 78.2881C19.8124 78.3523 19.8124 78.4261 19.8436 78.5086C19.8757 78.591 19.9287 78.6839 20.0033 78.7881C20.0789 78.8923 20.1743 79.0147 20.2933 79.1544C20.4669 79.3697 20.6119 79.5789 20.7273 79.7821C20.8428 79.9844 20.9105 80.1788 20.9304 80.3654C20.9495 80.5512 20.9062 80.7318 20.7994 80.9063C20.6909 81.0799 20.5025 81.2457 20.2308 81.4028C20.0459 81.5105 19.834 81.6007 19.5971 81.6745C19.3592 81.7483 19.097 81.7917 18.8132 81.8056C18.5284 81.8204 18.2263 81.7995 17.9069 81.7448C17.5883 81.6884 17.2514 81.5869 16.899 81.4401L15.7687 82.0964L14.595 81.4184L15.6958 80.7787C15.2809 80.4957 14.9822 80.2422 14.7999 80.0199C14.6202 79.7977 14.4944 79.6275 14.4258 79.5095L15.8911 79.1223C16.004 79.309 16.1672 79.513 16.3825 79.7378C16.5978 79.9618 16.8721 80.171 17.208 80.3646C17.5865 80.5833 17.8965 80.704 18.1387 80.7248C18.38 80.7465 18.5936 80.7031 18.7785 80.5955C18.8957 80.5278 18.9686 80.4531 18.9955 80.3724C19.0233 80.2916 19.0171 80.2014 18.979 80.1007C18.9416 80.0008 18.8757 79.8845 18.7785 79.7543C18.6821 79.6232 18.5657 79.4748 18.4286 79.3098C18.2966 79.1492 18.1786 78.9852 18.0727 78.8202C17.9659 78.6561 17.8982 78.4895 17.8695 78.3228C17.8409 78.1561 17.8721 77.9903 17.9641 77.8254C18.0562 77.6604 18.235 77.5007 18.4998 77.3462C18.7038 77.2281 18.9286 77.1318 19.1769 77.0571C19.4234 76.9807 19.6874 76.9338 19.9651 76.9165C20.2438 76.8991 20.5363 76.9156 20.8436 76.9677C21.1492 77.0189 21.4643 77.1101 21.7873 77.2385L22.7865 76.6578L23.961 77.3358Z" fill="#FFE042"/>
<path d="M15.7692 82.0964L15.7683 82.678L14.5938 82L14.5955 81.4184L15.7692 82.0964Z" fill="#FCAA2D"/>
<path d="M29.8399 78.874C29.8399 80.4322 28.6541 81.6406 27.3024 82.4193C23.9368 84.363 18.4947 84.363 15.1508 82.4193C14.1472 81.836 13.4449 81.1441 13.0473 80.4088L13.043 80.4018C12.8486 80.0416 12.7279 79.6718 12.6793 79.2976C12.6359 79.0111 12.6454 76.6169 12.6454 76.669C12.6506 77.9338 13.4814 79.1969 15.1438 80.164C18.4877 82.1077 23.9299 82.1077 27.2981 80.164C28.9883 79.1874 29.8338 76.6239 29.8338 76.6239L29.8399 78.874Z" fill="#FFCC00"/>
<path d="M29.8364 76.669C29.8234 77.3973 29.5422 78.1257 28.9805 78.7924C28.5681 79.2881 28.0065 79.7534 27.2955 80.1622C23.9307 82.1059 18.4895 82.1059 15.1455 80.1622C14.4398 79.749 13.8824 79.2881 13.4744 78.7924C12.9258 78.1213 12.6489 77.3973 12.6445 76.669C12.6445 76.0283 12.8511 75.392 13.2722 74.7913C13.6932 74.181 14.3339 73.615 15.1855 73.1237C18.5511 71.18 23.9915 71.18 27.3354 73.1237C28.1827 73.615 28.8138 74.1854 29.2313 74.7913C29.6437 75.392 29.8451 76.0327 29.8364 76.669Z" fill="#FFE042"/>
<path d="M28.4215 77.0266C28.2696 77.965 27.5691 78.88 26.3259 79.6005C23.4977 81.2326 18.9288 81.2326 16.1205 79.5988C14.8939 78.887 14.2072 77.9815 14.0561 77.0518C13.8582 75.8503 14.5588 74.6072 16.1526 73.687C18.9801 72.0558 23.5497 72.0558 26.3598 73.687C27.931 74.602 28.6177 75.8338 28.4215 77.0266Z" fill="#FCAA2D"/>
<path d="M28.42 77.0266C28.2681 77.965 27.5676 78.88 26.3245 79.6005C23.4962 81.2326 18.9274 81.2326 16.1191 79.5988C14.8924 78.887 14.2057 77.9815 14.0547 77.0518C14.2075 76.1134 14.9072 75.1984 16.1512 74.4796C18.9786 72.8467 23.5483 72.8467 26.3583 74.4796C27.5823 75.1923 28.2699 76.0969 28.42 77.0266Z" fill="#FFCC00"/>
<path d="M17.9692 75.4094L17.9675 75.9424L16.9258 75.3408L16.9267 74.8078L17.9692 75.4094Z" fill="#FCAA2D"/>
<path d="M19.0938 76.6638L19.0946 76.1308L19.1024 76.0701C19.1372 75.9416 19.3255 75.7766 19.6702 75.577C19.9766 75.399 20.3056 75.254 20.6598 75.1394C21.014 75.0266 21.3378 74.9398 21.6338 74.8816L21.6329 75.4146C21.3369 75.4737 21.0123 75.5605 20.6581 75.6733C20.3048 75.787 19.9749 75.932 19.6684 76.11C19.3247 76.3105 19.1354 76.4746 19.1016 76.6031L19.0938 76.6638Z" fill="#FCAA2D"/>
<mask id="mask8_1478_15001" style="mask-type:luminance" maskUnits="userSpaceOnUse" x="19" y="74" width="3" height="3">
<path d="M19.0938 76.6638L19.0955 76.1308L19.1033 76.0701C19.138 75.9416 19.3264 75.7766 19.671 75.577C19.9775 75.399 20.3065 75.254 20.6607 75.1394C21.0148 75.0266 21.3387 74.9398 21.6347 74.8816L21.6338 75.4146C21.3378 75.4737 21.0131 75.5605 20.6589 75.6733C20.3056 75.787 19.9757 75.932 19.6693 76.11C19.3247 76.3105 19.1363 76.4746 19.1024 76.6031L19.0938 76.6638Z" fill="white"/>
</mask>
<g mask="url(#mask8_1478_15001)">
<path d="M21.6377 74.8815L21.6369 75.4145C21.3408 75.4735 21.0162 75.5603 20.662 75.6732C20.3087 75.7869 19.9788 75.9319 19.6724 76.1099C19.3286 76.3104 19.1394 76.4745 19.1055 76.6029L19.0977 76.6637L19.0985 76.1307L19.1063 76.0699C19.1411 75.9414 19.3295 75.7765 19.6741 75.5768C19.9805 75.3989 20.3095 75.2539 20.6637 75.1393C21.0179 75.0265 21.3417 74.9396 21.6377 74.8815Z" fill="#FCAA2D"/>
</g>
<path d="M23.4444 77.341L23.4426 77.874C23.4426 77.7759 23.3801 77.6917 23.2551 77.6188C23.1648 77.5667 23.0676 77.532 22.966 77.5155C22.8636 77.499 22.7473 77.499 22.6162 77.5155C22.4868 77.532 22.3384 77.5597 22.1743 77.5997C22.0102 77.6387 21.8175 77.6899 21.5953 77.7516C21.2558 77.8436 20.9251 77.92 20.6048 77.9799C20.2845 78.0415 19.9763 78.0763 19.6811 78.0867C19.386 78.0962 19.1012 78.0728 18.826 78.0155C18.55 77.9582 18.2861 77.8566 18.0361 77.7125C17.8659 77.6136 17.7218 77.5007 17.6055 77.374C17.4883 77.2481 17.4171 77.1092 17.3937 76.9581L17.3867 76.86L17.3885 76.3262L17.3954 76.4251C17.4188 76.5762 17.4892 76.7151 17.6072 76.8409C17.7235 76.9677 17.8668 77.0805 18.0369 77.1786C18.2878 77.3236 18.5517 77.4252 18.8278 77.4825C19.1021 77.5398 19.3868 77.5632 19.6829 77.5536C19.9772 77.5432 20.2862 77.5085 20.6065 77.4469C20.926 77.387 21.2567 77.3106 21.597 77.2186C21.8192 77.1569 22.012 77.1057 22.176 77.0667C22.3401 77.0267 22.4886 76.9989 22.6179 76.9825C22.749 76.966 22.8653 76.966 22.9678 76.9825C23.0693 76.9989 23.1657 77.0337 23.2568 77.0858C23.3818 77.1578 23.4444 77.2429 23.4444 77.341Z" fill="#FCAA2D"/>
<mask id="mask9_1478_15001" style="mask-type:luminance" maskUnits="userSpaceOnUse" x="17" y="76" width="7" height="3">
<path d="M23.4405 77.3408L23.4387 77.8739C23.4387 77.7758 23.3762 77.6916 23.2512 77.6186C23.1609 77.5665 23.0637 77.5318 22.9621 77.5153C22.8597 77.4988 22.7434 77.4988 22.6123 77.5153C22.4829 77.5318 22.3345 77.5596 22.1704 77.5995C22.0063 77.6386 21.8136 77.689 21.5914 77.7515C21.2519 77.8435 20.9212 77.9199 20.6009 77.9798C20.2806 78.0414 19.9724 78.0761 19.6772 78.0866C19.3821 78.0961 19.0973 78.0727 18.8221 78.0154C18.5461 77.9581 18.2822 77.8565 18.0322 77.7115C17.862 77.6134 17.7179 77.5006 17.6016 77.3738C17.4844 77.248 17.4132 77.1091 17.3898 76.958L17.3828 76.859L17.3846 76.3269L17.3915 76.425C17.4149 76.5752 17.4853 76.7149 17.6033 76.8408C17.7196 76.9676 17.8629 77.0804 18.033 77.1794C18.2839 77.3235 18.5478 77.4251 18.8239 77.4824C19.0982 77.5397 19.3829 77.5631 19.679 77.5535C19.9732 77.5431 20.2823 77.5084 20.6026 77.4468C20.9221 77.3869 21.2528 77.3105 21.5931 77.2185C21.8153 77.1559 22.0081 77.1056 22.1713 77.0665C22.3362 77.0266 22.4847 76.9988 22.614 76.9823C22.7451 76.9658 22.8614 76.9658 22.9638 76.9823C23.0654 76.9988 23.1618 77.0327 23.2529 77.0856C23.3779 77.1577 23.4405 77.2427 23.4405 77.3408Z" fill="white"/>
</mask>
<g mask="url(#mask9_1478_15001)">
<path d="M23.4405 77.3408L23.4387 77.8739C23.4387 77.7758 23.3762 77.6916 23.2512 77.6186C23.1609 77.5665 23.0637 77.5318 22.9621 77.5153C22.8597 77.4988 22.7434 77.4988 22.6123 77.5153C22.4829 77.5318 22.3345 77.5596 22.1704 77.5995C22.0063 77.6386 21.8136 77.6898 21.5914 77.7515C21.2519 77.8435 20.9212 77.9199 20.6009 77.9798C20.2806 78.0414 19.9724 78.0761 19.6772 78.0866C19.3821 78.0961 19.0973 78.0727 18.8221 78.0154C18.5461 77.9581 18.2822 77.8565 18.0322 77.7124C17.862 77.6134 17.7179 77.5006 17.6016 77.3738C17.4844 77.248 17.4132 77.1091 17.3898 76.958L17.3828 76.8599L17.3846 76.326L17.3915 76.425C17.4149 76.576 17.4853 76.7149 17.6033 76.8408C17.7196 76.9676 17.8629 77.0804 18.033 77.1785C18.2839 77.3235 18.5478 77.4251 18.8239 77.4824C19.0982 77.5397 19.3829 77.5631 19.679 77.5535C19.9732 77.5431 20.2823 77.5084 20.6026 77.4468C20.9221 77.3869 21.2528 77.3105 21.5931 77.2185C21.8153 77.1568 22.0081 77.1056 22.1721 77.0665C22.3362 77.0266 22.4847 76.9988 22.614 76.9823C22.7451 76.9658 22.8614 76.9658 22.9638 76.9823C23.0654 76.9988 23.1618 77.0335 23.2529 77.0856C23.3779 77.1577 23.4405 77.2428 23.4405 77.3408Z" fill="#FCAA2D"/>
</g>
<path d="M25.1472 77.1725L25.1454 77.7055C25.1454 77.8166 25.1151 77.9312 25.0552 78.051C24.9736 78.2133 24.832 78.38 24.6289 78.551L24.6306 78.018C24.8329 77.847 24.9753 77.6803 25.0569 77.518C25.1168 77.3982 25.1463 77.2836 25.1472 77.1725Z" fill="#FCAA2D"/>
<mask id="mask10_1478_15001" style="mask-type:luminance" maskUnits="userSpaceOnUse" x="24" y="77" width="2" height="2">
<path d="M25.155 77.1726L25.1533 77.7056C25.1533 77.8167 25.1229 77.9313 25.063 78.0511C24.9814 78.2135 24.8399 78.3801 24.6367 78.5511L24.6385 78.0181C24.8407 77.8463 24.9831 77.6804 25.0647 77.5181C25.1246 77.3983 25.1541 77.2837 25.155 77.1726Z" fill="white"/>
</mask>
<g mask="url(#mask10_1478_15001)">
<path d="M25.155 77.1726L25.1533 77.7056C25.1533 77.8167 25.1229 77.9313 25.063 78.0511C24.9814 78.2135 24.8399 78.3801 24.6367 78.5511L24.6385 78.0181C24.8407 77.8471 24.9831 77.6804 25.0647 77.5181C25.1246 77.3983 25.1541 77.2837 25.155 77.1726Z" fill="#FCAA2D"/>
</g>
<path d="M24.4836 79.1717L24.4818 79.7047L23.5938 79.1925L23.5955 78.6595L24.4836 79.1717Z" fill="#FCAA2D"/>
<path d="M25.5556 78.5501L25.5539 79.0832L24.4844 79.7047L24.4861 79.1717L25.5556 78.5501Z" fill="#FCAA2D"/>
<path d="M23.5956 78.6596L23.5938 79.1926C23.2709 79.3463 22.9757 79.4687 22.7066 79.5598C22.4366 79.6501 22.2127 79.7143 22.0312 79.7543L22.033 79.2212C22.2144 79.1813 22.4384 79.1171 22.7075 79.0259C22.9766 78.9356 23.2726 78.8132 23.5956 78.6596Z" fill="#FCAA2D"/>
<mask id="mask11_1478_15001" style="mask-type:luminance" maskUnits="userSpaceOnUse" x="22" y="78" width="2" height="2">
<path d="M23.5995 78.6586L23.5977 79.1925C23.2748 79.3461 22.9796 79.4685 22.7105 79.5597C22.4405 79.65 22.2166 79.7142 22.0352 79.7542L22.0369 79.2211C22.2183 79.1812 22.4423 79.117 22.7114 79.0258C22.9805 78.9355 23.2765 78.8131 23.5995 78.6586Z" fill="white"/>
</mask>
<g mask="url(#mask11_1478_15001)">
<path d="M23.5995 78.6595L23.5977 79.1925C23.2748 79.3461 22.9796 79.4685 22.7105 79.5597C22.4405 79.65 22.2166 79.7142 22.0352 79.7542L22.0369 79.2211C22.2183 79.1812 22.4423 79.117 22.7114 79.0258C22.9805 78.9355 23.2765 78.8131 23.5995 78.6595Z" fill="#FCAA2D"/>
</g>
<path d="M21.0171 74.102L21.6352 74.8815C21.3392 74.9397 21.0154 75.0265 20.6612 75.1394C20.307 75.254 19.978 75.3989 19.6716 75.5769C19.3269 75.7766 19.1386 75.9415 19.1038 76.07C19.0717 76.1985 19.1394 76.3113 19.3104 76.4103C19.4189 76.4728 19.537 76.511 19.6646 76.5258C19.7931 76.5405 19.9355 76.5379 20.0952 76.5188C20.2541 76.4988 20.4364 76.4632 20.643 76.412C20.8496 76.3617 21.084 76.3 21.3453 76.228C21.5996 76.1585 21.8583 76.096 22.1179 76.0405C22.3783 75.984 22.6405 75.9493 22.9053 75.9346C23.1692 75.9198 23.4313 75.9363 23.6926 75.9858C23.9539 76.0353 24.2074 76.1308 24.4522 76.2723C24.6397 76.3799 24.7943 76.5006 24.9141 76.6325C25.033 76.7627 25.1085 76.9034 25.1371 77.0509C25.1675 77.1994 25.1406 77.3539 25.059 77.518C24.9774 77.6803 24.835 77.847 24.6328 78.018L25.5547 78.5502L24.4852 79.1717L23.5972 78.6595C23.2742 78.8132 22.9782 78.9356 22.7091 79.0259C22.44 79.117 22.216 79.1813 22.0346 79.2212L21.2724 78.4764C21.5389 78.4139 21.8227 78.3279 22.1266 78.2177C22.4295 78.1074 22.7169 77.9729 22.9877 77.8157C23.2595 77.6577 23.4088 77.518 23.4365 77.3956C23.4643 77.2741 23.4036 77.1716 23.256 77.0857C23.1648 77.0336 23.0685 76.9989 22.9669 76.9824C22.8645 76.9659 22.7481 76.9659 22.6171 76.9824C22.4877 76.9989 22.3392 77.0266 22.1752 77.0666C22.0111 77.1056 21.8184 77.1569 21.5962 77.2185C21.2559 77.3105 20.9251 77.3869 20.6056 77.4468C20.2853 77.5084 19.9763 77.5432 19.682 77.5536C19.386 77.5631 19.1012 77.5397 18.8269 77.4824C18.5509 77.4251 18.287 77.3235 18.0361 77.1786C17.8659 77.0805 17.7227 76.9676 17.6064 76.8409C17.4883 76.715 17.418 76.5761 17.3945 76.425C17.372 76.2731 17.4032 76.1134 17.49 75.9441C17.5777 75.7748 17.7366 75.5969 17.9684 75.4094L16.9258 74.8078L17.9953 74.1862L19.0118 74.773C19.4598 74.5525 19.8591 74.3945 20.2098 74.2999C20.5614 74.2044 20.8305 74.1376 21.0171 74.102Z" fill="#FFE042"/>
<path d="M22.0335 79.2212L22.0317 79.7543L21.2695 79.0094L21.2713 78.4764L22.0335 79.2212Z" fill="#FCAA2D"/>
</svg>
