<svg width="16" height="16" viewBox="0 0 16 16" fill="none" xmlns="http://www.w3.org/2000/svg">
<path fill-rule="evenodd" clip-rule="evenodd" d="M14.3491 10.15L12.9991 8.8V6.5C12.9958 3.92882 11.0557 1.7732 8.49907 1.5V0.5H7.49907V1.5C4.95129 1.79045 3.02047 3.93581 2.99907 6.5V8.8L1.64907 10.15C1.55031 10.2391 1.4955 10.367 1.49907 10.5V12C1.49013 12.1352 1.53993 12.2676 1.63571 12.3634C1.73148 12.4591 1.86392 12.5089 1.99907 12.5H5.49907C5.49907 13.8807 6.61836 15 7.99907 15C9.37979 15 10.4991 13.8807 10.4991 12.5H13.9991C14.1342 12.5089 14.2667 12.4591 14.3624 12.3634C14.4582 12.2676 14.508 12.1352 14.4991 12V10.5C14.5026 10.367 14.4478 10.2391 14.3491 10.15ZM7.99907 14C7.17065 14 6.49907 13.3284 6.49907 12.5H9.49907C9.49907 13.3284 8.8275 14 7.99907 14ZM13.4991 11.5H2.49907V10.7L3.84907 9.35C3.94784 9.26087 4.00264 9.13299 3.99907 9V6.5C3.99907 4.29086 5.78993 2.5 7.99907 2.5C10.2082 2.5 11.9991 4.29086 11.9991 6.5V9C11.9955 9.13299 12.0503 9.26087 12.1491 9.35L13.4991 10.7V11.5Z" fill="#041C34"/>
</svg>
