<svg width="16" height="16" viewBox="0 0 16 16" fill="none" xmlns="http://www.w3.org/2000/svg">
<g clip-path="url(#clip0_1665_5364)">
<path d="M8.71531 8.00001L10.8753 5.84001C10.9481 5.75499 10.9862 5.64562 10.9818 5.53377C10.9775 5.42191 10.9312 5.31581 10.852 5.23665C10.7729 5.1575 10.6667 5.11113 10.5549 5.10681C10.443 5.10249 10.3337 5.14054 10.2486 5.21335L8.08864 7.35113L5.91531 5.17779C5.83029 5.10498 5.72092 5.06693 5.60906 5.07125C5.49721 5.07557 5.3911 5.12194 5.31195 5.2011C5.23279 5.28025 5.18642 5.38636 5.1821 5.49821C5.17778 5.61007 5.21583 5.71944 5.28864 5.80446L7.45753 8.00001L5.33309 10.0978C5.28656 10.1376 5.24878 10.1867 5.2221 10.2418C5.19542 10.2969 5.18043 10.357 5.17807 10.4182C5.1757 10.4794 5.18602 10.5405 5.20836 10.5975C5.2307 10.6545 5.2646 10.7063 5.30791 10.7496C5.35122 10.793 5.40302 10.8268 5.46005 10.8492C5.51709 10.8715 5.57812 10.8818 5.63933 10.8795C5.70054 10.8771 5.7606 10.8621 5.81574 10.8354C5.87088 10.8088 5.91991 10.771 5.95975 10.7245L8.07975 8.60446L10.1864 10.7111C10.2714 10.7839 10.3808 10.822 10.4927 10.8177C10.6045 10.8133 10.7106 10.767 10.7898 10.6878C10.8689 10.6087 10.9153 10.5026 10.9196 10.3907C10.9239 10.2788 10.8859 10.1695 10.8131 10.0845L8.71531 8.00001Z" fill="#7E1C1C"/>
<path d="M7.99979 15.1111C6.59334 15.1111 5.21848 14.6941 4.04906 13.9127C2.87965 13.1313 1.9682 12.0207 1.42998 10.7213C0.891753 9.42195 0.750929 7.99214 1.02531 6.61272C1.2997 5.2333 1.97696 3.96622 2.97147 2.97172C3.96598 1.97721 5.23306 1.29994 6.61248 1.02556C7.9919 0.751173 9.42171 0.891997 10.7211 1.43022C12.0205 1.96844 13.1311 2.87989 13.9125 4.04931C14.6938 5.21872 15.1109 6.59359 15.1109 8.00003C15.1109 9.88601 14.3617 11.6948 13.0281 13.0283C11.6945 14.3619 9.88577 15.1111 7.99979 15.1111ZM7.99979 1.77781C6.76915 1.77781 5.56614 2.14274 4.5429 2.82644C3.51967 3.51015 2.72215 4.48193 2.2512 5.61889C1.78026 6.75585 1.65704 8.00693 1.89712 9.21393C2.13721 10.4209 2.72982 11.5296 3.60001 12.3998C4.4702 13.27 5.5789 13.8626 6.78589 14.1027C7.99288 14.3428 9.24397 14.2196 10.3809 13.7486C11.5179 13.2777 12.4897 12.4802 13.1734 11.4569C13.8571 10.4337 14.222 9.23067 14.222 8.00003C14.222 6.34979 13.5665 4.76715 12.3996 3.60025C11.2327 2.43336 9.65002 1.77781 7.99979 1.77781Z" fill="#7E1C1C"/>
</g>
<defs>
<clipPath id="clip0_1665_5364">
<rect width="16" height="16" fill="white"/>
</clipPath>
</defs>
</svg>
