<svg width="20" height="20" viewBox="0 0 20 20" fill="none" xmlns="http://www.w3.org/2000/svg">
<path d="M12.5 2.08337V3.33337C12.5 4.51171 12.5 5.10087 12.8667 5.46671C13.2317 5.83337 13.8208 5.83337 15 5.83337H16.25" stroke="#5B5B5B" stroke-width="1.5" stroke-linecap="round" stroke-linejoin="round"/>
<path d="M6.66927 9.16669H13.3359M6.66927 11.6667H13.3359M6.66927 14.1667H10.1443M3.33594 13.3334V6.66669C3.33594 4.31002 3.33594 3.13085 4.06844 2.39919C4.8001 1.66669 5.97927 1.66669 8.33594 1.66669H11.8126C12.1526 1.66669 12.3234 1.66669 12.4768 1.73002C12.6293 1.79335 12.7501 1.91335 12.9909 2.15502L16.1809 5.34502C16.4226 5.58669 16.5426 5.70669 16.6059 5.86002C16.6693 6.01252 16.6693 6.18335 16.6693 6.52335V13.3334C16.6693 15.69 16.6693 16.8692 15.9368 17.6009C15.2051 18.3334 14.0259 18.3334 11.6693 18.3334H8.33594C5.97927 18.3334 4.8001 18.3334 4.06844 17.6009C3.33594 16.8692 3.33594 15.69 3.33594 13.3334Z" stroke="#5B5B5B" stroke-width="1.5" stroke-linecap="round" stroke-linejoin="round"/>
</svg>
