<svg width="20" height="20" viewBox="0 0 20 20" fill="none" xmlns="http://www.w3.org/2000/svg">
<path d="M12.3233 9.86446V9.94445V11.0778V11.2048L12.1998 11.175C11.1943 10.9321 10.1634 10.8099 9.12896 10.8111H9.12841C7.28265 10.8032 5.45762 11.2002 3.78192 11.9741L12.3233 9.86446ZM12.3233 9.86446L12.2452 9.84689M12.3233 9.86446L12.2452 9.84689M12.2452 9.84689C9.21754 9.16517 6.04989 9.49333 3.22623 10.7812L3.22622 10.7812M12.2452 9.84689L3.22622 10.7812M3.22622 10.7812L3.22462 10.782L3.22622 10.7812ZM3.19553 12.9167H3.19551V16.2222C3.19551 16.3083 3.17855 16.3936 3.1456 16.4731C3.11266 16.5526 3.06437 16.6249 3.0035 16.6858C2.94262 16.7466 2.87036 16.7949 2.79082 16.8279C2.71128 16.8608 2.62604 16.8778 2.53995 16.8778C2.45386 16.8778 2.36861 16.8608 2.28908 16.8279C2.20954 16.7949 2.13727 16.7466 2.0764 16.6858C2.01553 16.6249 1.96724 16.5526 1.93429 16.4731C1.90135 16.3936 1.88439 16.3083 1.88439 16.2222V12.9169V12.9167H1.98439H3.19553ZM3.19553 12.9167L3.19548 12.9144M3.19553 12.9167L3.19548 12.9144M3.19548 12.9144C3.19108 12.7176 3.24423 12.5238 3.3484 12.3568M3.19548 12.9144L3.3484 12.3568M3.3484 12.3568C3.45257 12.1897 3.60322 12.0568 3.78188 11.9741L3.3484 12.3568ZM12.3011 15.1278H12.2011V15.2278V16.0056V16.1056H12.3011H15.7122H15.8122V16.0056V15.2278V15.1278H15.7122H12.3011ZM6.91273 8.69998C7.5687 9.13828 8.33991 9.37223 9.12884 9.37223C10.1868 9.37223 11.2013 8.95197 11.9494 8.20391C12.6975 7.45585 13.1177 6.44126 13.1177 5.38334C13.1177 4.59441 12.8838 3.8232 12.4455 3.16723C12.0072 2.51126 11.3842 1.99999 10.6553 1.69808C9.92645 1.39617 9.12441 1.31718 8.35064 1.47109C7.57688 1.62501 6.86612 2.00491 6.30827 2.56277C5.75041 3.12062 5.37051 3.83137 5.21659 4.60514C5.06268 5.37891 5.14168 6.18094 5.44359 6.90982C5.7455 7.63869 6.25676 8.26167 6.91273 8.69998ZM7.64114 3.20129C8.0815 2.90705 8.59922 2.75 9.12884 2.75C9.48049 2.75 9.8287 2.81927 10.1536 2.95384C10.4785 3.08841 10.7737 3.28565 11.0223 3.53431C11.271 3.78296 11.4682 4.07816 11.6028 4.40304C11.7374 4.72792 11.8066 5.07613 11.8066 5.42778C11.8066 5.9574 11.6496 6.47512 11.3553 6.91547C11.0611 7.35583 10.6429 7.69905 10.1536 7.90173C9.66428 8.1044 9.12587 8.15743 8.60643 8.05411C8.08699 7.95078 7.60986 7.69575 7.23536 7.32126C6.86087 6.94676 6.60584 6.46963 6.50251 5.95019C6.39919 5.43075 6.45222 4.89234 6.65489 4.40304C6.85757 3.91374 7.20079 3.49553 7.64114 3.20129Z" fill="#5B5B5B" stroke="#5B5B5B" stroke-width="0.2"/>
<path d="M15.5573 11.8278H15.4573V11.9278V13.0389V13.1389H15.5573H17.774V17.5889H10.1017V13.1389H13.4017V13.2722C13.4017 13.4461 13.4708 13.6128 13.5937 13.7358C13.7167 13.8587 13.8834 13.9278 14.0573 13.9278C14.2312 13.9278 14.3979 13.8587 14.5208 13.7358C14.6438 13.6128 14.7128 13.4461 14.7128 13.2722V11.1111C14.7128 10.9372 14.6438 10.7705 14.5208 10.6475C14.3979 10.5246 14.2312 10.4555 14.0573 10.4555C13.8834 10.4555 13.7167 10.5246 13.5937 10.6475C13.4708 10.7705 13.4017 10.9372 13.4017 11.1111V11.8278H9.44618C9.27232 11.8278 9.10557 11.8968 8.98263 12.0198C8.85969 12.1427 8.79062 12.3095 8.79062 12.4833V18.2444C8.79062 18.4183 8.85969 18.585 8.98263 18.708C9.10557 18.8309 9.27232 18.9 9.44618 18.9H18.4295C18.6034 18.9 18.7701 18.8309 18.8931 18.708C19.016 18.585 19.0851 18.4183 19.0851 18.2444V12.4833C19.0851 12.3095 19.016 12.1427 18.8931 12.0198C18.7701 11.8968 18.6034 11.8278 18.4295 11.8278H15.5573Z" fill="#5B5B5B" stroke="#5B5B5B" stroke-width="0.2"/>
</svg>
