<svg width="20" height="20" viewBox="0 0 20 20" fill="none" xmlns="http://www.w3.org/2000/svg">
<path d="M18.4192 12.2058C18.1873 11.9738 17.8766 11.8385 17.55 11.826V10.625V10.6249C17.5458 9.06461 17.0601 7.54367 16.1593 6.26972C15.2653 5.00537 14.0056 4.04545 12.55 3.51874V3.125C12.55 2.78022 12.413 2.44956 12.1692 2.20576C11.9254 1.96196 11.5948 1.825 11.25 1.825H8.75C8.40522 1.825 8.07456 1.96196 7.83076 2.20576C7.58696 2.44956 7.45 2.78022 7.45 3.125V3.51874C5.99443 4.04545 4.73475 5.00537 3.84072 6.26972C2.9399 7.54367 2.45423 9.06461 2.45 10.6249V10.625V11.826C2.12339 11.8385 1.81275 11.9738 1.58076 12.2058C1.33696 12.4496 1.2 12.7802 1.2 13.125V15C1.2 15.3448 1.33696 15.6754 1.58076 15.9192C1.82456 16.163 2.15522 16.3 2.5 16.3H17.5C17.8448 16.3 18.1754 16.163 18.4192 15.9192C18.663 15.6754 18.8 15.3448 18.8 15V13.125C18.8 12.7802 18.663 12.4496 18.4192 12.2058ZM16.2 10.6251V11.825H12.55V4.97323C13.6233 5.4613 14.5366 6.2443 15.1829 7.23171C15.8433 8.24055 16.1966 9.41939 16.2 10.6251ZM11.2 3.175V11.825H8.8V3.175H11.2ZM3.8 10.6251C3.8 10.6251 3.8 10.6251 3.8 10.6251C3.80342 9.41934 4.15674 8.24053 4.81709 7.23171C5.46342 6.2443 6.37668 5.4613 7.45 4.97323V11.825H3.8L3.8 10.6251ZM17.45 14.95H2.55V13.175H17.45V14.95Z" fill="#5B5B5B" stroke="#5B5B5B" stroke-width="0.1"/>
</svg>
