<svg width="20" height="20" viewBox="0 0 20 20" fill="none" xmlns="http://www.w3.org/2000/svg">
<path d="M8.33073 9.99996C8.33073 10.221 8.24293 10.4329 8.08665 10.5892C7.93037 10.7455 7.71841 10.8333 7.4974 10.8333C7.27638 10.8333 7.06442 10.7455 6.90814 10.5892C6.75186 10.4329 6.66406 10.221 6.66406 9.99996C6.66406 9.77895 6.75186 9.56698 6.90814 9.4107C7.06442 9.25442 7.27638 9.16663 7.4974 9.16663C7.71841 9.16663 7.93037 9.25442 8.08665 9.4107C8.24293 9.56698 8.33073 9.77895 8.33073 9.99996ZM12.4974 10.8333C12.7184 10.8333 12.9304 10.7455 13.0867 10.5892C13.2429 10.4329 13.3307 10.221 13.3307 9.99996C13.3307 9.77895 13.2429 9.56698 13.0867 9.4107C12.9304 9.25442 12.7184 9.16663 12.4974 9.16663C12.2764 9.16663 12.0644 9.25442 11.9081 9.4107C11.7519 9.56698 11.6641 9.77895 11.6641 9.99996C11.6641 10.221 11.7519 10.4329 11.9081 10.5892C12.0644 10.7455 12.2764 10.8333 12.4974 10.8333Z" fill="#5B5B5B"/>
<path fill-rule="evenodd" clip-rule="evenodd" d="M10.0174 1.66664H9.9974C5.3949 1.66664 1.66406 5.39747 1.66406 9.99997C1.66406 14.6025 5.3949 18.3333 9.9974 18.3333C14.5999 18.3333 18.3307 14.6025 18.3307 9.99997C18.3307 5.6183 14.9491 2.02664 10.6541 1.69164V1.68997C10.4425 1.6741 10.2296 1.66632 10.0174 1.66664ZM9.9974 16.6666C11.0166 16.6669 12.0222 16.4334 12.9371 15.9842C13.8519 15.535 14.6516 14.8821 15.2747 14.0755C15.8977 13.269 16.3276 12.3303 16.5312 11.3317C16.7347 10.3331 16.7067 9.30105 16.4491 8.31497C14.9916 8.41496 13.5334 8.13081 12.2201 7.4909C10.9068 6.851 9.78436 5.87773 8.9649 4.6683C8.34685 5.30017 7.60904 5.80248 6.7946 6.14589C5.98016 6.48929 5.10544 6.66689 4.22156 6.6683C3.63676 7.68189 3.32905 8.83156 3.32936 10.0018C3.32967 11.172 3.638 12.3215 4.22335 13.3347C4.8087 14.348 5.65045 15.1894 6.664 15.7742C7.67755 16.3591 8.8272 16.6669 9.9974 16.6666Z" fill="#5B5B5B"/>
</svg>
