<svg width="20" height="20" viewBox="0 0 20 20" fill="none" xmlns="http://www.w3.org/2000/svg">
<path d="M15.8307 3.33335H14.1641V2.50002C14.1641 2.27901 14.0763 2.06704 13.92 1.91076C13.7637 1.75448 13.5517 1.66669 13.3307 1.66669C13.1097 1.66669 12.8978 1.75448 12.7415 1.91076C12.5852 2.06704 12.4974 2.27901 12.4974 2.50002V3.33335H7.4974V2.50002C7.4974 2.27901 7.4096 2.06704 7.25332 1.91076C7.09704 1.75448 6.88508 1.66669 6.66406 1.66669C6.44305 1.66669 6.23109 1.75448 6.07481 1.91076C5.91853 2.06704 5.83073 2.27901 5.83073 2.50002V3.33335H4.16406C3.50102 3.33335 2.86514 3.59675 2.3963 4.06559C1.92745 4.53443 1.66406 5.17031 1.66406 5.83335V15.8334C1.66406 16.4964 1.92745 17.1323 2.3963 17.6011C2.86514 18.07 3.50102 18.3334 4.16406 18.3334H15.8307C16.4938 18.3334 17.1297 18.07 17.5985 17.6011C18.0673 17.1323 18.3307 16.4964 18.3307 15.8334V5.83335C18.3307 5.17031 18.0673 4.53443 17.5985 4.06559C17.1297 3.59675 16.4938 3.33335 15.8307 3.33335ZM16.6641 15.8334C16.6641 16.0544 16.5763 16.2663 16.42 16.4226C16.2637 16.5789 16.0517 16.6667 15.8307 16.6667H4.16406C3.94305 16.6667 3.73109 16.5789 3.57481 16.4226C3.41853 16.2663 3.33073 16.0544 3.33073 15.8334V10H16.6641V15.8334ZM16.6641 8.33335H3.33073V5.83335C3.33073 5.61234 3.41853 5.40038 3.57481 5.2441C3.73109 5.08782 3.94305 5.00002 4.16406 5.00002H5.83073V5.83335C5.83073 6.05437 5.91853 6.26633 6.07481 6.42261C6.23109 6.57889 6.44305 6.66669 6.66406 6.66669C6.88508 6.66669 7.09704 6.57889 7.25332 6.42261C7.4096 6.26633 7.4974 6.05437 7.4974 5.83335V5.00002H12.4974V5.83335C12.4974 6.05437 12.5852 6.26633 12.7415 6.42261C12.8978 6.57889 13.1097 6.66669 13.3307 6.66669C13.5517 6.66669 13.7637 6.57889 13.92 6.42261C14.0763 6.26633 14.1641 6.05437 14.1641 5.83335V5.00002H15.8307C16.0517 5.00002 16.2637 5.08782 16.42 5.2441C16.5763 5.40038 16.6641 5.61234 16.6641 5.83335V8.33335Z" fill="#5B5B5B"/>
</svg>
