<svg width="20" height="20" viewBox="0 0 20 20" fill="none" xmlns="http://www.w3.org/2000/svg">
<path d="M5 3.125C5 4.1625 4.1625 5 3.125 5C2.0875 5 1.25 4.1625 1.25 3.125C1.25 2.0875 2.0875 1.25 3.125 1.25C4.1625 1.25 5 2.0875 5 3.125ZM3.125 8.125C2.0875 8.125 1.25 8.9625 1.25 10C1.25 11.0375 2.0875 11.875 3.125 11.875C4.1625 11.875 5 11.0375 5 10C5 8.9625 4.1625 8.125 3.125 8.125ZM3.125 15C2.0875 15 1.25 15.8375 1.25 16.875C1.25 17.9125 2.0875 18.75 3.125 18.75C4.1625 18.75 5 17.9125 5 16.875C5 15.8375 4.1625 15 3.125 15ZM16.875 5C17.9125 5 18.75 4.1625 18.75 3.125C18.75 2.0875 17.9125 1.25 16.875 1.25C15.8375 1.25 15 2.0875 15 3.125C15 4.1625 15.8375 5 16.875 5ZM16.875 8.125C15.8375 8.125 15 8.9625 15 10C15 11.0375 15.8375 11.875 16.875 11.875C17.9125 11.875 18.75 11.0375 18.75 10C18.75 8.9625 17.9125 8.125 16.875 8.125ZM16.875 15C15.8375 15 15 15.8375 15 16.875C15 17.9125 15.8375 18.75 16.875 18.75C17.9125 18.75 18.75 17.9125 18.75 16.875C18.75 15.8375 17.9125 15 16.875 15ZM10 15C8.9625 15 8.125 15.8375 8.125 16.875C8.125 17.9125 8.9625 18.75 10 18.75C11.0375 18.75 11.875 17.9125 11.875 16.875C11.875 15.8375 11.0375 15 10 15ZM10 1.25C8.9625 1.25 8.125 2.0875 8.125 3.125C8.125 4.1625 8.9625 5 10 5C11.0375 5 11.875 4.1625 11.875 3.125C11.875 2.0875 11.0375 1.25 10 1.25ZM10 8.125C8.9625 8.125 8.125 8.9625 8.125 10C8.125 11.0375 8.9625 11.875 10 11.875C11.0375 11.875 11.875 11.0375 11.875 10C11.875 8.9625 11.0375 8.125 10 8.125Z" fill="#5B5B5B"/>
</svg>
