<svg width="20" height="20" viewBox="0 0 20 20" fill="none" xmlns="http://www.w3.org/2000/svg">
<g clip-path="url(#clip0_3711_19089)">
<path d="M4.83045 3.29913C3.97045 3.85329 2.40795 3.26579 1.77045 4.19663C1.57628 4.47996 1.67212 4.85496 1.86378 5.60496L3.52212 13.7491C3.89712 15.2141 4.08378 15.9466 4.66628 16.3741C4.90378 16.5491 5.14962 16.6308 5.41378 16.6666M4.83045 3.29913C5.98378 2.55496 4.98878 1.66663 6.66378 1.66663L8.45962 3.07746C9.17545 3.63913 9.53295 3.92079 9.55962 4.31746C9.58628 4.71496 9.27045 5.04663 8.63795 5.70913L8.17628 6.19246C7.86045 6.52329 7.70212 6.68913 7.51295 6.67496C7.32378 6.66079 7.18878 6.47329 6.92128 6.09913L4.83045 3.29913ZM15.1638 3.29913C16.0238 3.85329 17.5863 3.26579 18.2238 4.19663C18.418 4.47996 18.3221 4.85496 18.1305 5.60496L16.4721 13.7491C16.0971 15.2141 15.9105 15.9466 15.3288 16.3741C15.0905 16.5491 14.8438 16.6308 14.5805 16.6666M15.1638 3.29913C14.0105 2.55496 15.0055 1.66663 13.3305 1.66663L11.5346 3.07746C10.8188 3.63913 10.4613 3.92079 10.4346 4.31746C10.408 4.71496 10.7238 5.04663 11.3563 5.70913L11.818 6.19246C12.1338 6.52329 12.2921 6.68913 12.4813 6.67496C12.6705 6.66079 12.8055 6.47329 13.073 6.09913L15.1638 3.29913ZM8.56962 5.83329L9.29462 7.04329C9.46545 7.32663 9.55045 7.46996 9.57628 7.62913C9.60128 7.78913 9.56378 7.95079 9.48962 8.27329L7.95545 14.9508C7.74962 16.1058 8.35962 16.6675 8.95212 17.4091C9.44462 18.0258 9.69128 18.3333 9.99795 18.3333C10.3046 18.3333 10.5513 18.025 11.0438 17.4083C11.6355 16.6683 12.2463 16.1058 12.0405 14.9508L10.5055 8.27329C10.4313 7.95079 10.3946 7.78913 10.4196 7.62913C10.4446 7.46996 10.5305 7.32746 10.7005 7.04329L11.4255 5.83329" stroke="#5B5B5B" stroke-width="1.5" stroke-linecap="round" stroke-linejoin="round"/>
</g>
<defs>
<clipPath id="clip0_3711_19089">
<rect width="20" height="20" fill="white"/>
</clipPath>
</defs>
</svg>
