<svg width="20" height="20" viewBox="0 0 20 20" fill="none" xmlns="http://www.w3.org/2000/svg">
<path d="M12.5 15.8333C12.5 13.9916 10.2617 12.5 7.5 12.5C4.73833 12.5 2.5 13.9916 2.5 15.8333M15.8333 13.3333V10.8333M15.8333 10.8333V8.33331M15.8333 10.8333H13.3333M15.8333 10.8333H18.3333M7.5 9.99998C6.61594 9.99998 5.7681 9.64879 5.14298 9.02367C4.51786 8.39855 4.16667 7.5507 4.16667 6.66665C4.16667 5.78259 4.51786 4.93474 5.14298 4.30962C5.7681 3.6845 6.61594 3.33331 7.5 3.33331C8.38405 3.33331 9.2319 3.6845 9.85702 4.30962C10.4821 4.93474 10.8333 5.78259 10.8333 6.66665C10.8333 7.5507 10.4821 8.39855 9.85702 9.02367C9.2319 9.64879 8.38405 9.99998 7.5 9.99998Z" stroke="#5B5B5B" stroke-width="2" stroke-linecap="round" stroke-linejoin="round"/>
</svg>
