<svg width="20" height="20" viewBox="0 0 20 20" fill="none" xmlns="http://www.w3.org/2000/svg">
<path d="M11.8907 8.70419L14.9974 1.66669M7.76073 8.86002L4.16406 1.66669M10.6324 8.37335L7.3599 1.66669M11.9641 1.66669L11.0974 3.75002M4.9974 13.3334C4.9974 14.6594 5.52418 15.9312 6.46186 16.8689C7.39954 17.8066 8.67131 18.3334 9.9974 18.3334C11.3235 18.3334 12.5952 17.8066 13.5329 16.8689C14.4706 15.9312 14.9974 14.6594 14.9974 13.3334C14.9974 12.0073 14.4706 10.7355 13.5329 9.79782C12.5952 8.86014 11.3235 8.33335 9.9974 8.33335C8.67131 8.33335 7.39954 8.86014 6.46186 9.79782C5.52418 10.7355 4.9974 12.0073 4.9974 13.3334Z" stroke="#5B5B5B" stroke-width="1.5" stroke-linecap="round" stroke-linejoin="round"/>
<path d="M8.75 12.5L10.4167 11.25V15.4167" stroke="#5B5B5B" stroke-width="1.5" stroke-linecap="round" stroke-linejoin="round"/>
</svg>
