<svg width="20" height="20" viewBox="0 0 20 20" fill="none" xmlns="http://www.w3.org/2000/svg">
<g clip-path="url(#clip0_3711_19097)">
<path d="M4.9974 7.49992H3.7474C3.19486 7.49992 2.66496 7.28043 2.27426 6.88972C1.88356 6.49902 1.66406 5.96912 1.66406 5.41659C1.66406 4.86405 1.88356 4.33415 2.27426 3.94345C2.66496 3.55275 3.19486 3.33325 3.7474 3.33325H4.9974M14.9974 7.49992H16.2474C16.7999 7.49992 17.3298 7.28043 17.7205 6.88972C18.1112 6.49902 18.3307 5.96912 18.3307 5.41659C18.3307 4.86405 18.1112 4.33415 17.7205 3.94345C17.3298 3.55275 16.7999 3.33325 16.2474 3.33325H14.9974M3.33073 18.3333H16.6641M8.33073 12.2166V14.1666C8.33073 14.6249 7.93906 14.9833 7.5224 15.1749C6.53906 15.6249 5.83073 16.8666 5.83073 18.3333M11.6641 12.2166V14.1666C11.6641 14.6249 12.0557 14.9833 12.4724 15.1749C13.4557 15.6249 14.1641 16.8666 14.1641 18.3333" stroke="#5B5B5B" stroke-width="1.5" stroke-linecap="round" stroke-linejoin="round"/>
<path d="M15 1.66663H5V7.49996C5 8.82604 5.52678 10.0978 6.46447 11.0355C7.40215 11.9732 8.67392 12.5 10 12.5C11.3261 12.5 12.5979 11.9732 13.5355 11.0355C14.4732 10.0978 15 8.82604 15 7.49996V1.66663Z" stroke="#5B5B5B" stroke-width="1.5" stroke-linecap="round" stroke-linejoin="round"/>
</g>
<defs>
<clipPath id="clip0_3711_19097">
<rect width="20" height="20" fill="white"/>
</clipPath>
</defs>
</svg>
