<svg width="20" height="20" viewBox="0 0 20 20" fill="none" xmlns="http://www.w3.org/2000/svg">
<path d="M3.76819 16.4784C4.6302 15.1561 5.79673 14.1723 7.14735 13.6001C6.08484 12.883 5.32918 11.7901 5.0354 10.5375C4.73649 9.26294 4.93945 7.92392 5.59915 6.79686L3.225 6.00595V11.25C3.225 11.4423 3.14862 11.6267 3.01265 11.7627C2.87669 11.8987 2.69228 11.975 2.5 11.975C2.30772 11.975 2.12331 11.8987 1.98735 11.7627C1.85138 11.6267 1.775 11.4423 1.775 11.25V5.00005C1.775 5.00005 1.775 5.00005 1.775 5.00005C1.77499 4.84788 1.82286 4.69956 1.91183 4.57611C2.0008 4.45266 2.12636 4.36033 2.27072 4.31221L2.27072 4.31221L9.77072 1.81221C9.91955 1.7626 10.0805 1.7626 10.2293 1.81221L17.7293 4.31221L17.7977 4.335V4.34281C17.9133 4.39483 18.0136 4.47645 18.0882 4.57998L18.0071 4.63845M3.76819 16.4784C3.76832 16.4782 3.76846 16.478 3.76859 16.4778L3.85156 16.5336L3.76779 16.479C3.76792 16.4788 3.76805 16.4786 3.76819 16.4784ZM3.76819 16.4784C3.71477 16.558 3.67766 16.6474 3.65899 16.7414C3.64028 16.8356 3.64049 16.9326 3.65961 17.0268C3.67873 17.1209 3.71637 17.2104 3.77035 17.2898C3.82433 17.3693 3.89357 17.4373 3.97404 17.4898C4.05452 17.5423 4.14463 17.5782 4.23913 17.5956C4.33363 17.613 4.43063 17.6114 4.52451 17.5909C4.61839 17.5704 4.70726 17.5315 4.78597 17.4764C4.86447 17.4214 4.93129 17.3515 4.98258 17.2705M4.98258 17.2705C6.14245 15.4914 7.9709 14.475 10 14.475C12.0293 14.475 13.8579 15.4916 15.0178 17.2711L15.0178 17.2711L15.0186 17.2723C15.1249 17.4303 15.2892 17.5402 15.4759 17.5781C15.6625 17.616 15.8566 17.5789 16.0162 17.4748C16.1757 17.3707 16.2879 17.2081 16.3285 17.022C16.369 16.8358 16.3347 16.6412 16.233 16.4802L16.233 16.4802L16.2322 16.479C15.3701 15.1564 14.1992 14.1725 12.8524 13.6002M4.98258 17.2705C4.98245 17.2707 4.98233 17.2709 4.98221 17.2711L4.89844 17.2165M4.98258 17.2705C4.98271 17.2703 4.98284 17.2701 4.98297 17.2699L4.89844 17.2165M12.8524 13.6002C13.9139 12.8832 14.669 11.791 14.9627 10.5392C15.2616 9.26558 15.0593 7.92749 14.4008 6.80079M12.8524 13.6002C12.8191 13.6227 12.7856 13.6448 12.7517 13.6665C14.1054 14.2266 15.2836 15.2068 16.1484 16.5336C16.2362 16.6725 16.2657 16.8402 16.2308 17.0007C16.1958 17.1611 16.0991 17.3013 15.9616 17.391C15.824 17.4808 15.6567 17.5127 15.4958 17.4801C15.3348 17.4474 15.1932 17.3527 15.1016 17.2165C13.9242 15.4102 12.0648 14.375 10 14.375C7.93516 14.375 6.07578 15.4102 4.89844 17.2165M12.8524 13.6002C12.8154 13.5845 12.7784 13.5692 12.7412 13.5541C13.811 12.852 14.5723 11.7652 14.8653 10.5164C15.16 9.26087 14.9578 7.94148 14.3038 6.8331M14.4008 6.80079L17.7293 5.69179C17.8736 5.6437 17.9992 5.55138 18.0882 5.42793L18.0071 5.36945M14.4008 6.80079L14.3038 6.8331M14.4008 6.80079C14.3836 6.77135 14.366 6.74205 14.3482 6.7129L17.6977 5.59692M18.0071 5.36945L18.0882 5.42793C18.1772 5.30448 18.2251 5.15614 18.2251 5.00395C18.2251 4.85176 18.1772 4.70343 18.0882 4.57998L18.0071 4.63845M18.0071 5.36945C17.9304 5.47588 17.8221 5.55546 17.6977 5.59692M18.0071 5.36945C18.0839 5.26302 18.1251 5.13515 18.1251 5.00395C18.1251 4.87275 18.0839 4.74488 18.0071 4.63845M18.0071 4.63845C17.9304 4.53203 17.8221 4.45245 17.6977 4.41098V5.59692M17.6977 5.59692L14.3038 6.8331M14.3038 6.8331L4.02867 17.406C4.09805 17.4513 4.17573 17.4823 4.25719 17.4973C4.33866 17.5122 4.42229 17.5108 4.50322 17.4932C4.58414 17.4756 4.66076 17.442 4.72861 17.3945C4.79646 17.347 4.85418 17.2865 4.89844 17.2165M13.65 9.37507V9.37501C13.6503 8.62061 13.4164 7.88536 12.9814 7.27042L10.2293 8.18476L10.2292 8.18479L10.1977 8.08989C10.0694 8.13266 9.93064 8.13266 9.80234 8.08989L13.65 9.37507ZM13.65 9.37507C13.6502 9.95212 13.5135 10.521 13.2512 11.035C12.989 11.549 12.6086 11.9935 12.1413 12.332C11.674 12.6705 11.133 12.8935 10.5629 12.9824C9.99276 13.0714 9.40964 13.024 8.86139 12.844C8.31314 12.664 7.81538 12.3565 7.40895 11.9469C7.00252 11.5373 6.69901 11.0371 6.52331 10.4875C6.34761 9.93781 6.30473 9.35434 6.3982 8.78491C6.48775 8.23933 6.70002 7.72153 7.01862 7.27044L9.77072 8.18476L13.65 9.37507ZM15.2072 5.00005L10 6.73604L4.79275 5.00005L10 3.26405L15.2072 5.00005Z" fill="#5B5B5B" stroke="#5B5B5B" stroke-width="0.2"/>
</svg>
