<svg width="18" height="18" viewBox="0 0 18 18" fill="none" xmlns="http://www.w3.org/2000/svg">
<path d="M9 17C7.41775 17 5.87103 16.5308 4.55544 15.6518C3.23985 14.7727 2.21447 13.5233 1.60897 12.0615C1.00347 10.5997 0.84504 8.99113 1.15372 7.43928C1.4624 5.88743 2.22433 4.46197 3.34315 3.34315C4.46197 2.22433 5.88743 1.4624 7.43928 1.15372C8.99113 0.84504 10.5997 1.00347 12.0615 1.60897C13.5233 2.21447 14.7727 3.23985 15.6518 4.55544C16.5308 5.87103 17 7.41775 17 9C16.9976 11.121 16.1539 13.1544 14.6542 14.6542C13.1544 16.1539 11.121 16.9976 9 17ZM9 2.14286C7.64379 2.14286 6.31803 2.54502 5.19038 3.2985C4.06273 4.05197 3.18383 5.12291 2.66483 6.37589C2.14583 7.62887 2.01003 9.00761 2.27462 10.3378C2.5392 11.6679 3.19228 12.8897 4.15127 13.8487C5.11026 14.8077 6.33208 15.4608 7.66224 15.7254C8.99239 15.99 10.3711 15.8542 11.6241 15.3352C12.8771 14.8162 13.948 13.9373 14.7015 12.8096C15.455 11.682 15.8571 10.3562 15.8571 9C15.8552 7.18197 15.1321 5.43895 13.8466 4.15341C12.5611 2.86787 10.818 2.1448 9 2.14286ZM9.57143 12.4286H8.42857V9.57143H5.57143V8.42857H8.42857V5.57143H9.57143V8.42857H12.4286V9.57143H9.57143V12.4277V12.4286Z" fill="#32588D"/>
</svg>
