<svg width="14" height="9" viewBox="0 0 14 9" fill="none" xmlns="http://www.w3.org/2000/svg">
<path d="M0.515884 1.14167C0.633073 1.02462 0.791926 0.958883 0.957552 0.958883C1.12318 0.958883 1.28203 1.02462 1.39922 1.14167L6.99922 6.74083L12.5992 1.14083C12.7171 1.02704 12.8751 0.964116 13.0389 0.965617C13.2028 0.967117 13.3595 1.03292 13.4754 1.14886C13.5912 1.26479 13.6568 1.42158 13.6582 1.58546C13.6595 1.74933 13.5965 1.90718 13.4826 2.025L7.44088 8.06667C7.3237 8.18371 7.16484 8.24945 6.99922 8.24945C6.83359 8.24945 6.67474 8.18371 6.55755 8.06667L0.515884 2.025C0.457805 1.96696 0.411733 1.89804 0.380299 1.82219C0.348865 1.74633 0.332685 1.66503 0.332685 1.58292C0.332685 1.50081 0.348865 1.4195 0.380299 1.34365C0.411733 1.26779 0.457805 1.19887 0.515884 1.14083" fill="black"/>
</svg>
