<svg width="48" height="48" viewBox="0 0 48 48" fill="none" xmlns="http://www.w3.org/2000/svg">
<rect width="48" height="48" rx="24" fill="#2956A8"/>
<path d="M32.5822 23.3324L16.0822 15.0824C15.9528 15.0177 15.8076 14.9918 15.6639 15.0078C15.5202 15.0237 15.3841 15.0809 15.2722 15.1724C15.1652 15.262 15.0854 15.3797 15.0417 15.5122C14.998 15.6447 14.9921 15.7867 15.0247 15.9224L17.2447 23.9999L14.9947 32.0549C14.9641 32.1682 14.9605 32.2871 14.9842 32.402C15.008 32.5169 15.0583 32.6247 15.1313 32.7166C15.2042 32.8085 15.2977 32.882 15.4043 32.9312C15.5108 32.9804 15.6274 33.0039 15.7447 32.9999C15.8621 32.9992 15.9777 32.9709 16.0822 32.9174L32.5822 24.6674C32.705 24.6044 32.8081 24.5088 32.8801 24.391C32.9521 24.2733 32.9902 24.1379 32.9902 23.9999C32.9902 23.8618 32.9521 23.7265 32.8801 23.6087C32.8081 23.4909 32.705 23.3953 32.5822 23.3324ZM16.9072 30.8324L18.5647 24.7499H25.4947V23.2499H18.5647L16.9072 17.1674L30.5647 23.9999L16.9072 30.8324Z" fill="white"/>
</svg>
