<svg width="38" height="37" viewBox="0 0 38 37" fill="none" xmlns="http://www.w3.org/2000/svg">
<path d="M9.66667 33.3333H16.3333C16.3333 35.1667 14.8333 36.6667 13 36.6667C11.1667 36.6667 9.66667 35.1667 9.66667 33.3333ZM6.33333 31.6667H19.6667V28.3333H6.33333V31.6667ZM25.5 15.8333C25.5 22.2 21.0667 25.6 19.2167 26.6667H6.78333C4.93333 25.6 0.5 22.2 0.5 15.8333C0.5 8.93333 6.1 3.33333 13 3.33333C19.9 3.33333 25.5 8.93333 25.5 15.8333ZM22.1667 15.8333C22.1667 10.7833 18.05 6.66667 13 6.66667C7.95 6.66667 3.83333 10.7833 3.83333 15.8333C3.83333 19.95 6.31667 22.3167 7.75 23.3333H18.25C19.6833 22.3167 22.1667 19.95 22.1667 15.8333ZM33.6167 12.2833L31.3333 13.3333L33.6167 14.3833L34.6667 16.6667L35.7167 14.3833L38 13.3333L35.7167 12.2833L34.6667 10L33.6167 12.2833ZM29.6667 10L31.2333 6.56667L34.6667 5L31.2333 3.43333L29.6667 0L28.1 3.43333L24.6667 5L28.1 6.56667L29.6667 10Z" fill="#9C9797"/>
</svg>
