<svg width="16" height="16" viewBox="0 0 16 16" fill="none" xmlns="http://www.w3.org/2000/svg">
<path d="M5.66732 9.33341C5.88833 9.33341 6.10029 9.24562 6.25657 9.08934C6.41285 8.93306 6.50065 8.7211 6.50065 8.50008C6.50065 8.27907 6.41285 8.06711 6.25657 7.91083C6.10029 7.75455 5.88833 7.66675 5.66732 7.66675C5.4463 7.66675 5.23434 7.75455 5.07806 7.91083C4.92178 8.06711 4.83398 8.27907 4.83398 8.50008C4.83398 8.7211 4.92178 8.93306 5.07806 9.08934C5.23434 9.24562 5.4463 9.33341 5.66732 9.33341ZM5.66732 11.6667C5.88833 11.6667 6.10029 11.579 6.25657 11.4227C6.41285 11.2664 6.50065 11.0544 6.50065 10.8334C6.50065 10.6124 6.41285 10.4004 6.25657 10.2442C6.10029 10.0879 5.88833 10.0001 5.66732 10.0001C5.4463 10.0001 5.23434 10.0879 5.07806 10.2442C4.92178 10.4004 4.83398 10.6124 4.83398 10.8334C4.83398 11.0544 4.92178 11.2664 5.07806 11.4227C5.23434 11.579 5.4463 11.6667 5.66732 11.6667ZM8.83398 8.50008C8.83398 8.7211 8.74619 8.93306 8.58991 9.08934C8.43363 9.24562 8.22166 9.33341 8.00065 9.33341C7.77964 9.33341 7.56768 9.24562 7.4114 9.08934C7.25512 8.93306 7.16732 8.7211 7.16732 8.50008C7.16732 8.27907 7.25512 8.06711 7.4114 7.91083C7.56768 7.75455 7.77964 7.66675 8.00065 7.66675C8.22166 7.66675 8.43363 7.75455 8.58991 7.91083C8.74619 8.06711 8.83398 8.27907 8.83398 8.50008ZM8.00065 11.6667C8.22166 11.6667 8.43363 11.579 8.58991 11.4227C8.74619 11.2664 8.83398 11.0544 8.83398 10.8334C8.83398 10.6124 8.74619 10.4004 8.58991 10.2442C8.43363 10.0879 8.22166 10.0001 8.00065 10.0001C7.77964 10.0001 7.56768 10.0879 7.4114 10.2442C7.25512 10.4004 7.16732 10.6124 7.16732 10.8334C7.16732 11.0544 7.25512 11.2664 7.4114 11.4227C7.56768 11.579 7.77964 11.6667 8.00065 11.6667ZM11.1673 8.50008C11.1673 8.7211 11.0795 8.93306 10.9232 9.08934C10.767 9.24562 10.555 9.33341 10.334 9.33341C10.113 9.33341 9.90101 9.24562 9.74473 9.08934C9.58845 8.93306 9.50065 8.7211 9.50065 8.50008C9.50065 8.27907 9.58845 8.06711 9.74473 7.91083C9.90101 7.75455 10.113 7.66675 10.334 7.66675C10.555 7.66675 10.767 7.75455 10.9232 7.91083C11.0795 8.06711 11.1673 8.27907 11.1673 8.50008Z" fill="#4C4546"/>
<path fill-rule="evenodd" clip-rule="evenodd" d="M5.33398 2.16675C5.46659 2.16675 5.59377 2.21943 5.68754 2.31319C5.78131 2.40696 5.83398 2.53414 5.83398 2.66675V3.16675H10.1673V2.66675C10.1673 2.53414 10.22 2.40696 10.3138 2.31319C10.4075 2.21943 10.5347 2.16675 10.6673 2.16675C10.7999 2.16675 10.9271 2.21943 11.0209 2.31319C11.1146 2.40696 11.1673 2.53414 11.1673 2.66675V3.17208C11.2687 3.17475 11.3631 3.17964 11.4507 3.18675C11.704 3.20675 11.9413 3.25208 12.166 3.36675C12.511 3.54253 12.7915 3.82305 12.9673 4.16808C13.082 4.39275 13.1273 4.63008 13.1473 4.88341C13.1673 5.12675 13.1673 5.42341 13.1673 5.78008V10.8867C13.1673 11.2434 13.1673 11.5401 13.1473 11.7834C13.1273 12.0367 13.082 12.2741 12.9673 12.4987C12.7917 12.8437 12.5114 13.1242 12.1667 13.3001C11.9413 13.4147 11.704 13.4601 11.4507 13.4801C11.2073 13.5001 10.9107 13.5001 10.5547 13.5001H5.44732C5.09065 13.5001 4.79398 13.5001 4.55065 13.4801C4.29732 13.4601 4.05998 13.4147 3.83532 13.3001C3.49048 13.1246 3.20999 12.8446 3.03398 12.5001C2.91932 12.2747 2.87398 12.0374 2.85398 11.7841C2.83398 11.5407 2.83398 11.2441 2.83398 10.8881V5.78008C2.83398 5.42341 2.83398 5.12675 2.85398 4.88341C2.87398 4.63008 2.91932 4.39275 3.03398 4.16808C3.20976 3.82305 3.49028 3.54253 3.83532 3.36675C4.05998 3.25208 4.29732 3.20675 4.55065 3.18675C4.63821 3.17964 4.73265 3.17475 4.83398 3.17208V2.66675C4.83398 2.60109 4.84692 2.53607 4.87204 2.47541C4.89717 2.41474 4.934 2.35962 4.98043 2.31319C5.02686 2.26677 5.08198 2.22994 5.14264 2.20481C5.20331 2.17968 5.26832 2.16675 5.33398 2.16675ZM12.1673 6.83341H3.83398V10.8667C3.83398 11.2481 3.83398 11.5047 3.85065 11.7014C3.86598 11.8934 3.89398 11.9847 3.92465 12.0447C4.00465 12.2021 4.13198 12.3294 4.28932 12.4094C4.34932 12.4401 4.44065 12.4681 4.63198 12.4834C4.82932 12.4994 5.08532 12.5001 5.46732 12.5001H10.534C10.9153 12.5001 11.172 12.5001 11.3687 12.4834C11.5607 12.4681 11.652 12.4401 11.712 12.4094C11.869 12.3295 11.9967 12.2018 12.0767 12.0447C12.1073 11.9847 12.1353 11.8934 12.1507 11.7014C12.1667 11.5047 12.1673 11.2481 12.1673 10.8667V6.83341ZM7.00065 4.66675C6.86804 4.66675 6.74087 4.71943 6.6471 4.81319C6.55333 4.90696 6.50065 5.03414 6.50065 5.16675C6.50065 5.29936 6.55333 5.42653 6.6471 5.5203C6.74087 5.61407 6.86804 5.66675 7.00065 5.66675H9.00065C9.13326 5.66675 9.26044 5.61407 9.3542 5.5203C9.44797 5.42653 9.50065 5.29936 9.50065 5.16675C9.50065 5.03414 9.44797 4.90696 9.3542 4.81319C9.26044 4.71943 9.13326 4.66675 9.00065 4.66675H7.00065Z" fill="#4C4546"/>
</svg>
