<svg width="19" height="18" viewBox="0 0 19 18" fill="none" xmlns="http://www.w3.org/2000/svg">
<path d="M6.59708 10.1025C6.54558 10.0472 6.48348 10.0029 6.41448 9.97217C6.34548 9.94143 6.271 9.9249 6.19547 9.92356C6.11994 9.92223 6.04492 9.93612 5.97488 9.96441C5.90484 9.99271 5.84121 10.0348 5.7878 10.0882C5.73439 10.1416 5.69228 10.2053 5.66399 10.2753C5.6357 10.3453 5.6218 10.4204 5.62313 10.4959C5.62447 10.5714 5.641 10.6459 5.67174 10.7149C5.70249 10.7839 5.74681 10.846 5.80208 10.8975L8.80208 13.8975C8.90755 14.0028 9.05051 14.062 9.19958 14.062C9.34864 14.062 9.49161 14.0028 9.59708 13.8975L12.5971 10.8975C12.6523 10.846 12.6967 10.7839 12.7274 10.7149C12.7582 10.6459 12.7747 10.5714 12.776 10.4959C12.7774 10.4204 12.7635 10.3453 12.7352 10.2753C12.7069 10.2053 12.6648 10.1416 12.6114 10.0882C12.5579 10.0348 12.4943 9.99271 12.4243 9.96441C12.3542 9.93612 12.2792 9.92223 12.2037 9.92356C12.1282 9.9249 12.0537 9.94143 11.9847 9.97217C11.9157 10.0029 11.8536 10.0472 11.8021 10.1025L9.76208 12.1425V4.87501C9.76208 4.72582 9.70281 4.58275 9.59733 4.47726C9.49184 4.37177 9.34876 4.31251 9.19958 4.31251C9.05039 4.31251 8.90732 4.37177 8.80183 4.47726C8.69634 4.58275 8.63708 4.72582 8.63708 4.87501V12.1425L6.59708 10.1025Z" fill="#B22828"/>
</svg>
