<svg width="21" height="20" viewBox="0 0 21 20" fill="none" xmlns="http://www.w3.org/2000/svg">
<g clip-path="url(#clip0_2297_9423)">
<path d="M19.6361 9.7875C18.901 7.88603 17.6248 6.24164 15.9653 5.05755C14.3058 3.87347 12.3357 3.20161 10.2986 3.125C8.26138 3.20161 6.2913 3.87347 4.63181 5.05755C2.97232 6.24164 1.69616 7.88603 0.961062 9.7875C0.911417 9.92482 0.911417 10.0752 0.961062 10.2125C1.69616 12.114 2.97232 13.7584 4.63181 14.9424C6.2913 16.1265 8.26138 16.7984 10.2986 16.875C12.3357 16.7984 14.3058 16.1265 15.9653 14.9424C17.6248 13.7584 18.901 12.114 19.6361 10.2125C19.6857 10.0752 19.6857 9.92482 19.6361 9.7875ZM10.2986 15.625C6.98606 15.625 3.48606 13.1687 2.21731 10C3.48606 6.83125 6.98606 4.375 10.2986 4.375C13.6111 4.375 17.1111 6.83125 18.3798 10C17.1111 13.1687 13.6111 15.625 10.2986 15.625Z" fill="#2956A8"/>
<path d="M10.2988 6.25C9.55715 6.25 8.83213 6.46993 8.21544 6.88199C7.59876 7.29404 7.11811 7.87971 6.83428 8.56494C6.55045 9.25016 6.47619 10.0042 6.62089 10.7316C6.76558 11.459 7.12273 12.1272 7.64718 12.6517C8.17163 13.1761 8.83981 13.5333 9.56724 13.6779C10.2947 13.8226 11.0487 13.7484 11.7339 13.4645C12.4191 13.1807 13.0048 12.7001 13.4168 12.0834C13.8289 11.4667 14.0488 10.7417 14.0488 10C14.0488 9.00544 13.6537 8.05161 12.9505 7.34835C12.2472 6.64509 11.2934 6.25 10.2988 6.25ZM10.2988 12.5C9.80438 12.5 9.32103 12.3534 8.9099 12.0787C8.49878 11.804 8.17835 11.4135 7.98913 10.9567C7.79991 10.4999 7.7504 9.99723 7.84687 9.51227C7.94333 9.02732 8.18143 8.58186 8.53106 8.23223C8.88069 7.8826 9.32615 7.6445 9.8111 7.54804C10.2961 7.45157 10.7987 7.50108 11.2555 7.6903C11.7124 7.87952 12.1028 8.19995 12.3775 8.61107C12.6522 9.0222 12.7988 9.50555 12.7988 10C12.7988 10.663 12.5354 11.2989 12.0666 11.7678C11.5978 12.2366 10.9619 12.5 10.2988 12.5Z" fill="#2956A8"/>
</g>
<defs>
<clipPath id="clip0_2297_9423">
<rect width="20" height="20" fill="white" transform="translate(0.298828)"/>
</clipPath>
</defs>
</svg>
