<svg width="19" height="18" viewBox="0 0 19 18" fill="none" xmlns="http://www.w3.org/2000/svg">
<path d="M6.59708 7.89749C6.54558 7.95276 6.48348 7.99709 6.41448 8.02783C6.34548 8.05857 6.271 8.0751 6.19547 8.07644C6.11994 8.07777 6.04492 8.06388 5.97488 8.03559C5.90484 8.00729 5.84121 7.96519 5.7878 7.91177C5.73439 7.85836 5.69228 7.79473 5.66399 7.72469C5.6357 7.65465 5.6218 7.57963 5.62313 7.5041C5.62447 7.42857 5.641 7.35409 5.67174 7.28509C5.70249 7.21609 5.74681 7.15399 5.80208 7.10249L8.80208 4.10249C8.90755 3.99716 9.05051 3.93799 9.19958 3.93799C9.34864 3.93799 9.49161 3.99716 9.59708 4.10249L12.5971 7.10249C12.6523 7.15399 12.6967 7.21609 12.7274 7.28509C12.7582 7.35409 12.7747 7.42857 12.776 7.5041C12.7774 7.57963 12.7635 7.65465 12.7352 7.72469C12.7069 7.79473 12.6648 7.85836 12.6114 7.91177C12.5579 7.96519 12.4943 8.00729 12.4243 8.03559C12.3542 8.06388 12.2792 8.07777 12.2037 8.07644C12.1282 8.0751 12.0537 8.05857 11.9847 8.02783C11.9157 7.99709 11.8536 7.95276 11.8021 7.89749L9.76208 5.85749V13.125C9.76208 13.2742 9.70281 13.4173 9.59733 13.5227C9.49184 13.6282 9.34876 13.6875 9.19958 13.6875C9.05039 13.6875 8.90732 13.6282 8.80183 13.5227C8.69634 13.4173 8.63708 13.2742 8.63708 13.125V5.85749L6.59708 7.89749Z" fill="#28A87B"/>
</svg>
