<svg width="20" height="20" viewBox="0 0 20 20" fill="none" xmlns="http://www.w3.org/2000/svg">
<path d="M12.5 2.08325V3.33325C12.5 4.51159 12.5 5.10075 12.8667 5.46659C13.2317 5.83325 13.8208 5.83325 15 5.83325H16.25" stroke="#5B5B5B" stroke-width="1.5" stroke-linecap="round" stroke-linejoin="round"/>
<path d="M6.66683 9.16663H13.3335M6.66683 11.6666H13.3335M6.66683 14.1666H10.1418M3.3335 13.3333V6.66663C3.3335 4.30996 3.3335 3.13079 4.066 2.39913C4.79766 1.66663 5.97683 1.66663 8.3335 1.66663H11.8102C12.1502 1.66663 12.321 1.66663 12.4743 1.72996C12.6268 1.79329 12.7477 1.91329 12.9885 2.15496L16.1785 5.34496C16.4202 5.58663 16.5402 5.70663 16.6035 5.85996C16.6668 6.01246 16.6668 6.18329 16.6668 6.52329V13.3333C16.6668 15.69 16.6668 16.8691 15.9343 17.6008C15.2027 18.3333 14.0235 18.3333 11.6668 18.3333H8.3335C5.97683 18.3333 4.79766 18.3333 4.066 17.6008C3.3335 16.8691 3.3335 15.69 3.3335 13.3333Z" stroke="#5B5B5B" stroke-width="1.5" stroke-linecap="round" stroke-linejoin="round"/>
</svg>
