<svg width="20" height="20" viewBox="0 0 20 20" fill="none" xmlns="http://www.w3.org/2000/svg">
<path d="M12.4998 5.83333H7.49984M12.4998 9.16667H7.49984M12.4998 12.5H9.1665M4.1665 2.5H15.8332V17.5L14.9732 16.7633C14.6711 16.5045 14.2864 16.3622 13.8886 16.3622C13.4908 16.3622 13.1061 16.5045 12.804 16.7633L11.944 17.5L11.0848 16.7633C10.7827 16.5042 10.3978 16.3618 9.99984 16.3618C9.60183 16.3618 9.21696 16.5042 8.91484 16.7633L8.05567 17.5L7.19567 16.7633C6.89361 16.5045 6.50891 16.3622 6.11109 16.3622C5.71327 16.3622 5.32857 16.5045 5.0265 16.7633L4.1665 17.5V2.5Z" stroke="#5B5B5B" stroke-width="1.5" stroke-linecap="round" stroke-linejoin="round"/>
</svg>
