<svg width="22" height="22" viewBox="0 0 22 22" fill="none" xmlns="http://www.w3.org/2000/svg">
<path d="M10.6628 3.91252L12.5378 2.03752C13.0253 1.54999 13.6041 1.16326 14.2411 0.899409C14.8781 0.635558 15.5608 0.499756 16.2503 0.499756C16.9397 0.499756 17.6225 0.635558 18.2595 0.899409C18.8964 1.16326 19.4752 1.54999 19.9628 2.03752C20.4503 2.52506 20.837 3.10384 21.1009 3.74083C21.3647 4.37782 21.5005 5.06055 21.5005 5.75002C21.5005 6.4395 21.3647 7.12222 21.1009 7.75921C20.837 8.39621 20.4503 8.97499 19.9628 9.46252L16.2128 13.2125C15.7253 13.7001 15.1465 14.0868 14.5095 14.3507C13.8725 14.6146 13.1898 14.7504 12.5003 14.7504C11.8108 14.7504 11.128 14.6146 10.4911 14.3507C9.85406 14.0868 9.27528 13.7001 8.78777 13.2125C8.5888 12.9993 8.48041 12.7172 8.48545 12.4256C8.49049 12.134 8.60856 11.8557 8.81477 11.6495C9.02099 11.4433 9.29922 11.3252 9.59081 11.3202C9.8824 11.3152 10.1645 11.4236 10.3778 11.6225C10.6564 11.9015 10.9873 12.1227 11.3514 12.2737C11.7156 12.4247 12.106 12.5024 12.5003 12.5024C12.8945 12.5024 13.2849 12.4247 13.6491 12.2737C14.0133 12.1227 14.3441 11.9015 14.6228 11.6225L18.3728 7.87252C18.9083 7.3041 19.2013 6.54941 19.1897 5.76854C19.1781 4.98766 18.8627 4.24204 18.3105 3.68981C17.7583 3.13759 17.0126 2.82222 16.2318 2.81059C15.4509 2.79896 14.6962 3.09199 14.1278 3.62752L12.2528 5.50252C12.0395 5.70149 11.7574 5.80988 11.4658 5.80484C11.1742 5.7998 10.896 5.68173 10.6898 5.47552C10.4836 5.2693 10.3655 4.99107 10.3605 4.69948C10.3554 4.40789 10.4638 4.12574 10.6628 3.91252ZM3.62777 18.3725C3.90639 18.6515 4.23725 18.8727 4.60145 19.0237C4.96564 19.1747 5.35602 19.2524 5.75027 19.2524C6.14451 19.2524 6.53489 19.1747 6.89909 19.0237C7.26328 18.8727 7.59415 18.6515 7.87277 18.3725L9.74777 16.4975C9.96099 16.2986 10.2431 16.1902 10.5347 16.1952C10.8263 16.2002 11.1045 16.3183 11.3108 16.5245C11.517 16.7307 11.635 17.009 11.6401 17.3006C11.6451 17.5922 11.5367 17.8743 11.3378 18.0875L9.46277 19.9625C8.97523 20.4501 8.39645 20.8368 7.75946 21.1006C7.12247 21.3645 6.43974 21.5003 5.75027 21.5003C5.06079 21.5003 4.37807 21.3645 3.74108 21.1006C3.10409 20.8368 2.5253 20.4501 2.03777 19.9625C1.55024 19.475 1.1635 18.8962 0.899653 18.2592C0.635802 17.6222 0.5 16.9395 0.5 16.25C0.5 15.5605 0.635802 14.8778 0.899653 14.2408C1.1635 13.6038 1.55024 13.0251 2.03777 12.5375L5.78777 8.78752C6.27528 8.29996 6.85406 7.9132 7.49106 7.64933C8.12805 7.38546 8.81078 7.24964 9.50027 7.24964C10.1898 7.24964 10.8725 7.38546 11.5095 7.64933C12.1465 7.9132 12.7253 8.29996 13.2128 8.78752C13.4117 9.00074 13.5201 9.28289 13.5151 9.57448C13.51 9.86607 13.392 10.1443 13.1858 10.3505C12.9795 10.5567 12.7013 10.6748 12.4097 10.6798C12.1181 10.6849 11.836 10.5765 11.6228 10.3775C11.3441 10.0986 11.0133 9.87732 10.6491 9.72634C10.2849 9.57537 9.89451 9.49766 9.50027 9.49766C9.10602 9.49766 8.71564 9.57537 8.35145 9.72634C7.98725 9.87732 7.65639 10.0986 7.37777 10.3775L3.62777 14.1275C3.34884 14.4061 3.12756 14.737 2.97659 15.1012C2.82562 15.4654 2.74791 15.8558 2.74791 16.25C2.74791 16.6443 2.82562 17.0346 2.97659 17.3988C3.12756 17.763 3.34884 18.0939 3.62777 18.3725Z" fill="black"/>
</svg>
