<svg width="20" height="20" viewBox="0 0 20 20" fill="none" xmlns="http://www.w3.org/2000/svg">
<path fill-rule="evenodd" clip-rule="evenodd" d="M4.16689 7.50003C4.16687 6.6931 4.33426 5.89493 4.65849 5.15599C4.98272 4.41706 5.45673 3.75343 6.05056 3.20706C6.64439 2.6607 7.34511 2.24348 8.10844 1.98178C8.87176 1.72009 9.68108 1.61961 10.4852 1.6867C10.5956 1.69398 10.7033 1.72314 10.8023 1.77249C10.9012 1.82184 10.9894 1.89039 11.0616 1.97414C11.1338 2.05789 11.1886 2.15518 11.2228 2.26032C11.257 2.36547 11.27 2.47637 11.2609 2.58657C11.2518 2.69677 11.2209 2.80407 11.17 2.9022C11.119 3.00034 11.0491 3.08736 10.9641 3.15818C10.8792 3.229 10.7811 3.28222 10.6754 3.31473C10.5697 3.34724 10.4586 3.35839 10.3486 3.34754C9.77401 3.29933 9.19571 3.3709 8.65024 3.55771C8.10477 3.74451 7.60401 4.04249 7.17964 4.4328C6.75526 4.8231 6.41651 5.29723 6.18481 5.8252C5.95311 6.35316 5.8335 6.92347 5.83356 7.50003V10.44C5.83353 10.8283 5.74309 11.2112 5.56939 11.5584L4.68189 13.3334H15.3186L14.4311 11.5584C14.2574 11.2112 14.1669 10.8283 14.1669 10.44V9.1667C14.1669 8.94569 14.2547 8.73373 14.411 8.57745C14.5673 8.42117 14.7792 8.33337 15.0002 8.33337C15.2212 8.33337 15.4332 8.42117 15.5895 8.57745C15.7458 8.73373 15.8336 8.94569 15.8336 9.1667V10.44C15.8334 10.5693 15.8634 10.6968 15.9211 10.8125L17.3519 13.6734C17.4218 13.8131 17.4548 13.9684 17.4478 14.1246C17.4407 14.2807 17.3939 14.4324 17.3118 14.5653C17.2296 14.6982 17.1148 14.808 16.9783 14.884C16.8418 14.9601 16.6882 15.0001 16.5319 15H13.2286C13.0432 15.7152 12.6256 16.3486 12.0413 16.8008C11.457 17.253 10.7391 17.4983 10.0002 17.4983C9.2614 17.4983 8.54348 17.253 7.95917 16.8008C7.37487 16.3486 6.95726 15.7152 6.77189 15H3.46856C3.31229 15.0001 3.15861 14.9601 3.02212 14.884C2.88562 14.808 2.77084 14.6982 2.68868 14.5653C2.60652 14.4324 2.55971 14.2807 2.55268 14.1246C2.54566 13.9684 2.57867 13.8131 2.64856 13.6734L4.07856 10.8125C4.13651 10.6969 4.16676 10.5694 4.16689 10.44V7.50003ZM8.55689 15C8.70318 15.2534 8.91357 15.4638 9.16693 15.61C9.42029 15.7563 9.70768 15.8333 10.0002 15.8333C10.2928 15.8333 10.5802 15.7563 10.8335 15.61C11.0869 15.4638 11.2973 15.2534 11.4436 15H8.55689ZM14.5836 3.33337C14.4194 3.33337 14.2569 3.3657 14.1052 3.42852C13.9535 3.49134 13.8158 3.58341 13.6997 3.69948C13.5836 3.81556 13.4915 3.95336 13.4287 4.10501C13.3659 4.25667 13.3336 4.41922 13.3336 4.58337C13.3336 4.74752 13.3659 4.91007 13.4287 5.06172C13.4915 5.21338 13.5836 5.35118 13.6997 5.46725C13.8158 5.58333 13.9535 5.6754 14.1052 5.73822C14.2569 5.80104 14.4194 5.83337 14.5836 5.83337C14.9151 5.83337 15.233 5.70167 15.4674 5.46725C15.7019 5.23283 15.8336 4.91489 15.8336 4.58337C15.8336 4.25185 15.7019 3.93391 15.4674 3.69948C15.233 3.46506 14.9151 3.33337 14.5836 3.33337ZM11.6669 4.58337C11.6669 3.80982 11.9742 3.06795 12.5212 2.52097C13.0681 1.97399 13.81 1.6667 14.5836 1.6667C15.3571 1.6667 16.099 1.97399 16.646 2.52097C17.1929 3.06795 17.5002 3.80982 17.5002 4.58337C17.5002 5.35692 17.1929 6.09878 16.646 6.64576C16.099 7.19274 15.3571 7.50003 14.5836 7.50003C13.81 7.50003 13.0681 7.19274 12.5212 6.64576C11.9742 6.09878 11.6669 5.35692 11.6669 4.58337Z" fill="#5B5B5B"/>
</svg>
