<svg width="18" height="18" viewBox="0 0 18 18" fill="none" xmlns="http://www.w3.org/2000/svg">
<path d="M4 2.125C4 3.1625 3.1625 4 2.125 4C1.0875 4 0.25 3.1625 0.25 2.125C0.25 1.0875 1.0875 0.25 2.125 0.25C3.1625 0.25 4 1.0875 4 2.125ZM2.125 7.125C1.0875 7.125 0.25 7.9625 0.25 9C0.25 10.0375 1.0875 10.875 2.125 10.875C3.1625 10.875 4 10.0375 4 9C4 7.9625 3.1625 7.125 2.125 7.125ZM2.125 14C1.0875 14 0.25 14.8375 0.25 15.875C0.25 16.9125 1.0875 17.75 2.125 17.75C3.1625 17.75 4 16.9125 4 15.875C4 14.8375 3.1625 14 2.125 14ZM15.875 4C16.9125 4 17.75 3.1625 17.75 2.125C17.75 1.0875 16.9125 0.25 15.875 0.25C14.8375 0.25 14 1.0875 14 2.125C14 3.1625 14.8375 4 15.875 4ZM15.875 7.125C14.8375 7.125 14 7.9625 14 9C14 10.0375 14.8375 10.875 15.875 10.875C16.9125 10.875 17.75 10.0375 17.75 9C17.75 7.9625 16.9125 7.125 15.875 7.125ZM15.875 14C14.8375 14 14 14.8375 14 15.875C14 16.9125 14.8375 17.75 15.875 17.75C16.9125 17.75 17.75 16.9125 17.75 15.875C17.75 14.8375 16.9125 14 15.875 14ZM9 14C7.9625 14 7.125 14.8375 7.125 15.875C7.125 16.9125 7.9625 17.75 9 17.75C10.0375 17.75 10.875 16.9125 10.875 15.875C10.875 14.8375 10.0375 14 9 14ZM9 0.25C7.9625 0.25 7.125 1.0875 7.125 2.125C7.125 3.1625 7.9625 4 9 4C10.0375 4 10.875 3.1625 10.875 2.125C10.875 1.0875 10.0375 0.25 9 0.25ZM9 7.125C7.9625 7.125 7.125 7.9625 7.125 9C7.125 10.0375 7.9625 10.875 9 10.875C10.0375 10.875 10.875 10.0375 10.875 9C10.875 7.9625 10.0375 7.125 9 7.125Z" fill="black"/>
</svg>
