<svg width="20" height="20" viewBox="0 0 20 20" fill="none" xmlns="http://www.w3.org/2000/svg">
<mask id="mask0_1662_3061" style="mask-type:luminance" maskUnits="userSpaceOnUse" x="0" y="0" width="20" height="20">
<path d="M0.5 0.5H19.5V19.5H0.5V0.5Z" fill="white"/>
</mask>
<g mask="url(#mask0_1662_3061)">
<path d="M11.79 0.640019L11.22 0.560019C9.50693 0.312676 7.75885 0.557374 6.17954 1.26558C4.60023 1.97379 3.25476 3.11634 2.3 4.56002C1.28416 5.94 0.678585 7.57876 0.552979 9.28771C0.427373 10.9967 0.786836 12.7063 1.59 14.22C1.6722 14.3717 1.72337 14.5383 1.74054 14.71C1.75771 14.8817 1.74053 15.055 1.69 15.22C1.28 16.63 0.9 18.05 0.5 19.54L1 19.39C2.35 19.03 3.7 18.67 5.05 18.34C5.33494 18.2808 5.63112 18.3087 5.9 18.42C7.1112 19.0111 8.43482 19.3363 9.78205 19.3738C11.1293 19.4113 12.4689 19.1601 13.7111 18.6372C14.9533 18.1144 16.0692 17.3318 16.9841 16.3421C17.899 15.3525 18.5915 14.1785 19.0153 12.8992C19.4392 11.6198 19.5844 10.2646 19.4414 8.92442C19.2983 7.58429 18.8703 6.29026 18.1859 5.12917C17.5016 3.96809 16.5769 2.96681 15.4737 2.19254C14.3706 1.41827 13.1146 0.888923 11.79 0.640019ZM14.31 13.76C13.9466 14.0854 13.5034 14.3087 13.0256 14.407C12.5478 14.5054 12.0524 14.4754 11.59 14.32C9.49494 13.7292 7.67725 12.4146 6.46 10.61C5.99517 9.97161 5.62158 9.27155 5.35 8.53002C5.20285 8.09979 5.17632 7.63749 5.27327 7.19325C5.37023 6.74902 5.58698 6.33981 5.9 6.01002C6.05239 5.81553 6.25981 5.67145 6.49526 5.59654C6.7307 5.52162 6.98325 5.51935 7.22 5.59002C7.42 5.64002 7.56 5.93002 7.74 6.15002C7.88667 6.56335 8.05667 6.96668 8.25 7.36002C8.39642 7.56053 8.45758 7.81082 8.42011 8.05626C8.38263 8.30169 8.24958 8.52234 8.05 8.67002C7.6 9.07002 7.67 9.40002 7.99 9.85002C8.69706 10.8695 9.67332 11.6727 10.81 12.17C11.13 12.31 11.37 12.34 11.58 12.01C11.67 11.88 11.79 11.77 11.89 11.65C12.47 10.92 12.29 10.93 13.21 11.33C13.5033 11.4534 13.7867 11.5967 14.06 11.76C14.33 11.92 14.74 12.09 14.8 12.33C14.8577 12.5904 14.8425 12.8616 14.7561 13.1139C14.6696 13.3662 14.5153 13.5898 14.31 13.76Z" fill="black"/>
</g>
</svg>
