<svg width="41" height="41" viewBox="0 0 41 41" fill="none" xmlns="http://www.w3.org/2000/svg">
<rect x="0.5" y="0.5" width="40" height="40" rx="20" fill="#28A87B"/>
<path d="M20.4993 28.8333C21.166 28.8333 21.8327 28.75 22.416 28.5833C22.0827 28.1666 21.7493 27.6666 21.5827 27.0833C21.2493 27.1666 20.8327 27.1666 20.4993 27.1666C16.8327 27.1666 13.8327 24.1666 13.8327 20.5C13.8327 16.8333 16.8327 13.8333 20.4993 13.8333C21.166 13.8333 21.7493 13.9166 22.3327 14.0833L23.666 12.75C22.666 12.4166 21.5827 12.1666 20.4993 12.1666C15.916 12.1666 12.166 15.9166 12.166 20.5C12.166 25.0833 15.916 28.8333 20.4993 28.8333ZM15.916 20.0833L17.0827 18.9166L19.666 21.5L26.8327 14.3333L27.9993 15.5L19.666 23.8333L15.916 20.0833ZM26.3327 22.1666L25.2827 24.4583L22.9993 25.5L25.2827 26.55L26.3327 28.8333L27.3743 26.55L29.666 25.5L27.3743 24.4583L26.3327 22.1666Z" fill="white"/>
</svg>
