<svg width="41" height="41" viewBox="0 0 41 41" fill="none" xmlns="http://www.w3.org/2000/svg">
<rect x="0.5" y="0.5" width="40" height="40" rx="20" fill="#F3BE2E"/>
<path d="M23.9375 16.5938V15.6562C23.9375 15.5703 23.8672 15.5 23.7812 15.5H16.2812C16.1953 15.5 16.125 15.5703 16.125 15.6562V16.5938C16.125 16.6797 16.1953 16.75 16.2812 16.75H23.7812C23.8672 16.75 23.9375 16.6797 23.9375 16.5938ZM16.2812 18.3125C16.1953 18.3125 16.125 18.3828 16.125 18.4688V19.4062C16.125 19.4922 16.1953 19.5625 16.2812 19.5625H19.875C19.9609 19.5625 20.0312 19.4922 20.0312 19.4062V18.4688C20.0312 18.3828 19.9609 18.3125 19.875 18.3125H16.2812ZM23.625 20.5781C21.2949 20.5781 19.4062 22.4668 19.4062 24.7969C19.4062 27.127 21.2949 29.0156 23.625 29.0156C25.9551 29.0156 27.8438 27.127 27.8438 24.7969C27.8438 22.4668 25.9551 20.5781 23.625 20.5781ZM25.7246 26.8965C25.1641 27.457 24.418 27.7656 23.625 27.7656C22.832 27.7656 22.0859 27.457 21.5254 26.8965C20.9648 26.3359 20.6562 25.5898 20.6562 24.7969C20.6562 24.0039 20.9648 23.2578 21.5254 22.6973C22.0859 22.1367 22.832 21.8281 23.625 21.8281C24.418 21.8281 25.1641 22.1367 25.7246 22.6973C26.2852 23.2578 26.5938 24.0039 26.5938 24.7969C26.5938 25.5898 26.2852 26.3359 25.7246 26.8965ZM25.3633 23.3125H24.498C24.4473 23.3125 24.4004 23.3359 24.3711 23.377L23.1309 25.0918L22.6797 24.4688C22.6652 24.4486 22.6462 24.4323 22.6241 24.421C22.602 24.4098 22.5775 24.4041 22.5527 24.4043H21.6914C21.5645 24.4043 21.4902 24.5488 21.5645 24.6523L23.0059 26.6465C23.0684 26.7324 23.1953 26.7324 23.2578 26.6465L25.4883 23.5605C25.5645 23.457 25.4902 23.3125 25.3633 23.3125ZM19.0938 27.1406H14.5625V13.3906H25.5V20.1094C25.5 20.1953 25.5703 20.2656 25.6562 20.2656H26.75C26.8359 20.2656 26.9062 20.1953 26.9062 20.1094V12.6094C26.9062 12.2637 26.627 11.9844 26.2812 11.9844H13.7812C13.4355 11.9844 13.1562 12.2637 13.1562 12.6094V27.9219C13.1562 28.2676 13.4355 28.5469 13.7812 28.5469H19.0938C19.1797 28.5469 19.25 28.4766 19.25 28.3906V27.2969C19.25 27.2109 19.1797 27.1406 19.0938 27.1406Z" fill="white"/>
</svg>
