<svg width="40" height="41" viewBox="0 0 40 41" fill="none" xmlns="http://www.w3.org/2000/svg">
<rect y="0.5" width="40" height="40" rx="20" fill="#32588D"/>
<path d="M26.6667 13.8334C27.1087 13.8334 27.5326 14.009 27.8452 14.3215C28.1577 14.6341 28.3333 15.058 28.3333 15.5V23.8334C28.3333 24.7584 27.5917 25.5 26.6667 25.5H30V27.1667H10V25.5H13.3333C12.8913 25.5 12.4674 25.3244 12.1548 25.0119C11.8423 24.6993 11.6667 24.2754 11.6667 23.8334V15.5C11.6667 14.575 12.4083 13.8334 13.3333 13.8334H26.6667ZM26.6667 15.5H13.3333V23.8334H26.6667V15.5ZM20 20.5C21.8417 20.5 23.3333 21.25 23.3333 22.1667V23H16.6667V22.1667C16.6667 21.25 18.1583 20.5 20 20.5ZM20 16.3334C20.442 16.3334 20.8659 16.509 21.1785 16.8215C21.4911 17.1341 21.6667 17.558 21.6667 18C21.6667 18.4421 21.4911 18.866 21.1785 19.1786C20.8659 19.4911 20.442 19.6667 20 19.6667C19.075 19.6667 18.3333 18.925 18.3333 18C18.3333 17.075 19.0833 16.3334 20 16.3334Z" fill="white"/>
</svg>
