<svg width="40" height="41" viewBox="0 0 40 41" fill="none" xmlns="http://www.w3.org/2000/svg">
<rect y="0.5" width="40" height="40" rx="20" fill="#F35A5C"/>
<path d="M11.498 19.0323H16.9124M14.2146 23.5051H18.5602M16.9312 27.9778H20.1892" stroke="white" stroke-width="1.69492" stroke-linecap="round" stroke-linejoin="round"/>
<path fill-rule="evenodd" clip-rule="evenodd" d="M23.7395 23.5051C24.4196 23.5051 25.093 23.3711 25.7214 23.1108C26.3497 22.8506 26.9206 22.4691 27.4015 21.9882C27.8824 21.5073 28.2639 20.9364 28.5242 20.308C28.7844 19.6797 28.9184 19.0062 28.9184 18.3261C28.9184 17.646 28.7844 16.9726 28.5242 16.3442C28.2639 15.7159 27.8824 15.145 27.4015 14.6641C26.9206 14.1832 26.3497 13.8017 25.7214 13.5414C25.093 13.2812 24.4196 13.1472 23.7395 13.1472C22.3659 13.1472 21.0487 13.6929 20.0774 14.6641C19.1062 15.6353 18.5605 16.9526 18.5605 18.3261C18.5605 19.6997 19.1062 21.017 20.0774 21.9882C21.0487 22.9594 22.3659 23.5051 23.7395 23.5051ZM21.5248 16.1114C21.6131 16.0232 21.7328 15.9736 21.8576 15.9736C21.9825 15.9736 22.1022 16.0232 22.1905 16.1114L23.7395 17.6604L25.2884 16.1114C25.3319 16.0665 25.3838 16.0306 25.4413 16.0059C25.4987 15.9813 25.5605 15.9683 25.623 15.9677C25.6855 15.9672 25.7475 15.9791 25.8054 16.0028C25.8632 16.0264 25.9158 16.0614 25.96 16.1056C26.0042 16.1498 26.0392 16.2024 26.0628 16.2602C26.0865 16.3181 26.0984 16.3801 26.0979 16.4426C26.0973 16.5051 26.0843 16.5669 26.0597 16.6243C26.035 16.6818 25.9991 16.7337 25.9542 16.7772L24.4052 18.3261L25.9542 19.8751C26.0399 19.9639 26.0874 20.0828 26.0863 20.2063C26.0852 20.3297 26.0357 20.4478 25.9484 20.5351C25.8611 20.6224 25.743 20.6719 25.6196 20.673C25.4962 20.674 25.3772 20.6266 25.2884 20.5408L23.7395 18.9919L22.1905 20.5408C22.1017 20.6266 21.9828 20.674 21.8593 20.673C21.7359 20.6719 21.6178 20.6224 21.5305 20.5351C21.4432 20.4478 21.3937 20.3297 21.3926 20.2063C21.3916 20.0828 21.439 19.9639 21.5248 19.8751L23.0737 18.3261L21.5248 16.7772C21.4365 16.6889 21.3869 16.5691 21.3869 16.4443C21.3869 16.3195 21.4365 16.1997 21.5248 16.1114Z" fill="white"/>
</svg>
