<svg width="40" height="41" viewBox="0 0 40 41" fill="none" xmlns="http://www.w3.org/2000/svg">
<rect y="0.5" width="40" height="40" rx="20" fill="#6F34FF"/>
<path d="M23.75 17.7395C23.75 22.7364 16.25 22.7364 16.25 17.7395H18.125C18.125 20.2426 21.875 20.2426 21.875 17.7395M27.5 26.177V28.9895H12.5V26.177C12.5 23.6739 17.4969 22.427 20 22.427C22.5031 22.427 27.5 23.6739 27.5 26.177ZM25.7188 26.177C25.7188 25.577 22.7844 24.2083 20 24.2083C17.2156 24.2083 14.2813 25.577 14.2813 26.177V27.2083H25.7188M20.4688 11.177C20.7312 11.177 20.9375 11.3833 20.9375 11.6458V14.4583H21.875V12.1145C22.5385 12.4216 23.0944 12.9209 23.4705 13.5478C23.8466 14.1747 24.0257 14.9002 23.9844 15.6301C23.9844 15.6301 24.6406 15.7614 24.6875 16.802H15.3125C15.3125 15.7614 16.0156 15.6301 16.0156 15.6301C15.9743 14.9002 16.1534 14.1747 16.5295 13.5478C16.9056 12.9209 17.4615 12.4216 18.125 12.1145V14.4583H19.0625V11.6458C19.0625 11.3833 19.2688 11.177 19.5312 11.177" fill="white"/>
</svg>
