<svg width="16" height="16" viewBox="0 0 16 16" fill="none" xmlns="http://www.w3.org/2000/svg">
<path d="M10.2 11C10.02 11 9.85 10.94 9.7 10.82L7.4 8.96C7.21 8.81 7.1 8.58 7.1 8.34V4.8C7.1 4.36 7.46 4 7.9 4C8.34 4 8.7 4.36 8.7 4.8V7.96L10.71 9.58C11.05 9.86 11.11 10.36 10.83 10.7C10.67 10.9 10.44 11 10.21 11H10.2ZM15 12.2V3.8C15 2.26 13.74 1 12.2 1H3.8C2.26 1 1 2.26 1 3.8V12.2C1 13.74 2.26 15 3.8 15H12.2C13.74 15 15 13.74 15 12.2ZM12.2 2.6C12.86 2.6 13.4 3.14 13.4 3.8V12.2C13.4 12.86 12.86 13.4 12.2 13.4H3.8C3.14 13.4 2.6 12.86 2.6 12.2V3.8C2.6 3.14 3.14 2.6 3.8 2.6H12.2Z" fill="#9C9797"/>
</svg>
