<svg width="16" height="16" viewBox="0 0 16 16" fill="none" xmlns="http://www.w3.org/2000/svg">
<path d="M8 16C3.59 16 0 12.41 0 8C0 3.59 3.59 0 8 0C12.41 0 16 3.59 16 8C16 12.41 12.41 16 8 16ZM8 1.6C4.47 1.6 1.6 4.47 1.6 8C1.6 11.53 4.47 14.4 8 14.4C11.53 14.4 14.4 11.53 14.4 8C14.4 4.47 11.53 1.6 8 1.6ZM7.8 13C7.36 13 7 12.64 7 12.2V11.2H6.4C5.96 11.2 5.6 10.84 5.6 10.4C5.6 9.96 5.96 9.6 6.4 9.6H8.4C8.6 9.6 8.8 9.4 8.8 9.2C8.8 9 8.6 8.8 8.4 8.8H7.6C6.52 8.8 5.6 7.88 5.6 6.8C5.6 5.78 6.41 4.91 7.4 4.81C7.4 4.81 7.4 4.81 7.4 4.8V3.8C7.4 3.36 7.76 3 8.2 3C8.64 3 9 3.36 9 3.8V4.8H9.6C10.04 4.8 10.4 5.16 10.4 5.6C10.4 6.04 10.04 6.4 9.6 6.4H7.6C7.4 6.4 7.2 6.6 7.2 6.8C7.2 7 7.4 7.2 7.6 7.2H8.4C9.48 7.2 10.4 8.12 10.4 9.2C10.4 10.22 9.59 11.09 8.6 11.19C8.6 11.19 8.6 11.19 8.6 11.2V12.2C8.6 12.64 8.24 13 7.8 13Z" fill="#9C9797"/>
</svg>
