<svg width="40" height="40" viewBox="0 0 40 40" fill="none" xmlns="http://www.w3.org/2000/svg">
<path d="M11.6667 33.3333H18.3333C18.3333 35.1667 16.8333 36.6667 15 36.6667C13.1667 36.6667 11.6667 35.1667 11.6667 33.3333ZM8.33333 31.6667H21.6667V28.3333H8.33333V31.6667ZM27.5 15.8333C27.5 22.2 23.0667 25.6 21.2167 26.6667H8.78333C6.93333 25.6 2.5 22.2 2.5 15.8333C2.5 8.93333 8.1 3.33333 15 3.33333C21.9 3.33333 27.5 8.93333 27.5 15.8333ZM24.1667 15.8333C24.1667 10.7833 20.05 6.66667 15 6.66667C9.95 6.66667 5.83333 10.7833 5.83333 15.8333C5.83333 19.95 8.31667 22.3167 9.75 23.3333H20.25C21.6833 22.3167 24.1667 19.95 24.1667 15.8333ZM35.6167 12.2833L33.3333 13.3333L35.6167 14.3833L36.6667 16.6667L37.7167 14.3833L40 13.3333L37.7167 12.2833L36.6667 10L35.6167 12.2833ZM31.6667 10L33.2333 6.56667L36.6667 5L33.2333 3.43333L31.6667 0L30.1 3.43333L26.6667 5L30.1 6.56667L31.6667 10Z" fill="#9C9797"/>
</svg>
