<svg width="37" height="36" viewBox="0 0 37 36" fill="none" xmlns="http://www.w3.org/2000/svg">
<mask id="mask0_1542_1796" style="mask-type:luminance" maskUnits="userSpaceOnUse" x="0" y="0" width="37" height="36">
<path d="M18.2002 34C20.3017 34.0026 22.3831 33.5899 24.3246 32.7857C26.2661 31.9814 28.0296 30.8015 29.5138 29.3136C31.0017 27.8295 32.1816 26.066 32.9859 24.1244C33.7901 22.1829 34.2028 20.1015 34.2002 18C34.2028 15.8985 33.7901 13.8171 32.9859 11.8756C32.1816 9.93405 31.0017 8.17055 29.5138 6.68641C28.0296 5.19854 26.2661 4.01859 24.3246 3.21434C22.3831 2.4101 20.3017 1.99742 18.2002 2.00001C16.0987 1.99742 14.0173 2.4101 12.0758 3.21434C10.1342 4.01859 8.37074 5.19854 6.8866 6.68641C5.39873 8.17055 4.21878 9.93405 3.41454 11.8756C2.6103 13.8171 2.19762 15.8985 2.20021 18C2.19762 20.1015 2.6103 22.1829 3.41454 24.1244C4.21878 26.066 5.39873 27.8295 6.8866 29.3136C8.37074 30.8015 10.1342 31.9814 12.0758 32.7857C14.0173 33.5899 16.0987 34.0026 18.2002 34Z" fill="white" stroke="white" stroke-width="4" stroke-linejoin="round"/>
<path d="M11.7998 17.9999L16.5998 22.7999L26.1998 13.2" stroke="black" stroke-width="4" stroke-linecap="round" stroke-linejoin="round"/>
</mask>
<g mask="url(#mask0_1542_1796)">
<path d="M-1 -1.19995H37.4V37.2H-1V-1.19995Z" fill="#28A87B"/>
</g>
</svg>
