<svg width="41" height="40" viewBox="0 0 41 40" fill="none" xmlns="http://www.w3.org/2000/svg">
<rect x="0.802246" width="39.598" height="39.598" rx="19.799" fill="#F0F0F0"/>
<path d="M12.2485 28.1517C12.0844 27.9876 11.9922 27.765 11.9922 27.533C11.9922 27.3009 12.0844 27.0783 12.2485 26.9143L25.3797 13.783L15.2464 13.8684C15.1314 13.8693 15.0174 13.8477 14.9108 13.8046C14.8043 13.7615 14.7072 13.6978 14.6253 13.6173C14.5433 13.5367 14.478 13.4407 14.4331 13.3349C14.3882 13.2291 14.3646 13.1155 14.3637 13.0005C14.3627 12.8856 14.3844 12.7716 14.4274 12.665C14.4705 12.5584 14.5342 12.4614 14.6148 12.3794C14.7775 12.2139 14.9994 12.1198 15.2315 12.1178L27.5007 12.0151L27.5172 12.0151C27.6338 12.0161 27.749 12.0403 27.8561 12.0864C27.9632 12.1325 28.06 12.1995 28.1408 12.2836C28.2216 12.3676 28.2848 12.467 28.3267 12.5758C28.3685 12.6846 28.3882 12.8007 28.3846 12.9172L28.2823 25.1686C28.2814 25.2836 28.2578 25.3972 28.213 25.503C28.1681 25.6088 28.1029 25.7047 28.0209 25.7853C27.939 25.8659 27.842 25.9295 27.7355 25.9726C27.6289 26.0157 27.515 26.0374 27.4 26.0365C27.2851 26.0355 27.1715 26.012 27.0657 25.9671C26.9599 25.9223 26.864 25.857 26.7834 25.7751C26.7028 25.6932 26.6391 25.5962 26.596 25.4896C26.5529 25.3831 26.5312 25.2691 26.5322 25.1542L26.6172 15.0204L13.4859 28.1517C13.3218 28.3158 13.0992 28.408 12.8672 28.408C12.6351 28.408 12.4126 28.3158 12.2485 28.1517Z" fill="#C3C1C1"/>
</svg>
