<svg width="40" height="40" viewBox="0 0 40 40" fill="none" xmlns="http://www.w3.org/2000/svg">
<rect x="0.402344" width="39.598" height="39.598" rx="19.799" fill="#F0F0F0"/>
<path d="M11.8481 28.1517C11.684 27.9876 11.5918 27.765 11.5918 27.533C11.5918 27.3009 11.684 27.0783 11.8481 26.9143L24.9793 13.783L14.846 13.8684C14.731 13.8693 14.617 13.8477 14.5104 13.8046C14.4039 13.7615 14.3068 13.6978 14.2249 13.6173C14.1429 13.5367 14.0776 13.4407 14.0327 13.3349C13.9878 13.2291 13.9642 13.1155 13.9633 13.0005C13.9623 12.8856 13.984 12.7716 14.027 12.665C14.0701 12.5584 14.1338 12.4614 14.2144 12.3794C14.3771 12.2139 14.599 12.1198 14.8311 12.1178L27.1003 12.0151L27.1168 12.0151C27.2334 12.0161 27.3486 12.0403 27.4557 12.0864C27.5628 12.1325 27.6596 12.1995 27.7404 12.2836C27.8212 12.3676 27.8844 12.467 27.9263 12.5758C27.9681 12.6846 27.9879 12.8007 27.9842 12.9172L27.8819 25.1686C27.881 25.2836 27.8574 25.3972 27.8126 25.503C27.7677 25.6088 27.7025 25.7047 27.6205 25.7853C27.5386 25.8659 27.4416 25.9295 27.3351 25.9726C27.2286 26.0157 27.1146 26.0374 26.9997 26.0365C26.8847 26.0355 26.7711 26.012 26.6653 25.9671C26.5595 25.9223 26.4636 25.857 26.383 25.7751C26.3024 25.6932 26.2388 25.5962 26.1956 25.4896C26.1525 25.3831 26.1309 25.2691 26.1318 25.1542L26.2168 15.0204L13.0855 28.1517C12.9214 28.3158 12.6988 28.408 12.4668 28.408C12.2347 28.408 12.0122 28.3158 11.8481 28.1517Z" fill="#C3C1C1"/>
</svg>
