<svg width="20" height="20" viewBox="0 0 20 20" fill="none" xmlns="http://www.w3.org/2000/svg">
<path d="M18.1706 8.368H17.4993V8.33342H9.99935V11.6667H14.7089C14.0219 13.6072 12.1756 15.0001 9.99935 15.0001C7.2381 15.0001 4.99935 12.7613 4.99935 10.0001C4.99935 7.23883 7.2381 5.00008 9.99935 5.00008C11.2739 5.00008 12.4335 5.48091 13.3164 6.26633L15.6735 3.90925C14.1852 2.52216 12.1943 1.66675 9.99935 1.66675C5.39727 1.66675 1.66602 5.398 1.66602 10.0001C1.66602 14.6022 5.39727 18.3334 9.99935 18.3334C14.6014 18.3334 18.3327 14.6022 18.3327 10.0001C18.3327 9.44133 18.2752 8.89592 18.1706 8.368Z" fill="#FFC107"/>
<path d="M2.62695 6.12133L5.36487 8.12925C6.1057 6.29508 7.89987 5.00008 9.99945 5.00008C11.274 5.00008 12.4336 5.48091 13.3165 6.26633L15.6736 3.90925C14.1853 2.52216 12.1945 1.66675 9.99945 1.66675C6.79862 1.66675 4.02279 3.47383 2.62695 6.12133Z" fill="#FF3D00"/>
<path d="M10.0008 18.3334C12.1533 18.3334 14.1091 17.5096 15.5879 16.17L13.0087 13.9875C12.1439 14.6452 11.0872 15.0009 10.0008 15C7.83328 15 5.99286 13.618 5.29953 11.6892L2.58203 13.783C3.9612 16.4817 6.76203 18.3334 10.0008 18.3334Z" fill="#4CAF50"/>
<path d="M18.1713 8.36784H17.5V8.33325H10V11.6666H14.7096C14.3809 12.5901 13.7889 13.3971 13.0067 13.9878L13.0079 13.987L15.5871 16.1695C15.4046 16.3353 18.3333 14.1666 18.3333 9.99992C18.3333 9.44117 18.2758 8.89575 18.1713 8.36784Z" fill="#1976D2"/>
</svg>
