<svg width="59" height="56" viewBox="0 0 59 56" fill="none" xmlns="http://www.w3.org/2000/svg">
<mask id="mask0_436_2" style="mask-type:luminance" maskUnits="userSpaceOnUse" x="0" y="0" width="57" height="57">
<path d="M28.2733 56.1524C43.8279 56.1524 56.4374 43.583 56.4374 28.0778C56.4374 12.5726 43.8279 0.00311279 28.2733 0.00311279C12.7187 0.00311279 0.109253 12.5726 0.109253 28.0778C0.109253 43.583 12.7187 56.1524 28.2733 56.1524Z" fill="white"/>
</mask>
<g mask="url(#mask0_436_2)">
<path d="M20.2417 -13.4347L-10.7141 37.0054L-4.86719 40.571L26.0886 -9.86911L20.2417 -13.4347Z" fill="black"/>
<path d="M14.7281 53.3898L6.56354 49.4449L37.6395 -1.1698L45.8041 2.77509L14.7281 53.3898Z" fill="#00542B"/>
<path d="M4.50676 48.1196L-3.66095 44.1747L27.415 -6.44L35.5827 -2.49511L4.50676 48.1196Z" fill="#00542B"/>
<path d="M48.2853 4.32135L17.3061 54.5222C20.218 55.2565 25.1367 56.1307 27.6304 56.1369C46.1693 56.168 53.101 41.2534 53.101 41.2534L56.9992 32.9373L52.1055 32.3836L49.6242 36.9165C49.6242 36.9165 43.6319 49.3267 31.2102 49.3267L56.4218 8.83868" fill="#1CA34A"/>
</g>
<path d="M58.8999 40.2298L57.6733 47.0462L53.7128 32.8409H53.7003L41.2318 40.7649L44.8896 34.8756L56.6091 25.2871H56.6122L58.8999 40.2298Z" fill="#1CA34A"/>
</svg>
