<svg width="18" height="19" viewBox="0 0 18 19" fill="none" xmlns="http://www.w3.org/2000/svg">
<path d="M13.4163 9.15363C14.6318 9.15363 15.7976 9.63651 16.6572 10.4961C17.5167 11.3556 17.9996 12.5214 17.9996 13.737C17.9996 14.9525 17.5167 16.1183 16.6572 16.9779C15.7976 17.8374 14.6318 18.3203 13.4163 18.3203C12.2007 18.3203 11.0349 17.8374 10.1754 16.9779C9.31581 16.1183 8.83293 14.9525 8.83293 13.737C8.83293 12.5214 9.31581 11.3556 10.1754 10.4961C11.0349 9.63651 12.2007 9.15363 13.4163 9.15363ZM8.8521 10.8203C8.60256 11.21 8.404 11.6301 8.26126 12.0703H2.3771C2.21134 12.0703 2.05236 12.1361 1.93515 12.2534C1.81794 12.3706 1.7521 12.5295 1.7521 12.6953V13.1761C1.7521 13.622 1.9121 14.0536 2.2021 14.3928C3.24626 15.617 4.88543 16.2378 7.16626 16.2378C7.66404 16.2378 8.13071 16.2084 8.56626 16.1495C8.77126 16.562 9.0271 16.9445 9.32626 17.2886C8.66349 17.422 7.94349 17.4886 7.16626 17.4886C4.54543 17.4886 2.55626 16.7336 1.25126 15.2053C0.768251 14.6395 0.502904 13.92 0.50293 13.1761V12.6945C0.503151 12.1975 0.700678 11.7209 1.0521 11.3695C1.40353 11.018 1.8801 10.8205 2.3771 10.8203H8.8521ZM13.4163 10.8203L13.3413 10.827C13.258 10.8422 13.1814 10.8824 13.1215 10.9422C13.0617 11.0021 13.0215 11.0787 13.0063 11.162L12.9996 11.237V13.3203H10.9196L10.8446 13.327C10.7613 13.3422 10.6847 13.3824 10.6249 13.4422C10.565 13.5021 10.5248 13.5787 10.5096 13.662L10.5029 13.737L10.5096 13.812C10.5248 13.8952 10.565 13.9719 10.6249 14.0317C10.6847 14.0916 10.7613 14.1318 10.8446 14.147L10.9196 14.1536H12.9996V16.237L13.0063 16.312C13.0215 16.3952 13.0617 16.4719 13.1215 16.5317C13.1814 16.5916 13.258 16.6318 13.3413 16.647L13.4163 16.6536L13.4913 16.647C13.5745 16.6318 13.6512 16.5916 13.711 16.5317C13.7709 16.4719 13.8111 16.3952 13.8263 16.312L13.8329 16.237V14.1536H15.9196L15.9946 14.147C16.0778 14.1318 16.1545 14.0916 16.2143 14.0317C16.2742 13.9719 16.3144 13.8952 16.3296 13.812L16.3363 13.737L16.3296 13.662C16.3144 13.5787 16.2742 13.5021 16.2143 13.4422C16.1545 13.3824 16.0778 13.3422 15.9946 13.327L15.9196 13.3203H13.8329V11.237L13.8263 11.162C13.8111 11.0787 13.7709 11.0021 13.711 10.9422C13.6512 10.8824 13.5745 10.8422 13.4913 10.827L13.4163 10.8203ZM7.16626 0.824463C7.71344 0.824463 8.25525 0.932237 8.76078 1.14163C9.2663 1.35103 9.72563 1.65794 10.1125 2.04485C10.4995 2.43176 10.8064 2.89109 11.0158 3.39662C11.2252 3.90214 11.3329 4.44395 11.3329 4.99113C11.3329 5.5383 11.2252 6.08012 11.0158 6.58564C10.8064 7.09117 10.4995 7.5505 10.1125 7.93741C9.72563 8.32432 9.2663 8.63123 8.76078 8.84063C8.25525 9.05002 7.71344 9.1578 7.16626 9.1578C6.06119 9.1578 5.00139 8.71881 4.21999 7.93741C3.43858 7.15601 2.9996 6.0962 2.9996 4.99113C2.9996 3.88606 3.43858 2.82625 4.21999 2.04485C5.00139 1.26345 6.06119 0.824463 7.16626 0.824463ZM7.16626 2.07446C6.78324 2.07446 6.40397 2.1499 6.0501 2.29648C5.69624 2.44306 5.37471 2.6579 5.10387 2.92873C4.83303 3.19957 4.61819 3.5211 4.47161 3.87497C4.32504 4.22884 4.2496 4.60811 4.2496 4.99113C4.2496 5.37415 4.32504 5.75342 4.47161 6.10729C4.61819 6.46116 4.83303 6.78269 5.10387 7.05352C5.37471 7.32436 5.69624 7.5392 6.0501 7.68578C6.40397 7.83235 6.78324 7.9078 7.16626 7.9078C7.93981 7.9078 8.68168 7.6005 9.22866 7.05352C9.77564 6.50654 10.0829 5.76468 10.0829 4.99113C10.0829 4.21758 9.77564 3.47572 9.22866 2.92873C8.68168 2.38175 7.93981 2.07446 7.16626 2.07446Z" fill="white"/>
</svg>
