<svg width="14" height="15" viewBox="0 0 14 15" fill="none" xmlns="http://www.w3.org/2000/svg">
<path d="M9.2 10.3071C9.02 10.3071 8.85 10.2471 8.7 10.1271L6.4 8.26713C6.21 8.11713 6.1 7.88713 6.1 7.64713V4.10713C6.1 3.66713 6.46 3.30713 6.9 3.30713C7.34 3.30713 7.7 3.66713 7.7 4.10713V7.26713L9.71 8.88713C10.05 9.16713 10.11 9.66713 9.83 10.0071C9.67 10.2071 9.44 10.3071 9.21 10.3071H9.2ZM14 11.5071V3.10713C14 1.56713 12.74 0.307129 11.2 0.307129H2.8C1.26 0.307129 0 1.56713 0 3.10713V11.5071C0 13.0471 1.26 14.3071 2.8 14.3071H11.2C12.74 14.3071 14 13.0471 14 11.5071ZM11.2 1.90713C11.86 1.90713 12.4 2.44713 12.4 3.10713V11.5071C12.4 12.1671 11.86 12.7071 11.2 12.7071H2.8C2.14 12.7071 1.6 12.1671 1.6 11.5071V3.10713C1.6 2.44713 2.14 1.90713 2.8 1.90713H11.2Z" fill="#9C9797"/>
</svg>
