<svg width="18" height="18" viewBox="0 0 18 18" fill="none" xmlns="http://www.w3.org/2000/svg">
<path d="M8.50033 17.487C9.16699 17.487 9.83366 17.4036 10.417 17.237C10.0837 16.8203 9.75033 16.3203 9.58366 15.737C9.25033 15.8203 8.83366 15.8203 8.50033 15.8203C4.83366 15.8203 1.83366 12.8203 1.83366 9.15365C1.83366 5.48698 4.83366 2.48698 8.50033 2.48698C9.16699 2.48698 9.75033 2.57031 10.3337 2.73698L11.667 1.40365C10.667 1.07031 9.58366 0.820312 8.50033 0.820312C3.91699 0.820312 0.166992 4.57031 0.166992 9.15365C0.166992 13.737 3.91699 17.487 8.50033 17.487ZM3.91699 8.73698L5.08366 7.57031L7.66699 10.1536L14.8337 2.98698L16.0003 4.15365L7.66699 12.487L3.91699 8.73698ZM14.3337 10.8203L13.2837 13.112L11.0003 14.1536L13.2837 15.2036L14.3337 17.487L15.3753 15.2036L17.667 14.1536L15.3753 13.112L14.3337 10.8203Z" fill="white"/>
</svg>
