<svg width="21" height="21" viewBox="0 0 21 21" fill="none" xmlns="http://www.w3.org/2000/svg">
<path d="M19.8372 10.0946C19.1021 8.19316 17.826 6.54876 16.1665 5.36468C14.507 4.1806 12.5369 3.50874 10.4997 3.43213C8.46256 3.50874 6.49248 4.1806 4.83299 5.36468C3.17349 6.54876 1.89733 8.19316 1.16223 10.0946C1.11259 10.2319 1.11259 10.3823 1.16223 10.5196C1.89733 12.4211 3.17349 14.0655 4.83299 15.2496C6.49248 16.4337 8.46256 17.1055 10.4997 17.1821C12.5369 17.1055 14.507 16.4337 16.1665 15.2496C17.826 14.0655 19.1021 12.4211 19.8372 10.5196C19.8869 10.3823 19.8869 10.2319 19.8372 10.0946ZM10.4997 15.9321C7.18723 15.9321 3.68723 13.4759 2.41848 10.3071C3.68723 7.13838 7.18723 4.68213 10.4997 4.68213C13.8122 4.68213 17.3122 7.13838 18.581 10.3071C17.3122 13.4759 13.8122 15.9321 10.4997 15.9321Z" fill="#2956A8"/>
<path d="M10.5 6.55713C9.75832 6.55713 9.0333 6.77706 8.41661 7.18912C7.79993 7.60117 7.31928 8.18684 7.03545 8.87207C6.75162 9.55729 6.67736 10.3113 6.82206 11.0387C6.96675 11.7661 7.3239 12.4343 7.84835 12.9588C8.3728 13.4832 9.04098 13.8404 9.76841 13.9851C10.4958 14.1298 11.2498 14.0555 11.9351 13.7717C12.6203 13.4878 13.206 13.0072 13.618 12.3905C14.0301 11.7738 14.25 11.0488 14.25 10.3071C14.25 9.31257 13.8549 8.35874 13.1517 7.65548C12.4484 6.95222 11.4946 6.55713 10.5 6.55713ZM10.5 12.8071C10.0055 12.8071 9.5222 12.6605 9.11108 12.3858C8.69995 12.1111 8.37952 11.7207 8.1903 11.2638C8.00108 10.807 7.95158 10.3044 8.04804 9.8194C8.1445 9.33445 8.3826 8.88899 8.73223 8.53936C9.08187 8.18973 9.52732 7.95163 10.0123 7.85517C10.4972 7.7587 10.9999 7.80821 11.4567 7.99743C11.9135 8.18665 12.304 8.50708 12.5787 8.9182C12.8534 9.32933 13 9.81268 13 10.3071C13 10.9702 12.7366 11.6061 12.2678 12.0749C11.7989 12.5437 11.163 12.8071 10.5 12.8071Z" fill="#2956A8"/>
</svg>
