<svg width="17" height="17" viewBox="0 0 17 17" fill="none" xmlns="http://www.w3.org/2000/svg">
<path d="M8.66699 16.3071C4.25699 16.3071 0.666992 12.7171 0.666992 8.30713C0.666992 3.89713 4.25699 0.307129 8.66699 0.307129C13.077 0.307129 16.667 3.89713 16.667 8.30713C16.667 12.7171 13.077 16.3071 8.66699 16.3071ZM8.66699 1.90713C5.13699 1.90713 2.26699 4.77713 2.26699 8.30713C2.26699 11.8371 5.13699 14.7071 8.66699 14.7071C12.197 14.7071 15.067 11.8371 15.067 8.30713C15.067 4.77713 12.197 1.90713 8.66699 1.90713ZM8.46699 13.3071C8.02699 13.3071 7.66699 12.9471 7.66699 12.5071V11.5071H7.06699C6.62699 11.5071 6.26699 11.1471 6.26699 10.7071C6.26699 10.2671 6.62699 9.90713 7.06699 9.90713H9.06699C9.26699 9.90713 9.46699 9.70713 9.46699 9.50713C9.46699 9.30713 9.26699 9.10713 9.06699 9.10713H8.26699C7.18699 9.10713 6.26699 8.18713 6.26699 7.10713C6.26699 6.08713 7.07699 5.21713 8.06699 5.11713C8.06699 5.11713 8.06699 5.11713 8.06699 5.10713V4.10713C8.06699 3.66713 8.42699 3.30713 8.86699 3.30713C9.30699 3.30713 9.66699 3.66713 9.66699 4.10713V5.10713H10.267C10.707 5.10713 11.067 5.46713 11.067 5.90713C11.067 6.34713 10.707 6.70713 10.267 6.70713H8.26699C8.06699 6.70713 7.86699 6.90713 7.86699 7.10713C7.86699 7.30713 8.06699 7.50713 8.26699 7.50713H9.06699C10.147 7.50713 11.067 8.42713 11.067 9.50713C11.067 10.5271 10.257 11.3971 9.26699 11.4971C9.26699 11.4971 9.26699 11.4971 9.26699 11.5071V12.5071C9.26699 12.9471 8.90699 13.3071 8.46699 13.3071Z" fill="#9C9797"/>
</svg>
