<svg width="16" height="19" viewBox="0 0 16 19" fill="none" xmlns="http://www.w3.org/2000/svg">
<path d="M11.3324 10.1535C9.03236 10.1535 7.16569 12.0201 7.16569 14.3201C7.16569 16.6201 9.03236 18.4868 11.3324 18.4868C13.6324 18.4868 15.499 16.6201 15.499 14.3201C15.499 12.0201 13.6324 10.1535 11.3324 10.1535ZM12.7074 16.2785L10.9157 14.4868V11.8201H11.749V14.1452L13.2907 15.6868L12.7074 16.2785ZM12.1657 2.65348H9.51569C9.16569 1.68682 8.24902 0.986816 7.16569 0.986816C6.08236 0.986816 5.16569 1.68682 4.81569 2.65348H2.16569C1.24902 2.65348 0.499023 3.40348 0.499023 4.32015V16.8201C0.499023 17.7368 1.24902 18.4868 2.16569 18.4868H7.25736C6.76371 18.0088 6.36255 17.4438 6.07402 16.8201H2.16569V4.32015H3.83236V6.82015H10.499V4.32015H12.1657V8.55348C12.7574 8.63682 13.3157 8.81182 13.8324 9.05348V4.32015C13.8324 3.40348 13.0824 2.65348 12.1657 2.65348ZM7.16569 4.32015C6.70736 4.32015 6.33236 3.94515 6.33236 3.48682C6.33236 3.02848 6.70736 2.65348 7.16569 2.65348C7.62402 2.65348 7.99902 3.02848 7.99902 3.48682C7.99902 3.94515 7.62402 4.32015 7.16569 4.32015Z" fill="white"/>
</svg>
