<svg width="16" height="22" viewBox="0 0 16 22" fill="none" xmlns="http://www.w3.org/2000/svg">
<path d="M1.1673 14.6269C0.864733 14.0641 0.636208 13.483 0.481725 12.8837C0.327242 12.2843 0.25 11.6731 0.25 11.05C0.25 8.8872 1.00256 7.0465 2.50768 5.52792C4.01281 4.00933 5.84358 3.25004 7.99997 3.25004H8.7808L6.93077 1.40002L7.9846 0.346191L11.6384 4.00002L7.9846 7.65384L6.93077 6.60002L8.7808 4.74999H7.99997C6.26279 4.74999 4.78683 5.36153 3.57207 6.58462C2.35732 7.8077 1.74995 9.29617 1.74995 11.05C1.74995 11.4641 1.79514 11.8779 1.88552 12.2914C1.97591 12.7048 2.11148 13.1083 2.29225 13.5019L1.1673 14.6269ZM8.01535 21.6538L4.36155 18L8.01535 14.3462L9.06917 15.4L7.21915 17.25H7.99997C9.73716 17.25 11.2131 16.6385 12.4279 15.4154C13.6426 14.1923 14.25 12.7039 14.25 10.95C14.25 10.5359 14.2048 10.1221 14.1144 9.70867C14.024 9.29522 13.8885 8.89169 13.7077 8.49809L14.8327 7.37312C15.1352 7.93593 15.3637 8.51702 15.5182 9.11637C15.6727 9.71573 15.75 10.327 15.75 10.95C15.75 13.1128 14.9974 14.9535 13.4923 16.4721C11.9871 17.9907 10.1564 18.75 7.99997 18.75H7.21915L9.06917 20.6L8.01535 21.6538Z" fill="#5B5B5B"/>
</svg>
