<svg width="17" height="17" viewBox="0 0 17 17" fill="none" xmlns="http://www.w3.org/2000/svg">
<path d="M5.06301 0.507179C4.73301 0.217179 4.23301 0.237179 3.93301 0.567179L0.533009 4.37718C0.403009 4.52718 0.333008 4.71718 0.333008 4.90718V15.5072C0.333008 15.9472 0.693007 16.3072 1.13301 16.3072C1.57301 16.3072 1.93301 15.9472 1.93301 15.5072V5.21718L5.13301 1.64718C5.42301 1.31718 5.40301 0.817179 5.07301 0.517179L5.06301 0.507179Z" fill="#9C9797"/>
<path d="M14.533 0.307129H8.58301C8.35301 0.307129 8.12301 0.407129 7.97301 0.587129L3.52301 5.78713C3.40301 5.93713 3.33301 6.11713 3.33301 6.30713V15.5071C3.33301 15.9471 3.69301 16.3071 4.13301 16.3071H8.53301C8.97301 16.3071 9.33301 15.9471 9.33301 15.5071C9.33301 15.0671 8.97301 14.7071 8.53301 14.7071H4.93301V6.60713L5.18301 6.30713H6.73301C7.60301 6.30713 8.31301 5.59713 8.31301 4.71713V2.64713L8.94301 1.90713H13.723V5.50713C13.723 5.94713 14.083 6.30713 14.523 6.30713C14.963 6.30713 15.323 5.94713 15.323 5.50713V1.10713C15.333 0.667129 14.973 0.307129 14.533 0.307129Z" fill="#9C9797"/>
<path d="M7.13301 11.3071H8.53301C8.97301 11.3071 9.33301 11.6671 9.33301 12.1071C9.33301 12.5471 8.97301 12.9071 8.53301 12.9071H7.13301C6.69301 12.9071 6.33301 12.5471 6.33301 12.1071C6.33301 11.6671 6.69301 11.3071 7.13301 11.3071Z" fill="#9C9797"/>
<path d="M8.53301 8.30713H7.13301C6.69301 8.30713 6.33301 8.66713 6.33301 9.10713C6.33301 9.54713 6.69301 9.90713 7.13301 9.90713H8.53301C8.97301 9.90713 9.33301 9.54713 9.33301 9.10713C9.33301 8.66713 8.97301 8.30713 8.53301 8.30713Z" fill="#9C9797"/>
<path d="M14.623 9.10713C14.623 8.6653 14.2648 8.30713 13.823 8.30713C13.3812 8.30713 13.023 8.6653 13.023 9.10713V9.32164C12.0801 9.43643 11.333 10.2192 11.333 11.2071C11.333 12.2821 12.2247 13.1071 13.263 13.1071H14.393C14.6 13.1071 14.723 13.2576 14.723 13.4071C14.723 13.5521 14.5947 13.7071 14.393 13.7071H12.123C11.6812 13.7071 11.323 14.0653 11.323 14.5071C11.323 14.949 11.6812 15.3071 12.123 15.3071H13.023V15.5071C13.023 15.949 13.3812 16.3071 13.823 16.3071C14.2648 16.3071 14.623 15.949 14.623 15.5071V15.2935C15.5596 15.1824 16.323 14.4018 16.323 13.4071C16.323 12.3367 15.446 11.5071 14.393 11.5071H13.263C13.0613 11.5071 12.933 11.3521 12.933 11.2071C12.933 11.0576 13.056 10.9071 13.263 10.9071H15.533C15.9748 10.9071 16.333 10.549 16.333 10.1071C16.333 9.6653 15.9748 9.30713 15.533 9.30713H14.623V9.10713Z" fill="#9C9797"/>
</svg>
