<svg width="38" height="37" viewBox="0 0 38 37" fill="none" xmlns="http://www.w3.org/2000/svg">
<path d="M9.16667 33.6405H15.8333C15.8333 35.4738 14.3333 36.9738 12.5 36.9738C10.6667 36.9738 9.16667 35.4738 9.16667 33.6405ZM5.83333 31.9738H19.1667V28.6405H5.83333V31.9738ZM25 16.1405C25 22.5071 20.5667 25.9071 18.7167 26.9738H6.28333C4.43333 25.9071 0 22.5071 0 16.1405C0 9.24046 5.6 3.64046 12.5 3.64046C19.4 3.64046 25 9.24046 25 16.1405ZM21.6667 16.1405C21.6667 11.0905 17.55 6.9738 12.5 6.9738C7.45 6.9738 3.33333 11.0905 3.33333 16.1405C3.33333 20.2571 5.81667 22.6238 7.25 23.6405H17.75C19.1833 22.6238 21.6667 20.2571 21.6667 16.1405ZM33.1167 12.5905L30.8333 13.6405L33.1167 14.6905L34.1667 16.9738L35.2167 14.6905L37.5 13.6405L35.2167 12.5905L34.1667 10.3071L33.1167 12.5905ZM29.1667 10.3071L30.7333 6.8738L34.1667 5.30713L30.7333 3.74046L29.1667 0.307129L27.6 3.74046L24.1667 5.30713L27.6 6.8738L29.1667 10.3071Z" fill="#9C9797"/>
</svg>
