<svg width="38" height="37" viewBox="0 0 38 37" fill="none" xmlns="http://www.w3.org/2000/svg">
<path d="M9.16667 33.3333H15.8333C15.8333 35.1667 14.3333 36.6667 12.5 36.6667C10.6667 36.6667 9.16667 35.1667 9.16667 33.3333ZM5.83333 31.6667H19.1667V28.3333H5.83333V31.6667ZM25 15.8333C25 22.2 20.5667 25.6 18.7167 26.6667H6.28333C4.43333 25.6 0 22.2 0 15.8333C0 8.93333 5.6 3.33333 12.5 3.33333C19.4 3.33333 25 8.93333 25 15.8333ZM21.6667 15.8333C21.6667 10.7833 17.55 6.66667 12.5 6.66667C7.45 6.66667 3.33333 10.7833 3.33333 15.8333C3.33333 19.95 5.81667 22.3167 7.25 23.3333H17.75C19.1833 22.3167 21.6667 19.95 21.6667 15.8333ZM33.1167 12.2833L30.8333 13.3333L33.1167 14.3833L34.1667 16.6667L35.2167 14.3833L37.5 13.3333L35.2167 12.2833L34.1667 10L33.1167 12.2833ZM29.1667 10L30.7333 6.56667L34.1667 5L30.7333 3.43333L29.1667 0L27.6 3.43333L24.1667 5L27.6 6.56667L29.1667 10Z" fill="#9C9797"/>
</svg>
