<svg width="14" height="14" viewBox="0 0 14 14" fill="none" xmlns="http://www.w3.org/2000/svg">
<path d="M9.2 10C9.02 10 8.85 9.94 8.7 9.82L6.4 7.96C6.21 7.81 6.1 7.58 6.1 7.34V3.8C6.1 3.36 6.46 3 6.9 3C7.34 3 7.7 3.36 7.7 3.8V6.96L9.71 8.58C10.05 8.86 10.11 9.36 9.83 9.7C9.67 9.9 9.44 10 9.21 10H9.2ZM14 11.2V2.8C14 1.26 12.74 0 11.2 0H2.8C1.26 0 0 1.26 0 2.8V11.2C0 12.74 1.26 14 2.8 14H11.2C12.74 14 14 12.74 14 11.2ZM11.2 1.6C11.86 1.6 12.4 2.14 12.4 2.8V11.2C12.4 11.86 11.86 12.4 11.2 12.4H2.8C2.14 12.4 1.6 11.86 1.6 11.2V2.8C1.6 2.14 2.14 1.6 2.8 1.6H11.2Z" fill="#9C9797"/>
</svg>
