<svg width="16" height="16" viewBox="0 0 16 16" fill="none" xmlns="http://www.w3.org/2000/svg">
<path fill-rule="evenodd" clip-rule="evenodd" d="M1.24971 1.24996C1.40504 1.09463 1.70873 1.14648 1.92802 1.36577L14.6339 14.0717C14.8532 14.2909 14.905 14.5946 14.7497 14.75C14.5944 14.9053 14.2907 14.8534 14.0714 14.6342L1.36552 1.92827C1.14623 1.70898 1.09438 1.40529 1.24971 1.24996Z" fill="#5B5B5B"/>
<path fill-rule="evenodd" clip-rule="evenodd" d="M14.7497 1.24996C14.905 1.40529 14.8532 1.70898 14.6339 1.92827L1.92802 14.6342C1.70873 14.8534 1.40504 14.9053 1.24971 14.75C1.09438 14.5946 1.14623 14.2909 1.36552 14.0717L14.0714 1.36577C14.2907 1.14648 14.5944 1.09463 14.7497 1.24996Z" fill="#5B5B5B"/>
<path fill-rule="evenodd" clip-rule="evenodd" d="M1.60682 0.920932C1.78633 0.951579 1.96275 1.04706 2.10466 1.18898L7.99958 7.08389L13.8945 1.18898C14.0364 1.04706 14.2128 0.951579 14.3923 0.920932C14.5711 0.890409 14.7761 0.92293 14.9264 1.07317C15.0766 1.2234 15.1091 1.42841 15.0786 1.60719C15.0479 1.78669 14.9525 1.96311 14.8105 2.10503L8.91563 7.99995L14.8106 13.8949C14.9525 14.0368 15.0479 14.2132 15.0786 14.3927C15.1091 14.5715 15.0766 14.7765 14.9264 14.9267C14.7761 15.077 14.5711 15.1095 14.3923 15.079C14.2128 15.0483 14.0364 14.9528 13.8945 14.8109L7.99958 8.916L2.10466 14.8109C1.96274 14.9528 1.78633 15.0483 1.60682 15.079C1.42804 15.1095 1.22304 15.077 1.0728 14.9267C0.922564 14.7765 0.890043 14.5715 0.920565 14.3927C0.951212 14.2132 1.04669 14.0368 1.18861 13.8949L7.08353 7.99995L1.18861 2.10503C1.04669 1.96311 0.951213 1.78669 0.920566 1.60719C0.890043 1.42841 0.922565 1.2234 1.0728 1.07317C1.22304 0.92293 1.42805 0.890409 1.60682 0.920932ZM7.43708 8.3535L1.54216 14.2484C1.46479 14.3258 1.4247 14.4109 1.41343 14.4769C1.40204 14.5436 1.42126 14.5681 1.42635 14.5732C1.43145 14.5783 1.45595 14.5975 1.52267 14.5861C1.58867 14.5748 1.67374 14.5347 1.75111 14.4574L7.64603 8.56245L7.43708 8.3535ZM7.99958 8.20889L7.79063 7.99995L7.99958 7.791L8.20853 7.99995L7.99958 8.20889ZM8.35313 8.56245L14.248 14.4574C14.3254 14.5347 14.4105 14.5748 14.4765 14.5861C14.5432 14.5975 14.5677 14.5783 14.5728 14.5732C14.5779 14.5681 14.5971 14.5436 14.5857 14.4769C14.5745 14.4109 14.5344 14.3258 14.457 14.2484L8.56208 8.3535L8.35313 8.56245ZM8.56208 7.64639L14.457 1.75148C14.5344 1.6741 14.5745 1.58903 14.5857 1.52304C14.5971 1.45632 14.5779 1.43181 14.5728 1.42672C14.5677 1.42163 14.5432 1.40241 14.4765 1.4138C14.4105 1.42507 14.3254 1.46516 14.248 1.54253L8.35313 7.43745L8.56208 7.64639ZM7.64603 7.43745L7.43708 7.64639L1.54216 1.75148C1.46479 1.6741 1.4247 1.58903 1.41343 1.52304C1.40204 1.45632 1.42126 1.43181 1.42635 1.42672C1.43145 1.42163 1.45595 1.40241 1.52267 1.4138C1.58867 1.42507 1.67374 1.46516 1.75111 1.54253L7.64603 7.43745Z" fill="#5B5B5B"/>
</svg>
