<svg width="21" height="20" viewBox="0 0 21 20" fill="none" xmlns="http://www.w3.org/2000/svg">
<path d="M19.8372 9.7875C19.1021 7.88603 17.826 6.24164 16.1665 5.05755C14.507 3.87347 12.5369 3.20161 10.4997 3.125C8.46256 3.20161 6.49248 3.87347 4.83299 5.05755C3.17349 6.24164 1.89733 7.88603 1.16223 9.7875C1.11259 9.92482 1.11259 10.0752 1.16223 10.2125C1.89733 12.114 3.17349 13.7584 4.83299 14.9424C6.49248 16.1265 8.46256 16.7984 10.4997 16.875C12.5369 16.7984 14.507 16.1265 16.1665 14.9424C17.826 13.7584 19.1021 12.114 19.8372 10.2125C19.8869 10.0752 19.8869 9.92482 19.8372 9.7875ZM10.4997 15.625C7.18723 15.625 3.68723 13.1687 2.41848 10C3.68723 6.83125 7.18723 4.375 10.4997 4.375C13.8122 4.375 17.3122 6.83125 18.581 10C17.3122 13.1687 13.8122 15.625 10.4997 15.625Z" fill="#2956A8"/>
<path d="M10.5 6.25C9.75832 6.25 9.0333 6.46993 8.41661 6.88199C7.79993 7.29404 7.31928 7.87971 7.03545 8.56494C6.75162 9.25016 6.67736 10.0042 6.82206 10.7316C6.96675 11.459 7.3239 12.1272 7.84835 12.6517C8.3728 13.1761 9.04098 13.5333 9.76841 13.6779C10.4958 13.8226 11.2498 13.7484 11.9351 13.4645C12.6203 13.1807 13.206 12.7001 13.618 12.0834C14.0301 11.4667 14.25 10.7417 14.25 10C14.25 9.00544 13.8549 8.05161 13.1517 7.34835C12.4484 6.64509 11.4946 6.25 10.5 6.25ZM10.5 12.5C10.0055 12.5 9.5222 12.3534 9.11108 12.0787C8.69995 11.804 8.37952 11.4135 8.1903 10.9567C8.00108 10.4999 7.95158 9.99723 8.04804 9.51227C8.1445 9.02732 8.3826 8.58186 8.73223 8.23223C9.08187 7.8826 9.52732 7.6445 10.0123 7.54804C10.4972 7.45157 10.9999 7.50108 11.4567 7.6903C11.9135 7.87952 12.304 8.19995 12.5787 8.61107C12.8534 9.0222 13 9.50555 13 10C13 10.663 12.7366 11.2989 12.2678 11.7678C11.7989 12.2366 11.163 12.5 10.5 12.5Z" fill="#2956A8"/>
</svg>
