<svg width="17" height="16" viewBox="0 0 17 16" fill="none" xmlns="http://www.w3.org/2000/svg">
<path d="M8.66699 16C4.25699 16 0.666992 12.41 0.666992 8C0.666992 3.59 4.25699 0 8.66699 0C13.077 0 16.667 3.59 16.667 8C16.667 12.41 13.077 16 8.66699 16ZM8.66699 1.6C5.13699 1.6 2.26699 4.47 2.26699 8C2.26699 11.53 5.13699 14.4 8.66699 14.4C12.197 14.4 15.067 11.53 15.067 8C15.067 4.47 12.197 1.6 8.66699 1.6ZM8.46699 13C8.02699 13 7.66699 12.64 7.66699 12.2V11.2H7.06699C6.62699 11.2 6.26699 10.84 6.26699 10.4C6.26699 9.96 6.62699 9.6 7.06699 9.6H9.06699C9.26699 9.6 9.46699 9.4 9.46699 9.2C9.46699 9 9.26699 8.8 9.06699 8.8H8.26699C7.18699 8.8 6.26699 7.88 6.26699 6.8C6.26699 5.78 7.07699 4.91 8.06699 4.81C8.06699 4.81 8.06699 4.81 8.06699 4.8V3.8C8.06699 3.36 8.42699 3 8.86699 3C9.30699 3 9.66699 3.36 9.66699 3.8V4.8H10.267C10.707 4.8 11.067 5.16 11.067 5.6C11.067 6.04 10.707 6.4 10.267 6.4H8.26699C8.06699 6.4 7.86699 6.6 7.86699 6.8C7.86699 7 8.06699 7.2 8.26699 7.2H9.06699C10.147 7.2 11.067 8.12 11.067 9.2C11.067 10.22 10.257 11.09 9.26699 11.19C9.26699 11.19 9.26699 11.19 9.26699 11.2V12.2C9.26699 12.64 8.90699 13 8.46699 13Z" fill="#9C9797"/>
</svg>
