<svg width="24" height="24" viewBox="0 0 24 24" fill="none" xmlns="http://www.w3.org/2000/svg">
<rect width="24" height="24" rx="12" fill="#F3BE2E"/>
<path fill-rule="evenodd" clip-rule="evenodd" d="M11.9984 18.665C15.6803 18.665 18.665 15.6803 18.665 11.9984C18.665 8.31647 15.6803 5.33171 11.9984 5.33171C8.31647 5.33171 5.33171 8.31647 5.33171 11.9984C5.33171 15.6803 8.31647 18.665 11.9984 18.665ZM11.9984 19.3317C16.0485 19.3317 19.3317 16.0485 19.3317 11.9984C19.3317 7.94828 16.0485 4.66504 11.9984 4.66504C7.94828 4.66504 4.66504 7.94828 4.66504 11.9984C4.66504 16.0485 7.94828 19.3317 11.9984 19.3317Z" fill="white"/>
<path fill-rule="evenodd" clip-rule="evenodd" d="M11.9984 13.9984C11.8143 13.9984 11.665 13.8491 11.665 13.665V7.99837C11.665 7.81428 11.8143 7.66504 11.9984 7.66504C12.1825 7.66504 12.3317 7.81428 12.3317 7.99837V13.665C12.3317 13.8491 12.1825 13.9984 11.9984 13.9984Z" fill="white"/>
<path fill-rule="evenodd" clip-rule="evenodd" d="M12.3317 15.3317V15.9984C12.3317 16.1825 12.1825 16.3317 11.9984 16.3317C11.8143 16.3317 11.665 16.1825 11.665 15.9984V15.3317C11.665 15.1476 11.8143 14.9984 11.9984 14.9984C12.1825 14.9984 12.3317 15.1476 12.3317 15.3317Z" fill="white"/>
<path fill-rule="evenodd" clip-rule="evenodd" d="M11.9984 4.91504C8.08636 4.91504 4.91504 8.08636 4.91504 11.9984C4.91504 15.9104 8.08636 19.0817 11.9984 19.0817C15.9104 19.0817 19.0817 15.9104 19.0817 11.9984C19.0817 8.08636 15.9104 4.91504 11.9984 4.91504ZM4.41504 11.9984C4.41504 7.81021 7.81021 4.41504 11.9984 4.41504C16.1865 4.41504 19.5817 7.81021 19.5817 11.9984C19.5817 16.1865 16.1865 19.5817 11.9984 19.5817C7.81021 19.5817 4.41504 16.1865 4.41504 11.9984ZM11.9984 5.58171C8.45455 5.58171 5.58171 8.45455 5.58171 11.9984C5.58171 15.5422 8.45455 18.415 11.9984 18.415C15.5422 18.415 18.415 15.5422 18.415 11.9984C18.415 8.45455 15.5422 5.58171 11.9984 5.58171ZM5.08171 11.9984C5.08171 8.1784 8.1784 5.08171 11.9984 5.08171C15.8183 5.08171 18.915 8.1784 18.915 11.9984C18.915 15.8183 15.8183 18.915 11.9984 18.915C8.1784 18.915 5.08171 15.8183 5.08171 11.9984ZM11.415 7.99837C11.415 7.67621 11.6762 7.41504 11.9984 7.41504C12.3205 7.41504 12.5817 7.67621 12.5817 7.99837V13.665C12.5817 13.9872 12.3205 14.2484 11.9984 14.2484C11.6762 14.2484 11.415 13.9872 11.415 13.665V7.99837ZM11.9984 7.91504C11.9523 7.91504 11.915 7.95235 11.915 7.99837V13.665C11.915 13.7111 11.9523 13.7484 11.9984 13.7484C12.0444 13.7484 12.0817 13.7111 12.0817 13.665V7.99837C12.0817 7.95235 12.0444 7.91504 11.9984 7.91504ZM11.415 15.3317C11.415 15.0095 11.6762 14.7484 11.9984 14.7484C12.3205 14.7484 12.5817 15.0095 12.5817 15.3317V15.9984C12.5817 16.3205 12.3205 16.5817 11.9984 16.5817C11.6762 16.5817 11.415 16.3205 11.415 15.9984V15.3317ZM11.9984 15.2484C11.9523 15.2484 11.915 15.2857 11.915 15.3317V15.9984C11.915 16.0444 11.9523 16.0817 11.9984 16.0817C12.0444 16.0817 12.0817 16.0444 12.0817 15.9984V15.3317C12.0817 15.2857 12.0444 15.2484 11.9984 15.2484Z" fill="white"/>
</svg>
