<svg width="17" height="16" viewBox="0 0 17 16" fill="none" xmlns="http://www.w3.org/2000/svg">
<path d="M5.06301 0.20005C4.73301 -0.0899502 4.23301 -0.0699503 3.93301 0.26005L0.533009 4.07005C0.403009 4.22005 0.333008 4.41005 0.333008 4.60005V15.2C0.333008 15.64 0.693007 16 1.13301 16C1.57301 16 1.93301 15.64 1.93301 15.2V4.91005L5.13301 1.34005C5.42301 1.01005 5.40301 0.51005 5.07301 0.21005L5.06301 0.20005Z" fill="#9C9797"/>
<path d="M14.533 5.05242e-08H8.58301C8.35301 5.05242e-08 8.12301 0.1 7.97301 0.28L3.52301 5.48C3.40301 5.63 3.33301 5.81 3.33301 6V15.2C3.33301 15.64 3.69301 16 4.13301 16H8.53301C8.97301 16 9.33301 15.64 9.33301 15.2C9.33301 14.76 8.97301 14.4 8.53301 14.4H4.93301V6.3L5.18301 6H6.73301C7.60301 6 8.31301 5.29 8.31301 4.41V2.34L8.94301 1.6H13.723V5.2C13.723 5.64 14.083 6 14.523 6C14.963 6 15.323 5.64 15.323 5.2V0.8C15.333 0.36 14.973 5.05242e-08 14.533 5.05242e-08Z" fill="#9C9797"/>
<path d="M7.13301 11H8.53301C8.97301 11 9.33301 11.36 9.33301 11.8C9.33301 12.24 8.97301 12.6 8.53301 12.6H7.13301C6.69301 12.6 6.33301 12.24 6.33301 11.8C6.33301 11.36 6.69301 11 7.13301 11Z" fill="#9C9797"/>
<path d="M8.53301 8H7.13301C6.69301 8 6.33301 8.36 6.33301 8.8C6.33301 9.24 6.69301 9.6 7.13301 9.6H8.53301C8.97301 9.6 9.33301 9.24 9.33301 8.8C9.33301 8.36 8.97301 8 8.53301 8Z" fill="#9C9797"/>
<path d="M14.623 8.8C14.623 8.35817 14.2648 8 13.823 8C13.3812 8 13.023 8.35817 13.023 8.8V9.01451C12.0801 9.1293 11.333 9.91205 11.333 10.9C11.333 11.975 12.2247 12.8 13.263 12.8H14.393C14.6 12.8 14.723 12.9504 14.723 13.1C14.723 13.245 14.5947 13.4 14.393 13.4H12.123C11.6812 13.4 11.323 13.7582 11.323 14.2C11.323 14.6418 11.6812 15 12.123 15H13.023V15.2C13.023 15.6418 13.3812 16 13.823 16C14.2648 16 14.623 15.6418 14.623 15.2V14.9864C15.5596 14.8753 16.323 14.0947 16.323 13.1C16.323 12.0296 15.446 11.2 14.393 11.2H13.263C13.0613 11.2 12.933 11.045 12.933 10.9C12.933 10.7504 13.056 10.6 13.263 10.6H15.533C15.9748 10.6 16.333 10.2418 16.333 9.8C16.333 9.35817 15.9748 9 15.533 9H14.623V8.8Z" fill="#9C9797"/>
</svg>
