<svg width="306" height="306" viewBox="0 0 306 306" fill="none" xmlns="http://www.w3.org/2000/svg">
<g filter="url(#filter0_ddd_1_3)">
<g clip-path="url(#clip0_1_3)">
<rect width="245" height="245" transform="translate(54.6477 2) rotate(10.5)" fill="#FFD966"/>
<path d="M69.4359 46.2155C69.2471 46.1805 69.1057 46.0871 69.0118 45.9355C68.9178 45.7838 68.9015 45.5428 68.9627 45.2124C69.0086 44.9647 69.1597 44.5777 69.4159 44.0516C69.686 43.5158 70.0268 42.8956 70.4381 42.1907C70.8612 41.4881 71.3215 40.7496 71.8189 39.9753C72.3304 39.1913 72.8525 38.4155 73.3853 37.6477C73.9182 36.88 74.4331 36.176 74.9301 35.5359C75.4292 34.8839 75.8781 34.3386 76.2767 33.8999C76.6754 33.4612 76.9951 33.1848 77.2359 33.0708C77.5165 32.9397 77.763 32.8939 77.9753 32.9332C78.0933 32.9551 78.2091 32.9888 78.3227 33.0342C78.4364 33.0797 78.529 33.1396 78.6007 33.2139C78.789 33.3831 78.9183 33.706 78.9886 34.1828C79.0729 34.65 79.1149 35.2131 79.1149 35.8721C79.1169 36.5193 79.0867 37.2094 79.0241 37.9422C78.9755 38.6655 78.9161 39.3807 78.8461 40.0877C79.2088 40.1061 79.5104 40.1254 79.7507 40.1456C79.9911 40.1657 80.1644 40.1856 80.2705 40.2053C80.6717 40.2796 80.9156 40.3798 81.0021 40.5056C81.0886 40.6315 81.1246 40.7663 81.1102 40.9101C81.0944 41.1269 81.0004 41.3047 80.8282 41.4436C80.656 41.5826 80.4325 41.6693 80.1576 41.7038C80.0706 41.7121 79.886 41.7206 79.6037 41.7293C79.3353 41.7284 79.0117 41.7294 78.6328 41.7324C78.579 42.0886 78.5237 42.42 78.4668 42.7268C78.424 43.024 78.3828 43.2787 78.3435 43.4911C78.1445 44.5648 77.9298 45.3611 77.6994 45.8798C77.4712 46.3867 77.2452 46.717 77.0214 46.8708C76.7977 47.0246 76.5973 47.0851 76.4203 47.0523C76.2079 47.0129 76.0714 46.9266 76.0106 46.7933C75.9521 46.6482 75.9447 46.4577 75.9884 46.2217L76.2213 44.9651C76.3023 44.5285 76.3882 44.0319 76.4792 43.4751C76.5841 42.9088 76.6887 42.3118 76.7928 41.6843C76.0748 41.6732 75.3461 41.6541 74.6066 41.6269C73.879 41.6019 73.248 41.5826 72.7135 41.569C72.3293 42.1934 71.9925 42.7595 71.7031 43.2673C71.4159 43.7632 71.2107 44.1462 71.0874 44.4163C70.8011 44.9735 70.5598 45.3864 70.3635 45.6551C70.1694 45.9121 69.9987 46.0757 69.8515 46.146C69.716 46.2186 69.5774 46.2417 69.4359 46.2155ZM73.6072 40.1053C74.247 40.0774 74.8551 40.0559 75.4315 40.0407C76.0197 40.0277 76.5575 40.0236 77.0448 40.0285C77.2062 38.96 77.3293 37.9332 77.4143 36.9482C77.5132 35.9536 77.5325 35.1578 77.4723 34.5608C77.176 34.9087 76.8143 35.3786 76.3872 35.9707C75.9602 36.5628 75.5023 37.2224 75.0136 37.9495C74.5389 38.667 74.0701 39.3856 73.6072 40.1053ZM85.2122 49.0113C84.6341 48.9041 84.1567 48.6814 83.78 48.3431C83.4173 47.9952 83.1633 47.5881 83.0178 47.1218C82.8724 46.6554 82.8412 46.1981 82.9243 45.7497C83.0992 44.8058 83.424 43.9751 83.8988 43.2576C84.3756 42.5283 84.9176 41.9087 85.5247 41.3988C86.1458 40.8793 86.7612 40.4563 87.3709 40.13C87.9923 39.8058 88.541 39.578 89.017 39.4465C89.5069 39.3054 89.8462 39.2524 90.035 39.2873C90.4126 39.3573 90.5664 39.5811 90.4964 39.9587C90.4636 40.1357 90.3073 40.3203 90.0276 40.5125C89.7501 40.693 89.4 40.9027 88.9774 41.1417C88.5548 41.3806 88.1009 41.6566 87.6157 41.9694C87.1328 42.2704 86.6636 42.6289 86.2082 43.0449C85.7549 43.4491 85.3557 43.9242 85.0103 44.4705C84.6672 45.0049 84.4311 45.6202 84.3021 46.3163C84.1709 47.0243 84.3944 47.4318 84.9725 47.539C85.5035 47.6374 86.0648 47.6377 86.6565 47.5399C87.2601 47.4442 87.8627 47.2874 88.4645 47.0695C89.0803 46.8419 89.6747 46.5981 90.2477 46.3382C90.8206 46.0782 91.3431 45.8272 91.8151 45.5852C92.2893 45.3314 92.6866 45.1304 93.007 44.9823C93.3273 44.8342 93.5465 44.7711 93.6645 44.793C93.9005 44.8367 93.9944 44.9884 93.9463 45.2479C93.9091 45.4485 93.7242 45.6888 93.3916 45.9689C93.059 46.249 92.6265 46.5411 92.0942 46.8452C91.5619 47.1492 90.9754 47.4494 90.3346 47.7456C89.6961 48.03 89.0572 48.2838 88.4178 48.507C87.7806 48.7184 87.1779 48.8752 86.6098 48.9774C86.0556 49.07 85.5898 49.0813 85.2122 49.0113ZM93.0193 50.6779C92.5709 50.5948 92.2375 50.3195 92.0191 49.8518C91.8146 49.3746 91.7747 48.7997 91.8994 48.1271C92.0153 47.5018 92.2835 46.9108 92.704 46.3541C93.1362 45.7996 93.6645 45.2872 94.2886 44.8171C94.9127 44.347 95.5753 43.9328 96.2763 43.5745C96.9795 43.2045 97.6707 42.8993 98.3499 42.6591C99.0408 42.421 99.6645 42.2498 100.221 42.1454C100.777 42.0411 101.209 42.0173 101.515 42.0742C101.681 42.1048 101.81 42.1653 101.903 42.2558C101.998 42.3345 102.03 42.4564 102 42.6216C101.98 42.7278 101.92 42.8204 101.82 42.8995C101.832 42.9017 101.844 42.9039 101.856 42.9061C102.115 42.9542 102.216 43.1316 102.16 43.4384C102.14 43.5446 102.058 43.7552 101.914 44.0703C101.773 44.3735 101.604 44.7572 101.408 45.2213C101.212 45.6854 101.018 46.2047 100.826 46.7794C100.637 47.3422 100.486 47.9245 100.375 48.5263C100.281 49.0336 100.428 49.3234 100.818 49.3956C101.254 49.4765 101.715 49.4582 102.201 49.3407C102.686 49.2232 103.168 49.0623 103.645 48.8578C104.124 48.6416 104.567 48.4246 104.974 48.2071C105.382 47.9777 105.729 47.7857 106.014 47.631C106.299 47.4764 106.495 47.4089 106.601 47.4286C106.695 47.4461 106.772 47.4909 106.832 47.563C106.892 47.6351 106.91 47.736 106.886 47.8658C106.864 47.9838 106.707 48.1743 106.414 48.4374C106.121 48.7004 105.744 48.9905 105.282 49.3077C104.821 49.6249 104.314 49.9216 103.763 50.1977C103.211 50.4738 102.66 50.6829 102.109 50.8248C101.558 50.9667 101.052 50.9951 100.592 50.9098C100.238 50.8442 99.9331 50.6779 99.6774 50.4108C99.4358 50.1341 99.2757 49.7139 99.1971 49.1502C99.1304 48.5886 99.1833 47.8417 99.3561 46.9096L99.4381 46.4672C98.6828 47.3157 97.9133 48.0762 97.1297 48.7487C96.3578 49.4233 95.6155 49.9387 94.9026 50.2947C94.2016 50.653 93.5738 50.7807 93.0193 50.6779ZM100.943 43.2861C100.88 43.2988 100.79 43.3189 100.676 43.3464C100.087 43.4936 99.4637 43.6954 98.8059 43.9518C98.16 44.2104 97.5182 44.5125 96.8805 44.8581C96.2546 45.2059 95.6786 45.5812 95.1524 45.9841C94.6262 46.3869 94.1873 46.812 93.8359 47.2595C93.4845 47.707 93.265 48.1667 93.1776 48.6386C93.1491 48.792 93.1568 48.9155 93.2004 49.009C93.2559 49.1047 93.3663 49.1679 93.5315 49.1985C93.7674 49.2422 94.1015 49.1516 94.5338 48.9266C94.9682 48.6898 95.4555 48.3652 95.9957 47.9527C96.5478 47.5424 97.1096 47.0791 97.6813 46.5626C98.253 46.0461 98.8022 45.5194 99.3289 44.9824C99.8673 44.4476 100.338 43.949 100.741 43.4867C100.804 43.4128 100.871 43.346 100.943 43.2861ZM113.315 44.7553C113.775 44.0474 114.223 43.3126 114.657 42.551C115.103 41.7915 115.522 41.0089 115.916 40.2031C116.03 39.9802 116.172 39.8111 116.339 39.6958C116.521 39.5708 116.712 39.5269 116.913 39.5641C117.055 39.5903 117.163 39.6653 117.237 39.789C117.324 39.9149 117.351 40.0663 117.318 40.2433C117.276 40.4675 117.116 40.8404 116.836 41.3622C116.568 41.8861 116.226 42.5488 115.808 43.3502C115.403 44.1538 114.968 45.0861 114.503 46.1471C114.052 47.1985 113.614 48.3745 113.19 49.675C112.778 50.9776 112.432 52.3841 112.152 53.8944C112.09 54.2248 111.969 54.483 111.788 54.6692C111.605 54.8671 111.413 54.9475 111.213 54.9103C111.095 54.8884 110.988 54.8382 110.893 54.7595C110.798 54.6808 110.73 54.5217 110.689 54.2822C110.657 54.0567 110.66 53.7095 110.699 53.2406C110.739 52.7599 110.833 52.1184 110.982 51.3161C111.096 50.7025 111.255 50.0424 111.459 49.3358C110.735 50.2145 109.986 50.9606 109.213 51.5741C108.455 52.1779 107.744 52.6198 107.082 52.8999C106.432 53.1821 105.9 53.2849 105.487 53.2084C104.98 53.1144 104.599 52.8667 104.343 52.4655C104.098 52.0783 104.036 51.5543 104.159 50.8935C104.266 50.3154 104.512 49.7447 104.897 49.1814C105.282 48.6182 105.754 48.0831 106.311 47.5763C106.871 47.0576 107.472 46.5831 108.113 46.1527C108.754 45.7224 109.383 45.3569 110 45.0563C110.631 44.7462 111.204 44.5227 111.717 44.386C112.233 44.2375 112.638 44.1906 112.933 44.2452C113.051 44.2671 113.15 44.3281 113.229 44.4282C113.308 44.5283 113.337 44.6373 113.315 44.7553ZM112.983 45.2613C112.885 45.3286 112.769 45.3926 112.636 45.4533C112.503 45.514 112.357 45.5785 112.198 45.6466C111.611 45.9162 110.96 46.2349 110.245 46.6027C109.544 46.961 108.857 47.3708 108.186 47.8322C107.529 48.284 106.966 48.7838 106.499 49.3318C106.031 49.8797 105.737 50.4782 105.617 51.1271C105.564 51.4103 105.679 51.5781 105.963 51.6306C106.352 51.7028 106.811 51.5986 107.339 51.3181C107.881 51.028 108.461 50.5985 109.079 50.0296C109.699 49.4489 110.34 48.7561 111.002 47.9513C111.665 47.1346 112.326 46.2379 112.983 45.2613ZM124.032 48.0596C123.962 48.4372 123.775 48.787 123.471 49.109C123.169 49.4193 122.793 49.7035 122.343 49.9617C121.894 50.2081 121.408 50.4292 120.883 50.6249C120.359 50.8206 119.841 50.9809 119.33 51.1058C118.818 51.2307 118.356 51.322 117.943 51.3796C117.763 51.8223 117.64 52.2206 117.575 52.5745C117.533 52.7987 117.557 52.9679 117.645 53.0819C117.734 53.196 117.891 53.2738 118.115 53.3154C118.61 53.4072 119.152 53.416 119.739 53.3418C120.326 53.2676 120.935 53.1425 121.566 52.9665C122.197 52.7905 122.807 52.5924 123.397 52.3722C123.987 52.152 124.527 51.9408 125.016 51.7386C125.516 51.5385 125.931 51.3773 126.259 51.255C126.586 51.1326 126.797 51.0802 126.892 51.0977C127.033 51.124 127.131 51.1909 127.184 51.2984C127.251 51.3963 127.274 51.5042 127.252 51.6222C127.235 51.7166 127.053 51.8721 126.708 52.0889C126.375 52.3077 125.932 52.5553 125.381 52.8314C124.831 53.0957 124.221 53.3608 123.549 53.6269C122.877 53.8929 122.186 54.131 121.476 54.3411C120.778 54.5534 120.109 54.7041 119.47 54.7931C118.843 54.8844 118.293 54.8862 117.821 54.7988C117.208 54.6851 116.773 54.3664 116.516 53.8428C116.259 53.3192 116.22 52.5737 116.399 51.6062C116.52 50.9572 116.724 50.3177 117.011 49.6875C117.311 49.0596 117.664 48.4721 118.07 47.925C118.491 47.3683 118.928 46.8879 119.381 46.4837C119.848 46.0699 120.313 45.7656 120.777 45.5708C121.242 45.3641 121.669 45.2969 122.059 45.3691C122.802 45.5068 123.348 45.8216 123.696 46.3133C124.044 46.805 124.156 47.3871 124.032 48.0596ZM118.567 50.0857C118.974 49.9293 119.395 49.7633 119.831 49.5877C120.266 49.4121 120.673 49.2251 121.051 49.0267C121.43 48.8284 121.746 48.6062 121.999 48.3602C122.266 48.1046 122.428 47.8234 122.485 47.5166C122.566 47.0801 122.37 46.818 121.898 46.7306C121.603 46.6759 121.255 46.8067 120.855 47.1231C120.469 47.4298 120.073 47.8508 119.669 48.3861C119.265 48.9214 118.897 49.4879 118.567 50.0857ZM139.169 58.206C139.122 58.3926 139.017 58.5318 138.853 58.6236C138.69 58.7153 138.514 58.7437 138.325 58.7087C138.113 58.6693 137.949 58.5657 137.833 58.3979C137.718 58.2301 137.688 57.9987 137.742 57.7037C137.884 56.9368 138.074 56.1115 138.311 55.2279C138.55 54.3325 138.805 53.4521 139.075 52.5869C139.348 51.7099 139.607 50.9036 139.853 50.1681C139.361 50.6505 138.822 51.1854 138.237 51.7726C137.664 52.3621 137.081 52.9434 136.486 53.5167C135.892 54.09 135.319 54.6123 134.768 55.0838C134.219 55.5435 133.73 55.9105 133.301 56.1849C132.874 56.4474 132.542 56.5569 132.306 56.5131C131.87 56.4322 131.524 56.1911 131.269 55.7899C131.016 55.3769 130.938 54.9049 131.037 54.374C131.076 54.1616 131.153 53.8769 131.268 53.5199C131.386 53.151 131.512 52.7656 131.647 52.3636C131.783 51.9615 131.907 51.5879 132.02 51.2427C132.135 50.8857 132.209 50.6187 132.242 50.4417C132.272 50.2765 132.281 50.1316 132.267 50.0071C132.268 49.8729 132.221 49.7971 132.126 49.7796C131.985 49.7533 131.761 49.8765 131.454 50.1492C131.149 50.41 130.799 50.7539 130.402 51.1808C130.018 51.6099 129.616 52.0663 129.196 52.55C128.789 53.0359 128.405 53.4956 128.044 53.9291C127.685 54.3507 127.386 54.6798 127.147 54.9162C126.945 55.1473 126.769 55.3099 126.617 55.4038C126.466 55.4977 126.295 55.5272 126.107 55.4922C125.882 55.4507 125.698 55.2944 125.553 55.0234C125.419 54.7546 125.385 54.4492 125.448 54.107C125.485 53.9064 125.578 53.6003 125.728 53.1887C125.88 52.7652 126.057 52.3037 126.259 51.8043C126.473 51.307 126.679 50.8204 126.878 50.3445C127.09 49.859 127.27 49.4469 127.418 49.1083C127.587 48.7246 127.755 48.4751 127.923 48.3598C128.091 48.2444 128.257 48.202 128.422 48.2327C128.646 48.2742 128.808 48.3896 128.907 48.5788C129.02 48.7585 129.046 49.0135 128.985 49.3438C128.974 49.4028 128.909 49.5556 128.79 49.802C128.674 50.0367 128.528 50.3271 128.354 50.6732C128.194 51.0096 128.019 51.3616 127.829 51.7291C127.651 52.0988 127.496 52.4423 127.364 52.7595C127.704 52.3711 128.063 51.9494 128.44 51.4945C128.829 51.0418 129.217 50.5951 129.604 50.1542C129.993 49.7015 130.373 49.296 130.745 48.9377C131.118 48.5676 131.47 48.2849 131.799 48.0896C132.128 47.8943 132.422 47.8207 132.682 47.8688C132.989 47.9257 133.254 48.0726 133.479 48.3094C133.715 48.5485 133.887 48.8427 133.993 49.1919C134.099 49.541 134.116 49.9103 134.044 50.2997C133.993 50.5711 133.875 50.9458 133.689 51.4239C133.505 51.8901 133.307 52.3966 133.096 52.9433C132.897 53.4921 132.738 54.0181 132.621 54.521C132.599 54.639 132.623 54.7046 132.694 54.7177C132.753 54.7286 132.831 54.7005 132.929 54.6332C133.341 54.319 133.803 53.9347 134.315 53.4803C134.828 53.0141 135.353 52.5195 135.889 51.9965C136.437 51.4756 136.977 50.9655 137.509 50.4661C138.044 49.9548 138.537 49.4971 138.99 49.093C139.458 48.6792 139.859 48.3569 140.195 48.1262C140.542 47.8977 140.799 47.7988 140.964 47.8294C141.318 47.895 141.571 48.0456 141.722 48.2812C141.874 48.5167 141.906 48.8705 141.818 49.3425C141.748 49.72 141.628 50.2042 141.458 50.7951C141.299 51.3881 141.113 52.0309 140.899 52.7235C140.697 53.4183 140.482 54.1169 140.254 54.8191C140.04 55.5118 139.835 56.1572 139.639 56.7554C139.445 57.3419 139.288 57.8254 139.169 58.206ZM143.177 59.5896C142.953 59.5481 142.767 59.4283 142.621 59.2303C142.477 59.0205 142.439 58.7328 142.506 58.367C142.555 58.1074 142.657 57.7541 142.813 57.3071C142.971 56.8482 143.16 56.3525 143.381 55.8198C143.602 55.2871 143.828 54.7614 144.058 54.2427C144.302 53.7144 144.536 53.245 144.758 52.8347C144.981 52.4244 145.165 52.1229 145.31 51.9302C145.435 51.7825 145.544 51.6927 145.635 51.6608C145.738 51.6311 145.831 51.6239 145.913 51.6392C146.079 51.6698 146.21 51.7492 146.309 51.8772C146.419 52.0075 146.445 52.226 146.389 52.5328C146.356 52.7098 146.266 52.9982 146.118 53.398C145.985 53.7883 145.815 54.2449 145.608 54.768C145.415 55.2814 145.208 55.8104 144.985 56.3549C144.776 56.8898 144.571 57.4011 144.371 57.8887C144.171 58.3764 144.009 58.7859 143.887 59.1171C143.805 59.2971 143.695 59.4293 143.557 59.5137C143.433 59.5884 143.307 59.6137 143.177 59.5896ZM146.725 50.1238C146.454 50.0735 146.21 49.9428 145.992 49.7317C145.787 49.5227 145.718 49.2354 145.786 48.8696C145.843 48.5629 145.96 48.3282 146.136 48.1657C146.325 48.0053 146.527 47.9024 146.743 47.857C146.973 47.802 147.164 47.7887 147.318 47.8171C147.471 47.8455 147.635 47.9126 147.811 48.0184C148.001 48.1146 148.15 48.2643 148.259 48.4675C148.37 48.6589 148.395 48.9198 148.333 49.2502C148.292 49.4744 148.178 49.6608 147.992 49.8093C147.808 49.9461 147.595 50.0409 147.353 50.0937C147.123 50.1487 146.914 50.1588 146.725 50.1238ZM150.234 61.0623C149.656 60.9552 149.178 60.7324 148.802 60.3941C148.439 60.0462 148.185 59.6391 148.039 59.1728C147.894 58.7065 147.863 58.2491 147.946 57.8008C148.121 56.8568 148.446 56.0261 148.92 55.3086C149.397 54.5793 149.939 53.9597 150.546 53.4498C151.167 52.9303 151.783 52.5073 152.392 52.181C153.014 51.8568 153.563 51.629 154.039 51.4975C154.528 51.3564 154.868 51.3034 155.057 51.3384C155.434 51.4084 155.588 51.6321 155.518 52.0097C155.485 52.1867 155.329 52.3713 155.049 52.5636C154.772 52.744 154.422 52.9537 153.999 53.1927C153.576 53.4317 153.122 53.7076 152.637 54.0204C152.154 54.3215 151.685 54.68 151.23 55.0959C150.777 55.5001 150.377 55.9753 150.032 56.5215C149.689 57.0559 149.453 57.6712 149.324 58.3673C149.192 59.0753 149.416 59.4828 149.994 59.59C150.525 59.6884 151.086 59.6887 151.678 59.5909C152.282 59.4953 152.884 59.3385 153.486 59.1205C154.102 58.8929 154.696 58.6491 155.269 58.3892C155.842 58.1293 156.365 57.8783 156.837 57.6362C157.311 57.3824 157.708 57.1814 158.029 57.0333C158.349 56.8852 158.568 56.8221 158.686 56.844C158.922 56.8877 159.016 57.0394 158.968 57.299C158.931 57.4996 158.746 57.7399 158.413 58.02C158.081 58.3 157.648 58.5921 157.116 58.8962C156.583 59.2003 155.997 59.5004 155.356 59.7966C154.718 60.081 154.079 60.3348 153.439 60.5581C152.802 60.7695 152.199 60.9263 151.631 61.0284C151.077 61.121 150.611 61.1323 150.234 61.0623ZM175.593 66.0553C175.298 66.0006 175.041 65.8736 174.822 65.6743C174.6 65.4868 174.431 65.1809 174.314 64.7565C174.2 64.3204 174.156 63.7326 174.183 62.9931C174.225 62.2441 174.353 61.2855 174.57 60.1174C174.603 59.9404 174.636 59.7635 174.668 59.5865C174.703 59.3977 174.744 59.21 174.791 59.0234C174.339 59.6841 173.851 60.3076 173.328 60.894C172.816 61.4826 172.295 61.9901 171.764 62.4166C171.245 62.8452 170.74 63.1666 170.249 63.3806C169.77 63.5969 169.335 63.6689 168.946 63.5967C168.25 63.4677 167.732 63.0973 167.394 62.4854C167.068 61.8757 167.017 60.9632 167.243 59.7479C167.376 59.0282 167.571 58.2711 167.828 57.4766C168.097 56.6844 168.398 55.9164 168.731 55.1726C169.064 54.4289 169.396 53.7581 169.727 53.1603C170.069 52.5647 170.387 52.0989 170.681 51.7629C170.976 51.4269 171.211 51.2753 171.388 51.3081C171.683 51.3627 171.887 51.4799 172 51.6595C172.127 51.8295 172.169 52.0325 172.125 52.2685C172.095 52.4337 171.972 52.7343 171.757 53.1704C171.542 53.6066 171.28 54.1316 170.971 54.7455C170.664 55.3477 170.342 55.996 170.006 56.6903C169.682 57.3869 169.388 58.083 169.125 58.7787C168.864 59.4626 168.679 60.0995 168.569 60.6895C168.458 61.2912 168.644 61.6369 169.128 61.7266C169.694 61.8315 170.27 61.6881 170.855 61.2962C171.442 60.8924 172.024 60.3229 172.6 59.5875C173.175 58.8521 173.733 58.0157 174.273 57.0784C174.827 56.1315 175.348 55.1603 175.838 54.1648C175.846 54.0564 175.862 53.9374 175.886 53.8076C175.91 53.6778 175.941 53.5126 175.978 53.312C176.026 53.0524 176.148 52.7883 176.344 52.5195C176.555 52.2412 176.787 52.0096 177.041 51.8248C177.294 51.64 177.528 51.5672 177.74 51.6066C178.141 51.681 178.289 52.0013 178.184 52.5677C178.158 52.7093 178.08 52.9328 177.95 53.2382C177.832 53.5459 177.67 53.9918 177.464 54.5761C177.27 55.1625 177.047 55.9388 176.795 56.905C176.554 57.8734 176.297 59.0951 176.024 60.5699C175.792 61.8206 175.694 62.7117 175.73 63.2431C175.78 63.7649 175.94 64.051 176.211 64.1013C176.565 64.1669 176.946 64.0238 177.353 63.6721C177.772 63.3225 178.197 62.8034 178.63 62.1147C179.075 61.4283 179.507 60.6113 179.926 59.6639C180.36 58.7069 180.774 57.6608 181.167 56.5255C181.574 55.3806 181.948 54.1867 182.288 52.9439C182.444 52.4357 182.625 52.0848 182.831 51.8912C183.038 51.6976 183.23 51.6173 183.407 51.6501C183.513 51.6697 183.626 51.7211 183.745 51.8042C183.877 51.8776 183.976 52.0057 184.04 52.1883C184.103 52.371 184.102 52.6393 184.037 52.9933C183.698 54.8222 183.254 56.4607 182.705 57.9089C182.17 59.3474 181.578 60.5985 180.929 61.6621C180.282 62.7139 179.627 63.5811 178.964 64.2636C178.303 64.9343 177.675 65.4221 177.082 65.7271C176.502 66.0224 176.006 66.1318 175.593 66.0553ZM184.861 67.5716C184.672 67.5366 184.527 67.4304 184.426 67.253C184.324 67.0755 184.299 66.8511 184.349 66.5798C184.386 66.3792 184.489 66.0564 184.657 65.6116C184.839 65.1571 185.041 64.6271 185.263 64.0214C185.497 63.4179 185.717 62.7875 185.924 62.1303C186.134 61.4613 186.296 60.8141 186.412 60.1887C186.469 59.882 186.587 59.672 186.767 59.5588C186.961 59.4361 187.158 59.3933 187.358 59.4304C187.547 59.4654 187.667 59.6097 187.718 59.8631C187.768 60.1166 187.698 60.5918 187.508 61.2889C188.274 60.1859 189.049 59.3289 189.834 58.7176C190.632 58.0967 191.386 57.6871 192.094 57.4888C192.804 57.2787 193.418 57.2218 193.938 57.318C194.28 57.3814 194.514 57.4981 194.642 57.6682C194.783 57.8286 194.838 57.9914 194.807 58.1565C194.766 58.3807 194.639 58.5402 194.426 58.635C194.227 58.7202 193.888 58.8038 193.409 58.8859C192.853 58.9903 192.331 59.1377 191.844 59.3282C191.371 59.509 190.901 59.7758 190.433 60.1284C189.976 60.4831 189.504 60.957 189.016 61.55C188.53 62.1311 188.015 62.8657 187.473 63.7536C186.93 64.6415 186.327 65.7198 185.665 66.9883C185.546 67.2348 185.418 67.4002 185.28 67.4845C185.154 67.571 185.014 67.6001 184.861 67.5716ZM195.277 69.612C194.746 69.5136 194.304 69.2668 193.95 68.8717C193.61 68.467 193.38 67.9606 193.261 67.3527C193.142 66.7448 193.151 66.0692 193.289 65.3259C193.433 64.5471 193.667 63.7789 193.991 63.0212C194.314 62.2634 194.673 61.5793 195.067 60.9689C195.46 60.3584 195.835 59.8848 196.19 59.5479C196.548 59.1992 196.839 59.0456 197.063 59.0872C197.228 59.1178 197.354 59.196 197.44 59.3219C197.527 59.4478 197.552 59.611 197.514 59.8116C197.506 59.8588 197.428 60.0152 197.281 60.2809C197.136 60.5348 196.953 60.8669 196.73 61.2772C196.51 61.6757 196.281 62.1215 196.043 62.6144C195.805 63.1073 195.589 63.6164 195.394 64.1417C195.199 64.6669 195.057 65.1714 194.967 65.6552C194.814 66.4811 194.782 67.0794 194.872 67.45C194.976 67.811 195.205 68.0243 195.559 68.0899C196.42 68.2495 197.264 68.174 198.091 67.8634C198.931 67.5432 199.739 67.0705 200.514 66.4453C201.303 65.8104 202.053 65.089 202.764 64.2811C202.34 64.2635 201.93 64.2364 201.534 64.1996C201.14 64.151 200.765 64.0998 200.409 64.046C200.065 63.9944 199.848 63.9116 199.76 63.7975C199.671 63.6834 199.645 63.5261 199.682 63.3255C199.703 63.1463 199.804 63.0002 199.983 62.887C200.175 62.776 200.36 62.7311 200.539 62.7521C201.079 62.8033 201.633 62.8449 202.2 62.8769C202.768 62.9088 203.332 62.9279 203.892 62.9341C204.276 62.4439 204.649 61.9455 205.011 61.4391C205.374 60.9326 205.708 60.4454 206.015 59.9774C206.404 59.2564 206.796 58.5906 207.19 57.9802C207.586 57.3579 207.958 56.8655 208.306 56.5028C208.656 56.1283 208.949 55.963 209.185 56.0067C209.586 56.0811 209.75 56.3188 209.675 56.72C209.66 56.8026 209.564 57.0228 209.388 57.3807C209.212 57.7386 208.974 58.2009 208.674 58.7677C208.385 59.3366 208.052 59.9827 207.674 60.7059C207.298 61.4173 206.908 62.1689 206.505 62.9607C207.606 62.9452 208.612 62.918 209.522 62.8793C210.447 62.8309 211.204 62.7943 211.795 62.7695C212.387 62.7328 212.737 62.7244 212.843 62.7441C212.996 62.7725 213.106 62.8721 213.172 63.043C213.24 63.2021 213.262 63.3465 213.238 63.4763C213.218 63.5825 212.997 63.688 212.575 63.7928C212.165 63.8999 211.604 63.9972 210.892 64.085C210.194 64.1631 209.4 64.2296 208.511 64.2845C207.637 64.3299 206.728 64.3568 205.787 64.3654C205.306 65.3137 204.839 66.2523 204.386 67.1813C203.934 68.1104 203.537 68.9644 203.198 69.7436C202.995 70.2431 202.688 70.4545 202.275 70.378C202.062 70.3386 201.913 70.256 201.826 70.1301C201.752 70.0065 201.738 69.8148 201.786 69.5552C201.793 69.5198 201.855 69.3483 201.973 69.0407C202.105 68.7234 202.269 68.3328 202.465 67.8687C202.663 67.3928 202.87 66.9003 203.087 66.3912C203.305 65.8703 203.51 65.3897 203.702 64.9492C202.871 65.9424 201.994 66.8233 201.07 67.5919C200.147 68.3604 199.192 68.9341 198.207 69.3128C197.233 69.6938 196.256 69.7935 195.277 69.612ZM197.756 57.4216C197.473 57.3691 197.253 57.2369 197.097 57.0249C196.953 56.8151 196.905 56.5804 196.953 56.3209C197.012 56.0023 197.173 55.7576 197.437 55.5867C197.715 55.4063 198.007 55.3445 198.314 55.4014C198.656 55.4648 198.897 55.6132 199.036 55.8466C199.178 56.0682 199.221 56.3323 199.164 56.6391C199.118 56.8869 198.958 57.0951 198.682 57.2638C198.407 57.4324 198.098 57.485 197.756 57.4216ZM210.023 70.9617C209.798 70.9202 209.613 70.8004 209.467 70.6024C209.323 70.3926 209.284 70.1049 209.352 69.7391C209.4 69.4795 209.502 69.1262 209.658 68.6792C209.817 68.2203 210.006 67.7246 210.227 67.1919C210.448 66.6592 210.673 66.1335 210.904 65.6148C211.148 65.0865 211.382 64.6171 211.604 64.2068C211.827 63.7965 212.011 63.495 212.156 63.3023C212.281 63.1546 212.389 63.0648 212.481 63.0329C212.584 63.0032 212.677 62.996 212.759 63.0113C212.924 63.0419 213.056 63.1213 213.155 63.2493C213.265 63.3796 213.291 63.5981 213.234 63.9049C213.202 64.0819 213.112 64.3703 212.964 64.7701C212.831 65.1604 212.661 65.617 212.454 66.1401C212.261 66.6535 212.053 67.1825 211.83 67.727C211.621 68.2619 211.417 68.7732 211.217 69.2608C211.016 69.7485 210.855 70.158 210.733 70.4892C210.65 70.6692 210.54 70.8014 210.403 70.8858C210.279 70.9605 210.152 70.9858 210.023 70.9617ZM213.571 61.4959C213.3 61.4456 213.055 61.3149 212.838 61.1038C212.633 60.8948 212.564 60.6075 212.632 60.2417C212.689 59.935 212.805 59.7003 212.982 59.5378C213.17 59.3774 213.373 59.2745 213.588 59.2291C213.818 59.1741 214.01 59.1608 214.163 59.1892C214.317 59.2176 214.481 59.2847 214.657 59.3905C214.847 59.4867 214.996 59.6364 215.105 59.8396C215.216 60.031 215.24 60.2919 215.179 60.6223C215.138 60.8465 215.024 61.0329 214.838 61.1814C214.654 61.3182 214.441 61.413 214.199 61.4658C213.969 61.5208 213.76 61.5309 213.571 61.4959ZM215.657 72.5104C215.314 72.447 215.044 72.1954 214.845 71.7558C214.645 71.3161 214.603 70.7895 214.716 70.1759C214.841 69.5034 215.063 68.8 215.382 68.0659C215.713 67.334 216.087 66.5979 216.505 65.8576C216.925 65.1056 217.334 64.382 217.731 63.6867C217.819 63.5443 217.922 63.4475 218.041 63.3964C218.175 63.3356 218.359 63.3272 218.595 63.3709C219.02 63.4496 219.194 63.6955 219.118 64.1084C219.1 64.2028 219.014 64.4065 218.858 64.7193C218.702 65.0322 218.503 65.4163 218.26 65.8717C218.029 66.3292 217.784 66.8269 217.526 67.3648C217.269 67.8909 217.03 68.4263 216.807 68.9707C216.584 69.5152 216.404 70.025 216.267 70.5C216.493 70.3344 216.762 70.067 217.075 69.6978C217.399 69.3307 217.751 68.9139 218.13 68.4472C218.512 67.9687 218.905 67.4924 219.311 67.0183C219.718 66.5324 220.117 66.0937 220.506 65.7022C220.91 65.3011 221.285 64.9922 221.63 64.7755C221.989 64.5491 222.299 64.46 222.558 64.5082C222.936 64.5781 223.233 64.7552 223.449 65.0393C223.678 65.3137 223.811 65.7532 223.845 66.3576C223.893 66.9524 223.821 67.7689 223.629 68.8072C223.526 69.3618 223.483 69.8908 223.5 70.3942C223.528 70.8998 223.639 71.3231 223.832 71.664C224.039 71.9953 224.343 72.1981 224.744 72.2725C225.346 72.384 225.902 72.3773 226.414 72.2524C226.927 72.1157 227.38 71.9434 227.773 71.7354C228.179 71.5178 228.52 71.3247 228.795 71.1561C229.073 70.9756 229.277 70.8974 229.406 70.9215C229.678 70.9718 229.787 71.1385 229.735 71.4217C229.713 71.5397 229.589 71.7121 229.364 71.9388C229.153 72.156 228.865 72.3954 228.499 72.6572C228.147 72.9093 227.749 73.1467 227.305 73.3695C226.875 73.5827 226.424 73.7433 225.953 73.8511C225.493 73.9612 225.045 73.9758 224.608 73.8949C223.794 73.744 223.157 73.4611 222.697 73.0463C222.248 72.6337 221.968 72.0387 221.856 71.2612C221.756 70.4859 221.819 69.4848 222.047 68.2577C222.171 67.5851 222.221 67.0878 222.195 66.7657C222.183 66.434 222.087 66.1965 221.906 66.0531C221.718 66.2747 221.47 66.5947 221.161 67.0133C220.853 67.4202 220.501 67.8735 220.103 68.3734C219.717 68.8755 219.312 69.3802 218.889 69.8875C218.479 70.3852 218.071 70.8405 217.665 71.2534C217.259 71.6663 216.881 71.9929 216.532 72.2332C216.184 72.4617 215.893 72.5541 215.657 72.5104ZM228.111 80.0726C227.202 79.9042 226.552 79.6921 226.16 79.4364C225.768 79.1807 225.599 78.9054 225.654 78.6104C225.689 78.4216 225.776 78.2791 225.916 78.183C226.068 78.0891 226.238 78.0596 226.427 78.0946C226.627 78.1318 226.911 78.2149 227.278 78.3438C227.642 78.4846 228.007 78.5889 228.373 78.6567C229.588 78.8819 230.652 78.7068 231.564 78.1314C232.476 77.556 233.277 76.5632 233.965 75.1531C234.656 73.7311 235.287 71.8711 235.86 69.5729C235.372 70.2271 234.838 70.8724 234.256 71.5091C233.688 72.1361 233.096 72.6976 232.479 73.1935C231.877 73.6798 231.277 74.0508 230.68 74.3063C230.084 74.5619 229.526 74.6416 229.007 74.5453C228.511 74.4535 228.168 74.2618 227.978 73.9703C227.8 73.681 227.763 73.2531 227.868 72.6868C227.962 72.1794 228.204 71.6688 228.592 71.1549C228.982 70.6292 229.467 70.1211 230.046 69.6304C230.625 69.1397 231.246 68.6873 231.908 68.2731C232.573 67.8471 233.226 67.486 233.867 67.1898C234.521 66.884 235.118 66.659 235.658 66.5149C236.197 66.3707 236.62 66.3271 236.927 66.384C237.233 66.4408 237.45 66.5907 237.576 66.8337C237.701 67.0767 237.71 67.4932 237.6 68.0832C237.344 69.4637 237.048 70.8 236.711 72.0922C236.388 73.3748 235.992 74.5525 235.525 75.6253C235.058 76.6981 234.487 77.6053 233.812 78.3468C233.148 79.1023 232.347 79.6373 231.41 79.9518C230.473 80.2663 229.373 80.3065 228.111 80.0726ZM235.863 67.7794C235.203 68.0476 234.516 68.3598 233.803 68.7158C233.091 69.0719 232.414 69.4651 231.772 69.8955C231.143 70.328 230.611 70.7969 230.175 71.302C229.74 71.8071 229.47 72.3429 229.365 72.9092C229.332 73.0862 229.428 73.1955 229.652 73.237C229.829 73.2698 230.096 73.179 230.453 72.9644C230.824 72.7403 231.247 72.4342 231.722 72.0462C232.198 71.6464 232.689 71.2064 233.193 70.7262C233.711 70.2364 234.2 69.7352 234.661 69.2227C235.123 68.7101 235.523 68.229 235.863 67.7794ZM59.8973 99.4588C59.4489 99.3757 59.1155 99.1003 58.8971 98.6327C58.6927 98.1554 58.6528 97.5805 58.7774 96.908C58.8933 96.2826 59.1615 95.6916 59.582 95.1349C60.0143 94.5804 60.5425 94.0681 61.1666 93.5979C61.7907 93.1278 62.4533 92.7136 63.1543 92.3554C63.8575 91.9853 64.5487 91.6802 65.2279 91.4399C65.9188 91.2018 66.5425 91.0306 67.0988 90.9263C67.6552 90.8219 68.0867 90.7981 68.3935 90.855C68.5587 90.8856 68.6878 90.9462 68.7809 91.0366C68.8761 91.1153 68.9085 91.2372 68.8778 91.4024C68.8582 91.5086 68.7983 91.6013 68.6982 91.6803C68.71 91.6825 68.7218 91.6847 68.7336 91.6869C68.9932 91.735 69.0945 91.9125 69.0377 92.2192C69.018 92.3254 68.9362 92.5361 68.7924 92.8511C68.6508 93.1544 68.482 93.5381 68.2862 94.0021C68.0903 94.4662 67.8964 94.9856 67.7045 95.5602C67.5147 96.1231 67.3641 96.7054 67.2526 97.3071C67.1585 97.8145 67.3062 98.1042 67.6956 98.1764C68.1321 98.2573 68.5932 98.239 69.0787 98.1216C69.5643 98.0041 70.0457 97.8431 70.5229 97.6387C71.0024 97.4224 71.4453 97.2055 71.8518 96.9879C72.2604 96.7585 72.6072 96.5665 72.8922 96.4119C73.1771 96.2572 73.3727 96.1897 73.4789 96.2094C73.5733 96.2269 73.6504 96.2717 73.7103 96.3438C73.7701 96.4159 73.788 96.5169 73.764 96.6467C73.7421 96.7647 73.5847 96.9552 73.2919 97.2182C72.9991 97.4813 72.6219 97.7714 72.1603 98.0886C71.6988 98.4058 71.1923 98.7024 70.6407 98.9786C70.0892 99.2547 69.5378 99.4637 68.9867 99.6056C68.4356 99.7476 67.93 99.7759 67.4699 99.6906C67.1159 99.625 66.8111 99.4587 66.5555 99.1916C66.3138 98.915 66.1537 98.4948 66.0752 97.931C66.0084 97.3694 66.0614 96.6226 66.2341 95.6905L66.3161 95.248C65.5609 96.0966 64.7914 96.8571 64.0077 97.5295C63.2358 98.2042 62.4935 98.7195 61.7807 99.0756C61.0797 99.4338 60.4519 99.5615 59.8973 99.4588ZM67.821 92.067C67.7577 92.0796 67.6685 92.0997 67.5536 92.1272C66.9649 92.2744 66.3417 92.4762 65.6839 92.7327C65.038 92.9913 64.3962 93.2934 63.7585 93.639C63.1327 93.9867 62.5566 94.362 62.0304 94.7649C61.5042 95.1677 61.0654 95.5929 60.7139 96.0403C60.3625 96.4878 60.1431 96.9475 60.0556 97.4195C60.0272 97.5728 60.0348 97.6963 60.0785 97.7898C60.134 97.8855 60.2443 97.9487 60.4095 97.9793C60.6455 98.0231 60.9796 97.9324 61.4118 97.7074C61.8462 97.4706 62.3336 97.146 62.8738 96.7335C63.4258 96.3233 63.9876 95.8599 64.5593 95.3434C65.131 94.827 65.6802 94.3002 66.2069 93.7632C66.7454 93.2284 67.2161 92.7298 67.6191 92.2675C67.6816 92.1937 67.7489 92.1268 67.821 92.067ZM80.1927 93.5361C80.6534 92.8282 81.1008 92.0935 81.5349 91.3318C81.9808 90.5723 82.4004 89.7897 82.7938 88.9839C82.9084 88.7611 83.0495 88.592 83.2174 88.4766C83.3992 88.3517 83.5904 88.3078 83.791 88.3449C83.9326 88.3712 84.0407 88.4461 84.1154 88.5698C84.2019 88.6957 84.2288 88.8471 84.196 89.0241C84.1544 89.2483 83.9938 89.6213 83.714 90.143C83.446 90.667 83.1035 91.3296 82.6865 92.1311C82.2813 92.9347 81.8461 93.867 81.381 94.928C80.9298 95.9794 80.4922 97.1553 80.0681 98.4558C79.6558 99.7585 79.3097 101.165 79.0298 102.675C78.9685 103.006 78.8474 103.264 78.6665 103.45C78.4833 103.648 78.2915 103.728 78.0909 103.691C77.9729 103.669 77.8663 103.619 77.771 103.54C77.6758 103.462 77.6076 103.303 77.5666 103.063C77.5351 102.838 77.5385 102.49 77.5766 102.021C77.6168 101.541 77.7113 100.899 77.86 100.097C77.9738 99.4833 78.1327 98.8233 78.3369 98.1166C77.6126 98.9954 76.8641 99.7415 76.0914 100.355C75.3327 100.959 74.6222 101.401 73.9601 101.681C73.3098 101.963 72.7781 102.066 72.3652 101.989C71.8578 101.895 71.4766 101.648 71.2214 101.246C70.9759 100.859 70.9143 100.335 71.0368 99.6744C71.1439 99.0962 71.3901 98.5255 71.7752 97.9623C72.1602 97.399 72.6316 96.864 73.1893 96.3571C73.7492 95.8385 74.3498 95.3639 74.9909 94.9336C75.6321 94.5032 76.2612 94.1378 76.8783 93.8372C77.5094 93.527 78.0817 93.3035 78.5953 93.1668C79.111 93.0183 79.5163 92.9714 79.8113 93.0261C79.9293 93.0479 80.0278 93.1089 80.1069 93.209C80.186 93.3091 80.2146 93.4181 80.1927 93.5361ZM79.8609 94.0421C79.763 94.1094 79.6474 94.1734 79.5141 94.2342C79.3808 94.2949 79.2346 94.3593 79.0756 94.4275C78.4886 94.697 77.8376 95.0157 77.1226 95.3836C76.4216 95.7418 75.7354 96.1517 75.0641 96.613C74.4068 97.0648 73.8443 97.5647 73.3766 98.1126C72.9089 98.6606 72.6149 99.259 72.4946 99.908C72.4421 100.191 72.5575 100.359 72.8407 100.411C73.23 100.484 73.6887 100.379 74.2167 100.099C74.7586 99.8089 75.3386 99.3794 75.9566 98.8105C76.5768 98.2298 77.2178 97.537 77.8795 96.7321C78.5435 95.9154 79.204 95.0188 79.8609 94.0421ZM91.237 95.5831C91.6978 94.8752 92.1451 94.1404 92.5792 93.3788C93.0251 92.6193 93.4447 91.8367 93.8382 91.0309C93.9527 90.808 94.0939 90.6389 94.2617 90.5236C94.4435 90.3986 94.6347 90.3547 94.8353 90.3919C94.9769 90.4181 95.085 90.4931 95.1598 90.6168C95.2463 90.7426 95.2731 90.8941 95.2403 91.0711C95.1988 91.2952 95.0381 91.6682 94.7583 92.19C94.4904 92.7139 94.1479 93.3766 93.7309 94.178C93.3256 94.9816 92.8904 95.9139 92.4253 96.9749C91.9741 98.0263 91.5365 99.2023 91.1124 100.503C90.7001 101.805 90.354 103.212 90.0741 104.722C90.0129 105.053 89.8918 105.311 89.7108 105.497C89.5277 105.695 89.3358 105.775 89.1352 105.738C89.0172 105.716 88.9106 105.666 88.8154 105.587C88.7201 105.509 88.652 105.35 88.6109 105.11C88.5795 104.885 88.5828 104.537 88.6209 104.068C88.6612 103.588 88.7557 102.946 88.9044 102.144C89.0181 101.53 89.177 100.87 89.3812 100.164C88.657 101.042 87.9085 101.788 87.1357 102.402C86.377 103.006 85.6666 103.448 85.0044 103.728C84.3541 104.01 83.8225 104.113 83.4095 104.036C82.9022 103.942 82.5209 103.695 82.2657 103.293C82.0202 102.906 81.9587 102.382 82.0811 101.721C82.1883 101.143 82.4344 100.572 82.8195 100.009C83.2046 99.446 83.676 98.9109 84.2337 98.4041C84.7936 97.8854 85.3941 97.4109 86.0353 96.9805C86.6764 96.5502 87.3056 96.1847 87.9227 95.8841C88.5538 95.5739 89.1261 95.3505 89.6396 95.2138C90.1553 95.0653 90.5606 95.0184 90.8556 95.073C90.9736 95.0949 91.0721 95.1559 91.1512 95.256C91.2303 95.356 91.2589 95.4651 91.237 95.5831ZM90.9053 96.0891C90.8074 96.1564 90.6918 96.2204 90.5585 96.2811C90.4252 96.3418 90.279 96.4063 90.1199 96.4744C89.5329 96.744 88.882 97.0627 88.167 97.4305C87.4659 97.7888 86.7798 98.1986 86.1084 98.66C85.4511 99.1118 84.8886 99.6116 84.4209 100.16C83.9532 100.708 83.6592 101.306 83.539 101.955C83.4865 102.238 83.6018 102.406 83.885 102.458C84.2744 102.531 84.733 102.426 85.261 102.146C85.8029 101.856 86.3829 101.426 87.0009 100.857C87.6211 100.277 88.2621 99.5839 88.9239 98.7791C89.5878 97.9624 90.2483 97.0657 90.9053 96.0891ZM102.154 100.957C101.84 100.874 101.731 100.64 101.827 100.255C101.856 100.163 101.942 100.063 102.084 99.9549C102.228 99.8352 102.378 99.7837 102.533 99.8003C102.906 99.8327 103.364 99.8627 103.908 99.8903C104.466 99.9083 105.079 99.9244 105.748 99.9384C105.973 99.3822 106.227 98.8007 106.511 98.1942C106.794 97.5877 107.092 97.0021 107.404 96.4375C107.718 95.8612 108.033 95.346 108.349 94.892C108.665 94.438 108.973 94.0923 109.274 93.8551C109.428 93.7493 109.562 93.6827 109.677 93.6552C109.794 93.6159 109.894 93.6039 109.977 93.6192C110.142 93.6498 110.258 93.7447 110.327 93.9037C110.406 94.065 110.43 94.2341 110.397 94.4111C110.38 94.5055 110.345 94.5966 110.292 94.6845C109.933 95.3015 109.529 96.0686 109.078 96.9858C108.627 97.903 108.142 98.9055 107.624 99.9931C108.742 100.017 109.862 100.03 110.985 100.03C112.108 100.031 113.074 100.021 113.883 100C114.125 99.9471 114.293 99.9965 114.387 100.148C114.492 100.302 114.533 100.444 114.509 100.574C114.478 100.739 114.408 100.854 114.299 100.919C114.201 100.986 114.099 101.041 113.994 101.082L113.973 101.097C113.719 101.147 113.345 101.194 112.849 101.236C112.355 101.267 111.788 101.296 111.148 101.324C110.51 101.34 109.832 101.348 109.111 101.349C108.403 101.352 107.703 101.344 107.01 101.326C106.547 102.314 106.071 103.33 105.585 104.375C105.112 105.41 104.643 106.428 104.177 107.428C103.98 107.83 103.795 108.071 103.622 108.149C103.459 108.24 103.295 108.271 103.129 108.24C102.941 108.205 102.789 108.104 102.673 107.936C102.57 107.77 102.606 107.478 102.781 107.059L105.191 101.263C104.464 101.238 103.824 101.199 103.273 101.146C102.733 101.094 102.36 101.031 102.154 100.957ZM112.852 110.272C112.321 110.174 111.879 109.927 111.525 109.532C111.185 109.127 110.955 108.621 110.836 108.013C110.717 107.405 110.726 106.729 110.864 105.986C111.008 105.207 111.242 104.439 111.566 103.681C111.889 102.924 112.248 102.239 112.642 101.629C113.036 101.019 113.41 100.545 113.766 100.208C114.123 99.8593 114.414 99.7058 114.638 99.7473C114.803 99.7779 114.929 99.8562 115.016 99.9821C115.102 100.108 115.127 100.271 115.09 100.472C115.081 100.519 115.003 100.675 114.856 100.941C114.712 101.195 114.528 101.527 114.305 101.937C114.085 102.336 113.856 102.782 113.618 103.275C113.381 103.767 113.164 104.277 112.969 104.802C112.774 105.327 112.632 105.832 112.542 106.315C112.389 107.141 112.358 107.74 112.447 108.11C112.551 108.471 112.78 108.684 113.134 108.75C113.996 108.91 114.84 108.834 115.666 108.524C116.506 108.203 117.314 107.731 118.089 107.105C118.878 106.471 119.628 105.749 120.339 104.941C119.915 104.924 119.505 104.897 119.109 104.86C118.716 104.811 118.341 104.76 117.985 104.706C117.64 104.655 117.424 104.572 117.335 104.458C117.246 104.344 117.22 104.186 117.258 103.986C117.279 103.806 117.379 103.66 117.559 103.547C117.75 103.436 117.935 103.391 118.115 103.412C118.654 103.463 119.208 103.505 119.776 103.537C120.343 103.569 120.907 103.588 121.467 103.594C121.851 103.104 122.224 102.606 122.587 102.099C122.949 101.593 123.283 101.106 123.59 100.638C123.98 99.9165 124.372 99.2508 124.765 98.6403C125.162 98.0181 125.533 97.5256 125.881 97.163C126.232 96.7885 126.525 96.6231 126.761 96.6669C127.162 96.7412 127.325 96.979 127.251 97.3801C127.235 97.4627 127.14 97.683 126.964 98.0409C126.787 98.3988 126.549 98.8611 126.249 99.4278C125.96 99.9968 125.627 100.643 125.249 101.366C124.873 102.077 124.483 102.829 124.08 103.621C125.182 103.605 126.187 103.578 127.098 103.539C128.022 103.491 128.779 103.454 129.37 103.43C129.962 103.393 130.312 103.385 130.418 103.404C130.571 103.433 130.681 103.532 130.747 103.703C130.815 103.862 130.837 104.007 130.813 104.136C130.793 104.243 130.573 104.348 130.15 104.453C129.74 104.56 129.179 104.657 128.467 104.745C127.769 104.823 126.976 104.89 126.087 104.945C125.212 104.99 124.304 105.017 123.362 105.026C122.882 105.974 122.415 106.912 121.962 107.841C121.509 108.771 121.113 109.625 120.773 110.404C120.571 110.903 120.263 111.115 119.85 111.038C119.637 110.999 119.488 110.916 119.402 110.79C119.327 110.667 119.314 110.475 119.362 110.215C119.368 110.18 119.43 110.008 119.549 109.701C119.681 109.384 119.844 108.993 120.04 108.529C120.238 108.053 120.446 107.56 120.662 107.051C120.881 106.53 121.086 106.05 121.277 105.609C120.446 106.603 119.569 107.483 118.645 108.252C117.722 109.021 116.767 109.594 115.782 109.973C114.808 110.354 113.832 110.454 112.852 110.272ZM115.331 98.0817C115.048 98.0293 114.829 97.897 114.673 97.6851C114.528 97.4753 114.48 97.2406 114.528 96.981C114.588 96.6624 114.749 96.4177 115.012 96.2469C115.29 96.0665 115.582 96.0047 115.889 96.0615C116.231 96.1249 116.472 96.2733 116.612 96.5067C116.754 96.7283 116.796 96.9925 116.739 97.2993C116.694 97.547 116.533 97.7553 116.258 97.9239C115.982 98.0926 115.673 98.1452 115.331 98.0817ZM130.003 112.708C129.094 112.54 128.435 112.113 128.025 111.427C127.63 110.731 127.531 109.846 127.73 108.772C127.853 108.112 128.084 107.355 128.425 106.503C128.78 105.641 129.191 104.741 129.658 103.802C130.139 102.854 130.641 101.922 131.165 101.006C131.689 100.09 132.187 99.243 132.661 98.4643C133.149 97.676 133.569 97.0216 133.922 96.5012C134.123 96.2088 134.353 96.0867 134.612 96.1348C134.966 96.2004 135.103 96.4515 135.022 96.8881C134.996 97.0297 134.877 97.3067 134.667 97.7192C134.456 98.1318 134.184 98.6428 133.852 99.2524C133.521 99.8502 133.16 100.515 132.768 101.248C132.376 101.981 131.973 102.736 131.56 103.514C131.162 104.282 130.782 105.048 130.421 105.811C130.062 106.562 129.753 107.274 129.494 107.946C129.235 108.618 129.06 109.202 128.968 109.697C128.909 110.016 128.945 110.285 129.075 110.504C129.219 110.714 129.439 110.846 129.734 110.901C130.277 111.002 130.839 110.996 131.421 110.884C132.017 110.763 132.598 110.59 133.165 110.365C133.733 110.129 134.254 109.89 134.726 109.648C135.212 109.396 135.622 109.191 135.956 109.034C136.293 108.864 136.52 108.79 136.638 108.812C136.898 108.86 137.001 109.026 136.949 109.309C136.931 109.404 136.804 109.563 136.567 109.788C136.332 110 136.024 110.248 135.642 110.532C135.26 110.815 134.823 111.1 134.33 111.387C133.852 111.664 133.353 111.92 132.834 112.153C132.328 112.377 131.828 112.54 131.333 112.644C130.847 112.761 130.404 112.783 130.003 112.708ZM143.902 106.662C143.832 107.04 143.645 107.389 143.341 107.711C143.039 108.022 142.663 108.306 142.213 108.564C141.764 108.81 141.278 109.031 140.753 109.227C140.229 109.423 139.711 109.583 139.2 109.708C138.688 109.833 138.226 109.924 137.813 109.982C137.633 110.425 137.51 110.823 137.445 111.177C137.403 111.401 137.427 111.57 137.515 111.684C137.604 111.798 137.761 111.876 137.985 111.918C138.48 112.01 139.022 112.018 139.609 111.944C140.197 111.87 140.806 111.745 141.436 111.569C142.067 111.393 142.677 111.195 143.267 110.975C143.857 110.754 144.397 110.543 144.886 110.341C145.387 110.141 145.801 109.98 146.129 109.857C146.456 109.735 146.668 109.683 146.762 109.7C146.903 109.726 147.001 109.793 147.054 109.901C147.122 109.999 147.144 110.107 147.122 110.225C147.105 110.319 146.923 110.474 146.578 110.691C146.245 110.91 145.802 111.158 145.251 111.434C144.701 111.698 144.091 111.963 143.419 112.229C142.747 112.495 142.056 112.733 141.346 112.943C140.648 113.156 139.979 113.306 139.34 113.395C138.713 113.487 138.164 113.489 137.692 113.401C137.078 113.287 136.643 112.969 136.386 112.445C136.129 111.922 136.09 111.176 136.27 110.209C136.39 109.56 136.594 108.92 136.881 108.29C137.181 107.662 137.534 107.074 137.94 106.527C138.361 105.971 138.798 105.49 139.251 105.086C139.718 104.672 140.183 104.368 140.647 104.173C141.112 103.966 141.54 103.899 141.929 103.971C142.672 104.109 143.218 104.424 143.566 104.916C143.915 105.407 144.026 105.989 143.902 106.662ZM138.437 108.688C138.844 108.532 139.266 108.366 139.701 108.19C140.136 108.014 140.543 107.827 140.922 107.629C141.3 107.431 141.616 107.209 141.869 106.963C142.136 106.707 142.298 106.426 142.355 106.119C142.436 105.682 142.24 105.42 141.768 105.333C141.473 105.278 141.125 105.409 140.725 105.725C140.339 106.032 139.943 106.453 139.539 106.988C139.135 107.524 138.767 108.09 138.437 108.688ZM54.9769 126.007C54.5286 125.924 54.1952 125.648 53.9767 125.181C53.7723 124.703 53.7324 124.128 53.857 123.456C53.9729 122.83 54.2411 122.239 54.6616 121.683C55.0939 121.128 55.6221 120.616 56.2463 120.146C56.8704 119.676 57.533 119.261 58.234 118.903C58.9372 118.533 59.6284 118.228 60.3075 117.988C60.9985 117.75 61.6221 117.579 62.1785 117.474C62.7348 117.37 63.1664 117.346 63.4731 117.403C63.6383 117.433 63.7674 117.494 63.8605 117.585C63.9558 117.663 63.9881 117.785 63.9575 117.95C63.9378 118.057 63.8779 118.149 63.7778 118.228C63.7896 118.23 63.8014 118.233 63.8132 118.235C64.0728 118.283 64.1742 118.46 64.1173 118.767C64.0976 118.873 64.0159 119.084 63.872 119.399C63.7304 119.702 63.5617 120.086 63.3658 120.55C63.17 121.014 62.9761 121.533 62.7841 122.108C62.5944 122.671 62.4437 123.253 62.3322 123.855C62.2382 124.362 62.3859 124.652 62.7752 124.724C63.2118 124.805 63.6728 124.787 64.1584 124.669C64.6439 124.552 65.1253 124.391 65.6026 124.187C66.082 123.97 66.5249 123.753 66.9314 123.536C67.34 123.306 67.6868 123.114 67.9718 122.96C68.2568 122.805 68.4523 122.738 68.5585 122.757C68.6529 122.775 68.73 122.82 68.7899 122.892C68.8498 122.964 68.8677 123.065 68.8436 123.195C68.8217 123.313 68.6644 123.503 68.3715 123.766C68.0787 124.029 67.7015 124.319 67.24 124.636C66.7785 124.954 66.2719 125.25 65.7204 125.526C65.1688 125.803 64.6175 126.012 64.0664 126.154C63.5153 126.295 63.0097 126.324 62.5495 126.239C62.1955 126.173 61.8907 126.007 61.6351 125.74C61.3935 125.463 61.2334 125.043 61.1548 124.479C61.088 123.917 61.141 123.17 61.3138 122.238L61.3958 121.796C60.6405 122.644 59.871 123.405 59.0874 124.077C58.3155 124.752 57.5731 125.267 56.8603 125.623C56.1593 125.982 55.5315 126.109 54.9769 126.007ZM62.9007 118.615C62.8373 118.628 62.7482 118.648 62.6332 118.675C62.0445 118.822 61.4213 119.024 60.7636 119.281C60.1176 119.539 59.4758 119.841 58.8382 120.187C58.2123 120.535 57.6363 120.91 57.1101 121.313C56.5838 121.716 56.145 122.141 55.7936 122.588C55.4422 123.036 55.2227 123.495 55.1352 123.967C55.1068 124.121 55.1144 124.244 55.1581 124.338C55.2136 124.433 55.3239 124.497 55.4891 124.527C55.7251 124.571 56.0592 124.48 56.4915 124.255C56.9259 124.019 57.4132 123.694 57.9534 123.281C58.5054 122.871 59.0673 122.408 59.639 121.891C60.2107 121.375 60.7599 120.848 61.2865 120.311C61.825 119.776 62.2958 119.278 62.6987 118.815C62.7613 118.742 62.8286 118.675 62.9007 118.615ZM75.2723 120.084C75.7331 119.376 76.1805 118.641 76.6145 117.88C77.0604 117.12 77.48 116.338 77.8735 115.532C77.988 115.309 78.1292 115.14 78.297 115.024C78.4788 114.9 78.67 114.856 78.8706 114.893C79.0122 114.919 79.1204 114.994 79.1951 115.118C79.2816 115.244 79.3084 115.395 79.2756 115.572C79.2341 115.796 79.0734 116.169 78.7937 116.691C78.5257 117.215 78.1832 117.878 77.7662 118.679C77.3609 119.483 76.9257 120.415 76.4606 121.476C76.0094 122.527 75.5718 123.703 75.1477 125.004C74.7354 126.306 74.3893 127.713 74.1094 129.223C74.0482 129.553 73.9271 129.812 73.7461 129.998C73.563 130.196 73.3711 130.276 73.1705 130.239C73.0526 130.217 72.9459 130.167 72.8507 130.088C72.7554 130.01 72.6873 129.85 72.6462 129.611C72.6148 129.385 72.6181 129.038 72.6562 128.569C72.6965 128.089 72.791 127.447 72.9397 126.645C73.0534 126.031 73.2123 125.371 73.4165 124.665C72.6923 125.543 71.9438 126.289 71.171 126.903C70.4123 127.507 69.7019 127.949 69.0397 128.229C68.3894 128.511 67.8578 128.614 67.4448 128.537C66.9375 128.443 66.5562 128.195 66.301 127.794C66.0555 127.407 65.994 126.883 66.1164 126.222C66.2236 125.644 66.4697 125.073 66.8548 124.51C67.2399 123.947 67.7113 123.412 68.269 122.905C68.8289 122.386 69.4294 121.912 70.0706 121.481C70.7117 121.051 71.3409 120.686 71.958 120.385C72.5891 120.075 73.1614 119.851 73.6749 119.715C74.1906 119.566 74.5959 119.519 74.8909 119.574C75.0089 119.596 75.1074 119.657 75.1865 119.757C75.2656 119.857 75.2942 119.966 75.2723 120.084ZM74.9406 120.59C74.8427 120.657 74.7271 120.721 74.5938 120.782C74.4605 120.843 74.3143 120.907 74.1552 120.975C73.5683 121.245 72.9173 121.564 72.2023 121.931C71.5012 122.29 70.8151 122.7 70.1437 123.161C69.4864 123.613 68.9239 124.113 68.4562 124.661C67.9885 125.208 67.6945 125.807 67.5743 126.456C67.5218 126.739 67.6371 126.907 67.9203 126.959C68.3097 127.032 68.7683 126.927 69.2963 126.647C69.8382 126.357 70.4182 125.927 71.0362 125.358C71.6564 124.778 72.2974 124.085 72.9592 123.28C73.6231 122.463 74.2836 121.567 74.9406 120.59ZM86.3167 122.131C86.7774 121.423 87.2248 120.688 87.6589 119.927C88.1047 119.167 88.5244 118.385 88.9178 117.579C89.0323 117.356 89.1735 117.187 89.3414 117.071C89.5232 116.946 89.7144 116.903 89.915 116.94C90.0565 116.966 90.1647 117.041 90.2394 117.165C90.3259 117.291 90.3528 117.442 90.32 117.619C90.2784 117.843 90.1178 118.216 89.838 118.738C89.57 119.262 89.2275 119.924 88.8105 120.726C88.4053 121.53 87.9701 122.462 87.5049 123.523C87.0538 124.574 86.6162 125.75 86.1921 127.051C85.7798 128.353 85.4336 129.76 85.1537 131.27C85.0925 131.6 84.9714 131.859 84.7905 132.045C84.6073 132.243 84.4155 132.323 84.2149 132.286C84.0969 132.264 83.9903 132.214 83.895 132.135C83.7997 132.056 83.7316 131.897 83.6906 131.658C83.6591 131.432 83.6625 131.085 83.7005 130.616C83.7408 130.136 83.8353 129.494 83.984 128.692C84.0977 128.078 84.2567 127.418 84.4609 126.711C83.7366 127.59 82.9881 128.336 82.2154 128.95C81.4566 129.554 80.7462 129.996 80.0841 130.276C79.4338 130.558 78.9021 130.661 78.4892 130.584C77.9818 130.49 77.6005 130.242 77.3454 129.841C77.0998 129.454 77.0383 128.93 77.1608 128.269C77.2679 127.691 77.514 127.12 77.8991 126.557C78.2842 125.994 78.7556 125.459 79.3133 124.952C79.8732 124.433 80.4737 123.959 81.1149 123.528C81.7561 123.098 82.3852 122.733 83.0023 122.432C83.6334 122.122 84.2057 121.898 84.7192 121.762C85.2349 121.613 85.6403 121.566 85.9352 121.621C86.0532 121.643 86.1518 121.704 86.2309 121.804C86.3099 121.904 86.3385 122.013 86.3167 122.131ZM85.9849 122.637C85.887 122.704 85.7714 122.768 85.6381 122.829C85.5048 122.89 85.3586 122.954 85.1995 123.022C84.6126 123.292 83.9616 123.611 83.2466 123.978C82.5456 124.337 81.8594 124.746 81.1881 125.208C80.5307 125.66 79.9682 126.16 79.5005 126.707C79.0329 127.255 78.7389 127.854 78.6186 128.503C78.5661 128.786 78.6815 128.954 78.9646 129.006C79.354 129.078 79.8127 128.974 80.3406 128.694C80.8826 128.404 81.4625 127.974 82.0806 127.405C82.7008 126.825 83.3418 126.132 84.0035 125.327C84.6675 124.51 85.3279 123.614 85.9849 122.637ZM106.4 125.853C106.861 125.145 107.309 124.411 107.743 123.649C108.188 122.889 108.608 122.107 109.002 121.301C109.116 121.078 109.257 120.909 109.425 120.794C109.607 120.669 109.798 120.625 109.999 120.662C110.14 120.688 110.248 120.763 110.323 120.887C110.41 121.013 110.437 121.164 110.404 121.341C110.362 121.565 110.202 121.938 109.922 122.46C109.654 122.984 109.311 123.647 108.894 124.448C108.489 125.252 108.054 126.184 107.589 127.245C107.138 128.297 106.7 129.472 106.276 130.773C105.864 132.076 105.517 133.482 105.237 134.992C105.176 135.323 105.055 135.581 104.874 135.767C104.691 135.965 104.499 136.045 104.299 136.008C104.181 135.986 104.074 135.936 103.979 135.857C103.883 135.779 103.815 135.62 103.774 135.38C103.743 135.155 103.746 134.808 103.784 134.339C103.825 133.858 103.919 133.216 104.068 132.414C104.181 131.8 104.34 131.14 104.545 130.434C103.82 131.312 103.072 132.059 102.299 132.672C101.54 133.276 100.83 133.718 100.168 133.998C99.5175 134.28 98.9859 134.383 98.5729 134.306C98.0655 134.212 97.6843 133.965 97.4291 133.563C97.1836 133.176 97.122 132.652 97.2445 131.992C97.3517 131.413 97.5978 130.843 97.9829 130.279C98.368 129.716 98.8394 129.181 99.3971 128.674C99.957 128.156 100.557 127.681 101.199 127.251C101.84 126.82 102.469 126.455 103.086 126.154C103.717 125.844 104.289 125.621 104.803 125.484C105.319 125.335 105.724 125.289 106.019 125.343C106.137 125.365 106.236 125.426 106.315 125.526C106.394 125.626 106.422 125.735 106.4 125.853ZM106.069 126.359C105.971 126.427 105.855 126.491 105.722 126.551C105.589 126.612 105.442 126.676 105.283 126.745C104.696 127.014 104.045 127.333 103.33 127.701C102.629 128.059 101.943 128.469 101.272 128.93C100.614 129.382 100.052 129.882 99.5843 130.43C99.1166 130.978 98.8226 131.576 98.7023 132.225C98.6499 132.508 98.7652 132.676 99.0484 132.729C99.4378 132.801 99.8964 132.697 100.424 132.416C100.966 132.126 101.546 131.697 102.164 131.128C102.785 130.547 103.426 129.854 104.087 129.049C104.751 128.233 105.412 127.336 106.069 126.359ZM117.117 129.158C117.047 129.535 116.86 129.885 116.557 130.207C116.255 130.517 115.879 130.801 115.428 131.06C114.98 131.306 114.494 131.527 113.969 131.723C113.445 131.919 112.927 132.079 112.415 132.204C111.904 132.329 111.442 132.42 111.028 132.478C110.849 132.92 110.726 133.319 110.66 133.673C110.619 133.897 110.642 134.066 110.731 134.18C110.82 134.294 110.976 134.372 111.2 134.413C111.696 134.505 112.237 134.514 112.825 134.44C113.412 134.366 114.021 134.24 114.652 134.064C115.282 133.888 115.893 133.69 116.483 133.47C117.073 133.25 117.612 133.039 118.101 132.837C118.602 132.636 119.017 132.475 119.344 132.353C119.672 132.231 119.883 132.178 119.978 132.196C120.119 132.222 120.217 132.289 120.27 132.396C120.337 132.494 120.36 132.602 120.338 132.72C120.321 132.815 120.139 132.97 119.794 133.187C119.46 133.406 119.018 133.653 118.466 133.929C117.917 134.194 117.306 134.459 116.635 134.725C115.963 134.991 115.272 135.229 114.562 135.439C113.863 135.651 113.195 135.802 112.556 135.891C111.929 135.982 111.379 135.984 110.907 135.897C110.294 135.783 109.858 135.464 109.602 134.941C109.345 134.417 109.306 133.672 109.485 132.704C109.605 132.055 109.809 131.416 110.097 130.786C110.397 130.158 110.75 129.57 111.156 129.023C111.577 128.466 112.013 127.986 112.467 127.582C112.934 127.168 113.399 126.864 113.862 126.669C114.328 126.462 114.755 126.395 115.145 126.467C115.888 126.605 116.434 126.92 116.782 127.411C117.13 127.903 117.242 128.485 117.117 129.158ZM111.653 131.184C112.06 131.027 112.481 130.861 112.917 130.686C113.352 130.51 113.759 130.323 114.137 130.125C114.516 129.926 114.831 129.704 115.085 129.458C115.352 129.203 115.514 128.921 115.57 128.615C115.651 128.178 115.456 127.916 114.984 127.829C114.689 127.774 114.341 127.905 113.941 128.221C113.554 128.528 113.159 128.949 112.755 129.484C112.35 130.019 111.983 130.586 111.653 131.184ZM120.57 138.09C120.311 138.042 120.124 137.928 120.011 137.749C119.908 137.583 119.873 137.406 119.908 137.217C119.939 137.052 120.038 136.912 120.206 136.796C120.388 136.671 120.62 136.574 120.901 136.504C121.419 136.344 121.907 136.178 122.366 136.007C122.837 135.838 123.228 135.636 123.54 135.401C123.852 135.166 124.038 134.889 124.097 134.57C124.147 134.299 124.097 134.076 123.946 133.902C123.798 133.715 123.57 133.594 123.263 133.537C123.086 133.504 122.832 133.494 122.5 133.505C122.171 133.505 121.81 133.512 121.417 133.524C121.038 133.527 120.665 133.531 120.298 133.536C119.933 133.53 119.626 133.504 119.379 133.458C118.93 133.375 118.614 133.206 118.429 132.952C118.246 132.686 118.19 132.365 118.26 131.987C118.295 131.798 118.459 131.536 118.754 131.2C119.048 130.864 119.42 130.5 119.871 130.107C120.337 129.705 120.837 129.31 121.373 128.921C121.909 128.532 122.444 128.18 122.978 127.864C123.525 127.55 124.021 127.307 124.468 127.133C124.927 126.962 125.292 126.902 125.564 126.952C125.835 127.002 126.025 127.129 126.134 127.332C126.243 127.535 126.272 127.773 126.222 128.044C126.182 128.256 126.113 128.433 126.014 128.573C125.917 128.702 125.749 128.786 125.509 128.827C125.281 128.871 124.942 128.857 124.492 128.785C123.964 129.066 123.397 129.394 122.79 129.77C122.197 130.136 121.643 130.527 121.126 130.944C120.623 131.351 120.236 131.762 119.964 132.175C120.378 132.117 120.87 132.093 121.442 132.101C122.029 132.1 122.611 132.153 123.189 132.26C124.097 132.428 124.732 132.759 125.092 133.253C125.466 133.738 125.591 134.31 125.469 134.971C125.39 135.396 125.172 135.813 124.816 136.223C124.473 136.623 124.053 136.979 123.556 137.289C123.059 137.6 122.547 137.828 122.02 137.975C121.49 138.133 121.007 138.171 120.57 138.09ZM129.596 139.617C129.018 139.51 128.541 139.287 128.164 138.949C127.801 138.601 127.547 138.194 127.402 137.727C127.256 137.261 127.225 136.804 127.308 136.355C127.483 135.411 127.808 134.581 128.283 133.863C128.76 133.134 129.302 132.514 129.909 132.004C130.53 131.485 131.145 131.062 131.755 130.735C132.376 130.411 132.925 130.184 133.401 130.052C133.891 129.911 134.23 129.858 134.419 129.893C134.797 129.963 134.95 130.187 134.88 130.564C134.848 130.741 134.691 130.926 134.412 131.118C134.134 131.299 133.784 131.508 133.361 131.747C132.939 131.986 132.485 132.262 132 132.575C131.517 132.876 131.048 133.234 130.592 133.65C130.139 134.055 129.74 134.53 129.394 135.076C129.051 135.61 128.815 136.226 128.686 136.922C128.555 137.63 128.778 138.037 129.357 138.144C129.887 138.243 130.449 138.243 131.041 138.145C131.644 138.05 132.247 137.893 132.849 137.675C133.464 137.447 134.059 137.204 134.632 136.944C135.205 136.684 135.727 136.433 136.199 136.191C136.673 135.937 137.071 135.736 137.391 135.588C137.711 135.44 137.93 135.377 138.048 135.398C138.284 135.442 138.378 135.594 138.33 135.853C138.293 136.054 138.108 136.294 137.776 136.574C137.443 136.855 137.011 137.147 136.478 137.451C135.946 137.755 135.359 138.055 134.719 138.351C134.08 138.636 133.441 138.889 132.802 139.113C132.165 139.324 131.562 139.481 130.994 139.583C130.44 139.676 129.974 139.687 129.596 139.617ZM137.001 141.081C136.813 141.046 136.668 140.94 136.566 140.762C136.465 140.585 136.439 140.36 136.49 140.089C136.527 139.888 136.629 139.566 136.797 139.121C136.979 138.666 137.181 138.136 137.403 137.531C137.637 136.927 137.858 136.297 138.065 135.64C138.274 134.97 138.437 134.323 138.553 133.698C138.61 133.391 138.728 133.181 138.908 133.068C139.101 132.945 139.298 132.902 139.499 132.94C139.688 132.975 139.807 133.119 139.858 133.372C139.909 133.626 139.839 134.101 139.649 134.798C140.415 133.695 141.19 132.838 141.974 132.227C142.773 131.606 143.526 131.196 144.234 130.998C144.944 130.788 145.559 130.731 146.078 130.827C146.42 130.891 146.655 131.007 146.782 131.177C146.923 131.338 146.978 131.501 146.948 131.666C146.906 131.89 146.779 132.049 146.566 132.144C146.367 132.229 146.028 132.313 145.549 132.395C144.993 132.5 144.472 132.647 143.985 132.837C143.512 133.018 143.041 133.285 142.573 133.638C142.117 133.992 141.645 134.466 141.156 135.059C140.67 135.64 140.156 136.375 139.613 137.263C139.07 138.151 138.468 139.229 137.805 140.498C137.686 140.744 137.558 140.909 137.42 140.994C137.294 141.08 137.155 141.109 137.001 141.081ZM145.751 142.446C145.527 142.405 145.342 142.285 145.196 142.087C145.051 141.877 145.013 141.589 145.081 141.224C145.129 140.964 145.231 140.611 145.387 140.164C145.546 139.705 145.735 139.209 145.956 138.676C146.177 138.144 146.402 137.618 146.633 137.099C146.877 136.571 147.11 136.102 147.333 135.691C147.555 135.281 147.739 134.98 147.885 134.787C148.01 134.639 148.118 134.549 148.209 134.517C148.313 134.488 148.405 134.481 148.488 134.496C148.653 134.526 148.785 134.606 148.883 134.734C148.993 134.864 149.02 135.083 148.963 135.389C148.93 135.566 148.84 135.855 148.693 136.255C148.56 136.645 148.39 137.102 148.183 137.625C147.99 138.138 147.782 138.667 147.559 139.212C147.35 139.746 147.146 140.258 146.945 140.745C146.745 141.233 146.584 141.642 146.461 141.974C146.379 142.154 146.269 142.286 146.132 142.37C146.008 142.445 145.881 142.47 145.751 142.446ZM149.3 132.98C149.028 132.93 148.784 132.799 148.567 132.588C148.362 132.379 148.293 132.092 148.361 131.726C148.417 131.419 148.534 131.185 148.711 131.022C148.899 130.862 149.101 130.759 149.317 130.714C149.547 130.659 149.739 130.645 149.892 130.674C150.045 130.702 150.21 130.769 150.386 130.875C150.575 130.971 150.725 131.121 150.833 131.324C150.944 131.516 150.969 131.776 150.908 132.107C150.866 132.331 150.753 132.517 150.566 132.666C150.382 132.803 150.169 132.897 149.928 132.95C149.698 133.005 149.489 133.015 149.3 132.98ZM149.195 148.43C148.994 148.393 148.848 148.292 148.756 148.129C148.676 147.968 148.673 147.687 148.748 147.285C148.855 146.707 149.021 146.042 149.246 145.291C149.47 144.539 149.733 143.746 150.035 142.911C150.348 142.078 150.672 141.247 151.009 140.418C151.357 139.592 151.704 138.808 152.049 138.067C152.406 137.327 152.74 136.675 153.052 136.111C153.367 135.534 153.639 135.084 153.87 134.761C154.113 134.44 154.299 134.291 154.429 134.315C154.653 134.357 154.818 134.455 154.923 134.608C155.041 134.765 155.076 134.972 155.028 135.232C154.966 135.562 154.766 136.081 154.428 136.787C154.092 137.481 153.655 138.389 153.118 139.51C153.514 139.021 153.937 138.514 154.389 137.988C154.84 137.461 155.306 136.956 155.786 136.471C156.269 135.975 156.741 135.537 157.201 135.159C157.674 134.783 158.118 134.493 158.534 134.289C158.95 134.086 159.329 134.015 159.671 134.079C160.037 134.147 160.34 134.325 160.579 134.613C160.821 134.89 160.982 135.237 161.063 135.655C161.159 136.063 161.163 136.503 161.075 136.975C160.894 137.954 160.552 138.874 160.051 139.733C159.553 140.58 158.941 141.315 158.215 141.937C157.503 142.55 156.713 142.995 155.844 143.273C154.986 143.554 154.103 143.61 153.195 143.441C152.853 143.378 152.549 143.303 152.284 143.218C152.019 143.132 151.791 143.047 151.599 142.963C151.313 143.715 151.029 144.492 150.746 145.294C150.463 146.096 150.171 146.951 149.868 147.859C149.787 148.1 149.696 148.26 149.596 148.34C149.494 148.43 149.36 148.461 149.195 148.43ZM159.741 135.483C159.493 135.437 159.172 135.524 158.777 135.744C158.394 135.966 157.964 136.277 157.487 136.676C157.025 137.067 156.546 137.509 156.052 138.003C155.56 138.485 155.077 138.982 154.604 139.492C154.131 140.002 153.695 140.477 153.297 140.916C152.91 141.357 152.592 141.725 152.341 142.02C153.266 142.167 154.108 142.134 154.868 141.921C155.63 141.696 156.309 141.358 156.905 140.907C157.503 140.444 158.015 139.923 158.44 139.343C158.878 138.753 159.224 138.17 159.477 137.594C159.733 137.007 159.902 136.489 159.985 136.041C160.046 135.711 159.965 135.525 159.741 135.483ZM161.391 139.395C161.077 139.313 160.968 139.079 161.064 138.694C161.093 138.602 161.179 138.502 161.321 138.394C161.465 138.274 161.615 138.222 161.77 138.239C162.143 138.271 162.601 138.301 163.145 138.329C163.703 138.347 164.317 138.363 164.985 138.377C165.21 137.821 165.464 137.239 165.748 136.633C166.031 136.026 166.329 135.441 166.641 134.876C166.955 134.3 167.27 133.785 167.586 133.331C167.902 132.877 168.211 132.531 168.511 132.294C168.665 132.188 168.799 132.121 168.914 132.094C169.031 132.055 169.131 132.043 169.214 132.058C169.379 132.089 169.495 132.183 169.564 132.342C169.643 132.504 169.667 132.673 169.634 132.85C169.617 132.944 169.582 133.035 169.529 133.123C169.17 133.74 168.766 134.507 168.315 135.425C167.864 136.342 167.379 137.344 166.861 138.432C167.979 138.456 169.099 138.468 170.222 138.469C171.345 138.47 172.311 138.46 173.12 138.439C173.362 138.386 173.53 138.435 173.624 138.587C173.729 138.741 173.77 138.883 173.746 139.012C173.715 139.178 173.645 139.293 173.536 139.358C173.438 139.425 173.336 139.479 173.231 139.521L173.21 139.535C172.956 139.586 172.582 139.633 172.086 139.675C171.592 139.705 171.025 139.735 170.385 139.762C169.748 139.779 169.069 139.787 168.348 139.788C167.64 139.791 166.94 139.783 166.247 139.764C165.784 140.752 165.308 141.769 164.822 142.814C164.349 143.849 163.88 144.866 163.414 145.866C163.217 146.269 163.032 146.51 162.859 146.587C162.696 146.679 162.532 146.71 162.366 146.679C162.178 146.644 162.026 146.543 161.91 146.375C161.807 146.209 161.843 145.917 162.018 145.498L164.428 139.702C163.701 139.677 163.061 139.638 162.51 139.584C161.97 139.533 161.597 139.47 161.391 139.395ZM170.502 147.033C170.278 146.992 170.092 146.872 169.946 146.674C169.802 146.464 169.764 146.177 169.831 145.811C169.879 145.551 169.982 145.198 170.138 144.751C170.296 144.292 170.485 143.796 170.706 143.264C170.927 142.731 171.153 142.205 171.383 141.687C171.627 141.158 171.861 140.689 172.083 140.279C172.306 139.868 172.49 139.567 172.635 139.374C172.76 139.226 172.868 139.137 172.96 139.105C173.063 139.075 173.156 139.068 173.238 139.083C173.404 139.114 173.535 139.193 173.634 139.321C173.744 139.451 173.77 139.67 173.714 139.977C173.681 140.154 173.591 140.442 173.443 140.842C173.31 141.232 173.14 141.689 172.933 142.212C172.74 142.725 172.532 143.254 172.309 143.799C172.101 144.334 171.896 144.845 171.696 145.333C171.495 145.82 171.334 146.23 171.212 146.561C171.13 146.741 171.02 146.873 170.882 146.957C170.758 147.032 170.632 147.058 170.502 147.033ZM174.05 137.568C173.779 137.517 173.535 137.387 173.317 137.175C173.112 136.967 173.043 136.679 173.111 136.313C173.168 136.007 173.285 135.772 173.461 135.609C173.65 135.449 173.852 135.346 174.068 135.301C174.297 135.246 174.489 135.232 174.642 135.261C174.796 135.289 174.96 135.356 175.136 135.462C175.326 135.558 175.475 135.708 175.584 135.911C175.695 136.103 175.72 136.364 175.658 136.694C175.617 136.918 175.503 137.105 175.317 137.253C175.133 137.39 174.92 137.485 174.678 137.538C174.448 137.593 174.239 137.603 174.05 137.568ZM185.27 150.338C184.928 150.275 184.707 150.118 184.607 149.867C184.507 149.617 184.507 149.22 184.608 148.678C184.689 148.241 184.843 147.708 185.069 147.079C185.307 146.452 185.581 145.764 185.891 145.016C186.202 144.256 186.524 143.474 186.857 142.669C185.955 143.515 185.014 144.152 184.031 144.58C183.063 144.998 182.037 145.199 180.954 145.181C180.599 145.713 180.219 146.186 179.812 146.599C179.406 147.012 178.988 147.325 178.558 147.538C178.128 147.751 177.707 147.82 177.294 147.743C176.786 147.649 176.394 147.363 176.117 146.884C175.851 146.408 175.791 145.774 175.938 144.984C176.039 144.441 176.199 143.97 176.419 143.572C176.642 143.162 176.859 142.878 177.071 142.722C176.987 142.255 176.997 141.738 177.102 141.172C177.231 140.476 177.504 139.892 177.921 139.42C178.34 138.936 178.843 138.596 179.428 138.4C180.016 138.191 180.617 138.144 181.23 138.258C181.726 138.349 182.126 138.662 182.43 139.194C182.734 139.726 182.806 140.423 182.646 141.284C182.498 142.087 182.191 142.951 181.726 143.878C182.421 143.751 183.14 143.493 183.883 143.106C184.638 142.721 185.388 142.232 186.132 141.638C186.877 141.043 187.577 140.361 188.232 139.592C188.402 139.404 188.604 139.331 188.84 139.375C189.052 139.414 189.206 139.51 189.3 139.662C189.407 139.804 189.442 139.981 189.402 140.193C189.391 140.252 189.319 140.446 189.185 140.775C189.062 141.107 188.899 141.528 188.694 142.039C188.501 142.553 188.287 143.117 188.051 143.732C187.815 144.348 187.578 144.969 187.339 145.596C187.113 146.225 186.913 146.81 186.739 147.352C187.107 146.883 187.519 146.373 187.975 145.823C188.43 145.273 188.89 144.736 189.353 144.212C189.831 143.678 190.28 143.194 190.703 142.759C191.137 142.327 191.511 141.988 191.825 141.741C192.153 141.484 192.394 141.37 192.547 141.399C192.831 141.451 193.061 141.591 193.238 141.82C193.416 142.048 193.486 142.262 193.449 142.463C193.398 142.734 193.292 143.142 193.131 143.685C192.971 144.217 192.786 144.817 192.577 145.486C192.368 146.155 192.158 146.825 191.949 147.494C191.739 148.163 191.554 148.769 191.392 149.313C191.23 149.856 191.124 150.264 191.074 150.535C191.041 150.712 190.935 150.857 190.755 150.97C190.575 151.083 190.391 151.123 190.202 151.088C190.073 151.063 189.968 151.001 189.889 150.901C189.82 150.815 189.785 150.638 189.786 150.37C189.787 150.101 189.838 149.696 189.939 149.153C190.037 148.622 190.162 148.047 190.313 147.428C190.467 146.798 190.631 146.175 190.806 145.561C190.995 144.937 191.177 144.379 191.354 143.887C191 144.285 190.587 144.764 190.117 145.324C189.659 145.885 189.18 146.462 188.68 147.053C188.18 147.643 187.7 148.195 187.239 148.708C186.777 149.22 186.373 149.627 186.024 149.929C185.675 150.23 185.424 150.367 185.27 150.338ZM180.116 143.873C180.341 143.451 180.542 142.993 180.718 142.501C180.909 142 181.052 141.489 181.149 140.97C181.205 140.663 181.192 140.405 181.109 140.194C181.026 139.983 180.885 139.859 180.684 139.822C180.377 139.765 180.06 139.798 179.732 139.92C179.407 140.031 179.115 140.221 178.858 140.491C178.612 140.762 178.45 141.111 178.371 141.535C178.273 142.066 178.389 142.558 178.72 143.01C179.065 143.452 179.531 143.74 180.116 143.873ZM179.412 145.005C178.616 144.821 178.011 144.465 177.597 143.937C177.545 144.086 177.494 144.229 177.444 144.366C177.396 144.491 177.36 144.619 177.336 144.749C177.268 145.114 177.274 145.414 177.352 145.649C177.445 145.873 177.621 146.01 177.881 146.058C178.093 146.097 178.333 146.02 178.601 145.825C178.869 145.631 179.139 145.357 179.412 145.005ZM50.0566 152.555C49.6082 152.471 49.2748 152.196 49.0564 151.728C48.8519 151.251 48.812 150.676 48.9367 150.004C49.0526 149.378 49.3208 148.787 49.7413 148.231C50.1736 147.676 50.7018 147.164 51.3259 146.694C51.95 146.224 52.6126 145.809 53.3136 145.451C54.0168 145.081 54.708 144.776 55.3872 144.536C56.0781 144.298 56.7018 144.126 57.2581 144.022C57.8144 143.918 58.246 143.894 58.5528 143.951C58.718 143.981 58.8471 144.042 58.9402 144.132C59.0354 144.211 59.0677 144.333 59.0371 144.498C59.0174 144.604 58.9576 144.697 58.8575 144.776C58.8693 144.778 58.8811 144.78 58.8929 144.783C59.1524 144.831 59.2538 145.008 59.1969 145.315C59.1773 145.421 59.0955 145.632 58.9517 145.947C58.81 146.25 58.6413 146.634 58.4455 147.098C58.2496 147.562 58.0557 148.081 57.8638 148.656C57.674 149.219 57.5234 149.801 57.4119 150.403C57.3178 150.91 57.4655 151.2 57.8549 151.272C58.2914 151.353 58.7525 151.335 59.238 151.217C59.7236 151.1 60.205 150.939 60.6822 150.734C61.1616 150.518 61.6046 150.301 62.011 150.084C62.4197 149.854 62.7665 149.662 63.0514 149.508C63.3364 149.353 63.532 149.285 63.6382 149.305C63.7326 149.323 63.8097 149.367 63.8695 149.44C63.9294 149.512 63.9473 149.613 63.9232 149.742C63.9014 149.86 63.744 150.051 63.4512 150.314C63.1584 150.577 62.7812 150.867 62.3196 151.184C61.8581 151.502 61.3516 151.798 60.8 152.074C60.2484 152.35 59.6971 152.559 59.146 152.701C58.5949 152.843 58.0893 152.872 57.6291 152.786C57.2752 152.721 56.9704 152.554 56.7148 152.287C56.4731 152.011 56.313 151.591 56.2344 151.027C56.1677 150.465 56.2207 149.718 56.3934 148.786L56.4754 148.344C55.7201 149.192 54.9507 149.953 54.167 150.625C53.3951 151.3 52.6528 151.815 51.94 152.171C51.2389 152.53 50.6111 152.657 50.0566 152.555ZM57.9803 145.163C57.917 145.175 57.8278 145.195 57.7129 145.223C57.1242 145.37 56.501 145.572 55.8432 145.828C55.1973 146.087 54.5555 146.389 53.9178 146.735C53.292 147.082 52.7159 147.458 52.1897 147.861C51.6635 148.264 51.2246 148.689 50.8732 149.136C50.5218 149.584 50.3023 150.043 50.2149 150.515C50.1864 150.669 50.1941 150.792 50.2378 150.886C50.2932 150.981 50.4036 151.044 50.5688 151.075C50.8048 151.119 51.1389 151.028 51.5711 150.803C52.0055 150.566 52.4928 150.242 53.0331 149.829C53.5851 149.419 54.1469 148.956 54.7186 148.439C55.2903 147.923 55.8395 147.396 56.3662 146.859C56.9047 146.324 57.3754 145.826 57.7784 145.363C57.8409 145.289 57.9082 145.223 57.9803 145.163ZM70.352 146.632C70.8127 145.924 71.2601 145.189 71.6942 144.428C72.14 143.668 72.5597 142.885 72.9531 142.08C73.0676 141.857 73.2088 141.688 73.3767 141.572C73.5585 141.447 73.7497 141.404 73.9503 141.441C74.0918 141.467 74.2 141.542 74.2747 141.666C74.3612 141.791 74.3881 141.943 74.3553 142.12C74.3137 142.344 74.1531 142.717 73.8733 143.239C73.6053 143.763 73.2628 144.425 72.8458 145.227C72.4406 146.03 72.0054 146.963 71.5402 148.024C71.0891 149.075 70.6515 150.251 70.2274 151.552C69.8151 152.854 69.469 154.261 69.189 155.771C69.1278 156.101 69.0067 156.36 68.8258 156.546C68.6426 156.744 68.4508 156.824 68.2502 156.787C68.1322 156.765 68.0256 156.715 67.9303 156.636C67.8351 156.557 67.7669 156.398 67.7259 156.159C67.6944 155.933 67.6978 155.586 67.7358 155.117C67.7761 154.637 67.8706 153.995 68.0193 153.193C68.133 152.579 68.292 151.919 68.4962 151.212C67.7719 152.091 67.0234 152.837 66.2507 153.451C65.4919 154.055 64.7815 154.496 64.1194 154.776C63.4691 155.059 62.9374 155.162 62.5245 155.085C62.0171 154.991 61.6358 154.743 61.3807 154.342C61.1351 153.955 61.0736 153.431 61.1961 152.77C61.3032 152.192 61.5493 151.621 61.9344 151.058C62.3195 150.495 62.7909 149.96 63.3486 149.453C63.9085 148.934 64.5091 148.46 65.1502 148.029C65.7914 147.599 66.4205 147.234 67.0376 146.933C67.6687 146.623 68.241 146.399 68.7545 146.263C69.2702 146.114 69.6756 146.067 69.9705 146.122C70.0885 146.144 70.1871 146.205 70.2662 146.305C70.3452 146.405 70.3739 146.514 70.352 146.632ZM70.0202 147.138C69.9223 147.205 69.8067 147.269 69.6734 147.33C69.5401 147.391 69.3939 147.455 69.2348 147.523C68.6479 147.793 67.9969 148.111 67.2819 148.479C66.5809 148.838 65.8947 149.247 65.2234 149.709C64.566 150.161 64.0035 150.66 63.5358 151.208C63.0682 151.756 62.7742 152.355 62.6539 153.004C62.6014 153.287 62.7168 153.455 62.9999 153.507C63.3893 153.579 63.848 153.475 64.3759 153.195C64.9179 152.905 65.4979 152.475 66.1159 151.906C66.7361 151.326 67.3771 150.633 68.0388 149.828C68.7028 149.011 69.3632 148.115 70.0202 147.138ZM81.3963 148.679C81.857 147.971 82.3044 147.236 82.7385 146.475C83.1844 145.715 83.604 144.932 83.9974 144.127C84.112 143.904 84.2532 143.735 84.421 143.619C84.6028 143.494 84.794 143.45 84.9946 143.488C85.1362 143.514 85.2443 143.589 85.319 143.713C85.4056 143.838 85.4324 143.99 85.3996 144.167C85.3581 144.391 85.1974 144.764 84.9176 145.286C84.6497 145.81 84.3072 146.472 83.8901 147.274C83.4849 148.077 83.0497 149.01 82.5846 150.071C82.1334 151.122 81.6958 152.298 81.2717 153.599C80.8594 154.901 80.5133 156.308 80.2334 157.818C80.1721 158.148 80.0511 158.407 79.8701 158.593C79.687 158.791 79.4951 158.871 79.2945 158.834C79.1765 158.812 79.0699 158.762 78.9746 158.683C78.8794 158.604 78.8112 158.445 78.7702 158.206C78.7388 157.98 78.7421 157.633 78.7802 157.164C78.8205 156.683 78.9149 156.042 79.0637 155.24C79.1774 154.626 79.3363 153.966 79.5405 153.259C78.8162 154.138 78.0678 154.884 77.295 155.498C76.5363 156.101 75.8258 156.543 75.1637 156.823C74.5134 157.106 73.9818 157.208 73.5688 157.132C73.0614 157.038 72.6802 156.79 72.425 156.389C72.1795 156.002 72.1179 155.478 72.2404 154.817C72.3475 154.239 72.5937 153.668 72.9788 153.105C73.3639 152.542 73.8353 152.007 74.393 151.5C74.9529 150.981 75.5534 150.507 76.1945 150.076C76.8357 149.646 77.4648 149.28 78.082 148.98C78.7131 148.67 79.2854 148.446 79.7989 148.31C80.3146 148.161 80.7199 148.114 81.0149 148.169C81.1329 148.191 81.2314 148.252 81.3105 148.352C81.3896 148.452 81.4182 148.561 81.3963 148.679ZM81.0646 149.185C80.9666 149.252 80.851 149.316 80.7178 149.377C80.5845 149.438 80.4383 149.502 80.2792 149.57C79.6922 149.84 79.0412 150.158 78.3262 150.526C77.6252 150.885 76.939 151.294 76.2677 151.756C75.6104 152.208 75.0479 152.707 74.5802 153.255C74.1125 153.803 73.8185 154.402 73.6982 155.051C73.6458 155.334 73.7611 155.502 74.0443 155.554C74.4336 155.626 74.8923 155.522 75.4203 155.242C75.9622 154.952 76.5422 154.522 77.1602 153.953C77.7804 153.372 78.4214 152.68 79.0832 151.875C79.7471 151.058 80.4076 150.161 81.0646 149.185ZM95.9822 161.323C95.0737 161.154 94.4145 160.727 94.0047 160.041C93.6088 159.345 93.5104 158.46 93.7094 157.387C93.8319 156.726 94.0636 155.969 94.4046 155.117C94.7596 154.255 95.1705 153.355 95.6374 152.417C96.1183 151.468 96.6205 150.536 97.1442 149.62C97.6679 148.705 98.1666 147.857 98.6405 147.079C99.1283 146.29 99.5486 145.636 99.9013 145.115C100.102 144.823 100.332 144.701 100.592 144.749C100.946 144.815 101.082 145.066 101.001 145.502C100.975 145.644 100.857 145.921 100.646 146.334C100.435 146.746 100.163 147.257 99.8308 147.867C99.5003 148.464 99.139 149.13 98.7469 149.863C98.3548 150.595 97.9524 151.351 97.5398 152.129C97.1411 152.897 96.7612 153.662 96.4001 154.425C96.0412 155.176 95.7324 155.888 95.4736 156.56C95.2148 157.232 95.0394 157.816 94.9476 158.312C94.8885 158.63 94.9241 158.899 95.0543 159.119C95.1985 159.328 95.4181 159.461 95.713 159.515C96.2558 159.616 96.8182 159.61 97.4004 159.499C97.9965 159.377 98.5777 159.204 99.1441 158.98C99.7127 158.743 100.233 158.504 100.705 158.262C101.191 158.01 101.601 157.806 101.936 157.648C102.272 157.478 102.499 157.405 102.617 157.427C102.877 157.475 102.98 157.64 102.928 157.923C102.91 158.018 102.783 158.177 102.546 158.402C102.312 158.615 102.003 158.863 101.621 159.146C101.239 159.429 100.802 159.714 100.309 160.001C99.8309 160.279 99.332 160.534 98.8128 160.767C98.3076 160.991 97.8074 161.154 97.3123 161.258C96.8267 161.375 96.3834 161.397 95.9822 161.323ZM109.881 155.276C109.811 155.654 109.624 156.004 109.32 156.326C109.019 156.636 108.643 156.92 108.192 157.178C107.744 157.425 107.257 157.646 106.733 157.841C106.208 158.037 105.69 158.197 105.179 158.322C104.668 158.447 104.205 158.539 103.792 158.596C103.612 159.039 103.49 159.437 103.424 159.791C103.382 160.015 103.406 160.184 103.495 160.299C103.583 160.413 103.74 160.49 103.964 160.532C104.46 160.624 105.001 160.633 105.588 160.558C106.176 160.484 106.785 160.359 107.415 160.183C108.046 160.007 108.656 159.809 109.246 159.589C109.836 159.369 110.376 159.157 110.865 158.955C111.366 158.755 111.78 158.594 112.108 158.472C112.436 158.349 112.647 158.297 112.741 158.314C112.883 158.341 112.98 158.407 113.034 158.515C113.101 158.613 113.124 158.721 113.102 158.839C113.084 158.933 112.903 159.089 112.557 159.305C112.224 159.524 111.782 159.772 111.23 160.048C110.681 160.312 110.07 160.577 109.398 160.843C108.727 161.11 108.036 161.348 107.325 161.558C106.627 161.77 105.958 161.921 105.319 162.01C104.692 162.101 104.143 162.103 103.671 162.015C103.057 161.902 102.622 161.583 102.365 161.059C102.108 160.536 102.07 159.79 102.249 158.823C102.369 158.174 102.573 157.534 102.861 156.904C103.16 156.276 103.513 155.689 103.92 155.142C104.34 154.585 104.777 154.104 105.23 153.7C105.697 153.287 106.163 152.982 106.626 152.787C107.091 152.581 107.519 152.514 107.908 152.586C108.652 152.723 109.197 153.038 109.546 153.53C109.894 154.022 110.006 154.604 109.881 155.276ZM104.416 157.302C104.824 157.146 105.245 156.98 105.68 156.804C106.115 156.629 106.522 156.442 106.901 156.243C107.279 156.045 107.595 155.823 107.848 155.577C108.115 155.321 108.277 155.04 108.334 154.733C108.415 154.297 108.219 154.035 107.747 153.947C107.452 153.892 107.105 154.023 106.704 154.34C106.318 154.646 105.923 155.067 105.518 155.603C105.114 156.138 104.747 156.704 104.416 157.302ZM113.351 163.352C113.174 163.319 113.022 163.157 112.893 162.864C112.776 162.574 112.719 162.185 112.724 161.698C112.734 161.187 112.762 160.606 112.809 159.956C112.856 159.306 112.913 158.67 112.98 158.047C113.046 157.425 113.112 156.876 113.175 156.399C113.239 155.923 113.287 155.602 113.317 155.437C113.431 154.824 113.61 154.387 113.853 154.127C114.11 153.857 114.393 153.751 114.699 153.808C114.912 153.847 115.054 153.934 115.127 154.07C115.201 154.194 115.203 154.45 115.13 154.84C115.082 155.099 115.026 155.437 114.961 155.852C114.896 156.267 114.831 156.718 114.765 157.207C114.681 157.789 114.591 158.407 114.495 159.06C114.4 159.702 114.301 160.336 114.197 160.964C114.567 160.544 114.989 160.08 115.462 159.569C115.947 159.061 116.44 158.542 116.941 158.013C117.444 157.471 117.929 156.957 118.398 156.47C118.867 155.984 119.281 155.56 119.64 155.199C120 154.839 120.274 154.579 120.463 154.418C120.707 154.219 120.92 154.088 121.103 154.024C121.298 153.963 121.46 153.944 121.589 153.968C121.766 154.001 121.896 154.092 121.978 154.241C122.072 154.393 122.097 154.587 122.053 154.823C122.027 154.964 121.968 155.118 121.876 155.284C121.799 155.441 121.678 155.595 121.516 155.748C121.108 156.173 120.619 156.668 120.05 157.234C119.482 157.8 118.891 158.386 118.278 158.993C117.666 159.599 117.068 160.19 116.485 160.766C115.905 161.329 115.398 161.827 114.964 162.259C114.196 163.045 113.658 163.409 113.351 163.352ZM128.98 158.816C128.91 159.194 128.723 159.543 128.419 159.865C128.117 160.176 127.741 160.46 127.291 160.718C126.842 160.964 126.356 161.185 125.831 161.381C125.307 161.577 124.789 161.737 124.278 161.862C123.766 161.987 123.304 162.078 122.891 162.136C122.711 162.579 122.588 162.977 122.523 163.331C122.481 163.555 122.505 163.724 122.593 163.838C122.682 163.952 122.838 164.03 123.063 164.072C123.558 164.164 124.1 164.172 124.687 164.098C125.274 164.024 125.883 163.899 126.514 163.723C127.145 163.547 127.755 163.349 128.345 163.129C128.935 162.908 129.475 162.697 129.964 162.495C130.464 162.295 130.879 162.134 131.207 162.011C131.534 161.889 131.745 161.837 131.84 161.854C131.981 161.88 132.079 161.947 132.132 162.055C132.199 162.153 132.222 162.261 132.2 162.379C132.183 162.473 132.001 162.628 131.656 162.845C131.323 163.064 130.88 163.312 130.329 163.588C129.779 163.852 129.169 164.117 128.497 164.383C127.825 164.649 127.134 164.887 126.424 165.097C125.726 165.31 125.057 165.46 124.418 165.549C123.791 165.641 123.241 165.643 122.769 165.555C122.156 165.441 121.721 165.123 121.464 164.599C121.207 164.076 121.168 163.33 121.347 162.362C121.468 161.714 121.672 161.074 121.959 160.444C122.259 159.816 122.612 159.228 123.018 158.681C123.439 158.125 123.876 157.644 124.329 157.24C124.796 156.826 125.261 156.522 125.725 156.327C126.19 156.12 126.617 156.053 127.007 156.125C127.75 156.263 128.296 156.578 128.644 157.07C128.992 157.561 129.104 158.143 128.98 158.816ZM123.515 160.842C123.922 160.686 124.343 160.52 124.779 160.344C125.214 160.168 125.621 159.981 125.999 159.783C126.378 159.585 126.694 159.363 126.947 159.117C127.214 158.861 127.376 158.58 127.433 158.273C127.513 157.836 127.318 157.574 126.846 157.487C126.551 157.432 126.203 157.563 125.803 157.879C125.417 158.186 125.021 158.607 124.617 159.142C124.213 159.678 123.845 160.244 123.515 160.842ZM133.263 168.232C132.355 168.064 131.696 167.637 131.286 166.95C130.89 166.255 130.792 165.37 130.991 164.296C131.113 163.635 131.345 162.879 131.686 162.027C132.041 161.165 132.452 160.265 132.919 159.326C133.399 158.378 133.902 157.446 134.425 156.53C134.949 155.614 135.448 154.767 135.922 153.988C136.409 153.2 136.83 152.546 137.182 152.025C137.383 151.733 137.613 151.611 137.873 151.659C138.227 151.724 138.363 151.975 138.282 152.412C138.256 152.554 138.138 152.831 137.927 153.243C137.716 153.656 137.445 154.167 137.112 154.776C136.781 155.374 136.42 156.039 136.028 156.772C135.636 157.505 135.234 158.26 134.821 159.038C134.422 159.806 134.042 160.572 133.681 161.335C133.322 162.086 133.013 162.798 132.755 163.47C132.496 164.142 132.321 164.726 132.229 165.221C132.17 165.54 132.205 165.809 132.335 166.028C132.48 166.238 132.699 166.37 132.994 166.425C133.537 166.526 134.099 166.52 134.681 166.408C135.278 166.287 135.859 166.114 136.425 165.889C136.994 165.653 137.514 165.414 137.986 165.172C138.472 164.92 138.882 164.715 139.217 164.558C139.553 164.388 139.78 164.314 139.898 164.336C140.158 164.384 140.262 164.55 140.209 164.833C140.192 164.928 140.064 165.087 139.827 165.312C139.593 165.524 139.284 165.772 138.902 166.055C138.52 166.339 138.083 166.624 137.591 166.911C137.112 167.188 136.613 167.444 136.094 167.677C135.589 167.9 135.089 168.064 134.593 168.168C134.108 168.285 133.664 168.307 133.263 168.232Z" fill="black" fill-opacity="0.8"/>
</g>
</g>
<defs>
<filter id="filter0_ddd_1_3" x="0" y="0" width="305.545" height="305.545" filterUnits="userSpaceOnUse" color-interpolation-filters="sRGB">
<feFlood flood-opacity="0" result="BackgroundImageFix"/>
<feColorMatrix in="SourceAlpha" type="matrix" values="0 0 0 0 0 0 0 0 0 0 0 0 0 0 0 0 0 0 127 0" result="hardAlpha"/>
<feOffset dy="2.5"/>
<feGaussianBlur stdDeviation="1"/>
<feColorMatrix type="matrix" values="0 0 0 0 0 0 0 0 0 0 0 0 0 0 0 0 0 0 0.02 0"/>
<feBlend mode="normal" in2="BackgroundImageFix" result="effect1_dropShadow_1_3"/>
<feColorMatrix in="SourceAlpha" type="matrix" values="0 0 0 0 0 0 0 0 0 0 0 0 0 0 0 0 0 0 127 0" result="hardAlpha"/>
<feOffset dy="3"/>
<feGaussianBlur stdDeviation="2.5"/>
<feColorMatrix type="matrix" values="0 0 0 0 0 0 0 0 0 0 0 0 0 0 0 0 0 0 0.04 0"/>
<feBlend mode="normal" in2="effect1_dropShadow_1_3" result="effect2_dropShadow_1_3"/>
<feColorMatrix in="SourceAlpha" type="matrix" values="0 0 0 0 0 0 0 0 0 0 0 0 0 0 0 0 0 0 127 0" result="hardAlpha"/>
<feOffset dy="8"/>
<feGaussianBlur stdDeviation="5"/>
<feColorMatrix type="matrix" values="0 0 0 0 0 0 0 0 0 0 0 0 0 0 0 0 0 0 0.08 0"/>
<feBlend mode="normal" in2="effect2_dropShadow_1_3" result="effect3_dropShadow_1_3"/>
<feBlend mode="normal" in="SourceGraphic" in2="effect3_dropShadow_1_3" result="shape"/>
</filter>
<clipPath id="clip0_1_3">
<rect width="245" height="245" fill="white" transform="translate(54.6477 2) rotate(10.5)"/>
</clipPath>
</defs>
</svg>
