<svg width="16" height="15" viewBox="0 0 16 15" fill="none" xmlns="http://www.w3.org/2000/svg">
<path d="M8.0013 14.8332C7.03674 14.8387 6.08065 14.6528 5.18844 14.2863C4.29622 13.9197 3.4856 13.3798 2.80354 12.6977C2.12148 12.0157 1.58153 11.205 1.21497 10.3128C0.848414 9.42061 0.66253 8.46452 0.66809 7.49996C0.66253 6.53539 0.848414 5.57931 1.21497 4.6871C1.58153 3.79488 2.12148 2.98426 2.80354 2.3022C3.4856 1.62014 4.29622 1.08019 5.18844 0.71363C6.08065 0.347071 7.03674 0.161188 8.0013 0.166747C8.96587 0.161188 9.92195 0.347071 10.8142 0.71363C11.7064 1.08019 12.517 1.62014 13.1991 2.3022C13.8811 2.98426 14.4211 3.79488 14.7876 4.6871C15.1542 5.57931 15.3401 6.53539 15.3345 7.49996C15.3401 8.46452 15.1542 9.42061 14.7876 10.3128C14.4211 11.205 13.8811 12.0157 13.1991 12.6977C12.517 13.3798 11.7064 13.9197 10.8142 14.2863C9.92195 14.6528 8.96587 14.8387 8.0013 14.8332ZM8.0013 8.33804L10.829 11.1657L11.6671 10.3276L8.83938 7.49996L11.6679 4.67143L10.8298 3.83335L8.0013 6.66188L5.17278 3.83335L4.3347 4.67143L7.16322 7.49996L4.3347 10.3285L5.17278 11.1666L8.00046 8.33804H8.0013Z" fill="#766D6D"/>
</svg>
