<svg width="16" height="15" viewBox="0 0 16 15" fill="none" xmlns="http://www.w3.org/2000/svg">
<path d="M8.0013 14.8332C7.03674 14.8388 6.08065 14.6529 5.18844 14.2863C4.29622 13.9198 3.4856 13.3798 2.80354 12.6978C2.12148 12.0157 1.58153 11.2051 1.21497 10.3129C0.848414 9.42067 0.66253 8.46458 0.66809 7.50002C0.66253 6.53546 0.848414 5.57937 1.21497 4.68716C1.58153 3.79494 2.12148 2.98432 2.80354 2.30226C3.4856 1.6202 4.29622 1.08025 5.18844 0.713692C6.08065 0.347132 7.03674 0.161249 8.0013 0.166808C8.96587 0.161249 9.92195 0.347132 10.8142 0.713692C11.7064 1.08025 12.517 1.6202 13.1991 2.30226C13.8811 2.98432 14.4211 3.79494 14.7876 4.68716C15.1542 5.57937 15.3401 6.53546 15.3345 7.50002C15.3401 8.46458 15.1542 9.42067 14.7876 10.3129C14.4211 11.2051 13.8811 12.0157 13.1991 12.6978C12.517 13.3798 11.7064 13.9198 10.8142 14.2863C9.92195 14.6529 8.96587 14.8388 8.0013 14.8332ZM8.0013 8.3381L10.829 11.1658L11.6671 10.3277L8.83938 7.50002L11.6679 4.67149L10.8298 3.83341L8.0013 6.66194L5.17278 3.83341L4.3347 4.67149L7.16322 7.50002L4.3347 10.3285L5.17278 11.1666L8.00046 8.3381H8.0013Z" fill="#32588D"/>
</svg>
