<svg width="307" height="307" viewBox="0 0 307 307" fill="none" xmlns="http://www.w3.org/2000/svg">
<g filter="url(#filter0_ddd_1092_34637)">
<g clip-path="url(#clip0_1092_34637)">
<rect width="245" height="245" transform="translate(55.4727 2.83203) rotate(10.5)" fill="#FFD966"/>
<path d="M71.2138 47.4436C70.9188 47.3889 70.6922 47.2615 70.5341 47.0613C70.3855 46.8751 70.3287 46.6876 70.3637 46.4988C70.4031 46.2865 70.4621 46.1326 70.5408 46.0374C70.6334 45.9325 70.7962 45.8772 71.0292 45.8716C71.6078 45.8446 72.2085 45.7973 72.8312 45.7296C73.468 45.6524 74.0645 45.5616 74.6208 45.4572C75.1794 45.341 75.6365 45.2122 75.9922 45.0706C76.3598 44.9313 76.5578 44.7849 76.5862 44.6315C76.6125 44.4899 76.5078 44.3302 76.2723 44.1523C76.039 43.9626 75.737 43.748 75.3665 43.5084C74.9959 43.2689 74.5991 43.0062 74.1761 42.7203C73.7532 42.4345 73.3651 42.1246 73.0121 41.7906C72.659 41.4567 72.3833 41.1005 72.185 40.722C71.9888 40.3317 71.9312 39.9183 72.0121 39.4817C72.1389 38.7974 72.4222 38.1908 72.8619 37.6621C73.3156 37.1238 73.8609 36.6512 74.4977 36.2445C75.1344 35.8377 75.8167 35.4821 76.5444 35.1776C77.286 34.8635 78.006 34.6003 78.7044 34.388C79.4168 34.1661 80.0507 33.9724 80.6062 33.8068C80.7889 33.7431 80.9602 33.7077 81.1201 33.7007C81.2801 33.6938 81.419 33.7012 81.537 33.7231C81.8792 33.7865 82.1128 33.9091 82.2377 34.0909C82.3627 34.2727 82.4066 34.4639 82.3694 34.6645C82.3388 34.8297 82.2142 35.008 81.9957 35.1994C81.7793 35.379 81.4906 35.5207 81.1297 35.6247C80.7687 35.7286 80.3581 35.738 79.8979 35.6527L79.7563 35.6264C79.3158 35.7645 78.8322 35.9372 78.3056 36.1447C77.779 36.3522 77.2528 36.5903 76.727 36.859C76.2012 37.1277 75.7087 37.4148 75.2493 37.7202C74.804 38.016 74.4316 38.3131 74.1322 38.6115C73.8446 38.9121 73.6745 39.204 73.6221 39.4872C73.5586 39.8294 73.6316 40.1602 73.8409 40.4797C74.0501 40.7992 74.3357 41.1023 74.6975 41.389C75.0711 41.678 75.4635 41.9643 75.8747 42.2479C76.2977 42.5338 76.6901 42.8201 77.0519 43.1069C77.4277 43.384 77.7224 43.6705 77.936 43.9664C78.1519 44.2505 78.2303 44.5518 78.1712 44.8704C78.1034 45.2361 77.9091 45.5602 77.5883 45.8424C77.2793 46.1269 76.8921 46.3724 76.4266 46.5791C75.9634 46.7739 75.4632 46.9375 74.9261 47.0698C74.4029 47.1925 73.8912 47.2869 73.3908 47.3528C72.8904 47.4187 72.4438 47.458 72.0509 47.4706C71.6698 47.4854 71.3908 47.4764 71.2138 47.4436ZM83.19 49.2422C82.4939 49.1132 81.9944 48.746 81.6917 48.1407C81.3889 47.5354 81.3162 46.808 81.4737 45.9584C81.5306 45.6516 81.632 45.3348 81.778 45.008C81.938 44.6715 82.115 44.3748 82.3091 44.1178C82.2418 44.0199 82.1977 43.8958 82.1767 43.7455C82.158 43.5833 82.1694 43.3902 82.2109 43.166C82.3399 42.4699 82.576 41.8546 82.9192 41.3202C83.2623 40.7857 83.6679 40.3422 84.136 39.9896C84.6063 39.6252 85.0993 39.3688 85.615 39.2203C86.1425 39.074 86.654 39.0467 87.1496 39.1386C87.9637 39.2895 88.5698 39.7069 88.9678 40.3909C89.368 41.0631 89.4577 41.995 89.2368 43.1867C89.1209 43.8121 88.9084 44.4317 88.5994 45.0457C88.3021 45.6618 87.9384 46.2413 87.5083 46.784C87.09 47.3289 86.6306 47.799 86.1302 48.1944C85.6415 48.592 85.1409 48.8898 84.6283 49.0877C84.1296 49.276 83.6502 49.3275 83.19 49.2422ZM83.5887 43.7326C83.642 43.8401 83.6545 43.9705 83.626 44.1239C83.5932 44.3009 83.525 44.4713 83.4215 44.6352C83.3297 44.8013 83.2199 45.0311 83.0923 45.3248C82.9646 45.6184 82.8483 46.0484 82.7433 46.6148C82.6384 47.1811 82.8101 47.5059 83.2584 47.589C83.754 47.6808 84.2502 47.5714 84.7472 47.2608C85.2463 46.9383 85.719 46.495 86.1653 45.9309C86.6115 45.3668 86.9888 44.7472 87.297 44.072C87.6192 43.3873 87.8393 42.7263 87.9574 42.0892C88.0339 41.6762 88.0108 41.3729 87.888 41.1793C87.7674 40.9739 87.5066 40.834 87.1054 40.7597C86.6924 40.6831 86.2355 40.7449 85.7347 40.945C85.2478 41.1354 84.8132 41.4393 84.4307 41.8566C84.0483 42.2739 83.8024 42.7775 83.693 43.3675C83.669 43.4973 83.6342 43.619 83.5887 43.7326ZM103.941 52.3559C103.894 52.5425 103.789 52.6816 103.626 52.7734C103.462 52.8651 103.286 52.8935 103.097 52.8585C102.885 52.8192 102.721 52.7156 102.606 52.5477C102.49 52.3799 102.46 52.1485 102.515 51.8535C102.657 51.0866 102.846 50.2613 103.083 49.3777C103.322 48.4823 103.577 47.602 103.847 46.7367C104.12 45.8597 104.379 45.0534 104.625 44.318C104.133 44.8004 103.595 45.3352 103.01 45.9224C102.437 46.5119 101.853 47.0933 101.259 47.6665C100.664 48.2398 100.091 48.7622 99.5402 49.2336C98.9913 49.6933 98.5022 50.0603 98.073 50.3347C97.646 50.5973 97.3145 50.7067 97.0785 50.6629C96.642 50.582 96.2961 50.341 96.0409 49.9398C95.788 49.5267 95.7107 49.0548 95.8091 48.5238C95.8485 48.3114 95.9256 48.0267 96.0406 47.6697C96.1578 47.3009 96.2841 46.9154 96.4197 46.5134C96.5552 46.1114 96.6794 45.7377 96.7922 45.3925C96.9072 45.0355 96.9811 44.7685 97.0139 44.5915C97.0445 44.4263 97.053 44.2814 97.0395 44.1569C97.04 44.0227 96.993 43.9469 96.8986 43.9294C96.757 43.9032 96.5328 44.0264 96.226 44.299C95.9213 44.5599 95.5708 44.9038 95.1744 45.3307C94.7897 45.7597 94.3878 46.2161 93.9687 46.6999C93.5613 47.1858 93.1771 47.6454 92.816 48.0789C92.4572 48.5006 92.1582 48.8296 91.9191 49.066C91.7176 49.2971 91.5411 49.4597 91.3894 49.5536C91.2378 49.6476 91.0675 49.677 90.8787 49.642C90.6546 49.6005 90.4699 49.4442 90.3249 49.1733C90.1917 48.9045 90.1567 48.599 90.2202 48.2568C90.2573 48.0562 90.3507 47.7501 90.5002 47.3385C90.6519 46.915 90.829 46.4536 91.0314 45.9541C91.2456 45.4568 91.4517 44.9702 91.6497 44.4943C91.8618 44.0088 92.0419 43.5968 92.1901 43.2581C92.3588 42.8744 92.5271 42.6249 92.6949 42.5096C92.8628 42.3942 93.0293 42.3519 93.1945 42.3825C93.4187 42.424 93.5803 42.5394 93.6795 42.7287C93.7927 42.9083 93.8186 43.1633 93.7574 43.4937C93.7465 43.5527 93.6815 43.7054 93.5626 43.9519C93.4459 44.1865 93.3006 44.4769 93.1266 44.823C92.9666 45.1595 92.7915 45.5114 92.6014 45.8789C92.423 46.2486 92.2678 46.5921 92.1358 46.9094C92.4763 46.5209 92.8351 46.0992 93.2123 45.6444C93.6014 45.1917 93.9893 44.7449 94.3761 44.304C94.7651 43.8513 95.1454 43.4458 95.5169 43.0875C95.8906 42.7174 96.242 42.4347 96.5711 42.2394C96.9002 42.0441 97.1945 41.9705 97.4541 42.0186C97.7609 42.0755 98.0266 42.2224 98.2512 42.4593C98.4875 42.6984 98.6588 42.9925 98.765 43.3417C98.8711 43.6909 98.8881 44.0602 98.8159 44.4495C98.7656 44.7209 98.6474 45.0956 98.4611 45.5737C98.2771 46.04 98.0795 46.5464 97.8683 47.0931C97.6689 47.642 97.5104 48.1679 97.3928 48.6709C97.3709 48.7889 97.3954 48.8544 97.4662 48.8675C97.5252 48.8785 97.6036 48.8503 97.7015 48.783C98.1137 48.4689 98.5755 48.0846 99.0868 47.6301C99.6004 47.1639 100.125 46.6693 100.662 46.1463C101.21 45.6254 101.75 45.1153 102.282 44.6159C102.816 44.1047 103.309 43.647 103.763 43.2428C104.23 42.829 104.631 42.5068 104.967 42.2761C105.314 42.0476 105.571 41.9486 105.736 41.9792C106.09 42.0448 106.343 42.1954 106.494 42.431C106.646 42.6666 106.678 43.0203 106.591 43.4923C106.521 43.8699 106.4 44.3541 106.23 44.9449C106.071 45.5379 105.885 46.1807 105.671 46.8733C105.469 47.5682 105.254 48.2667 105.026 48.969C104.813 49.6616 104.607 50.307 104.411 50.9053C104.217 51.4917 104.06 51.9752 103.941 52.3559ZM115.887 47.2291C115.817 47.6067 115.631 47.9565 115.327 48.2785C115.025 48.5887 114.649 48.873 114.199 49.1312C113.75 49.3776 113.264 49.5986 112.739 49.7944C112.215 49.9901 111.697 50.1504 111.186 50.2753C110.674 50.4002 110.212 50.4914 109.798 50.5491C109.619 50.9917 109.496 51.3901 109.431 51.744C109.389 51.9682 109.413 52.1373 109.501 52.2514C109.59 52.3655 109.746 52.4433 109.971 52.4849C110.466 52.5767 111.008 52.5855 111.595 52.5113C112.182 52.4371 112.791 52.312 113.422 52.136C114.053 51.96 114.663 51.7619 115.253 51.5417C115.843 51.3215 116.382 51.1103 116.872 50.908C117.372 50.708 117.787 50.5468 118.114 50.4245C118.442 50.3021 118.653 50.2497 118.748 50.2672C118.889 50.2935 118.987 50.3603 119.04 50.4679C119.107 50.5658 119.13 50.6737 119.108 50.7917C119.091 50.8861 118.909 51.0416 118.564 51.2583C118.231 51.4772 117.788 51.7247 117.236 52.0008C116.687 52.2652 116.077 52.5303 115.405 52.7964C114.733 53.0624 114.042 53.3005 113.332 53.5106C112.634 53.7229 111.965 53.8735 111.326 53.9626C110.699 54.0538 110.149 54.0557 109.677 53.9683C109.064 53.8545 108.629 53.5359 108.372 53.0123C108.115 52.4887 108.076 51.7432 108.255 50.7757C108.376 50.1267 108.58 49.4872 108.867 48.857C109.167 48.2291 109.52 47.6416 109.926 47.0945C110.347 46.5378 110.784 46.0574 111.237 45.6532C111.704 45.2394 112.169 44.9351 112.633 44.7403C113.098 44.5336 113.525 44.4664 113.915 44.5386C114.658 44.6763 115.204 44.9911 115.552 45.4828C115.9 45.9744 116.012 46.5566 115.887 47.2291ZM110.423 49.2552C110.83 49.0988 111.251 48.9328 111.687 48.7572C112.122 48.5815 112.529 48.3946 112.907 48.1962C113.286 47.9979 113.602 47.7757 113.855 47.5297C114.122 47.2741 114.284 46.9929 114.341 46.6861C114.421 46.2495 114.226 45.9875 113.754 45.9C113.459 45.8454 113.111 45.9762 112.711 46.2926C112.325 46.5993 111.929 47.0203 111.525 47.5556C111.121 48.0908 110.753 48.6574 110.423 49.2552ZM125.458 56.9845C125.233 56.9429 125.048 56.8231 124.902 56.6252C124.758 56.4154 124.719 56.1276 124.787 55.7618C124.835 55.5022 124.937 55.1489 125.093 54.7019C125.252 54.243 125.441 53.7473 125.662 53.2146C125.883 52.6819 126.108 52.1562 126.339 51.6375C126.583 51.1092 126.816 50.6399 127.039 50.2296C127.261 49.8192 127.446 49.5177 127.591 49.325C127.716 49.1773 127.824 49.0875 127.916 49.0556C128.019 49.0259 128.112 49.0187 128.194 49.0341C128.359 49.0647 128.491 49.144 128.589 49.2721C128.7 49.4023 128.726 49.6208 128.669 49.9276C128.637 50.1046 128.546 50.393 128.399 50.7928C128.266 51.1831 128.096 51.6397 127.889 52.1628C127.696 52.6763 127.488 53.2052 127.265 53.7497C127.056 54.2846 126.852 54.7959 126.651 55.2836C126.451 55.7712 126.29 56.1807 126.168 56.5119C126.085 56.692 125.975 56.8242 125.838 56.9085C125.714 56.9832 125.587 57.0085 125.458 56.9845ZM129.006 47.5186C128.735 47.4683 128.49 47.3376 128.273 47.1265C128.068 46.9176 127.999 46.6302 128.067 46.2645C128.124 45.9577 128.24 45.723 128.417 45.5605C128.605 45.4001 128.807 45.2972 129.023 45.2518C129.253 45.1968 129.445 45.1835 129.598 45.2119C129.752 45.2403 129.916 45.3075 130.092 45.4132C130.281 45.5094 130.431 45.6591 130.539 45.8623C130.65 46.0538 130.675 46.3147 130.614 46.645C130.573 46.8692 130.459 47.0556 130.272 47.2041C130.088 47.3409 129.876 47.4357 129.634 47.4885C129.404 47.5436 129.195 47.5536 129.006 47.5186ZM131.274 57.5499C130.932 57.4864 130.661 57.2349 130.462 56.7952C130.262 56.3556 130.22 55.829 130.333 55.2154C130.458 54.5429 130.68 53.8395 130.999 53.1054C131.33 52.3734 131.704 51.6373 132.122 50.8971C132.542 50.1451 132.951 49.4214 133.348 48.7262C133.436 48.5837 133.539 48.487 133.659 48.4358C133.792 48.3751 133.977 48.3666 134.213 48.4104C134.637 48.4891 134.811 48.7349 134.735 49.1479C134.717 49.2423 134.631 49.4459 134.475 49.7588C134.32 50.0717 134.12 50.4558 133.877 50.9111C133.646 51.3686 133.401 51.8664 133.143 52.4043C132.887 52.9304 132.647 53.4657 132.424 54.0102C132.201 54.5547 132.021 55.0644 131.884 55.5395C132.11 55.3739 132.38 55.1065 132.692 54.7372C133.016 54.3702 133.368 53.9533 133.748 53.4866C134.129 53.0082 134.523 52.5319 134.928 52.0578C135.335 51.5719 135.734 51.1332 136.124 50.7417C136.528 50.3406 136.902 50.0316 137.247 49.8149C137.607 49.5886 137.916 49.4995 138.176 49.5476C138.553 49.6176 138.85 49.7946 139.066 50.0787C139.296 50.3532 139.428 50.7926 139.462 51.397C139.511 51.9918 139.439 52.8084 139.246 53.8467C139.143 54.4012 139.1 54.9302 139.117 55.4337C139.145 55.9393 139.256 56.3626 139.449 56.7035C139.656 57.0348 139.96 57.2376 140.361 57.3119C140.963 57.4235 141.52 57.4168 142.031 57.2919C142.544 57.1552 142.997 56.9828 143.39 56.7749C143.796 56.5573 144.137 56.3642 144.413 56.1955C144.69 56.0151 144.894 55.9369 145.024 55.961C145.295 56.0112 145.404 56.178 145.352 56.4612C145.33 56.5792 145.207 56.7515 144.981 56.9783C144.77 57.1955 144.482 57.4349 144.116 57.6966C143.764 57.9487 143.366 58.1862 142.922 58.409C142.492 58.6222 142.041 58.7827 141.57 58.8906C141.11 59.0007 140.662 59.0153 140.225 58.9343C139.411 58.7834 138.774 58.5006 138.314 58.0858C137.866 57.6732 137.585 57.0782 137.473 56.3007C137.373 55.5254 137.436 54.5242 137.664 53.2971C137.788 52.6246 137.838 52.1273 137.812 51.8052C137.8 51.4735 137.704 51.236 137.523 51.0926C137.336 51.3141 137.087 51.6342 136.778 52.0528C136.47 52.4596 136.118 52.913 135.72 53.4129C135.334 53.9149 134.929 54.4196 134.506 54.9269C134.096 55.4246 133.689 55.8799 133.282 56.2929C132.876 56.7058 132.499 57.0324 132.149 57.2727C131.801 57.5012 131.51 57.5936 131.274 57.5499ZM146.061 61.1144C145.802 61.0662 145.615 60.9524 145.502 60.7727C145.399 60.6071 145.364 60.4299 145.399 60.2411C145.43 60.0759 145.529 59.9356 145.697 59.8203C145.879 59.6953 146.11 59.5979 146.392 59.528C146.91 59.3677 147.398 59.202 147.857 59.0307C148.328 58.8617 148.719 58.6596 149.031 58.4245C149.343 58.1895 149.529 57.9126 149.588 57.5941C149.638 57.3227 149.588 57.0998 149.437 56.9254C149.289 56.7392 149.061 56.6177 148.754 56.5608C148.577 56.528 148.323 56.5175 147.991 56.5293C147.662 56.5292 147.3 56.5355 146.908 56.5481C146.529 56.5511 146.156 56.5552 145.789 56.5604C145.424 56.5538 145.117 56.5275 144.87 56.4816C144.421 56.3985 144.105 56.23 143.92 55.9761C143.737 55.7103 143.681 55.3887 143.751 55.0111C143.786 54.8223 143.95 54.5599 144.245 54.2239C144.539 53.8879 144.911 53.5237 145.362 53.1313C145.827 52.7293 146.328 52.3339 146.864 51.945C147.4 51.5562 147.935 51.2038 148.469 50.8879C149.016 50.5742 149.512 50.3307 149.959 50.1572C150.418 49.986 150.783 49.9255 151.055 49.9758C151.326 50.0261 151.516 50.1529 151.625 50.3561C151.734 50.5593 151.763 50.7966 151.713 51.068C151.673 51.2804 151.604 51.4567 151.505 51.597C151.408 51.7255 151.24 51.8102 151 51.8513C150.772 51.8945 150.433 51.8805 149.983 51.8092C149.455 52.0896 148.887 52.4178 148.281 52.7935C147.688 53.1596 147.134 53.5511 146.617 53.9679C146.114 54.3752 145.727 54.7855 145.455 55.1988C145.869 55.1412 146.361 55.1166 146.933 55.125C147.519 55.1238 148.101 55.1767 148.68 55.2839C149.588 55.4523 150.222 55.7834 150.582 56.2773C150.956 56.7615 151.082 57.3341 150.96 57.9948C150.881 58.4196 150.663 58.8369 150.307 59.2467C149.964 59.647 149.544 60.0025 149.047 60.3131C148.55 60.6237 148.038 60.8522 147.511 60.9985C146.981 61.1567 146.498 61.1953 146.061 61.1144ZM152.055 55.9645C151.741 55.8818 151.632 55.648 151.728 55.263C151.757 55.1708 151.843 55.0708 151.985 54.9628C152.129 54.8431 152.279 54.7916 152.435 54.8082C152.807 54.8406 153.265 54.8706 153.809 54.8982C154.367 54.9162 154.981 54.9322 155.649 54.9463C155.874 54.39 156.129 53.8086 156.412 53.2021C156.695 52.5956 156.993 52.01 157.305 51.4454C157.619 50.8691 157.934 50.3539 158.25 49.8999C158.566 49.4458 158.875 49.1002 159.175 48.863C159.329 48.7572 159.463 48.6906 159.578 48.6631C159.695 48.6238 159.795 48.6118 159.878 48.6271C160.043 48.6577 160.159 48.7525 160.228 48.9116C160.308 49.0729 160.331 49.242 160.298 49.419C160.281 49.5134 160.246 49.6045 160.193 49.6923C159.834 50.3094 159.43 51.0765 158.979 51.9937C158.528 52.9109 158.044 53.9134 157.525 55.001C158.643 55.0252 159.763 55.0376 160.886 55.0382C162.009 55.0388 162.975 55.0287 163.784 55.0078C164.026 54.955 164.194 55.0044 164.288 55.1561C164.393 55.3099 164.434 55.4517 164.41 55.5815C164.38 55.7467 164.309 55.8619 164.2 55.927C164.102 55.9942 164 56.0486 163.895 56.0901L163.874 56.1045C163.62 56.1552 163.246 56.2017 162.75 56.244C162.256 56.2745 161.689 56.3037 161.049 56.3316C160.412 56.3477 159.733 56.3561 159.012 56.3569C158.304 56.3598 157.604 56.3521 156.912 56.3336C156.448 57.3216 155.973 58.338 155.486 59.3829C155.013 60.4181 154.544 61.4356 154.078 62.4354C153.881 62.8383 153.696 63.0787 153.523 63.1564C153.36 63.2482 153.196 63.2787 153.03 63.2481C152.842 63.2131 152.69 63.1117 152.574 62.9439C152.471 62.7782 152.507 62.4859 152.682 62.0668L155.092 56.2711C154.365 56.246 153.725 56.2068 153.174 56.1534C152.634 56.1022 152.261 56.0392 152.055 55.9645ZM161.724 62.9453C161.535 62.9103 161.39 62.8041 161.289 62.6267C161.187 62.4492 161.162 62.2248 161.212 61.9534C161.249 61.7529 161.352 61.4301 161.52 60.9853C161.702 60.5308 161.904 60.0007 162.126 59.3951C162.36 58.7916 162.58 58.1612 162.787 57.504C162.997 56.835 163.159 56.1878 163.275 55.5624C163.332 55.2556 163.45 55.0457 163.63 54.9325C163.824 54.8097 164.021 54.7669 164.221 54.8041C164.41 54.8391 164.53 54.9833 164.581 55.2368C164.631 55.4903 164.561 55.9655 164.371 56.6625C165.137 55.5596 165.912 54.7025 166.697 54.0913C167.495 53.4704 168.249 53.0608 168.957 52.8625C169.667 52.6524 170.281 52.5955 170.801 52.6917C171.143 52.7551 171.377 52.8718 171.505 53.0418C171.646 53.2022 171.701 53.365 171.67 53.5302C171.629 53.7544 171.502 53.9139 171.289 54.0087C171.09 54.0939 170.751 54.1775 170.272 54.2596C169.716 54.364 169.194 54.5114 168.707 54.7019C168.234 54.8827 167.764 55.1494 167.296 55.502C166.839 55.8568 166.367 56.3307 165.879 56.9237C165.393 57.5048 164.878 58.2394 164.335 59.1273C163.793 60.0152 163.19 61.0935 162.528 62.362C162.409 62.6085 162.281 62.7739 162.143 62.8582C162.017 62.9447 161.877 62.9737 161.724 62.9453ZM174.485 66.419C174.284 66.3818 174.13 66.2616 174.021 66.0584C173.912 65.8552 173.889 65.5825 173.953 65.2403C174.027 64.8391 174.192 64.2778 174.448 63.5563C174.716 62.837 175.087 61.8868 175.562 60.7056C175.104 61.4017 174.617 62.05 174.103 62.6503C173.601 63.2529 173.098 63.7272 172.595 64.0733C172.091 64.4193 171.615 64.5508 171.167 64.4677C170.73 64.3868 170.373 64.1435 170.094 63.7379C169.827 63.3345 169.773 62.7021 169.933 61.8408C170.023 61.3571 170.165 60.8219 170.359 60.2355C170.555 59.6373 170.774 59.0493 171.015 58.4716C171.257 57.8939 171.486 57.3811 171.703 56.9332C171.923 56.4735 172.106 56.1414 172.254 55.9369C172.371 55.7634 172.477 55.6548 172.571 55.6111C172.666 55.5556 172.785 55.541 172.926 55.5673C173.092 55.5979 173.256 55.7015 173.418 55.8781C173.581 56.0546 173.631 56.3081 173.57 56.6385C173.555 56.7211 173.477 56.9081 173.338 57.1996C173.212 57.4814 173.05 57.8297 172.851 58.2444C172.666 58.6495 172.469 59.0889 172.259 59.5626C172.049 60.0363 171.857 60.5132 171.683 60.9935C171.52 61.4759 171.401 61.9236 171.324 62.3366C171.282 62.5608 171.272 62.748 171.293 62.8984C171.314 63.0487 171.419 63.1414 171.608 63.1764C171.773 63.207 172.01 63.0801 172.319 62.7956C172.64 62.5133 172.998 62.1282 173.394 61.6401C173.803 61.1424 174.23 60.5868 174.673 59.9733C175.128 59.362 175.574 58.7308 176.012 58.0797C176.462 57.4308 176.876 56.8118 177.253 56.2228C177.387 56.0279 177.512 55.9167 177.627 55.8892C177.744 55.8499 177.867 55.8422 177.997 55.8663C178.209 55.9056 178.382 56.0291 178.514 56.2367C178.66 56.4347 178.708 56.6694 178.658 56.9408C178.625 57.1178 178.533 57.418 178.381 57.8414C178.241 58.2671 178.058 58.7639 177.831 59.332C177.617 59.8905 177.38 60.4811 177.118 61.1038C176.868 61.7287 176.619 62.3477 176.371 62.9607C176.125 63.562 175.895 64.1113 175.681 64.6086C175.479 65.1081 175.312 65.5106 175.183 65.816C175.069 66.1001 174.951 66.2735 174.83 66.3365C174.718 66.4133 174.603 66.4409 174.485 66.419ZM181.946 67.6188C181.368 67.5116 180.891 67.2889 180.514 66.9506C180.151 66.6027 179.897 66.1955 179.752 65.7292C179.606 65.2629 179.575 64.8056 179.658 64.3572C179.833 63.4133 180.158 62.5826 180.633 61.8651C181.11 61.1357 181.652 60.5161 182.259 60.0062C182.88 59.4867 183.495 59.0638 184.105 58.7374C184.726 58.4133 185.275 58.1854 185.751 58.054C186.241 57.9129 186.58 57.8598 186.769 57.8948C187.146 57.9648 187.3 58.1886 187.23 58.5661C187.197 58.7431 187.041 58.9277 186.761 59.12C186.484 59.3004 186.134 59.5101 185.711 59.7491C185.289 59.9881 184.835 60.264 184.35 60.5769C183.867 60.8779 183.397 61.2364 182.942 61.6524C182.489 62.0565 182.09 62.5317 181.744 63.0779C181.401 63.6124 181.165 64.2276 181.036 64.9238C180.905 65.6317 181.128 66.0393 181.706 66.1464C182.237 66.2448 182.799 66.2451 183.39 66.1473C183.994 66.0517 184.597 65.8949 185.198 65.6769C185.814 65.4493 186.409 65.2056 186.982 64.9456C187.555 64.6857 188.077 64.4347 188.549 64.1927C189.023 63.9388 189.42 63.7379 189.741 63.5898C190.061 63.4417 190.28 63.3786 190.398 63.4004C190.634 63.4442 190.728 63.5958 190.68 63.8554C190.643 64.056 190.458 64.2963 190.125 64.5764C189.793 64.8565 189.36 65.1485 188.828 65.4526C188.296 65.7567 187.709 66.0569 187.069 66.3531C186.43 66.6375 185.791 66.8913 185.152 67.1145C184.514 67.3259 183.912 67.4827 183.344 67.5849C182.79 67.6774 182.324 67.6887 181.946 67.6188ZM188.559 62.73C188.245 62.6473 188.135 62.4135 188.231 62.0285C188.26 61.9363 188.346 61.8362 188.488 61.7283C188.632 61.6086 188.782 61.5571 188.938 61.5737C189.31 61.6061 189.768 61.6361 190.312 61.6637C190.871 61.6817 191.484 61.6977 192.153 61.7118C192.378 61.1555 192.632 60.5741 192.915 59.9676C193.198 59.3611 193.496 58.7755 193.808 58.2109C194.123 57.6346 194.438 57.1194 194.754 56.6654C195.07 56.2113 195.378 55.8657 195.678 55.6285C195.832 55.5227 195.966 55.4561 196.081 55.4286C196.198 55.3893 196.298 55.3773 196.381 55.3926C196.546 55.4232 196.663 55.518 196.731 55.6771C196.811 55.8384 196.834 56.0075 196.802 56.1845C196.784 56.2789 196.749 56.37 196.696 56.4578C196.338 57.0749 195.933 57.842 195.482 58.7592C195.032 59.6764 194.547 60.6789 194.028 61.7665C195.146 61.7907 196.267 61.8031 197.389 61.8037C198.512 61.8043 199.478 61.7942 200.288 61.7733C200.529 61.7205 200.697 61.7699 200.791 61.9216C200.897 62.0754 200.938 62.2172 200.913 62.347C200.883 62.5122 200.813 62.6273 200.703 62.6924C200.605 62.7597 200.503 62.8141 200.398 62.8556L200.377 62.87C200.124 62.9207 199.749 62.9672 199.253 63.0095C198.759 63.04 198.192 63.0692 197.553 63.0971C196.915 63.1132 196.236 63.1216 195.516 63.1224C194.807 63.1253 194.107 63.1176 193.415 63.0991C192.951 64.0871 192.476 65.1035 191.989 66.1484C191.517 67.1836 191.047 68.2011 190.581 69.2009C190.385 69.6038 190.2 69.8442 190.027 69.9219C189.863 70.0137 189.699 70.0442 189.534 70.0136C189.345 69.9786 189.193 69.8772 189.078 69.7094C188.974 69.5437 189.01 69.2514 189.185 68.8323L191.596 63.0366C190.868 63.0115 190.229 62.9723 189.677 62.9189C189.137 62.8677 188.765 62.8047 188.559 62.73ZM197.669 70.3681C197.445 70.3265 197.26 70.2068 197.113 70.0088C196.969 69.799 196.931 69.5112 196.999 69.1455C197.047 68.8859 197.149 68.5326 197.305 68.0855C197.463 67.6267 197.653 67.1309 197.874 66.5982C198.094 66.0655 198.32 65.5398 198.55 65.0211C198.795 64.4928 199.028 64.0235 199.251 63.6132C199.473 63.2029 199.657 62.9013 199.803 62.7086C199.928 62.561 200.036 62.4712 200.127 62.4393C200.23 62.4096 200.323 62.4024 200.406 62.4177C200.571 62.4483 200.703 62.5276 200.801 62.6557C200.911 62.7859 200.938 63.0045 200.881 63.3112C200.848 63.4882 200.758 63.7766 200.611 64.1765C200.477 64.5667 200.307 65.0234 200.101 65.5464C199.908 66.0599 199.7 66.5889 199.477 67.1334C199.268 67.6682 199.063 68.1795 198.863 68.6672C198.663 69.1549 198.502 69.5643 198.379 69.8956C198.297 70.0756 198.187 70.2078 198.049 70.2921C197.926 70.3668 197.799 70.3922 197.669 70.3681ZM201.218 60.9022C200.946 60.8519 200.702 60.7212 200.485 60.5101C200.279 60.3012 200.211 60.0139 200.278 59.6481C200.335 59.3413 200.452 59.1067 200.629 58.9441C200.817 58.7838 201.019 58.6809 201.235 58.6355C201.465 58.5804 201.656 58.5671 201.81 58.5956C201.963 58.624 202.128 58.6911 202.303 58.7969C202.493 58.893 202.642 59.0427 202.751 59.246C202.862 59.4374 202.887 59.6983 202.826 60.0287C202.784 60.2529 202.67 60.4392 202.484 60.5878C202.3 60.7245 202.087 60.8193 201.846 60.8722C201.616 60.9272 201.406 60.9372 201.218 60.9022ZM212.438 73.6728C212.096 73.6094 211.875 73.4525 211.775 73.2021C211.675 72.9516 211.675 72.555 211.775 72.0123C211.856 71.5757 212.01 71.0428 212.236 70.4135C212.475 69.7865 212.749 69.0989 213.058 68.3507C213.37 67.5908 213.692 66.8084 214.024 66.0035C213.123 66.8494 212.181 67.4864 211.198 67.9145C210.23 68.3331 209.204 68.5335 208.121 68.5158C207.766 69.0481 207.386 69.5207 206.98 69.9336C206.574 70.3465 206.156 70.6595 205.726 70.8727C205.296 71.0859 204.874 71.1543 204.461 71.0777C203.954 70.9837 203.561 70.6974 203.284 70.2188C203.018 69.7424 202.959 69.109 203.105 68.3184C203.206 67.7757 203.366 67.305 203.587 66.9065C203.809 66.4962 204.026 66.213 204.238 66.0571C204.154 65.5899 204.164 65.0731 204.269 64.5068C204.398 63.8106 204.671 63.2266 205.088 62.7547C205.508 62.271 206.01 61.9308 206.596 61.7343C207.183 61.5259 207.784 61.4786 208.398 61.5923C208.893 61.6841 209.293 61.9962 209.597 62.5285C209.901 63.0609 209.973 63.7577 209.814 64.619C209.665 65.4214 209.358 66.2859 208.894 67.2128C209.589 67.0853 210.308 66.828 211.051 66.4409C211.805 66.056 212.555 65.5664 213.3 64.9722C214.045 64.378 214.745 63.6961 215.4 62.9266C215.569 62.7383 215.772 62.666 216.007 62.7098C216.22 62.7491 216.373 62.8446 216.467 62.9963C216.575 63.1383 216.609 63.3155 216.57 63.5279C216.559 63.5869 216.486 63.781 216.352 64.11C216.23 64.4412 216.066 64.8625 215.862 65.3738C215.669 65.8872 215.454 66.4516 215.218 67.0669C214.982 67.6822 214.745 68.3034 214.507 68.9304C214.28 69.5597 214.08 70.145 213.907 70.6865C214.274 70.2176 214.686 69.7081 215.142 69.158C215.598 68.6079 216.057 68.0706 216.521 67.5463C216.998 67.0123 217.448 66.5282 217.87 66.0938C218.304 65.6617 218.678 65.3222 218.992 65.0753C219.321 64.8188 219.561 64.7048 219.715 64.7332C219.998 64.7857 220.228 64.926 220.406 65.1542C220.583 65.3823 220.653 65.5967 220.616 65.7973C220.566 66.0687 220.46 66.4762 220.298 67.0198C220.138 67.5516 219.954 68.152 219.744 68.8211C219.535 69.4901 219.326 70.1592 219.116 70.8282C218.907 71.4972 218.721 72.1036 218.559 72.6472C218.397 73.1908 218.291 73.5983 218.241 73.8697C218.208 74.0467 218.102 74.1917 217.923 74.3049C217.743 74.4181 217.559 74.4571 217.37 74.4222C217.24 74.3981 217.136 74.336 217.057 74.2359C216.987 74.1498 216.953 73.9726 216.954 73.7043C216.955 73.436 217.005 73.0304 217.106 72.4877C217.204 71.9567 217.329 71.3818 217.481 70.7631C217.634 70.1325 217.798 69.51 217.973 68.8955C218.162 68.2715 218.345 67.7135 218.521 67.2214C218.167 67.6195 217.755 68.0984 217.285 68.6581C216.827 69.2201 216.348 69.7964 215.848 70.3872C215.348 70.978 214.867 71.5296 214.406 72.0422C213.945 72.5547 213.54 72.9617 213.191 73.2632C212.842 73.5647 212.591 73.7013 212.438 73.6728ZM207.284 67.2073C207.508 66.7852 207.709 66.3281 207.886 65.836C208.076 65.3344 208.22 64.824 208.316 64.3048C208.373 63.998 208.36 63.7393 208.277 63.5287C208.194 63.318 208.052 63.1941 207.851 63.1569C207.545 63.1001 207.227 63.1328 206.9 63.2551C206.574 63.3656 206.282 63.5557 206.025 63.8253C205.779 64.0971 205.617 64.4453 205.538 64.8701C205.44 65.4011 205.556 65.8925 205.888 66.3444C206.233 66.7867 206.698 67.0744 207.284 67.2073ZM206.58 68.3399C205.784 68.1558 205.179 67.7996 204.764 67.2712C204.712 67.4202 204.661 67.5633 204.611 67.7005C204.564 67.8259 204.528 67.9535 204.504 68.0833C204.436 68.4491 204.441 68.7491 204.52 68.9834C204.612 69.208 204.789 69.3444 205.048 69.3925C205.261 69.4318 205.501 69.3543 205.769 69.1599C206.037 68.9654 206.307 68.6921 206.58 68.3399ZM224.754 75.6992C224.495 75.6511 224.308 75.5373 224.195 75.3576C224.092 75.192 224.057 75.0148 224.092 74.826C224.123 74.6608 224.222 74.5205 224.39 74.4052C224.572 74.2802 224.803 74.1828 225.085 74.1129C225.603 73.9526 226.091 73.7869 226.55 73.6156C227.021 73.4466 227.412 73.2445 227.724 73.0094C228.036 72.7744 228.222 72.4975 228.281 72.179C228.331 71.9076 228.281 71.6847 228.13 71.5103C227.982 71.3241 227.754 71.2026 227.447 71.1457C227.27 71.1129 227.016 71.1024 226.684 71.1142C226.355 71.1141 225.993 71.1204 225.601 71.133C225.222 71.136 224.849 71.1401 224.482 71.1453C224.117 71.1387 223.81 71.1124 223.563 71.0665C223.114 70.9834 222.798 70.8149 222.613 70.561C222.43 70.2952 222.374 69.9736 222.444 69.596C222.479 69.4072 222.643 69.1448 222.938 68.8088C223.232 68.4728 223.604 68.1086 224.055 67.7162C224.52 67.3142 225.021 66.9188 225.557 66.5299C226.093 66.1411 226.628 65.7887 227.162 65.4728C227.709 65.1591 228.205 64.9156 228.652 64.7421C229.111 64.5709 229.476 64.5104 229.748 64.5607C230.019 64.611 230.209 64.7378 230.318 64.941C230.427 65.1442 230.456 65.3815 230.406 65.6529C230.366 65.8653 230.297 66.0416 230.198 66.1819C230.101 66.3104 229.933 66.3951 229.693 66.4362C229.465 66.4794 229.126 66.4653 228.676 66.394C228.148 66.6745 227.58 67.0026 226.974 67.3784C226.381 67.7445 225.827 68.136 225.31 68.5528C224.807 68.9601 224.42 69.3704 224.148 69.7837C224.562 69.7261 225.054 69.7015 225.626 69.7099C226.212 69.7087 226.795 69.7616 227.373 69.8688C228.281 70.0372 228.915 70.3683 229.275 70.8622C229.65 71.3464 229.775 71.9189 229.653 72.5797C229.574 73.0045 229.356 73.4218 229 73.8316C228.657 74.2319 228.237 74.5873 227.74 74.898C227.243 75.2086 226.731 75.4371 226.204 75.5834C225.674 75.7416 225.191 75.7802 224.754 75.6992ZM239.252 72.1254C238.938 72.0428 238.829 71.809 238.924 71.424C238.954 71.3318 239.039 71.2317 239.181 71.1238C239.326 71.0041 239.476 70.9525 239.631 70.9691C240.004 71.0015 240.462 71.0315 241.006 71.0591C241.564 71.0771 242.177 71.0932 242.846 71.1073C243.071 70.551 243.325 69.9696 243.608 69.363C243.892 68.7565 244.189 68.171 244.502 67.6064C244.816 67.03 245.131 66.5148 245.447 66.0608C245.763 65.6068 246.071 65.2612 246.371 65.0239C246.525 64.9182 246.66 64.8515 246.775 64.824C246.892 64.7847 246.992 64.7727 247.074 64.788C247.239 64.8186 247.356 64.9135 247.424 65.0726C247.504 65.2338 247.528 65.403 247.495 65.58C247.477 65.6743 247.442 65.7655 247.389 65.8533C247.031 66.4703 246.626 67.2374 246.176 68.1546C245.725 69.0719 245.24 70.0743 244.721 71.162C245.84 71.1862 246.96 71.1986 248.083 71.1992C249.205 71.1998 250.172 71.1897 250.981 71.1688C251.223 71.116 251.39 71.1654 251.484 71.317C251.59 71.4709 251.631 71.6127 251.607 71.7425C251.576 71.9077 251.506 72.0228 251.396 72.0879C251.298 72.1552 251.197 72.2096 251.091 72.2511L251.071 72.2655C250.817 72.3162 250.442 72.3626 249.946 72.405C249.452 72.4355 248.886 72.4647 248.246 72.4925C247.608 72.5086 246.929 72.517 246.209 72.5178C245.501 72.5208 244.8 72.513 244.108 72.4945C243.644 73.4826 243.169 74.499 242.683 75.5438C242.21 76.579 241.741 77.5966 241.275 78.5964C241.078 78.9993 240.893 79.2396 240.72 79.3174C240.557 79.4091 240.392 79.4397 240.227 79.4091C240.038 79.3741 239.886 79.2727 239.771 79.1048C239.667 78.9392 239.703 78.6468 239.879 78.2278L242.289 72.432C241.561 72.407 240.922 72.3678 240.37 72.3144C239.831 72.2632 239.458 72.2002 239.252 72.1254ZM250.48 80.2475C249.784 80.1185 249.284 79.7513 248.981 79.146C248.679 78.5407 248.606 77.8133 248.763 76.9637C248.82 76.657 248.922 76.3401 249.068 76.0133C249.228 75.6768 249.405 75.3801 249.599 75.1231C249.532 75.0252 249.487 74.9011 249.466 74.7508C249.448 74.5887 249.459 74.3955 249.501 74.1713C249.63 73.4752 249.866 72.8599 250.209 72.3255C250.552 71.7911 250.958 71.3475 251.426 70.9949C251.896 70.6305 252.389 70.3741 252.905 70.2256C253.432 70.0793 253.944 70.052 254.439 70.1439C255.253 70.2948 255.859 70.7122 256.257 71.3962C256.658 72.0684 256.747 73.0003 256.526 74.192C256.411 74.8174 256.198 75.437 255.889 76.051C255.592 76.6671 255.228 77.2466 254.798 77.7893C254.38 78.3342 253.92 78.8043 253.42 79.1997C252.931 79.5974 252.431 79.8951 251.918 80.093C251.419 80.2813 250.94 80.3328 250.48 80.2475ZM250.878 74.7379C250.932 74.8454 250.944 74.9759 250.916 75.1292C250.883 75.3062 250.815 75.4767 250.711 75.6405C250.619 75.8066 250.51 76.0364 250.382 76.3301C250.254 76.6237 250.138 77.0537 250.033 77.6201C249.928 78.1864 250.1 78.5112 250.548 78.5943C251.044 78.6861 251.54 78.5767 252.037 78.2661C252.536 77.9436 253.009 77.5004 253.455 76.9362C253.901 76.3721 254.278 75.7525 254.587 75.0773C254.909 74.3926 255.129 73.7316 255.247 73.0945C255.324 72.6815 255.3 72.3782 255.178 72.1846C255.057 71.9792 254.796 71.8393 254.395 71.765C253.982 71.6884 253.525 71.7502 253.024 71.9503C252.538 72.1407 252.103 72.4446 251.72 72.8619C251.338 73.2792 251.092 73.7828 250.983 74.3728C250.959 74.5026 250.924 74.6243 250.878 74.7379ZM65.2248 74.8186C65.0242 74.7814 64.8781 74.6811 64.7863 74.5176C64.6946 74.3542 64.6793 74.1072 64.7405 73.7769C64.8499 73.1869 64.992 72.5847 65.1669 71.9703C65.3558 71.3463 65.5005 70.7629 65.6011 70.2201C65.8307 68.9812 65.9078 67.9398 65.8323 67.096C65.7708 66.2425 65.4065 65.6074 64.7392 65.1908C64.5849 65.1012 64.479 65.0145 64.4213 64.9306C64.3518 64.8445 64.3313 64.7247 64.3597 64.5713C64.3904 64.4061 64.4804 64.2825 64.6299 64.2003C64.7675 64.116 65.0016 64.1045 65.3319 64.1657C65.6033 64.216 65.961 64.2945 66.405 64.4012C66.849 64.5079 67.3284 64.6211 67.8432 64.741C68.4517 63.4991 69.0658 62.4901 69.6856 61.714C70.3054 60.938 70.9326 60.3525 71.5672 59.9575C72.2136 59.5647 72.8633 59.319 73.5162 59.2204C74.1809 59.1239 74.8495 59.138 75.5221 59.2626C75.8171 59.3173 75.9982 59.3936 76.0655 59.4915C76.135 59.5776 76.1555 59.6973 76.1271 59.8507C76.0921 60.0395 75.9959 60.2291 75.8385 60.4196C75.6834 60.5984 75.4174 60.6833 75.0407 60.6745C74.2122 60.6674 73.4502 60.7947 72.7549 61.0564C72.0595 61.318 71.4151 61.7661 70.8215 62.4005C70.2302 63.0232 69.6739 63.8843 69.1529 64.9837C70.2899 65.17 71.2743 65.2915 72.1059 65.348C72.9397 65.3927 73.639 65.4063 74.2036 65.3889C74.7822 65.3619 75.2443 65.3377 75.59 65.3164C75.9379 65.2832 76.2003 65.283 76.3773 65.3158C76.5779 65.353 76.6919 65.429 76.7195 65.544C76.747 65.6589 76.7498 65.7754 76.7279 65.8934C76.6864 66.1176 76.4335 66.2965 75.9694 66.4301C75.5075 66.552 74.9131 66.631 74.1863 66.6672C73.4736 66.6937 72.6955 66.6777 71.852 66.619C71.0086 66.5603 70.1857 66.4566 69.3834 66.3079C69.2536 66.2838 69.1238 66.2598 68.994 66.2357C68.876 66.2139 68.7521 66.1909 68.6224 66.1668C68.5835 66.2451 68.5494 66.3303 68.5201 66.4225C68.2752 67.085 68.0228 67.7887 67.7626 68.5338C67.5165 69.2693 67.2784 69.994 67.0484 70.7081C66.8324 71.4125 66.6462 72.0553 66.4896 72.6365C66.3331 73.2177 66.222 73.6853 66.1564 74.0393C66.1018 74.3343 65.9894 74.5453 65.8194 74.6725C65.6472 74.8114 65.449 74.8601 65.2248 74.8186ZM67.3258 65.8533C66.9902 65.7545 66.6803 65.6483 66.3963 65.5346C66.5169 65.74 66.6084 65.9705 66.6709 66.2262C66.7451 66.4841 66.7984 66.7563 66.8307 67.043C66.9942 66.6217 67.1592 66.2252 67.3258 65.8533ZM73.3618 73.7719C73.1377 73.7303 72.9524 73.6106 72.806 73.4126C72.6618 73.2028 72.6236 72.915 72.6914 72.5492C72.7395 72.2897 72.8416 71.9364 72.9977 71.4893C73.156 71.0305 73.3455 70.5347 73.5663 70.002C73.787 69.4693 74.0126 68.9436 74.243 68.4249C74.4874 67.8966 74.7208 67.4273 74.9433 67.017C75.1658 66.6067 75.3498 66.3051 75.4954 66.1124C75.6204 65.9647 75.7286 65.875 75.8199 65.8431C75.9231 65.8134 76.0159 65.8062 76.0985 65.8215C76.2637 65.8521 76.3955 65.9314 76.4938 66.0595C76.6039 66.1897 76.6305 66.4082 76.5736 66.715C76.5408 66.892 76.4508 67.1804 76.3034 67.5803C76.1701 67.9705 76 68.4272 75.7932 68.9502C75.6004 69.4637 75.3926 69.9927 75.1696 70.5372C74.9606 71.072 74.756 71.5833 74.5558 72.071C74.3556 72.5587 74.1943 72.9681 74.0718 73.2994C73.9897 73.4794 73.8797 73.6116 73.7421 73.6959C73.6184 73.7706 73.4916 73.7959 73.3618 73.7719ZM76.9103 64.306C76.6389 64.2557 76.3946 64.125 76.1775 63.9139C75.9721 63.705 75.9033 63.4177 75.9711 63.0519C76.028 62.7451 76.1447 62.5104 76.3213 62.3479C76.5096 62.1875 76.7118 62.0847 76.9277 62.0392C77.1575 61.9842 77.3492 61.9709 77.5026 61.9993C77.6559 62.0278 77.8205 62.0949 77.9961 62.2007C78.1858 62.2968 78.335 62.4465 78.4438 62.6498C78.5548 62.8412 78.5796 63.1021 78.5184 63.4325C78.4769 63.6566 78.363 63.843 78.1768 63.9916C77.9928 64.1283 77.7799 64.2231 77.5383 64.276C77.3084 64.331 77.0991 64.341 76.9103 64.306ZM80.7006 76.7898C79.7921 76.6214 79.1329 76.1941 78.7231 75.508C78.3273 74.8122 78.2289 73.9274 78.4279 72.8537C78.5503 72.193 78.7821 71.4365 79.1231 70.5844C79.478 69.7227 79.889 68.8225 80.3558 67.8838C80.8367 66.9356 81.339 66.0035 81.8626 65.0876C82.3863 64.1717 82.8851 63.3244 83.3589 62.5457C83.8467 61.7574 84.267 61.1031 84.6198 60.5826C84.8204 60.2903 85.0505 60.1682 85.3101 60.2163C85.6641 60.2819 85.8006 60.533 85.7197 60.9696C85.6934 61.1111 85.575 61.3882 85.3643 61.8007C85.1536 62.2132 84.8819 62.7243 84.5492 63.3338C84.2188 63.9316 83.8575 64.5969 83.4654 65.3297C83.0732 66.0626 82.6709 66.8179 82.2582 67.5957C81.8595 68.3639 81.4797 69.1295 81.1186 69.8925C80.7597 70.6437 80.4508 71.3553 80.192 72.0274C79.9332 72.6995 79.7579 73.2833 79.666 73.7788C79.607 74.0974 79.6425 74.3664 79.7727 74.5858C79.9169 74.7956 80.1365 74.9278 80.4315 74.9825C80.9742 75.0831 81.5367 75.0775 82.1188 74.9657C82.7149 74.8443 83.2962 74.6713 83.8626 74.4468C84.4312 74.2105 84.9515 73.9713 85.4235 73.7292C85.9095 73.4776 86.3196 73.2729 86.654 73.1152C86.9905 72.9457 87.2178 72.8719 87.3357 72.8937C87.5953 72.9418 87.6989 73.1075 87.6464 73.3907C87.6289 73.485 87.5017 73.6445 87.2648 73.8691C87.0301 74.0819 86.7217 74.3299 86.3398 74.613C85.9578 74.8961 85.5205 75.1812 85.0279 75.4683C84.5494 75.7457 84.0505 76.0011 83.5313 76.2344C83.026 76.458 82.5258 76.6216 82.0307 76.7251C81.5452 76.8426 81.1018 76.8642 80.7006 76.7898ZM88.8931 78.3082C87.9846 78.1398 87.3254 77.7125 86.9156 77.0264C86.5198 76.3306 86.4214 75.4458 86.6204 74.3721C86.7428 73.7114 86.9746 72.9549 87.3156 72.1028C87.6706 71.2411 88.0815 70.3409 88.5484 69.4022C89.0292 68.454 89.5315 67.5219 90.0552 66.606C90.5788 65.6901 91.0776 64.8428 91.5514 64.0641C92.0393 63.2758 92.4595 62.6215 92.8123 62.101C93.0129 61.8087 93.243 61.6866 93.5026 61.7347C93.8566 61.8003 93.9931 62.0514 93.9122 62.4879C93.886 62.6295 93.7675 62.9066 93.5568 63.3191C93.3461 63.7316 93.0744 64.2426 92.7417 64.8522C92.4113 65.45 92.05 66.1153 91.6579 66.8481C91.2658 67.581 90.8634 68.3363 90.4507 69.1141C90.052 69.8823 89.6722 70.6479 89.3111 71.4109C88.9522 72.162 88.6433 72.8737 88.3845 73.5458C88.1257 74.2179 87.9504 74.8017 87.8585 75.2972C87.7995 75.6158 87.8351 75.8848 87.9653 76.1042C88.1094 76.314 88.329 76.4462 88.624 76.5009C89.1667 76.6015 89.7292 76.5959 90.3113 76.4841C90.9074 76.3627 91.4887 76.1897 92.0551 75.9652C92.6237 75.7288 93.144 75.4897 93.616 75.2476C94.102 74.996 94.5121 74.7913 94.8465 74.6336C95.183 74.4641 95.4103 74.3902 95.5283 74.4121C95.7878 74.4602 95.8914 74.6259 95.8389 74.909C95.8214 75.0034 95.6942 75.1629 95.4573 75.3875C95.2226 75.6003 94.9143 75.8483 94.5323 76.1314C94.1503 76.4145 93.713 76.6996 93.2204 76.9867C92.7419 77.2641 92.243 77.5195 91.7238 77.7527C91.2185 77.9764 90.7184 78.14 90.2232 78.2435C89.7377 78.361 89.2943 78.3826 88.8931 78.3082ZM101.834 74.1164C101.52 74.0337 101.411 73.7999 101.507 73.4149C101.536 73.3227 101.622 73.2226 101.764 73.1147C101.908 72.995 102.058 72.9434 102.213 72.9601C102.586 72.9925 103.044 73.0225 103.588 73.0501C104.146 73.0681 104.759 73.0841 105.428 73.0982C105.653 72.5419 105.907 71.9605 106.191 71.354C106.474 70.7474 106.772 70.1619 107.084 69.5973C107.398 69.0209 107.713 68.5057 108.029 68.0517C108.345 67.5977 108.653 67.2521 108.954 67.0148C109.108 66.9091 109.242 66.8425 109.357 66.815C109.474 66.7757 109.574 66.7636 109.656 66.779C109.822 66.8096 109.938 66.9044 110.006 67.0635C110.086 67.2248 110.11 67.3939 110.077 67.5709C110.06 67.6653 110.024 67.7564 109.972 67.8442C109.613 68.4612 109.209 69.2284 108.758 70.1456C108.307 71.0628 107.822 72.0652 107.303 73.1529C108.422 73.1771 109.542 73.1895 110.665 73.1901C111.788 73.1907 112.754 73.1806 113.563 73.1597C113.805 73.1069 113.973 73.1563 114.066 73.308C114.172 73.4618 114.213 73.6036 114.189 73.7334C114.158 73.8986 114.088 74.0137 113.979 74.0788C113.881 74.1461 113.779 74.2005 113.674 74.242L113.653 74.2564C113.399 74.3071 113.024 74.3536 112.528 74.3959C112.035 74.4264 111.468 74.4556 110.828 74.4835C110.19 74.4995 109.512 74.508 108.791 74.5087C108.083 74.5117 107.383 74.5039 106.69 74.4855C106.227 75.4735 105.751 76.4899 105.265 77.5348C104.792 78.57 104.323 79.5875 103.857 80.5873C103.66 80.9902 103.475 81.2305 103.302 81.3083C103.139 81.4 102.975 81.4306 102.809 81.4C102.621 81.365 102.468 81.2636 102.353 81.0958C102.25 80.9301 102.285 80.6378 102.461 80.2187L104.871 74.4229C104.144 74.3979 103.504 74.3587 102.953 74.3053C102.413 74.2541 102.04 74.1911 101.834 74.1164ZM111.089 82.5134C110.829 82.4653 110.643 82.3515 110.53 82.1718C110.414 82.004 110.41 81.631 110.517 81.0529C110.616 80.5219 110.838 79.8492 111.184 79.0346C111.533 78.2083 111.964 77.2996 112.477 76.3085C112.99 75.3174 113.551 74.2986 114.16 73.252C114.771 72.1937 115.395 71.1622 116.033 70.1576C116.685 69.1434 117.302 68.2203 117.883 67.3883C118.097 67.0864 118.299 66.8858 118.489 66.7866C118.678 66.6875 118.885 66.6586 119.109 66.7002C119.262 66.7286 119.383 66.7999 119.472 66.9139C119.575 67.0184 119.607 67.1709 119.57 67.3715C119.557 67.4423 119.438 67.6582 119.212 68.0191C118.998 68.3822 118.703 68.8583 118.325 69.4474C117.959 70.0386 117.55 70.701 117.096 71.4347C116.643 72.1684 116.176 72.9423 115.696 73.7564C115.215 74.5705 114.752 75.3937 114.304 76.2262C113.859 77.0468 113.462 77.8397 113.113 78.6049C112.764 79.37 112.495 80.0646 112.306 80.6887C112.652 80.399 113.058 80.0225 113.522 79.5594C113.986 79.0962 114.481 78.5961 115.008 78.0591C115.535 77.5221 116.066 76.9921 116.603 76.4691C117.139 75.946 117.659 75.475 118.164 75.056C118.669 74.637 119.126 74.3128 119.534 74.0834C119.957 73.8444 120.304 73.7501 120.575 73.8004C121.024 73.8835 121.357 74.0917 121.576 74.4252C121.809 74.7491 121.868 75.2237 121.752 75.849C121.686 76.203 121.537 76.6147 121.303 77.084C121.082 77.5555 120.832 78.0462 120.554 78.5562C120.277 79.0661 120.021 79.5558 119.788 80.0251C119.566 80.4966 119.423 80.9093 119.357 81.2633C119.267 81.7471 119.405 82.0228 119.771 82.0906C120.338 82.1956 120.927 82.1767 121.539 82.0339C122.163 81.8932 122.769 81.6881 123.356 81.4186C123.945 81.1372 124.493 80.8482 124.999 80.5516C125.508 80.2431 125.941 79.9816 126.298 79.7671C126.683 79.5334 126.988 79.4373 127.212 79.4788C127.495 79.5313 127.609 79.705 127.555 80C127.539 80.0826 127.504 80.1737 127.449 80.2733C127.394 80.373 127.274 80.4912 127.09 80.6279C126.862 80.8053 126.539 81.0323 126.122 81.3089C125.716 81.5876 125.247 81.879 124.715 82.1831C124.195 82.4894 123.637 82.7644 123.043 83.0082C122.46 83.2541 121.871 83.4378 121.275 83.5592C120.693 83.671 120.142 83.6788 119.623 83.5826C118.915 83.4514 118.403 83.1491 118.088 82.6757C117.787 82.1928 117.704 81.5915 117.837 80.8717C117.92 80.4234 118.091 79.8937 118.351 79.2828C118.611 78.6719 118.912 78.0322 119.256 77.3636C119.614 76.6854 119.968 76.0249 120.319 75.3821C119.893 75.5717 119.408 75.8845 118.863 76.3206C118.333 76.747 117.766 77.2399 117.162 77.7992C116.56 78.3467 115.956 78.906 115.349 79.4771C114.755 80.0503 114.181 80.5786 113.628 81.0618C113.088 81.5355 112.598 81.9084 112.157 82.1806C111.716 82.4528 111.36 82.5637 111.089 82.5134ZM133.92 78.0311C133.85 78.4086 133.663 78.7584 133.359 79.0805C133.058 79.3907 132.682 79.6749 132.231 79.9331C131.783 80.1795 131.296 80.4006 130.772 80.5963C130.247 80.792 129.729 80.9523 129.218 81.0772C128.707 81.2021 128.244 81.2934 127.831 81.351C127.651 81.7937 127.529 82.192 127.463 82.546C127.422 82.7702 127.445 82.9393 127.534 83.0534C127.622 83.1674 127.779 83.2452 128.003 83.2868C128.499 83.3786 129.04 83.3875 129.627 83.3133C130.215 83.2391 130.824 83.1139 131.454 82.9379C132.085 82.7619 132.695 82.5638 133.285 82.3436C133.875 82.1235 134.415 81.9122 134.904 81.71C135.405 81.5099 135.819 81.3487 136.147 81.2264C136.475 81.1041 136.686 81.0517 136.78 81.0692C136.922 81.0954 137.019 81.1623 137.073 81.2698C137.14 81.3677 137.163 81.4756 137.141 81.5936C137.123 81.688 136.942 81.8436 136.597 82.0603C136.263 82.2792 135.821 82.5267 135.269 82.8028C134.72 83.0671 134.109 83.3323 133.437 83.5983C132.766 83.8644 132.075 84.1024 131.364 84.3125C130.666 84.5248 129.997 84.6755 129.359 84.7645C128.731 84.8558 128.182 84.8577 127.71 84.7702C127.096 84.6565 126.661 84.3378 126.404 83.8143C126.147 83.2907 126.109 82.5451 126.288 81.5776C126.408 80.9286 126.612 80.2891 126.9 79.659C127.199 79.031 127.552 78.4435 127.959 77.8964C128.379 77.3397 128.816 76.8593 129.269 76.4551C129.737 76.0414 130.202 75.737 130.665 75.5422C131.13 75.3356 131.558 75.2683 131.947 75.3405C132.691 75.4783 133.236 75.793 133.585 76.2847C133.933 76.7764 134.045 77.3585 133.92 78.0311ZM128.455 80.0571C128.863 79.9007 129.284 79.7347 129.719 79.5591C130.154 79.3835 130.561 79.1965 130.94 78.9982C131.318 78.7998 131.634 78.5776 131.887 78.3316C132.154 78.076 132.316 77.7948 132.373 77.488C132.454 77.0515 132.258 76.7895 131.786 76.702C131.491 76.6473 131.144 76.7782 130.743 77.0945C130.357 77.4012 129.962 77.8222 129.557 78.3575C129.153 78.8928 128.786 79.4593 128.455 80.0571ZM143.728 89.3682C143.527 89.331 143.381 89.2307 143.289 89.0673C143.197 88.9038 143.182 88.6569 143.243 88.3265C143.353 87.7366 143.495 87.1344 143.67 86.52C143.859 85.8959 144.003 85.3125 144.104 84.7698C144.334 83.5309 144.411 82.4895 144.335 81.6456C144.274 80.7921 143.909 80.1571 143.242 79.7405C143.088 79.6509 142.982 79.5641 142.924 79.4802C142.855 79.3941 142.834 79.2744 142.863 79.121C142.893 78.9558 142.983 78.8321 143.133 78.75C143.27 78.6657 143.504 78.6541 143.835 78.7154C144.106 78.7657 144.464 78.8441 144.908 78.9508C145.352 79.0575 145.831 79.1708 146.346 79.2906C146.955 78.0487 147.569 77.0397 148.189 76.2637C148.808 75.4877 149.436 74.9021 150.07 74.5072C150.717 74.1144 151.366 73.8687 152.019 73.77C152.684 73.6735 153.352 73.6876 154.025 73.8123C154.32 73.8669 154.501 73.9432 154.568 74.0411C154.638 74.1272 154.658 74.247 154.63 74.4004C154.595 74.5891 154.499 74.7788 154.341 74.9693C154.186 75.148 153.92 75.233 153.544 75.2242C152.715 75.2171 151.953 75.3443 151.258 75.606C150.562 75.8677 149.918 76.3157 149.324 76.9502C148.733 77.5729 148.177 78.4339 147.656 79.5334C148.793 79.7197 149.777 79.8411 150.609 79.8976C151.443 79.9423 152.142 79.956 152.707 79.9386C153.285 79.9116 153.747 79.8874 154.093 79.866C154.441 79.8328 154.703 79.8327 154.88 79.8655C155.081 79.9026 155.195 79.9787 155.222 80.0936C155.25 80.2086 155.253 80.325 155.231 80.443C155.189 80.6672 154.936 80.8461 154.472 80.9798C154.01 81.1017 153.416 81.1807 152.689 81.2168C151.976 81.2434 151.198 81.2273 150.355 81.1686C149.512 81.1099 148.689 81.0062 147.886 80.8575C147.757 80.8335 147.627 80.8094 147.497 80.7854C147.379 80.7635 147.255 80.7406 147.125 80.7165C147.086 80.7947 147.052 80.8799 147.023 80.9721C146.778 81.6346 146.526 82.3384 146.266 83.0835C146.019 83.8189 145.781 84.5437 145.551 85.2577C145.335 85.9621 145.149 86.605 144.993 87.1862C144.836 87.7674 144.725 88.235 144.659 88.5889C144.605 88.8839 144.492 89.095 144.322 89.2221C144.15 89.3611 143.952 89.4098 143.728 89.3682ZM145.829 80.403C145.493 80.3041 145.183 80.1979 144.899 80.0842C145.02 80.2897 145.111 80.5202 145.174 80.7759C145.248 81.0337 145.301 81.306 145.334 81.5927C145.497 81.1714 145.662 80.7748 145.829 80.403ZM153.039 89.6478C152.343 89.5188 151.844 89.1516 151.541 88.5463C151.238 87.941 151.166 87.2136 151.323 86.364C151.38 86.0573 151.481 85.7404 151.627 85.4136C151.787 85.0771 151.964 84.7804 152.158 84.5235C152.091 84.4256 152.047 84.3014 152.026 84.1511C152.007 83.989 152.019 83.7958 152.06 83.5716C152.189 82.8755 152.425 82.2602 152.768 81.7258C153.112 81.1914 153.517 80.7479 153.985 80.3953C154.456 80.0308 154.949 79.7744 155.464 79.6259C155.992 79.4796 156.503 79.4523 156.999 79.5442C157.813 79.6951 158.419 80.1125 158.817 80.7965C159.217 81.4687 159.307 82.4006 159.086 83.5923C158.97 84.2177 158.758 84.8373 158.449 85.4513C158.151 86.0674 157.788 86.6469 157.358 87.1896C156.939 87.7345 156.48 88.2046 155.979 88.6001C155.491 88.9977 154.99 89.2954 154.478 89.4933C153.979 89.6816 153.499 89.7331 153.039 89.6478ZM153.438 84.1382C153.491 84.2457 153.504 84.3762 153.475 84.5295C153.443 84.7065 153.374 84.877 153.271 85.0408C153.179 85.2069 153.069 85.4367 152.942 85.7304C152.814 86.024 152.698 86.454 152.593 87.0204C152.488 87.5868 152.659 87.9115 153.108 87.9946C153.603 88.0864 154.1 87.977 154.596 87.6664C155.096 87.3439 155.568 86.9007 156.015 86.3365C156.461 85.7724 156.838 85.1528 157.146 84.4777C157.468 83.7929 157.689 83.1319 157.807 82.4948C157.883 82.0818 157.86 81.7785 157.737 81.5849C157.617 81.3795 157.356 81.2396 156.955 81.1653C156.542 81.0887 156.085 81.1505 155.584 81.3506C155.097 81.541 154.662 81.8449 154.28 82.2622C153.898 82.6795 153.652 83.1831 153.542 83.7731C153.518 83.9029 153.483 84.0246 153.438 84.1382ZM160.32 91.162C160.131 91.127 159.986 91.0208 159.885 90.8433C159.784 90.6659 159.758 90.4415 159.808 90.1701C159.845 89.9695 159.948 89.6468 160.116 89.2019C160.298 88.7475 160.5 88.2174 160.722 87.6117C160.956 87.0082 161.176 86.3779 161.384 85.7206C161.593 85.0516 161.756 84.4044 161.872 83.7791C161.928 83.4723 162.047 83.2623 162.226 83.1492C162.42 83.0264 162.617 82.9836 162.818 83.0208C163.006 83.0558 163.126 83.2 163.177 83.4535C163.227 83.7069 163.158 84.1822 162.967 84.8792C163.733 83.7763 164.508 82.9192 165.293 82.3079C166.091 81.6871 166.845 81.2775 167.553 81.0792C168.263 80.8691 168.878 80.8121 169.397 80.9083C169.739 80.9718 169.974 81.0885 170.101 81.2585C170.242 81.4189 170.297 81.5817 170.266 81.7469C170.225 81.9711 170.098 82.1306 169.885 82.2254C169.686 82.3105 169.347 82.3942 168.868 82.4763C168.312 82.5806 167.79 82.7281 167.303 82.9185C166.83 83.0994 166.36 83.3661 165.892 83.7187C165.436 84.0735 164.963 84.5474 164.475 85.1403C163.989 85.7215 163.475 86.456 162.932 87.3439C162.389 88.2319 161.786 89.3101 161.124 90.5787C161.005 90.8251 160.877 90.9905 160.739 91.0749C160.613 91.1614 160.473 91.1904 160.32 91.162ZM181.378 94.1678C181.331 94.3544 181.226 94.4935 181.062 94.5853C180.899 94.677 180.723 94.7054 180.534 94.6704C180.322 94.6311 180.158 94.5275 180.042 94.3596C179.927 94.1918 179.897 93.9604 179.951 93.6654C180.094 92.8985 180.283 92.0732 180.52 91.1896C180.759 90.2942 181.014 89.4139 181.284 88.5486C181.557 87.6716 181.816 86.8653 182.062 86.1299C181.57 86.6122 181.031 87.1471 180.447 87.7343C179.874 88.3238 179.29 88.9051 178.695 89.4784C178.101 90.0517 177.528 90.5741 176.977 91.0455C176.428 91.5052 175.939 91.8722 175.51 92.1466C175.083 92.4091 174.751 92.5186 174.515 92.4748C174.079 92.3939 173.733 92.1529 173.478 91.7516C173.225 91.3386 173.148 90.8666 173.246 90.3357C173.285 90.1233 173.362 89.8386 173.477 89.4816C173.595 89.1127 173.721 88.7273 173.857 88.3253C173.992 87.9233 174.116 87.5496 174.229 87.2044C174.344 86.8474 174.418 86.5804 174.451 86.4034C174.481 86.2382 174.49 86.0933 174.476 85.9688C174.477 85.8346 174.43 85.7588 174.335 85.7413C174.194 85.7151 173.97 85.8383 173.663 86.1109C173.358 86.3718 173.008 86.7156 172.611 87.1425C172.227 87.5716 171.825 88.028 171.405 88.5117C170.998 88.9976 170.614 89.4573 170.253 89.8908C169.894 90.3125 169.595 90.6415 169.356 90.8779C169.154 91.109 168.978 91.2716 168.826 91.3655C168.675 91.4594 168.504 91.4889 168.316 91.4539C168.091 91.4124 167.907 91.2561 167.762 90.9851C167.628 90.7164 167.594 90.4109 167.657 90.0687C167.694 89.8681 167.788 89.562 167.937 89.1504C168.089 88.7269 168.266 88.2655 168.468 87.766C168.682 87.2687 168.889 86.7821 169.087 86.3062C169.299 85.8207 169.479 85.4087 169.627 85.07C169.796 84.6863 169.964 84.4368 170.132 84.3215C170.3 84.2061 170.466 84.1638 170.631 84.1944C170.855 84.2359 171.017 84.3513 171.116 84.5406C171.23 84.7202 171.255 84.9752 171.194 85.3056C171.183 85.3646 171.118 85.5173 170.999 85.7637C170.883 85.9984 170.737 86.2888 170.563 86.6349C170.403 86.9713 170.228 87.3233 170.038 87.6908C169.86 88.0605 169.705 88.404 169.573 88.7212C169.913 88.3328 170.272 87.9111 170.649 87.4562C171.038 87.0036 171.426 86.5568 171.813 86.1159C172.202 85.6632 172.582 85.2577 172.954 84.8994C173.327 84.5293 173.679 84.2466 174.008 84.0513C174.337 83.856 174.631 83.7824 174.891 83.8305C175.198 83.8874 175.463 84.0343 175.688 84.2712C175.924 84.5102 176.096 84.8044 176.202 85.1536C176.308 85.5028 176.325 85.872 176.253 86.2614C176.202 86.5328 176.084 86.9075 175.898 87.3856C175.714 87.8518 175.516 88.3583 175.305 88.905C175.106 89.4538 174.947 89.9798 174.83 90.4828C174.808 90.6007 174.832 90.6663 174.903 90.6794C174.962 90.6904 175.04 90.6622 175.138 90.5949C175.551 90.2807 176.012 89.8965 176.524 89.442C177.037 88.9758 177.562 88.4812 178.098 87.9582C178.647 87.4373 179.187 86.9272 179.718 86.4278C180.253 85.9165 180.746 85.4588 181.2 85.0547C181.667 84.6409 182.068 84.3187 182.404 84.088C182.751 83.8595 183.008 83.7605 183.173 83.7911C183.527 83.8567 183.78 84.0073 183.931 84.2429C184.083 84.4785 184.115 84.8322 184.027 85.3042C183.957 85.6818 183.837 86.166 183.667 86.7568C183.508 87.3498 183.322 87.9926 183.108 88.6852C182.906 89.3801 182.691 90.0786 182.463 90.7808C182.249 91.4735 182.044 92.1189 181.848 92.7172C181.654 93.3036 181.497 93.7871 181.378 94.1678ZM53.9231 131.451C53.7225 131.414 53.5763 131.314 53.4846 131.15C53.4046 130.989 53.4018 130.708 53.4762 130.307C53.5833 129.729 53.7493 129.064 53.974 128.312C54.1987 127.56 54.4617 126.767 54.763 125.932C55.076 125.099 55.4008 124.268 55.7374 123.44C56.0859 122.613 56.4325 121.829 56.7774 121.088C57.1342 120.349 57.4686 119.697 57.7807 119.132C58.095 118.556 58.3675 118.106 58.5983 117.782C58.8409 117.461 59.0271 117.313 59.1569 117.337C59.3811 117.378 59.546 117.476 59.6518 117.63C59.7693 117.786 59.804 117.994 59.7559 118.253C59.6947 118.584 59.4949 119.102 59.1565 119.808C58.8203 120.502 58.3836 121.41 57.8464 122.531C58.242 122.043 58.6655 121.535 59.117 121.009C59.5685 120.482 60.0345 119.977 60.5148 119.492C60.9973 118.996 61.4689 118.559 61.9296 118.18C62.4021 117.804 62.8464 117.514 63.2624 117.31C63.6785 117.107 64.0576 117.037 64.3998 117.1C64.7656 117.168 65.0682 117.346 65.3076 117.635C65.5492 117.911 65.7107 118.259 65.7919 118.676C65.8871 119.084 65.8909 119.525 65.8035 119.997C65.622 120.976 65.2807 121.895 64.7798 122.754C64.281 123.601 63.6689 124.336 62.9434 124.958C62.2318 125.571 61.4414 126.016 60.5721 126.295C59.7147 126.575 58.8317 126.631 57.9231 126.463C57.581 126.399 57.2775 126.325 57.0127 126.239C56.7478 126.153 56.5195 126.068 56.3277 125.984C56.0418 126.736 55.7574 127.514 55.4745 128.316C55.1916 129.117 54.8989 129.972 54.5964 130.88C54.5151 131.122 54.4243 131.282 54.3243 131.361C54.222 131.452 54.0883 131.482 53.9231 131.451ZM64.4691 118.504C64.2213 118.458 63.9001 118.545 63.5054 118.765C63.1225 118.987 62.6927 119.298 62.2159 119.698C61.753 120.088 61.2744 120.53 60.7801 121.024C60.2879 121.507 59.8054 122.003 59.3324 122.513C58.8595 123.024 58.4238 123.498 58.0251 123.937C57.6383 124.378 57.3199 124.746 57.0699 125.041C57.9946 125.188 58.8367 125.155 59.5963 124.942C60.358 124.717 61.037 124.379 61.6331 123.928C62.2315 123.466 62.7431 122.944 63.1679 122.364C63.6068 121.774 63.9528 121.191 64.2059 120.616C64.4612 120.028 64.6304 119.511 64.7135 119.062C64.7747 118.732 64.6932 118.546 64.4691 118.504ZM68.5499 128.908C67.8538 128.779 67.3543 128.412 67.0516 127.807C66.7488 127.201 66.6762 126.474 66.8336 125.624C66.8905 125.318 66.9919 125.001 67.1379 124.674C67.2979 124.338 67.4749 124.041 67.669 123.784C67.6017 123.686 67.5576 123.562 67.5367 123.412C67.5179 123.249 67.5293 123.056 67.5708 122.832C67.6999 122.136 67.9359 121.521 68.2791 120.986C68.6222 120.452 69.0278 120.008 69.4959 119.656C69.9662 119.291 70.4592 119.035 70.9749 118.886C71.5024 118.74 72.0139 118.713 72.5095 118.805C73.3236 118.956 73.9297 119.373 74.3277 120.057C74.7279 120.729 74.8176 121.661 74.5967 122.853C74.4808 123.478 74.2683 124.098 73.9593 124.712C73.662 125.328 73.2983 125.907 72.8682 126.45C72.4499 126.995 71.9905 127.465 71.4901 127.861C71.0015 128.258 70.5008 128.556 69.9882 128.754C69.4895 128.942 69.0101 128.994 68.5499 128.908ZM68.9487 123.399C69.002 123.506 69.0144 123.637 68.986 123.79C68.9532 123.967 68.885 124.137 68.7814 124.301C68.6896 124.467 68.5798 124.697 68.4522 124.991C68.3245 125.284 68.2082 125.715 68.1033 126.281C67.9983 126.847 68.17 127.172 68.6184 127.255C69.1139 127.347 69.6102 127.237 70.1071 126.927C70.6062 126.604 71.0789 126.161 71.5252 125.597C71.9715 125.033 72.3487 124.413 72.6569 123.738C72.9791 123.053 73.1992 122.392 73.3173 121.755C73.3938 121.342 73.3707 121.039 73.2479 120.845C73.1274 120.64 72.8665 120.5 72.4653 120.426C72.0523 120.349 71.5954 120.411 71.0946 120.611C70.6077 120.802 70.1731 121.105 69.7906 121.523C69.4082 121.94 69.1623 122.444 69.0529 123.034C69.0289 123.163 68.9941 123.285 68.9487 123.399ZM76.0252 130.202C75.801 130.161 75.6157 130.041 75.4694 129.843C75.3252 129.633 75.287 129.345 75.3548 128.98C75.4029 128.72 75.505 128.367 75.6611 127.92C75.8193 127.461 76.0088 126.965 76.2296 126.432C76.4504 125.9 76.676 125.374 76.9063 124.855C77.1507 124.327 77.3841 123.858 77.6066 123.447C77.8291 123.037 78.0132 122.735 78.1587 122.543C78.2837 122.395 78.3919 122.305 78.4833 122.273C78.5864 122.244 78.6793 122.236 78.7619 122.252C78.927 122.282 79.0588 122.362 79.1571 122.49C79.2672 122.62 79.2938 122.839 79.237 123.145C79.2042 123.322 79.1141 123.611 78.9668 124.011C78.8334 124.401 78.6634 124.857 78.4566 125.381C78.2638 125.894 78.0559 126.423 77.8329 126.967C77.624 127.502 77.4194 128.014 77.2191 128.501C77.0189 128.989 76.8576 129.398 76.7352 129.73C76.653 129.91 76.5431 130.042 76.4054 130.126C76.2817 130.201 76.155 130.226 76.0252 130.202ZM79.5736 120.736C79.3022 120.686 79.058 120.555 78.8408 120.344C78.6354 120.135 78.5666 119.848 78.6344 119.482C78.6913 119.175 78.808 118.941 78.9846 118.778C79.173 118.618 79.3751 118.515 79.591 118.47C79.8209 118.414 80.0125 118.401 80.1659 118.43C80.3193 118.458 80.4838 118.525 80.6595 118.631C80.8491 118.727 80.9983 118.877 81.1071 119.08C81.2181 119.271 81.243 119.532 81.1817 119.863C81.1402 120.087 81.0263 120.273 80.8401 120.422C80.6561 120.559 80.4433 120.653 80.2016 120.706C79.9717 120.761 79.7624 120.771 79.5736 120.736ZM81.8414 130.768C81.4992 130.704 81.2285 130.453 81.0293 130.013C80.8301 129.573 80.7874 129.047 80.9011 128.433C81.0257 127.761 81.2476 127.057 81.5668 126.323C81.8977 125.591 82.2721 124.855 82.69 124.115C83.1101 123.363 83.5188 122.639 83.9161 121.944C84.0036 121.801 84.1069 121.705 84.2262 121.654C84.3595 121.593 84.5442 121.584 84.7802 121.628C85.2049 121.707 85.379 121.953 85.3025 122.366C85.285 122.46 85.1985 122.664 85.0428 122.977C84.8872 123.289 84.6879 123.674 84.4448 124.129C84.2136 124.586 83.9688 125.084 83.7104 125.622C83.4542 126.148 83.2147 126.683 82.9917 127.228C82.7688 127.772 82.5889 128.282 82.452 128.757C82.678 128.592 82.9472 128.324 83.2597 127.955C83.584 127.588 83.9359 127.171 84.3153 126.704C84.6969 126.226 85.0903 125.75 85.4955 125.275C85.9028 124.79 86.3014 124.351 86.6913 123.959C87.0952 123.558 87.4697 123.249 87.815 123.033C88.1743 122.806 88.4837 122.717 88.7433 122.765C89.1208 122.835 89.4176 123.012 89.6334 123.296C89.8632 123.571 89.9954 124.01 90.0298 124.615C90.0782 125.21 90.0062 126.026 89.8138 127.064C89.711 127.619 89.6679 128.148 89.6844 128.651C89.7127 129.157 89.8234 129.58 90.0165 129.921C90.2236 130.252 90.5278 130.455 90.9289 130.53C91.5307 130.641 92.0872 130.634 92.5986 130.51C93.1121 130.373 93.5651 130.201 93.9575 129.993C94.364 129.775 94.7049 129.582 94.9802 129.413C95.2578 129.233 95.4614 129.155 95.5912 129.179C95.8626 129.229 95.972 129.396 95.9196 129.679C95.8977 129.797 95.7742 129.969 95.5491 130.196C95.338 130.413 95.0495 130.653 94.6837 130.914C94.3319 131.166 93.9339 131.404 93.4899 131.627C93.0598 131.84 92.609 132 92.1375 132.108C91.6777 132.218 91.2296 132.233 90.793 132.152C89.9789 132.001 89.3417 131.718 88.8816 131.304C88.4333 130.891 88.1531 130.296 88.0409 129.518C87.9405 128.743 88.004 127.742 88.2314 126.515C88.3561 125.842 88.4055 125.345 88.3798 125.023C88.368 124.691 88.2717 124.454 88.0908 124.31C87.9033 124.532 87.6548 124.852 87.3453 125.271C87.0381 125.677 86.6855 126.131 86.2878 126.631C85.9018 127.133 85.4971 127.637 85.0735 128.145C84.664 128.642 84.2562 129.098 83.8501 129.511C83.4441 129.923 83.0662 130.25 82.7166 130.49C82.3691 130.719 82.0774 130.811 81.8414 130.768ZM93.8775 127.561C93.5633 127.479 93.4541 127.245 93.5499 126.86C93.5792 126.768 93.6648 126.668 93.8069 126.56C93.9511 126.44 94.101 126.388 94.2566 126.405C94.6289 126.437 95.0871 126.467 95.6312 126.495C96.1893 126.513 96.8026 126.529 97.4713 126.543C97.6964 125.987 97.9506 125.405 98.2339 124.799C98.5172 124.192 98.8149 123.607 99.127 123.042C99.4413 122.466 99.7564 121.951 100.072 121.497C100.388 121.043 100.697 120.697 100.997 120.46C101.151 120.354 101.285 120.287 101.4 120.26C101.517 120.221 101.617 120.209 101.7 120.224C101.865 120.255 101.982 120.349 102.05 120.508C102.13 120.67 102.153 120.839 102.12 121.016C102.103 121.11 102.068 121.201 102.015 121.289C101.656 121.906 101.252 122.673 100.801 123.591C100.35 124.508 99.8656 125.51 99.3467 126.598C100.465 126.622 101.586 126.634 102.708 126.635C103.831 126.636 104.797 126.626 105.606 126.605C105.848 126.552 106.016 126.601 106.11 126.753C106.215 126.907 106.256 127.049 106.232 127.178C106.202 127.344 106.131 127.459 106.022 127.524C105.924 127.591 105.822 127.645 105.717 127.687L105.696 127.701C105.442 127.752 105.068 127.799 104.572 127.841C104.078 127.871 103.511 127.901 102.871 127.928C102.234 127.944 101.555 127.953 100.835 127.954C100.126 127.957 99.4258 127.949 98.7336 127.93C98.2698 128.918 97.7946 129.935 97.308 130.98C96.8355 132.015 96.3662 133.032 95.9002 134.032C95.7035 134.435 95.5186 134.675 95.3455 134.753C95.182 134.845 95.0177 134.876 94.8525 134.845C94.6637 134.81 94.5117 134.709 94.3963 134.541C94.2928 134.375 94.3287 134.083 94.504 133.664L96.9145 127.868C96.1869 127.843 95.5473 127.804 94.9958 127.75C94.4561 127.699 94.0834 127.636 93.8775 127.561ZM114.794 138.468C114.523 138.417 114.34 138.286 114.245 138.073C113.673 138.065 113.122 138.042 112.592 138.005C112.062 137.967 111.596 137.912 111.195 137.837C110.935 137.789 110.762 137.702 110.676 137.576C110.589 137.45 110.567 137.275 110.608 137.051C110.654 136.803 110.992 136.597 111.62 136.433C112.251 136.257 113.223 136.212 114.538 136.297C114.723 135.757 114.981 135.091 115.311 134.298C115.643 133.493 116.003 132.638 116.39 131.734C116.792 130.82 117.182 129.934 117.56 129.076C117.064 129.448 116.555 129.793 116.032 130.111C115.511 130.418 115.028 130.657 114.581 130.831C114.136 130.992 113.766 131.046 113.471 130.991C113.188 130.939 113.079 130.736 113.144 130.382C113.171 130.24 113.338 130.063 113.645 129.852C113.965 129.643 114.367 129.382 114.852 129.069C115.349 128.758 115.888 128.388 116.468 127.959C117.048 127.529 117.628 127.033 118.208 126.469C118.789 125.905 119.311 125.258 119.776 124.526C119.929 124.298 120.069 124.165 120.198 124.128C120.327 124.091 120.433 124.08 120.515 124.096C120.692 124.128 120.836 124.241 120.947 124.432C121.06 124.612 121.072 124.943 120.982 125.427C120.967 125.51 120.851 125.805 120.635 126.315C120.421 126.812 120.137 127.455 119.783 128.244C119.441 129.035 119.055 129.903 118.623 130.848C118.203 131.795 117.782 132.754 117.358 133.725C116.933 134.696 116.538 135.612 116.171 136.471C116.756 136.543 117.367 136.638 118.004 136.756C118.476 136.843 118.802 136.928 118.982 137.01C119.176 137.083 119.284 137.158 119.307 137.235C119.343 137.303 119.353 137.378 119.338 137.461C119.316 137.579 119.12 137.683 118.749 137.773C118.381 137.851 117.905 137.915 117.322 137.966C116.739 138.017 116.11 138.053 115.435 138.074C115.232 138.378 115.019 138.509 114.794 138.468ZM49.0027 157.999C48.8021 157.962 48.656 157.862 48.5642 157.698C48.4843 157.537 48.4815 157.256 48.5558 156.855C48.663 156.276 48.8289 155.612 49.0537 154.86C49.2784 154.108 49.5414 153.315 49.8426 152.48C50.1556 151.647 50.4804 150.816 50.8171 149.988C51.1655 149.161 51.5122 148.377 51.8571 147.636C52.2138 146.896 52.5482 146.244 52.8603 145.68C53.1746 145.104 53.4472 144.654 53.678 144.33C53.9205 144.009 54.1067 143.861 54.2365 143.885C54.4607 143.926 54.6257 144.024 54.7314 144.178C54.8489 144.334 54.8836 144.542 54.8355 144.801C54.7743 145.132 54.5745 145.65 54.2362 146.356C53.9 147.05 53.4633 147.958 52.926 149.079C53.3216 148.591 53.7451 148.083 54.1966 147.557C54.6482 147.03 55.1141 146.525 55.5944 146.04C56.077 145.544 56.5486 145.106 57.0093 144.728C57.4817 144.352 57.926 144.062 58.3421 143.858C58.7581 143.655 59.1372 143.585 59.4794 143.648C59.8452 143.716 60.1478 143.894 60.3872 144.182C60.6289 144.459 60.7903 144.806 60.8715 145.224C60.9667 145.632 60.9706 146.072 60.8831 146.544C60.7016 147.524 60.3604 148.443 59.8594 149.302C59.3607 150.149 58.7485 150.884 58.023 151.506C57.3114 152.119 56.521 152.564 55.6518 152.843C54.7943 153.123 53.9113 153.179 53.0028 153.011C52.6606 152.947 52.3571 152.873 52.0923 152.787C51.8275 152.701 51.5992 152.616 51.4073 152.532C51.1214 153.284 50.837 154.062 50.5541 154.863C50.2713 155.665 49.9786 156.52 49.676 157.428C49.5947 157.67 49.504 157.83 49.4039 157.909C49.3016 158 49.1679 158.03 49.0027 157.999ZM59.5487 145.052C59.3009 145.006 58.9797 145.093 58.585 145.313C58.2022 145.535 57.7723 145.846 57.2955 146.246C56.8326 146.636 56.354 147.078 55.8597 147.572C55.3676 148.055 54.885 148.551 54.4121 149.061C53.9392 149.572 53.5034 150.046 53.1048 150.485C52.7179 150.926 52.3995 151.294 52.1495 151.589C53.0742 151.736 53.9163 151.703 54.6759 151.49C55.4377 151.265 56.1166 150.927 56.7128 150.476C57.3111 150.014 57.8227 149.492 58.2476 148.912C58.6864 148.322 59.0324 147.739 59.2855 147.164C59.5408 146.576 59.71 146.058 59.7931 145.61C59.8544 145.28 59.7729 145.094 59.5487 145.052ZM63.6296 155.456C62.9334 155.327 62.434 154.96 62.1312 154.355C61.8285 153.749 61.7558 153.022 61.9132 152.172C61.9701 151.866 62.0715 151.549 62.2176 151.222C62.3776 150.885 62.5546 150.589 62.7487 150.332C62.6814 150.234 62.6373 150.11 62.6163 149.959C62.5975 149.797 62.6089 149.604 62.6505 149.38C62.7795 148.684 63.0156 148.069 63.3587 147.534C63.7018 147 64.1075 146.556 64.5756 146.204C65.0458 145.839 65.5388 145.583 66.0545 145.434C66.582 145.288 67.0936 145.261 67.5891 145.353C68.4032 145.503 69.0093 145.921 69.4073 146.605C69.8075 147.277 69.8972 148.209 69.6763 149.401C69.5604 150.026 69.348 150.646 69.0389 151.26C68.7416 151.876 68.378 152.455 67.9479 152.998C67.5296 153.543 67.0702 154.013 66.5697 154.408C66.0811 154.806 65.5805 155.104 65.0678 155.302C64.5691 155.49 64.0897 155.541 63.6296 155.456ZM64.0283 149.947C64.0816 150.054 64.094 150.185 64.0656 150.338C64.0328 150.515 63.9646 150.685 63.861 150.849C63.7692 151.015 63.6595 151.245 63.5318 151.539C63.4042 151.832 63.2879 152.262 63.1829 152.829C63.0779 153.395 63.2496 153.72 63.698 153.803C64.1936 153.895 64.6898 153.785 65.1867 153.475C65.6858 153.152 66.1585 152.709 66.6048 152.145C67.0511 151.581 67.4283 150.961 67.7365 150.286C68.0587 149.601 68.2788 148.94 68.3969 148.303C68.4735 147.89 68.4504 147.587 68.3276 147.393C68.207 147.188 67.9461 147.048 67.545 146.974C67.132 146.897 66.6751 146.959 66.1742 147.159C65.6874 147.349 65.2527 147.653 64.8703 148.071C64.4878 148.488 64.2419 148.991 64.1326 149.581C64.1085 149.711 64.0738 149.833 64.0283 149.947ZM71.1048 156.75C70.8806 156.709 70.6954 156.589 70.549 156.391C70.4048 156.181 70.3666 155.893 70.4344 155.527C70.4825 155.268 70.5846 154.915 70.7407 154.467C70.899 154.009 71.0885 153.513 71.3092 152.98C71.53 152.447 71.7556 151.922 71.986 151.403C72.2304 150.875 72.4638 150.405 72.6863 149.995C72.9088 149.585 73.0928 149.283 73.2384 149.091C73.3634 148.943 73.4716 148.853 73.5629 148.821C73.666 148.792 73.7589 148.784 73.8415 148.8C74.0067 148.83 74.1384 148.91 74.2367 149.038C74.3468 149.168 74.3735 149.386 74.3166 149.693C74.2838 149.87 74.1937 150.159 74.0464 150.558C73.9131 150.949 73.743 151.405 73.5362 151.928C73.3434 152.442 73.1355 152.971 72.9126 153.515C72.7036 154.05 72.499 154.561 72.2988 155.049C72.0986 155.537 71.9372 155.946 71.8148 156.278C71.7326 156.458 71.6227 156.59 71.485 156.674C71.3613 156.749 71.2346 156.774 71.1048 156.75ZM74.6533 147.284C74.3819 147.234 74.1376 147.103 73.9204 146.892C73.7151 146.683 73.6463 146.396 73.7141 146.03C73.7709 145.723 73.8877 145.489 74.0642 145.326C74.2526 145.166 74.4547 145.063 74.6706 145.017C74.9005 144.962 75.0921 144.949 75.2455 144.978C75.3989 145.006 75.5634 145.073 75.7391 145.179C75.9288 145.275 76.078 145.425 76.1868 145.628C76.2977 145.819 76.3226 146.08 76.2614 146.411C76.2198 146.635 76.106 146.821 75.9198 146.97C75.7358 147.106 75.5229 147.201 75.2812 147.254C75.0514 147.309 74.842 147.319 74.6533 147.284ZM76.9211 157.315C76.5789 157.252 76.3082 157 76.109 156.561C75.9098 156.121 75.867 155.595 75.9807 154.981C76.1054 154.308 76.3273 153.605 76.6464 152.871C76.9773 152.139 77.3517 151.403 77.7696 150.663C78.1897 149.911 78.5984 149.187 78.9958 148.492C79.0832 148.349 79.1866 148.253 79.3059 148.201C79.4392 148.141 79.6238 148.132 79.8598 148.176C80.2846 148.255 80.4587 148.501 80.3821 148.913C80.3647 149.008 80.2781 149.212 80.1225 149.524C79.9668 149.837 79.7675 150.221 79.5245 150.677C79.2932 151.134 79.0484 151.632 78.7901 152.17C78.5339 152.696 78.2943 153.231 78.0714 153.776C77.8484 154.32 77.6685 154.83 77.5316 155.305C77.7576 155.139 78.0268 154.872 78.3394 154.503C78.6637 154.136 79.0155 153.719 79.3949 153.252C79.7765 152.774 80.1699 152.297 80.5751 151.823C80.9825 151.337 81.3811 150.899 81.771 150.507C82.1748 150.106 82.5494 149.797 82.8947 149.581C83.2539 149.354 83.5633 149.265 83.8229 149.313C84.2005 149.383 84.4972 149.56 84.713 149.844C84.9429 150.119 85.075 150.558 85.1094 151.163C85.1579 151.757 85.0858 152.574 84.8934 153.612C84.7906 154.167 84.7475 154.696 84.764 155.199C84.7924 155.705 84.9031 156.128 85.0962 156.469C85.3033 156.8 85.6074 157.003 86.0086 157.078C86.6103 157.189 87.1669 157.182 87.6782 157.057C88.1917 156.921 88.6447 156.748 89.0372 156.54C89.4436 156.323 89.7845 156.13 90.0599 155.961C90.3374 155.781 90.5411 155.702 90.6709 155.727C90.9422 155.777 91.0517 155.944 90.9992 156.227C90.9773 156.345 90.8538 156.517 90.6287 156.744C90.4176 156.961 90.1292 157.201 89.7634 157.462C89.4115 157.714 89.0136 157.952 88.5695 158.175C88.1395 158.388 87.6887 158.548 87.2171 158.656C86.7574 158.766 86.3092 158.781 85.8726 158.7C85.0585 158.549 84.4214 158.266 83.9613 157.851C83.513 157.439 83.2327 156.844 83.1205 156.066C83.0201 155.291 83.0836 154.29 83.3111 153.063C83.4357 152.39 83.4852 151.893 83.4594 151.571C83.4477 151.239 83.3513 151.002 83.1704 150.858C82.9829 151.08 82.7344 151.4 82.425 151.818C82.1177 152.225 81.7652 152.679 81.3674 153.178C80.9815 153.681 80.5767 154.185 80.1532 154.693C79.7436 155.19 79.3358 155.646 78.9298 156.058C78.5237 156.471 78.1459 156.798 77.7962 157.038C77.4488 157.267 77.157 157.359 76.9211 157.315ZM88.9572 154.109C88.643 154.027 88.5338 153.793 88.6295 153.408C88.6588 153.316 88.7445 153.215 88.8865 153.108C89.0308 152.988 89.1807 152.936 89.3362 152.953C89.7086 152.985 90.1668 153.015 90.7109 153.043C91.2689 153.061 91.8823 153.077 92.5509 153.091C92.776 152.535 93.0303 151.953 93.3135 151.347C93.5968 150.74 93.8945 150.155 94.2066 149.59C94.5209 149.014 94.8361 148.499 95.1521 148.045C95.4681 147.591 95.7763 147.245 96.0765 147.008C96.2304 146.902 96.3648 146.835 96.4797 146.808C96.5968 146.768 96.6967 146.756 96.7793 146.772C96.9445 146.802 97.0612 146.897 97.1293 147.056C97.2093 147.218 97.2328 147.387 97.2 147.564C97.1825 147.658 97.1473 147.749 97.0944 147.837C96.736 148.454 96.3314 149.221 95.8807 150.138C95.43 151.056 94.9452 152.058 94.4263 153.146C95.5447 153.17 96.6652 153.182 97.7878 153.183C98.9105 153.184 99.8766 153.173 100.686 153.153C100.928 153.1 101.095 153.149 101.189 153.301C101.295 153.455 101.336 153.596 101.312 153.726C101.281 153.891 101.211 154.007 101.101 154.072C101.003 154.139 100.902 154.193 100.797 154.235L100.776 154.249C100.522 154.3 100.147 154.346 99.6513 154.389C99.1575 154.419 98.5907 154.448 97.9509 154.476C97.3133 154.492 96.6344 154.501 95.9142 154.502C95.2058 154.505 94.5055 154.497 93.8132 154.478C93.3494 155.466 92.8742 156.483 92.3877 157.528C91.9151 158.563 91.4458 159.58 90.9798 160.58C90.7831 160.983 90.5982 161.223 90.4251 161.301C90.2617 161.393 90.0974 161.423 89.9322 161.393C89.7434 161.358 89.5913 161.256 89.476 161.089C89.3724 160.923 89.4083 160.631 89.5836 160.212L91.9942 154.416C91.2665 154.391 90.627 154.352 90.0755 154.298C89.5358 154.247 89.163 154.184 88.9572 154.109ZM106.434 163.92C106.068 163.853 105.82 163.709 105.69 163.49C105.558 163.282 105.511 163.072 105.551 162.86C105.594 162.624 105.671 162.442 105.779 162.316C105.9 162.192 106.097 162.119 106.369 162.096C106.654 162.076 107.057 162.107 107.578 162.192C108.288 161.982 109.019 161.696 109.769 161.335C110.533 160.964 111.278 160.534 112.003 160.046C112.728 159.558 113.394 159.029 114 158.458C114.606 157.887 115.113 157.291 115.521 156.671C115.929 156.051 116.192 155.422 116.31 154.785C116.422 154.183 116.319 153.682 116.003 153.282C115.701 152.872 115.19 152.6 114.47 152.467C113.785 152.34 113.161 152.316 112.598 152.395C112.048 152.464 111.592 152.55 111.231 152.654C110.882 152.76 110.643 152.801 110.513 152.777C110.194 152.718 110.075 152.476 110.153 152.051C110.182 151.898 110.331 151.718 110.601 151.512C110.883 151.308 111.247 151.119 111.695 150.946C112.144 150.761 112.649 150.635 113.211 150.568C113.775 150.489 114.357 150.506 114.959 150.617C115.974 150.805 116.74 151.283 117.256 152.05C117.776 152.805 117.915 153.832 117.674 155.13C117.501 156.062 117.143 156.91 116.598 157.676C116.065 158.444 115.417 159.141 114.654 159.769C113.893 160.384 113.082 160.942 112.221 161.441C111.361 161.929 110.526 162.354 109.714 162.716C110.649 162.877 111.421 162.99 112.032 163.054C112.644 163.106 113.145 163.138 113.533 163.149C113.924 163.148 114.253 163.154 114.519 163.167C114.787 163.168 115.051 163.192 115.311 163.241C115.606 163.295 115.803 163.417 115.902 163.606C116.015 163.786 116.051 163.988 116.009 164.212C115.974 164.401 115.895 164.563 115.772 164.699C115.664 164.825 115.465 164.911 115.176 164.955C114.885 165.011 114.458 165.011 113.894 164.955C113.329 164.911 112.58 164.803 111.648 164.63C111.011 164.512 110.351 164.384 109.669 164.245C108.999 164.109 108.347 163.97 107.714 163.828C107.085 163.931 106.658 163.962 106.434 163.92ZM44.0824 184.547C43.8818 184.51 43.7356 184.41 43.6439 184.246C43.5639 184.085 43.5611 183.804 43.6355 183.402C43.7426 182.824 43.9086 182.159 44.1333 181.408C44.358 180.656 44.621 179.863 44.9222 179.028C45.2353 178.195 45.5601 177.364 45.8967 176.536C46.2451 175.709 46.5918 174.925 46.9367 174.184C47.2934 173.444 47.6278 172.792 47.94 172.228C48.2543 171.651 48.5268 171.202 48.7576 170.878C49.0002 170.557 49.1864 170.408 49.3162 170.433C49.5403 170.474 49.7053 170.572 49.811 170.726C49.9286 170.882 49.9633 171.089 49.9152 171.349C49.8539 171.679 49.6542 172.198 49.3158 172.904C48.9796 173.598 48.5429 174.506 48.0057 175.627C48.4012 175.139 48.8248 174.631 49.2763 174.105C49.7278 173.578 50.1937 173.073 50.6741 172.588C51.1566 172.092 51.6282 171.654 52.0889 171.276C52.5614 170.9 53.0056 170.61 53.4217 170.406C53.8378 170.203 54.2169 170.133 54.5591 170.196C54.9248 170.264 55.2274 170.442 55.4669 170.73C55.7085 171.007 55.8699 171.354 55.9512 171.772C56.0464 172.18 56.0502 172.62 55.9628 173.092C55.7813 174.072 55.44 174.991 54.9391 175.85C54.4403 176.697 53.8282 177.432 53.1026 178.054C52.3911 178.667 51.6007 179.112 50.7314 179.39C49.874 179.671 48.991 179.727 48.0824 179.558C47.7403 179.495 47.4368 179.421 47.1719 179.335C46.9071 179.249 46.6788 179.164 46.487 179.08C46.201 179.832 45.9166 180.609 45.6338 181.411C45.3509 182.213 45.0582 183.068 44.7557 183.976C44.6743 184.217 44.5836 184.378 44.4835 184.457C44.3813 184.548 44.2475 184.578 44.0824 184.547ZM54.6283 171.6C54.3806 171.554 54.0593 171.641 53.6647 171.861C53.2818 172.083 52.852 172.394 52.3751 172.793C51.9123 173.184 51.4337 173.626 50.9393 174.12C50.4472 174.602 49.9647 175.099 49.4917 175.609C49.0188 176.12 48.583 176.594 48.1844 177.033C47.7976 177.474 47.4792 177.842 47.2292 178.137C48.1539 178.284 48.996 178.251 49.7555 178.038C50.5173 177.813 51.1962 177.475 51.7924 177.024C52.3907 176.561 52.9023 176.04 53.3272 175.46C53.7661 174.87 54.112 174.287 54.3652 173.712C54.6205 173.124 54.7897 172.606 54.8728 172.158C54.934 171.828 54.8525 171.642 54.6283 171.6ZM58.7092 182.004C58.0131 181.875 57.5136 181.508 57.2109 180.903C56.9081 180.297 56.8354 179.57 56.9929 178.72C57.0497 178.413 57.1512 178.097 57.2972 177.77C57.4572 177.433 57.6342 177.137 57.8283 176.88C57.761 176.782 57.7169 176.658 57.6959 176.507C57.6772 176.345 57.6886 176.152 57.7301 175.928C57.8591 175.232 58.0952 174.616 58.4383 174.082C58.7815 173.548 59.1871 173.104 59.6552 172.751C60.1255 172.387 60.6185 172.131 61.1342 171.982C61.6617 171.836 62.1732 171.809 62.6688 171.9C63.4829 172.051 64.089 172.469 64.487 173.153C64.8872 173.825 64.9769 174.757 64.756 175.949C64.6401 176.574 64.4276 177.194 64.1185 177.808C63.8213 178.424 63.4576 179.003 63.0275 179.546C62.6092 180.091 62.1498 180.561 61.6494 180.956C61.1607 181.354 60.6601 181.652 60.1474 181.85C59.6488 182.038 59.1694 182.089 58.7092 182.004ZM59.1079 176.494C59.1612 176.602 59.1737 176.732 59.1452 176.886C59.1124 177.063 59.0442 177.233 58.9406 177.397C58.8488 177.563 58.7391 177.793 58.6115 178.087C58.4838 178.38 58.3675 178.81 58.2625 179.377C58.1576 179.943 58.3293 180.268 58.7776 180.351C59.2732 180.443 59.7694 180.333 60.2664 180.023C60.7655 179.7 61.2382 179.257 61.6845 178.693C62.1307 178.129 62.508 177.509 62.8162 176.834C63.1383 176.149 63.3585 175.488 63.4766 174.851C63.5531 174.438 63.53 174.135 63.4072 173.941C63.2866 173.736 63.0258 173.596 62.6246 173.521C62.2116 173.445 61.7547 173.507 61.2539 173.707C60.767 173.897 60.3324 174.201 59.9499 174.618C59.5675 175.036 59.3216 175.539 59.2122 176.129C59.1882 176.259 59.1534 176.381 59.1079 176.494ZM66.1845 183.298C65.9603 183.256 65.775 183.137 65.6286 182.939C65.4845 182.729 65.4463 182.441 65.514 182.075C65.5622 181.816 65.6643 181.462 65.8203 181.015C65.9786 180.557 66.1681 180.061 66.3889 179.528C66.6097 178.995 66.8352 178.47 67.0656 177.951C67.31 177.423 67.5434 176.953 67.7659 176.543C67.9884 176.133 68.1725 175.831 68.318 175.638C68.443 175.491 68.5512 175.401 68.6425 175.369C68.7457 175.339 68.8385 175.332 68.9211 175.348C69.0863 175.378 69.2181 175.457 69.3164 175.586C69.4265 175.716 69.4531 175.934 69.3963 176.241C69.3635 176.418 69.2734 176.706 69.1261 177.106C68.9927 177.497 68.8226 177.953 68.6159 178.476C68.4231 178.99 68.2152 179.519 67.9922 180.063C67.7832 180.598 67.5786 181.109 67.3784 181.597C67.1782 182.085 67.0169 182.494 66.8945 182.825C66.8123 183.005 66.7023 183.138 66.5647 183.222C66.441 183.297 66.3143 183.322 66.1845 183.298ZM69.7329 173.832C69.4615 173.782 69.2172 173.651 69.0001 173.44C68.7947 173.231 68.7259 172.944 68.7937 172.578C68.8506 172.271 68.9673 172.036 69.1439 171.874C69.3323 171.714 69.5344 171.611 69.7503 171.565C69.9802 171.51 70.1718 171.497 70.3252 171.525C70.4786 171.554 70.6431 171.621 70.8188 171.727C71.0084 171.823 71.1576 171.973 71.2664 172.176C71.3774 172.367 71.4023 172.628 71.341 172.959C71.2995 173.183 71.1856 173.369 70.9994 173.518C70.8154 173.654 70.6026 173.749 70.3609 173.802C70.131 173.857 69.9217 173.867 69.7329 173.832ZM72.0007 183.863C71.6585 183.8 71.3878 183.548 71.1886 183.109C70.9894 182.669 70.9467 182.142 71.0604 181.529C71.185 180.856 71.4069 180.153 71.726 179.419C72.057 178.687 72.4314 177.951 72.8493 177.211C73.2694 176.459 73.6781 175.735 74.0754 175.04C74.1628 174.897 74.2662 174.8 74.3855 174.749C74.5188 174.689 74.7035 174.68 74.9394 174.724C75.3642 174.803 75.5383 175.048 75.4618 175.461C75.4443 175.556 75.3577 175.759 75.2021 176.072C75.0465 176.385 74.8472 176.769 74.6041 177.225C74.3729 177.682 74.1281 178.18 73.8697 178.718C73.6135 179.244 73.374 179.779 73.151 180.324C72.928 180.868 72.7481 181.378 72.6113 181.853C72.8372 181.687 73.1065 181.42 73.419 181.051C73.7433 180.684 74.0952 180.267 74.4746 179.8C74.8562 179.322 75.2496 178.845 75.6547 178.371C76.0621 177.885 76.4607 177.447 76.8506 177.055C77.2545 176.654 77.629 176.345 77.9743 176.128C78.3336 175.902 78.643 175.813 78.9026 175.861C79.2801 175.931 79.5768 176.108 79.7927 176.392C80.0225 176.667 80.1546 177.106 80.1891 177.711C80.2375 178.305 80.1655 179.122 79.973 180.16C79.8703 180.715 79.8271 181.244 79.8437 181.747C79.872 182.253 79.9827 182.676 80.1758 183.017C80.3829 183.348 80.6871 183.551 81.0882 183.625C81.69 183.737 82.2465 183.73 82.7578 183.605C83.2714 183.469 83.7243 183.296 84.1168 183.088C84.5233 182.871 84.8642 182.678 85.1395 182.509C85.417 182.329 85.6207 182.25 85.7505 182.274C86.0219 182.325 86.1313 182.491 86.0788 182.775C86.057 182.893 85.9335 183.065 85.7084 183.292C85.4973 183.509 85.2088 183.748 84.843 184.01C84.4912 184.262 84.0932 184.5 83.6492 184.722C83.2191 184.936 82.7683 185.096 82.2968 185.204C81.837 185.314 81.3889 185.329 80.9523 185.248C80.1382 185.097 79.501 184.814 79.0409 184.399C78.5926 183.987 78.3123 183.392 78.2001 182.614C78.0997 181.839 78.1633 180.838 78.3907 179.611C78.5153 178.938 78.5648 178.441 78.5391 178.119C78.5273 177.787 78.431 177.549 78.2501 177.406C78.0626 177.628 77.8141 177.948 77.5046 178.366C77.1973 178.773 76.8448 179.226 76.4471 179.726C76.0611 180.228 75.6563 180.733 75.2328 181.24C74.8233 181.738 74.4154 182.193 74.0094 182.606C73.6034 183.019 73.2255 183.346 72.8759 183.586C72.5284 183.815 72.2367 183.907 72.0007 183.863ZM84.0368 180.657C83.7226 180.574 83.6134 180.341 83.7092 179.956C83.7385 179.863 83.8241 179.763 83.9662 179.655C84.1104 179.536 84.2603 179.484 84.4159 179.501C84.7882 179.533 85.2464 179.563 85.7905 179.591C86.3486 179.609 86.9619 179.625 87.6305 179.639C87.8557 179.083 88.1099 178.501 88.3932 177.895C88.6764 177.288 88.9741 176.703 89.2863 176.138C89.6006 175.562 89.9157 175.046 90.2317 174.592C90.5478 174.138 90.8559 173.793 91.1562 173.556C91.31 173.45 91.4444 173.383 91.5594 173.356C91.6765 173.316 91.7763 173.304 91.8589 173.32C92.0241 173.35 92.1408 173.445 92.2089 173.604C92.2889 173.765 92.3125 173.935 92.2797 174.112C92.2622 174.206 92.227 174.297 92.1741 174.385C91.8156 175.002 91.4111 175.769 90.9604 176.686C90.5097 177.604 90.0249 178.606 89.506 179.694C90.6243 179.718 91.7448 179.73 92.8675 179.731C93.9902 179.731 94.9562 179.721 95.7656 179.7C96.0072 179.648 96.175 179.697 96.269 179.849C96.3747 180.002 96.4155 180.144 96.3915 180.274C96.3609 180.439 96.2907 180.554 96.181 180.62C96.0831 180.687 95.9815 180.741 95.8762 180.783L95.8552 180.797C95.6017 180.848 95.227 180.894 94.731 180.937C94.2371 180.967 93.6703 180.996 93.0305 181.024C92.3929 181.04 91.714 181.049 90.9938 181.049C90.2854 181.052 89.5851 181.045 88.8929 181.026C88.4291 182.014 87.9539 183.031 87.4673 184.075C86.9947 185.111 86.5255 186.128 86.0595 187.128C85.8627 187.531 85.6778 187.771 85.5048 187.849C85.3413 187.941 85.177 187.971 85.0118 187.941C84.823 187.906 84.671 187.804 84.5556 187.636C84.4521 187.471 84.4879 187.178 84.6632 186.759L87.0738 180.964C86.3462 180.939 85.7066 180.899 85.1551 180.846C84.6154 180.795 84.2426 180.732 84.0368 180.657ZM111.553 186.379C111.465 186.851 111.205 187.303 110.771 187.735C110.348 188.17 109.821 188.579 109.189 188.962C108.556 189.345 107.882 189.69 107.166 189.996C106.462 190.305 105.774 190.562 105.101 190.767C104.427 190.984 103.837 191.137 103.332 191.226C102.825 191.328 102.471 191.36 102.271 191.323C101.928 191.259 101.683 191.134 101.535 190.948C101.396 190.776 101.337 190.631 101.359 190.513C101.383 190.383 101.437 190.259 101.52 190.14C101.612 190.035 101.792 189.952 102.06 189.892C102.801 189.712 103.555 189.498 104.321 189.249C105.089 188.989 105.817 188.715 106.505 188.428C107.205 188.142 107.834 187.844 108.392 187.533C108.95 187.221 109.402 186.92 109.749 186.631C110.098 186.329 110.296 186.049 110.344 185.789C110.416 185.4 110.269 185.074 109.903 184.81C109.551 184.538 108.921 184.317 108.012 184.149C107.481 184.05 107.034 183.992 106.672 183.973C106.309 183.955 105.993 183.945 105.725 183.944C105.471 183.934 105.237 183.909 105.025 183.87C104.647 183.8 104.495 183.57 104.567 183.181C104.6 183.004 104.693 182.832 104.846 182.665C104.999 182.498 105.212 182.397 105.487 182.363C106.862 182.19 107.986 181.886 108.86 181.45C109.736 181.002 110.241 180.418 110.375 179.699C110.456 179.262 110.118 178.974 109.363 178.834C109.009 178.768 108.602 178.729 108.14 178.717C107.679 178.705 107.226 178.712 106.781 178.74C106.351 178.758 105.981 178.775 105.673 178.791C105.365 178.807 105.176 178.808 105.105 178.795C104.987 178.773 104.905 178.722 104.859 178.64C104.816 178.546 104.801 178.458 104.817 178.376C104.836 178.269 104.954 178.127 105.171 177.947C105.387 177.767 105.681 177.596 106.053 177.433C106.427 177.258 106.859 177.137 107.347 177.069C107.85 176.991 108.39 177.006 108.968 177.113C109.558 177.222 110.056 177.437 110.46 177.756C110.867 178.063 111.163 178.441 111.348 178.891C111.533 179.34 111.578 179.824 111.482 180.343C111.385 180.862 111.125 181.345 110.701 181.791C110.276 182.237 109.796 182.588 109.261 182.842C109.81 183.042 110.269 183.328 110.64 183.702C111.024 184.066 111.294 184.482 111.452 184.951C111.611 185.408 111.645 185.884 111.553 186.379Z" fill="black" fill-opacity="0.8"/>
</g>
</g>
<defs>
<filter id="filter0_ddd_1092_34637" x="0.824219" y="0.832031" width="305.547" height="305.545" filterUnits="userSpaceOnUse" color-interpolation-filters="sRGB">
<feFlood flood-opacity="0" result="BackgroundImageFix"/>
<feColorMatrix in="SourceAlpha" type="matrix" values="0 0 0 0 0 0 0 0 0 0 0 0 0 0 0 0 0 0 127 0" result="hardAlpha"/>
<feOffset dy="2.5"/>
<feGaussianBlur stdDeviation="1"/>
<feColorMatrix type="matrix" values="0 0 0 0 0 0 0 0 0 0 0 0 0 0 0 0 0 0 0.02 0"/>
<feBlend mode="normal" in2="BackgroundImageFix" result="effect1_dropShadow_1092_34637"/>
<feColorMatrix in="SourceAlpha" type="matrix" values="0 0 0 0 0 0 0 0 0 0 0 0 0 0 0 0 0 0 127 0" result="hardAlpha"/>
<feOffset dy="3"/>
<feGaussianBlur stdDeviation="2.5"/>
<feColorMatrix type="matrix" values="0 0 0 0 0 0 0 0 0 0 0 0 0 0 0 0 0 0 0.04 0"/>
<feBlend mode="normal" in2="effect1_dropShadow_1092_34637" result="effect2_dropShadow_1092_34637"/>
<feColorMatrix in="SourceAlpha" type="matrix" values="0 0 0 0 0 0 0 0 0 0 0 0 0 0 0 0 0 0 127 0" result="hardAlpha"/>
<feOffset dy="8"/>
<feGaussianBlur stdDeviation="5"/>
<feColorMatrix type="matrix" values="0 0 0 0 0 0 0 0 0 0 0 0 0 0 0 0 0 0 0.08 0"/>
<feBlend mode="normal" in2="effect2_dropShadow_1092_34637" result="effect3_dropShadow_1092_34637"/>
<feBlend mode="normal" in="SourceGraphic" in2="effect3_dropShadow_1092_34637" result="shape"/>
</filter>
<clipPath id="clip0_1092_34637">
<rect width="245" height="245" fill="white" transform="translate(55.4727 2.83203) rotate(10.5)"/>
</clipPath>
</defs>
</svg>
