<svg width="307" height="307" viewBox="0 0 307 307" fill="none" xmlns="http://www.w3.org/2000/svg">
<g filter="url(#filter0_ddd_1_13)">
<g clip-path="url(#clip0_1_13)">
<rect width="245" height="245" transform="translate(55.3777 2.47006) rotate(10.5)" fill="#FFD966"/>
<path d="M78.5697 42.0372C77.8853 41.9103 77.2115 41.6939 76.5482 41.3879C75.887 41.0701 75.2995 40.7171 74.7856 40.329C74.4722 40.9665 74.1585 41.6712 73.8446 42.4429C73.5307 43.2146 73.2177 44.0475 72.9056 44.9416C72.6533 45.5783 72.4437 45.9849 72.2767 46.1614C72.1098 46.3379 71.926 46.4076 71.7254 46.3704C71.5248 46.3333 71.383 46.2094 71.3 45.9987C71.2192 45.7763 71.2291 45.3936 71.3297 44.8509C71.3494 44.7447 71.4248 44.5024 71.556 44.124C71.6871 43.7455 71.8524 43.2819 72.0517 42.733C72.2651 42.1745 72.492 41.5759 72.7324 40.937C72.9751 40.2863 73.2177 39.6356 73.4604 38.9849C73.234 38.6257 73.146 38.3104 73.1963 38.039C73.2204 37.9092 73.2787 37.7919 73.3714 37.687C73.4662 37.5703 73.6258 37.5328 73.8499 37.5743C73.8853 37.5809 73.9255 37.5944 73.9706 37.615C74.2316 36.9311 74.4547 36.3195 74.6401 35.7803C74.8395 35.2314 74.968 34.8342 75.0257 34.5886C75.1281 34.1682 75.2653 33.8885 75.4375 33.7496C75.6119 33.5988 75.7935 33.541 75.9823 33.576C76.1357 33.6044 76.2475 33.6922 76.3179 33.8395C76.3904 33.975 76.3818 34.2846 76.2922 34.7684C76.2353 35.0752 76.1352 35.4838 75.9918 35.9942C76.7886 34.9214 77.5456 34.1952 78.2628 33.8156C78.9918 33.4381 79.7457 33.3215 80.5244 33.4659C81.2324 33.5971 81.8039 33.9044 82.2391 34.3878C82.6765 34.8594 82.9664 35.4684 83.1087 36.2148C83.2511 36.9613 83.2348 37.8065 83.0598 38.7504C82.8127 40.0837 82.3035 41.0206 81.5321 41.561C80.7607 42.1015 79.7732 42.2602 78.5697 42.0372ZM75.518 38.9453C75.9183 39.2879 76.3749 39.6228 76.8879 39.9497C77.4031 40.2649 77.9557 40.4771 78.5457 40.5865C79.5014 40.7636 80.2369 40.6803 80.7522 40.3364C81.2815 39.9829 81.6357 39.3224 81.8151 38.3549C82.0228 37.234 81.9934 36.4048 81.7269 35.8672C81.4604 35.3296 81.0204 35.004 80.4069 34.8903C79.7107 34.7613 78.9424 35.0216 78.1019 35.6713C77.2637 36.3092 76.4024 37.4006 75.518 38.9453ZM86.7865 50.1138C85.878 49.9454 85.2188 49.5181 84.809 48.832C84.4132 48.1362 84.3148 47.2514 84.5138 46.1777C84.6362 45.517 84.868 44.7605 85.209 43.9084C85.564 43.0467 85.9749 42.1465 86.4417 41.2078C86.9226 40.2596 87.4249 39.3275 87.9486 38.4116C88.4722 37.4957 88.971 36.6484 89.4448 35.8697C89.9327 35.0814 90.3529 34.4271 90.7057 33.9066C90.9063 33.6143 91.1364 33.4922 91.396 33.5403C91.75 33.6059 91.8865 33.857 91.8056 34.2935C91.7794 34.4351 91.6609 34.7122 91.4502 35.1247C91.2395 35.5372 90.9678 36.0483 90.6351 36.6578C90.3047 37.2556 89.9434 37.9209 89.5513 38.6537C89.1592 39.3866 88.7568 40.1419 88.3441 40.9197C87.9454 41.6879 87.5656 42.4535 87.2045 43.2165C86.8456 43.9676 86.5367 44.6793 86.2779 45.3514C86.0191 46.0235 85.8438 46.6073 85.7519 47.1028C85.6929 47.4214 85.7285 47.6904 85.8586 47.9098C86.0028 48.1196 86.2224 48.2518 86.5174 48.3065C87.0601 48.4071 87.6226 48.4015 88.2047 48.2897C88.8008 48.1683 89.3821 47.9953 89.9485 47.7708C90.5171 47.5344 91.0374 47.2953 91.5094 47.0532C91.9954 46.8016 92.4055 46.5969 92.7399 46.4392C93.0764 46.2697 93.3037 46.1959 93.4217 46.2177C93.6812 46.2658 93.7848 46.4315 93.7323 46.7147C93.7148 46.809 93.5876 46.9685 93.3507 47.1931C93.116 47.4059 92.8077 47.6539 92.4257 47.937C92.0437 48.2201 91.6064 48.5052 91.1138 48.7923C90.6353 49.0697 90.1364 49.3251 89.6172 49.5583C89.1119 49.782 88.6118 49.9456 88.1166 50.0491C87.6311 50.1666 87.1877 50.1882 86.7865 50.1138ZM93.3172 51.0679C92.8688 50.9848 92.5354 50.7094 92.317 50.2418C92.1125 49.7645 92.0726 49.1896 92.1973 48.5171C92.3132 47.8918 92.5814 47.3007 93.0019 46.744C93.4342 46.1895 93.9624 45.6772 94.5865 45.2071C95.2106 44.7369 95.8732 44.3227 96.5742 43.9645C97.2774 43.5945 97.9686 43.2893 98.6478 43.049C99.3387 42.811 99.9624 42.6398 100.519 42.5354C101.075 42.431 101.507 42.4073 101.813 42.4641C101.979 42.4948 102.108 42.5553 102.201 42.6458C102.296 42.7244 102.328 42.8464 102.298 43.0116C102.278 43.1178 102.218 43.2104 102.118 43.2895C102.13 43.2917 102.142 43.2939 102.153 43.296C102.413 43.3442 102.514 43.5216 102.458 43.8284C102.438 43.9346 102.356 44.1452 102.212 44.4603C102.071 44.7635 101.902 45.1472 101.706 45.6113C101.51 46.0754 101.316 46.5947 101.124 47.1694C100.935 47.7322 100.784 48.3145 100.672 48.9163C100.578 49.4236 100.726 49.7134 101.115 49.7856C101.552 49.8665 102.013 49.8482 102.499 49.7307C102.984 49.6132 103.466 49.4522 103.943 49.2478C104.422 49.0315 104.865 48.8146 105.272 48.5971C105.68 48.3677 106.027 48.1757 106.312 48.021C106.597 47.8663 106.793 47.7989 106.899 47.8185C106.993 47.836 107.07 47.8808 107.13 47.953C107.19 48.0251 107.208 48.126 107.184 48.2558C107.162 48.3738 107.005 48.5643 106.712 48.8274C106.419 49.0904 106.042 49.3805 105.58 49.6977C105.119 50.0149 104.612 50.3116 104.061 50.5877C103.509 50.8638 102.958 51.0728 102.407 51.2148C101.856 51.3567 101.35 51.3851 100.89 51.2998C100.536 51.2342 100.231 51.0678 99.9754 50.8008C99.7337 50.5241 99.5736 50.1039 99.4951 49.5401C99.4283 48.9786 99.4813 48.2317 99.654 47.2996L99.736 46.8571C98.9807 47.7057 98.2113 48.4662 97.4276 49.1387C96.6557 49.8133 95.9134 50.3286 95.2006 50.6847C94.4995 51.0429 93.8718 51.1707 93.3172 51.0679ZM101.241 43.6761C101.178 43.6888 101.088 43.7089 100.973 43.7364C100.385 43.8836 99.7616 44.0854 99.1038 44.3418C98.4579 44.6004 97.8161 44.9025 97.1784 45.2481C96.5526 45.5959 95.9765 45.9712 95.4503 46.374C94.9241 46.7769 94.4853 47.202 94.1338 47.6495C93.7824 48.0969 93.563 48.5566 93.4755 49.0286C93.4471 49.182 93.4547 49.3054 93.4984 49.399C93.5539 49.4947 93.6642 49.5578 93.8294 49.5885C94.0654 49.6322 94.3995 49.5416 94.8317 49.3166C95.2661 49.0798 95.7535 48.7551 96.2937 48.3427C96.8457 47.9324 97.4075 47.469 97.9792 46.9526C98.5509 46.4361 99.1001 45.9094 99.6268 45.3724C100.165 44.8375 100.636 44.339 101.039 43.8767C101.102 43.8028 101.169 43.736 101.241 43.6761ZM105.486 57.6802C104.578 57.5119 103.927 57.2998 103.535 57.0441C103.143 56.7884 102.975 56.513 103.03 56.2181C103.065 56.0293 103.152 55.8868 103.292 55.7907C103.443 55.6968 103.614 55.6673 103.802 55.7023C104.003 55.7395 104.287 55.8225 104.653 55.9515C105.018 56.0923 105.383 56.1966 105.749 56.2644C106.964 56.4896 108.028 56.3145 108.94 55.7391C109.852 55.1637 110.652 54.1709 111.341 52.7608C112.031 51.3388 112.663 49.4788 113.235 47.1806C112.748 47.8347 112.213 48.4801 111.632 49.1168C111.064 49.7438 110.472 50.3053 109.855 50.8012C109.252 51.2875 108.653 51.6584 108.056 51.914C107.459 52.1696 106.902 52.2492 106.382 52.153C105.887 52.0612 105.544 51.8695 105.354 51.578C105.176 51.2887 105.139 50.8608 105.244 50.2945C105.338 49.7871 105.579 49.2765 105.967 48.7626C106.358 48.2369 106.842 47.7288 107.422 47.2381C108.001 46.7474 108.622 46.295 109.284 45.8808C109.949 45.4548 110.602 45.0937 111.242 44.7975C111.897 44.4917 112.494 44.2667 113.033 44.1226C113.573 43.9784 113.996 43.9348 114.302 43.9917C114.609 44.0485 114.825 44.1984 114.951 44.4414C115.077 44.6844 115.085 45.1009 114.976 45.6909C114.72 47.0714 114.424 48.4077 114.087 49.6999C113.763 50.9825 113.368 52.1602 112.901 53.233C112.433 54.3058 111.863 55.2129 111.188 55.9545C110.523 56.71 109.722 57.245 108.785 57.5595C107.848 57.874 106.749 57.9142 105.486 57.6802ZM113.238 45.3871C112.578 45.6553 111.892 45.9675 111.179 46.3235C110.466 46.6796 109.789 47.0728 109.148 47.5032C108.519 47.9357 107.986 48.4046 107.551 48.9097C107.116 49.4148 106.846 49.9505 106.741 50.5169C106.708 50.6939 106.804 50.8032 107.028 50.8447C107.205 50.8775 107.472 50.7866 107.829 50.5721C108.2 50.348 108.623 50.0419 109.097 49.6539C109.574 49.2541 110.065 48.8141 110.569 48.3339C111.086 47.8441 111.576 47.3429 112.037 46.8304C112.498 46.3178 112.899 45.8367 113.238 45.3871ZM117.203 55.1105C116.979 55.069 116.794 54.9492 116.648 54.7512C116.503 54.5414 116.465 54.2536 116.533 53.8879C116.581 53.6283 116.683 53.275 116.839 52.8279C116.998 52.3691 117.187 51.8733 117.408 51.3406C117.629 50.808 117.854 50.2823 118.085 49.7636C118.329 49.2352 118.562 48.7659 118.785 48.3556C119.007 47.9453 119.191 47.6438 119.337 47.4511C119.462 47.3034 119.57 47.2136 119.661 47.1817C119.765 47.152 119.857 47.1448 119.94 47.1601C120.105 47.1907 120.237 47.2701 120.335 47.3981C120.445 47.5284 120.472 47.7469 120.415 48.0536C120.382 48.2306 120.292 48.519 120.145 48.9189C120.012 49.3091 119.842 49.7658 119.635 50.2889C119.442 50.8023 119.234 51.3313 119.011 51.8758C118.802 52.4107 118.598 52.9219 118.397 53.4096C118.197 53.8973 118.036 54.3067 117.913 54.638C117.831 54.818 117.721 54.9502 117.584 55.0345C117.46 55.1092 117.333 55.1346 117.203 55.1105ZM120.752 45.6447C120.48 45.5944 120.236 45.4637 120.019 45.2525C119.814 45.0436 119.745 44.7563 119.813 44.3905C119.87 44.0837 119.986 43.8491 120.163 43.6865C120.351 43.5262 120.553 43.4233 120.769 43.3779C120.999 43.3228 121.191 43.3095 121.344 43.338C121.498 43.3664 121.662 43.4335 121.838 43.5393C122.027 43.6355 122.177 43.7852 122.285 43.9884C122.396 44.1798 122.421 44.4407 122.36 44.7711C122.318 44.9953 122.205 45.1816 122.018 45.3302C121.834 45.467 121.622 45.5618 121.38 45.6146C121.15 45.6696 120.941 45.6796 120.752 45.6447ZM122.25 56.4303C121.802 56.3472 121.468 56.0719 121.25 55.6042C121.046 55.127 121.006 54.5521 121.13 53.8795C121.246 53.2542 121.514 52.6632 121.935 52.1065C122.367 51.552 122.895 51.0396 123.52 50.5695C124.144 50.0994 124.806 49.6852 125.507 49.3269C126.21 48.9569 126.902 48.6517 127.581 48.4115C128.272 48.1734 128.895 48.0022 129.452 47.8978C130.008 47.7935 130.44 47.7697 130.746 47.8266C130.912 47.8572 131.041 47.9177 131.134 48.0082C131.229 48.0869 131.261 48.2088 131.231 48.374C131.211 48.4802 131.151 48.5728 131.051 48.6519C131.063 48.6541 131.075 48.6563 131.087 48.6585C131.346 48.7066 131.447 48.884 131.391 49.1908C131.371 49.297 131.289 49.5076 131.145 49.8227C131.004 50.1259 130.835 50.5096 130.639 50.9737C130.443 51.4378 130.249 51.9571 130.057 52.5318C129.868 53.0946 129.717 53.6769 129.606 54.2787C129.511 54.786 129.659 55.0758 130.049 55.148C130.485 55.2289 130.946 55.2106 131.432 55.0931C131.917 54.9756 132.399 54.8147 132.876 54.6102C133.355 54.394 133.798 54.177 134.205 53.9595C134.613 53.7301 134.96 53.5381 135.245 53.3834C135.53 53.2288 135.726 53.1613 135.832 53.181C135.926 53.1985 136.003 53.2433 136.063 53.3154C136.123 53.3875 136.141 53.4884 136.117 53.6182C136.095 53.7362 135.938 53.9267 135.645 54.1898C135.352 54.4528 134.975 54.7429 134.513 55.0601C134.052 55.3773 133.545 55.674 132.994 55.9501C132.442 56.2262 131.891 56.4353 131.34 56.5772C130.789 56.7191 130.283 56.7475 129.823 56.6622C129.469 56.5966 129.164 56.4303 128.908 56.1632C128.667 55.8865 128.507 55.4663 128.428 54.9026C128.361 54.341 128.414 53.5941 128.587 52.662L128.669 52.2196C127.914 53.0681 127.144 53.8286 126.361 54.5011C125.589 55.1757 124.846 55.6911 124.134 56.0471C123.433 56.4054 122.805 56.5331 122.25 56.4303ZM130.174 49.0385C130.111 49.0512 130.021 49.0713 129.907 49.0988C129.318 49.246 128.695 49.4478 128.037 49.7042C127.391 49.9628 126.749 50.2649 126.111 50.6105C125.486 50.9583 124.91 51.3336 124.383 51.7365C123.857 52.1393 123.418 52.5645 123.067 53.0119C122.715 53.4594 122.496 53.9191 122.409 54.391C122.38 54.5444 122.388 54.6679 122.431 54.7614C122.487 54.8571 122.597 54.9203 122.762 54.9509C122.998 54.9946 123.333 54.904 123.765 54.679C124.199 54.4422 124.687 54.1176 125.227 53.7051C125.779 53.2948 126.341 52.8315 126.912 52.315C127.484 51.7985 128.033 51.2718 128.56 50.7348C129.098 50.2 129.569 49.7014 129.972 49.2391C130.035 49.1652 130.102 49.0984 130.174 49.0385ZM134.811 58.6302C134.622 58.5952 134.477 58.489 134.376 58.3116C134.275 58.1341 134.249 57.9097 134.299 57.6383C134.337 57.4378 134.439 57.115 134.607 56.6702C134.789 56.2157 134.991 55.6857 135.213 55.08C135.447 54.4765 135.667 53.8461 135.875 53.1889C136.084 52.5199 136.247 51.8727 136.363 51.2473C136.42 50.9405 136.538 50.7306 136.717 50.6174C136.911 50.4946 137.108 50.4518 137.309 50.489C137.497 50.524 137.617 50.6682 137.668 50.9217C137.719 51.1752 137.649 51.6504 137.459 52.3474C138.224 51.2445 139 50.3875 139.784 49.7762C140.583 49.1553 141.336 48.7457 142.044 48.5474C142.754 48.3373 143.369 48.2804 143.888 48.3766C144.23 48.44 144.465 48.5567 144.592 48.7268C144.733 48.8872 144.788 49.05 144.758 49.2151C144.716 49.4393 144.589 49.5988 144.376 49.6936C144.177 49.7788 143.838 49.8624 143.359 49.9445C142.803 50.0489 142.281 50.1963 141.794 50.3868C141.322 50.5676 140.851 50.8344 140.383 51.187C139.927 51.5417 139.454 52.0156 138.966 52.6086C138.48 53.1897 137.966 53.9243 137.423 54.8122C136.88 55.7001 136.277 56.7784 135.615 58.0469C135.496 58.2934 135.368 58.4588 135.23 58.5431C135.104 58.6296 134.965 58.6587 134.811 58.6302ZM155.864 54.1477C155.961 54.8124 156.045 55.5115 156.116 56.2448C156.199 56.9803 156.244 57.6963 156.249 58.3929C156.268 59.0799 156.229 59.683 156.133 60.2022C156.024 60.7921 155.787 61.2485 155.422 61.5714C155.071 61.8847 154.653 62.1001 154.167 62.2176C153.679 62.3469 153.181 62.401 152.672 62.38C152.173 62.3729 151.717 62.3311 151.304 62.2545C150.974 62.1933 150.757 62.0799 150.653 61.9142C150.56 61.7626 150.527 61.6101 150.555 61.4567C150.575 61.3505 150.636 61.2519 150.738 61.161C150.843 61.0584 151.07 61.0151 151.421 61.0314C151.687 61.0441 151.993 61.0397 152.339 61.0184C152.696 60.9992 153.048 60.9483 153.392 60.8658C153.749 60.7854 154.052 60.6647 154.302 60.5034C154.553 60.3304 154.707 60.0964 154.761 59.8014C154.882 59.1525 154.911 58.4684 154.849 57.749C154.799 57.0319 154.746 56.2959 154.69 55.5412C154.159 56.1018 153.57 56.6456 152.924 57.1725C152.277 57.6995 151.6 58.1904 150.893 58.6452C150.187 59.1 149.486 59.4888 148.791 59.8117C148.097 60.1345 147.438 60.3663 146.814 60.5069C146.19 60.6475 145.63 60.6719 145.134 60.5801C144.32 60.4292 143.712 60.0235 143.309 59.3632C142.909 58.691 142.816 57.7767 143.031 56.6204C143.151 55.9715 143.339 55.3168 143.596 54.6566C143.864 53.9985 144.158 53.4 144.478 52.8612C144.811 52.3128 145.129 51.8835 145.431 51.5733C145.734 51.2512 145.986 51.1088 146.187 51.146C146.34 51.1744 146.461 51.2457 146.55 51.3597C146.651 51.476 146.679 51.6521 146.635 51.8881C146.611 52.0179 146.51 52.2676 146.332 52.6373C146.156 52.9952 145.954 53.4217 145.728 53.9168C145.505 54.4001 145.287 54.9151 145.076 55.4618C144.867 55.9966 144.718 56.506 144.628 56.9897C144.51 57.6269 144.53 58.1126 144.687 58.4469C144.857 58.7835 145.13 58.9867 145.508 59.0567C145.968 59.142 146.521 59.0918 147.165 58.9062C147.81 58.7205 148.49 58.4438 149.205 58.0759C149.922 57.6963 150.624 57.2651 151.312 56.7823C152.013 56.2898 152.652 55.7736 153.228 55.2335C153.804 54.6935 154.274 54.1643 154.639 53.6461C154.645 53.4153 154.658 53.1798 154.678 52.9394C154.71 52.7013 154.748 52.4642 154.792 52.2282C154.866 51.827 154.993 51.5028 155.174 51.2555C155.356 50.9963 155.544 50.8054 155.737 50.6826C155.943 50.562 156.105 50.5127 156.223 50.5346C156.482 50.5827 156.665 50.7507 156.77 51.0387C156.875 51.3267 156.882 51.7185 156.79 52.2141C156.735 52.5091 156.629 52.8189 156.471 53.1436C156.313 53.4682 156.111 53.803 155.864 54.1477ZM147.175 49.0773C146.844 49.0161 146.601 48.8795 146.445 48.6675C146.303 48.4459 146.26 48.1817 146.317 47.8749C146.383 47.521 146.553 47.2597 146.829 47.091C147.118 46.9128 147.416 46.8521 147.723 46.9089C148.065 46.9723 148.318 47.1229 148.481 47.3607C148.659 47.5888 148.715 47.8799 148.649 48.2339C148.601 48.4934 148.425 48.7172 148.122 48.905C147.832 49.0833 147.517 49.1407 147.175 49.0773ZM172.6 64.7369C172.553 64.9235 172.448 65.0626 172.284 65.1544C172.121 65.2461 171.945 65.2745 171.756 65.2395C171.544 65.2002 171.38 65.0966 171.264 64.9287C171.149 64.7609 171.119 64.5295 171.173 64.2345C171.315 63.4676 171.505 62.6423 171.742 61.7587C171.981 60.8633 172.236 59.983 172.506 59.1177C172.778 58.2407 173.038 57.4344 173.284 56.699C172.792 57.1814 172.253 57.7162 171.668 58.3034C171.095 58.8929 170.512 59.4742 169.917 60.0475C169.323 60.6208 168.75 61.1432 168.199 61.6146C167.65 62.0743 167.161 62.4413 166.732 62.7157C166.305 62.9783 165.973 63.0877 165.737 63.0439C165.301 62.963 164.955 62.722 164.7 62.3207C164.447 61.9077 164.369 61.4357 164.468 60.9048C164.507 60.6924 164.584 60.4077 164.699 60.0507C164.816 59.6819 164.943 59.2964 165.078 58.8944C165.214 58.4924 165.338 58.1187 165.451 57.7735C165.566 57.4165 165.64 57.1495 165.673 56.9725C165.703 56.8073 165.712 56.6624 165.698 56.5379C165.699 56.4037 165.652 56.3279 165.557 56.3104C165.416 56.2842 165.191 56.4074 164.885 56.68C164.58 56.9409 164.229 57.2847 163.833 57.7116C163.448 58.1407 163.047 58.5971 162.627 59.0809C162.22 59.5668 161.836 60.0264 161.475 60.4599C161.116 60.8816 160.817 61.2106 160.578 61.447C160.376 61.6781 160.2 61.8407 160.048 61.9346C159.896 62.0285 159.726 62.058 159.537 62.023C159.313 61.9815 159.129 61.8252 158.984 61.5542C158.85 61.2855 158.815 60.98 158.879 60.6378C158.916 60.4372 159.009 60.1311 159.159 59.7195C159.311 59.296 159.488 58.8346 159.69 58.3351C159.904 57.8378 160.11 57.3512 160.308 56.8753C160.52 56.3898 160.701 55.9778 160.849 55.6391C161.018 55.2554 161.186 55.0059 161.354 54.8906C161.521 54.7752 161.688 54.7329 161.853 54.7635C162.077 54.805 162.239 54.9204 162.338 55.1097C162.451 55.2893 162.477 55.5443 162.416 55.8747C162.405 55.9337 162.34 56.0864 162.221 56.3328C162.105 56.5675 161.959 56.8579 161.785 57.204C161.625 57.5404 161.45 57.8924 161.26 58.2599C161.082 58.6296 160.927 58.9731 160.794 59.2903C161.135 58.9019 161.494 58.4802 161.871 58.0253C162.26 57.5727 162.648 57.1259 163.035 56.685C163.424 56.2323 163.804 55.8268 164.176 55.4685C164.549 55.0984 164.901 54.8157 165.23 54.6204C165.559 54.4251 165.853 54.3515 166.113 54.3996C166.42 54.4565 166.685 54.6034 166.91 54.8403C167.146 55.0793 167.318 55.3735 167.424 55.7227C167.53 56.0719 167.547 56.4411 167.475 56.8305C167.424 57.1019 167.306 57.4766 167.12 57.9547C166.936 58.4209 166.738 58.9274 166.527 59.4741C166.328 60.0229 166.169 60.5489 166.052 61.0519C166.03 61.1698 166.054 61.2354 166.125 61.2485C166.184 61.2595 166.262 61.2313 166.36 61.164C166.772 60.8498 167.234 60.4656 167.746 60.0111C168.259 59.5449 168.784 59.0503 169.32 58.5273C169.868 58.0064 170.408 57.4963 170.94 56.9969C171.474 56.4856 171.968 56.0279 172.421 55.6238C172.889 55.21 173.29 54.8878 173.626 54.6571C173.973 54.4286 174.229 54.3296 174.395 54.3602C174.749 54.4258 175.001 54.5764 175.153 54.812C175.305 55.0476 175.337 55.4013 175.249 55.8733C175.179 56.2509 175.059 56.7351 174.888 57.3259C174.73 57.9189 174.544 58.5617 174.33 59.2543C174.128 59.9492 173.913 60.6477 173.685 61.3499C173.471 62.0426 173.266 62.688 173.07 63.2863C172.876 63.8727 172.719 64.3562 172.6 64.7369ZM68.3306 98.1712C68.4604 98.1953 68.5745 98.2713 68.6728 98.3994C68.7711 98.5274 68.7984 98.7095 68.7546 98.9454C68.7196 99.1342 68.5365 99.3322 68.2052 99.5393C67.8761 99.7346 67.4655 99.9086 66.9734 100.062C66.4931 100.217 65.9851 100.324 65.4493 100.383C64.9113 100.454 64.4181 100.448 63.9698 100.365C63.3326 100.247 62.7615 99.9704 62.2564 99.5351C61.763 99.1019 61.3973 98.5399 61.1593 97.8489C60.9234 97.1462 60.8896 96.3405 61.058 95.432C61.2067 94.6297 61.5029 93.8547 61.9466 93.107C62.3903 92.3593 62.9229 91.6587 63.5444 91.005C64.1777 90.3535 64.8484 89.7638 65.5565 89.236C66.2763 88.7104 66.9808 88.2674 67.6701 87.907C68.3593 87.5465 68.9875 87.2846 69.5548 87.1213C70.1361 86.9483 70.5978 86.8935 70.94 86.9569C71.1759 87.0007 71.3483 87.1242 71.4571 87.3274C71.5799 87.521 71.6227 87.7181 71.5855 87.9187C71.5636 88.0367 71.5064 88.1481 71.4137 88.253C71.3328 88.36 71.2091 88.4347 71.0426 88.4771C70.2057 88.7125 69.3373 89.052 68.4374 89.4954C67.5376 89.9388 66.6814 90.4758 65.8689 91.1063C65.0586 91.725 64.366 92.4326 63.7912 93.2292C63.2186 94.014 62.8437 94.8843 62.6666 95.84C62.5135 96.6659 62.5912 97.3333 62.8997 97.842C63.2103 98.3389 63.7019 98.6497 64.3745 98.7744C64.7284 98.84 65.1062 98.8429 65.5079 98.783C65.9213 98.7254 66.3144 98.6457 66.6872 98.544C67.0739 98.4326 67.4091 98.336 67.6928 98.2544C67.9882 98.1749 68.2008 98.1472 68.3306 98.1712ZM72.7664 102.526C72.5068 102.478 72.3204 102.365 72.2073 102.185C72.0919 102.017 72.0878 101.644 72.195 101.066C72.2934 100.535 72.5157 99.8622 72.8619 99.0477C73.2104 98.2213 73.6412 97.3126 74.1544 96.3215C74.6676 95.3305 75.2286 94.3116 75.8376 93.2651C76.4487 92.2067 77.0731 91.1752 77.7108 90.1706C78.3626 89.1564 78.9791 88.2333 79.5605 87.4013C79.7751 87.0994 79.977 86.8988 80.1663 86.7997C80.3555 86.7005 80.5622 86.6717 80.7864 86.7132C80.9398 86.7417 81.0608 86.8129 81.1495 86.927C81.2522 87.0314 81.285 87.184 81.2478 87.3846C81.2347 87.4553 81.1153 87.6712 80.8898 88.0322C80.676 88.3953 80.3803 88.8714 80.0027 89.4604C79.6368 90.0516 79.2272 90.7141 78.7739 91.4478C78.3206 92.1814 77.8538 92.9553 77.3734 93.7694C76.893 94.5835 76.4292 95.4068 75.982 96.2392C75.537 97.0599 75.1398 97.8528 74.7906 98.6179C74.4413 99.3831 74.1722 100.078 73.9833 100.702C74.3299 100.412 74.7353 100.036 75.1995 99.5724C75.6636 99.1093 76.1591 98.6092 76.6857 98.0722C77.2124 97.5351 77.7439 97.0051 78.2802 96.4821C78.8165 95.9591 79.3371 95.488 79.8419 95.069C80.3467 94.65 80.8034 94.3258 81.2121 94.0964C81.6347 93.8574 81.9817 93.7631 82.2531 93.8134C82.7014 93.8965 83.0351 94.1048 83.254 94.4383C83.4868 94.7621 83.5453 95.2367 83.4294 95.8621C83.3638 96.2161 83.2143 96.6277 82.9809 97.097C82.7592 97.5685 82.5096 98.0593 82.232 98.5692C81.9545 99.0792 81.699 99.5688 81.4655 100.038C81.2439 100.51 81.1003 100.922 81.0347 101.276C80.945 101.76 81.0831 102.036 81.4488 102.104C82.0152 102.209 82.6045 102.19 83.2168 102.047C83.8409 101.906 84.4464 101.701 85.0333 101.432C85.6225 101.15 86.1703 100.861 86.6768 100.565C87.1856 100.256 87.6185 99.9947 87.9755 99.7802C88.3606 99.5464 88.6652 99.4503 88.8894 99.4919C89.1726 99.5443 89.2868 99.7181 89.2321 100.013C89.2168 100.096 89.1816 100.187 89.1266 100.286C89.0715 100.386 88.9519 100.504 88.7679 100.641C88.5398 100.818 88.217 101.045 87.7996 101.322C87.394 101.601 86.9251 101.892 86.3928 102.196C85.8722 102.502 85.3148 102.777 84.7204 103.021C84.1378 103.267 83.5485 103.451 82.9524 103.572C82.3703 103.684 81.8196 103.692 81.3005 103.596C80.5925 103.464 80.081 103.162 79.766 102.689C79.465 102.206 79.3812 101.605 79.5146 100.885C79.5977 100.436 79.769 99.9068 80.0287 99.2959C80.2884 98.6849 80.59 98.0452 80.9336 97.3766C81.2912 96.6984 81.6455 96.0379 81.9965 95.3951C81.5708 95.5847 81.0857 95.8976 80.5411 96.3336C80.0105 96.7601 79.4432 97.2529 78.8392 97.8122C78.2373 98.3597 77.6333 98.919 77.0271 99.4901C76.4326 100.063 75.8588 100.592 75.3054 101.075C74.7661 101.549 74.2759 101.921 73.8349 102.194C73.3939 102.466 73.0378 102.577 72.7664 102.526ZM95.5976 98.0441C95.5276 98.4217 95.3408 98.7715 95.037 99.0935C94.7354 99.4037 94.3593 99.688 93.9087 99.9462C93.4603 100.193 92.9739 100.414 92.4494 100.609C91.925 100.805 91.4071 100.965 90.8958 101.09C90.3844 101.215 89.9221 101.306 89.5086 101.364C89.329 101.807 89.2063 102.205 89.1407 102.559C89.0992 102.783 89.1227 102.952 89.2114 103.066C89.3001 103.18 89.4566 103.258 89.6807 103.3C90.1763 103.392 90.7178 103.401 91.3051 103.326C91.8925 103.252 92.5015 103.127 93.1321 102.951C93.7628 102.775 94.3731 102.577 94.9631 102.357C95.5531 102.137 96.0926 101.925 96.5817 101.723C97.0825 101.523 97.4968 101.362 97.8246 101.239C98.1524 101.117 98.3635 101.065 98.4578 101.082C98.5994 101.108 98.6969 101.175 98.7502 101.283C98.8175 101.381 98.8402 101.489 98.8183 101.607C98.8008 101.701 98.6194 101.857 98.2742 102.073C97.9407 102.292 97.4982 102.54 96.9466 102.816C96.3972 103.08 95.7867 103.345 95.115 103.611C94.4432 103.877 93.7523 104.115 93.0421 104.326C92.3437 104.538 91.6751 104.689 91.0361 104.778C90.409 104.869 89.8595 104.871 89.3875 104.783C88.774 104.67 88.3387 104.351 88.0818 103.827C87.825 103.304 87.7862 102.558 87.9655 101.591C88.0858 100.942 88.2897 100.302 88.5774 99.672C88.8768 99.0441 89.2298 98.4566 89.6363 97.9095C90.0568 97.3528 90.4937 96.8724 90.9469 96.4682C91.4141 96.0544 91.8794 95.7501 92.3427 95.5552C92.8081 95.3486 93.2355 95.2814 93.6249 95.3535C94.3682 95.4913 94.914 95.806 95.2622 96.2977C95.6105 96.7894 95.7223 97.3715 95.5976 98.0441ZM90.1329 100.07C90.5402 99.9138 90.9615 99.7478 91.3968 99.5721C91.8321 99.3965 92.239 99.2095 92.6175 99.0112C92.9959 98.8129 93.3117 98.5907 93.5648 98.3447C93.8318 98.0891 93.9938 97.8079 94.0507 97.5011C94.1316 97.0645 93.936 96.8025 93.4641 96.715C93.1691 96.6604 92.8214 96.7912 92.4211 97.1075C92.0347 97.4143 91.6394 97.8353 91.2351 98.3705C90.8307 98.9058 90.4634 99.4724 90.1329 100.07ZM99.2445 106.866C98.6663 106.759 98.1889 106.537 97.8123 106.198C97.4496 105.85 97.1955 105.443 97.0501 104.977C96.9046 104.511 96.8735 104.053 96.9566 103.605C97.1315 102.661 97.4563 101.83 97.931 101.113C98.4079 100.383 98.9499 99.7638 99.557 99.2539C100.178 98.7344 100.793 98.3114 101.403 97.9851C102.025 97.6609 102.573 97.4331 103.049 97.3016C103.539 97.1605 103.879 97.1075 104.067 97.1425C104.445 97.2125 104.599 97.4362 104.529 97.8138C104.496 97.9908 104.34 98.1754 104.06 98.3676C103.782 98.5481 103.432 98.7578 103.01 98.9968C102.587 99.2358 102.133 99.5117 101.648 99.8245C101.165 100.126 100.696 100.484 100.24 100.9C99.7872 101.304 99.3879 101.779 99.0426 102.326C98.6995 102.86 98.4634 103.475 98.3344 104.171C98.2032 104.879 98.4266 105.287 99.0048 105.394C99.5358 105.492 100.097 105.493 100.689 105.395C101.292 105.299 101.895 105.143 102.497 104.925C103.113 104.697 103.707 104.453 104.28 104.193C104.853 103.933 105.375 103.682 105.847 103.44C106.322 103.186 106.719 102.986 107.039 102.837C107.36 102.689 107.579 102.626 107.697 102.648C107.933 102.692 108.027 102.843 107.979 103.103C107.941 103.304 107.756 103.544 107.424 103.824C107.091 104.104 106.659 104.396 106.126 104.7C105.594 105.004 105.008 105.305 104.367 105.601C103.728 105.885 103.089 106.139 102.45 106.362C101.813 106.574 101.21 106.73 100.642 106.833C100.088 106.925 99.6221 106.936 99.2445 106.866ZM114.501 110.408C113.734 110.266 113.06 109.952 112.478 109.466C111.909 108.982 111.418 108.403 111.006 107.728C110.606 107.056 110.267 106.352 109.988 105.617C109.723 104.873 109.504 104.179 109.33 103.537C108.952 104.455 108.65 105.198 108.423 105.767C108.207 106.337 108.035 106.769 107.908 107.062C107.792 107.358 107.695 107.554 107.616 107.649C107.537 107.744 107.451 107.783 107.356 107.766C107.097 107.718 106.875 107.53 106.692 107.203C106.508 106.876 106.458 106.489 106.541 106.04C106.629 105.568 106.827 104.958 107.137 104.21C107.448 103.45 107.828 102.618 108.277 101.712C108.739 100.797 109.249 99.8602 109.805 98.9015C110.363 97.931 110.928 96.9921 111.498 96.085C112.083 95.1682 112.652 94.3399 113.204 93.6001C113.479 93.2362 113.698 93.0083 113.861 92.9165C114.037 92.827 114.23 92.8019 114.443 92.8412C114.785 92.9047 114.927 93.0957 114.868 93.4142C114.846 93.5322 114.786 93.6554 114.689 93.7839C114.604 93.9146 114.509 94.0618 114.406 94.2257C114.097 94.7055 113.753 95.2458 113.373 95.8466C113.005 96.4497 112.626 97.0811 112.235 97.7409C111.856 98.403 111.49 99.0613 111.137 99.7159C110.783 100.37 110.47 100.977 110.195 101.537C110.768 101.277 111.429 101.033 112.179 100.806C112.929 100.579 113.696 100.392 114.48 100.244C115.267 100.085 116.001 99.9766 116.682 99.9199C117.364 99.8632 117.917 99.8742 118.342 99.9529C118.566 99.9945 118.724 100.097 118.816 100.26C118.922 100.414 118.959 100.574 118.929 100.739C118.905 100.869 118.839 100.991 118.733 101.105C118.64 101.21 118.467 101.288 118.213 101.339C117.384 101.466 116.56 101.6 115.741 101.741C114.923 101.87 114.066 102.016 113.17 102.18C112.287 102.333 111.317 102.532 110.258 102.775C110.469 103.351 110.725 103.978 111.026 104.657C111.33 105.323 111.669 105.965 112.042 106.584C112.418 107.191 112.822 107.711 113.254 108.145C113.688 108.567 114.153 108.824 114.649 108.916C115.298 109.036 115.948 109.016 116.6 108.857C117.252 108.697 117.868 108.469 118.448 108.174C119.039 107.881 119.563 107.587 120.02 107.294C120.48 106.988 120.841 106.75 121.105 106.579C121.242 106.495 121.362 106.444 121.463 106.426C121.578 106.398 121.676 106.392 121.759 106.408C121.924 106.438 122.02 106.548 122.046 106.735C122.086 106.914 121.993 107.086 121.767 107.251C121.595 107.39 121.33 107.604 120.972 107.891C120.613 108.179 120.183 108.489 119.682 108.824C119.195 109.148 118.662 109.452 118.085 109.736C117.519 110.022 116.926 110.229 116.304 110.358C115.692 110.501 115.09 110.517 114.501 110.408ZM137.484 107.876C136.799 107.749 136.126 107.533 135.462 107.227C134.801 106.909 134.214 106.556 133.7 106.168C133.386 106.805 133.073 107.51 132.759 108.282C132.445 109.053 132.132 109.886 131.82 110.78C131.567 111.417 131.358 111.824 131.191 112C131.024 112.177 130.84 112.246 130.64 112.209C130.439 112.172 130.297 112.048 130.214 111.837C130.133 111.615 130.143 111.232 130.244 110.69C130.264 110.583 130.339 110.341 130.47 109.963C130.601 109.584 130.767 109.121 130.966 108.572C131.179 108.013 131.406 107.415 131.647 106.776C131.889 106.125 132.132 105.474 132.375 104.824C132.148 104.464 132.06 104.149 132.11 103.878C132.135 103.748 132.193 103.631 132.286 103.526C132.38 103.409 132.54 103.372 132.764 103.413C132.799 103.42 132.84 103.433 132.885 103.454C133.146 102.77 133.369 102.158 133.554 101.619C133.754 101.07 133.882 100.673 133.94 100.427C134.042 100.007 134.179 99.7273 134.352 99.5883C134.526 99.4376 134.708 99.3797 134.896 99.4147C135.05 99.4431 135.162 99.531 135.232 99.6783C135.305 99.8137 135.296 100.123 135.206 100.607C135.149 100.914 135.049 101.322 134.906 101.833C135.703 100.76 136.46 100.034 137.177 99.6543C137.906 99.2768 138.66 99.1602 139.439 99.3046C140.147 99.4358 140.718 99.7431 141.153 100.226C141.591 100.698 141.881 101.307 142.023 102.054C142.165 102.8 142.149 103.645 141.974 104.589C141.727 105.922 141.218 106.859 140.446 107.4C139.675 107.94 138.687 108.099 137.484 107.876ZM134.432 104.784C134.832 105.127 135.289 105.461 135.802 105.788C136.317 106.104 136.87 106.316 137.46 106.425C138.416 106.602 139.151 106.519 139.666 106.175C140.196 105.822 140.55 105.161 140.729 104.194C140.937 103.073 140.908 102.244 140.641 101.706C140.375 101.168 139.935 100.843 139.321 100.729C138.625 100.6 137.857 100.86 137.016 101.51C136.178 102.148 135.317 103.239 134.432 104.784ZM145.701 115.953C144.792 115.784 144.133 115.357 143.723 114.671C143.327 113.975 143.229 113.09 143.428 112.016C143.55 111.356 143.782 110.599 144.123 109.747C144.478 108.885 144.889 107.985 145.356 107.047C145.837 106.098 146.339 105.166 146.863 104.25C147.386 103.334 147.885 102.487 148.359 101.708C148.847 100.92 149.267 100.266 149.62 99.7454C149.82 99.453 150.051 99.3309 150.31 99.379C150.664 99.4446 150.801 99.6957 150.72 100.132C150.694 100.274 150.575 100.551 150.364 100.963C150.154 101.376 149.882 101.887 149.549 102.497C149.219 103.094 148.858 103.76 148.465 104.492C148.073 105.225 147.671 105.981 147.258 106.758C146.86 107.527 146.48 108.292 146.119 109.055C145.76 109.806 145.451 110.518 145.192 111.19C144.933 111.862 144.758 112.446 144.666 112.942C144.607 113.26 144.643 113.529 144.773 113.749C144.917 113.958 145.137 114.091 145.432 114.145C145.974 114.246 146.537 114.24 147.119 114.128C147.715 114.007 148.296 113.834 148.863 113.61C149.431 113.373 149.952 113.134 150.424 112.892C150.91 112.64 151.32 112.436 151.654 112.278C151.991 112.108 152.218 112.035 152.336 112.056C152.595 112.105 152.699 112.27 152.646 112.553C152.629 112.648 152.502 112.807 152.265 113.032C152.03 113.245 151.722 113.493 151.34 113.776C150.958 114.059 150.521 114.344 150.028 114.631C149.549 114.908 149.051 115.164 148.531 115.397C148.026 115.621 147.526 115.784 147.031 115.888C146.545 116.005 146.102 116.027 145.701 115.953ZM152.231 116.907C151.783 116.824 151.45 116.548 151.231 116.081C151.027 115.603 150.987 115.028 151.111 114.356C151.227 113.73 151.496 113.139 151.916 112.583C152.348 112.028 152.877 111.516 153.501 111.046C154.125 110.576 154.787 110.161 155.488 109.803C156.192 109.433 156.883 109.128 157.562 108.888C158.253 108.65 158.877 108.478 159.433 108.374C159.989 108.27 160.421 108.246 160.728 108.303C160.893 108.333 161.022 108.394 161.115 108.484C161.21 108.563 161.242 108.685 161.212 108.85C161.192 108.956 161.132 109.049 161.032 109.128C161.044 109.13 161.056 109.133 161.068 109.135C161.327 109.183 161.429 109.36 161.372 109.667C161.352 109.773 161.27 109.984 161.126 110.299C160.985 110.602 160.816 110.986 160.62 111.45C160.424 111.914 160.23 112.433 160.039 113.008C159.849 113.571 159.698 114.153 159.587 114.755C159.493 115.262 159.64 115.552 160.03 115.624C160.466 115.705 160.927 115.687 161.413 115.569C161.898 115.452 162.38 115.291 162.857 115.087C163.336 114.87 163.779 114.653 164.186 114.436C164.594 114.206 164.941 114.014 165.226 113.86C165.511 113.705 165.707 113.638 165.813 113.657C165.907 113.675 165.984 113.72 166.044 113.792C166.104 113.864 166.122 113.965 166.098 114.095C166.076 114.213 165.919 114.403 165.626 114.666C165.333 114.929 164.956 115.219 164.494 115.536C164.033 115.854 163.526 116.15 162.975 116.426C162.423 116.703 161.872 116.912 161.321 117.054C160.77 117.195 160.264 117.224 159.804 117.138C159.45 117.073 159.145 116.907 158.89 116.64C158.648 116.363 158.488 115.943 158.409 115.379C158.342 114.817 158.395 114.07 158.568 113.138L158.65 112.696C157.895 113.544 157.125 114.305 156.342 114.977C155.57 115.652 154.828 116.167 154.115 116.523C153.414 116.882 152.786 117.009 152.231 116.907ZM160.155 109.515C160.092 109.528 160.003 109.548 159.888 109.575C159.299 109.722 158.676 109.924 158.018 110.181C157.372 110.439 156.73 110.741 156.093 111.087C155.467 111.435 154.891 111.81 154.364 112.213C153.838 112.616 153.399 113.041 153.048 113.488C152.697 113.936 152.477 114.395 152.39 114.867C152.361 115.021 152.369 115.144 152.413 115.238C152.468 115.333 152.578 115.397 152.744 115.427C152.98 115.471 153.314 115.38 153.746 115.155C154.18 114.919 154.668 114.594 155.208 114.181C155.76 113.771 156.322 113.308 156.893 112.791C157.465 112.275 158.014 111.748 158.541 111.211C159.079 110.676 159.55 110.178 159.953 109.715C160.016 109.642 160.083 109.575 160.155 109.515ZM164.4 123.519C163.492 123.351 162.842 123.139 162.45 122.883C162.058 122.627 161.889 122.352 161.944 122.057C161.979 121.868 162.066 121.726 162.206 121.629C162.358 121.536 162.528 121.506 162.717 121.541C162.917 121.578 163.201 121.661 163.567 121.79C163.932 121.931 164.297 122.035 164.663 122.103C165.878 122.328 166.942 122.153 167.854 121.578C168.766 121.002 169.566 120.01 170.255 118.6C170.946 117.178 171.577 115.318 172.15 113.019C171.662 113.673 171.128 114.319 170.546 114.956C169.978 115.583 169.386 116.144 168.769 116.64C168.166 117.126 167.567 117.497 166.97 117.753C166.374 118.008 165.816 118.088 165.297 117.992C164.801 117.9 164.458 117.708 164.268 117.417C164.09 117.127 164.053 116.7 164.158 116.133C164.252 115.626 164.493 115.115 164.882 114.601C165.272 114.076 165.757 113.567 166.336 113.077C166.915 112.586 167.536 112.134 168.198 111.72C168.863 111.294 169.516 110.932 170.156 110.636C170.811 110.33 171.408 110.105 171.947 109.961C172.487 109.817 172.91 109.774 173.217 109.83C173.523 109.887 173.74 110.037 173.865 110.28C173.991 110.523 173.999 110.94 173.89 111.53C173.634 112.91 173.338 114.246 173.001 115.539C172.678 116.821 172.282 117.999 171.815 119.072C171.348 120.145 170.777 121.052 170.102 121.793C169.438 122.549 168.637 123.084 167.7 123.398C166.763 123.713 165.663 123.753 164.4 123.519ZM172.152 111.226C171.492 111.494 170.806 111.806 170.093 112.162C169.38 112.518 168.703 112.912 168.062 113.342C167.433 113.774 166.901 114.243 166.465 114.748C166.03 115.254 165.76 115.789 165.655 116.356C165.622 116.533 165.718 116.642 165.942 116.683C166.119 116.716 166.386 116.625 166.743 116.411C167.114 116.187 167.537 115.881 168.011 115.493C168.488 115.093 168.979 114.653 169.483 114.173C170.001 113.683 170.49 113.182 170.951 112.669C171.412 112.157 171.813 111.675 172.152 111.226ZM176.118 120.949C175.893 120.908 175.708 120.788 175.562 120.59C175.418 120.38 175.379 120.092 175.447 119.727C175.495 119.467 175.597 119.114 175.753 118.667C175.912 118.208 176.101 117.712 176.322 117.179C176.543 116.647 176.768 116.121 176.999 115.602C177.243 115.074 177.477 114.605 177.699 114.194C177.922 113.784 178.106 113.482 178.251 113.29C178.376 113.142 178.484 113.052 178.576 113.02C178.679 112.991 178.772 112.984 178.854 112.999C179.019 113.029 179.151 113.109 179.249 113.237C179.36 113.367 179.386 113.586 179.329 113.892C179.297 114.069 179.206 114.358 179.059 114.758C178.926 115.148 178.756 115.605 178.549 116.128C178.356 116.641 178.148 117.17 177.925 117.715C177.716 118.249 177.512 118.761 177.312 119.248C177.111 119.736 176.95 120.145 176.828 120.477C176.745 120.657 176.635 120.789 176.498 120.873C176.374 120.948 176.247 120.973 176.118 120.949ZM179.666 111.483C179.395 111.433 179.15 111.302 178.933 111.091C178.728 110.882 178.659 110.595 178.727 110.229C178.784 109.922 178.9 109.688 179.077 109.525C179.265 109.365 179.467 109.262 179.683 109.217C179.913 109.162 180.105 109.148 180.258 109.177C180.412 109.205 180.576 109.272 180.752 109.378C180.941 109.474 181.091 109.624 181.199 109.827C181.31 110.019 181.335 110.279 181.274 110.61C181.233 110.834 181.119 111.02 180.933 111.169C180.748 111.306 180.536 111.4 180.294 111.453C180.064 111.508 179.855 111.518 179.666 111.483ZM181.164 122.269C180.716 122.186 180.383 121.911 180.164 121.443C179.96 120.966 179.92 120.391 180.044 119.718C180.16 119.093 180.429 118.502 180.849 117.945C181.281 117.391 181.81 116.878 182.434 116.408C183.058 115.938 183.72 115.524 184.421 115.166C185.125 114.796 185.816 114.49 186.495 114.25C187.186 114.012 187.81 113.841 188.366 113.737C188.922 113.632 189.354 113.608 189.661 113.665C189.826 113.696 189.955 113.756 190.048 113.847C190.143 113.926 190.176 114.048 190.145 114.213C190.125 114.319 190.065 114.412 189.965 114.491C189.977 114.493 189.989 114.495 190.001 114.497C190.26 114.545 190.362 114.723 190.305 115.03C190.285 115.136 190.203 115.346 190.059 115.661C189.918 115.965 189.749 116.348 189.553 116.812C189.357 117.277 189.164 117.796 188.972 118.371C188.782 118.933 188.631 119.516 188.52 120.117C188.426 120.625 188.573 120.915 188.963 120.987C189.399 121.068 189.86 121.049 190.346 120.932C190.831 120.814 191.313 120.653 191.79 120.449C192.269 120.233 192.712 120.016 193.119 119.798C193.527 119.569 193.874 119.377 194.159 119.222C194.444 119.067 194.64 119 194.746 119.02C194.84 119.037 194.917 119.082 194.977 119.154C195.037 119.226 195.055 119.327 195.031 119.457C195.009 119.575 194.852 119.765 194.559 120.029C194.266 120.292 193.889 120.582 193.427 120.899C192.966 121.216 192.459 121.513 191.908 121.789C191.356 122.065 190.805 122.274 190.254 122.416C189.703 122.558 189.197 122.586 188.737 122.501C188.383 122.435 188.078 122.269 187.823 122.002C187.581 121.725 187.421 121.305 187.342 120.741C187.275 120.18 187.328 119.433 187.501 118.501L187.583 118.058C186.828 118.907 186.058 119.667 185.275 120.34C184.503 121.014 183.761 121.53 183.048 121.886C182.347 122.244 181.719 122.372 181.164 122.269ZM189.088 114.877C189.025 114.89 188.936 114.91 188.821 114.938C188.232 115.085 187.609 115.287 186.951 115.543C186.305 115.802 185.663 116.104 185.026 116.449C184.4 116.797 183.824 117.172 183.298 117.575C182.771 117.978 182.332 118.403 181.981 118.851C181.63 119.298 181.41 119.758 181.323 120.23C181.294 120.383 181.302 120.507 181.346 120.6C181.401 120.696 181.511 120.759 181.677 120.79C181.913 120.833 182.247 120.743 182.679 120.518C183.113 120.281 183.601 119.956 184.141 119.544C184.693 119.134 185.255 118.67 185.826 118.154C186.398 117.637 186.947 117.111 187.474 116.574C188.012 116.039 188.483 115.54 188.886 115.078C188.949 115.004 189.016 114.937 189.088 114.877ZM193.725 124.469C193.537 124.434 193.392 124.328 193.29 124.15C193.189 123.973 193.163 123.748 193.214 123.477C193.251 123.276 193.353 122.954 193.521 122.509C193.703 122.054 193.905 121.524 194.127 120.919C194.361 120.315 194.582 119.685 194.789 119.028C194.998 118.359 195.161 117.711 195.277 117.086C195.334 116.779 195.452 116.569 195.632 116.456C195.825 116.333 196.022 116.291 196.223 116.328C196.412 116.363 196.531 116.507 196.582 116.76C196.633 117.014 196.563 117.489 196.373 118.186C197.139 117.083 197.914 116.226 198.698 115.615C199.497 114.994 200.25 114.584 200.958 114.386C201.668 114.176 202.283 114.119 202.802 114.215C203.144 114.279 203.379 114.395 203.506 114.565C203.647 114.726 203.702 114.889 203.672 115.054C203.63 115.278 203.503 115.438 203.29 115.532C203.091 115.618 202.752 115.701 202.273 115.783C201.717 115.888 201.195 116.035 200.709 116.225C200.236 116.406 199.765 116.673 199.297 117.026C198.841 117.38 198.369 117.854 197.88 118.447C197.394 119.028 196.88 119.763 196.337 120.651C195.794 121.539 195.191 122.617 194.529 123.886C194.41 124.132 194.282 124.298 194.144 124.382C194.018 124.468 193.879 124.497 193.725 124.469ZM214.778 119.986C214.875 120.651 214.959 121.35 215.03 122.084C215.114 122.819 215.158 123.535 215.163 124.232C215.182 124.919 215.144 125.522 215.047 126.041C214.938 126.631 214.701 127.087 214.336 127.41C213.985 127.723 213.567 127.939 213.081 128.056C212.593 128.186 212.095 128.24 211.587 128.219C211.087 128.212 210.631 128.17 210.219 128.093C209.888 128.032 209.671 127.919 209.568 127.753C209.474 127.601 209.441 127.449 209.469 127.295C209.489 127.189 209.55 127.091 209.652 127C209.757 126.897 209.984 126.854 210.335 126.87C210.602 126.883 210.907 126.878 211.253 126.857C211.611 126.838 211.962 126.787 212.307 126.705C212.663 126.624 212.966 126.503 213.216 126.342C213.468 126.169 213.621 125.935 213.675 125.64C213.796 124.991 213.825 124.307 213.763 123.588C213.713 122.871 213.66 122.135 213.605 121.38C213.074 121.941 212.485 122.484 211.838 123.011C211.191 123.538 210.514 124.029 209.807 124.484C209.101 124.939 208.4 125.328 207.706 125.65C207.011 125.973 206.352 126.205 205.728 126.346C205.104 126.486 204.544 126.511 204.048 126.419C203.234 126.268 202.626 125.862 202.224 125.202C201.823 124.53 201.73 123.615 201.945 122.459C202.065 121.81 202.253 121.156 202.51 120.495C202.778 119.837 203.072 119.239 203.392 118.7C203.726 118.152 204.043 117.722 204.345 117.412C204.648 117.09 204.901 116.948 205.101 116.985C205.255 117.013 205.376 117.084 205.464 117.198C205.565 117.315 205.593 117.491 205.549 117.727C205.525 117.857 205.424 118.106 205.246 118.476C205.07 118.834 204.869 119.26 204.643 119.756C204.419 120.239 204.201 120.754 203.99 121.3C203.781 121.835 203.632 122.345 203.542 122.828C203.424 123.466 203.444 123.951 203.602 124.286C203.771 124.622 204.045 124.825 204.422 124.895C204.882 124.981 205.435 124.931 206.079 124.745C206.724 124.559 207.404 124.283 208.119 123.915C208.836 123.535 209.538 123.104 210.226 122.621C210.927 122.129 211.566 121.612 212.142 121.072C212.718 120.532 213.189 120.003 213.553 119.485C213.559 119.254 213.572 119.019 213.593 118.778C213.624 118.54 213.662 118.303 213.706 118.067C213.78 117.666 213.908 117.342 214.088 117.094C214.27 116.835 214.458 116.644 214.652 116.521C214.857 116.401 215.019 116.351 215.137 116.373C215.396 116.421 215.579 116.589 215.684 116.877C215.789 117.165 215.796 117.557 215.704 118.053C215.649 118.348 215.543 118.658 215.385 118.982C215.228 119.307 215.025 119.642 214.778 119.986ZM206.089 114.916C205.758 114.855 205.515 114.718 205.359 114.506C205.217 114.285 205.175 114.02 205.231 113.714C205.297 113.36 205.468 113.098 205.743 112.93C206.032 112.751 206.33 112.691 206.637 112.748C206.979 112.811 207.232 112.962 207.395 113.199C207.573 113.428 207.629 113.719 207.563 114.073C207.515 114.332 207.339 114.556 207.036 114.744C206.747 114.922 206.431 114.979 206.089 114.916ZM231.514 130.576C231.467 130.762 231.362 130.901 231.198 130.993C231.035 131.085 230.859 131.113 230.67 131.078C230.458 131.039 230.294 130.935 230.178 130.767C230.063 130.6 230.033 130.368 230.087 130.073C230.23 129.306 230.419 128.481 230.656 127.597C230.895 126.702 231.15 125.822 231.42 124.956C231.693 124.079 231.952 123.273 232.198 122.538C231.706 123.02 231.167 123.555 230.583 124.142C230.01 124.732 229.426 125.313 228.831 125.886C228.237 126.46 227.664 126.982 227.113 127.453C226.564 127.913 226.075 128.28 225.646 128.554C225.219 128.817 224.887 128.926 224.651 128.883C224.215 128.802 223.869 128.561 223.614 128.159C223.361 127.746 223.284 127.274 223.382 126.744C223.421 126.531 223.498 126.246 223.613 125.889C223.731 125.521 223.857 125.135 223.993 124.733C224.128 124.331 224.252 123.957 224.365 123.612C224.48 123.255 224.554 122.988 224.587 122.811C224.617 122.646 224.626 122.501 224.612 122.377C224.613 122.242 224.566 122.167 224.471 122.149C224.33 122.123 224.106 122.246 223.799 122.519C223.494 122.78 223.144 123.123 222.747 123.55C222.363 123.979 221.961 124.436 221.542 124.92C221.134 125.405 220.75 125.865 220.389 126.299C220.03 126.72 219.731 127.049 219.492 127.286C219.29 127.517 219.114 127.679 218.962 127.773C218.811 127.867 218.64 127.897 218.452 127.862C218.227 127.82 218.043 127.664 217.898 127.393C217.764 127.124 217.73 126.819 217.793 126.477C217.83 126.276 217.924 125.97 218.073 125.558C218.225 125.135 218.402 124.673 218.604 124.174C218.818 123.677 219.025 123.19 219.223 122.714C219.435 122.229 219.615 121.816 219.763 121.478C219.932 121.094 220.1 120.845 220.268 120.729C220.436 120.614 220.602 120.572 220.767 120.602C220.992 120.644 221.153 120.759 221.252 120.948C221.366 121.128 221.391 121.383 221.33 121.713C221.319 121.772 221.254 121.925 221.135 122.172C221.019 122.406 220.873 122.697 220.699 123.043C220.539 123.379 220.364 123.731 220.174 124.099C219.996 124.468 219.841 124.812 219.709 125.129C220.049 124.741 220.408 124.319 220.785 123.864C221.174 123.411 221.562 122.965 221.949 122.524C222.338 122.071 222.718 121.666 223.09 121.307C223.463 120.937 223.815 120.654 224.144 120.459C224.473 120.264 224.767 120.19 225.027 120.238C225.334 120.295 225.599 120.442 225.824 120.679C226.06 120.918 226.232 121.212 226.338 121.561C226.444 121.911 226.461 122.28 226.389 122.669C226.338 122.941 226.22 123.315 226.034 123.793C225.85 124.26 225.652 124.766 225.441 125.313C225.242 125.862 225.083 126.388 224.966 126.891C224.944 127.009 224.968 127.074 225.039 127.087C225.098 127.098 225.176 127.07 225.274 127.003C225.687 126.689 226.148 126.304 226.66 125.85C227.173 125.384 227.698 124.889 228.234 124.366C228.783 123.845 229.323 123.335 229.854 122.836C230.389 122.324 230.882 121.867 231.336 121.463C231.803 121.049 232.204 120.726 232.54 120.496C232.887 120.267 233.144 120.168 233.309 120.199C233.663 120.265 233.916 120.415 234.067 120.651C234.219 120.886 234.251 121.24 234.163 121.712C234.093 122.09 233.973 122.574 233.803 123.165C233.644 123.758 233.458 124.4 233.244 125.093C233.042 125.788 232.827 126.486 232.599 127.189C232.385 127.881 232.18 128.527 231.984 129.125C231.79 129.711 231.633 130.195 231.514 130.576ZM263.456 123.004C262.396 123.125 261.398 123.507 260.461 124.151C259.538 124.786 258.724 125.782 258.021 127.141C259.205 127.336 260.248 127.437 261.15 127.446C262.051 127.454 262.794 127.433 263.377 127.383C263.96 127.332 264.345 127.324 264.534 127.359C264.652 127.381 264.738 127.446 264.791 127.553C264.856 127.663 264.877 127.783 264.853 127.913C264.805 128.172 264.474 128.373 263.862 128.516C263.25 128.659 262.451 128.724 261.464 128.712C260.478 128.7 259.389 128.584 258.197 128.363C257.985 128.324 257.762 128.276 257.528 128.221C257.489 128.299 257.455 128.384 257.426 128.476C257.231 129.002 256.991 129.635 256.707 130.375C256.426 131.104 256.131 131.873 255.822 132.683C255.514 133.492 255.215 134.279 254.927 135.043C254.641 135.796 254.389 136.463 254.172 137.045C253.952 137.639 253.799 138.068 253.713 138.333C253.62 138.572 253.486 138.736 253.311 138.826C253.147 138.918 252.983 138.948 252.818 138.918C252.652 138.887 252.511 138.794 252.394 138.638C252.274 138.493 252.239 138.286 252.289 138.014C252.311 137.896 252.386 137.66 252.512 137.305C252.651 136.952 252.816 136.525 253.006 136.024C253.197 135.522 253.389 134.978 253.583 134.391C253.789 133.807 253.979 133.214 254.151 132.611C254.336 132.011 254.478 131.439 254.579 130.896C254.636 130.589 254.675 130.31 254.698 130.058C253.987 130.402 253.198 130.64 252.332 130.773C251.465 130.905 250.563 130.933 249.625 130.857C249.256 131.399 248.863 131.875 248.445 132.286C248.029 132.685 247.608 132.985 247.18 133.186C246.764 133.39 246.361 133.455 245.972 133.383C245.594 133.313 245.321 133.007 245.154 132.463C244.998 131.921 245.013 131.149 245.199 130.146C245.332 129.427 245.502 128.775 245.708 128.19C245.662 127.779 245.686 127.32 245.78 126.812C245.9 126.163 246.153 125.588 246.539 125.086C246.937 124.586 247.409 124.21 247.957 123.957C248.516 123.707 249.096 123.638 249.698 123.749C250.311 123.863 250.776 124.187 251.092 124.721C251.422 125.246 251.506 125.945 251.344 126.818C251.254 127.302 251.121 127.79 250.944 128.282C250.77 128.762 250.56 129.236 250.315 129.703C251.127 129.732 251.914 129.67 252.674 129.518C253.435 129.366 254.116 129.145 254.72 128.854C254.683 128.456 254.575 128.119 254.395 127.841C254.226 127.566 253.969 127.372 253.624 127.259C253.335 127.169 253.222 126.959 253.283 126.629C253.305 126.511 253.385 126.409 253.522 126.325C253.672 126.243 253.829 126.217 253.994 126.248C254.313 126.307 254.675 126.392 255.082 126.504C255.5 126.618 256.027 126.74 256.661 126.87C257.128 126.066 257.662 125.323 258.265 124.641C258.879 123.962 259.511 123.383 260.161 122.906C260.81 122.428 261.437 122.074 262.041 121.845C262.645 121.615 263.177 121.543 263.638 121.628C263.98 121.691 264.189 121.779 264.266 121.891C264.355 122.005 264.381 122.162 264.344 122.363C264.302 122.587 264.199 122.745 264.036 122.837C263.887 122.919 263.693 122.975 263.456 123.004ZM247.086 128.061C247.209 128.45 247.43 128.772 247.749 129.026C248.071 129.269 248.412 129.436 248.773 129.527C249.018 129.06 249.233 128.563 249.416 128.035C249.611 127.51 249.754 127 249.846 126.504C249.901 126.209 249.875 125.954 249.768 125.739C249.664 125.512 249.488 125.376 249.24 125.33C248.862 125.26 248.481 125.342 248.096 125.576C247.723 125.812 247.434 126.149 247.231 126.587C247.293 126.647 247.339 126.729 247.369 126.832C247.41 126.938 247.414 127.085 247.379 127.273C247.37 127.321 247.339 127.419 247.287 127.568C247.238 127.705 247.17 127.869 247.086 128.061ZM248.09 130.646C247.785 130.577 247.493 130.474 247.214 130.337C246.946 130.202 246.703 130.028 246.486 129.817C246.414 130.073 246.359 130.306 246.319 130.519C246.184 131.25 246.264 131.643 246.559 131.698C246.794 131.742 247.041 131.665 247.297 131.469C247.565 131.274 247.829 131 248.09 130.646ZM255.689 128.264C255.859 128.137 256.018 128.002 256.167 127.859C256.169 127.847 256.171 127.835 256.174 127.823C256.046 127.788 255.914 127.745 255.776 127.695C255.651 127.647 255.524 127.605 255.397 127.57C255.517 127.775 255.615 128.007 255.689 128.264ZM56.3474 130.824C55.7575 130.715 55.2224 130.573 54.7421 130.399C54.2715 130.238 53.8155 130.032 53.3741 129.779C52.9306 129.538 52.4545 129.242 51.9459 128.892C51.796 128.779 51.6671 128.651 51.5592 128.509C51.4491 128.379 51.4071 128.243 51.4334 128.101C51.4662 127.924 51.6133 127.756 51.8746 127.597C52.122 127.448 52.3401 127.39 52.5289 127.425C52.7294 127.463 52.9641 127.579 53.2328 127.776C53.5134 127.974 53.8367 128.205 54.2029 128.468C54.5669 128.743 54.9777 128.996 55.4352 129.227C55.9045 129.461 56.4223 129.63 56.9887 129.735C57.6022 129.849 58.2274 129.702 58.8642 129.295C59.501 128.888 60.079 128.239 60.5983 127.347C61.1155 126.466 61.4976 125.359 61.7447 124.026C61.819 123.625 61.8892 123.18 61.9553 122.692C62.0354 122.194 62.108 121.671 62.1732 121.121C61.7763 121.682 61.3451 122.231 60.8796 122.767C60.4259 123.306 59.9654 123.782 59.4982 124.195C59.0428 124.611 58.5871 124.93 58.1313 125.15C57.6894 125.361 57.2679 125.43 56.8668 125.355C56.3594 125.261 56.0177 125.064 55.8416 124.763C55.6655 124.461 55.6278 124.039 55.7284 123.497C55.8334 122.93 55.9884 122.324 56.1934 121.679C56.3985 121.034 56.6282 120.387 56.8827 119.738C57.1511 119.08 57.4365 118.462 57.739 117.883C58.0415 117.305 58.3405 116.811 58.636 116.402C58.7978 116.188 58.9966 116.102 59.2326 116.146C59.3978 116.177 59.5407 116.295 59.6612 116.5C59.7958 116.696 59.838 116.93 59.7877 117.201C59.7483 117.413 59.6453 117.706 59.4788 118.077C59.3122 118.449 59.1122 118.87 58.8788 119.339C58.6453 119.809 58.4075 120.301 58.1654 120.818C57.9254 121.323 57.7101 121.826 57.5194 122.328C57.331 122.817 57.1974 123.275 57.1187 123.699C57.0859 123.876 57.1875 123.987 57.4235 124.031C57.5533 124.055 57.758 123.971 58.0377 123.778C58.3314 123.576 58.6619 123.308 59.029 122.973C59.4101 122.629 59.7978 122.249 60.1921 121.834C60.6003 121.41 60.9957 120.989 61.3781 120.571C61.7627 120.142 62.0984 119.747 62.3852 119.385C62.3909 119.288 62.4014 119.199 62.4167 119.116C62.432 119.034 62.4462 118.957 62.4593 118.886C62.5665 118.308 62.6922 117.959 62.8364 117.839C62.9946 117.71 63.174 117.664 63.3746 117.701C63.7168 117.764 63.9444 117.886 64.0576 118.066C64.1708 118.245 64.1923 118.524 64.1224 118.901C64.0961 119.043 64.05 119.193 63.984 119.352C63.9202 119.499 63.8196 119.712 63.6823 119.992C63.604 120.941 63.5254 121.793 63.4466 122.547C63.3797 123.304 63.2762 124.06 63.1362 124.815C62.8716 126.242 62.4119 127.439 61.7571 128.404C61.1141 129.371 60.3261 130.067 59.393 130.492C58.4717 130.919 57.4565 131.03 56.3474 130.824ZM68.0217 128.466C67.3255 128.337 66.8261 127.97 66.5233 127.365C66.2205 126.759 66.1479 126.032 66.3053 125.182C66.3622 124.876 66.4636 124.559 66.6096 124.232C66.7696 123.895 66.9467 123.599 67.1408 123.342C67.0735 123.244 67.0293 123.12 67.0084 122.97C66.9896 122.807 67.001 122.614 67.0426 122.39C67.1716 121.694 67.4077 121.079 67.7508 120.544C68.0939 120.01 68.4996 119.566 68.9677 119.214C69.4379 118.849 69.9309 118.593 70.4466 118.444C70.9741 118.298 71.4856 118.271 71.9812 118.363C72.7953 118.513 73.4014 118.931 73.7994 119.615C74.1996 120.287 74.2893 121.219 74.0684 122.411C73.9525 123.036 73.7401 123.656 73.431 124.27C73.1337 124.886 72.7701 125.465 72.34 126.008C71.9216 126.553 71.4623 127.023 70.9618 127.418C70.4732 127.816 69.9726 128.114 69.4599 128.312C68.9612 128.5 68.4818 128.551 68.0217 128.466ZM68.4204 122.957C68.4737 123.064 68.4861 123.195 68.4577 123.348C68.4249 123.525 68.3567 123.695 68.2531 123.859C68.1613 124.025 68.0516 124.255 67.9239 124.549C67.7963 124.842 67.68 125.272 67.575 125.839C67.47 126.405 67.6417 126.73 68.0901 126.813C68.5856 126.905 69.0819 126.795 69.5788 126.485C70.0779 126.162 70.5506 125.719 70.9969 125.155C71.4432 124.591 71.8204 123.971 72.1286 123.296C72.4508 122.611 72.6709 121.95 72.789 121.313C72.8656 120.9 72.8425 120.597 72.7197 120.403C72.5991 120.198 72.3382 120.058 71.937 119.984C71.5241 119.907 71.0672 119.969 70.5663 120.169C70.0795 120.359 69.6448 120.663 69.2624 121.081C68.8799 121.498 68.634 122.002 68.5247 122.591C68.5006 122.721 68.4659 122.843 68.4204 122.957ZM80.3125 131C80.1119 130.963 79.9572 130.843 79.8484 130.64C79.7396 130.437 79.717 130.164 79.7804 129.822C79.8547 129.421 80.0198 128.859 80.2756 128.138C80.5431 127.419 80.9145 126.468 81.3897 125.287C80.9312 125.983 80.4449 126.631 79.9309 127.232C79.4287 127.834 78.9258 128.309 78.4223 128.655C77.9188 129.001 77.4429 129.132 76.9945 129.049C76.558 128.968 76.2003 128.725 75.9216 128.319C75.6546 127.916 75.6009 127.284 75.7606 126.422C75.8502 125.939 75.9921 125.403 76.1862 124.817C76.3826 124.219 76.6014 123.631 76.8427 123.053C77.084 122.475 77.3133 121.963 77.5306 121.515C77.75 121.055 77.9336 120.723 78.0813 120.518C78.1989 120.345 78.3045 120.236 78.398 120.193C78.4937 120.137 78.6124 120.122 78.754 120.149C78.9192 120.179 79.083 120.283 79.2456 120.46C79.4081 120.636 79.4588 120.89 79.3975 121.22C79.3822 121.303 79.3048 121.49 79.1654 121.781C79.0399 122.063 78.8777 122.411 78.6788 122.826C78.4939 123.231 78.2965 123.67 78.0867 124.144C77.8769 124.618 77.6847 125.095 77.5103 125.575C77.3476 126.057 77.2281 126.505 77.1515 126.918C77.11 127.142 77.0997 127.329 77.1206 127.48C77.1416 127.63 77.2464 127.723 77.4352 127.758C77.6004 127.788 77.8375 127.662 78.1465 127.377C78.4673 127.095 78.8255 126.71 79.2211 126.222C79.6307 125.724 80.057 125.168 80.5003 124.555C80.9553 123.943 81.4018 123.312 81.8398 122.661C82.2896 122.012 82.7033 121.393 83.081 120.804C83.2147 120.609 83.3391 120.498 83.454 120.471C83.5711 120.431 83.6946 120.424 83.8244 120.448C84.0368 120.487 84.2091 120.611 84.3415 120.818C84.4879 121.016 84.5359 121.251 84.4856 121.522C84.4528 121.699 84.3606 121.999 84.2089 122.423C84.069 122.849 83.8853 123.345 83.658 123.913C83.4447 124.472 83.2071 125.063 82.9452 125.685C82.6951 126.31 82.4462 126.929 82.1983 127.542C81.9526 128.144 81.7226 128.693 81.5084 129.19C81.306 129.69 81.1399 130.092 81.0101 130.397C80.8964 130.682 80.7788 130.855 80.6573 130.918C80.5454 130.995 80.4305 131.022 80.3125 131ZM85.6209 131.893C85.4321 131.858 85.287 131.752 85.1857 131.574C85.0843 131.397 85.0588 131.172 85.1091 130.901C85.1463 130.7 85.2488 130.378 85.4167 129.933C85.5985 129.478 85.8005 128.948 86.0226 128.343C86.2565 127.739 86.4771 127.109 86.6843 126.451C86.8937 125.782 87.0564 125.135 87.1723 124.51C87.2292 124.203 87.3474 123.993 87.527 123.88C87.7207 123.757 87.9178 123.714 88.1183 123.752C88.3071 123.787 88.4268 123.931 88.4775 124.184C88.5282 124.438 88.4584 124.913 88.2682 125.61C89.034 124.507 89.8092 123.65 90.5937 123.039C91.3922 122.418 92.1455 122.008 92.8535 121.81C93.5636 121.6 94.1783 121.543 94.6975 121.639C95.0396 121.703 95.2743 121.819 95.4014 121.989C95.5426 122.15 95.5978 122.313 95.5672 122.478C95.5257 122.702 95.3985 122.861 95.1856 122.956C94.9868 123.041 94.6479 123.125 94.1689 123.207C93.6126 123.311 93.091 123.459 92.6041 123.649C92.1312 123.83 91.6607 124.097 91.1926 124.45C90.7363 124.804 90.2641 125.278 89.7758 125.871C89.2898 126.452 88.7753 127.187 88.2324 128.075C87.6895 128.963 87.0869 130.041 86.4247 131.309C86.3058 131.556 86.1775 131.721 86.0398 131.806C85.9139 131.892 85.7743 131.921 85.6209 131.893ZM101.029 139.838C100.828 139.801 100.682 139.7 100.59 139.537C100.51 139.375 100.508 139.094 100.582 138.693C100.689 138.115 100.855 137.45 101.08 136.698C101.305 135.947 101.568 135.153 101.869 134.318C102.182 133.485 102.507 132.655 102.843 131.826C103.192 131 103.538 130.216 103.883 129.474C104.24 128.735 104.574 128.083 104.887 127.518C105.201 126.942 105.473 126.492 105.704 126.169C105.947 125.848 106.133 125.699 106.263 125.723C106.487 125.765 106.652 125.862 106.758 126.016C106.875 126.172 106.91 126.38 106.862 126.64C106.8 126.97 106.601 127.488 106.262 128.194C105.926 128.889 105.489 129.796 104.952 130.917C105.348 130.429 105.771 129.922 106.223 129.395C106.674 128.869 107.14 128.363 107.621 127.879C108.103 127.382 108.575 126.945 109.035 126.567C109.508 126.19 109.952 125.9 110.368 125.697C110.784 125.493 111.163 125.423 111.506 125.487C111.871 125.554 112.174 125.733 112.413 126.021C112.655 126.298 112.816 126.645 112.898 127.063C112.993 127.471 112.997 127.911 112.909 128.383C112.728 129.362 112.387 130.281 111.886 131.141C111.387 131.988 110.775 132.723 110.049 133.345C109.338 133.957 108.547 134.403 107.678 134.681C106.82 134.961 105.938 135.018 105.029 134.849C104.687 134.786 104.383 134.711 104.118 134.625C103.854 134.54 103.625 134.455 103.434 134.37C103.148 135.123 102.863 135.9 102.58 136.702C102.297 137.504 102.005 138.359 101.702 139.267C101.621 139.508 101.53 139.668 101.43 139.747C101.328 139.838 101.194 139.868 101.029 139.838ZM111.575 126.891C111.327 126.845 111.006 126.932 110.611 127.152C110.228 127.373 109.799 127.684 109.322 128.084C108.859 128.474 108.38 128.917 107.886 129.411C107.394 129.893 106.911 130.389 106.438 130.9C105.965 131.41 105.53 131.885 105.131 132.323C104.744 132.764 104.426 133.132 104.176 133.428C105.1 133.575 105.943 133.542 106.702 133.329C107.464 133.104 108.143 132.766 108.739 132.315C109.337 131.852 109.849 131.331 110.274 130.75C110.713 130.16 111.059 129.578 111.312 129.002C111.567 128.415 111.736 127.897 111.819 127.449C111.881 127.118 111.799 126.932 111.575 126.891ZM113.845 137.124C113.657 137.089 113.511 136.983 113.41 136.805C113.309 136.628 113.283 136.403 113.334 136.132C113.371 135.931 113.473 135.609 113.641 135.164C113.823 134.709 114.025 134.179 114.247 133.574C114.481 132.97 114.701 132.34 114.909 131.683C115.118 131.014 115.281 130.366 115.397 129.741C115.454 129.434 115.572 129.224 115.751 129.111C115.945 128.988 116.142 128.945 116.343 128.983C116.532 129.018 116.651 129.162 116.702 129.415C116.753 129.669 116.683 130.144 116.493 130.841C117.258 129.738 118.034 128.881 118.818 128.27C119.617 127.649 120.37 127.239 121.078 127.041C121.788 126.831 122.403 126.774 122.922 126.87C123.264 126.934 123.499 127.05 123.626 127.22C123.767 127.381 123.822 127.544 123.792 127.709C123.75 127.933 123.623 128.092 123.41 128.187C123.211 128.272 122.872 128.356 122.393 128.438C121.837 128.543 121.315 128.69 120.829 128.88C120.356 129.061 119.885 129.328 119.417 129.681C118.961 130.035 118.488 130.509 118 131.102C117.514 131.683 117 132.418 116.457 133.306C115.914 134.194 115.311 135.272 114.649 136.541C114.53 136.787 114.402 136.952 114.264 137.037C114.138 137.123 113.999 137.152 113.845 137.124ZM123.762 138.797C123.066 138.668 122.566 138.301 122.263 137.696C121.961 137.09 121.888 136.363 122.046 135.513C122.102 135.206 122.204 134.89 122.35 134.563C122.51 134.226 122.687 133.93 122.881 133.673C122.814 133.575 122.77 133.451 122.749 133.3C122.73 133.138 122.741 132.945 122.783 132.721C122.912 132.025 123.148 131.409 123.491 130.875C123.834 130.341 124.24 129.897 124.708 129.544C125.178 129.18 125.671 128.924 126.187 128.775C126.714 128.629 127.226 128.602 127.721 128.693C128.536 128.844 129.142 129.262 129.54 129.946C129.94 130.618 130.029 131.55 129.809 132.742C129.693 133.367 129.48 133.987 129.171 134.601C128.874 135.217 128.51 135.796 128.08 136.339C127.662 136.884 127.202 137.354 126.702 137.749C126.213 138.147 125.713 138.445 125.2 138.643C124.701 138.831 124.222 138.882 123.762 138.797ZM124.161 133.287C124.214 133.395 124.226 133.525 124.198 133.679C124.165 133.856 124.097 134.026 123.993 134.19C123.901 134.356 123.792 134.586 123.664 134.88C123.536 135.173 123.42 135.603 123.315 136.17C123.21 136.736 123.382 137.061 123.83 137.144C124.326 137.236 124.822 137.126 125.319 136.816C125.818 136.493 126.291 136.05 126.737 135.486C127.183 134.922 127.561 134.302 127.869 133.627C128.191 132.942 128.411 132.281 128.529 131.644C128.606 131.231 128.583 130.928 128.46 130.734C128.339 130.529 128.078 130.389 127.677 130.315C127.264 130.238 126.807 130.3 126.307 130.5C125.82 130.69 125.385 130.994 125.003 131.411C124.62 131.829 124.374 132.332 124.265 132.922C124.241 133.052 124.206 133.174 124.161 133.287ZM127.18 144.19C126.602 144.083 126.159 143.806 125.851 143.358C125.544 142.911 125.439 142.421 125.538 141.89C125.614 141.477 125.886 141.162 126.354 140.943C126.819 140.737 127.431 140.563 128.189 140.423C128.934 140.293 129.755 140.14 130.654 139.965C130.972 139.303 131.316 138.501 131.686 137.556C132.059 136.6 132.482 135.47 132.955 134.167C133.165 133.498 133.34 132.981 133.481 132.617C133.624 132.24 133.746 131.976 133.847 131.824C133.949 131.672 134.044 131.586 134.133 131.566C134.234 131.548 134.338 131.549 134.444 131.569C134.55 131.588 134.676 131.667 134.821 131.803C134.979 131.942 135.111 132.119 135.217 132.334C135.324 132.549 135.355 132.775 135.311 133.011C135.283 133.164 135.212 133.383 135.098 133.667C134.996 133.953 134.848 134.261 134.652 134.591C134.469 134.923 134.235 135.228 133.952 135.505C133.63 136.324 133.332 137.074 133.059 137.756C132.786 138.438 132.524 139.06 132.273 139.624C133.04 139.437 133.801 139.218 134.555 138.967C135.31 138.716 136.019 138.414 136.682 138.061C137.348 137.696 137.935 137.262 138.443 136.758C138.592 136.615 138.725 136.554 138.843 136.576C138.902 136.587 138.954 136.633 139 136.715C139.058 136.799 139.071 136.924 139.041 137.089C138.958 137.537 138.691 137.958 138.24 138.35C137.791 138.73 137.212 139.087 136.504 139.419C135.797 139.74 135.021 140.042 134.176 140.324C133.332 140.595 132.468 140.844 131.584 141.071C131.087 142.04 130.617 142.765 130.175 143.244C129.741 143.737 129.282 144.043 128.797 144.16C128.321 144.292 127.782 144.302 127.18 144.19ZM135.08 129.618C134.856 129.576 134.68 129.471 134.553 129.301C134.426 129.131 134.393 128.88 134.454 128.55C134.526 128.161 134.731 127.845 135.069 127.602C135.421 127.35 135.768 127.256 136.11 127.319C136.44 127.38 136.693 127.531 136.868 127.771C137.055 128.013 137.119 128.293 137.06 128.612C137.01 128.883 136.885 129.098 136.685 129.256C136.487 129.403 136.258 129.452 135.998 129.404C135.939 129.393 135.893 129.378 135.86 129.36C135.664 129.494 135.515 129.576 135.412 129.606C135.308 129.636 135.198 129.64 135.08 129.618ZM129.884 141.451C129.314 141.565 128.76 141.658 128.222 141.729C127.682 141.812 127.212 141.877 126.813 141.925C126.852 142.238 126.951 142.464 127.108 142.603C127.251 142.751 127.459 142.851 127.73 142.901C128.096 142.969 128.448 142.912 128.787 142.731C129.114 142.547 129.48 142.121 129.884 141.451ZM145.761 134.801C145.691 135.179 145.504 135.528 145.2 135.85C144.898 136.161 144.522 136.445 144.072 136.703C143.623 136.95 143.137 137.171 142.612 137.366C142.088 137.562 141.57 137.722 141.059 137.847C140.547 137.972 140.085 138.063 139.672 138.121C139.492 138.564 139.369 138.962 139.304 139.316C139.262 139.54 139.286 139.709 139.374 139.823C139.463 139.937 139.62 140.015 139.844 140.057C140.339 140.149 140.881 140.157 141.468 140.083C142.056 140.009 142.665 139.884 143.295 139.708C143.926 139.532 144.536 139.334 145.126 139.114C145.716 138.893 146.256 138.682 146.745 138.48C147.246 138.28 147.66 138.119 147.988 137.996C148.315 137.874 148.526 137.822 148.621 137.839C148.762 137.865 148.86 137.932 148.913 138.04C148.981 138.138 149.003 138.246 148.981 138.364C148.964 138.458 148.782 138.614 148.437 138.83C148.104 139.049 147.661 139.297 147.11 139.573C146.56 139.837 145.95 140.102 145.278 140.368C144.606 140.634 143.915 140.872 143.205 141.083C142.507 141.295 141.838 141.446 141.199 141.535C140.572 141.626 140.023 141.628 139.551 141.54C138.937 141.427 138.502 141.108 138.245 140.584C137.988 140.061 137.949 139.315 138.129 138.348C138.249 137.699 138.453 137.059 138.74 136.429C139.04 135.801 139.393 135.214 139.799 134.666C140.22 134.11 140.657 133.629 141.11 133.225C141.577 132.811 142.042 132.507 142.506 132.312C142.971 132.106 143.399 132.038 143.788 132.111C144.531 132.248 145.077 132.563 145.425 133.055C145.774 133.546 145.885 134.129 145.761 134.801ZM140.296 136.827C140.703 136.671 141.125 136.505 141.56 136.329C141.995 136.154 142.402 135.967 142.781 135.768C143.159 135.57 143.475 135.348 143.728 135.102C143.995 134.846 144.157 134.565 144.214 134.258C144.295 133.822 144.099 133.559 143.627 133.472C143.332 133.417 142.984 133.548 142.584 133.865C142.198 134.171 141.802 134.592 141.398 135.128C140.994 135.663 140.626 136.229 140.296 136.827ZM149.408 143.623C148.829 143.516 148.352 143.294 147.975 142.955C147.613 142.607 147.359 142.2 147.213 141.734C147.068 141.268 147.036 140.81 147.12 140.362C147.295 139.418 147.619 138.587 148.094 137.87C148.571 137.14 149.113 136.521 149.72 136.011C150.341 135.491 150.956 135.068 151.566 134.742C152.188 134.418 152.736 134.19 153.212 134.059C153.702 133.918 154.042 133.864 154.23 133.899C154.608 133.969 154.762 134.193 154.692 134.571C154.659 134.748 154.503 134.932 154.223 135.125C153.945 135.305 153.595 135.515 153.173 135.754C152.75 135.993 152.296 136.269 151.811 136.581C151.328 136.883 150.859 137.241 150.404 137.657C149.95 138.061 149.551 138.536 149.206 139.083C148.863 139.617 148.626 140.232 148.497 140.928C148.366 141.636 148.59 142.044 149.168 142.151C149.699 142.249 150.26 142.25 150.852 142.152C151.455 142.056 152.058 141.9 152.66 141.682C153.276 141.454 153.87 141.21 154.443 140.95C155.016 140.69 155.538 140.439 156.01 140.197C156.485 139.943 156.882 139.743 157.202 139.594C157.523 139.446 157.742 139.383 157.86 139.405C158.096 139.449 158.19 139.6 158.142 139.86C158.104 140.061 157.92 140.301 157.587 140.581C157.254 140.861 156.822 141.153 156.29 141.457C155.757 141.761 155.171 142.061 154.53 142.358C153.891 142.642 153.252 142.896 152.613 143.119C151.976 143.331 151.373 143.487 150.805 143.59C150.251 143.682 149.785 143.693 149.408 143.623ZM156.02 138.735C155.706 138.652 155.597 138.418 155.693 138.033C155.722 137.941 155.808 137.841 155.95 137.733C156.094 137.613 156.244 137.562 156.399 137.578C156.772 137.611 157.23 137.641 157.774 137.668C158.332 137.686 158.945 137.702 159.614 137.716C159.839 137.16 160.093 136.579 160.377 135.972C160.66 135.366 160.958 134.78 161.27 134.216C161.584 133.639 161.899 133.124 162.215 132.67C162.531 132.216 162.839 131.87 163.14 131.633C163.293 131.527 163.428 131.461 163.543 131.433C163.66 131.394 163.76 131.382 163.842 131.397C164.008 131.428 164.124 131.523 164.192 131.682C164.272 131.843 164.296 132.012 164.263 132.189C164.246 132.284 164.21 132.375 164.158 132.462C163.799 133.079 163.395 133.847 162.944 134.764C162.493 135.681 162.008 136.684 161.489 137.771C162.608 137.795 163.728 137.808 164.851 137.808C165.974 137.809 166.94 137.799 167.749 137.778C167.991 137.725 168.158 137.775 168.252 137.926C168.358 138.08 168.399 138.222 168.375 138.352C168.344 138.517 168.274 138.632 168.164 138.697C168.067 138.764 167.965 138.819 167.86 138.86L167.839 138.875C167.585 138.925 167.21 138.972 166.714 139.014C166.221 139.045 165.654 139.074 165.014 139.102C164.376 139.118 163.697 139.126 162.977 139.127C162.269 139.13 161.569 139.122 160.876 139.104C160.412 140.092 159.937 141.108 159.451 142.153C158.978 143.188 158.509 144.206 158.043 145.206C157.846 145.608 157.661 145.849 157.488 145.927C157.325 146.018 157.16 146.049 156.995 146.018C156.806 145.983 156.654 145.882 156.539 145.714C156.435 145.548 156.471 145.256 156.647 144.837L159.057 139.041C158.33 139.016 157.69 138.977 157.139 138.924C156.599 138.872 156.226 138.809 156.02 138.735ZM163.688 146.288C163.429 146.24 163.19 146.111 162.973 145.9C162.768 145.691 162.7 145.397 162.77 145.02C162.827 144.713 162.95 144.48 163.138 144.319C163.326 144.159 163.528 144.056 163.744 144.011C163.962 143.953 164.148 143.939 164.302 143.967C164.455 143.996 164.619 144.063 164.795 144.169C164.983 144.277 165.131 144.432 165.239 144.635C165.35 144.827 165.375 145.088 165.314 145.418C165.253 145.749 165.061 145.994 164.738 146.154C164.416 146.314 164.066 146.358 163.688 146.288Z" fill="black" fill-opacity="0.8"/>
</g>
</g>
<defs>
<filter id="filter0_ddd_1_13" x="0.730019" y="0.470062" width="305.545" height="305.545" filterUnits="userSpaceOnUse" color-interpolation-filters="sRGB">
<feFlood flood-opacity="0" result="BackgroundImageFix"/>
<feColorMatrix in="SourceAlpha" type="matrix" values="0 0 0 0 0 0 0 0 0 0 0 0 0 0 0 0 0 0 127 0" result="hardAlpha"/>
<feOffset dy="2.5"/>
<feGaussianBlur stdDeviation="1"/>
<feColorMatrix type="matrix" values="0 0 0 0 0 0 0 0 0 0 0 0 0 0 0 0 0 0 0.02 0"/>
<feBlend mode="normal" in2="BackgroundImageFix" result="effect1_dropShadow_1_13"/>
<feColorMatrix in="SourceAlpha" type="matrix" values="0 0 0 0 0 0 0 0 0 0 0 0 0 0 0 0 0 0 127 0" result="hardAlpha"/>
<feOffset dy="3"/>
<feGaussianBlur stdDeviation="2.5"/>
<feColorMatrix type="matrix" values="0 0 0 0 0 0 0 0 0 0 0 0 0 0 0 0 0 0 0.04 0"/>
<feBlend mode="normal" in2="effect1_dropShadow_1_13" result="effect2_dropShadow_1_13"/>
<feColorMatrix in="SourceAlpha" type="matrix" values="0 0 0 0 0 0 0 0 0 0 0 0 0 0 0 0 0 0 127 0" result="hardAlpha"/>
<feOffset dy="8"/>
<feGaussianBlur stdDeviation="5"/>
<feColorMatrix type="matrix" values="0 0 0 0 0 0 0 0 0 0 0 0 0 0 0 0 0 0 0.08 0"/>
<feBlend mode="normal" in2="effect2_dropShadow_1_13" result="effect3_dropShadow_1_13"/>
<feBlend mode="normal" in="SourceGraphic" in2="effect3_dropShadow_1_13" result="shape"/>
</filter>
<clipPath id="clip0_1_13">
<rect width="245" height="245" fill="white" transform="translate(55.3777 2.47006) rotate(10.5)"/>
</clipPath>
</defs>
</svg>
