<svg width="307" height="307" viewBox="0 0 307 307" fill="none" xmlns="http://www.w3.org/2000/svg">
<g filter="url(#filter0_ddd_1_8)">
<g clip-path="url(#clip0_1_8)">
<rect width="245" height="245" transform="translate(55.4727 2.83203) rotate(10.5)" fill="#FFD966"/>
<path d="M78.6646 42.3991C77.9803 42.2723 77.3064 42.0559 76.6431 41.7499C75.9819 41.4321 75.3944 41.0791 74.8806 40.6909C74.5671 41.3285 74.2535 42.0331 73.9396 42.8049C73.6257 43.5766 73.3126 44.4095 73.0005 45.3036C72.7482 45.9403 72.5386 46.3469 72.3717 46.5234C72.2047 46.6999 72.0209 46.7696 71.8203 46.7324C71.6198 46.6953 71.478 46.5713 71.395 46.3607C71.3141 46.1382 71.324 45.7556 71.4246 45.2129C71.4443 45.1067 71.5197 44.8644 71.6509 44.4859C71.782 44.1075 71.9473 43.6438 72.1467 43.095C72.36 42.5365 72.5869 41.9378 72.8274 41.299C73.07 40.6483 73.3126 39.9976 73.5553 39.3469C73.329 38.9877 73.241 38.6723 73.2913 38.401C73.3153 38.2712 73.3737 38.1538 73.4663 38.049C73.5612 37.9323 73.7207 37.8948 73.9449 37.9363C73.9803 37.9429 74.0205 37.9564 74.0655 37.977C74.3265 37.2931 74.5497 36.6815 74.735 36.1423C74.9344 35.5934 75.0629 35.1962 75.1207 34.9506C75.223 34.5302 75.3603 34.2505 75.5325 34.1116C75.7069 33.9608 75.8884 33.9029 76.0772 33.9379C76.2306 33.9664 76.3425 34.0542 76.4128 34.2015C76.4853 34.337 76.4768 34.6466 76.3871 35.1304C76.3303 35.4372 76.2301 35.8457 76.0867 36.3562C76.8835 35.2834 77.6406 34.5572 78.3578 34.1775C79.0867 33.8001 79.8406 33.6835 80.6194 33.8278C81.3273 33.959 81.8989 34.2663 82.3341 34.7497C82.7714 35.2214 83.0613 35.8304 83.2037 36.5768C83.346 37.3233 83.3297 38.1684 83.1548 39.1124C82.9077 40.4457 82.3984 41.3825 81.627 41.923C80.8556 42.4635 79.8681 42.6222 78.6646 42.3991ZM75.613 39.3072C76.0132 39.6499 76.4699 39.9847 76.9829 40.3117C77.4981 40.6269 78.0506 40.8391 78.6406 40.9485C79.5963 41.1256 80.3318 41.0422 80.8471 40.6984C81.3764 40.3449 81.7307 39.6844 81.91 38.7169C82.1177 37.596 82.0884 36.7668 81.8219 36.2292C81.5554 35.6916 81.1154 35.366 80.5018 35.2523C79.8057 35.1232 79.0373 35.3836 78.1969 36.0333C77.3586 36.6712 76.4973 37.7625 75.613 39.3072ZM83.8326 49.5263C83.6439 49.4913 83.4988 49.3851 83.3974 49.2076C83.2961 49.0302 83.2705 48.8058 83.3208 48.5344C83.358 48.3338 83.4605 48.0111 83.6284 47.5662C83.8103 47.1118 84.0123 46.5817 84.2343 45.976C84.4682 45.3726 84.6888 44.7422 84.896 44.085C85.1055 43.4159 85.2681 42.7687 85.384 42.1434C85.4409 41.8366 85.5591 41.6266 85.7388 41.5135C85.9324 41.3907 86.1295 41.3479 86.3301 41.3851C86.5189 41.4201 86.6386 41.5643 86.6892 41.8178C86.7399 42.0712 86.6701 42.5465 86.4799 43.2435C87.2457 42.1406 88.0209 41.2835 88.8054 40.6722C89.6039 40.0514 90.3572 39.6418 91.0652 39.4435C91.7754 39.2334 92.39 39.1764 92.9092 39.2727C93.2514 39.3361 93.486 39.4528 93.6132 39.6228C93.7543 39.7832 93.8096 39.946 93.779 40.1112C93.7374 40.3354 93.6102 40.4949 93.3974 40.5897C93.1985 40.6749 92.8596 40.7585 92.3806 40.8406C91.8243 40.9449 91.3027 41.0924 90.8158 41.2828C90.3429 41.4637 89.8725 41.7304 89.4044 42.083C88.9481 42.4378 88.4758 42.9117 87.9876 43.5046C87.5015 44.0858 86.9871 44.8203 86.4441 45.7083C85.9012 46.5962 85.2987 47.6744 84.6364 48.943C84.5175 49.1894 84.3892 49.3548 84.2515 49.4392C84.1257 49.5257 83.986 49.5547 83.8326 49.5263ZM111.218 40.2129C110.158 40.3338 109.16 40.7162 108.223 41.3603C107.3 41.9947 106.486 42.9911 105.783 44.3497C106.967 44.5448 108.01 44.6466 108.912 44.655C109.813 44.6634 110.556 44.6424 111.139 44.5918C111.722 44.5411 112.107 44.5333 112.296 44.5683C112.414 44.5902 112.5 44.6549 112.553 44.7624C112.618 44.8721 112.639 44.9918 112.615 45.1216C112.567 45.3812 112.236 45.5824 111.624 45.7252C111.012 45.868 110.213 45.9335 109.226 45.9215C108.24 45.9096 107.151 45.7932 105.959 45.5723C105.747 45.5329 105.524 45.4855 105.29 45.4299C105.251 45.5082 105.217 45.5934 105.188 45.6856C104.993 46.2108 104.753 46.8438 104.469 47.5845C104.188 48.3134 103.893 49.0825 103.584 49.8918C103.276 50.7011 102.977 51.4879 102.689 52.2522C102.403 53.0047 102.151 53.672 101.934 54.2541C101.714 54.8479 101.561 55.2773 101.475 55.5421C101.382 55.7811 101.248 55.9454 101.073 56.035C100.909 56.1267 100.745 56.1573 100.58 56.1267C100.414 56.0961 100.273 56.0028 100.156 55.8467C100.036 55.7025 100.001 55.4947 100.051 55.2233C100.073 55.1053 100.148 54.8689 100.274 54.5141C100.413 54.1614 100.578 53.7343 100.768 53.2326C100.959 52.7309 101.151 52.1869 101.345 51.6004C101.551 51.0162 101.741 50.4227 101.913 49.8201C102.098 49.2197 102.24 48.6481 102.341 48.1053C102.398 47.7986 102.437 47.5191 102.46 47.267C101.749 47.6112 100.96 47.8495 100.094 47.9818C99.2272 48.1141 98.3249 48.1421 97.3871 48.0659C97.0182 48.6078 96.6248 49.0841 96.207 49.4948C95.7913 49.8937 95.3696 50.1939 94.9417 50.3953C94.5256 50.5989 94.1229 50.6646 93.7335 50.5924C93.356 50.5224 93.0833 50.2156 92.9156 49.672C92.7596 49.1305 92.7746 48.3583 92.9605 47.3553C93.0939 46.6356 93.2636 45.9836 93.4695 45.3993C93.4236 44.9881 93.4478 44.5288 93.5418 44.0215C93.6621 43.3725 93.9152 42.797 94.3011 42.2949C94.6989 41.795 95.1714 41.4188 95.7185 41.1663C96.2775 40.916 96.8579 40.8466 97.4596 40.9581C98.0732 41.0718 98.5379 41.396 98.8538 41.9305C99.1837 42.4554 99.2677 43.1544 99.1059 44.0275C99.0162 44.5113 98.883 44.9992 98.7064 45.4912C98.532 45.9715 98.3221 46.4452 98.0769 46.9123C98.8893 46.9408 99.6757 46.8791 100.436 46.7272C101.197 46.5752 101.878 46.3537 102.481 46.0628C102.445 45.6655 102.337 45.3281 102.156 45.0506C101.988 44.7752 101.731 44.5812 101.386 44.4684C101.097 44.3783 100.984 44.1681 101.045 43.8377C101.067 43.7197 101.147 43.6186 101.284 43.5342C101.434 43.4521 101.591 43.4263 101.756 43.457C102.075 43.516 102.437 43.6015 102.844 43.7134C103.262 43.8276 103.788 43.9496 104.423 44.0794C104.89 43.275 105.424 42.5319 106.027 41.8503C106.641 41.1708 107.273 40.5923 107.923 40.1147C108.572 39.6372 109.199 39.2835 109.803 39.0537C110.407 38.8239 110.939 38.7517 111.4 38.837C111.742 38.9004 111.951 38.988 112.028 39.0999C112.117 39.214 112.143 39.3713 112.106 39.5719C112.064 39.7961 111.961 39.9541 111.798 40.0458C111.649 40.1279 111.455 40.1836 111.218 40.2129ZM94.8481 45.2704C94.9712 45.6594 95.1923 45.981 95.5113 46.2354C95.8325 46.478 96.1738 46.645 96.5351 46.7364C96.7804 46.2693 96.9946 45.772 97.1778 45.2445C97.3728 44.7193 97.5162 44.2089 97.608 43.7133C97.6627 43.4183 97.6367 43.1633 97.5301 42.9483C97.4257 42.7215 97.2496 42.5851 97.0018 42.5392C96.6243 42.4692 96.243 42.5511 95.8579 42.7848C95.4847 43.0208 95.1964 43.3579 94.9931 43.7962C95.0552 43.8565 95.1011 43.9382 95.1308 44.0414C95.1723 44.1467 95.1755 44.2937 95.1405 44.4825C95.1318 44.5297 95.1014 44.6278 95.0494 44.7768C94.9995 44.9141 94.9324 45.0786 94.8481 45.2704ZM95.8519 47.8546C95.5473 47.786 95.2552 47.683 94.9755 47.5457C94.7077 47.4107 94.4652 47.2376 94.248 47.0265C94.1763 47.2817 94.1207 47.5155 94.0814 47.7278C93.9458 48.4594 94.0255 48.8525 94.3205 48.9072C94.5565 48.9509 94.8025 48.8745 95.0586 48.6778C95.3265 48.4834 95.591 48.209 95.8519 47.8546ZM103.451 45.4736C103.621 45.3464 103.78 45.2112 103.929 45.0679C103.931 45.0561 103.933 45.0443 103.936 45.0325C103.808 44.9966 103.676 44.9538 103.538 44.904C103.413 44.8563 103.286 44.8146 103.159 44.7787C103.279 44.9841 103.377 45.2157 103.451 45.4736ZM116.664 47.3733C116.594 47.7508 116.407 48.1006 116.103 48.4227C115.802 48.7329 115.426 49.0171 114.975 49.2753C114.527 49.5217 114.04 49.7428 113.516 49.9385C112.991 50.1342 112.473 50.2945 111.962 50.4194C111.451 50.5443 110.988 50.6356 110.575 50.6932C110.395 51.1359 110.273 51.5342 110.207 51.8882C110.166 52.1124 110.189 52.2815 110.278 52.3956C110.367 52.5097 110.523 52.5875 110.747 52.629C111.243 52.7209 111.784 52.7297 112.372 52.6555C112.959 52.5813 113.568 52.4562 114.199 52.2801C114.829 52.1041 115.439 51.906 116.029 51.6858C116.619 51.4657 117.159 51.2545 117.648 51.0522C118.149 50.8521 118.563 50.6909 118.891 50.5686C119.219 50.4463 119.43 50.3939 119.524 50.4114C119.666 50.4376 119.763 50.5045 119.817 50.612C119.884 50.7099 119.907 50.8179 119.885 50.9358C119.867 51.0302 119.686 51.1858 119.341 51.4025C119.007 51.6214 118.565 51.8689 118.013 52.145C117.464 52.4093 116.853 52.6745 116.181 52.9405C115.51 53.2066 114.819 53.4447 114.109 53.6547C113.41 53.867 112.741 54.0177 112.103 54.1068C111.475 54.198 110.926 54.1999 110.454 54.1124C109.84 53.9987 109.405 53.6801 109.148 53.1565C108.891 52.6329 108.853 51.8873 109.032 50.9198C109.152 50.2709 109.356 49.6313 109.644 49.0012C109.943 48.3732 110.296 47.7857 110.703 47.2387C111.123 46.682 111.56 46.2015 112.013 45.7974C112.481 45.3836 112.946 45.0793 113.409 44.8844C113.875 44.6778 114.302 44.6105 114.691 44.6827C115.435 44.8205 115.98 45.1352 116.329 45.6269C116.677 46.1186 116.789 46.7007 116.664 47.3733ZM111.199 49.3993C111.607 49.2429 112.028 49.0769 112.463 48.9013C112.898 48.7257 113.305 48.5387 113.684 48.3404C114.062 48.142 114.378 47.9199 114.631 47.6738C114.898 47.4182 115.06 47.137 115.117 46.8303C115.198 46.3937 115.002 46.1317 114.53 46.0442C114.236 45.9895 113.888 46.1204 113.487 46.4367C113.101 46.7434 112.706 47.1644 112.301 47.6997C111.897 48.235 111.53 48.8015 111.199 49.3993ZM130.315 59.1664C129.854 59.0811 129.57 58.9674 129.462 58.8254C129.352 58.6951 129.308 58.571 129.33 58.453C129.354 58.3232 129.431 58.2033 129.562 58.0932C129.69 57.9949 129.832 57.9175 129.989 57.8612C130.279 57.7441 130.566 57.6141 130.848 57.4713C131.143 57.3306 131.391 57.1753 131.594 57.0053C131.798 56.8235 131.919 56.6324 131.956 56.4318C131.987 56.2666 131.895 56.0725 131.68 55.8496C131.467 55.6149 131.192 55.3564 130.853 55.074C130.527 54.7939 130.199 54.489 129.87 54.1594C129.552 53.8321 129.298 53.492 129.107 53.1393C128.918 52.7748 128.86 52.3979 128.932 52.0085C128.967 51.8197 129.027 51.6294 129.111 51.4376C128.617 51.6023 128.121 51.7729 127.625 51.9493C127.142 52.1162 126.674 52.2735 126.219 52.4211C126.112 52.9993 125.888 53.5496 125.547 54.0723C125.208 54.5831 124.802 55.0325 124.327 55.4205C123.852 55.8085 123.348 56.0933 122.814 56.2751C122.292 56.459 121.789 56.5061 121.305 56.4164C120.75 56.3136 120.351 56.0992 120.106 55.7732C119.864 55.4353 119.779 55.0658 119.854 54.6647C119.95 54.1455 120.174 53.7293 120.525 53.416C120.878 53.0909 121.361 52.8205 121.975 52.6047C122.251 52.4972 122.637 52.3552 123.134 52.1788C123.644 51.9927 124.218 51.7939 124.855 51.5825C124.777 51.3482 124.554 51.1972 124.189 51.1294C124.047 51.1032 123.808 51.1077 123.472 51.1431C123.136 51.1784 122.748 51.2286 122.309 51.2937C121.882 51.3609 121.442 51.4319 120.988 51.5065C120.549 51.5716 120.144 51.6185 119.772 51.6473C119.413 51.6783 119.133 51.6752 118.932 51.638C118.495 51.5571 118.18 51.3826 117.985 51.1147C117.805 50.8372 117.748 50.5214 117.813 50.1675C117.87 49.8607 118.075 49.5142 118.427 49.1279C118.791 48.7438 119.235 48.3563 119.759 47.9652C120.295 47.5763 120.849 47.2214 121.421 46.9002C121.993 46.5791 122.527 46.3303 123.024 46.1538C123.52 45.9774 123.916 45.9165 124.211 45.9711C124.459 46.017 124.631 46.1405 124.728 46.3416C124.837 46.5448 124.865 46.788 124.813 47.0712C124.767 47.319 124.622 47.5058 124.379 47.6316C124.148 47.7596 123.766 47.7803 123.233 47.6937C122.98 47.8055 122.651 47.9702 122.244 48.1878C121.852 48.3958 121.456 48.6214 121.057 48.8648C120.67 49.1103 120.333 49.3469 120.047 49.5746C119.772 49.8044 119.622 49.9901 119.596 50.1317C119.578 50.2261 119.628 50.2842 119.746 50.3061C119.864 50.3279 120.093 50.3094 120.434 50.2505C120.788 50.1819 121.198 50.1114 121.663 50.0389C122.14 49.9686 122.625 49.9182 123.119 49.8877C123.615 49.8454 124.064 49.8614 124.465 49.9358C125.35 50.0998 125.911 50.4967 126.148 51.1264C126.837 50.9002 127.54 50.6643 128.256 50.4188C128.985 50.1755 129.689 49.9337 130.368 49.6934C130.912 49.1962 131.523 48.7604 132.203 48.3859C132.896 48.0019 133.571 47.7182 134.228 47.5347C134.884 47.3513 135.443 47.3022 135.903 47.3875C136.103 47.4247 136.246 47.5121 136.33 47.6498C136.428 47.7778 136.464 47.9126 136.438 48.0542C136.418 48.1604 136.361 48.2718 136.266 48.3885C136.183 48.5074 135.984 48.6596 135.669 48.8453C135.356 49.0192 134.843 49.2536 134.129 49.5485C133.731 49.7188 133.302 49.8956 132.841 50.0786C132.382 50.2498 131.897 50.4285 131.387 50.6146C131.134 50.8606 130.915 51.1191 130.731 51.39C130.56 51.6513 130.449 51.9235 130.396 52.2067C130.35 52.4545 130.432 52.7075 130.64 52.9658C130.851 53.2123 131.119 53.4757 131.446 53.7559C131.772 54.036 132.089 54.3328 132.397 54.6462C132.717 54.9618 132.971 55.3018 133.16 55.6663C133.349 56.0308 133.404 56.4254 133.325 56.8502C133.268 57.157 133.132 57.4613 132.918 57.7633C132.705 58.0534 132.45 58.3112 132.152 58.5367C131.864 58.7761 131.557 58.9511 131.231 59.0616C130.903 59.1839 130.598 59.2188 130.315 59.1664ZM124.361 53.0652C123.904 53.2246 123.499 53.3692 123.145 53.499C122.794 53.6169 122.513 53.7174 122.302 53.8004C122.078 53.893 121.88 54.0029 121.71 54.13C121.554 54.2476 121.455 54.4184 121.414 54.6426C121.394 54.7488 121.406 54.8487 121.45 54.9422C121.496 55.0239 121.578 55.0757 121.696 55.0976C121.979 55.1501 122.285 55.0787 122.614 54.8834C122.945 54.6763 123.264 54.4058 123.57 54.072C123.876 53.7381 124.14 53.4025 124.361 53.0652ZM136.691 59.0667C136.467 59.0251 136.281 58.9053 136.135 58.7073C135.991 58.4976 135.953 58.2098 136.02 57.844C136.068 57.5844 136.171 57.2311 136.327 56.7841C136.485 56.3252 136.674 55.8295 136.895 55.2968C137.116 54.7641 137.342 54.2384 137.572 53.7197C137.816 53.1914 138.05 52.7221 138.272 52.3117C138.495 51.9014 138.679 51.5999 138.824 51.4072C138.949 51.2595 139.057 51.1697 139.149 51.1378C139.252 51.1081 139.345 51.1009 139.427 51.1162C139.593 51.1469 139.724 51.2262 139.823 51.3543C139.933 51.4845 139.959 51.703 139.903 52.0098C139.87 52.1868 139.78 52.4752 139.632 52.875C139.499 53.2653 139.329 53.7219 139.122 54.245C138.929 54.7585 138.721 55.2874 138.498 55.8319C138.29 56.3668 138.085 56.8781 137.885 57.3658C137.684 57.8534 137.523 58.2629 137.401 58.5941C137.319 58.7742 137.209 58.9063 137.071 58.9907C136.947 59.0654 136.821 59.0907 136.691 59.0667ZM140.239 49.6008C139.968 49.5505 139.724 49.4198 139.506 49.2087C139.301 48.9998 139.232 48.7124 139.3 48.3466C139.357 48.0399 139.474 47.8052 139.65 47.6427C139.839 47.4823 140.041 47.3794 140.257 47.334C140.486 47.279 140.678 47.2657 140.831 47.2941C140.985 47.3225 141.149 47.3896 141.325 47.4954C141.515 47.5916 141.664 47.7413 141.773 47.9445C141.884 48.136 141.909 48.3969 141.847 48.7272C141.806 48.9514 141.692 49.1378 141.506 49.2863C141.322 49.4231 141.109 49.5179 140.867 49.5707C140.637 49.6258 140.428 49.6358 140.239 49.6008ZM151.459 62.3714C151.117 62.308 150.896 62.151 150.796 61.9006C150.696 61.6502 150.696 61.2536 150.797 60.7108C150.878 60.2743 151.032 59.7414 151.258 59.1121C151.496 58.485 151.77 57.7974 152.08 57.0493C152.391 56.2894 152.713 55.5069 153.046 54.702C152.144 55.5479 151.203 56.185 150.22 56.6131C149.252 57.0316 148.226 57.232 147.143 57.2144C146.788 57.7466 146.408 58.2192 146.001 58.6321C145.595 59.045 145.177 59.3581 144.747 59.5713C144.317 59.7845 143.896 59.8528 143.483 59.7763C142.975 59.6823 142.583 59.396 142.306 58.9174C142.04 58.441 141.98 57.8075 142.127 57.017C142.228 56.4742 142.388 56.0036 142.608 55.6051C142.831 55.1948 143.048 54.9116 143.26 54.7556C143.176 54.2884 143.186 53.7717 143.291 53.2053C143.42 52.5092 143.693 51.9251 144.11 51.4532C144.529 50.9695 145.032 50.6294 145.617 50.4328C146.205 50.2244 146.806 50.1771 147.419 50.2908C147.915 50.3827 148.315 50.6948 148.619 51.2271C148.923 51.7594 148.995 52.4563 148.835 53.3176C148.687 54.1199 148.38 54.9845 147.915 55.9113C148.61 55.7838 149.329 55.5265 150.072 55.1395C150.827 54.7546 151.577 54.265 152.321 53.6708C153.066 53.0765 153.766 52.3947 154.421 51.6252C154.591 51.4369 154.793 51.3646 155.029 51.4083C155.241 51.4477 155.395 51.5432 155.489 51.6948C155.596 51.8369 155.631 52.0141 155.591 52.2265C155.58 52.2855 155.508 52.4795 155.374 52.8086C155.251 53.1398 155.088 53.5611 154.883 54.0723C154.69 54.5858 154.476 55.1502 154.24 55.7654C154.004 56.3807 153.767 57.0019 153.528 57.629C153.302 58.2583 153.102 58.8436 152.928 59.385C153.296 58.9162 153.708 58.4067 154.163 57.8566C154.619 57.3064 155.079 56.7692 155.542 56.2448C156.02 55.7109 156.469 55.2267 156.892 54.7924C157.326 54.3603 157.7 54.0207 158.014 53.7739C158.342 53.5174 158.583 53.4034 158.736 53.4318C159.02 53.4843 159.25 53.6246 159.427 53.8528C159.605 54.0809 159.675 54.2953 159.638 54.4959C159.587 54.7672 159.481 55.1747 159.319 55.7184C159.16 56.2502 158.975 56.8506 158.766 57.5196C158.557 58.1887 158.347 58.8577 158.138 59.5268C157.928 60.1958 157.743 60.8021 157.581 61.3457C157.419 61.8894 157.313 62.2969 157.263 62.5682C157.23 62.7452 157.124 62.8903 156.944 63.0035C156.764 63.1166 156.58 63.1557 156.391 63.1207C156.262 63.0967 156.157 63.0346 156.078 62.9345C156.009 62.8484 155.974 62.6712 155.975 62.4029C155.976 62.1345 156.027 61.729 156.128 61.1862C156.226 60.6553 156.351 60.0804 156.502 59.4616C156.656 58.831 156.82 58.2085 156.995 57.5941C157.184 56.9701 157.366 56.412 157.543 55.92C157.189 56.3181 156.776 56.797 156.306 57.3567C155.848 57.9186 155.369 58.495 154.869 59.0858C154.369 59.6765 153.889 60.2282 153.428 60.7407C152.966 61.2533 152.561 61.6603 152.213 61.9618C151.864 62.2633 151.613 62.3998 151.459 62.3714ZM146.305 55.9059C146.53 55.4837 146.731 55.0267 146.907 54.5346C147.098 54.0329 147.241 53.5225 147.338 53.0034C147.394 52.6966 147.381 52.4379 147.298 52.2272C147.215 52.0166 147.074 51.8927 146.873 51.8555C146.566 51.7986 146.249 51.8314 145.921 51.9537C145.596 52.0642 145.304 52.2542 145.047 52.5238C144.801 52.7956 144.639 53.1439 144.56 53.5687C144.462 54.0996 144.578 54.5911 144.909 55.043C145.254 55.4853 145.72 55.7729 146.305 55.9059ZM145.601 57.0385C144.805 56.8544 144.2 56.4981 143.786 55.9697C143.734 56.1187 143.683 56.2619 143.633 56.3991C143.585 56.5245 143.549 56.6521 143.525 56.7819C143.457 57.1477 143.463 57.4477 143.541 57.6819C143.634 57.9066 143.81 58.0429 144.07 58.091C144.282 58.1304 144.522 58.0529 144.79 57.8584C145.058 57.664 145.328 57.3907 145.601 57.0385ZM162.046 64.1504C161.598 64.0673 161.264 63.7919 161.046 63.3243C160.841 62.8471 160.801 62.2722 160.926 61.5996C161.042 60.9743 161.31 60.3832 161.731 59.8265C162.163 59.272 162.691 58.7597 163.315 58.2896C163.939 57.8195 164.602 57.4053 165.303 57.047C166.006 56.677 166.697 56.3718 167.377 56.1316C168.068 55.8935 168.691 55.7223 169.248 55.6179C169.804 55.5135 170.235 55.4898 170.542 55.5467C170.707 55.5773 170.837 55.6378 170.93 55.7283C171.025 55.807 171.057 55.9289 171.027 56.0941C171.007 56.2003 170.947 56.2929 170.847 56.372C170.859 56.3742 170.87 56.3764 170.882 56.3786C171.142 56.4267 171.243 56.6041 171.186 56.9109C171.167 57.0171 171.085 57.2277 170.941 57.5428C170.799 57.846 170.631 58.2297 170.435 58.6938C170.239 59.1579 170.045 59.6772 169.853 60.2519C169.663 60.8147 169.513 61.397 169.401 61.9988C169.307 62.5061 169.455 62.7959 169.844 62.8681C170.281 62.949 170.742 62.9307 171.227 62.8132C171.713 62.6957 172.194 62.5348 172.672 62.3303C173.151 62.1141 173.594 61.8971 174 61.6796C174.409 61.4502 174.756 61.2582 175.041 61.1035C175.326 60.9489 175.521 60.8814 175.628 60.9011C175.722 60.9185 175.799 60.9634 175.859 61.0355C175.919 61.1076 175.937 61.2085 175.913 61.3383C175.891 61.4563 175.733 61.6468 175.441 61.9099C175.148 62.1729 174.771 62.463 174.309 62.7802C173.848 63.0974 173.341 63.3941 172.789 63.6702C172.238 63.9463 171.687 64.1553 171.135 64.2973C170.584 64.4392 170.079 64.4676 169.619 64.3823C169.265 64.3167 168.96 64.1504 168.704 63.8833C168.463 63.6066 168.302 63.1864 168.224 62.6227C168.157 62.0611 168.21 61.3142 168.383 60.3821L168.465 59.9396C167.71 60.7882 166.94 61.5487 166.156 62.2212C165.385 62.8958 164.642 63.4112 163.929 63.7672C163.228 64.1255 162.601 64.2532 162.046 64.1504ZM169.97 56.7586C169.906 56.7713 169.817 56.7914 169.702 56.8189C169.114 56.9661 168.49 57.1679 167.833 57.4243C167.187 57.6829 166.545 57.985 165.907 58.3306C165.281 58.6784 164.705 59.0537 164.179 59.4565C163.653 59.8594 163.214 60.2845 162.863 60.732C162.511 61.1794 162.292 61.6391 162.204 62.1111C162.176 62.2645 162.183 62.388 162.227 62.4815C162.283 62.5772 162.393 62.6404 162.558 62.671C162.794 62.7147 163.128 62.6241 163.561 62.3991C163.995 62.1623 164.482 61.8377 165.022 61.4252C165.574 61.0149 166.136 60.5516 166.708 60.0351C167.28 59.5186 167.829 58.9919 168.356 58.4549C168.894 57.92 169.365 57.4215 169.768 56.9592C169.83 56.8853 169.898 56.8185 169.97 56.7586ZM177.034 67.1845C176.125 67.0161 175.466 66.5888 175.056 65.9027C174.66 65.2069 174.562 64.3221 174.761 63.2484C174.883 62.5877 175.115 61.8312 175.456 60.9791C175.811 60.1174 176.222 59.2172 176.689 58.2785C177.17 57.3303 177.672 56.3982 178.196 55.4823C178.719 54.5664 179.218 53.7191 179.692 52.9404C180.18 52.1521 180.6 51.4978 180.953 50.9773C181.153 50.685 181.384 50.5629 181.643 50.611C181.997 50.6766 182.134 50.9277 182.053 51.3642C182.026 51.5058 181.908 51.7829 181.697 52.1954C181.487 52.6079 181.215 53.1189 180.882 53.7285C180.552 54.3263 180.19 54.9916 179.798 55.7244C179.406 56.4572 179.004 57.2126 178.591 57.9904C178.193 58.7586 177.813 59.5242 177.452 60.2872C177.093 61.0383 176.784 61.75 176.525 62.4221C176.266 63.0942 176.091 63.678 175.999 64.1735C175.94 64.4921 175.976 64.7611 176.106 64.9805C176.25 65.1903 176.47 65.3225 176.765 65.3772C177.307 65.4778 177.87 65.4722 178.452 65.3604C179.048 65.239 179.629 65.066 180.196 64.8415C180.764 64.6051 181.284 64.366 181.756 64.1239C182.242 63.8723 182.653 63.6676 182.987 63.5099C183.324 63.3404 183.551 63.2665 183.669 63.2884C183.928 63.3365 184.032 63.5022 183.979 63.7853C183.962 63.8797 183.835 64.0392 183.598 64.2638C183.363 64.4766 183.055 64.7246 182.673 65.0077C182.291 65.2908 181.854 65.5759 181.361 65.863C180.882 66.1404 180.383 66.3958 179.864 66.629C179.359 66.8527 178.859 67.0163 178.364 67.1198C177.878 67.2373 177.435 67.2589 177.034 67.1845ZM200.667 71.3816C200.372 71.327 200.115 71.2 199.896 71.0007C199.674 70.8132 199.505 70.5072 199.388 70.0829C199.274 69.6467 199.23 69.0589 199.258 68.3195C199.299 67.5705 199.428 66.6119 199.644 65.4438C199.677 65.2668 199.71 65.0898 199.742 64.9128C199.777 64.724 199.818 64.5363 199.865 64.3497C199.413 65.0104 198.925 65.634 198.402 66.2204C197.89 66.809 197.369 67.3165 196.838 67.7429C196.319 68.1716 195.814 68.4929 195.323 68.707C194.844 68.9232 194.409 68.9953 194.02 68.9231C193.324 68.7941 192.807 68.4236 192.468 67.8118C192.142 67.2021 192.091 66.2896 192.317 65.0743C192.45 64.3545 192.645 63.5974 192.902 62.803C193.171 62.0107 193.472 61.2427 193.805 60.499C194.139 59.7552 194.47 59.0844 194.801 58.4867C195.143 57.8911 195.461 57.4253 195.755 57.0892C196.05 56.7532 196.285 56.6016 196.462 56.6344C196.757 56.6891 196.961 56.8062 197.074 56.9859C197.202 57.1559 197.243 57.3589 197.199 57.5949C197.169 57.76 197.046 58.0607 196.831 58.4968C196.616 58.9329 196.354 59.4579 196.045 60.0719C195.738 60.6741 195.416 61.3223 195.08 62.0167C194.756 62.7132 194.462 63.4094 194.199 64.105C193.938 64.7889 193.753 65.4259 193.643 66.0158C193.532 66.6176 193.718 66.9633 194.202 67.0529C194.768 67.1579 195.344 67.0144 195.929 66.6225C196.516 66.2188 197.098 65.6492 197.674 64.9138C198.249 64.1784 198.807 63.342 199.347 62.4047C199.901 61.4578 200.422 60.4866 200.912 59.4912C200.92 59.3828 200.936 59.2637 200.96 59.1339C200.984 59.0041 201.015 58.8389 201.052 58.6384C201.1 58.3788 201.222 58.1146 201.418 57.8459C201.629 57.5675 201.861 57.336 202.115 57.1511C202.369 56.9663 202.602 56.8936 202.814 56.933C203.215 57.0073 203.363 57.3277 203.258 57.894C203.232 58.0356 203.154 58.2591 203.024 58.5646C202.906 58.8722 202.744 59.3182 202.538 59.9024C202.344 60.4889 202.121 61.2652 201.869 62.2314C201.628 63.1998 201.371 64.4214 201.098 65.8963C200.866 67.147 200.768 68.0381 200.804 68.5695C200.854 69.0913 201.014 69.3773 201.286 69.4276C201.64 69.4932 202.02 69.3502 202.427 68.9984C202.846 68.6489 203.271 68.1298 203.704 67.4411C204.149 66.7546 204.581 65.9377 205 64.9903C205.434 64.0333 205.848 62.9871 206.241 61.8518C206.649 60.7069 207.022 59.5131 207.363 58.2702C207.518 57.762 207.699 57.4111 207.906 57.2176C208.112 57.024 208.304 56.9436 208.481 56.9764C208.587 56.9961 208.7 57.0475 208.819 57.1305C208.952 57.2039 209.05 57.332 209.114 57.5147C209.177 57.6974 209.176 57.9657 209.111 58.3197C208.772 60.1485 208.328 61.787 207.779 63.2352C207.244 64.6738 206.652 65.9249 206.003 66.9885C205.357 68.0403 204.702 68.9074 204.038 69.5899C203.377 70.2607 202.749 70.7485 202.156 71.0534C201.576 71.3488 201.08 71.4582 200.667 71.3816ZM209.935 72.898C209.746 72.863 209.601 72.7568 209.5 72.5793C209.399 72.4019 209.373 72.1775 209.423 71.9061C209.46 71.7055 209.563 71.3828 209.731 70.9379C209.913 70.4835 210.115 69.9534 210.337 69.3477C210.571 68.7443 210.791 68.1139 210.998 67.4567C211.208 66.7876 211.371 66.1404 211.486 65.5151C211.543 65.2083 211.662 64.9983 211.841 64.8852C212.035 64.7624 212.232 64.7196 212.433 64.7568C212.621 64.7918 212.741 64.936 212.792 65.1895C212.842 65.443 212.773 65.9182 212.582 66.6152C213.348 65.5123 214.123 64.6552 214.908 64.0439C215.706 63.4231 216.46 63.0135 217.168 62.8152C217.878 62.6051 218.492 62.5481 219.012 62.6444C219.354 62.7078 219.588 62.8245 219.716 62.9945C219.857 63.1549 219.912 63.3177 219.881 63.4829C219.84 63.7071 219.713 63.8666 219.5 63.9614C219.301 64.0466 218.962 64.1302 218.483 64.2123C217.927 64.3166 217.405 64.4641 216.918 64.6545C216.445 64.8354 215.975 65.1021 215.507 65.4547C215.051 65.8095 214.578 66.2834 214.09 66.8763C213.604 67.4575 213.089 68.192 212.547 69.08C212.004 69.9679 211.401 71.0461 210.739 72.3147C210.62 72.5611 210.492 72.7265 210.354 72.8109C210.228 72.8974 210.088 72.9264 209.935 72.898ZM220.351 74.9383C219.82 74.8399 219.378 74.5931 219.024 74.198C218.684 73.7933 218.454 73.287 218.335 72.6791C218.216 72.0712 218.225 71.3956 218.363 70.6522C218.507 69.8735 218.741 69.1052 219.065 68.3475C219.388 67.5898 219.747 66.9057 220.141 66.2952C220.534 65.6848 220.909 65.2111 221.264 64.8742C221.622 64.5255 221.913 64.372 222.137 64.4135C222.302 64.4441 222.428 64.5224 222.515 64.6483C222.601 64.7741 222.626 64.9374 222.589 65.1379C222.58 65.1851 222.502 65.3416 222.355 65.6073C222.21 65.8611 222.027 66.1933 221.804 66.6036C221.584 67.0021 221.355 67.4478 221.117 67.9407C220.879 68.4337 220.663 68.9427 220.468 69.468C220.273 69.9933 220.131 70.4978 220.041 70.9815C219.888 71.8075 219.856 72.4057 219.946 72.7763C220.05 73.1373 220.279 73.3506 220.633 73.4162C221.495 73.5759 222.338 73.5004 223.165 73.1898C224.005 72.8696 224.813 72.3969 225.588 71.7716C226.377 71.1367 227.127 70.4153 227.838 69.6074C227.414 69.5899 227.004 69.5627 226.608 69.5259C226.214 69.4774 225.839 69.4262 225.483 69.3724C225.139 69.3208 224.922 69.2379 224.834 69.1238C224.745 69.0098 224.719 68.8524 224.756 68.6519C224.777 68.4727 224.878 68.3265 225.057 68.2134C225.249 68.1024 225.434 68.0574 225.613 68.0784C226.153 68.1296 226.707 68.1712 227.274 68.2032C227.842 68.2352 228.406 68.2543 228.966 68.2605C229.35 67.7702 229.723 67.2719 230.085 66.7654C230.448 66.259 230.782 65.7717 231.089 65.3037C231.479 64.5827 231.87 63.917 232.264 63.3065C232.66 62.6843 233.032 62.1918 233.38 61.8292C233.73 61.4547 234.023 61.2893 234.259 61.3331C234.66 61.4074 234.824 61.6452 234.75 62.0463C234.734 62.1289 234.639 62.3492 234.462 62.7071C234.286 63.065 234.048 63.5273 233.748 64.094C233.459 64.663 233.126 65.3091 232.748 66.0323C232.372 66.7437 231.982 67.4953 231.579 68.2871C232.68 68.2715 233.686 68.2444 234.597 68.2056C235.521 68.1572 236.278 68.1206 236.869 68.0958C237.461 68.0592 237.811 68.0507 237.917 68.0704C238.07 68.0988 238.18 68.1985 238.246 68.3694C238.314 68.5285 238.336 68.6729 238.312 68.8027C238.292 68.9089 238.071 69.0144 237.649 69.1192C237.239 69.2262 236.678 69.3236 235.966 69.4113C235.268 69.4894 234.474 69.556 233.586 69.6109C232.711 69.6562 231.802 69.6832 230.861 69.6918C230.38 70.64 229.913 71.5787 229.461 72.5077C229.008 73.4367 228.611 74.2908 228.272 75.0699C228.069 75.5694 227.762 75.7809 227.349 75.7043C227.136 75.665 226.987 75.5824 226.9 75.4565C226.826 75.3328 226.812 75.1412 226.86 74.8816C226.867 74.8462 226.929 74.6747 227.047 74.367C227.179 74.0498 227.343 73.6591 227.539 73.195C227.737 72.7192 227.944 72.2267 228.161 71.7176C228.379 71.1967 228.584 70.716 228.776 70.2755C227.945 71.2687 227.068 72.1496 226.144 72.9182C225.221 73.6868 224.266 74.2604 223.281 74.6392C222.307 75.0201 221.33 75.1198 220.351 74.9383ZM222.83 62.748C222.547 62.6955 222.327 62.5632 222.171 62.3513C222.027 62.1415 221.979 61.9068 222.027 61.6472C222.086 61.3286 222.248 61.0839 222.511 60.9131C222.789 60.7327 223.081 60.6709 223.388 60.7277C223.73 60.7911 223.971 60.9395 224.111 61.1729C224.253 61.3945 224.295 61.6587 224.238 61.9655C224.192 62.2132 224.032 62.4215 223.756 62.5901C223.481 62.7588 223.172 62.8114 222.83 62.748ZM235.097 76.2881C234.872 76.2465 234.687 76.1268 234.541 75.9288C234.397 75.719 234.358 75.4312 234.426 75.0654C234.474 74.8059 234.576 74.4526 234.733 74.0055C234.891 73.5467 235.08 73.0509 235.301 72.5182C235.522 71.9855 235.747 71.4598 235.978 70.9411C236.222 70.4128 236.456 69.9435 236.678 69.5332C236.901 69.1229 237.085 68.8213 237.23 68.6286C237.355 68.4809 237.463 68.3912 237.555 68.3593C237.658 68.3296 237.751 68.3224 237.833 68.3377C237.999 68.3683 238.13 68.4476 238.229 68.5757C238.339 68.7059 238.365 68.9244 238.308 69.2312C238.276 69.4082 238.186 69.6966 238.038 70.0965C237.905 70.4867 237.735 70.9434 237.528 71.4664C237.335 71.9799 237.127 72.5089 236.904 73.0534C236.695 73.5882 236.491 74.0995 236.291 74.5872C236.09 75.0749 235.929 75.4843 235.807 75.8156C235.724 75.9956 235.615 76.1278 235.477 76.2121C235.353 76.2868 235.226 76.3121 235.097 76.2881ZM238.645 66.8222C238.374 66.7719 238.129 66.6412 237.912 66.4301C237.707 66.2212 237.638 65.9339 237.706 65.5681C237.763 65.2613 237.88 65.0266 238.056 64.8641C238.244 64.7037 238.447 64.6009 238.662 64.5554C238.892 64.5004 239.084 64.4871 239.237 64.5155C239.391 64.544 239.555 64.6111 239.731 64.7169C239.921 64.813 240.07 64.9627 240.179 65.166C240.29 65.3574 240.314 65.6183 240.253 65.9487C240.212 66.1728 240.098 66.3592 239.912 66.5078C239.728 66.6445 239.515 66.7393 239.273 66.7922C239.043 66.8472 238.834 66.8572 238.645 66.8222ZM240.731 77.8367C240.389 77.7733 240.118 77.5218 239.919 77.0821C239.719 76.6424 239.677 76.1158 239.79 75.5023C239.915 74.8297 240.137 74.1264 240.456 73.3923C240.787 72.6603 241.161 71.9242 241.579 71.184C241.999 70.4319 242.408 69.7083 242.805 69.0131C242.893 68.8706 242.996 68.7738 243.116 68.7227C243.249 68.662 243.433 68.6535 243.669 68.6972C244.094 68.776 244.268 69.0218 244.192 69.4348C244.174 69.5292 244.088 69.7328 243.932 70.0457C243.776 70.3586 243.577 70.7427 243.334 71.198C243.103 71.6555 242.858 72.1532 242.6 72.6912C242.344 73.2173 242.104 73.7526 241.881 74.2971C241.658 74.8416 241.478 75.3513 241.341 75.8263C241.567 75.6607 241.836 75.3933 242.149 75.0241C242.473 74.6571 242.825 74.2402 243.205 73.7735C243.586 73.2951 243.98 72.8188 244.385 72.3447C244.792 71.8588 245.191 71.4201 245.581 71.0286C245.984 70.6274 246.359 70.3185 246.704 70.1018C247.064 69.8755 247.373 69.7864 247.633 69.8345C248.01 69.9045 248.307 70.0815 248.523 70.3656C248.752 70.6401 248.885 71.0795 248.919 71.6839C248.967 72.2787 248.895 73.0953 248.703 74.1336C248.6 74.6881 248.557 75.2171 248.574 75.7206C248.602 76.2262 248.713 76.6495 248.906 76.9904C249.113 77.3217 249.417 77.5245 249.818 77.5988C250.42 77.7104 250.976 77.7037 251.488 77.5787C252.001 77.442 252.454 77.2697 252.847 77.0617C253.253 76.8442 253.594 76.6511 253.869 76.4824C254.147 76.302 254.351 76.2238 254.48 76.2478C254.752 76.2981 254.861 76.4649 254.809 76.748C254.787 76.866 254.663 77.0384 254.438 77.2652C254.227 77.4824 253.939 77.7218 253.573 77.9835C253.221 78.2356 252.823 78.4731 252.379 78.6959C251.949 78.9091 251.498 79.0696 251.027 79.1775C250.567 79.2876 250.119 79.3021 249.682 79.2212C248.868 79.0703 248.231 78.7875 247.771 78.3727C247.323 77.9601 247.042 77.365 246.93 76.5876C246.83 75.8123 246.893 74.8111 247.121 73.584C247.245 72.9115 247.295 72.4141 247.269 72.0921C247.257 71.7604 247.161 71.5228 246.98 71.3795C246.793 71.601 246.544 71.9211 246.235 72.3397C245.927 72.7465 245.575 73.1999 245.177 73.6997C244.791 74.2018 244.386 74.7065 243.963 75.2138C243.553 75.7115 243.145 76.1668 242.739 76.5797C242.333 76.9927 241.955 77.3193 241.606 77.5596C241.258 77.7881 240.967 77.8805 240.731 77.8367ZM253.185 85.3989C252.276 85.2305 251.626 85.0185 251.234 84.7628C250.842 84.5071 250.673 84.2317 250.728 83.9367C250.763 83.7479 250.85 83.6055 250.99 83.5094C251.142 83.4154 251.312 83.386 251.501 83.421C251.701 83.4581 251.985 83.5412 252.352 83.6702C252.716 83.8109 253.081 83.9152 253.447 83.983C254.662 84.2083 255.726 84.0332 256.638 83.4578C257.55 82.8824 258.351 81.8896 259.039 80.4794C259.73 79.0575 260.361 77.1974 260.934 74.8993C260.446 75.5534 259.912 76.1988 259.33 76.8354C258.762 77.4625 258.17 78.0239 257.553 78.5199C256.951 79.0062 256.351 79.3771 255.754 79.6327C255.158 79.8882 254.6 79.9679 254.081 79.8717C253.585 79.7798 253.242 79.5882 253.052 79.2966C252.874 79.0073 252.838 78.5795 252.942 78.0131C253.037 77.5058 253.278 76.9951 253.666 76.4813C254.056 75.9556 254.541 75.4474 255.12 74.9567C255.699 74.4661 256.32 74.0136 256.982 73.5994C257.647 73.1734 258.3 72.8124 258.941 72.5161C259.595 72.2103 260.192 71.9854 260.732 71.8412C261.271 71.6971 261.694 71.6535 262.001 71.7103C262.308 71.7672 262.524 71.9171 262.65 72.1601C262.775 72.4031 262.784 72.8196 262.674 73.4095C262.419 74.79 262.122 76.1264 261.785 77.4186C261.462 78.7012 261.067 79.8788 260.599 80.9516C260.132 82.0244 259.561 82.9316 258.887 83.6731C258.222 84.4286 257.421 84.9636 256.484 85.2781C255.547 85.5926 254.447 85.6329 253.185 85.3989ZM260.937 73.1058C260.277 73.374 259.59 73.6861 258.878 74.0422C258.165 74.3983 257.488 74.7915 256.847 75.2218C256.217 75.6544 255.685 76.1232 255.249 76.6283C254.814 77.1335 254.544 77.6692 254.439 78.2356C254.406 78.4125 254.502 78.5218 254.726 78.5634C254.903 78.5962 255.17 78.5053 255.527 78.2908C255.898 78.0667 256.321 77.7606 256.796 77.3726C257.273 76.9728 257.763 76.5328 258.267 76.0526C258.785 75.5628 259.274 75.0616 259.736 74.549C260.197 74.0365 260.597 73.5554 260.937 73.1058ZM60.7223 100.291C60.2739 100.208 59.9405 99.9323 59.7221 99.4647C59.5176 98.9874 59.4777 98.4125 59.6024 97.74C59.7183 97.1147 59.9864 96.5236 60.4069 95.9669C60.8392 95.4124 61.3674 94.9001 61.9916 94.43C62.6157 93.9598 63.2783 93.5456 63.9793 93.1874C64.6825 92.8174 65.3737 92.5122 66.0528 92.2719C66.7438 92.0339 67.3674 91.8627 67.9238 91.7583C68.4801 91.6539 68.9117 91.6302 69.2184 91.687C69.3836 91.7177 69.5128 91.7782 69.6058 91.8687C69.7011 91.9474 69.7334 92.0693 69.7028 92.2345C69.6831 92.3407 69.6232 92.4333 69.5231 92.5124C69.5349 92.5146 69.5467 92.5168 69.5585 92.5189C69.8181 92.5671 69.9195 92.7445 69.8626 93.0513C69.8429 93.1575 69.7612 93.3681 69.6174 93.6832C69.4757 93.9864 69.307 94.3701 69.1111 94.8342C68.9153 95.2983 68.7214 95.8176 68.5294 96.3923C68.3397 96.9551 68.1891 97.5374 68.0775 98.1392C67.9835 98.6465 68.1312 98.9363 68.5205 99.0085C68.9571 99.0894 69.4181 99.0711 69.9037 98.9536C70.3892 98.8361 70.8706 98.6751 71.3479 98.4707C71.8273 98.2544 72.2703 98.0375 72.6767 97.82C73.0854 97.5906 73.4322 97.3986 73.7171 97.2439C74.0021 97.0892 74.1976 97.0218 74.3038 97.0414C74.3982 97.0589 74.4754 97.1037 74.5352 97.1759C74.5951 97.248 74.613 97.3489 74.5889 97.4787C74.5671 97.5967 74.4097 97.7872 74.1169 98.0503C73.824 98.3133 73.4468 98.6034 72.9853 98.9206C72.5238 99.2378 72.0172 99.5345 71.4657 99.8106C70.9141 100.087 70.3628 100.296 69.8117 100.438C69.2606 100.58 68.755 100.608 68.2948 100.523C67.9408 100.457 67.636 100.291 67.3804 100.024C67.1388 99.747 66.9787 99.3268 66.9001 98.763C66.8333 98.2015 66.8863 97.4546 67.0591 96.5225L67.1411 96.08C66.3858 96.9286 65.6163 97.6891 64.8327 98.3616C64.0608 99.0362 63.3185 99.5515 62.6056 99.9076C61.9046 100.266 61.2768 100.394 60.7223 100.291ZM68.646 92.899C68.5826 92.9117 68.4935 92.9318 68.3785 92.9593C67.7898 93.1065 67.1666 93.3083 66.5089 93.5647C65.8629 93.8233 65.2211 94.1254 64.5835 94.471C63.9576 94.8188 63.3816 95.1941 62.8554 95.5969C62.3291 95.9998 61.8903 96.4249 61.5389 96.8724C61.1875 97.3198 60.968 97.7795 60.8805 98.2515C60.8521 98.4049 60.8597 98.5283 60.9034 98.6219C60.9589 98.7176 61.0693 98.7808 61.2344 98.8114C61.4704 98.8551 61.8045 98.7645 62.2368 98.5395C62.6712 98.3027 63.1585 97.978 63.6987 97.5656C64.2507 97.1553 64.8126 96.6919 65.3843 96.1755C65.956 95.659 66.5052 95.1323 67.0318 94.5953C67.5703 94.0604 68.0411 93.5619 68.4441 93.0996C68.5066 93.0257 68.5739 92.9589 68.646 92.899ZM81.0177 94.3682C81.4784 93.6603 81.9258 92.9255 82.3598 92.1639C82.8057 91.4044 83.2254 90.6218 83.6188 89.816C83.7333 89.5931 83.8745 89.424 84.0423 89.3086C84.2241 89.1837 84.4153 89.1398 84.6159 89.177C84.7575 89.2032 84.8657 89.2782 84.9404 89.4019C85.0269 89.5277 85.0537 89.6792 85.0209 89.8562C84.9794 90.0803 84.8187 90.4533 84.539 90.9751C84.271 91.499 83.9285 92.1617 83.5115 92.9631C83.1062 93.7667 82.671 94.699 82.2059 95.76C81.7548 96.8114 81.3171 97.9873 80.893 99.2878C80.4807 100.591 80.1346 101.997 79.8547 103.507C79.7935 103.838 79.6724 104.096 79.4914 104.282C79.3083 104.48 79.1164 104.56 78.9159 104.523C78.7979 104.501 78.6912 104.451 78.596 104.372C78.5007 104.294 78.4326 104.135 78.3915 103.895C78.3601 103.67 78.3634 103.322 78.4015 102.854C78.4418 102.373 78.5363 101.731 78.685 100.929C78.7987 100.315 78.9577 99.6553 79.1618 98.9487C78.4376 99.8274 77.6891 100.573 76.9164 101.187C76.1576 101.791 75.4472 102.233 74.7851 102.513C74.1347 102.795 73.6031 102.898 73.1901 102.821C72.6828 102.727 72.3015 102.48 72.0464 102.078C71.8008 101.691 71.7393 101.167 71.8617 100.506C71.9689 99.9283 72.215 99.3576 72.6001 98.7943C72.9852 98.2311 73.4566 97.696 74.0143 97.1891C74.5742 96.6705 75.1747 96.196 75.8159 95.7656C76.457 95.3353 77.0862 94.9698 77.7033 94.6692C78.3344 94.359 78.9067 94.1356 79.4202 93.9989C79.9359 93.8504 80.3412 93.8034 80.6362 93.8581C80.7542 93.88 80.8527 93.941 80.9318 94.0411C81.0109 94.1411 81.0395 94.2502 81.0177 94.3682ZM80.6859 94.8742C80.588 94.9415 80.4724 95.0055 80.3391 95.0662C80.2058 95.1269 80.0596 95.1914 79.9005 95.2595C79.3136 95.5291 78.6626 95.8478 77.9476 96.2156C77.2465 96.5739 76.5604 96.9837 75.8891 97.4451C75.2317 97.8969 74.6692 98.3967 74.2015 98.9447C73.7338 99.4926 73.4399 100.091 73.3196 100.74C73.2671 101.023 73.3824 101.191 73.6656 101.243C74.055 101.316 74.5136 101.212 75.0416 100.931C75.5835 100.641 76.1635 100.211 76.7815 99.6425C77.4018 99.0618 78.0427 98.369 78.7045 97.5641C79.3684 96.7475 80.0289 95.8508 80.6859 94.8742ZM92.062 96.4151C92.5227 95.7072 92.9701 94.9724 93.4042 94.2108C93.85 93.4513 94.2697 92.6687 94.6631 91.8629C94.7776 91.64 94.9188 91.4709 95.0867 91.3556C95.2685 91.2306 95.4597 91.1867 95.6603 91.2239C95.8019 91.2502 95.91 91.3251 95.9847 91.4488C96.0712 91.5747 96.0981 91.7261 96.0653 91.9031C96.0237 92.1273 95.8631 92.5003 95.5833 93.022C95.3153 93.5459 94.9728 94.2086 94.5558 95.01C94.1506 95.8137 93.7154 96.746 93.2502 97.807C92.7991 98.8584 92.3615 100.034 91.9374 101.335C91.5251 102.637 91.179 104.044 90.899 105.554C90.8378 105.885 90.7167 106.143 90.5358 106.329C90.3526 106.527 90.1608 106.607 89.9602 106.57C89.8422 106.548 89.7356 106.498 89.6403 106.419C89.5451 106.341 89.4769 106.182 89.4359 105.942C89.4044 105.717 89.4078 105.369 89.4459 104.9C89.4861 104.42 89.5806 103.778 89.7293 102.976C89.843 102.362 90.002 101.702 90.2062 100.996C89.4819 101.874 88.7334 102.62 87.9607 103.234C87.2019 103.838 86.4915 104.28 85.8294 104.56C85.1791 104.842 84.6474 104.945 84.2345 104.868C83.7271 104.774 83.3458 104.527 83.0907 104.125C82.8451 103.738 82.7836 103.214 82.9061 102.553C83.0132 101.975 83.2593 101.405 83.6444 100.841C84.0295 100.278 84.5009 99.7429 85.0586 99.2361C85.6185 98.7174 86.2191 98.2429 86.8602 97.8126C87.5014 97.3822 88.1305 97.0167 88.7476 96.7162C89.3787 96.406 89.951 96.1825 90.4645 96.0458C90.9802 95.8973 91.3856 95.8504 91.6806 95.9051C91.7985 95.9269 91.8971 95.9879 91.9762 96.088C92.0552 96.1881 92.0839 96.2971 92.062 96.4151ZM91.7302 96.9211C91.6323 96.9884 91.5167 97.0524 91.3834 97.1131C91.2501 97.1739 91.1039 97.2383 90.9448 97.3065C90.3579 97.576 89.7069 97.8947 88.9919 98.2626C88.2909 98.6208 87.6047 99.0306 86.9334 99.492C86.2761 99.9438 85.7135 100.444 85.2459 100.992C84.7782 101.54 84.4842 102.138 84.3639 102.787C84.3114 103.07 84.4268 103.238 84.7099 103.29C85.0993 103.363 85.558 103.258 86.0859 102.978C86.6279 102.688 87.2079 102.258 87.8259 101.689C88.4461 101.109 89.0871 100.416 89.7488 99.6111C90.4128 98.7944 91.0732 97.8978 91.7302 96.9211ZM102.979 101.789C102.665 101.706 102.556 101.472 102.652 101.087C102.681 100.995 102.767 100.895 102.909 100.787C103.053 100.667 103.203 100.616 103.358 100.632C103.731 100.665 104.189 100.695 104.733 100.722C105.291 100.74 105.904 100.756 106.573 100.77C106.798 100.214 107.052 99.6328 107.336 99.0262C107.619 98.4197 107.917 97.8342 108.229 97.2696C108.543 96.6932 108.858 96.178 109.174 95.724C109.49 95.27 109.798 94.9244 110.099 94.6871C110.253 94.5814 110.387 94.5148 110.502 94.4872C110.619 94.4479 110.719 94.4359 110.801 94.4512C110.967 94.4818 111.083 94.5767 111.151 94.7358C111.231 94.897 111.255 95.0662 111.222 95.2432C111.205 95.3376 111.169 95.4287 111.117 95.5165C110.758 96.1335 110.354 96.9006 109.903 97.8178C109.452 98.7351 108.967 99.7375 108.448 100.825C109.567 100.849 110.687 100.862 111.81 100.862C112.933 100.863 113.899 100.853 114.708 100.832C114.95 100.779 115.118 100.829 115.211 100.98C115.317 101.134 115.358 101.276 115.334 101.406C115.303 101.571 115.233 101.686 115.124 101.751C115.026 101.818 114.924 101.873 114.819 101.914L114.798 101.929C114.544 101.979 114.169 102.026 113.673 102.068C113.18 102.099 112.613 102.128 111.973 102.156C111.335 102.172 110.657 102.18 109.936 102.181C109.228 102.184 108.528 102.176 107.835 102.158C107.372 103.146 106.896 104.162 106.41 105.207C105.937 106.242 105.468 107.26 105.002 108.26C104.805 108.662 104.62 108.903 104.447 108.981C104.284 109.072 104.12 109.103 103.954 109.072C103.766 109.037 103.613 108.936 103.498 108.768C103.395 108.602 103.43 108.31 103.606 107.891L106.016 102.095C105.289 102.07 104.649 102.031 104.098 101.978C103.558 101.926 103.185 101.863 102.979 101.789ZM113.677 111.104C113.146 111.006 112.704 110.759 112.35 110.364C112.01 109.959 111.78 109.453 111.661 108.845C111.542 108.237 111.551 107.561 111.689 106.818C111.833 106.039 112.067 105.271 112.391 104.513C112.714 103.756 113.073 103.072 113.467 102.461C113.861 101.851 114.235 101.377 114.591 101.04C114.948 100.691 115.239 100.538 115.463 100.579C115.628 100.61 115.754 100.688 115.841 100.814C115.927 100.94 115.952 101.103 115.915 101.304C115.906 101.351 115.828 101.507 115.681 101.773C115.537 102.027 115.353 102.359 115.13 102.769C114.91 103.168 114.681 103.614 114.443 104.107C114.205 104.599 113.989 105.109 113.794 105.634C113.599 106.159 113.457 106.664 113.367 107.147C113.214 107.973 113.182 108.572 113.272 108.942C113.376 109.303 113.605 109.516 113.959 109.582C114.821 109.742 115.665 109.666 116.491 109.356C117.331 109.035 118.139 108.563 118.914 107.937C119.703 107.303 120.453 106.581 121.164 105.773C120.74 105.756 120.33 105.729 119.934 105.692C119.541 105.643 119.166 105.592 118.809 105.538C118.465 105.487 118.249 105.404 118.16 105.29C118.071 105.176 118.045 105.018 118.083 104.818C118.104 104.639 118.204 104.492 118.384 104.379C118.575 104.268 118.76 104.223 118.939 104.244C119.479 104.295 120.033 104.337 120.601 104.369C121.168 104.401 121.732 104.42 122.292 104.426C122.676 103.936 123.049 103.438 123.412 102.931C123.774 102.425 124.108 101.938 124.415 101.47C124.805 100.749 125.197 100.083 125.59 99.4724C125.986 98.8501 126.358 98.3577 126.706 97.995C127.056 97.6205 127.35 97.4552 127.585 97.4989C127.987 97.5733 128.15 97.811 128.076 98.2122C128.06 98.2948 127.965 98.515 127.788 98.8729C127.612 99.2308 127.374 99.6931 127.074 100.26C126.785 100.829 126.452 101.475 126.074 102.198C125.698 102.91 125.308 103.661 124.905 104.453C126.007 104.437 127.012 104.41 127.923 104.371C128.847 104.323 129.604 104.286 130.195 104.262C130.787 104.225 131.137 104.217 131.243 104.236C131.396 104.265 131.506 104.364 131.572 104.535C131.64 104.694 131.662 104.839 131.638 104.969C131.618 105.075 131.398 105.18 130.975 105.285C130.565 105.392 130.004 105.489 129.292 105.577C128.594 105.655 127.801 105.722 126.912 105.777C126.037 105.822 125.129 105.849 124.187 105.858C123.706 106.806 123.24 107.744 122.787 108.674C122.334 109.603 121.938 110.457 121.598 111.236C121.395 111.735 121.088 111.947 120.675 111.87C120.462 111.831 120.313 111.748 120.226 111.622C120.152 111.499 120.138 111.307 120.187 111.047C120.193 111.012 120.255 110.841 120.373 110.533C120.505 110.216 120.669 109.825 120.865 109.361C121.063 108.885 121.271 108.393 121.487 107.883C121.706 107.363 121.911 106.882 122.102 106.441C121.271 107.435 120.394 108.315 119.47 109.084C118.547 109.853 117.592 110.426 116.607 110.805C115.633 111.186 114.657 111.286 113.677 111.104ZM116.156 98.9138C115.873 98.8613 115.654 98.7291 115.498 98.5171C115.353 98.3073 115.305 98.0726 115.353 97.813C115.412 97.4945 115.574 97.2498 115.837 97.0789C116.115 96.8985 116.407 96.8367 116.714 96.8936C117.056 96.957 117.297 97.1054 117.437 97.3388C117.579 97.5603 117.621 97.8245 117.564 98.1313C117.519 98.3791 117.358 98.5873 117.083 98.7559C116.807 98.9246 116.498 98.9772 116.156 98.9138ZM130.828 113.54C129.919 113.372 129.26 112.945 128.85 112.259C128.455 111.563 128.356 110.678 128.555 109.604C128.678 108.944 128.909 108.187 129.25 107.335C129.605 106.473 130.016 105.573 130.483 104.634C130.964 103.686 131.466 102.754 131.99 101.838C132.514 100.922 133.012 100.075 133.486 99.2963C133.974 98.508 134.394 97.8536 134.747 97.3332C134.948 97.0409 135.178 96.9188 135.437 96.9669C135.791 97.0325 135.928 97.2836 135.847 97.7201C135.821 97.8617 135.702 98.1388 135.492 98.5513C135.281 98.9638 135.009 99.4748 134.676 100.084C134.346 100.682 133.985 101.348 133.593 102.08C133.2 102.813 132.798 103.568 132.385 104.346C131.987 105.115 131.607 105.88 131.246 106.643C130.887 107.394 130.578 108.106 130.319 108.778C130.06 109.45 129.885 110.034 129.793 110.529C129.734 110.848 129.77 111.117 129.9 111.336C130.044 111.546 130.264 111.678 130.559 111.733C131.101 111.834 131.664 111.828 132.246 111.716C132.842 111.595 133.423 111.422 133.99 111.197C134.558 110.961 135.079 110.722 135.551 110.48C136.037 110.228 136.447 110.023 136.781 109.866C137.118 109.696 137.345 109.622 137.463 109.644C137.723 109.692 137.826 109.858 137.774 110.141C137.756 110.236 137.629 110.395 137.392 110.62C137.157 110.833 136.849 111.08 136.467 111.364C136.085 111.647 135.648 111.932 135.155 112.219C134.677 112.496 134.178 112.752 133.658 112.985C133.153 113.209 132.653 113.372 132.158 113.476C131.672 113.593 131.229 113.615 130.828 113.54ZM144.727 107.494C144.657 107.872 144.47 108.221 144.166 108.543C143.864 108.854 143.488 109.138 143.038 109.396C142.589 109.642 142.103 109.864 141.578 110.059C141.054 110.255 140.536 110.415 140.025 110.54C139.513 110.665 139.051 110.756 138.638 110.814C138.458 111.257 138.335 111.655 138.27 112.009C138.228 112.233 138.252 112.402 138.34 112.516C138.429 112.63 138.586 112.708 138.81 112.75C139.305 112.842 139.847 112.85 140.434 112.776C141.021 112.702 141.63 112.577 142.261 112.401C142.892 112.225 143.502 112.027 144.092 111.807C144.682 111.586 145.222 111.375 145.711 111.173C146.212 110.973 146.626 110.812 146.954 110.689C147.281 110.567 147.492 110.515 147.587 110.532C147.728 110.558 147.826 110.625 147.879 110.733C147.946 110.831 147.969 110.939 147.947 111.057C147.93 111.151 147.748 111.307 147.403 111.523C147.07 111.742 146.627 111.99 146.076 112.266C145.526 112.53 144.916 112.795 144.244 113.061C143.572 113.327 142.881 113.565 142.171 113.775C141.473 113.988 140.804 114.138 140.165 114.227C139.538 114.319 138.988 114.321 138.517 114.233C137.903 114.119 137.468 113.801 137.211 113.277C136.954 112.754 136.915 112.008 137.095 111.041C137.215 110.392 137.419 109.752 137.706 109.122C138.006 108.494 138.359 107.906 138.765 107.359C139.186 106.803 139.623 106.322 140.076 105.918C140.543 105.504 141.008 105.2 141.472 105.005C141.937 104.799 142.365 104.731 142.754 104.803C143.497 104.941 144.043 105.256 144.391 105.748C144.739 106.239 144.851 106.821 144.727 107.494ZM139.262 109.52C139.669 109.364 140.091 109.198 140.526 109.022C140.961 108.846 141.368 108.659 141.746 108.461C142.125 108.263 142.441 108.041 142.694 107.795C142.961 107.539 143.123 107.258 143.18 106.951C143.261 106.514 143.065 106.252 142.593 106.165C142.298 106.11 141.95 106.241 141.55 106.557C141.164 106.864 140.768 107.285 140.364 107.82C139.96 108.356 139.592 108.922 139.262 109.52ZM55.8019 126.839C55.3535 126.756 55.0201 126.48 54.8017 126.013C54.5972 125.535 54.5573 124.96 54.682 124.288C54.7979 123.663 55.0661 123.072 55.4866 122.515C55.9189 121.96 56.4471 121.448 57.0712 120.978C57.6953 120.508 58.3579 120.094 59.0589 119.735C59.7621 119.365 60.4533 119.06 61.1325 118.82C61.8234 118.582 62.4471 118.411 63.0034 118.306C63.5597 118.202 63.9913 118.178 64.2981 118.235C64.4633 118.266 64.5924 118.326 64.6855 118.417C64.7807 118.495 64.813 118.617 64.7824 118.782C64.7627 118.889 64.7029 118.981 64.6028 119.06C64.6146 119.062 64.6264 119.065 64.6382 119.067C64.8978 119.115 64.9991 119.292 64.9423 119.599C64.9226 119.705 64.8408 119.916 64.697 120.231C64.5554 120.534 64.3866 120.918 64.1908 121.382C63.9949 121.846 63.801 122.366 63.6091 122.94C63.4193 123.503 63.2687 124.085 63.1572 124.687C63.0631 125.194 63.2108 125.484 63.6002 125.556C64.0367 125.637 64.4978 125.619 64.9833 125.501C65.4689 125.384 65.9503 125.223 66.4275 125.019C66.907 124.802 67.3499 124.585 67.7564 124.368C68.165 124.138 68.5118 123.946 68.7968 123.792C69.0817 123.637 69.2773 123.57 69.3835 123.589C69.4779 123.607 69.555 123.652 69.6149 123.724C69.6747 123.796 69.6926 123.897 69.6686 124.027C69.6467 124.145 69.4893 124.335 69.1965 124.598C68.9037 124.861 68.5265 125.151 68.0649 125.469C67.6034 125.786 67.0969 126.082 66.5453 126.358C65.9938 126.635 65.4424 126.844 64.8913 126.986C64.3402 127.128 63.8346 127.156 63.3744 127.071C63.0205 127.005 62.7157 126.839 62.4601 126.572C62.2184 126.295 62.0583 125.875 61.9798 125.311C61.913 124.749 61.966 124.003 62.1387 123.07L62.2207 122.628C61.4654 123.476 60.696 124.237 59.9123 124.909C59.1404 125.584 58.3981 126.099 57.6853 126.455C56.9842 126.814 56.3565 126.941 55.8019 126.839ZM63.7256 119.447C63.6623 119.46 63.5731 119.48 63.4582 119.507C62.8695 119.654 62.2463 119.856 61.5885 120.113C60.9426 120.371 60.3008 120.673 59.6631 121.019C59.0373 121.367 58.4612 121.742 57.935 122.145C57.4088 122.548 56.97 122.973 56.6185 123.42C56.2671 123.868 56.0477 124.327 55.9602 124.799C55.9318 124.953 55.9394 125.076 55.9831 125.17C56.0386 125.265 56.1489 125.329 56.3141 125.359C56.5501 125.403 56.8842 125.312 57.3164 125.087C57.7508 124.851 58.2382 124.526 58.7784 124.113C59.3304 123.703 59.8922 123.24 60.4639 122.723C61.0356 122.207 61.5848 121.68 62.1115 121.143C62.65 120.608 63.1207 120.11 63.5237 119.647C63.5862 119.574 63.6535 119.507 63.7256 119.447ZM76.0973 120.916C76.558 120.208 77.0054 119.473 77.4395 118.712C77.8853 117.952 78.305 117.17 78.6984 116.364C78.813 116.141 78.9541 115.972 79.122 115.857C79.3038 115.732 79.495 115.688 79.6956 115.725C79.8372 115.751 79.9453 115.826 80.02 115.95C80.1065 116.076 80.1334 116.227 80.1006 116.404C80.059 116.628 79.8984 117.001 79.6186 117.523C79.3506 118.047 79.0081 118.71 78.5911 119.511C78.1859 120.315 77.7507 121.247 77.2855 122.308C76.8344 123.359 76.3968 124.535 75.9727 125.836C75.5604 127.138 75.2143 128.545 74.9344 130.055C74.8731 130.386 74.752 130.644 74.5711 130.83C74.3879 131.028 74.1961 131.108 73.9955 131.071C73.8775 131.049 73.7709 130.999 73.6756 130.92C73.5804 130.842 73.5122 130.682 73.4712 130.443C73.4397 130.218 73.4431 129.87 73.4812 129.401C73.5214 128.921 73.6159 128.279 73.7646 127.477C73.8783 126.863 74.0373 126.203 74.2415 125.497C73.5172 126.375 72.7687 127.121 71.996 127.735C71.2372 128.339 70.5268 128.781 69.8647 129.061C69.2144 129.343 68.6827 129.446 68.2698 129.369C67.7624 129.275 67.3812 129.027 67.126 128.626C66.8804 128.239 66.8189 127.715 66.9414 127.054C67.0485 126.476 67.2946 125.905 67.6797 125.342C68.0648 124.779 68.5362 124.244 69.0939 123.737C69.6538 123.218 70.2544 122.744 70.8955 122.314C71.5367 121.883 72.1658 121.518 72.7829 121.217C73.414 120.907 73.9863 120.683 74.4998 120.547C75.0155 120.398 75.4209 120.351 75.7159 120.406C75.8338 120.428 75.9324 120.489 76.0115 120.589C76.0906 120.689 76.1192 120.798 76.0973 120.916ZM75.7655 121.422C75.6676 121.489 75.552 121.553 75.4187 121.614C75.2854 121.675 75.1392 121.739 74.9802 121.807C74.3932 122.077 73.7422 122.396 73.0272 122.764C72.3262 123.122 71.64 123.532 70.9687 123.993C70.3114 124.445 69.7488 124.945 69.2812 125.493C68.8135 126.04 68.5195 126.639 68.3992 127.288C68.3467 127.571 68.4621 127.739 68.7453 127.791C69.1346 127.864 69.5933 127.759 70.1212 127.479C70.6632 127.189 71.2432 126.759 71.8612 126.19C72.4814 125.61 73.1224 124.917 73.7841 124.112C74.4481 123.295 75.1085 122.399 75.7655 121.422ZM87.1416 122.963C87.6023 122.255 88.0497 121.52 88.4838 120.759C88.9297 119.999 89.3493 119.217 89.7428 118.411C89.8573 118.188 89.9985 118.019 90.1663 117.903C90.3481 117.779 90.5393 117.735 90.7399 117.772C90.8815 117.798 90.9896 117.873 91.0644 117.997C91.1509 118.123 91.1777 118.274 91.1449 118.451C91.1034 118.675 90.9427 119.048 90.6629 119.57C90.395 120.094 90.0525 120.757 89.6354 121.558C89.2302 122.362 88.795 123.294 88.3299 124.355C87.8787 125.406 87.4411 126.582 87.017 127.883C86.6047 129.185 86.2586 130.592 85.9787 132.102C85.9175 132.432 85.7964 132.691 85.6154 132.877C85.4323 133.075 85.2404 133.155 85.0398 133.118C84.9218 133.096 84.8152 133.046 84.72 132.967C84.6247 132.889 84.5565 132.729 84.5155 132.49C84.4841 132.264 84.4874 131.917 84.5255 131.448C84.5658 130.968 84.6603 130.326 84.809 129.524C84.9227 128.91 85.0816 128.25 85.2858 127.544C84.5616 128.422 83.8131 129.168 83.0403 129.782C82.2816 130.386 81.5712 130.828 80.909 131.108C80.2587 131.39 79.7271 131.493 79.3141 131.416C78.8067 131.322 78.4255 131.074 78.1703 130.673C77.9248 130.286 77.8632 129.762 77.9857 129.101C78.0929 128.523 78.339 127.952 78.7241 127.389C79.1092 126.826 79.5806 126.291 80.1383 125.784C80.6982 125.265 81.2987 124.791 81.9399 124.36C82.581 123.93 83.2102 123.565 83.8273 123.264C84.4584 122.954 85.0307 122.73 85.5442 122.594C86.0599 122.445 86.4652 122.398 86.7602 122.453C86.8782 122.475 86.9767 122.536 87.0558 122.636C87.1349 122.736 87.1635 122.845 87.1416 122.963ZM86.8099 123.469C86.712 123.536 86.5964 123.6 86.4631 123.661C86.3298 123.722 86.1836 123.786 86.0245 123.854C85.4375 124.124 84.7866 124.443 84.0715 124.81C83.3705 125.169 82.6844 125.579 82.013 126.04C81.3557 126.492 80.7932 126.992 80.3255 127.539C79.8578 128.087 79.5638 128.686 79.4435 129.335C79.3911 129.618 79.5064 129.786 79.7896 129.838C80.179 129.91 80.6376 129.806 81.1656 129.526C81.7075 129.236 82.2875 128.806 82.9055 128.237C83.5257 127.657 84.1667 126.964 84.8285 126.159C85.4924 125.342 86.1529 124.446 86.8099 123.469ZM107.225 126.685C107.686 125.977 108.133 125.243 108.568 124.481C109.013 123.722 109.433 122.939 109.827 122.133C109.941 121.91 110.082 121.741 110.25 121.626C110.432 121.501 110.623 121.457 110.824 121.494C110.965 121.52 111.073 121.595 111.148 121.719C111.235 121.845 111.261 121.996 111.229 122.173C111.187 122.397 111.026 122.77 110.747 123.292C110.479 123.816 110.136 124.479 109.719 125.28C109.314 126.084 108.879 127.016 108.414 128.077C107.962 129.129 107.525 130.304 107.101 131.605C106.688 132.908 106.342 134.314 106.062 135.824C106.001 136.155 105.88 136.413 105.699 136.599C105.516 136.797 105.324 136.878 105.124 136.84C105.006 136.818 104.899 136.768 104.804 136.69C104.708 136.611 104.64 136.452 104.599 136.212C104.568 135.987 104.571 135.64 104.609 135.171C104.65 134.69 104.744 134.048 104.893 133.246C105.006 132.633 105.165 131.972 105.37 131.266C104.645 132.145 103.897 132.891 103.124 133.504C102.365 134.108 101.655 134.55 100.993 134.83C100.342 135.112 99.8108 135.215 99.3979 135.138C98.8905 135.044 98.5092 134.797 98.2541 134.396C98.0085 134.008 97.947 133.484 98.0695 132.824C98.1766 132.245 98.4227 131.675 98.8078 131.111C99.1929 130.548 99.6643 130.013 100.222 129.506C100.782 128.988 101.382 128.513 102.024 128.083C102.665 127.652 103.294 127.287 103.911 126.986C104.542 126.676 105.114 126.453 105.628 126.316C106.144 126.167 106.549 126.121 106.844 126.175C106.962 126.197 107.06 126.258 107.14 126.358C107.219 126.458 107.247 126.567 107.225 126.685ZM106.894 127.191C106.796 127.259 106.68 127.323 106.547 127.383C106.414 127.444 106.267 127.508 106.108 127.577C105.521 127.846 104.87 128.165 104.155 128.533C103.454 128.891 102.768 129.301 102.097 129.762C101.439 130.214 100.877 130.714 100.409 131.262C99.9416 131.81 99.6476 132.408 99.5273 133.057C99.4748 133.34 99.5902 133.508 99.8733 133.561C100.263 133.633 100.721 133.529 101.249 133.248C101.791 132.958 102.371 132.529 102.989 131.96C103.609 131.379 104.25 130.686 104.912 129.881C105.576 129.065 106.237 128.168 106.894 127.191ZM117.942 129.99C117.872 130.367 117.685 130.717 117.382 131.039C117.08 131.349 116.704 131.633 116.253 131.892C115.805 132.138 115.319 132.359 114.794 132.555C114.27 132.751 113.752 132.911 113.24 133.036C112.729 133.161 112.267 133.252 111.853 133.31C111.674 133.752 111.551 134.151 111.485 134.505C111.444 134.729 111.467 134.898 111.556 135.012C111.645 135.126 111.801 135.204 112.025 135.245C112.521 135.337 113.062 135.346 113.65 135.272C114.237 135.198 114.846 135.073 115.477 134.896C116.107 134.72 116.718 134.522 117.308 134.302C117.898 134.082 118.437 133.871 118.926 133.669C119.427 133.468 119.841 133.307 120.169 133.185C120.497 133.063 120.708 133.01 120.803 133.028C120.944 133.054 121.042 133.121 121.095 133.228C121.162 133.326 121.185 133.434 121.163 133.552C121.145 133.647 120.964 133.802 120.619 134.019C120.285 134.238 119.843 134.485 119.291 134.761C118.742 135.026 118.131 135.291 117.46 135.557C116.788 135.823 116.097 136.061 115.387 136.271C114.688 136.483 114.02 136.634 113.381 136.723C112.754 136.814 112.204 136.816 111.732 136.729C111.119 136.615 110.683 136.296 110.427 135.773C110.17 135.249 110.131 134.504 110.31 133.536C110.43 132.887 110.634 132.248 110.922 131.618C111.222 130.99 111.574 130.402 111.981 129.855C112.401 129.298 112.838 128.818 113.292 128.414C113.759 128 114.224 127.696 114.687 127.501C115.153 127.294 115.58 127.227 115.97 127.299C116.713 127.437 117.259 127.752 117.607 128.243C117.955 128.735 118.067 129.317 117.942 129.99ZM112.478 132.016C112.885 131.859 113.306 131.693 113.741 131.518C114.177 131.342 114.584 131.155 114.962 130.957C115.341 130.758 115.656 130.536 115.909 130.29C116.177 130.035 116.338 129.753 116.395 129.447C116.476 129.01 116.281 128.748 115.809 128.661C115.514 128.606 115.166 128.737 114.766 129.053C114.379 129.36 113.984 129.781 113.58 130.316C113.175 130.851 112.808 131.418 112.478 132.016ZM121.395 138.922C121.136 138.874 120.949 138.761 120.836 138.581C120.733 138.415 120.698 138.238 120.733 138.049C120.764 137.884 120.863 137.744 121.031 137.628C121.213 137.503 121.445 137.406 121.726 137.336C122.244 137.176 122.732 137.01 123.191 136.839C123.662 136.67 124.053 136.468 124.365 136.233C124.677 135.998 124.863 135.721 124.922 135.402C124.972 135.131 124.922 134.908 124.771 134.734C124.623 134.547 124.395 134.426 124.088 134.369C123.911 134.336 123.657 134.326 123.325 134.337C122.996 134.337 122.635 134.344 122.242 134.356C121.863 134.359 121.49 134.363 121.123 134.369C120.758 134.362 120.451 134.336 120.204 134.29C119.755 134.207 119.439 134.038 119.254 133.784C119.071 133.518 119.015 133.197 119.085 132.819C119.12 132.63 119.284 132.368 119.579 132.032C119.873 131.696 120.245 131.332 120.696 130.939C121.161 130.537 121.662 130.142 122.198 129.753C122.734 129.364 123.269 129.012 123.803 128.696C124.35 128.382 124.846 128.139 125.293 127.965C125.752 127.794 126.117 127.734 126.389 127.784C126.66 127.834 126.85 127.961 126.959 128.164C127.068 128.367 127.097 128.605 127.047 128.876C127.007 129.089 126.938 129.265 126.839 129.405C126.742 129.534 126.574 129.618 126.334 129.659C126.106 129.703 125.767 129.689 125.317 129.617C124.789 129.898 124.221 130.226 123.615 130.602C123.022 130.968 122.468 131.359 121.951 131.776C121.448 132.183 121.061 132.594 120.789 133.007C121.203 132.949 121.695 132.925 122.267 132.933C122.853 132.932 123.436 132.985 124.014 133.092C124.922 133.26 125.557 133.592 125.917 134.085C126.291 134.57 126.416 135.142 126.294 135.803C126.215 136.228 125.997 136.645 125.641 137.055C125.298 137.455 124.878 137.811 124.381 138.121C123.884 138.432 123.372 138.66 122.845 138.807C122.315 138.965 121.832 139.003 121.395 138.922ZM130.421 140.449C129.843 140.342 129.366 140.119 128.989 139.781C128.626 139.433 128.372 139.026 128.227 138.559C128.081 138.093 128.05 137.636 128.133 137.187C128.308 136.243 128.633 135.413 129.108 134.695C129.585 133.966 130.127 133.346 130.734 132.836C131.355 132.317 131.97 131.894 132.58 131.568C133.201 131.243 133.75 131.016 134.226 130.884C134.716 130.743 135.055 130.69 135.244 130.725C135.622 130.795 135.775 131.019 135.705 131.396C135.673 131.573 135.516 131.758 135.237 131.95C134.959 132.131 134.609 132.34 134.186 132.579C133.764 132.818 133.31 133.094 132.825 133.407C132.342 133.708 131.873 134.066 131.417 134.482C130.964 134.887 130.565 135.362 130.219 135.908C129.876 136.442 129.64 137.058 129.511 137.754C129.38 138.462 129.603 138.869 130.181 138.977C130.712 139.075 131.274 139.075 131.866 138.977C132.469 138.882 133.072 138.725 133.674 138.507C134.289 138.279 134.884 138.036 135.457 137.776C136.03 137.516 136.552 137.265 137.024 137.023C137.498 136.769 137.896 136.568 138.216 136.42C138.536 136.272 138.755 136.209 138.873 136.231C139.109 136.274 139.203 136.426 139.155 136.686C139.118 136.886 138.933 137.126 138.601 137.407C138.268 137.687 137.835 137.979 137.303 138.283C136.771 138.587 136.184 138.887 135.544 139.183C134.905 139.468 134.266 139.721 133.627 139.945C132.99 140.156 132.387 140.313 131.819 140.415C131.265 140.508 130.799 140.519 130.421 140.449ZM137.826 141.913C137.638 141.878 137.493 141.772 137.391 141.594C137.29 141.417 137.264 141.192 137.315 140.921C137.352 140.72 137.454 140.398 137.622 139.953C137.804 139.498 138.006 138.968 138.228 138.363C138.462 137.759 138.683 137.129 138.89 136.472C139.099 135.803 139.262 135.155 139.378 134.53C139.435 134.223 139.553 134.013 139.733 133.9C139.926 133.777 140.123 133.735 140.324 133.772C140.513 133.807 140.632 133.951 140.683 134.204C140.734 134.458 140.664 134.933 140.474 135.63C141.24 134.527 142.015 133.67 142.799 133.059C143.598 132.438 144.351 132.028 145.059 131.83C145.769 131.62 146.384 131.563 146.903 131.659C147.245 131.723 147.48 131.839 147.607 132.009C147.748 132.17 147.803 132.333 147.773 132.498C147.731 132.722 147.604 132.881 147.391 132.976C147.192 133.061 146.853 133.145 146.374 133.227C145.818 133.332 145.296 133.479 144.81 133.669C144.337 133.85 143.866 134.117 143.398 134.47C142.942 134.824 142.47 135.298 141.981 135.891C141.495 136.472 140.981 137.207 140.438 138.095C139.895 138.983 139.292 140.061 138.63 141.33C138.511 141.576 138.383 141.741 138.245 141.826C138.119 141.912 137.98 141.941 137.826 141.913ZM146.576 143.278C146.352 143.237 146.167 143.117 146.02 142.919C145.876 142.709 145.838 142.421 145.906 142.056C145.954 141.796 146.056 141.443 146.212 140.996C146.37 140.537 146.56 140.041 146.781 139.508C147.002 138.976 147.227 138.45 147.457 137.931C147.702 137.403 147.935 136.934 148.158 136.523C148.38 136.113 148.564 135.812 148.71 135.619C148.835 135.471 148.943 135.381 149.034 135.349C149.138 135.32 149.23 135.313 149.313 135.328C149.478 135.358 149.61 135.438 149.708 135.566C149.818 135.696 149.845 135.915 149.788 136.221C149.755 136.398 149.665 136.687 149.518 137.087C149.385 137.477 149.215 137.934 149.008 138.457C148.815 138.97 148.607 139.499 148.384 140.044C148.175 140.578 147.971 141.09 147.77 141.577C147.57 142.065 147.409 142.475 147.286 142.806C147.204 142.986 147.094 143.118 146.957 143.202C146.833 143.277 146.706 143.302 146.576 143.278ZM150.125 133.812C149.853 133.762 149.609 133.631 149.392 133.42C149.187 133.211 149.118 132.924 149.186 132.558C149.242 132.252 149.359 132.017 149.536 131.854C149.724 131.694 149.926 131.591 150.142 131.546C150.372 131.491 150.564 131.477 150.717 131.506C150.87 131.534 151.035 131.601 151.211 131.707C151.4 131.803 151.549 131.953 151.658 132.156C151.769 132.348 151.794 132.608 151.733 132.939C151.691 133.163 151.577 133.349 151.391 133.498C151.207 133.635 150.994 133.73 150.753 133.782C150.523 133.837 150.314 133.847 150.125 133.812ZM150.02 149.262C149.819 149.225 149.673 149.124 149.581 148.961C149.501 148.8 149.498 148.519 149.573 148.117C149.68 147.539 149.846 146.874 150.071 146.123C150.295 145.371 150.558 144.578 150.86 143.743C151.173 142.91 151.497 142.079 151.834 141.25C152.182 140.424 152.529 139.64 152.874 138.899C153.231 138.159 153.565 137.507 153.877 136.943C154.192 136.366 154.464 135.916 154.695 135.593C154.937 135.272 155.124 135.123 155.253 135.147C155.478 135.189 155.643 135.287 155.748 135.441C155.866 135.597 155.901 135.804 155.852 136.064C155.791 136.394 155.591 136.913 155.253 137.619C154.917 138.313 154.48 139.221 153.943 140.342C154.339 139.853 154.762 139.346 155.214 138.82C155.665 138.293 156.131 137.788 156.611 137.303C157.094 136.807 157.566 136.369 158.026 135.991C158.499 135.615 158.943 135.325 159.359 135.121C159.775 134.918 160.154 134.847 160.496 134.911C160.862 134.979 161.165 135.157 161.404 135.445C161.646 135.722 161.807 136.069 161.888 136.487C161.984 136.895 161.988 137.335 161.9 137.807C161.719 138.787 161.377 139.706 160.876 140.565C160.378 141.412 159.765 142.147 159.04 142.769C158.328 143.382 157.538 143.827 156.669 144.105C155.811 144.386 154.928 144.442 154.02 144.273C153.678 144.21 153.374 144.135 153.109 144.05C152.844 143.964 152.616 143.879 152.424 143.795C152.138 144.547 151.854 145.324 151.571 146.126C151.288 146.928 150.995 147.783 150.693 148.691C150.612 148.932 150.521 149.092 150.421 149.172C150.319 149.262 150.185 149.293 150.02 149.262ZM160.566 136.315C160.318 136.269 159.997 136.356 159.602 136.576C159.219 136.798 158.789 137.109 158.312 137.508C157.85 137.899 157.371 138.341 156.877 138.835C156.384 139.317 155.902 139.814 155.429 140.324C154.956 140.834 154.52 141.309 154.122 141.748C153.735 142.189 153.416 142.557 153.166 142.852C154.091 142.999 154.933 142.966 155.693 142.753C156.455 142.528 157.134 142.19 157.73 141.739C158.328 141.276 158.84 140.755 159.264 140.175C159.703 139.585 160.049 139.002 160.302 138.426C160.558 137.839 160.727 137.321 160.81 136.873C160.871 136.543 160.79 136.357 160.566 136.315ZM162.216 140.227C161.902 140.145 161.793 139.911 161.889 139.526C161.918 139.434 162.004 139.334 162.146 139.226C162.29 139.106 162.44 139.054 162.595 139.071C162.968 139.103 163.426 139.133 163.97 139.161C164.528 139.179 165.141 139.195 165.81 139.209C166.035 138.653 166.289 138.072 166.573 137.465C166.856 136.858 167.154 136.273 167.466 135.708C167.78 135.132 168.095 134.617 168.411 134.163C168.727 133.709 169.035 133.363 169.336 133.126C169.49 133.02 169.624 132.954 169.739 132.926C169.856 132.887 169.956 132.875 170.038 132.89C170.204 132.921 170.32 133.015 170.388 133.175C170.468 133.336 170.492 133.505 170.459 133.682C170.442 133.776 170.407 133.867 170.354 133.955C169.995 134.572 169.591 135.339 169.14 136.257C168.689 137.174 168.204 138.176 167.686 139.264C168.804 139.288 169.924 139.301 171.047 139.301C172.17 139.302 173.136 139.292 173.945 139.271C174.187 139.218 174.355 139.267 174.449 139.419C174.554 139.573 174.595 139.715 174.571 139.844C174.54 140.01 174.47 140.125 174.361 140.19C174.263 140.257 174.161 140.312 174.056 140.353L174.035 140.367C173.781 140.418 173.407 140.465 172.91 140.507C172.417 140.537 171.85 140.567 171.21 140.594C170.572 140.611 169.894 140.619 169.173 140.62C168.465 140.623 167.765 140.615 167.072 140.597C166.609 141.585 166.133 142.601 165.647 143.646C165.174 144.681 164.705 145.699 164.239 146.698C164.042 147.101 163.857 147.342 163.684 147.419C163.521 147.511 163.357 147.542 163.191 147.511C163.003 147.476 162.85 147.375 162.735 147.207C162.632 147.041 162.667 146.749 162.843 146.33L165.253 140.534C164.526 140.509 163.886 140.47 163.335 140.416C162.795 140.365 162.422 140.302 162.216 140.227ZM171.327 147.866C171.103 147.824 170.917 147.704 170.771 147.506C170.627 147.296 170.588 147.009 170.656 146.643C170.704 146.383 170.806 146.03 170.963 145.583C171.121 145.124 171.31 144.628 171.531 144.096C171.752 143.563 171.977 143.037 172.208 142.519C172.452 141.99 172.686 141.521 172.908 141.111C173.131 140.7 173.315 140.399 173.46 140.206C173.585 140.058 173.693 139.969 173.785 139.937C173.888 139.907 173.981 139.9 174.063 139.915C174.229 139.946 174.36 140.025 174.459 140.153C174.569 140.283 174.595 140.502 174.538 140.809C174.506 140.986 174.416 141.274 174.268 141.674C174.135 142.064 173.965 142.521 173.758 143.044C173.565 143.557 173.357 144.086 173.134 144.631C172.925 145.166 172.721 145.677 172.521 146.165C172.32 146.652 172.159 147.062 172.037 147.393C171.955 147.573 171.845 147.705 171.707 147.79C171.583 147.864 171.456 147.89 171.327 147.866ZM174.875 138.4C174.604 138.349 174.359 138.219 174.142 138.008C173.937 137.799 173.868 137.511 173.936 137.145C173.993 136.839 174.11 136.604 174.286 136.442C174.474 136.281 174.677 136.178 174.893 136.133C175.122 136.078 175.314 136.065 175.467 136.093C175.621 136.121 175.785 136.188 175.961 136.294C176.151 136.39 176.3 136.54 176.409 136.743C176.52 136.935 176.544 137.196 176.483 137.526C176.442 137.75 176.328 137.937 176.142 138.085C175.958 138.222 175.745 138.317 175.503 138.37C175.273 138.425 175.064 138.435 174.875 138.4ZM186.095 151.17C185.753 151.107 185.532 150.95 185.432 150.699C185.332 150.449 185.332 150.052 185.433 149.51C185.514 149.073 185.668 148.54 185.894 147.911C186.132 147.284 186.406 146.596 186.716 145.848C187.027 145.088 187.349 144.306 187.682 143.501C186.78 144.347 185.838 144.984 184.856 145.412C183.888 145.83 182.862 146.031 181.779 146.013C181.424 146.545 181.043 147.018 180.637 147.431C180.231 147.844 179.813 148.157 179.383 148.37C178.953 148.583 178.532 148.652 178.119 148.575C177.611 148.481 177.219 148.195 176.942 147.716C176.676 147.24 176.616 146.606 176.763 145.816C176.863 145.273 177.024 144.802 177.244 144.404C177.467 143.994 177.684 143.71 177.896 143.554C177.812 143.087 177.822 142.571 177.927 142.004C178.056 141.308 178.329 140.724 178.746 140.252C179.165 139.768 179.668 139.428 180.253 139.232C180.841 139.023 181.442 138.976 182.055 139.09C182.551 139.182 182.951 139.494 183.255 140.026C183.559 140.558 183.631 141.255 183.471 142.116C183.323 142.919 183.016 143.783 182.551 144.71C183.246 144.583 183.965 144.325 184.708 143.938C185.463 143.553 186.213 143.064 186.957 142.47C187.702 141.875 188.402 141.194 189.057 140.424C189.227 140.236 189.429 140.163 189.665 140.207C189.877 140.247 190.031 140.342 190.125 140.494C190.232 140.636 190.267 140.813 190.227 141.025C190.216 141.084 190.144 141.278 190.01 141.607C189.887 141.939 189.724 142.36 189.519 142.871C189.326 143.385 189.112 143.949 188.876 144.564C188.64 145.18 188.403 145.801 188.164 146.428C187.938 147.057 187.738 147.642 187.564 148.184C187.932 147.715 188.344 147.206 188.799 146.655C189.255 146.105 189.715 145.568 190.178 145.044C190.656 144.51 191.105 144.026 191.528 143.591C191.962 143.159 192.336 142.82 192.65 142.573C192.978 142.316 193.219 142.202 193.372 142.231C193.656 142.283 193.886 142.423 194.063 142.652C194.241 142.88 194.311 143.094 194.274 143.295C194.223 143.566 194.117 143.974 193.955 144.517C193.796 145.049 193.611 145.649 193.402 146.318C193.192 146.988 192.983 147.657 192.774 148.326C192.564 148.995 192.379 149.601 192.217 150.145C192.055 150.688 191.949 151.096 191.899 151.367C191.866 151.544 191.76 151.689 191.58 151.802C191.4 151.915 191.216 151.955 191.027 151.92C190.898 151.896 190.793 151.833 190.714 151.733C190.645 151.647 190.61 151.47 190.611 151.202C190.612 150.933 190.663 150.528 190.764 149.985C190.862 149.454 190.987 148.879 191.138 148.26C191.292 147.63 191.456 147.007 191.631 146.393C191.82 145.769 192.002 145.211 192.179 144.719C191.824 145.117 191.412 145.596 190.942 146.156C190.484 146.717 190.005 147.294 189.505 147.885C189.005 148.475 188.525 149.027 188.064 149.54C187.602 150.052 187.197 150.459 186.849 150.761C186.5 151.062 186.249 151.199 186.095 151.17ZM180.941 144.705C181.166 144.283 181.367 143.825 181.543 143.333C181.734 142.832 181.877 142.321 181.974 141.802C182.03 141.495 182.017 141.237 181.934 141.026C181.851 140.815 181.71 140.692 181.509 140.654C181.202 140.597 180.885 140.63 180.557 140.753C180.232 140.863 179.94 141.053 179.683 141.323C179.437 141.594 179.275 141.943 179.196 142.368C179.098 142.898 179.214 143.39 179.545 143.842C179.89 144.284 180.356 144.572 180.941 144.705ZM180.237 145.837C179.441 145.653 178.836 145.297 178.422 144.769C178.369 144.918 178.319 145.061 178.269 145.198C178.221 145.323 178.185 145.451 178.161 145.581C178.093 145.946 178.099 146.247 178.177 146.481C178.27 146.705 178.446 146.842 178.706 146.89C178.918 146.929 179.158 146.852 179.426 146.657C179.694 146.463 179.964 146.19 180.237 145.837ZM50.8815 153.387C50.4332 153.303 50.0998 153.028 49.8813 152.56C49.6769 152.083 49.637 151.508 49.7616 150.836C49.8775 150.21 50.1457 149.619 50.5662 149.063C50.9985 148.508 51.5267 147.996 52.1508 147.526C52.775 147.056 53.4375 146.641 54.1386 146.283C54.8418 145.913 55.533 145.608 56.2121 145.368C56.9031 145.13 57.5267 144.958 58.0831 144.854C58.6394 144.75 59.0709 144.726 59.3777 144.783C59.5429 144.813 59.672 144.874 59.7651 144.964C59.8604 145.043 59.8927 145.165 59.8621 145.33C59.8424 145.436 59.7825 145.529 59.6824 145.608C59.6942 145.61 59.706 145.613 59.7178 145.615C59.9774 145.663 60.0788 145.84 60.0219 146.147C60.0022 146.253 59.9205 146.464 59.7766 146.779C59.635 147.082 59.4663 147.466 59.2704 147.93C59.0746 148.394 58.8807 148.913 58.6887 149.488C58.499 150.051 58.3483 150.633 58.2368 151.235C58.1428 151.742 58.2904 152.032 58.6798 152.104C59.1164 152.185 59.5774 152.167 60.063 152.049C60.5485 151.932 61.0299 151.771 61.5072 151.566C61.9866 151.35 62.4295 151.133 62.836 150.916C63.2446 150.686 63.5914 150.494 63.8764 150.34C64.1613 150.185 64.3569 150.118 64.4631 150.137C64.5575 150.155 64.6346 150.2 64.6945 150.272C64.7544 150.344 64.7723 150.445 64.7482 150.574C64.7263 150.692 64.569 150.883 64.2761 151.146C63.9833 151.409 63.6061 151.699 63.1446 152.016C62.683 152.334 62.1765 152.63 61.625 152.906C61.0734 153.182 60.5221 153.391 59.971 153.533C59.4199 153.675 58.9143 153.704 58.4541 153.618C58.1001 153.553 57.7953 153.387 57.5397 153.119C57.2981 152.843 57.138 152.423 57.0594 151.859C56.9926 151.297 57.0456 150.55 57.2184 149.618L57.3004 149.176C56.5451 150.024 55.7756 150.785 54.9919 151.457C54.2201 152.132 53.4777 152.647 52.7649 153.003C52.0639 153.362 51.4361 153.489 50.8815 153.387ZM58.8053 145.995C58.7419 146.007 58.6527 146.028 58.5378 146.055C57.9491 146.202 57.3259 146.404 56.6682 146.66C56.0222 146.919 55.3804 147.221 54.7428 147.567C54.1169 147.915 53.5409 148.29 53.0146 148.693C52.4884 149.096 52.0496 149.521 51.6982 149.968C51.3467 150.416 51.1273 150.875 51.0398 151.347C51.0114 151.501 51.019 151.624 51.0627 151.718C51.1182 151.813 51.2285 151.877 51.3937 151.907C51.6297 151.951 51.9638 151.86 52.3961 151.635C52.8305 151.398 53.3178 151.074 53.858 150.661C54.41 150.251 54.9719 149.788 55.5436 149.271C56.1153 148.755 56.6644 148.228 57.1911 147.691C57.7296 147.156 58.2003 146.658 58.6033 146.195C58.6658 146.121 58.7332 146.055 58.8053 145.995ZM71.1769 147.464C71.6377 146.756 72.085 146.021 72.5191 145.26C72.965 144.5 73.3846 143.718 73.7781 142.912C73.8926 142.689 74.0338 142.52 74.2016 142.404C74.3834 142.279 74.5746 142.236 74.7752 142.273C74.9168 142.299 75.0249 142.374 75.0997 142.498C75.1862 142.624 75.213 142.775 75.1802 142.952C75.1387 143.176 74.978 143.549 74.6982 144.071C74.4303 144.595 74.0878 145.257 73.6707 146.059C73.2655 146.862 72.8303 147.795 72.3652 148.856C71.914 149.907 71.4764 151.083 71.0523 152.384C70.64 153.686 70.2939 155.093 70.014 156.603C69.9528 156.933 69.8317 157.192 69.6507 157.378C69.4676 157.576 69.2757 157.656 69.0751 157.619C68.9571 157.597 68.8505 157.547 68.7553 157.468C68.66 157.389 68.5919 157.23 68.5508 156.991C68.5194 156.765 68.5227 156.418 68.5608 155.949C68.6011 155.469 68.6956 154.827 68.8443 154.025C68.958 153.411 69.1169 152.751 69.3211 152.044C68.5969 152.923 67.8484 153.669 67.0756 154.283C66.3169 154.887 65.6065 155.328 64.9443 155.609C64.294 155.891 63.7624 155.994 63.3494 155.917C62.842 155.823 62.4608 155.575 62.2056 155.174C61.9601 154.787 61.8985 154.263 62.021 153.602C62.1282 153.024 62.3743 152.453 62.7594 151.89C63.1445 151.327 63.6159 150.792 64.1736 150.285C64.7335 149.766 65.334 149.292 65.9752 148.861C66.6163 148.431 67.2455 148.066 67.8626 147.765C68.4937 147.455 69.066 147.231 69.5795 147.095C70.0952 146.946 70.5005 146.899 70.7955 146.954C70.9135 146.976 71.012 147.037 71.0911 147.137C71.1702 147.237 71.1988 147.346 71.1769 147.464ZM70.8452 147.97C70.7473 148.037 70.6317 148.101 70.4984 148.162C70.3651 148.223 70.2189 148.287 70.0598 148.355C69.4728 148.625 68.8219 148.944 68.1069 149.311C67.4058 149.67 66.7197 150.079 66.0483 150.541C65.391 150.993 64.8285 151.492 64.3608 152.04C63.8931 152.588 63.5991 153.187 63.4789 153.836C63.4264 154.119 63.5417 154.287 63.8249 154.339C64.2143 154.411 64.6729 154.307 65.2009 154.027C65.7428 153.737 66.3228 153.307 66.9408 152.738C67.561 152.158 68.202 151.465 68.8638 150.66C69.5277 149.843 70.1882 148.947 70.8452 147.97ZM82.2213 149.511C82.682 148.803 83.1294 148.068 83.5635 147.307C84.0093 146.547 84.429 145.764 84.8224 144.959C84.9369 144.736 85.0781 144.567 85.2459 144.451C85.4278 144.326 85.619 144.283 85.8195 144.32C85.9611 144.346 86.0693 144.421 86.144 144.545C86.2305 144.67 86.2574 144.822 86.2246 144.999C86.183 145.223 86.0223 145.596 85.7426 146.118C85.4746 146.642 85.1321 147.304 84.7151 148.106C84.3099 148.909 83.8747 149.842 83.4095 150.903C82.9584 151.954 82.5207 153.13 82.0966 154.431C81.6843 155.733 81.3382 157.14 81.0583 158.65C80.9971 158.98 80.876 159.239 80.6951 159.425C80.5119 159.623 80.3201 159.703 80.1195 159.666C80.0015 159.644 79.8949 159.594 79.7996 159.515C79.7043 159.436 79.6362 159.277 79.5951 159.038C79.5637 158.812 79.567 158.465 79.6051 157.996C79.6454 157.516 79.7399 156.874 79.8886 156.072C80.0023 155.458 80.1613 154.798 80.3655 154.091C79.6412 154.97 78.8927 155.716 78.12 156.33C77.3612 156.934 76.6508 157.375 75.9887 157.655C75.3384 157.938 74.8067 158.041 74.3937 157.964C73.8864 157.87 73.5051 157.622 73.25 157.221C73.0044 156.834 72.9429 156.31 73.0653 155.649C73.1725 155.071 73.4186 154.5 73.8037 153.937C74.1888 153.374 74.6602 152.839 75.2179 152.332C75.7778 151.813 76.3783 151.339 77.0195 150.908C77.6607 150.478 78.2898 150.113 78.9069 149.812C79.538 149.502 80.1103 149.278 80.6238 149.142C81.1395 148.993 81.5449 148.946 81.8398 149.001C81.9578 149.023 82.0564 149.084 82.1354 149.184C82.2145 149.284 82.2431 149.393 82.2213 149.511ZM81.8895 150.017C81.7916 150.084 81.676 150.148 81.5427 150.209C81.4094 150.27 81.2632 150.334 81.1041 150.402C80.5172 150.672 79.8662 150.99 79.1512 151.358C78.4502 151.717 77.764 152.126 77.0927 152.588C76.4353 153.04 75.8728 153.539 75.4051 154.087C74.9374 154.635 74.6435 155.234 74.5232 155.883C74.4707 156.166 74.5861 156.334 74.8692 156.386C75.2586 156.458 75.7173 156.354 76.2452 156.074C76.7872 155.784 77.3671 155.354 77.9852 154.785C78.6054 154.205 79.2464 153.512 79.9081 152.707C80.5721 151.89 81.2325 150.994 81.8895 150.017ZM96.8071 162.155C95.8986 161.986 95.2394 161.559 94.8296 160.873C94.4338 160.177 94.3354 159.292 94.5344 158.219C94.6568 157.558 94.8886 156.801 95.2296 155.949C95.5846 155.088 95.9955 154.187 96.4624 153.249C96.9432 152.3 97.4455 151.368 97.9692 150.452C98.4928 149.537 98.9916 148.689 99.4654 147.911C99.9533 147.122 100.374 146.468 100.726 145.947C100.927 145.655 101.157 145.533 101.417 145.581C101.771 145.647 101.907 145.898 101.826 146.334C101.8 146.476 101.681 146.753 101.471 147.166C101.26 147.578 100.988 148.089 100.656 148.699C100.325 149.296 99.964 149.962 99.5719 150.695C99.1798 151.427 98.7774 152.183 98.3647 152.961C97.9661 153.729 97.5862 154.494 97.2251 155.257C96.8662 156.009 96.5573 156.72 96.2985 157.392C96.0397 158.064 95.8644 158.648 95.7725 159.144C95.7135 159.462 95.7491 159.731 95.8793 159.951C96.0234 160.16 96.243 160.293 96.538 160.347C97.0808 160.448 97.6432 160.442 98.2253 160.331C98.8214 160.209 99.4027 160.036 99.9691 159.812C100.538 159.575 101.058 159.336 101.53 159.094C102.016 158.842 102.426 158.638 102.76 158.48C103.097 158.311 103.324 158.237 103.442 158.259C103.702 158.307 103.805 158.472 103.753 158.756C103.735 158.85 103.608 159.009 103.371 159.234C103.137 159.447 102.828 159.695 102.446 159.978C102.064 160.261 101.627 160.546 101.134 160.833C100.656 161.111 100.157 161.366 99.6378 161.599C99.1325 161.823 98.6324 161.986 98.1372 162.09C97.6517 162.207 97.2083 162.229 96.8071 162.155ZM110.706 156.108C110.636 156.486 110.449 156.836 110.145 157.158C109.844 157.468 109.468 157.752 109.017 158.01C108.569 158.257 108.082 158.478 107.558 158.674C107.033 158.869 106.515 159.03 106.004 159.154C105.493 159.279 105.03 159.371 104.617 159.428C104.437 159.871 104.315 160.269 104.249 160.623C104.207 160.847 104.231 161.017 104.32 161.131C104.408 161.245 104.565 161.322 104.789 161.364C105.285 161.456 105.826 161.465 106.413 161.39C107.001 161.316 107.61 161.191 108.24 161.015C108.871 160.839 109.481 160.641 110.071 160.421C110.661 160.201 111.201 159.989 111.69 159.787C112.191 159.587 112.605 159.426 112.933 159.304C113.261 159.181 113.472 159.129 113.566 159.146C113.708 159.173 113.805 159.239 113.858 159.347C113.926 159.445 113.948 159.553 113.927 159.671C113.909 159.765 113.728 159.921 113.382 160.137C113.049 160.356 112.606 160.604 112.055 160.88C111.506 161.144 110.895 161.409 110.223 161.676C109.552 161.942 108.861 162.18 108.15 162.39C107.452 162.602 106.783 162.753 106.144 162.842C105.517 162.933 104.968 162.935 104.496 162.847C103.882 162.734 103.447 162.415 103.19 161.891C102.933 161.368 102.894 160.622 103.074 159.655C103.194 159.006 103.398 158.366 103.686 157.736C103.985 157.108 104.338 156.521 104.745 155.974C105.165 155.417 105.602 154.937 106.055 154.532C106.522 154.119 106.988 153.814 107.451 153.619C107.916 153.413 108.344 153.346 108.733 153.418C109.477 153.555 110.022 153.87 110.371 154.362C110.719 154.854 110.831 155.436 110.706 156.108ZM105.241 158.134C105.648 157.978 106.07 157.812 106.505 157.636C106.94 157.461 107.347 157.274 107.726 157.075C108.104 156.877 108.42 156.655 108.673 156.409C108.94 156.153 109.102 155.872 109.159 155.565C109.24 155.129 109.044 154.867 108.572 154.779C108.277 154.725 107.93 154.855 107.529 155.172C107.143 155.478 106.748 155.899 106.343 156.435C105.939 156.97 105.572 157.537 105.241 158.134ZM114.176 164.184C113.999 164.151 113.846 163.989 113.718 163.696C113.601 163.406 113.544 163.017 113.549 162.53C113.559 162.019 113.587 161.439 113.634 160.788C113.681 160.138 113.738 159.502 113.805 158.879C113.871 158.257 113.937 157.708 114 157.231C114.064 156.755 114.112 156.434 114.142 156.269C114.256 155.656 114.434 155.219 114.678 154.959C114.935 154.689 115.217 154.583 115.524 154.64C115.737 154.679 115.879 154.767 115.952 154.902C116.026 155.026 116.028 155.282 115.955 155.672C115.907 155.931 115.851 156.269 115.786 156.684C115.721 157.099 115.656 157.551 115.59 158.039C115.506 158.621 115.416 159.239 115.32 159.892C115.225 160.534 115.126 161.168 115.022 161.796C115.392 161.377 115.814 160.912 116.287 160.401C116.772 159.893 117.265 159.374 117.765 158.845C118.269 158.303 118.754 157.789 119.223 157.302C119.692 156.816 120.106 156.392 120.465 156.031C120.825 155.671 121.099 155.411 121.287 155.25C121.532 155.051 121.745 154.92 121.928 154.856C122.122 154.795 122.285 154.776 122.414 154.8C122.591 154.833 122.721 154.924 122.803 155.073C122.897 155.225 122.922 155.419 122.878 155.655C122.852 155.797 122.793 155.95 122.701 156.116C122.624 156.273 122.503 156.428 122.341 156.58C121.932 157.005 121.444 157.5 120.875 158.066C120.307 158.632 119.716 159.218 119.103 159.825C118.49 160.431 117.893 161.022 117.31 161.598C116.73 162.161 116.222 162.659 115.788 163.091C115.021 163.877 114.483 164.241 114.176 164.184ZM129.804 159.648C129.734 160.026 129.548 160.375 129.244 160.697C128.942 161.008 128.566 161.292 128.116 161.55C127.667 161.796 127.181 162.018 126.656 162.213C126.132 162.409 125.614 162.569 125.103 162.694C124.591 162.819 124.129 162.91 123.715 162.968C123.536 163.411 123.413 163.809 123.348 164.163C123.306 164.387 123.33 164.556 123.418 164.67C123.507 164.784 123.663 164.862 123.888 164.904C124.383 164.996 124.925 165.004 125.512 164.93C126.099 164.856 126.708 164.731 127.339 164.555C127.97 164.379 128.58 164.181 129.17 163.961C129.76 163.74 130.299 163.529 130.789 163.327C131.289 163.127 131.704 162.966 132.031 162.843C132.359 162.721 132.57 162.669 132.665 162.686C132.806 162.712 132.904 162.779 132.957 162.887C133.024 162.985 133.047 163.093 133.025 163.211C133.008 163.305 132.826 163.461 132.481 163.677C132.148 163.896 131.705 164.144 131.153 164.42C130.604 164.684 129.994 164.949 129.322 165.215C128.65 165.481 127.959 165.719 127.249 165.929C126.551 166.142 125.882 166.292 125.243 166.381C124.616 166.473 124.066 166.475 123.594 166.387C122.981 166.273 122.546 165.955 122.289 165.431C122.032 164.908 121.993 164.162 122.172 163.195C122.293 162.546 122.497 161.906 122.784 161.276C123.084 160.648 123.437 160.06 123.843 159.513C124.264 158.957 124.701 158.476 125.154 158.072C125.621 157.658 126.086 157.354 126.55 157.159C127.015 156.952 127.442 156.885 127.832 156.957C128.575 157.095 129.121 157.41 129.469 157.902C129.817 158.393 129.929 158.975 129.804 159.648ZM124.34 161.674C124.747 161.518 125.168 161.352 125.604 161.176C126.039 161 126.446 160.813 126.824 160.615C127.203 160.417 127.519 160.195 127.772 159.949C128.039 159.693 128.201 159.412 128.258 159.105C128.338 158.668 128.143 158.406 127.671 158.319C127.376 158.264 127.028 158.395 126.628 158.711C126.242 159.018 125.846 159.439 125.442 159.974C125.038 160.51 124.67 161.076 124.34 161.674ZM134.088 169.064C133.18 168.896 132.521 168.469 132.111 167.782C131.715 167.087 131.616 166.202 131.815 165.128C131.938 164.467 132.17 163.711 132.511 162.859C132.866 161.997 133.277 161.097 133.743 160.158C134.224 159.21 134.727 158.278 135.25 157.362C135.774 156.446 136.273 155.599 136.747 154.82C137.234 154.032 137.655 153.378 138.007 152.857C138.208 152.565 138.438 152.443 138.698 152.491C139.052 152.556 139.188 152.807 139.107 153.244C139.081 153.386 138.963 153.663 138.752 154.075C138.541 154.488 138.27 154.999 137.937 155.608C137.606 156.206 137.245 156.871 136.853 157.604C136.461 158.337 136.058 159.092 135.646 159.87C135.247 160.638 134.867 161.404 134.506 162.167C134.147 162.918 133.838 163.63 133.58 164.302C133.321 164.974 133.145 165.558 133.054 166.053C132.995 166.372 133.03 166.641 133.16 166.86C133.305 167.07 133.524 167.202 133.819 167.257C134.362 167.358 134.924 167.352 135.506 167.24C136.103 167.119 136.684 166.946 137.25 166.721C137.819 166.485 138.339 166.246 138.811 166.004C139.297 165.752 139.707 165.547 140.042 165.39C140.378 165.22 140.605 165.146 140.723 165.168C140.983 165.216 141.086 165.382 141.034 165.665C141.017 165.76 140.889 165.919 140.652 166.144C140.418 166.356 140.109 166.604 139.727 166.888C139.345 167.171 138.908 167.456 138.416 167.743C137.937 168.02 137.438 168.276 136.919 168.509C136.414 168.733 135.913 168.896 135.418 169C134.933 169.117 134.489 169.139 134.088 169.064Z" fill="black" fill-opacity="0.8"/>
</g>
</g>
<defs>
<filter id="filter0_ddd_1_8" x="0.824951" y="0.832031" width="305.545" height="305.545" filterUnits="userSpaceOnUse" color-interpolation-filters="sRGB">
<feFlood flood-opacity="0" result="BackgroundImageFix"/>
<feColorMatrix in="SourceAlpha" type="matrix" values="0 0 0 0 0 0 0 0 0 0 0 0 0 0 0 0 0 0 127 0" result="hardAlpha"/>
<feOffset dy="2.5"/>
<feGaussianBlur stdDeviation="1"/>
<feColorMatrix type="matrix" values="0 0 0 0 0 0 0 0 0 0 0 0 0 0 0 0 0 0 0.02 0"/>
<feBlend mode="normal" in2="BackgroundImageFix" result="effect1_dropShadow_1_8"/>
<feColorMatrix in="SourceAlpha" type="matrix" values="0 0 0 0 0 0 0 0 0 0 0 0 0 0 0 0 0 0 127 0" result="hardAlpha"/>
<feOffset dy="3"/>
<feGaussianBlur stdDeviation="2.5"/>
<feColorMatrix type="matrix" values="0 0 0 0 0 0 0 0 0 0 0 0 0 0 0 0 0 0 0.04 0"/>
<feBlend mode="normal" in2="effect1_dropShadow_1_8" result="effect2_dropShadow_1_8"/>
<feColorMatrix in="SourceAlpha" type="matrix" values="0 0 0 0 0 0 0 0 0 0 0 0 0 0 0 0 0 0 127 0" result="hardAlpha"/>
<feOffset dy="8"/>
<feGaussianBlur stdDeviation="5"/>
<feColorMatrix type="matrix" values="0 0 0 0 0 0 0 0 0 0 0 0 0 0 0 0 0 0 0.08 0"/>
<feBlend mode="normal" in2="effect2_dropShadow_1_8" result="effect3_dropShadow_1_8"/>
<feBlend mode="normal" in="SourceGraphic" in2="effect3_dropShadow_1_8" result="shape"/>
</filter>
<clipPath id="clip0_1_8">
<rect width="245" height="245" fill="white" transform="translate(55.4727 2.83203) rotate(10.5)"/>
</clipPath>
</defs>
</svg>
