<svg width="92" height="92" viewBox="0 0 92 92" fill="none" xmlns="http://www.w3.org/2000/svg">
<path d="M46 91C70.8528 91 91 70.8528 91 46C91 21.1472 70.8528 1 46 1C21.1472 1 1 21.1472 1 46C1 70.8528 21.1472 91 46 91Z" stroke="#2956A8" stroke-width="2" stroke-dasharray="2 2"/>
<path d="M45.9988 86.116C68.1543 86.116 86.1148 68.1557 86.1148 46.0004C86.1148 23.8451 68.1543 5.88477 45.9988 5.88477C23.8434 5.88477 5.88281 23.8451 5.88281 46.0004C5.88281 68.1557 23.8434 86.116 45.9988 86.116Z" fill="#2956A8"/>
<path d="M46.0063 58.75L46 45.25" stroke="white" stroke-width="2.66667" stroke-linecap="round" stroke-linejoin="round"/>
<path d="M58.3873 53.7371C60.8522 52.0038 61.9091 48.8727 60.999 46C60.0889 43.1274 57.3018 41.5536 54.2884 41.5559H52.5477C51.4097 37.121 47.6551 33.8468 43.1065 33.3229C38.5579 32.799 34.1573 35.1339 32.0409 39.194C29.9245 43.2541 30.5305 48.1988 33.5648 51.6276" stroke="white" stroke-width="2.66667" stroke-linecap="round" stroke-linejoin="round"/>
<path d="M50.7726 48.727L45.9996 43.9541L41.2266 48.727" stroke="white" stroke-width="2.66667" stroke-linecap="round" stroke-linejoin="round"/>
</svg>
