<svg width="19" height="19" viewBox="0 0 19 19" fill="none" xmlns="http://www.w3.org/2000/svg">
<path d="M10.6262 15.6848L11.5799 14.0644C11.7278 13.8246 11.6539 13.5413 11.4099 13.4032C11.1659 13.2652 10.8924 13.3451 10.7519 13.5921L9.79074 15.227C9.65766 15.4523 9.7168 15.7284 9.96818 15.8664C10.2048 16.0045 10.4931 15.9173 10.6262 15.6848ZM12.3488 17.7483L14.5299 14.0499C14.663 13.8174 14.5964 13.5485 14.3598 13.4032C14.1306 13.2724 13.8423 13.3451 13.7018 13.5849L11.5356 17.276C11.4025 17.5086 11.469 17.7919 11.7056 17.93C11.9422 18.0608 12.2158 17.9809 12.3488 17.7483ZM4.74846 15.692L5.70221 14.0644C5.84268 13.8319 5.76875 13.5485 5.53216 13.4105C5.28818 13.2724 5.01462 13.3524 4.86676 13.5994L3.90562 15.227C3.77254 15.4595 3.83908 15.7356 4.08306 15.8737C4.31965 16.0045 4.60799 15.9245 4.74846 15.692ZM6.47112 17.7556L8.64477 14.0572C8.77785 13.8246 8.71131 13.5485 8.48211 13.4105C8.24552 13.2724 7.95718 13.3524 7.81671 13.5921L5.65785 17.2833C5.51737 17.5158 5.58391 17.7992 5.8205 17.9373C6.05709 18.068 6.33064 17.9881 6.47112 17.7556Z" fill="#63D2FF"/>
<path d="M13.7388 12.0881H4.51924C2.43431 12.0881 1 10.7874 1 8.91277C1 7.43776 1.95374 6.23885 3.39545 5.82468C3.65422 3.09263 5.97574 1 8.74086 1C10.848 1 12.5854 2.06085 13.5392 3.94277C16.0751 3.92097 17.9974 5.6721 17.9974 8.00451C17.9974 10.3006 16.1416 12.0881 13.7388 12.0881Z" fill="white"/>
</svg>
