<svg width="19" height="19" viewBox="0 0 19 19" fill="none" xmlns="http://www.w3.org/2000/svg">
<path d="M4.59326 8.29834C3.77441 8.29834 3.01904 8.09521 2.29541 7.67627C1.91455 7.46045 1.87646 7.07324 2.0542 6.80029C2.20654 6.57178 2.50488 6.46387 2.80957 6.62891C3.43799 6.99707 3.97754 7.13672 4.59326 7.13672C7.1958 7.13672 8.70654 4.7373 11.6138 4.7373C12.439 4.7373 13.1943 4.94043 13.918 5.35303C14.2988 5.58154 14.3433 5.9751 14.1528 6.2417C13.9941 6.46387 13.7021 6.57178 13.4038 6.40039C12.769 6.03857 12.2295 5.89893 11.6138 5.89893C8.98584 5.89893 7.4624 8.29834 4.59326 8.29834ZM12.9341 15.96C11.3789 15.96 10.1348 14.7412 10.1348 13.2178C10.1348 12.3799 10.5537 11.5547 10.9028 10.9009L12.312 8.27295C12.4707 7.98096 12.6357 7.84131 12.9341 7.84131C13.2324 7.84131 13.3975 7.97461 13.5562 8.27295L14.9717 10.9009C15.3208 11.5547 15.7397 12.3799 15.7397 13.2178C15.7397 14.7412 14.4956 15.96 12.9341 15.96ZM4.60596 11.7007C3.78076 11.7007 3.02539 11.4976 2.30176 11.0786C1.9209 10.8628 1.88281 10.4756 2.06689 10.2026C2.21924 9.97412 2.51758 9.86621 2.81592 10.0376C3.45068 10.3994 3.98389 10.5391 4.60596 10.5391C7.13867 10.5391 8.5542 8.31104 11.3535 8.15234C11.1187 8.58398 10.8838 9.01562 10.6553 9.44727C8.56055 9.87891 7.0625 11.7007 4.60596 11.7007ZM12.9341 14.9951C13.9561 14.9951 14.7749 14.208 14.7749 13.2178C14.7749 12.6084 14.4512 12.0117 14.1021 11.3579L13.0039 9.28857C12.9722 9.2251 12.9087 9.2251 12.877 9.28857L11.7598 11.3579C11.417 12.0117 11.0996 12.6084 11.0996 13.2178C11.0996 14.208 11.9185 14.9951 12.9341 14.9951ZM4.59326 15.103C3.77441 15.103 3.01904 14.8999 2.29541 14.4873C1.91455 14.2651 1.87646 13.8779 2.0542 13.6113C2.20654 13.3765 2.50488 13.2686 2.80957 13.4399C3.43799 13.8018 3.97754 13.9414 4.59326 13.9414C6.46582 13.9414 7.76074 12.7036 9.43652 12.0181C9.29688 12.4497 9.22705 12.9829 9.27148 13.332C7.81152 14.0239 6.49121 15.103 4.59326 15.103Z" fill="white"/>
</svg>
