<svg width="20" height="19" viewBox="0 0 20 19" fill="none" xmlns="http://www.w3.org/2000/svg">
<path d="M10.9429 1.77549C10.9429 1.35733 10.5849 1 10.166 1C9.74711 1 9.39675 1.35733 9.39675 1.77549V3.31887C9.39675 3.73703 9.74711 4.08676 10.166 4.08676C10.5849 4.08676 10.9429 3.73703 10.9429 3.31887V1.77549ZM13.9895 4.60376C13.6924 4.90027 13.6924 5.39445 13.9971 5.69097C14.2865 5.98748 14.7892 5.98748 15.0863 5.68336L16.183 4.58855C16.4801 4.29964 16.4801 3.79025 16.183 3.49374C15.886 3.20483 15.3909 3.20483 15.0939 3.50134L13.9895 4.60376ZM5.24576 5.68336C5.53519 5.98748 6.03788 5.98748 6.33492 5.69097C6.63197 5.40206 6.63197 4.89267 6.34254 4.60376L5.24576 3.50134C4.95634 3.21243 4.45365 3.20483 4.15661 3.49374C3.85956 3.79025 3.85956 4.29964 4.14899 4.58095L5.24576 5.68336ZM10.166 5.49329C7.97247 5.49329 6.15213 7.30277 6.15213 9.5C6.15213 11.6972 7.97247 13.5067 10.166 13.5067C12.3596 13.5067 14.1723 11.6972 14.1723 9.5C14.1723 7.30277 12.3596 5.49329 10.166 5.49329ZM17.8968 10.2755C18.3157 10.2755 18.666 9.91816 18.666 9.5C18.666 9.08184 18.3157 8.73211 17.8968 8.73211H16.3506C15.9317 8.73211 15.5813 9.08184 15.5813 9.5C15.5813 9.91816 15.9317 10.2755 16.3506 10.2755H17.8968ZM2.4429 8.73211C2.01637 8.73211 1.66602 9.08184 1.66602 9.5C1.66602 9.91816 2.01637 10.2755 2.4429 10.2755H3.98143C4.40033 10.2755 4.75831 9.91816 4.75831 9.5C4.75831 9.08184 4.40033 8.73211 3.98143 8.73211H2.4429ZM15.0787 13.3166C14.7816 13.0201 14.2865 13.0277 13.9895 13.3242C13.6924 13.6131 13.6924 14.1073 13.9971 14.4114L15.1015 15.5063C15.3909 15.8028 15.8936 15.7952 16.1907 15.4987C16.4801 15.2021 16.4801 14.708 16.183 14.4114L15.0787 13.3166ZM4.14899 14.4038C3.85195 14.7004 3.84433 15.2021 4.13376 15.4911C4.4308 15.7876 4.94111 15.7952 5.23053 15.5063L6.33492 14.4114C6.63197 14.1149 6.63197 13.6131 6.34254 13.3242C6.0455 13.0277 5.54281 13.0277 5.24576 13.3166L4.14899 14.4038ZM10.9429 15.6811C10.9429 15.263 10.5849 14.9132 10.166 14.9132C9.74711 14.9132 9.39675 15.263 9.39675 15.6811V17.2245C9.39675 17.6427 9.74711 18 10.166 18C10.5849 18 10.9429 17.6427 10.9429 17.2245V15.6811Z" fill="#FFD409"/>
</svg>
