<svg width="20" height="20" viewBox="0 0 20 20" fill="none" xmlns="http://www.w3.org/2000/svg">
<path d="M16.2763 6.66667L11.668 2.05833C11.5509 1.94109 11.392 1.87515 11.2263 1.875H9.16797C8.56018 1.875 7.97729 2.11644 7.54752 2.54621C7.11774 2.97598 6.8763 3.55888 6.8763 4.16667V5.20833H5.83464C5.22685 5.20833 4.64395 5.44978 4.21418 5.87955C3.78441 6.30932 3.54297 6.89221 3.54297 7.5V15.8333C3.54297 16.4411 3.78441 17.024 4.21418 17.4538C4.64395 17.8836 5.22685 18.125 5.83464 18.125H11.668C12.2758 18.125 12.8587 17.8836 13.2884 17.4538C13.7182 17.024 13.9596 16.4411 13.9596 15.8333V14.7917H14.168C14.7758 14.7917 15.3587 14.5502 15.7884 14.1205C16.2182 13.6907 16.4596 13.1078 16.4596 12.5V7.08333C16.4531 6.92634 16.3876 6.77757 16.2763 6.66667ZM11.8763 4.00833L14.3263 6.45833H11.8763V4.00833ZM12.7096 15.8333C12.7096 16.1096 12.5999 16.3746 12.4045 16.5699C12.2092 16.7653 11.9442 16.875 11.668 16.875H5.83464C5.55837 16.875 5.29342 16.7653 5.09807 16.5699C4.90272 16.3746 4.79297 16.1096 4.79297 15.8333V7.5C4.79297 7.22373 4.90272 6.95878 5.09807 6.76343C5.29342 6.56808 5.55837 6.45833 5.83464 6.45833H6.8763V12.5C6.8763 13.1078 7.11774 13.6907 7.54752 14.1205C7.97729 14.5502 8.56018 14.7917 9.16797 14.7917H12.7096V15.8333ZM14.168 13.5417H9.16797C8.8917 13.5417 8.62675 13.4319 8.4314 13.2366C8.23605 13.0412 8.1263 12.7763 8.1263 12.5V4.16667C8.1263 3.8904 8.23605 3.62545 8.4314 3.4301C8.62675 3.23475 8.8917 3.125 9.16797 3.125H10.6263V7.08333C10.6285 7.24842 10.695 7.40614 10.8117 7.52289C10.9285 7.63963 11.0862 7.70617 11.2513 7.70833H15.2096V12.5C15.2096 12.7763 15.0999 13.0412 14.9045 13.2366C14.7092 13.4319 14.4442 13.5417 14.168 13.5417Z" fill="#898182"/>
</svg>
