<svg width="1142" height="150" viewBox="0 0 1142 150" fill="none" xmlns="http://www.w3.org/2000/svg">
<g clip-path="url(#clip0_2536_6070)">
<rect width="1142" height="150" fill="#343434"/>
<g clip-path="url(#clip1_2536_6070)">
<mask id="mask0_2536_6070" style="mask-type:luminance" maskUnits="userSpaceOnUse" x="250" y="-450" width="641" height="962">
<path d="M891 511.325L891 -449.866L250 -449.866L250 511.325L891 511.325Z" fill="white"/>
</mask>
<g mask="url(#mask0_2536_6070)">
<path d="M570.503 58.8141C574.957 61.4388 608.203 81.8647 608.203 106.148C608.203 109.755 607.849 113.464 607.234 117.175C607.903 117.087 608.579 117.056 609.254 117.084C609.853 113.399 610.199 109.725 610.199 106.148C610.199 79.0977 572.593 57.6901 570.992 56.7904L570.503 56.5162L570.015 56.7904C568.414 57.6901 530.809 79.0965 530.809 106.148C530.809 109.678 531.122 113.302 531.699 116.938C532.381 116.934 533.066 116.999 533.743 117.137C533.134 113.434 532.804 109.739 532.804 106.148C532.804 81.8775 566.048 61.44 570.503 58.8141Z" fill="#CC9A29"/>
<path d="M570.503 67.3722C574.531 69.7585 602.009 86.7831 602.009 106.945C602.009 111.452 601.396 116.149 600.287 120.77C600.527 120.608 600.777 120.47 601.022 120.325C601.528 119.761 602.098 119.266 602.719 118.848C603.541 114.851 604.004 110.83 604.004 106.945C604.004 84.1302 572.339 66.1047 570.991 65.3485L570.503 65.0743L570.014 65.3485C568.667 66.1047 537.004 84.1302 537.004 106.945C537.004 110.959 537.481 115.123 538.354 119.252C539.435 120.071 540.371 121.075 541.082 122.222C539.739 117.138 539 111.923 539 106.944C539 86.7818 566.473 69.7585 570.503 67.3722Z" fill="#CC9A29"/>
<path d="M570.502 102.028C573.282 103.708 586.938 112.479 586.938 122.715C586.938 125.455 586.508 128.33 585.749 131.118C586.668 130.319 587.513 129.413 588.38 128.532C588.728 126.584 588.934 124.628 588.934 122.716C588.934 110.213 571.724 100.415 570.991 100.003L570.502 99.7297L570.014 100.003C569.281 100.414 552.074 110.213 552.074 122.716C552.074 124.567 552.266 126.462 552.593 128.346C553.42 128.691 554.194 129.136 554.898 129.682C554.364 127.349 554.068 124.986 554.068 122.715C554.07 112.479 567.724 103.708 570.502 102.028Z" fill="#CC9A29"/>
<path d="M573.895 147.389C572.8 147.808 571.669 148.04 570.505 148.04C569.508 148.04 568.537 147.837 567.591 147.525C567.777 148.258 567.972 148.989 568.117 149.74C568.899 149.916 569.692 150.035 570.505 150.035C571.474 150.035 572.414 149.87 573.338 149.629C573.502 148.866 573.687 148.119 573.895 147.389Z" fill="#CC9A29"/>
<path d="M580.497 135.605C580.572 134.939 580.625 134.27 580.625 133.616C580.625 126.613 570.506 120.939 570.506 120.939C570.506 120.939 560.389 126.613 560.389 133.616C560.389 134.288 560.448 134.972 560.528 135.659C562.012 136.437 563.362 137.682 564.428 139.487C565.958 142.085 567.023 145.066 567.759 148.189C568.636 148.626 569.551 148.89 570.506 148.89C571.641 148.89 572.728 148.536 573.747 147.933C575.002 143.196 577.069 139.167 580.497 135.605Z" fill="#CC9A29"/>
<path d="M571.5 100.872L571.5 69.2119L569.504 69.2119L569.504 100.872L571.5 100.872Z" fill="#CC9A29"/>
<path d="M585.038 81.2948L583.188 80.546L573.99 103.255L575.84 104.004L585.038 81.2948Z" fill="#CC9A29"/>
<path d="M592.397 88.5658L590.703 87.5121L578.687 106.812L580.381 107.866L592.397 88.5658Z" fill="#CC9A29"/>
<path d="M597.757 97.0825L596.207 95.8274L583.369 111.673L584.92 112.928L597.757 97.0825Z" fill="#CC9A29"/>
<path d="M601.011 108.634L599.805 107.049L586.63 117.072L587.836 118.657L601.011 108.634Z" fill="#CC9A29"/>
<path d="M598.535 122.141L598.183 120.538L587.966 122.785L588.393 124.733L597.971 122.628C598.158 122.462 598.347 122.301 598.535 122.141Z" fill="#CC9A29"/>
<path d="M566.959 103.245L557.754 80.5385L555.905 81.2875L565.11 103.994L566.959 103.245Z" fill="#CC9A29"/>
<path d="M562.32 106.795L550.27 87.5196L548.578 88.5765L560.629 107.852L562.32 106.795Z" fill="#CC9A29"/>
<path d="M557.601 111.666L544.789 95.7999L543.237 97.0524L556.049 112.919L557.601 111.666Z" fill="#CC9A29"/>
<path d="M554.366 117.049L541.203 107.009L539.995 108.592L553.157 118.632L554.366 117.049Z" fill="#CC9A29"/>
<path d="M553.011 122.792L542.793 120.553L542.366 122.501L552.584 124.74L553.011 122.792Z" fill="#CC9A29"/>
<path d="M453.494 133.419C452.341 130.258 451.759 126.777 451.759 123.072C451.759 102.299 469.914 79.4574 472.724 76.0484C477.808 76.9929 516.038 84.8208 524.345 107.638C525.559 110.977 526.506 114.528 527.209 118.201C527.808 117.835 528.432 117.544 529.074 117.34C528.36 113.735 527.415 110.245 526.219 106.958C516.964 81.5336 474.305 74.2772 472.492 73.9812L471.941 73.8902L471.574 74.3157C470.684 75.3512 449.765 99.9244 449.765 123.072C449.765 127.012 450.388 130.722 451.618 134.1C452.816 137.389 454.331 140.662 456.099 143.855C456.723 143.596 457.373 143.396 458.039 143.255C456.244 140.037 454.702 136.735 453.494 133.419Z" fill="#CC9A29"/>
<path d="M458.141 123.414C458.141 106.16 473.118 87.1808 475.655 84.0896C480.256 84.9534 511.898 91.5472 518.799 110.503C520.385 114.863 521.449 119.652 521.976 124.612C522.607 123.788 523.183 122.953 523.672 122.091C523.065 117.795 522.067 113.649 520.672 109.821C512.87 88.3843 476.946 82.2685 475.421 82.0199L474.867 81.9302L474.503 82.3531C473.752 83.2259 456.148 103.912 456.148 123.414C456.148 126.741 456.673 129.876 457.713 132.73C459.009 136.289 460.771 139.834 462.842 143.258C463.932 143.489 464.981 143.876 465.936 144.428C463.311 140.455 461.119 136.261 459.587 132.049C458.63 129.413 458.141 126.509 458.141 123.414Z" fill="#CC9A29"/>
<path d="M478.393 137.241C478.393 128.473 485.774 118.803 487.507 116.655C490.69 117.279 506.521 120.847 510.028 130.476C510.935 132.965 511.52 135.721 511.766 138.568C512.339 137.737 512.89 136.888 513.461 136.055C513.125 133.867 512.616 131.751 511.902 129.793C507.62 118.041 488.098 114.716 487.271 114.582L486.716 114.491L486.353 114.915C485.944 115.389 476.394 126.608 476.394 137.24C476.394 139.079 476.688 140.814 477.264 142.395C477.93 144.226 478.826 146.046 479.871 147.812C480.789 147.978 481.699 148.178 482.601 148.414C481.167 146.269 479.97 143.997 479.139 141.714C478.647 140.35 478.393 138.846 478.393 137.241Z" fill="#CC9A29"/>
<path d="M505.37 159.615C505.118 153.895 505.941 148.043 508.184 144.006C508.073 143.624 507.955 143.244 507.822 142.877C505.429 136.299 493.978 134.425 493.978 134.425C493.978 134.425 486.413 143.22 488.806 149.798C488.938 150.155 489.088 150.514 489.246 150.869C490.996 151.725 492.683 152.717 494.252 153.881C496.935 155.87 499.347 158.074 501.01 161.004C501.881 161.067 502.735 160.986 503.543 160.694C504.098 160.493 504.9 159.97 505.37 159.615Z" fill="#CC9A29"/>
<path d="M488.059 115.233L477.219 85.4871L475.346 86.1692L486.186 115.915L488.059 115.233Z" fill="#CC9A29"/>
<path d="M494.089 92.2212L492.094 92.1503L491.224 116.634L493.219 116.705L494.089 92.2212Z" fill="#CC9A29"/>
<path d="M503.453 96.519L501.5 96.1077L496.813 118.352L498.766 118.763L503.453 96.519Z" fill="#CC9A29"/>
<path d="M502.889 121.318L509.536 102.038L511.422 102.689L504.776 121.97L502.889 121.318Z" fill="#CC9A29"/>
<path d="M518.433 112.39L516.754 111.312L507.806 125.234L509.486 126.313L518.433 112.39Z" fill="#CC9A29"/>
<path d="M520.801 126.077L519.856 124.588L511.022 130.191L512.092 131.875L520.325 126.653C520.487 126.46 520.644 126.269 520.801 126.077Z" fill="#CC9A29"/>
<path d="M484.6 118.968L468.203 100.763L466.721 102.098L483.117 120.302L484.6 118.968Z" fill="#CC9A29"/>
<path d="M481.449 123.983L463.551 109.96L462.32 111.529L480.218 125.553L481.449 123.983Z" fill="#CC9A29"/>
<path d="M478.767 130.088L461.277 119.594L460.25 121.305L477.739 131.799L478.767 130.088Z" fill="#CC9A29"/>
<path d="M477.428 136.293L461.621 131.381L461.029 133.286L476.836 138.197L477.428 136.293Z" fill="#CC9A29"/>
<path d="M478.479 144.123L478.215 142.147L467.846 143.532L468.11 145.507L478.479 144.123Z" fill="#CC9A29"/>
<path d="M396.075 193.969C393.233 191.528 390.606 188.912 388.299 186.162C383.099 179.965 380.464 171.12 380.464 159.871C380.464 144.199 385.669 128.703 386.745 125.673C391.839 124.824 430.444 119.106 446.056 137.71C448.353 140.444 450.449 143.462 452.345 146.644C452.782 146.095 453.277 145.612 453.816 145.188C451.931 142.067 449.843 139.121 447.585 136.427C430.19 115.705 387.622 123.47 385.818 123.81L385.265 123.914L385.068 124.435C385.003 124.612 378.468 142.111 378.468 159.87C378.468 171.599 381.259 180.878 386.772 187.439C389.05 190.158 391.636 192.749 394.437 195.171C394.935 194.72 395.48 194.316 396.075 193.969Z" fill="#CC9A29"/>
<path d="M393.553 182.79C389.21 177.617 387.009 170.222 387.009 160.813C387.009 147.821 391.282 134.967 392.248 132.23C396.867 131.47 428.856 126.85 441.826 142.298C444.796 145.84 447.386 149.926 449.529 154.268C449.768 153.617 450.043 153.018 450.363 152.474C450.37 152.19 450.377 151.906 450.402 151.633C448.374 147.803 446.017 144.193 443.353 141.017C428.685 123.543 392.841 130.082 391.319 130.366L390.771 130.47L390.571 130.994C390.518 131.139 385.014 145.864 385.014 160.813C385.014 170.703 387.375 178.53 392.028 184.072C394.603 187.139 397.633 190.011 400.948 192.612C401.726 192.605 402.502 192.71 403.258 192.878C403.53 192.733 403.808 192.601 404.089 192.483C400.145 189.602 396.529 186.334 393.553 182.79Z" fill="#CC9A29"/>
<path d="M414.58 157.263L394.199 133.034L392.673 134.316L413.054 158.546L414.58 157.263Z" fill="#CC9A29"/>
<path d="M419.906 156.84L412.336 133.539L410.44 134.155L418.01 157.456L419.906 156.84Z" fill="#CC9A29"/>
<path d="M425.829 156.867L422.625 134.363L420.649 134.644L423.853 157.148L425.829 156.867Z" fill="#CC9A29"/>
<path d="M432.598 157.853L432.227 137.464L430.232 137.5L430.603 157.889L432.598 157.853Z" fill="#CC9A29"/>
<path d="M442.174 144.186L440.227 143.747L436.584 159.894L438.531 160.333L442.174 144.186Z" fill="#CC9A29"/>
<path d="M687.875 147.95C689.968 144.277 692.339 140.818 694.95 137.712C710.555 119.118 749.169 124.831 754.266 125.679C755.341 128.709 760.548 144.194 760.548 159.87C760.548 171.12 757.911 179.97 752.71 186.165C750.634 188.638 748.301 191.013 745.776 193.251C746.288 193.668 746.759 194.14 747.173 194.672C749.745 192.388 752.123 189.967 754.238 187.445C759.748 180.879 762.543 171.602 762.543 159.869C762.543 142.115 756.006 124.616 755.941 124.442L755.743 123.918L755.192 123.813C753.389 123.475 710.816 115.706 693.421 136.428C690.707 139.661 688.245 143.264 686.076 147.09C686.697 147.295 687.301 147.581 687.875 147.95Z" fill="#CC9A29"/>
<path d="M691.187 151.862C691.435 152.373 691.665 152.888 691.899 153.401C693.956 149.382 696.407 145.606 699.182 142.301C712.148 126.861 744.145 131.476 748.763 132.237C749.727 134.972 754 147.813 754 160.814C754 170.224 751.798 177.618 747.453 182.79C745 185.714 742.1 188.463 738.938 190.969C739.867 190.962 740.794 191.063 741.693 191.274C744.367 189.024 746.845 186.617 748.981 184.073C753.636 178.53 755.996 170.702 755.996 160.814C755.996 145.869 750.494 131.145 750.439 130.999L750.24 130.475L749.69 130.371C748.171 130.084 712.325 123.545 697.654 141.02C695.091 144.075 692.799 147.524 690.82 151.19C690.946 151.408 691.073 151.623 691.187 151.862Z" fill="#CC9A29"/>
<path d="M748.316 134.282L746.789 133.001L726.436 157.247L727.963 158.528L748.316 134.282Z" fill="#CC9A29"/>
<path d="M730.559 134.13L728.66 133.514L721.1 156.817L722.999 157.433L730.559 134.13Z" fill="#CC9A29"/>
<path d="M720.32 134.666L718.344 134.385L715.139 156.892L717.116 157.173L720.32 134.666Z" fill="#CC9A29"/>
<path d="M710.747 137.524L708.754 137.489L708.399 157.881L710.392 157.916L710.747 137.524Z" fill="#CC9A29"/>
<path d="M704.419 159.91L700.762 143.767L698.815 144.208L702.472 160.35L704.419 159.91Z" fill="#CC9A29"/>
<path d="M684.818 143.98C686.618 140.738 688.179 137.427 689.39 134.103C690.62 130.725 691.242 127.016 691.242 123.076C691.242 99.9269 670.324 75.3525 669.433 74.3169L669.069 73.8927L668.517 73.9824C666.705 74.2785 624.042 81.5348 614.788 106.958C613.572 110.294 612.617 113.836 611.903 117.499C612.55 117.664 613.184 117.909 613.79 118.24C614.491 114.552 615.443 110.986 616.662 107.637C624.965 84.8285 663.198 76.9954 668.283 76.0483C671.094 79.4612 689.247 102.29 689.247 123.075C689.247 126.781 688.664 130.261 687.514 133.419C686.292 136.775 684.7 140.118 682.86 143.387C683.537 143.52 684.194 143.716 684.818 143.98Z" fill="#CC9A29"/>
<path d="M676.59 144.274C677.012 144.065 677.443 143.877 677.894 143.726C680.09 140.163 681.938 136.453 683.291 132.734C684.331 129.878 684.859 126.742 684.859 123.415C684.859 103.914 667.252 83.2309 666.504 82.3581L666.138 81.9352L665.587 82.0249C664.061 82.2761 628.139 88.388 620.336 109.823C618.965 113.589 617.975 117.665 617.365 121.886C617.445 122.026 617.53 122.154 617.606 122.3C617.984 123.029 618.49 123.732 619.053 124.421C619.585 119.531 620.643 114.807 622.211 110.504C629.105 91.5612 660.751 84.9585 665.354 84.0947C667.891 87.182 682.866 106.151 682.866 123.415C682.866 126.51 682.379 129.415 681.42 132.05C679.856 136.348 677.607 140.623 674.91 144.666C675.01 144.638 675.114 144.624 675.212 144.592C675.683 144.45 676.14 144.351 676.59 144.274Z" fill="#CC9A29"/>
<path d="M661.866 141.723C661.017 144.049 659.797 146.352 658.339 148.519C659.367 148.082 660.404 147.666 661.45 147.304C662.349 145.711 663.132 144.068 663.739 142.406C664.314 140.823 664.605 139.091 664.605 137.253C664.605 126.622 655.055 115.394 654.647 114.92L654.282 114.496L653.729 114.587C652.9 114.721 633.373 118.049 629.102 129.799C628.531 131.364 628.101 133.036 627.772 134.756C628.331 135.593 628.865 136.441 629.394 137.291C629.694 134.906 630.208 132.594 630.976 130.481C634.472 120.863 650.31 117.286 653.494 116.661C655.228 118.808 662.608 128.471 662.608 137.253C662.611 138.857 662.359 140.363 661.866 141.723Z" fill="#CC9A29"/>
<path d="M651.441 151.547C651.724 150.97 651.988 150.391 652.2 149.804C654.594 143.223 647.027 134.433 647.027 134.433C647.027 134.433 635.573 136.305 633.184 142.881C633.058 143.224 632.95 143.579 632.845 143.937C633.007 144.333 633.202 144.705 633.35 145.107C635.096 149.905 635.73 154.684 635.412 159.397C636.018 159.963 636.696 160.42 637.467 160.7C638.53 161.086 639.668 161.126 640.828 160.908C643.474 156.949 647.049 153.805 651.441 151.547Z" fill="#CC9A29"/>
<path d="M665.635 86.174L663.762 85.4921L652.926 115.235L654.799 115.917L665.635 86.174Z" fill="#CC9A29"/>
<path d="M674.26 102.142L672.777 100.806L656.369 119.005L657.852 120.341L674.26 102.142Z" fill="#CC9A29"/>
<path d="M678.68 111.489L677.449 109.92L659.558 123.95L660.789 125.519L678.68 111.489Z" fill="#CC9A29"/>
<path d="M680.766 121.327L679.738 119.617L662.253 130.113L663.281 131.824L680.766 121.327Z" fill="#CC9A29"/>
<path d="M679.916 133.308L679.324 131.404L663.516 136.314L664.108 138.218L679.916 133.308Z" fill="#CC9A29"/>
<path d="M672.964 145.132L673.18 143.521L662.808 142.135L662.543 144.11L671.803 145.349C672.193 145.285 672.578 145.21 672.964 145.132Z" fill="#CC9A29"/>
<path d="M649.75 116.611L648.875 92.1278L646.883 92.199L647.758 116.682L649.75 116.611Z" fill="#CC9A29"/>
<path d="M644.2 118.331L639.492 96.0902L637.539 96.5033L642.247 118.744L644.2 118.331Z" fill="#CC9A29"/>
<path d="M638.124 121.34L631.461 102.063L629.574 102.714L636.237 121.992L638.124 121.34Z" fill="#CC9A29"/>
<path d="M633.196 125.228L624.23 111.317L622.554 112.397L631.52 126.308L633.196 125.228Z" fill="#CC9A29"/>
<path d="M621.789 127.356L628.915 131.876L629.984 130.192L621.154 124.591L620.333 125.88C620.805 126.374 621.295 126.865 621.789 127.356Z" fill="#CC9A29"/>
<path d="M630.977 192.245C630.977 181.591 633.928 170.376 639.07 161.468C650.047 142.463 685.112 142.674 686.599 142.692L687.113 142.699L687.375 143.142C687.826 143.901 698.422 161.935 698.422 179C698.422 184.662 697.228 189.6 694.873 193.675C689.463 203.044 680.424 211.743 670.69 216.945C660.011 222.652 650.133 223.486 642.875 219.297C635.314 214.934 630.977 205.074 630.977 192.245ZM686.058 144.528C681.64 144.575 650.401 145.518 640.66 162.387C635.673 171.021 632.813 181.906 632.813 192.246C632.813 204.403 636.815 213.685 643.795 217.713C650.483 221.574 659.729 220.727 669.828 215.33C679.273 210.282 688.043 201.844 693.287 192.76C695.478 188.964 696.59 184.338 696.59 179.002C696.59 163.886 687.701 147.437 686.058 144.528Z" fill="#CC9A29"/>
<path d="M636.272 190.457C636.272 181.483 638.758 172.034 643.089 164.53C652.35 148.494 681.886 148.669 683.14 148.685L683.654 148.694L683.917 149.136C684.296 149.774 693.215 164.956 693.215 179.329C693.215 184.112 692.206 188.283 690.214 191.731C685.657 199.621 678.042 206.947 669.843 211.33C660.828 216.15 652.479 216.852 646.337 213.305C639.941 209.613 636.272 201.285 636.272 190.457ZM682.599 150.521C678.601 150.574 652.76 151.455 644.68 165.448C640.503 172.681 638.107 181.794 638.107 190.457C638.107 200.613 641.441 208.363 647.255 211.717C652.829 214.934 660.544 214.222 668.98 209.713C676.89 205.486 684.234 198.42 688.627 190.813C690.456 187.649 691.382 183.785 691.382 179.329C691.382 166.804 684.077 153.152 682.599 150.521Z" fill="#CC9A29"/>
<path d="M571.435 159.01C571.435 155.574 571.718 152.229 572.276 149.068C576.089 127.458 609.11 115.665 610.515 115.174L611.001 115.004L611.399 115.331C612.408 116.155 636.098 135.772 636.098 156.025C636.098 157.461 635.976 158.884 635.734 160.254C633.855 170.908 628.335 182.171 620.97 190.389C612.887 199.404 603.89 203.565 595.635 202.111C580.487 199.441 571.435 178.099 571.435 159.01ZM610.633 117.081C606.496 118.637 577.465 130.208 574.081 149.387C573.544 152.443 573.269 155.68 573.269 159.01C573.269 177.345 581.754 197.803 595.954 200.306C603.562 201.648 611.96 197.691 619.603 189.167C626.752 181.193 632.106 170.267 633.929 159.936C634.152 158.67 634.264 157.355 634.264 156.025C634.264 138.034 613.763 119.765 610.633 117.081Z" fill="#CC9A29"/>
<path d="M576.392 158.951C576.392 156.053 576.632 153.235 577.101 150.572C580.316 132.338 608.132 122.405 609.315 121.99L609.8 121.82L610.198 122.145C611.047 122.84 630.996 139.358 630.996 156.438C630.996 157.652 630.891 158.856 630.686 160.017C629.105 168.99 624.455 178.477 618.25 185.399C611.426 193.012 603.823 196.525 596.837 195.292C584.04 193.039 576.392 175.043 576.392 158.951ZM609.432 123.9C605.692 125.315 581.712 134.98 578.905 150.89C578.453 153.449 578.225 156.16 578.225 158.951C578.225 174.289 585.306 191.401 597.156 193.486C603.493 194.605 610.501 191.297 616.884 184.175C622.871 177.497 627.354 168.348 628.88 159.697C629.065 158.644 629.16 157.544 629.16 156.437C629.162 141.509 612.258 126.331 609.432 123.9Z" fill="#CC9A29"/>
<path d="M586.502 169.819C586.502 168.239 586.633 166.702 586.889 165.249C588.654 155.226 603.797 149.815 604.44 149.589L604.927 149.419L605.324 149.744C605.786 150.122 616.637 159.108 616.637 168.47C616.637 169.144 616.579 169.817 616.465 170.464C614.679 180.577 606.146 191.195 597.82 189.726C590.47 188.434 586.502 178.506 586.502 169.819ZM604.562 151.504C601.991 152.505 590.111 157.538 588.696 165.568C587.162 174.284 590.88 186.643 598.139 187.923C605.328 189.19 613.056 179.234 614.661 170.146C614.756 169.605 614.805 169.041 614.805 168.471C614.805 160.929 606.491 153.197 604.562 151.504Z" fill="#CC9A29"/>
<path d="M610.087 125.417L608.281 125.099L603.832 150.313L605.638 150.631L610.087 125.417Z" fill="#CC9A29"/>
<path d="M619.172 136.937L617.617 135.965L607.103 152.763L608.659 153.735L619.172 136.937Z" fill="#CC9A29"/>
<path d="M624.005 143.789L622.641 142.565L610.362 156.254L611.726 157.478L624.005 143.789Z" fill="#CC9A29"/>
<path d="M627.038 151.328L625.836 149.944L613.383 160.762L614.586 162.145L627.038 151.328Z" fill="#CC9A29"/>
<path d="M601.733 151.808L597.582 132.433L595.787 132.817L599.937 152.192L601.733 151.808Z" fill="#CC9A29"/>
<path d="M597.503 153.992L590.637 136.933L588.935 137.618L595.801 154.677L597.503 153.992Z" fill="#CC9A29"/>
<path d="M593.084 157.208L585.09 142.778L583.485 143.667L591.48 158.097L593.084 157.208Z" fill="#CC9A29"/>
<path d="M504.91 156.025C504.91 135.771 528.601 116.156 529.612 115.331L530.009 115.004L530.495 115.174C531.899 115.665 564.921 127.458 568.733 149.068C569.291 152.231 569.574 155.575 569.574 159.013C569.574 178.101 560.522 199.441 545.374 202.111C537.118 203.565 528.121 199.404 520.039 190.389C512.673 182.171 507.154 170.908 505.273 160.254C505.032 158.883 504.91 157.461 504.91 156.025ZM530.376 117.081C527.248 119.764 506.742 138.03 506.742 156.025C506.742 157.354 506.855 158.67 507.078 159.936C508.902 170.267 514.257 181.193 521.404 189.164C529.048 197.691 537.447 201.648 545.055 200.306C559.253 197.803 567.738 177.345 567.738 159.013C567.738 155.681 567.464 152.443 566.927 149.387C563.54 130.196 534.513 118.637 530.376 117.081Z" fill="#CC9A29"/>
<path d="M510.014 156.439C510.014 139.358 529.963 122.84 530.812 122.145L531.211 121.82L531.697 121.99C532.88 122.404 560.696 132.335 563.907 150.572C564.379 153.235 564.617 156.053 564.617 158.951C564.617 175.044 556.969 193.04 544.172 195.291C537.189 196.523 529.583 193.012 522.759 185.398C516.555 178.477 511.904 168.989 510.323 160.016C510.117 158.856 510.014 157.654 510.014 156.439ZM531.579 123.9C528.753 126.33 511.846 141.509 511.846 156.439C511.846 157.548 511.94 158.645 512.126 159.698C513.651 168.349 518.137 177.498 524.123 184.177C530.507 191.298 537.514 194.606 543.854 193.487C555.702 191.401 562.783 174.29 562.783 158.952C562.783 156.161 562.554 153.451 562.103 150.891C559.297 134.967 535.318 125.313 531.579 123.9Z" fill="#CC9A29"/>
<path d="M524.371 168.468C524.371 159.108 535.218 150.125 535.678 149.747L536.078 149.421L536.564 149.592C537.209 149.817 552.352 155.227 554.12 165.252C555.787 174.699 551.873 188.2 543.191 189.73C534.859 191.199 526.328 180.579 524.543 170.468C524.428 169.817 524.371 169.145 524.371 168.468ZM536.446 151.504C534.517 153.196 526.205 160.924 526.205 168.467C526.205 169.039 526.252 169.604 526.348 170.146C527.951 179.234 535.678 189.19 542.872 187.923C550.127 186.645 553.846 174.283 552.315 165.568C550.893 157.527 539.017 152.504 536.446 151.504Z" fill="#CC9A29"/>
<path d="M537.18 150.293L532.719 125.081L530.914 125.4L535.375 150.612L537.18 150.293Z" fill="#CC9A29"/>
<path d="M545.22 132.805L543.426 132.423L539.293 151.804L541.087 152.186L545.22 132.805Z" fill="#CC9A29"/>
<path d="M552.101 137.639L550.398 136.956L543.544 154.018L545.246 154.701L552.101 137.639Z" fill="#CC9A29"/>
<path d="M557.571 143.661L555.969 142.773L547.969 157.197L549.572 158.085L557.571 143.661Z" fill="#CC9A29"/>
<path d="M521.822 136.959L523.376 135.985L533.887 152.782L532.334 153.756L521.822 136.959Z" fill="#CC9A29"/>
<path d="M530.627 156.279L518.355 142.583L516.989 143.806L529.261 157.503L530.627 156.279Z" fill="#CC9A29"/>
<path d="M527.617 160.763L515.172 149.932L513.968 151.314L526.413 162.145L527.617 160.763Z" fill="#CC9A29"/>
<path d="M442.588 178.999C442.588 161.932 453.185 143.897 453.635 143.14L453.898 142.696L454.41 142.69C455.896 142.671 490.962 142.462 501.938 161.467C507.081 170.374 510.031 181.59 510.031 192.245C510.031 205.073 505.696 214.933 498.134 219.296C490.874 223.486 480.997 222.651 470.319 216.941C460.583 211.738 451.543 203.039 446.134 193.674C443.779 189.599 442.588 184.661 442.588 178.999ZM454.953 144.524C453.31 147.436 444.42 163.895 444.42 178.999C444.42 184.334 445.53 188.963 447.722 192.757C452.967 201.84 461.737 210.278 471.183 215.324C481.284 220.723 490.528 221.568 497.218 217.709C504.197 213.681 508.198 204.4 508.198 192.244C508.198 181.904 505.338 171.017 500.348 162.383C490.608 145.517 459.372 144.574 454.953 144.524Z" fill="#CC9A29"/>
<path d="M447.797 179.329C447.797 164.953 456.715 149.771 457.094 149.133L457.357 148.691L457.871 148.682C459.125 148.667 488.662 148.49 497.919 164.53C502.252 172.031 504.738 181.48 504.738 190.454C504.738 201.282 501.069 209.61 494.672 213.301C488.529 216.848 480.182 216.146 471.165 211.329C462.967 206.944 455.351 199.617 450.794 191.727C448.806 188.282 447.797 184.11 447.797 179.329ZM458.413 150.52C456.938 153.152 449.629 166.802 449.629 179.329C449.629 183.785 450.557 187.647 452.384 190.81C456.776 198.419 464.121 205.483 472.029 209.71C480.465 214.221 488.181 214.932 493.754 211.714C499.568 208.36 502.904 200.611 502.904 190.454C502.904 181.792 500.508 172.679 496.331 165.447C488.247 151.443 462.413 150.57 458.413 150.52Z" fill="#CC9A29"/>
<path d="M761.325 151.877C761.324 146.541 764.613 141.861 770.136 139.353C782.018 133.957 809.224 142.387 810.377 142.746L810.936 142.922L811.012 143.504C811.169 144.701 814.746 172.949 807.367 183.708C803.921 188.731 798.71 191.158 793.426 190.194C788.548 189.308 784.673 185.792 783.555 181.243C782.587 177.317 783.796 173.565 786.861 170.946C790.027 168.246 794.592 167.35 797.965 168.768C801.652 170.318 802.795 174.604 801.999 177.863C801.159 181.298 798.447 183.339 795.092 183.066L795.24 181.24C798.92 181.539 799.98 178.396 800.218 177.426C800.833 174.913 800.004 171.615 797.253 170.457C794.493 169.298 790.71 170.071 788.052 172.342C786.57 173.606 784.252 176.394 785.334 180.807C786.266 184.596 789.65 187.645 793.755 188.391C798.375 189.233 802.784 187.147 805.853 182.672C812.283 173.299 809.739 148.466 809.264 144.326C805.272 143.14 781.241 136.322 770.897 141.021C765.954 143.268 763.08 147.3 763.16 151.94C763.183 156.111 765.599 159.972 769.171 161.548C773.336 163.386 776.48 161.58 777.982 160.342C780.679 158.12 782.097 154.521 781.435 151.613C780.772 148.704 777.669 147.314 775.086 147.483C774.089 147.547 770.809 148.044 770.466 151.722L768.64 151.551C768.954 148.198 771.439 145.885 774.967 145.653C778.308 145.435 782.337 147.307 783.223 151.203C784.038 154.77 782.361 159.108 779.15 161.755C776.039 164.32 772.131 164.856 768.434 163.223C764.144 161.33 761.356 156.904 761.329 151.948C761.325 151.925 761.325 151.902 761.325 151.877Z" fill="#CC9A29"/>
<path d="M770.184 148.649C768.341 150.195 768.102 152.941 769.648 154.783C771.196 156.623 773.942 156.866 775.784 155.32C777.626 153.775 777.867 151.029 776.321 149.188C774.775 147.345 772.026 147.105 770.184 148.649Z" fill="#CC9A29"/>
<path d="M790.306 145.931C791.231 145.155 792.609 145.274 793.386 146.2C794.162 147.127 794.044 148.506 793.118 149.283C792.191 150.057 790.812 149.939 790.034 149.012C789.258 148.086 789.38 146.708 790.306 145.931Z" fill="#CC9A29"/>
<path d="M782.924 157.095C782.924 152.7 783.411 147.642 785.334 144.837C787.168 142.161 789.958 140.873 792.795 141.388C795.423 141.867 797.51 143.765 798.114 146.226C798.641 148.371 797.983 150.421 796.305 151.855C794.563 153.34 792.132 153.808 790.257 153.02C788.15 152.134 787.504 149.79 787.962 147.927C788.44 145.971 789.99 144.807 791.913 144.962L791.767 146.788C790.316 146.672 789.871 147.848 789.744 148.361C789.484 149.434 789.821 150.846 790.968 151.329C792.2 151.848 793.905 151.489 795.114 150.459C795.778 149.893 796.82 148.648 796.333 146.66C795.908 144.93 794.354 143.535 792.465 143.191C790.33 142.801 788.281 143.779 786.846 145.871C783.835 150.267 784.879 161.792 785.177 164.526C787.821 165.295 798.993 168.324 803.841 166.12C806.152 165.07 807.47 163.208 807.46 161.056C807.451 159.139 806.346 157.364 804.712 156.643C802.846 155.82 801.436 156.63 800.761 157.186C799.536 158.196 798.893 159.812 799.183 161.118C799.46 162.332 800.788 162.911 801.898 162.837C802.423 162.803 803.659 162.567 803.795 161.121L805.62 161.288C805.441 163.209 804.028 164.536 802.019 164.667C800.106 164.792 797.902 163.754 797.397 161.527C796.944 159.538 797.828 157.23 799.596 155.772C801.298 154.37 803.432 154.077 805.453 154.969C807.774 155.99 809.281 158.378 809.297 161.05C809.297 161.06 809.297 161.073 809.297 161.085C809.297 163.95 807.544 166.456 804.602 167.789C798.478 170.572 784.649 166.289 784.063 166.108L783.504 165.933L783.429 165.35C783.388 165.05 782.925 161.388 782.924 157.095Z" fill="#CC9A29"/>
<path d="M728.866 113.988C727.663 116.071 724.998 116.783 722.916 115.581C720.833 114.379 720.117 111.713 721.322 109.632C722.525 107.549 725.189 106.836 727.272 108.039C729.354 109.241 730.067 111.904 728.866 113.988Z" fill="#CC9A29"/>
<path d="M683.112 93.9471C683.112 90.2356 684.758 86.5254 687.87 83.4714C697.189 74.3375 725.638 72.9572 726.846 72.9034L727.432 72.8765L727.7 73.3955C728.256 74.4669 741.28 99.7796 738.031 112.422C736.511 118.32 732.443 122.38 727.15 123.285C722.261 124.118 717.418 122.141 714.809 118.249C712.559 114.888 712.408 110.95 714.395 107.442C716.445 103.823 720.428 101.419 724.083 101.598C728.079 101.794 730.621 105.437 730.985 108.762C731.367 112.279 729.523 115.125 726.275 116.015L725.791 114.246C729.349 113.27 729.274 109.959 729.164 108.963C728.88 106.39 726.974 103.577 723.993 103.427C721.002 103.281 717.711 105.303 715.991 108.344C715.033 110.039 713.798 113.449 716.335 117.227C718.506 120.471 722.73 122.178 726.843 121.477C731.471 120.686 734.903 117.221 736.254 111.964C739.088 100.969 728.202 78.4873 726.339 74.7668C722.182 75.0142 697.269 76.8276 689.155 84.7811C685.281 88.581 683.991 93.2819 685.622 97.6842C687.069 101.596 690.66 104.396 694.559 104.656C699.099 104.958 701.436 102.188 702.425 100.513C704.2 97.4983 704.303 93.6408 702.681 91.1301C701.066 88.6208 697.674 88.3773 695.302 89.4179C694.388 89.8204 691.477 91.4159 692.411 94.9813L690.637 95.4453C689.782 92.1823 691.327 89.1629 694.565 87.7391C697.63 86.3908 702.056 86.7753 704.224 90.1356C706.206 93.2089 706.117 97.8572 704.007 101.439C701.96 104.915 698.472 106.753 694.438 106.486C689.76 106.175 685.626 102.968 683.903 98.3211C683.371 96.8922 683.112 95.4183 683.112 93.9471Z" fill="#CC9A29"/>
<path d="M691.099 92.1904C689.896 94.2717 690.609 96.9349 692.693 98.1383C694.775 99.3417 697.441 98.6266 698.642 96.5453C699.844 94.4627 699.133 91.8008 697.048 90.5974C694.966 89.394 692.302 90.1079 691.099 92.1904Z" fill="#CC9A29"/>
<path d="M709.074 82.7584C709.678 81.7139 711.015 81.3537 712.061 81.9587C713.107 82.5623 713.468 83.899 712.863 84.946C712.259 85.9918 710.92 86.3506 709.873 85.747C708.828 85.1408 708.472 83.8054 709.074 82.7584Z" fill="#CC9A29"/>
<path d="M703.759 85.8346C703.759 84.9695 703.842 84.1583 704.031 83.4291C704.838 80.2879 707.019 78.122 709.86 77.6388C712.492 77.189 715.104 78.2591 716.515 80.3635C717.745 82.2013 717.827 84.3492 716.74 86.2729C715.612 88.2658 713.487 89.5358 711.453 89.4333C709.173 89.3231 707.768 87.3379 707.556 85.4347C707.328 83.447 708.393 81.8104 710.255 81.2965L710.742 83.0664C709.342 83.4509 709.32 84.7055 709.379 85.2335C709.501 86.3357 710.301 87.5429 711.543 87.6045C712.88 87.6698 714.361 86.7497 715.143 85.3681C715.572 84.6107 716.129 83.083 714.989 81.3849C713.998 79.9034 712.06 79.1229 710.168 79.4459C708.027 79.8086 706.437 81.4298 705.806 83.8879C704.475 89.0347 709.402 99.5168 710.619 101.985C713.365 101.804 724.902 100.829 728.703 97.101C730.518 95.3222 731.127 93.1332 730.371 91.107C729.705 89.3064 728.06 88.0159 726.28 87.8967C724.243 87.7595 723.195 89.0027 722.753 89.755C721.949 91.1224 721.888 92.8641 722.614 93.9945C723.289 95.0402 724.736 95.1287 725.754 94.6801C726.234 94.4686 727.314 93.8227 726.945 92.4181L728.719 91.9542C729.206 93.8176 728.335 95.5465 726.491 96.3577C724.736 97.1318 722.312 96.9075 721.072 94.989C719.97 93.2768 720.008 90.8008 721.171 88.8271C722.29 86.9278 724.195 85.9205 726.401 86.0678C728.932 86.237 731.164 87.9646 732.091 90.4727C733.09 93.1794 732.303 96.1424 729.986 98.4108C725.184 103.121 710.724 103.826 710.112 103.851L709.527 103.877L709.257 103.358C709.007 102.875 703.759 92.6744 703.759 85.8346Z" fill="#CC9A29"/>
<path d="M728.046 93.7082C728.651 92.6611 728.291 91.3231 727.244 90.7195C726.196 90.1159 724.859 90.4722 724.254 91.5192C723.651 92.5637 724.009 93.903 725.057 94.5066C726.1 95.1102 727.441 94.7514 728.046 93.7082Z" fill="#CC9A29"/>
<path d="M708.282 106.035C698.046 103.618 692.526 133.317 692.526 133.317C692.526 133.317 715.494 113.686 708.282 106.035Z" fill="#CC9A29"/>
<path d="M640.414 73.7516C639.996 76.12 637.736 77.6989 635.367 77.2837C632.998 76.8646 631.417 74.6038 631.835 72.2367C632.251 69.8697 634.51 68.2869 636.881 68.706C639.247 69.1225 640.831 71.3832 640.414 73.7516Z" fill="#CC9A29"/>
<path d="M589.786 66.0672C589.786 63.7962 590.339 61.424 591.453 59.0928C597.083 47.3214 623.346 36.2972 624.462 35.8346L625.003 35.6103L625.435 36.0063C626.323 36.8227 647.227 56.1644 648.493 69.1456C649.076 75.2088 646.649 80.4159 641.983 83.0739C637.675 85.5269 632.447 85.3269 628.665 82.5613C625.401 80.1749 623.914 76.525 624.578 72.5482C625.265 68.4459 628.186 64.8254 631.683 63.7437C635.505 62.5621 639.139 65.115 640.622 68.1178C642.186 71.2948 641.422 74.5975 638.676 76.5416L637.616 75.046C640.629 72.9122 639.419 69.821 638.976 68.929C637.832 66.6081 635.077 64.6152 632.224 65.4957C629.365 66.3799 626.963 69.4045 626.387 72.8507C626.068 74.7679 626.077 78.3923 629.749 81.0798C632.9 83.3853 637.451 83.5455 641.076 81.4809C645.156 79.1561 647.195 74.6949 646.667 69.3238C645.566 58.0189 627.646 40.6213 624.623 37.7582C620.801 39.414 598.01 49.6347 593.106 59.8848C590.763 64.7805 591.162 69.639 594.199 73.2172C596.897 76.3981 601.232 77.8027 604.984 76.7147C609.356 75.4459 610.604 72.0433 610.958 70.1273C611.599 66.6837 610.372 63.0311 607.989 61.2241C605.612 59.4222 602.341 60.3488 600.469 62.1404C599.747 62.8312 597.555 65.3137 599.655 68.3561L598.148 69.3994C596.234 66.6273 596.646 63.2618 599.202 60.8166C601.621 58.5033 605.911 57.3499 609.098 59.7657C612.013 61.9777 613.52 66.3697 612.761 70.4656C612.027 74.4296 609.378 77.3503 605.496 78.4781C600.992 79.7854 596.01 78.1847 592.803 74.4052C590.801 72.0471 589.786 69.1494 589.786 66.0672Z" fill="#CC9A29"/>
<path d="M597.467 66.179C597.048 68.5486 598.63 70.8055 601.001 71.2233C603.37 71.6411 605.629 70.0596 606.047 67.6925C606.463 65.3241 604.884 63.0673 602.513 62.6482C600.144 62.2304 597.885 63.8119 597.467 66.179Z" fill="#CC9A29"/>
<path d="M611.134 51.1688C611.342 49.9795 612.477 49.1849 613.668 49.3964C614.859 49.6053 615.652 50.7395 615.443 51.9301C615.233 53.1194 614.097 53.914 612.906 53.7051C611.718 53.4923 610.925 52.3607 611.134 51.1688Z" fill="#CC9A29"/>
<path d="M606.575 52.5852C606.575 49.7632 607.859 47.3755 610.118 46.0901C612.437 44.7688 615.258 44.8816 617.302 46.3785C619.084 47.6831 619.892 49.6812 619.537 51.8509C619.157 54.109 617.597 56.0327 615.651 56.6312C613.47 57.3053 611.471 55.9225 610.621 54.2051C609.727 52.4019 610.167 50.5116 611.741 49.3953L612.803 50.8871C611.617 51.7304 612.03 52.9223 612.265 53.3926C612.756 54.3872 613.922 55.2471 615.11 54.8793C616.39 54.4832 617.464 53.1145 617.728 51.5459C617.87 50.6846 617.868 49.0596 616.22 47.8562C614.781 46.8027 612.694 46.7309 611.026 47.6819C609.139 48.7571 608.205 50.8397 608.445 53.3465C608.962 58.6446 617.173 66.8057 619.16 68.7076C621.679 67.599 632.186 62.738 634.482 57.9346C635.58 55.6469 635.404 53.3875 634 51.733C632.759 50.2681 630.771 49.6184 629.056 50.1156C627.097 50.6859 626.537 52.211 626.379 53.0684C626.089 54.6268 626.63 56.2916 627.698 57.099C628.692 57.8513 630.08 57.4399 630.883 56.6709C631.263 56.3057 632.062 55.3381 631.229 54.1372L632.738 53.094C633.834 54.6794 633.606 56.603 632.152 57.9923C630.767 59.32 628.411 59.939 626.59 58.5574C624.967 57.3258 624.16 54.9818 624.575 52.7339C624.976 50.5667 626.424 48.9699 628.546 48.3534C630.981 47.6473 633.672 48.5072 635.4 50.5462C637.263 52.7467 637.541 55.8007 636.138 58.724C633.235 64.7949 619.889 70.398 619.322 70.6351L618.782 70.8594L618.35 70.4634C617.899 70.0481 607.272 60.2158 606.622 53.5234C606.589 53.2068 606.575 52.8941 606.575 52.5852Z" fill="#CC9A29"/>
<path d="M632.704 54.9704C632.916 53.7811 632.118 52.6455 630.929 52.4367C629.739 52.229 628.604 53.0198 628.393 54.2117C628.184 55.401 628.978 56.5365 630.167 56.7454C631.359 56.953 632.495 56.161 632.704 54.9704Z" fill="#CC9A29"/>
<path d="M618.35 73.3145C607.906 74.5448 612.878 104.339 612.878 104.339C612.878 104.339 627.75 78.0397 618.35 73.3145Z" fill="#CC9A29"/>
<path d="M543.531 66.1799C543.949 68.5508 542.367 70.8077 539.999 71.2242C537.63 71.6407 535.369 70.0592 534.953 67.6921C534.534 65.3238 536.114 63.0643 538.483 62.6478C540.853 62.2313 543.114 63.8128 543.531 66.1799Z" fill="#CC9A29"/>
<path d="M492.419 70.9194C492.419 70.3376 492.449 69.7467 492.508 69.1444C493.77 56.1581 514.679 36.8189 515.568 36.0038L515.998 35.6078L516.54 35.832C517.655 36.2947 543.916 47.3241 549.546 59.089C552.173 64.5819 551.668 70.3081 548.194 74.4027C544.985 78.1809 540.003 79.779 535.505 78.4731C531.623 77.3453 528.974 74.4258 528.237 70.4606C527.483 66.3775 528.986 61.9726 531.901 59.7593C535.088 57.3448 539.379 58.4995 541.798 60.8141C544.352 63.2529 544.768 66.621 542.852 69.3943L541.344 68.3511C543.438 65.3189 541.251 62.8262 540.529 62.1354C538.658 60.3476 535.385 59.4146 533.011 61.2178C530.627 63.0261 529.405 66.6915 530.042 70.1248C530.396 72.0382 531.644 75.4396 536.016 76.7096C539.824 77.8156 544.054 76.4417 546.794 73.2134C549.835 69.6352 550.234 64.7755 547.89 59.8772C542.986 49.6322 520.195 39.409 516.377 37.7532C513.354 40.615 495.431 58.0112 494.331 69.3213C493.81 74.7078 495.842 79.151 499.919 81.4746C503.543 83.5392 508.098 83.379 511.25 81.0734C514.923 78.3872 514.935 74.7577 514.609 72.843C514.031 69.3968 511.632 66.3749 508.774 65.4906C505.922 64.6088 503.167 66.6004 502.02 68.9227C501.582 69.8147 500.375 72.9059 503.383 75.0397L502.321 76.5353C499.575 74.586 498.818 71.2769 500.378 68.1089C501.859 65.1087 505.494 62.5583 509.317 63.7399C512.812 64.819 515.732 68.4395 516.419 72.5406C517.082 76.5199 515.595 80.1673 512.332 82.5537C508.549 85.3193 503.319 85.5218 499.011 83.0663C494.81 80.6774 492.422 76.2136 492.419 70.9194Z" fill="#CC9A29"/>
<path d="M500.588 73.7475C501.004 76.1184 503.263 77.6973 505.635 77.2808C508.004 76.863 509.583 74.6023 509.168 72.2365C508.75 69.8694 506.491 68.2879 504.122 68.7057C501.752 69.1209 500.17 71.3817 500.588 73.7475Z" fill="#CC9A29"/>
<path d="M508.289 54.9694C508.079 53.7813 508.874 52.6458 510.065 52.4369C511.255 52.228 512.389 53.0214 512.6 54.2107C512.808 55.4013 512.012 56.5355 510.821 56.7456C509.632 56.9533 508.498 56.1613 508.289 54.9694Z" fill="#CC9A29"/>
<path d="M503.974 55.0257C503.974 53.3724 504.521 51.8166 505.602 50.5452C507.33 48.5101 510.016 47.6514 512.449 48.3601C514.571 48.9753 516.019 50.5708 516.421 52.7367C516.839 54.9949 516.028 57.3312 514.408 58.559C512.587 59.9393 510.236 59.3241 508.852 58.0002C507.393 56.6072 507.159 54.6835 508.254 53.0956L509.764 54.1375C508.94 55.3332 509.736 56.3124 510.116 56.675C510.918 57.4427 512.308 57.8503 513.299 57.0993C514.367 56.2906 514.907 54.6322 514.617 53.0725C514.458 52.2139 513.899 50.6901 511.936 50.121C510.222 49.6212 508.239 50.2697 506.997 51.7333C505.593 53.3865 505.417 55.646 506.511 57.9374C508.807 62.7395 519.315 67.6006 521.835 68.7092C523.823 66.8073 532.032 58.6462 532.548 53.3481C532.792 50.8272 531.858 48.7587 529.973 47.686C528.303 46.7325 526.215 46.8017 524.77 47.8565C523.128 49.0599 523.12 50.6785 523.267 51.5474C523.529 53.1161 524.606 54.4861 525.886 54.8834C527.077 55.2499 528.241 54.3874 528.732 53.3904C528.966 52.9174 529.379 51.732 528.191 50.8938L529.252 49.3969C530.823 50.5093 531.266 52.3997 530.376 54.2003C529.529 55.9202 527.529 57.3095 525.343 56.6341C523.397 56.0317 521.837 54.1081 521.456 51.8512C521.091 49.6725 521.908 47.6809 523.688 46.3762C525.736 44.8806 528.56 44.7691 530.88 46.093C533.383 47.5194 534.688 50.2979 534.371 53.5249C533.721 60.2212 523.097 70.0523 522.646 70.4675L522.214 70.8635L521.672 70.6393C521.106 70.4035 507.758 64.7965 504.854 58.7307C504.269 57.494 503.974 56.2342 503.974 55.0257Z" fill="#CC9A29"/>
<path d="M529.866 51.1698C529.654 49.9779 528.518 49.1833 527.329 49.3935C526.139 49.6063 525.343 50.7379 525.554 51.9285C525.763 53.1178 526.899 53.915 528.088 53.701C529.277 53.4908 530.072 52.3591 529.866 51.1698Z" fill="#CC9A29"/>
<path d="M522.648 73.312C513.253 78.0385 528.122 104.337 528.122 104.337C528.122 104.337 533.095 74.5411 522.648 73.312Z" fill="#CC9A29"/>
<path d="M449.9 92.1924C451.103 94.2763 450.389 96.9394 448.304 98.1415C446.222 99.3436 443.556 98.6285 442.356 96.5472C441.152 94.4647 441.865 91.8015 443.949 90.5994C446.031 89.3959 448.695 90.1124 449.9 92.1924Z" fill="#CC9A29"/>
<path d="M402.447 107.809C402.447 94.4776 412.801 74.3515 413.299 73.398L413.566 72.879L414.153 72.9059C415.359 72.9597 443.808 74.3438 453.125 83.4726C457.474 87.7403 458.958 93.2934 457.094 98.3262C455.373 102.973 451.24 106.178 446.563 106.49C442.529 106.758 439.043 104.919 436.996 101.447C434.883 97.861 434.793 93.2101 436.774 90.1381C438.943 86.7778 443.371 86.3959 446.434 87.7441C449.672 89.1692 451.213 92.2002 450.361 95.4503L448.585 94.9864C449.526 91.403 446.608 89.8254 445.693 89.423C443.324 88.3811 439.933 88.6259 438.315 91.1326C436.691 93.6497 436.798 97.5085 438.571 100.518C439.561 102.194 441.897 104.965 446.439 104.661C450.395 104.397 453.901 101.662 455.374 97.6905C457.005 93.2818 455.714 88.5848 451.839 84.7836C443.726 76.8327 418.813 75.0192 414.658 74.7706C412.794 78.4911 401.904 100.961 404.741 111.967C406.096 117.224 409.525 120.69 414.152 121.481C418.264 122.182 422.49 120.475 424.66 117.231C427.195 113.453 425.959 110.041 425.004 108.348C423.283 105.307 419.993 103.285 417.004 103.431C414.024 103.581 412.115 106.395 411.834 108.967C411.724 109.963 411.648 113.273 415.207 114.25L414.721 116.019C411.475 115.129 409.619 112.304 410.012 108.766C410.375 105.44 412.921 101.799 416.916 101.602C420.568 101.421 424.551 103.823 426.601 107.443C428.587 110.956 428.437 114.891 426.186 118.252C423.578 122.144 418.734 124.122 413.847 123.289C408.552 122.384 404.484 118.324 402.969 112.426C402.606 111.025 402.447 109.468 402.447 107.809Z" fill="#CC9A29"/>
<path d="M412.134 113.989C413.338 116.073 415.998 116.786 418.082 115.582C420.167 114.382 420.881 111.716 419.676 109.635C418.473 107.552 415.812 106.838 413.727 108.042C411.645 109.244 410.929 111.907 412.134 113.989Z" fill="#CC9A29"/>
<path d="M412.95 93.7077C412.343 92.662 412.701 91.324 413.751 90.7217C414.797 90.118 416.133 90.4756 416.738 91.5201C417.342 92.5658 416.984 93.9064 415.935 94.51C414.892 95.1111 413.556 94.7522 412.95 93.7077Z" fill="#CC9A29"/>
<path d="M408.482 92.8299C408.482 92.0379 408.62 91.2421 408.907 90.468C409.834 87.9651 412.069 86.2375 414.594 86.0709C416.798 85.9222 418.704 86.927 419.824 88.8263C420.988 90.7974 421.03 93.2759 419.925 94.9843C418.685 96.9054 416.263 97.131 414.506 96.3607C412.662 95.5495 411.783 93.8206 412.274 91.9546L414.047 92.416C413.693 93.8296 414.766 94.4704 415.247 94.6819C416.263 95.1278 417.71 95.0381 418.383 93.9911C419.107 92.8658 419.049 91.1242 418.244 89.7554C417.801 89.0044 416.752 87.7613 414.716 87.8997C412.937 88.0163 411.293 89.3056 410.625 91.1024C409.879 93.1324 410.48 95.3239 412.292 97.1002C416.098 100.83 427.63 101.804 430.378 101.984C431.594 99.516 436.531 89.0505 435.188 83.8857C434.556 81.4289 432.97 79.8103 430.832 79.445C428.94 79.1221 426.999 79.8987 426.003 81.3841C424.868 83.0822 425.418 84.6086 425.85 85.366C426.634 86.7488 428.117 87.6716 429.454 87.6049C430.696 87.5421 431.497 86.3361 431.618 85.2288C431.672 84.7162 431.658 83.45 430.255 83.0655L430.741 81.2982C432.6 81.807 433.655 83.4462 433.44 85.4288C433.231 87.3345 431.827 89.3223 429.544 89.435C427.51 89.535 425.384 88.2649 424.254 86.2695C423.167 84.3458 423.253 82.2005 424.48 80.3627C425.894 78.257 428.507 77.1882 431.141 77.6393C433.982 78.125 436.158 80.287 436.965 83.4282C438.647 89.9348 432.022 102.812 431.74 103.357L431.471 103.876L430.886 103.85C430.273 103.823 415.816 103.119 411.011 98.4113C409.356 96.7901 408.482 94.8126 408.482 92.8299Z" fill="#CC9A29"/>
<path d="M431.924 82.7585C431.317 81.7127 429.977 81.3539 428.93 81.9588C427.886 82.5663 427.526 83.8991 428.13 84.9462C428.735 85.992 430.074 86.3521 431.118 85.7472C432.166 85.141 432.525 83.8043 431.924 82.7585Z" fill="#CC9A29"/>
<path d="M432.716 106.035C425.504 113.69 448.473 133.317 448.473 133.317C448.473 133.317 442.955 103.615 432.716 106.035Z" fill="#CC9A29"/>
<path d="M370.816 148.648C372.658 150.195 372.899 152.944 371.35 154.783C369.805 156.624 367.057 156.865 365.217 155.319C363.374 153.773 363.133 151.026 364.679 149.187C366.223 147.344 368.973 147.107 370.816 148.648Z" fill="#CC9A29"/>
<path d="M328.983 159.91C328.983 151.397 329.912 144.099 329.988 143.503L330.066 142.921L330.624 142.745C331.776 142.385 358.986 133.957 370.863 139.353C376.387 141.864 379.676 146.543 379.676 151.88C379.676 151.905 379.676 151.929 379.676 151.952C379.649 156.907 376.861 161.333 372.575 163.225C368.872 164.856 364.964 164.321 361.852 161.755C358.646 159.11 356.963 154.784 357.782 151.204C358.668 147.306 362.697 145.437 366.039 145.654C369.567 145.886 372.052 148.198 372.363 151.552L370.536 151.724C370.194 148.048 366.915 147.549 365.919 147.485C363.334 147.314 360.232 148.703 359.566 151.614C358.905 154.523 360.32 158.118 363.017 160.343C364.52 161.583 367.665 163.388 371.831 161.55C375.458 159.949 377.817 156.18 377.841 151.944C377.841 151.924 377.841 151.903 377.841 151.88C377.841 147.214 375.025 143.259 370.102 141.023C359.762 136.326 335.726 143.139 331.737 144.327C331.26 148.465 328.716 173.306 335.147 182.673C338.216 187.148 342.626 189.235 347.244 188.395C351.349 187.65 354.734 184.599 355.668 180.808C356.757 176.383 354.428 173.608 352.947 172.342C350.291 170.074 346.508 169.301 343.75 170.46C340.997 171.617 340.161 174.92 340.782 177.43C341.02 178.4 342.081 181.541 345.759 181.243L345.909 183.069C342.553 183.343 339.841 181.301 339 177.866C338.204 174.613 339.352 170.321 343.037 168.77C346.408 167.354 350.973 168.249 354.136 170.947C357.204 173.565 358.418 177.317 357.445 181.245C356.325 185.798 352.449 189.312 347.569 190.197C342.289 191.16 337.076 188.732 333.634 183.711C329.928 178.304 328.985 168.492 328.983 159.91Z" fill="#CC9A29"/>
<path d="M331.703 161.087C331.703 161.071 331.703 161.06 331.703 161.046C331.719 158.376 333.226 155.991 335.545 154.97C337.565 154.078 339.7 154.37 341.401 155.773C343.172 157.23 344.048 159.535 343.601 161.525C343.098 163.75 340.897 164.79 338.986 164.666C336.974 164.538 335.558 163.212 335.376 161.292L337.203 161.12C337.337 162.568 338.577 162.804 339.102 162.839C340.213 162.909 341.537 162.33 341.814 161.117C342.107 159.804 341.463 158.199 340.234 157.187C339.564 156.629 338.15 155.821 336.286 156.646C334.653 157.366 333.546 159.136 333.535 161.055C333.535 161.064 333.535 161.075 333.535 161.085C333.535 163.242 334.851 165.075 337.154 166.121C342.004 168.325 353.175 165.293 355.818 164.525C356.116 161.792 357.162 150.265 354.149 145.873C352.712 143.78 350.665 142.802 348.532 143.189C346.642 143.534 345.089 144.93 344.66 146.662C344.168 148.654 345.212 149.888 345.878 150.456C347.087 151.489 348.793 151.848 350.028 151.329C351.176 150.844 351.524 149.441 351.248 148.357C351.124 147.847 350.679 146.671 349.23 146.789L349.078 144.964C351.002 144.807 352.554 145.968 353.03 147.921C353.485 149.783 352.844 152.131 350.739 153.019C348.864 153.807 346.433 153.339 344.688 151.853C343.011 150.42 342.347 148.363 342.878 146.227C343.484 143.763 345.574 141.864 348.202 141.387C351.039 140.873 353.826 142.163 355.657 144.837C359.464 150.385 357.648 164.742 357.567 165.349L357.489 165.932L356.93 166.108C356.343 166.29 342.516 170.572 336.391 167.791C333.454 166.455 331.703 163.95 331.703 161.087Z" fill="#CC9A29"/>
<path d="M350.693 145.932C349.767 145.154 348.385 145.274 347.609 146.202C346.837 147.13 346.951 148.507 347.879 149.283C348.805 150.059 350.184 149.941 350.961 149.014C351.735 148.086 351.619 146.706 350.693 145.932Z" fill="#CC9A29"/>
<path d="M570.566 52.3197C567.793 52.3197 565.547 50.0718 565.547 47.301C565.547 44.5302 567.793 42.2836 570.566 42.2836C573.339 42.2836 575.586 44.5302 575.586 47.301C575.586 50.0718 573.337 52.3197 570.566 52.3197Z" fill="#CC9A29"/>
<path d="M584.297 56.6281C581.916 56.6281 579.985 54.698 579.985 52.3207C579.985 49.9408 581.915 48.0107 584.297 48.0107C586.676 48.0107 588.605 49.942 588.605 52.3207C588.605 54.698 586.676 56.6281 584.297 56.6281Z" fill="#CC9A29"/>
<path d="M556.703 56.6281C554.326 56.6281 552.395 54.698 552.395 52.3207C552.395 49.9408 554.326 48.0107 556.703 48.0107C559.082 48.0107 561.012 49.942 561.012 52.3207C561.013 54.698 559.084 56.6281 556.703 56.6281Z" fill="#CC9A29"/>
<path d="M470.559 69.9211C467.954 70.8682 465.073 69.5251 464.125 66.9235C463.176 64.318 464.52 61.4383 467.125 60.4886C469.73 59.5428 472.61 60.8859 473.559 63.4888C474.508 66.0943 473.164 68.974 470.559 69.9211Z" fill="#CC9A29"/>
<path d="M484.937 69.2739C482.7 70.089 480.225 68.933 479.413 66.6967C478.599 64.4641 479.751 61.9881 481.988 61.1756C484.225 60.3605 486.697 61.5152 487.512 63.7503C488.326 65.9867 487.174 68.4614 484.937 69.2739Z" fill="#CC9A29"/>
<path d="M459.007 78.71C456.769 79.5238 454.295 78.3691 453.482 76.1327C452.668 73.8964 453.821 71.4242 456.058 70.6091C458.295 69.7953 460.767 70.95 461.582 73.1864C462.397 75.4227 461.244 77.8949 459.007 78.71Z" fill="#CC9A29"/>
<path d="M382.609 120.66C380.486 122.441 377.318 122.164 375.536 120.042C373.754 117.92 374.031 114.752 376.156 112.971C378.28 111.19 381.446 111.467 383.226 113.588C385.01 115.713 384.733 118.88 382.609 120.66Z" fill="#CC9A29"/>
<path d="M395.9 115.136C394.075 116.665 391.356 116.427 389.827 114.604C388.299 112.781 388.536 110.064 390.358 108.536C392.182 107.006 394.9 107.243 396.426 109.065C397.96 110.888 397.721 113.607 395.9 115.136Z" fill="#CC9A29"/>
<path d="M374.76 132.865C372.936 134.397 370.218 134.156 368.689 132.335C367.158 130.512 367.398 127.794 369.22 126.264C371.043 124.735 373.762 124.973 375.291 126.796C376.823 128.619 376.585 131.338 374.76 132.865Z" fill="#CC9A29"/>
<path d="M758.491 120.742C756.369 118.958 756.091 115.794 757.873 113.674C759.656 111.55 762.822 111.271 764.947 113.055C767.068 114.837 767.345 118.001 765.565 120.125C763.781 122.246 760.614 122.524 758.491 120.742Z" fill="#CC9A29"/>
<path d="M766.239 132.866C764.416 131.338 764.181 128.623 765.708 126.799C767.241 124.974 769.959 124.738 771.781 126.267C773.605 127.795 773.841 130.514 772.313 132.337C770.781 134.157 768.062 134.399 766.239 132.866Z" fill="#CC9A29"/>
<path d="M745.102 115.136C743.282 113.607 743.042 110.888 744.574 109.066C746.103 107.244 748.821 107.005 750.645 108.535C752.466 110.063 752.706 112.784 751.176 114.604C749.647 116.427 746.929 116.666 745.102 115.136Z" fill="#CC9A29"/>
<path d="M670.563 69.966C667.957 69.0176 666.614 66.1366 667.563 63.535C668.51 60.9308 671.393 59.5851 673.997 60.5361C676.602 61.4819 677.943 64.3629 676.998 66.9671C676.047 69.57 673.166 70.9144 670.563 69.966Z" fill="#CC9A29"/>
<path d="M681.992 78.712C679.756 77.8981 678.603 75.426 679.416 73.1896C680.231 70.952 682.706 69.7972 684.94 70.6123C687.176 71.4261 688.33 73.897 687.517 76.136C686.702 78.3723 684.229 79.5258 681.992 78.712Z" fill="#CC9A29"/>
<path d="M656.06 69.2765C653.828 68.4639 652.673 65.9905 653.489 63.7541C654.301 61.5178 656.772 60.363 659.011 61.1781C661.245 61.9932 662.402 64.4654 661.586 66.6992C660.774 68.9382 658.3 70.0916 656.06 69.2765Z" fill="#CC9A29"/>
</g>
</g>
</g>
<defs>
<clipPath id="clip0_2536_6070">
<rect width="1142" height="150" fill="white"/>
</clipPath>
<clipPath id="clip1_2536_6070">
<rect width="355" height="641" fill="white" transform="translate(891 -9) rotate(90)"/>
</clipPath>
</defs>
</svg>
